<?xml version="1.0" standalone="no"?>
<!DOCTYPE svg PUBLIC "-//W3C//DTD SVG 1.1//EN" "http://www.w3.org/Graphics/SVG/1.1/DTD/svg11.dtd" >
<svg xmlns="http://www.w3.org/2000/svg" xmlns:xlink="http://www.w3.org/1999/xlink" version="1.1">
<metadata>
Created by FontForge 20170731 at Fri Dec 17 21:18:01 2021
 By Aleksey,,,
Copyright 2016 The Smooch Sans Project Authors (https://github.com/googlefonts/smooch-sans)
</metadata>
<defs>
<font id="SmoochSans-Light" horiz-adv-x="396" >
  <font-face 
    font-family="Smooch Sans Light"
    font-weight="300"
    font-stretch="normal"
    units-per-em="1000"
    panose-1="0 0 0 0 0 0 0 0 0 0"
    ascent="800"
    descent="-200"
    x-height="470"
    cap-height="620"
    bbox="-119 -252 763 921"
    underline-thickness="50"
    underline-position="-175"
    unicode-range="U+000D-FB02"
  />
<missing-glyph horiz-adv-x="494" 
d="M87 40v498h320v-498h-320zM158 117l83 150l85 -150l13 22l-86 151l86 153l-13 23l-85 -152l-83 151l-11 -22l83 -151l-83 -153zM52 -5l-12 12v568l12 12h391l11 -12v-568l-11 -12h-391zM430 21v540h-364v-540h364z" />
    <glyph glyph-name="fi" unicode="fi" horiz-adv-x="383" 
d="M72 447h-43v23h43v81q0 39 18 54.5t66 15.5h75v-23h-59q-35 0 -47.5 -11.5t-12.5 -40.5v-76h201l-4 -23h-197v-447h-40v447zM297 470h38v-470h-38v470z" />
    <glyph glyph-name="fl" unicode="fl" horiz-adv-x="388" 
d="M72 447h-43v23h43v81q0 39 18 54.5t66 15.5l166 -1l-15 -22h-135q-35 0 -47.5 -11.5t-12.5 -40.5v-76h87l-4 -23h-83v-447h-40v447zM286 620h38v-620h-38v620z" />
    <glyph glyph-name="f_f" unicode="ff" horiz-adv-x="453" 
d="M72 447h-43v23h43v81q0 39 18 54.5t66 15.5h75v-23h-59q-35 0 -47.5 -11.5t-12.5 -40.5v-76h169l-5 -23h-164v-447h-40v447zM277 447h-43v23h43v81q0 39 18.5 54.5t64.5 15.5h76v-23h-59q-35 0 -47 -11.5t-12 -40.5v-76h86l-5 -23h-81v-447h-41v447z" />
    <glyph glyph-name="f_f_i" unicode="ffi" horiz-adv-x="589" 
d="M277 447h-43v23h43v81q0 39 18.5 54.5t64.5 15.5h76v-23h-59q-35 0 -47 -11.5t-12 -40.5v-76h207l-5 -23h-202v-447h-41v447zM72 447h-43v23h43v81q0 39 18 54.5t66 15.5h75v-23h-59q-35 0 -47.5 -11.5t-12.5 -40.5v-76h169l-5 -23h-164v-447h-40v447zM509 470h38v-470
h-38v470z" />
    <glyph glyph-name="f_f_l" unicode="ffl" horiz-adv-x="633" 
d="M72 0v447h-43v23h43v81q0 39 18 54.5t66 15.5h75v-23h-59q-35 0 -47.5 -11.5t-12.5 -40.5v-76h202l-4 -23h-198v-447h-40zM318 0v447h-43v23h43v81q0 39 17.5 54.5t64.5 15.5l164 -1l-16 -22h-131q-35 0 -47.5 -11.5t-12.5 -40.5v-76h87l-4 -23h-83v-447h-39zM532 0v620
h38v-620h-38z" />
    <glyph glyph-name=".notdef" horiz-adv-x="494" 
d="M87 40v498h320v-498h-320zM158 117l83 150l85 -150l13 22l-86 151l86 153l-13 23l-85 -152l-83 151l-11 -22l83 -151l-83 -153zM52 -5l-12 12v568l12 12h391l11 -12v-568l-11 -12h-391zM430 21v540h-364v-540h364z" />
    <glyph glyph-name=".null" horiz-adv-x="600" 
 />
    <glyph glyph-name="nonmarkingreturn" horiz-adv-x="333" 
 />
    <glyph glyph-name="CR" unicode="&#xd;" horiz-adv-x="120" 
 />
    <glyph glyph-name="space" unicode=" " horiz-adv-x="167" 
 />
    <glyph glyph-name="exclam" unicode="!" horiz-adv-x="220" 
d="M94 188l-12 432h40l-11 -432h-17zM101 5q-15 0 -17.5 5.5t-2.5 15.5q0 11 2.5 17t17.5 6q16 0 19 -6t3 -17q0 -10 -3 -15.5t-19 -5.5z" />
    <glyph glyph-name="quotedbl" unicode="&#x22;" horiz-adv-x="327" 
d="M79 407l-8 214h41l-6 -214h-27zM221 407l-8 214h41l-6 -214h-27z" />
    <glyph glyph-name="numbersign" unicode="#" horiz-adv-x="549" 
d="M78 0l69 223h-135l7 19h135l39 126h-136l7 20h137l58 186h25l-59 -186h133l58 186h26l-59 -186h132l-8 -20h-131l-39 -126h133l-6 -19h-133l-70 -223h-26l70 223h-132l-70 -223h-25zM311 242l40 126h-133l-39 -126h132z" />
    <glyph glyph-name="dollar" unicode="$" horiz-adv-x="344" 
d="M178 -3q-43 1 -75 7.5t-50 23.5t-18 49v126l38 7v-121q0 -29 23 -45t80 -16q39 0 59.5 8t27.5 25.5t7 46.5v96q0 39 -19 60.5t-53 31.5l-79 22q-45 13 -64.5 34.5t-19.5 65.5v106q0 43 17.5 64t49.5 28t76 7q42 0 71 -7t44.5 -24t15.5 -49v-127l-39 -8v120
q0 34 -18.5 49.5t-75.5 15.5q-58 0 -80.5 -18.5t-22.5 -62.5v-90q0 -34 20.5 -52t48.5 -26l82 -23q46 -13 65.5 -37.5t19.5 -69.5v-115q0 -44 -15 -65.5t-44 -28.5t-72 -8zM100 -93l13 111l27 -3l-13 -108h-27zM213 604l-27 5l14 107h28z" />
    <glyph glyph-name="percent" unicode="%" horiz-adv-x="535" 
d="M68 -44l340 674h28l-342 -674h-26zM401 8q-35 0 -53 8.5t-24.5 21t-6.5 24.5v142q0 14 6.5 26.5t26 21t57.5 8.5q37 0 55.5 -8t25.5 -20.5t7 -26.5v-135q0 -16 -7 -30.5t-27 -23t-60 -8.5zM401 27q34 0 52 9.5t18 34.5v130q0 23 -17 31.5t-47 8.5t-48 -8.5t-18 -31.5
v-134q0 -22 17 -31t43 -9zM124 366q-35 0 -53.5 8.5t-24.5 21.5t-6 26v142q0 13 6.5 26t26 21.5t56.5 8.5t56 -8.5t26 -21.5t7 -26v-134q0 -17 -7.5 -31.5t-27.5 -23.5t-59 -9zM124 387q34 0 52 9t18 34v130q0 22 -17 31t-48 9q-29 0 -47 -9t-18 -31v-134q0 -22 17 -30.5
t43 -8.5z" />
    <glyph glyph-name="ampersand" unicode="&#x26;" horiz-adv-x="474" 
d="M220 4q-65 0 -94 15.5t-36.5 41.5t-7.5 59v112q0 33 6.5 57.5t31 38.5t78.5 15q-50 1 -74.5 12.5t-31.5 33.5t-7 55v89q0 41 11 61t40.5 26.5t83.5 6.5q57 0 86 -7.5t39.5 -28t10.5 -58.5v-110l-38 -13v113q0 26 -6.5 41t-27.5 21t-66 6q-42 0 -62.5 -6t-27 -20t-6.5 -39
v-79q0 -37 7.5 -57.5t33 -28.5t77.5 -8h70v-19h-70q-51 0 -77 -10t-34 -31t-9 -57v-111q0 -14 1 -30t9 -29.5t28 -21.5t58 -8q41 0 62 8t29.5 21.5t9.5 29.5t1 30v187h111l-11 -30h-62v-148q0 -27 -2.5 -50.5t-15.5 -41.5t-40.5 -28t-77.5 -10z" />
    <glyph glyph-name="quotesingle" unicode="'" horiz-adv-x="186" 
d="M80 407l-8 214h41l-6 -214h-27z" />
    <glyph glyph-name="parenleft" unicode="(" horiz-adv-x="366" 
d="M295 -119q-61 4 -109 36t-81.5 83.5t-51 116.5t-17.5 135q0 78 19.5 151.5t55.5 132.5t85.5 95t109.5 38v-20q-46 -3 -83.5 -28.5t-65.5 -67t-47 -92t-28.5 -104.5t-9.5 -103q0 -60 13 -119.5t40.5 -109.5t69.5 -83.5t100 -40.5v-20z" />
    <glyph glyph-name="parenright" unicode=")" horiz-adv-x="366" 
d="M71 671q61 -5 109 -36.5t81.5 -83t51 -116t17.5 -135.5q0 -78 -19.5 -151.5t-55.5 -132.5t-85.5 -95t-109.5 -39v21q46 3 83.5 28.5t65.5 67t47 92t28.5 104t9.5 103.5q0 60 -13 119.5t-40.5 109.5t-69.5 83.5t-100 40.5v20z" />
    <glyph glyph-name="asterisk" unicode="*" horiz-adv-x="424" 
d="M130 322l-24 18l97 114l-144 36l7 25l142 -49l-11 146h30l-8 -146l138 53l8 -23l-142 -42l96 -114l-24 -18l-82 126z" />
    <glyph glyph-name="plus" unicode="+" horiz-adv-x="390" 
d="M56 296v23h279v-23h-279zM205 160h-23v280h23v-280zM56 296v23h279v-23h-279z" />
    <glyph glyph-name="comma" unicode="," horiz-adv-x="187" 
d="M41 -104q15 27 23 54.5t8 56.5q-14 0 -16.5 5t-2.5 12q0 8 0.5 13.5t5.5 8.5t16 3q15 0 18 -6t3 -17q0 -22 -5 -47t-12 -47t-16 -36h-22z" />
    <glyph glyph-name="hyphen" unicode="-" horiz-adv-x="384" 
d="M68 287v32h249v-32h-249z" />
    <glyph glyph-name="period" unicode="." horiz-adv-x="158" 
d="M72 5q-16 0 -18.5 5.5t-2.5 15.5q0 11 2.5 17t18.5 6q15 0 18.5 -6t3.5 -17q0 -10 -3.5 -15.5t-18.5 -5.5z" />
    <glyph glyph-name="slash" unicode="/" horiz-adv-x="444" 
d="M39 -44l340 674h27l-342 -674h-25z" />
    <glyph glyph-name="zero" unicode="0" horiz-adv-x="376" 
d="M46 175v317q0 43 12.5 69t34 39.5t45.5 18t49 4.5t50.5 -4.5t46 -18t33.5 -40t13 -69.5v-316h-39v310q0 46 -16 68.5t-40 29.5t-48 7q-22 0 -45.5 -7.5t-40 -29.5t-16.5 -67v-311h-39zM187 -6q-25 0 -49 4.5t-45.5 18t-34 39.5t-12.5 69v317h39v-311q0 -45 16.5 -67
t40 -29.5t45.5 -7.5q24 0 48 7t40 30t16 68v310h39v-316q0 -44 -13 -70t-33.5 -39.5t-46 -18t-50.5 -4.5z" />
    <glyph glyph-name="one" unicode="1" horiz-adv-x="261" 
d="M160 0v566l-120 -145l-23 21l143 178h38v-620h-38z" />
    <glyph glyph-name="two" unicode="2" horiz-adv-x="348" 
d="M37 0v24q1 60 9 100.5t23.5 68.5t38 50t51.5 44q9 7 18.5 13.5t17.5 12.5q42 35 60 65.5t18 80.5v33q0 53 -22 76t-60 23h-26q-34 0 -52.5 -15.5t-25 -37.5t-6.5 -41v-100l-39 6v88q0 49 14 77t42 40t70 12h29q38 0 63.5 -12.5t38 -39t12.5 -68.5v-51q0 -54 -25.5 -90
t-69.5 -72q-11 -10 -23.5 -20t-26.5 -20q-41 -34 -60.5 -71.5t-25 -75t-5.5 -69.5h236l-9 -31h-265z" />
    <glyph glyph-name="three" unicode="3" horiz-adv-x="362" 
d="M167 0q-45 0 -72.5 13.5t-39.5 42.5t-12 75v87l38 -7v-67q0 -54 19 -83.5t66 -29.5h28q49 0 66.5 31.5t17.5 79.5v53q0 45 -12 69t-32.5 33t-48.5 9h-64v28h61q26 0 48 9.5t35 34.5t13 69v47q0 56 -19 76.5t-63 20.5h-34q-32 0 -50 -14t-24.5 -36.5t-6.5 -47.5v-83
l-38 10v75q0 63 29 94t82 31h49q36 0 61.5 -10.5t38.5 -38t13 -79.5v-44q0 -31 -8.5 -55.5t-23.5 -41t-32.5 -24.5t-34.5 -8v-1q17 0 34.5 -6t32.5 -19t23.5 -34.5t8.5 -52.5l1 -74q0 -69 -32 -100.5t-88 -31.5h-30z" />
    <glyph glyph-name="four" unicode="4" horiz-adv-x="406" 
d="M259 0l1 129h-236l-14 20l245 471h46l-2 -459h101l-8 -32h-91v-129h-42zM56 161h205v405z" />
    <glyph glyph-name="five" unicode="5" horiz-adv-x="361" 
d="M162 -2q-42 0 -67 15t-35.5 44.5t-10.5 75.5v84l39 -10v-72q0 -46 15 -75.5t61 -29.5h36q39 0 62.5 28t23.5 75v101q0 55 -9.5 84.5t-28 40t-48.5 10.5h-20q-29 0 -49 -13.5t-30.5 -29t-12.5 -23.5l-38 8v309h261v-31h-223v-243q3 4 15.5 16.5t34 23.5t51.5 11h26
q29 0 49.5 -7.5t33.5 -26t19.5 -49t6.5 -76.5v-100q0 -42 -11.5 -69t-29.5 -43t-38.5 -22t-38.5 -6h-44z" />
    <glyph glyph-name="six" unicode="6" horiz-adv-x="362" 
d="M180 -4q-29 0 -53.5 6.5t-42.5 23.5t-28 48.5t-10 82.5v343q0 40 13 67.5t43.5 41.5t81.5 14q48 0 77.5 -13.5t43.5 -39t14 -62.5v-59l-38 -8v57q0 45 -22.5 69t-74.5 24q-53 0 -76.5 -24t-23.5 -69v-172q6 28 35 47.5t77 19.5q51 0 78 -19t36 -48.5t9 -62.5v-106
q0 -51 -9.5 -83t-27.5 -48.5t-44 -23t-58 -6.5zM179 29q32 0 55 10t35 39t12 87v93q0 26 -7 51t-28 41t-63 16q-52 0 -75.5 -29t-23.5 -79v-93q0 -58 13.5 -87t35 -39t46.5 -10z" />
    <glyph glyph-name="seven" unicode="7" horiz-adv-x="332" 
d="M25 0l251 589h-257l7 31h306l-263 -620h-44z" />
    <glyph glyph-name="eight" unicode="8" horiz-adv-x="366" 
d="M172 -2q-43 0 -72 14t-42.5 46.5t-13.5 87.5v46q0 42 10.5 69.5t29 41.5t43.5 16q-23 7 -41.5 20t-28.5 39t-10 69v38q0 49 13 79t41 44t71 14h25q62 0 92 -31.5t30 -105.5v-37q0 -43 -10.5 -69t-28.5 -39.5t-42 -20.5q25 -2 44 -16.5t30 -41.5t11 -69v-30
q0 -63 -15 -98.5t-45 -50.5t-77 -15h-14zM180 29q31 0 54.5 9.5t36.5 38t13 85.5v38q0 35 -7.5 59t-29 36.5t-64.5 12.5q-41 0 -63 -12.5t-30 -36.5t-8 -59v-50q0 -51 14 -77t36.5 -35t47.5 -9zM183 338q31 0 53 8.5t34 32.5t12 68v36q0 33 -7 57.5t-28 38.5t-64 14
q-41 0 -62.5 -14t-29 -38t-7.5 -55v-39q0 -45 12 -68.5t34 -32t53 -8.5z" />
    <glyph glyph-name="nine" unicode="9" horiz-adv-x="362" 
d="M179 -4q-48 0 -78 13.5t-43.5 39.5t-13.5 62v72l37 -7v-55q0 -45 23 -69t75 -24q54 0 76.5 24t22.5 69v172q-6 -28 -34 -47.5t-76 -19.5q-52 0 -79 19t-36.5 49t-9.5 62v106q0 51 10 83t28 48.5t43.5 23t58.5 6.5q28 0 53 -6.5t43 -23.5t27.5 -48.5t9.5 -82.5v-343
q0 -40 -12.5 -67.5t-42.5 -41.5t-82 -14zM180 253q53 0 75.5 29.5t22.5 78.5v93q0 58 -13 87t-34.5 39t-46.5 10q-32 0 -55 -10t-35.5 -39t-12.5 -87v-93q0 -26 7.5 -50.5t29 -41t62.5 -16.5z" />
    <glyph glyph-name="colon" unicode=":" horiz-adv-x="166" 
d="M72 355q-16 0 -18.5 5.5t-2.5 15.5q0 11 2.5 17t18.5 6q15 0 18.5 -6t3.5 -17q0 -10 -3.5 -15.5t-18.5 -5.5zM72 5q-16 0 -18.5 5.5t-2.5 15.5q0 11 2.5 17t18.5 6q15 0 18.5 -6t3.5 -17q0 -10 -3.5 -15.5t-18.5 -5.5z" />
    <glyph glyph-name="semicolon" unicode=";" horiz-adv-x="191" 
d="M41 -104q15 27 23 54.5t8 56.5q-12 0 -15.5 5t-3.5 12q0 8 1 13.5t6 8.5t15 3q14 0 17 -6t3 -17q0 -22 -4.5 -47t-11.5 -47t-16 -36h-22zM72 355q-16 0 -18.5 5.5t-2.5 15.5q0 11 2.5 17t18.5 6q15 0 18.5 -6t3.5 -17q0 -10 -3.5 -15.5t-18.5 -5.5z" />
    <glyph glyph-name="less" unicode="&#x3c;" horiz-adv-x="389" 
d="M296 124l-247 189v26l247 191v-33l-223 -171l223 -169v-33z" />
    <glyph glyph-name="equal" unicode="=" horiz-adv-x="377" 
d="M56 296v23h273v-23h-273zM56 106v24h273v-24h-273z" />
    <glyph glyph-name="greater" unicode="&#x3e;" horiz-adv-x="389" 
d="M94 124v33l223 169l-223 171v33l247 -191v-26z" />
    <glyph glyph-name="question" unicode="?" horiz-adv-x="381" 
d="M114 146l-4 171h104q35 0 49 10.5t16.5 28t2.5 38.5v101q0 49 -24 71.5t-57 22.5h-32q-33 0 -51 -15.5t-25.5 -37.5t-7.5 -41v-109l-38 6v97q0 70 33 101t96 31h26q55 0 86.5 -31.5t31.5 -90.5v-112q0 -55 -21.5 -76.5t-75.5 -22.5h-77l-7 -142h-25zM127 1
q-14 0 -17.5 4.5t-3.5 15.5q0 12 3.5 17t17.5 5t17.5 -5t3.5 -17q0 -11 -3.5 -15.5t-17.5 -4.5z" />
    <glyph glyph-name="at" unicode="@" horiz-adv-x="569" 
d="M285 -72q-85 1 -139.5 30t-81 95t-26.5 177q0 89 15 147t45.5 91.5t77.5 47t111 13.5q76 0 130.5 -24.5t84 -82t29.5 -156.5q0 -26 -2.5 -58t-9.5 -62.5t-20 -55.5t-35 -40.5t-54 -15.5t-45.5 17t-13.5 66q-6 -17 -18 -26.5t-37 -9.5h-34q-29 0 -43.5 11t-19 30.5
t-4.5 43.5v20q0 42 11 64.5t43 22.5h91v52q-1 26 -9 41t-34 15h-24q-41 0 -41 -56v-24h-29v26q0 35 15.5 53.5t45.5 18.5h29q31 0 48 -9t23.5 -26t6.5 -43v-163q0 -44 3 -65.5t11 -28.5t24 -7q24 0 40 17.5t26 47.5t14 66t4 73q0 48 -8 92t-29.5 78.5t-62 54t-106.5 19.5
q-76 0 -122.5 -25.5t-67.5 -85.5t-21 -164q0 -87 17 -149.5t63 -95.5t132 -33q21 0 45.5 4t46 10t30.5 13l9 -17q-19 -15 -57 -24.5t-77 -9.5zM293 100q22 0 34.5 14t12.5 41v99h-75q-21 0 -30.5 -11.5t-9.5 -46.5v-35q0 -37 12.5 -49t34.5 -12h21z" />
    <glyph glyph-name="A" unicode="A" horiz-adv-x="372" 
d="M21 0l131 620h68l129 -620h-40l-32 154l9 -8h-203l8 8l-31 -154h-39zM92 172l-4 6h194l-6 -6l-79 400l-2 5h-19l-2 -5z" />
    <glyph glyph-name="B" unicode="B" horiz-adv-x="388" 
d="M63 0v620h155q42 0 66 -7.5t34 -29t10 -63.5v-58q0 -36 -11.5 -61t-28 -38.5t-32.5 -15.5l1 -1q29 -5 47 -19t25.5 -36t7.5 -52v-122q0 -44 -8.5 -69.5t-32.5 -36.5t-71 -11h-162zM102 31h113q28 0 46 6t27 25.5t9 59.5v124q0 44 -28.5 63t-70.5 19h-96v-297zM102 359
h108q19 0 37 9t30 31.5t12 63.5v38q0 34 -4.5 53.5t-21 28t-52.5 8.5h-109v-232z" />
    <glyph glyph-name="C" unicode="C" horiz-adv-x="370" 
d="M187 -6q-65 0 -100 25t-35 76v424q0 54 31.5 81.5t100.5 27.5q72 0 105.5 -26.5t33.5 -83.5v-132l-38 -6v130q0 39 -20.5 62t-77.5 23q-56 0 -76 -23.5t-20 -60.5v-408q0 -34 23 -55.5t73 -21.5q51 0 74.5 21.5t23.5 56.5v124l38 7v-139q0 -52 -35.5 -77t-100.5 -25z" />
    <glyph glyph-name="D" unicode="D" horiz-adv-x="388" 
d="M63 620h187q47 0 66 -25t19 -72v-425q0 -53 -17 -75.5t-75 -22.5h-180v620zM222 31q44 0 59.5 15.5t15.5 61.5v405q0 39 -17 57.5t-48 18.5h-131v-558h121z" />
    <glyph glyph-name="E" unicode="E" horiz-adv-x="365" 
d="M63 620h270v-31h-231v-223h215l-7 -30h-208v-306h231v-30h-270v620z" />
    <glyph glyph-name="F" unicode="F" horiz-adv-x="360" 
d="M63 620h270v-31h-231v-223h215l-6 -30h-209v-336h-39v620z" />
    <glyph glyph-name="G" unicode="G" horiz-adv-x="376" 
d="M193 -3q-44 0 -75.5 7t-48.5 26.5t-17 56.5v449q0 53 37.5 70.5t103.5 17.5q65 0 99.5 -18t34.5 -71v-109l-39 -5v108q0 39 -25 51t-70 12t-73.5 -10.5t-28.5 -51.5v-438q0 -29 13 -42t36 -17t53 -4q28 0 49.5 4t34 17t12.5 42v208h-120l5 33h153v-246q0 -37 -15.5 -56.5
t-45.5 -26.5t-73 -7z" />
    <glyph glyph-name="H" unicode="H" horiz-adv-x="398" 
d="M63 620h39v-254h195v254h38v-620h-38v336h-195v-336h-39v620z" />
    <glyph glyph-name="I" unicode="I" horiz-adv-x="165" 
d="M63 620h39v-620h-39v620z" />
    <glyph glyph-name="J" unicode="J" horiz-adv-x="186" 
d="M7 0l-7 31h51q19 0 27 5t9.5 20t1.5 46v518h38v-527q0 -40 -3 -60.5t-18 -26.5t-50 -6h-49z" />
    <glyph glyph-name="K" unicode="K" horiz-adv-x="353" 
d="M307 -8l-179 343l167 289l30 -18l-156 -270l173 -326zM63 620h39v-620h-39v620z" />
    <glyph glyph-name="L" unicode="L" horiz-adv-x="321" 
d="M63 620h39v-590h204v-30h-243v620z" />
    <glyph glyph-name="M" unicode="M" horiz-adv-x="548" 
d="M63 0v620h49l160 -500l1 -3h1l1 3l159 500h51v-620h-39v541v2l-2 -11l-155 -474h-31l-154 470l-1 7l-1 2v-537h-39z" />
    <glyph glyph-name="N" unicode="N" horiz-adv-x="405" 
d="M63 0v620h39l199 -533l1 -5l1 -2v540h39v-620h-42l-196 517l-2 7h-1v-524h-38z" />
    <glyph glyph-name="O" unicode="O" horiz-adv-x="379" 
d="M189 -3q-66 0 -101.5 24t-35.5 69v448q0 38 32 64.5t105 25.5t105 -26.5t32 -64.5v-446q0 -45 -34.5 -69.5t-102.5 -24.5zM189 29q52 0 75.5 20.5t23.5 49.5v430q0 25 -21 46t-80 21q-55 0 -76 -20.5t-21 -45.5v-431q0 -30 24 -50t75 -20z" />
    <glyph glyph-name="P" unicode="P" horiz-adv-x="370" 
d="M63 620h178q43 0 63.5 -10.5t27 -32t6.5 -53.5v-156q0 -36 -6 -67.5t-31 -51t-82 -19.5h-117v-230h-39v620zM212 261q43 0 65.5 22t22.5 72v156q0 43 -15.5 60.5t-58.5 17.5h-124v-328h110z" />
    <glyph glyph-name="Q" unicode="Q" horiz-adv-x="374" 
d="M189 -6q-66 0 -101.5 25t-35.5 76v424q0 55 32.5 82.5t104.5 26.5t105 -27.5t33 -82.5v-422q0 -52 -36.5 -77t-101.5 -25zM189 26q52 0 75.5 21t23.5 55v409q0 39 -20.5 61.5t-78.5 22.5q-57 0 -77.5 -23t-20.5 -60v-412q0 -34 24 -54t74 -20zM329 -112l-109 112l26 26
l111 -111z" />
    <glyph glyph-name="R" unicode="R" horiz-adv-x="388" 
d="M63 620h178q43 0 63.5 -10.5t27 -32t6.5 -53.5v-109q0 -36 -6 -67.5t-31 -51t-82 -19.5h-117v-277h-39v620zM323 -12l-115 292l27 4l11 -3l3 -8l110 -271zM212 309q43 0 65.5 21.5t22.5 72.5v108q0 43 -15.5 60.5t-58.5 17.5h-124v-280h110z" />
    <glyph glyph-name="S" unicode="S" horiz-adv-x="367" 
d="M189 -3q-42 1 -74.5 7.5t-50.5 23.5t-18 49v126l38 7v-121q0 -29 22.5 -45t80.5 -16q39 0 59.5 8t27.5 25.5t7 46.5v96q0 39 -18.5 60.5t-53.5 31.5l-79 22q-45 13 -64.5 34.5t-19.5 65.5v106q0 43 17.5 64t49.5 28t76 7q42 0 71 -7t44.5 -24t15.5 -49v-127l-39 -8v120
q0 34 -18.5 49.5t-75.5 15.5q-58 0 -80.5 -18.5t-22.5 -62.5v-90q0 -34 20 -52t49 -26l82 -23q46 -13 65.5 -37.5t19.5 -69.5v-115q0 -44 -15 -65.5t-44 -28.5t-72 -8z" />
    <glyph glyph-name="T" unicode="T" horiz-adv-x="303" 
d="M131 589h-111v31h263v-31h-113v-589h-39v589z" />
    <glyph glyph-name="U" unicode="U" horiz-adv-x="390" 
d="M195 -5q-37 0 -68 9t-49.5 29.5t-18.5 55.5v531h39v-517q0 -20 8 -37.5t28.5 -28.5t60.5 -11q42 0 63 11t28 28.5t7 37.5v517h38v-531q0 -35 -17.5 -55.5t-48 -29.5t-70.5 -9z" />
    <glyph glyph-name="V" unicode="V" horiz-adv-x="355" 
d="M156 0l-132 620h39l114 -559l1 -12h1v12l112 559h40l-132 -620h-43z" />
    <glyph glyph-name="W" unicode="W" horiz-adv-x="554" 
d="M141 0l-117 620h40l98 -542l1 -13h1v13l102 509h32l94 -509l1 -13h1l1 13l95 542h39l-114 -620h-42l-89 494v9h-1l-1 -9l-100 -494h-41z" />
    <glyph glyph-name="X" unicode="X" horiz-adv-x="362" 
d="M24 0l129 325l-123 295h40l108 -264l3 -14h1l3 14l107 264h40l-122 -295l129 -325h-41l-114 288l-2 16h-1l-3 -16l-114 -288h-40z" />
    <glyph glyph-name="Y" unicode="Y" horiz-adv-x="338" 
d="M149 0v262l-136 358h36l118 -306l2 -12h1l2 12l116 306h37l-138 -358v-262h-38z" />
    <glyph glyph-name="Z" unicode="Z" horiz-adv-x="291" 
d="M13 0l202 589h-186v31h234l-201 -589h208v-31h-257z" />
    <glyph glyph-name="bracketleft" unicode="[" horiz-adv-x="206" 
d="M36 630h130v-18h-92v-651h92v-18h-130v687z" />
    <glyph glyph-name="backslash" unicode="\" horiz-adv-x="444" 
d="M381 -44l-342 674h27l340 -674h-25z" />
    <glyph glyph-name="bracketright" unicode="]" horiz-adv-x="206" 
d="M39 -39h92v651h-92v18h130v-687h-130v18z" />
    <glyph glyph-name="asciicircum" unicode="^" horiz-adv-x="285" 
d="M36 648l86 92h41l87 -92h-27l-80 76l-81 -76h-26z" />
    <glyph glyph-name="underscore" unicode="_" horiz-adv-x="634" 
d="M0 -98v32h642v-32h-642z" />
    <glyph glyph-name="grave" unicode="`" horiz-adv-x="126" 
d="M100 536l-100 93h41l85 -93h-26z" />
    <glyph glyph-name="a" unicode="a" 
d="M130 0q-35 0 -50 9.5t-18.5 37t-3.5 79.5v255q0 39 8 58t30.5 25t67.5 6h168v-470h-38v439h-140q-30 0 -42 -8t-14 -25.5t-2 -49.5v-246q0 -32 3 -49t14 -23.5t33 -6.5h114l-5 -31h-125z" />
    <glyph glyph-name="b" unicode="b" horiz-adv-x="395" 
d="M64 0v630h38v-160h130q45 0 67.5 -6t30 -25t7.5 -58v-252q0 -54 -3.5 -82t-18.5 -37.5t-53 -9.5h-198zM102 31h146q23 0 33.5 6.5t14 23.5t3.5 49v246q0 32 -1.5 49.5t-13.5 25.5t-43 8h-139v-408z" />
    <glyph glyph-name="c" unicode="c" horiz-adv-x="379" 
d="M184 -4q-54 0 -82 16t-38 40.5t-10 48.5v269q0 25 10 49t39.5 40t87.5 16q57 0 86 -16t40 -40t11 -49v-67l-38 -7v68q0 41 -27 61t-72 20q-44 0 -71.5 -19.5t-27.5 -61.5v-256q0 -42 27 -61.5t65 -19.5q50 0 78 21t28 68v59l38 6v-66q0 -31 -11.5 -58.5t-42.5 -44
t-90 -16.5z" />
    <glyph glyph-name="d" unicode="d" 
d="M132 0q-31 0 -47 6.5t-21.5 28.5t-5.5 69v278q0 37 7.5 56t28.5 25.5t63 6.5h137v160h38v-630h-200zM294 31v408h-137q-38 0 -49.5 -10.5t-11.5 -47.5v-289q0 -40 11 -50.5t40 -10.5h147z" />
    <glyph glyph-name="e" unicode="e" horiz-adv-x="383" 
d="M184 -4q-54 0 -82 16t-38 40.5t-10 48.5v269q0 25 10 49t39.5 40t87.5 16q57 0 86 -16t40 -40t11 -49v-118l-38 -2v114q0 41 -27 61t-72 20q-44 0 -71.5 -19.5t-27.5 -61.5v-256q0 -42 27 -61.5t65 -19.5q50 0 78 21t28 68v53l38 5v-59q0 -31 -11.5 -58.5t-42.5 -44
t-90 -16.5zM62 233v23h266v-23h-266z" />
    <glyph glyph-name="f" unicode="f" horiz-adv-x="208" 
d="M72 447h-43v23h43v81q0 39 18 54.5t66 15.5h74v-23h-60q-35 0 -47.5 -11.5t-12.5 -40.5v-76h88l-4 -23h-84v-447h-38v447z" />
    <glyph glyph-name="g" unicode="g" 
d="M113 -172l-6 31h140q30 0 38.5 15t8.5 47v518h-140q-30 0 -42 -8t-14 -25.5t-2 -49.5v-246q0 -32 3 -49t14 -23.5t33 -6.5h114l-5 -31h-125q-35 0 -50 9.5t-18.5 37t-3.5 79.5v255q0 39 8 58t30.5 25t67.5 6h168v-558q0 -45 -16 -64.5t-58 -19.5h-145z" />
    <glyph glyph-name="h" unicode="h" horiz-adv-x="395" 
d="M64 630h38v-207q16 25 42.5 38.5t69.5 13.5q53 0 79 -16t35 -39.5t9 -45.5v-374h-38v361q0 45 -27 64t-72 19q-40 0 -62 -14.5t-36 -37.5v-392h-38v630z" />
    <glyph glyph-name="i" unicode="i" horiz-adv-x="165" 
d="M64 0v470h38v-470h-38zM82 540q-16 0 -20 4t-4 17t4 17.5t20 4.5q15 0 19.5 -4.5t4.5 -17.5t-4.5 -17t-19.5 -4z" />
    <glyph glyph-name="j" unicode="j" horiz-adv-x="173" 
d="M-41 -172l-6 31h72q29 0 37.5 15t8.5 47v549h38v-558q0 -45 -15.5 -64.5t-57.5 -19.5h-77zM90 540q-15 0 -19.5 4t-4.5 17t4.5 17.5t19.5 4.5q16 0 20 -4.5t4 -17.5t-4 -17t-20 -4z" />
    <glyph glyph-name="k" unicode="k" horiz-adv-x="342" 
d="M64 0v629h38v-629h-38zM301 0l-161 227h-55v29h55l138 226l36 -15l-139 -222l170 -245h-44z" />
    <glyph glyph-name="l" unicode="l" horiz-adv-x="166" 
d="M64 629h38v-629h-38v629z" />
    <glyph glyph-name="m" unicode="m" horiz-adv-x="630" 
d="M64 0v472h30l4 -49q17 25 45 39.5t71 14.5q42 0 66.5 -10.5t37.5 -28t17 -36.5l-10 -7q6 30 25.5 48t46 26t53.5 8q53 0 78.5 -16.5t34.5 -40.5t9 -46v-374h-38v362q0 45 -27.5 64.5t-70.5 19.5q-41 0 -70 -19.5t-29 -63.5v-363h-38v363q0 44 -27.5 63.5t-71.5 19.5
q-40 0 -62 -15.5t-36 -38.5v-392h-38z" />
    <glyph glyph-name="n" unicode="n" horiz-adv-x="395" 
d="M64 472h30l4 -49q16 24 44.5 39t71.5 15q62 0 92.5 -26t30.5 -77v-374h-38v362q0 44 -27 63.5t-72 19.5q-38 0 -61 -15t-37 -38v-392h-38v472z" />
    <glyph glyph-name="o" unicode="o" horiz-adv-x="383" 
d="M184 -4q-54 0 -82 16t-38 40.5t-10 48.5v269q0 25 10 49t39.5 40t87.5 16q57 0 86 -16t40 -40t11 -49v-255q0 -31 -11.5 -58.5t-42.5 -44t-90 -16.5zM184 27q50 0 78 21t28 68v248q0 41 -27 61t-72 20q-44 0 -71.5 -19.5t-27.5 -61.5v-256q0 -42 27 -61.5t65 -19.5z" />
    <glyph glyph-name="p" unicode="p" horiz-adv-x="395" 
d="M64 470h198q38 0 53 -9.5t18.5 -37.5t3.5 -82v-252q0 -39 -7.5 -58t-30 -25t-67.5 -6h-130v-160h-38v630zM102 439v-408h139q31 0 43 8t13.5 26t1.5 49v246q0 32 -3.5 49t-14 23.5t-33.5 6.5h-146z" />
    <glyph glyph-name="q" unicode="q" horiz-adv-x="395" 
d="M331 470v-630h-38v160h-130q-44 0 -66.5 6t-30.5 25t-8 58v252q0 54 3.5 82t19 37.5t52.5 9.5h198zM293 439h-146q-22 0 -33 -6.5t-14.5 -23.5t-3.5 -49v-246q0 -31 2 -49t14 -26t42 -8h139v408z" />
    <glyph glyph-name="r" unicode="r" horiz-adv-x="269" 
d="M64 0v470h30l4 -49q17 26 43 40t57 14q23 0 35.5 -2.5t24.5 -7.5l-2 -35q-13 7 -26.5 9.5t-33.5 2.5q-34 0 -57 -17t-37 -43v-382h-38z" />
    <glyph glyph-name="s" unicode="s" horiz-adv-x="362" 
d="M177 -6q-69 0 -99 29.5t-30 82.5v69l35 6v-74q0 -21 7.5 -40.5t28 -32t58.5 -12.5q47 0 74 16.5t27 68.5q0 43 -14 64.5t-52 38.5q-6 3 -20.5 9t-31.5 12.5t-30.5 12.5t-19.5 9q-23 12 -36.5 25t-19.5 31.5t-6 45.5v11q0 56 32.5 82.5t102.5 26.5t100 -25t30 -81v-73
l-35 -5v74q0 48 -25 65t-71 17t-66.5 -14t-26.5 -33.5t-6 -36.5q0 -38 9.5 -54t36.5 -31q14 -7 33.5 -15t39 -15.5t32.5 -13.5q46 -22 62.5 -46t16.5 -71v-8q0 -57 -29 -86t-107 -29z" />
    <glyph glyph-name="t" unicode="t" horiz-adv-x="211" 
d="M161 0q-38 0 -59.5 10t-30.5 32.5t-9 59.5v339h-33v29h38l6 88h27v-88h85l-8 -29h-77v-335q0 -45 18.5 -60t52.5 -15h28v-31h-38z" />
    <glyph glyph-name="u" unicode="u" 
d="M182 0q-53 0 -79.5 15.5t-35 37.5t-8.5 44v373h38v-358q0 -44 27 -62.5t72 -18.5h99v439h38v-470h-151z" />
    <glyph glyph-name="v" unicode="v" horiz-adv-x="310" 
d="M140 0l-125 470h36l105 -399l6 28l95 371h37l-126 -470h-28z" />
    <glyph glyph-name="w" unicode="w" horiz-adv-x="548" 
d="M12 470h39l111 -393l94 393h32l97 -390l110 390h38l-132 -470h-27l-101 407l-101 -407h-28z" />
    <glyph glyph-name="x" unicode="x" horiz-adv-x="306" 
d="M257 0l-93 241l91 229h34l-90 -229l92 -241h-34zM15 0l93 241l-91 229h35l91 -229l-93 -241h-35zM120 224v31h66v-31h-66z" />
    <glyph glyph-name="y" unicode="y" horiz-adv-x="318" 
d="M-6 -170l2 26h35q37 0 59.5 16.5t34.5 66.5l17 66l-127 465h37l107 -403l1 -9h-3l1 9l107 403h38l-146 -540q-15 -54 -39.5 -77t-80.5 -23h-43z" />
    <glyph glyph-name="z" unicode="z" horiz-adv-x="287" 
d="M22 9l194 430h-192l9 31h225v-22l-188 -417h197l-15 -31h-230v9z" />
    <glyph glyph-name="braceleft" unicode="{" horiz-adv-x="308" 
d="M252 -135q-62 0 -99 14t-56.5 35t-26.5 42.5t-7 36.5q0 37 8 69t15.5 61.5t7.5 58.5q0 38 -15.5 58.5t-44.5 20.5v8q29 0 44.5 21t15.5 58q0 32 -7.5 60.5t-15.5 59t-8 69.5q0 15 7 36.5t26.5 42.5t56.5 35t99 14v-25q-48 0 -77 -11.5t-44.5 -28.5t-21.5 -35.5t-6 -33.5
q0 -30 7 -58l14 -56t7 -61q0 -37 -14.5 -60t-47.5 -31q33 -7 47.5 -30.5t14.5 -60.5q0 -32 -7 -59t-14 -55t-7 -61q0 -15 6 -33.5t21.5 -35.5t44.5 -28.5t77 -11.5v-25z" />
    <glyph glyph-name="bar" unicode="|" horiz-adv-x="216" 
d="M92 649h32v-722h-32v722z" />
    <glyph glyph-name="braceright" unicode="}" horiz-adv-x="308" 
d="M56 -135v25q47 0 76.5 11.5t45 28.5t21 35.5t5.5 33.5q0 33 -7 61t-14 55t-7 59q0 37 15 60.5t47 30.5q-32 8 -47 31t-15 60q0 33 7 61l14 56t7 58q0 15 -5.5 33.5t-21 35.5t-45 28.5t-76.5 11.5v25q62 0 99 -14t56.5 -35t26 -42.5t6.5 -36.5q0 -39 -7.5 -69.5t-15.5 -59
t-8 -60.5q0 -37 15.5 -58t44.5 -21v-8q-29 0 -44.5 -20.5t-15.5 -58.5q0 -29 8 -58.5t15.5 -61.5t7.5 -69q0 -15 -6.5 -36.5t-26 -42.5t-56.5 -35t-99 -14z" />
    <glyph glyph-name="asciitilde" unicode="~" horiz-adv-x="413" 
d="M54 624q0 39 23 57t58 18q31 0 53 -11t42 -22.5t45 -11.5q32 0 44.5 15t12.5 29h27q0 -39 -24.5 -54.5t-56.5 -15.5q-30 0 -52 11.5t-42 23t-44 11.5q-27 0 -42 -13.5t-15 -36.5h-29z" />
    <glyph glyph-name="uni00A0" unicode="&#xa0;" horiz-adv-x="167" 
 />
    <glyph glyph-name="exclamdown" unicode="&#xa1;" horiz-adv-x="220" 
d="M111 474q15 0 18.5 -5.5t3.5 -15.5q0 -11 -3.5 -16.5t-18.5 -5.5t-18 5.5t-3 16.5q0 10 3 15.5t18 5.5zM103 291h17l12 -432h-40z" />
    <glyph glyph-name="cent" unicode="&#xa2;" horiz-adv-x="344" 
d="M164 92q-54 0 -81.5 16t-37.5 41t-10 48v268q0 25 10 49t39.5 40t88.5 16q56 0 85 -16t40 -40t11 -49v-69l-38 -5v67q0 42 -27.5 61.5t-70.5 19.5q-44 0 -72 -19.5t-28 -61.5v-254q0 -42 27 -61t64 -19q51 0 79 20t28 68v60l38 4v-65q0 -32 -11 -59t-42 -43.5t-92 -16.5z
M136 -85l49 764h14l-50 -764h-13z" />
    <glyph glyph-name="sterling" unicode="&#xa3;" horiz-adv-x="423" 
d="M283 -2q-19 0 -51 4t-66 8.5t-59 4.5q-18 0 -31.5 -2.5t-20.5 -7.5v17q42 43 59 93.5t17 128.5q0 55 -11.5 103t-23 88.5t-11.5 73.5q0 64 36 92t90 28q57 0 92 -30.5t35 -104.5v-43h-40v37q0 66 -25.5 91t-62.5 25q-39 0 -63 -24t-24 -68q0 -33 11.5 -72.5t22.5 -88
t11 -110.5q0 -80 -17.5 -128t-50.5 -74q5 1 11.5 1h13.5q21 0 45 -4t48 -7.5t42 -3.5q28 0 48 17.5t20 68.5v63l41 8v-61q0 -34 -5.5 -62t-24 -44.5t-56.5 -16.5zM55 269l6 20h202l-6 -20h-202z" />
    <glyph glyph-name="currency" unicode="&#xa4;" horiz-adv-x="331" 
d="M169 241q-34 0 -60.5 16t-43 43.5t-16.5 59.5q0 33 16.5 60t43 43t60.5 16q32 0 59 -16t43 -43t16 -60q0 -32 -16 -59.5t-43 -43.5t-59 -16zM167 270q37 0 63.5 26.5t26.5 63.5t-26.5 63.5t-63.5 26.5t-63.5 -26.5t-26.5 -63.5t26.5 -63.5t63.5 -26.5zM47 222l-16 16
l53 55l18 -15zM285 225l-52 53l16 16l53 -52zM249 426l-16 17l56 54l17 -17zM87 424l-60 58l17 18l57 -58z" />
    <glyph glyph-name="yen" unicode="&#xa5;" horiz-adv-x="354" 
d="M157 0v262l-136 358h36l118 -306l2 -12h1l2 12l116 306h37l-137 -358v-262h-39zM37 152l5 23h270l-6 -23h-269zM37 276l5 24h270l-6 -24h-269z" />
    <glyph glyph-name="brokenbar" unicode="&#xa6;" horiz-adv-x="216" 
d="M92 -73v314h32v-314h-32zM92 349v300h32v-300h-32z" />
    <glyph glyph-name="section" unicode="&#xa7;" horiz-adv-x="413" 
d="M198 -252q-48 1 -80 8t-48 24.5t-16 48.5v123l38 5v-115q0 -31 23 -46.5t79 -15.5q40 0 60.5 8t27.5 26t7 47v86q0 43 -19.5 63.5t-52.5 29.5l-79 22q-45 13 -72 35.5t-27 74.5v58q0 31 7 53.5t30.5 35t72.5 14.5q-33 14 -48.5 34t-15.5 56v99q0 42 15 63t46 29t80 8
q48 0 77 -7.5t42 -25.5t13 -50v-119l-39 -8v116q0 32 -18 48.5t-75 16.5q-59 0 -81 -18.5t-22 -62.5v-93q0 -36 20.5 -53t48.5 -24l85 -22q44 -10 70.5 -34t26.5 -68v-75q0 -36 -11.5 -60t-30.5 -36t-40 -15q15 -9 22.5 -20.5t10 -26.5t2.5 -34v-101q0 -42 -13.5 -64
t-42 -29.5t-73.5 -8.5zM274 49q25 2 44 27.5t19 62.5v65q0 37 -26 56t-56 27q-22 6 -31.5 8.5t-14.5 4t-11 3t-21 4.5q-48 0 -69.5 -11.5t-26 -30.5t-4.5 -42v-51q0 -27 13 -43.5t31.5 -25t36.5 -14.5q41 -11 62 -17t32.5 -10.5t21.5 -12.5z" />
    <glyph glyph-name="dieresis" unicode="&#xa8;" horiz-adv-x="175" 
d="M133 532q-14 0 -17 5.5t-3 15.5q0 11 3 16.5t17 5.5q16 0 19 -5.5t3 -16.5q0 -10 -3 -15.5t-19 -5.5zM40 532q-15 0 -17.5 5.5t-2.5 15.5q0 11 2.5 16.5t17.5 5.5q16 0 18.5 -5.5t2.5 -16.5q0 -10 -2.5 -15.5t-18.5 -5.5z" />
    <glyph glyph-name="copyright" unicode="&#xa9;" horiz-adv-x="767" 
d="M386 -3q-73 0 -134 24.5t-106.5 67.5t-70.5 99t-25 119q0 67 25 125t70.5 102t106.5 68.5t134 24.5q67 0 127 -24.5t106 -68.5t72 -102t26 -125q0 -63 -26 -119t-72 -99t-106 -67.5t-127 -24.5zM386 19q60 0 115.5 23t98.5 62.5t68 91.5t25 110q0 63 -25 116.5t-68 94.5
t-98.5 64t-115.5 23q-64 0 -120.5 -23t-99.5 -64t-67 -94.5t-24 -116.5q0 -58 24 -110t67 -91.5t99.5 -62.5t120.5 -23zM378 121q-43 0 -65.5 12.5t-30.5 32t-8 37.5v210q0 19 8.5 38t32 31.5t70.5 12.5q44 0 67 -12.5t31.5 -31t8.5 -38.5v-53l-31 -5v52q0 33 -21 49t-55 16
q-35 0 -57 -15.5t-22 -49.5v-198q0 -33 21 -48t51 -15q40 0 61.5 16t21.5 52v47l31 5v-53q0 -23 -8.5 -44.5t-33.5 -34.5t-72 -13z" />
    <glyph glyph-name="ordfeminine" unicode="&#xaa;" horiz-adv-x="275" 
d="M95 350q-25 0 -35.5 7t-12.5 24.5t-2 50.5v165q0 24 5 36.5t21 17t46 4.5h113v-305h-30v282h-86q-30 0 -34 -11.5t-4 -39.5v-159q0 -29 5.5 -39t28.5 -10h70l-3 -23h-82z" />
    <glyph glyph-name="guillemotleft" unicode="&#xab;" horiz-adv-x="519" 
d="M407 53l-129 185l133 193h36l-133 -193l128 -185h-35zM201 53l-129 185l134 193h35l-133 -193l128 -185h-35z" />
    <glyph glyph-name="logicalnot" unicode="&#xac;" horiz-adv-x="597" 
d="M512 63v237h-466v28h504v-265h-38z" />
    <glyph glyph-name="uni00AD" unicode="&#xad;" horiz-adv-x="89" 
 />
    <glyph glyph-name="registered" unicode="&#xae;" horiz-adv-x="600" 
d="M259 305q-54 0 -98.5 26t-70 70.5t-25.5 98.5t25.5 96.5t70 68t98.5 25.5q53 0 96 -25.5t69 -68t26 -96.5q0 -55 -26 -99t-69 -70t-96 -26zM259 325q48 1 86.5 24.5t61.5 63t23 87.5q0 47 -23 85.5t-61.5 61.5t-86.5 23q-49 0 -88 -23t-62.5 -61.5t-23.5 -85.5
q0 -48 23.5 -88t62.5 -63.5t88 -23.5zM313 359l-47 118l-45 2v-114h-21v258h78q30 0 37.5 -10t7.5 -30v-46q0 -22 -6.5 -37.5t-31.5 -17.5l47 -115zM221 498h46q18 0 27.5 6.5t8.5 27.5v41q0 18 -6.5 25.5t-24.5 7.5h-51v-108z" />
    <glyph glyph-name="macron" unicode="&#xaf;" horiz-adv-x="204" 
d="M0 542v26h204v-26h-204z" />
    <glyph glyph-name="degree" unicode="&#xb0;" horiz-adv-x="268" 
d="M134 559q-27 0 -48 12t-33.5 31t-12.5 43q0 26 12.5 46t33.5 32t48 12q26 0 47 -12t33.5 -32t12.5 -46q0 -24 -12.5 -43t-33.5 -31t-47 -12zM134 580q28 0 48 18.5t20 45.5q0 28 -20 48.5t-48 20.5q-29 0 -48.5 -20.5t-19.5 -48.5q0 -27 19.5 -45.5t48.5 -18.5z" />
    <glyph glyph-name="plusminus" unicode="&#xb1;" horiz-adv-x="390" 
d="M183 439h22v-291h-22v291zM69 -6v24h256v-24h-256zM56 296v23h279v-23h-279z" />
    <glyph glyph-name="uni00B2" unicode="&#xb2;" horiz-adv-x="259" 
d="M32 224q0 45 4.5 74t15 49t25.5 35t34 29q7 4 12.5 8.5t9.5 8.5q23 16 35.5 29t17.5 29t5 36v21q0 34 -14 47.5t-39 13.5h-17q-21 0 -32.5 -9t-15.5 -22.5t-4 -25.5v-65l-34 4v57q0 47 20 66t62 19h31q38 0 58 -19t20 -60v-33q0 -35 -18.5 -61t-53.5 -50q-7 -6 -14 -11.5
t-15 -12.5q-28 -23 -40.5 -46t-15.5 -44.5t-3 -38.5h158l-6 -28h-186z" />
    <glyph glyph-name="uni00B3" unicode="&#xb3;" horiz-adv-x="266" 
d="M118 224q-41 0 -61.5 20t-20.5 65v57l34 -5v-44q0 -35 10.5 -52t41.5 -17h18q31 0 43 18.5t12 49.5v34q0 43 -17 55.5t-44 12.5h-41v24h38q27 0 45.5 15.5t18.5 56.5v31q0 36 -12.5 47t-41.5 11h-21q-32 0 -41 -17.5t-9 -40.5v-56l-34 8v50q0 40 18 60t51 20h49
q35 0 55.5 -16t20.5 -67v-28q0 -28 -10 -46t-24 -27.5t-25 -11.5l-17 -1l17 -1q12 -1 26 -8.5t23.5 -22.5t9.5 -40l1 -48q0 -45 -22.5 -65.5t-59.5 -20.5h-31z" />
    <glyph glyph-name="acute" unicode="&#xb4;" horiz-adv-x="126" 
d="M0 536l86 93h40l-100 -93h-26z" />
    <glyph glyph-name="uni00B5" unicode="&#xb5;" horiz-adv-x="355" 
d="M161 0q-52 0 -78.5 15.5t-35 37.5t-8.5 44v373h38v-358q0 -44 26.5 -62.5t71.5 -18.5h99v439h38v-470h-151zM111 -172q-42 0 -57 19.5t-15 64.5v558h38v-549q0 -32 8.5 -47t36.5 -15h10l-6 -31h-15z" />
    <glyph glyph-name="paragraph" unicode="&#xb6;" horiz-adv-x="385" 
d="M199 -114v344h-80q-57 0 -82 19.5t-31 51t-6 67.5v156q0 32 6.5 53.5t27.5 32t63 10.5h141v-734h-39zM294 620h32v-734h-32v734zM137 593v27h170v-27h-170z" />
    <glyph glyph-name="periodcentered" unicode="&#xb7;" horiz-adv-x="146" 
d="M72 233q-16 0 -18.5 5.5t-2.5 15.5q0 11 2.5 17t18.5 6q15 0 18.5 -6t3.5 -17q0 -10 -3.5 -15.5t-18.5 -5.5z" />
    <glyph glyph-name="cedilla" unicode="&#xb8;" horiz-adv-x="164" 
d="M67 -172q-20 0 -36 7.5t-26 16.5l13 17q5 -7 19 -15t28 -8q25 0 39 17.5t14 35.5q0 17 -11 31.5t-37 14.5q-16 0 -29.5 -7t-22.5 -17l-16 14l52 65h20l-43 -53q22 15 46 15q36 0 51.5 -19.5t15.5 -41.5q0 -25 -19.5 -49t-57.5 -24z" />
    <glyph glyph-name="uni00B9" unicode="&#xb9;" horiz-adv-x="197" 
d="M110 222v363l-77 -91l-15 15l92 116h34v-403h-34z" />
    <glyph glyph-name="ordmasculine" unicode="&#xba;" horiz-adv-x="272" 
d="M130 345q-36 0 -54 10.5t-24.5 26.5t-6.5 31v174q0 16 6.5 31.5t26 26t58.5 10.5q37 0 57 -10.5t27 -25.5t7 -32v-165q0 -20 -7.5 -38t-28.5 -28.5t-61 -10.5zM132 368q33 0 49.5 12t16.5 43v160q0 27 -16 38.5t-46 11.5q-29 0 -45.5 -11.5t-16.5 -38.5v-165
q0 -27 16 -38.5t42 -11.5z" />
    <glyph glyph-name="guillemotright" unicode="&#xbb;" horiz-adv-x="471" 
d="M260 53l128 185l-133 193h34l134 -193l-129 -185h-34zM53 53l128 185l-133 193h36l133 -193l-129 -185h-35z" />
    <glyph glyph-name="onequarter" unicode="&#xbc;" horiz-adv-x="615" 
d="M110 222v363l-77 -91l-15 15l92 116h34v-403h-34zM78 -44l380 674h34l-382 -674h-32zM522 4v81h-166l-14 24l175 298h43l-1 -298h55l-6 -24h-48v-81h-38zM379 109h143v253z" />
    <glyph glyph-name="onehalf" unicode="&#xbd;" horiz-adv-x="643" 
d="M110 222v363l-77 -91l-15 15l92 116h34v-403h-34zM78 -44l380 674h34l-382 -674h-32zM416 0q0 45 4.5 74t15 49t25.5 35t34 29q7 4 12.5 8.5t9.5 8.5q23 16 35.5 29t17.5 29t5 36v21q0 34 -14 47.5t-39 13.5h-17q-21 0 -32.5 -9t-15.5 -22.5t-4 -25.5v-65l-34 4v57
q0 47 20 66t62 19h31q38 0 58 -19t20 -60v-33q0 -35 -18.5 -61t-53.5 -50q-7 -6 -14 -11.5t-15 -12.5q-28 -23 -40.5 -46t-15.5 -44.5t-3 -38.5h158l-6 -28h-186z" />
    <glyph glyph-name="threequarters" unicode="&#xbe;" horiz-adv-x="597" 
d="M118 224q-41 0 -61.5 20t-20.5 65v57l34 -5v-44q0 -35 10.5 -52t41.5 -17h18q31 0 43 18.5t12 49.5v34q0 43 -17 55.5t-44 12.5h-41v24h38q27 0 45.5 15.5t18.5 56.5v31q0 36 -12.5 47t-41.5 11h-21q-32 0 -41 -17.5t-9 -40.5v-56l-34 8v50q0 40 18 60t51 20h49
q35 0 55.5 -16t20.5 -67v-28q0 -28 -10 -46t-24 -27.5t-25 -11.5l-17 -1l17 -1q12 -1 26 -8.5t23.5 -22.5t9.5 -40l1 -48q0 -45 -22.5 -65.5t-59.5 -20.5h-31zM116 -44l380 674h34l-382 -674h-32zM504 2v81h-166l-14 24l175 298h43l-1 -298h55l-6 -24h-48v-81h-38zM361 107
h143v253z" />
    <glyph glyph-name="questiondown" unicode="&#xbf;" horiz-adv-x="381" 
d="M246 326l3 -171h-103q-35 0 -49.5 -10.5t-17 -28t-2.5 -38.5v-101q0 -49 24 -71.5t57 -22.5h32q34 0 52 15.5t25 37.5t7 41v109l38 -6v-97q0 -70 -32.5 -101t-95.5 -31h-27q-55 0 -86.5 32t-31.5 90v112q0 55 22 76.5t76 22.5h76l7 142h26zM233 471q14 0 17 -4.5t3 -15.5
q0 -12 -3 -17t-17 -5q-15 0 -18 5t-3 17q0 11 3 15.5t18 4.5z" />
    <glyph glyph-name="Agrave" unicode="&#xc0;" horiz-adv-x="372" 
d="M21 0l131 620h68l129 -620h-40l-32 154l9 -8h-203l8 8l-31 -154h-39zM92 172l-4 6h194l-6 -6l-79 400l-2 5h-19l-2 -5zM186 686l-109 85h41l94 -85h-26z" />
    <glyph glyph-name="Aacute" unicode="&#xc1;" horiz-adv-x="372" 
d="M21 0l131 620h68l129 -620h-40l-32 154l9 -8h-203l8 8l-31 -154h-39zM92 172l-4 6h194l-6 -6l-79 400l-2 5h-19l-2 -5zM141 686l94 85h41l-109 -85h-26z" />
    <glyph glyph-name="Acircumflex" unicode="&#xc2;" horiz-adv-x="372" 
d="M21 0l131 620h68l129 -620h-40l-32 154l9 -8h-203l8 8l-31 -154h-39zM92 172l-4 6h194l-6 -6l-79 400l-2 5h-19l-2 -5zM79 686l85 87h41l84 -87h-27l-77 67l-77 -67h-29z" />
    <glyph glyph-name="Atilde" unicode="&#xc3;" horiz-adv-x="372" 
d="M21 0l131 620h68l129 -620h-40l-32 154l9 -8h-203l8 8l-31 -154h-39zM92 172l-4 6h194l-6 -6l-79 400l-2 5h-19l-2 -5zM88 680q0 39 14.5 56t36.5 17q20 0 34 -10.5t27 -22t28 -11.5q21 0 27 15t6 28h21q0 -38 -16 -53t-35 -15q-20 0 -34 11.5t-26.5 22.5t-27.5 11
q-17 0 -25 -13t-8 -36h-22z" />
    <glyph glyph-name="Adieresis" unicode="&#xc4;" horiz-adv-x="372" 
d="M21 0l131 620h68l129 -620h-40l-32 154l9 -8h-203l8 8l-31 -154h-39zM92 172l-4 6h194l-6 -6l-79 400l-2 5h-19l-2 -5zM230 682q-14 0 -17 5.5t-3 15.5q0 11 3 16.5t17 5.5q16 0 19 -5.5t3 -16.5q0 -10 -3 -15.5t-19 -5.5zM137 682q-15 0 -17.5 5.5t-2.5 15.5
q0 11 2.5 16.5t17.5 5.5q16 0 18.5 -5.5t2.5 -16.5q0 -10 -2.5 -15.5t-18.5 -5.5z" />
    <glyph glyph-name="Aring" unicode="&#xc5;" horiz-adv-x="372" 
d="M21 0l131 620h68l129 -620h-40l-32 154l9 -8h-203l8 8l-31 -154h-39zM92 172l-4 6h194l-6 -6l-79 400l-2 5h-19l-2 -5zM185 680q-31 0 -51.5 20t-20.5 47q0 28 20.5 48t51.5 20q29 0 49.5 -20t20.5 -48q0 -27 -20.5 -47t-49.5 -20zM185 698q20 0 35 14.5t15 33.5
q0 21 -15 36t-35 15q-22 0 -37 -15t-15 -36q0 -19 15 -33.5t37 -14.5z" />
    <glyph glyph-name="AE" unicode="&#xc6;" horiz-adv-x="574" 
d="M268 620h275v-31h-235v-223h219l-7 -30h-212v-306h235v-30h-275v620zM68 146v32h213v-32h-213zM20 0l143 620h34l-138 -620h-39zM169 589v31h111v-31h-111z" />
    <glyph glyph-name="Ccedilla" unicode="&#xc7;" horiz-adv-x="370" 
d="M187 -6q-65 0 -100 25t-35 76v424q0 54 31.5 81.5t100.5 27.5q72 0 105.5 -26.5t33.5 -83.5v-132l-38 -6v130q0 39 -20.5 62t-77.5 23q-56 0 -76 -23.5t-20 -60.5v-408q0 -34 23 -55.5t73 -21.5q51 0 74.5 21.5t23.5 56.5v124l38 7v-139q0 -52 -35.5 -77t-100.5 -25z
M194 -172q-20 0 -36 7.5t-26 16.5l13 17q5 -7 19 -15t28 -8q25 0 39 17.5t14 35.5q0 17 -11 31.5t-37 14.5q-16 0 -29.5 -7t-22.5 -17l-16 14l52 65h20l-43 -53q22 15 46 15q36 0 51.5 -19.5t15.5 -41.5q0 -25 -19.5 -49t-57.5 -24z" />
    <glyph glyph-name="Egrave" unicode="&#xc8;" horiz-adv-x="365" 
d="M63 620h270v-31h-231v-223h215l-7 -30h-208v-306h231v-30h-270v620zM186 686l-109 85h41l94 -85h-26z" />
    <glyph glyph-name="Eacute" unicode="&#xc9;" horiz-adv-x="365" 
d="M63 620h270v-31h-231v-223h215l-7 -30h-208v-306h231v-30h-270v620zM140 686l94 85h41l-109 -85h-26z" />
    <glyph glyph-name="Ecircumflex" unicode="&#xca;" horiz-adv-x="365" 
d="M63 620h270v-31h-231v-223h215l-7 -30h-208v-306h231v-30h-270v620zM78 686l85 87h41l84 -87h-27l-77 67l-77 -67h-29z" />
    <glyph glyph-name="Edieresis" unicode="&#xcb;" horiz-adv-x="365" 
d="M63 620h270v-31h-231v-223h215l-7 -30h-208v-306h231v-30h-270v620zM230 682q-14 0 -17 5.5t-3 15.5q0 11 3 16.5t17 5.5q16 0 19 -5.5t3 -16.5q0 -10 -3 -15.5t-19 -5.5zM137 682q-15 0 -17.5 5.5t-2.5 15.5q0 11 2.5 16.5t17.5 5.5q16 0 18.5 -5.5t2.5 -16.5
q0 -10 -2.5 -15.5t-18.5 -5.5z" />
    <glyph glyph-name="Igrave" unicode="&#xcc;" horiz-adv-x="165" 
d="M63 620h39v-620h-39v620zM84 686l-109 85h41l94 -85h-26z" />
    <glyph glyph-name="Iacute" unicode="&#xcd;" horiz-adv-x="165" 
d="M63 620h39v-620h-39v620zM38 686l94 85h41l-109 -85h-26z" />
    <glyph glyph-name="Icircumflex" unicode="&#xce;" horiz-adv-x="165" 
d="M63 620h39v-620h-39v620zM-24 686l85 87h41l84 -87h-27l-77 67l-77 -67h-29z" />
    <glyph glyph-name="Idieresis" unicode="&#xcf;" horiz-adv-x="165" 
d="M63 620h39v-620h-39v620zM127 682q-14 0 -17 5.5t-3 15.5q0 11 3 16.5t17 5.5q16 0 19 -5.5t3 -16.5q0 -10 -3 -15.5t-19 -5.5zM34 682q-15 0 -17.5 5.5t-2.5 15.5q0 11 2.5 16.5t17.5 5.5q16 0 18.5 -5.5t2.5 -16.5q0 -10 -2.5 -15.5t-18.5 -5.5z" />
    <glyph glyph-name="Eth" unicode="&#xd0;" horiz-adv-x="382" 
d="M67 620h189q47 0 67 -25t20 -72v-425q0 -53 -17.5 -75.5t-75.5 -22.5h-183v620zM5 181v24h207v-24h-207zM230 31q44 0 59 15.5t15 61.5v405q0 39 -17.5 57.5t-48.5 18.5h-131v-558h123z" />
    <glyph glyph-name="Ntilde" unicode="&#xd1;" horiz-adv-x="405" 
d="M63 0v620h39l199 -533l1 -5l1 -2v540h39v-620h-42l-196 517l-2 7h-1v-524h-38zM106 680q0 39 14.5 56t36.5 17q20 0 34 -10.5t27 -22t28 -11.5q21 0 27 15t6 28h21q0 -38 -16 -53t-35 -15q-20 0 -34 11.5t-26.5 22.5t-27.5 11q-17 0 -25 -13t-8 -36h-22z" />
    <glyph glyph-name="Ograve" unicode="&#xd2;" horiz-adv-x="379" 
d="M189 -3q-66 0 -101.5 24t-35.5 69v448q0 38 32 64.5t105 25.5t105 -26.5t32 -64.5v-446q0 -45 -34.5 -69.5t-102.5 -24.5zM189 29q52 0 75.5 20.5t23.5 49.5v430q0 25 -21 46t-80 21q-55 0 -76 -20.5t-21 -45.5v-431q0 -30 24 -50t75 -20zM191 686l-109 85h41l94 -85h-26
z" />
    <glyph glyph-name="Oacute" unicode="&#xd3;" horiz-adv-x="379" 
d="M189 -3q-66 0 -101.5 24t-35.5 69v448q0 38 32 64.5t105 25.5t105 -26.5t32 -64.5v-446q0 -45 -34.5 -69.5t-102.5 -24.5zM189 29q52 0 75.5 20.5t23.5 49.5v430q0 25 -21 46t-80 21q-55 0 -76 -20.5t-21 -45.5v-431q0 -30 24 -50t75 -20zM145 686l94 85h41l-109 -85h-26
z" />
    <glyph glyph-name="Ocircumflex" unicode="&#xd4;" horiz-adv-x="379" 
d="M189 -3q-66 0 -101.5 24t-35.5 69v448q0 38 32 64.5t105 25.5t105 -26.5t32 -64.5v-446q0 -45 -34.5 -69.5t-102.5 -24.5zM189 29q52 0 75.5 20.5t23.5 49.5v430q0 25 -21 46t-80 21q-55 0 -76 -20.5t-21 -45.5v-431q0 -30 24 -50t75 -20zM83 686l85 87h41l84 -87h-27
l-77 67l-77 -67h-29z" />
    <glyph glyph-name="Otilde" unicode="&#xd5;" horiz-adv-x="379" 
d="M189 -3q-66 0 -101.5 24t-35.5 69v448q0 38 32 64.5t105 25.5t105 -26.5t32 -64.5v-446q0 -45 -34.5 -69.5t-102.5 -24.5zM189 29q52 0 75.5 20.5t23.5 49.5v430q0 25 -21 46t-80 21q-55 0 -76 -20.5t-21 -45.5v-431q0 -30 24 -50t75 -20zM92 680q0 39 14.5 56t36.5 17
q20 0 34 -10.5t27 -22t28 -11.5q21 0 27 15t6 28h21q0 -38 -16 -53t-35 -15q-20 0 -34 11.5t-26.5 22.5t-27.5 11q-17 0 -25 -13t-8 -36h-22z" />
    <glyph glyph-name="Odieresis" unicode="&#xd6;" horiz-adv-x="379" 
d="M189 -3q-66 0 -101.5 24t-35.5 69v448q0 38 32 64.5t105 25.5t105 -26.5t32 -64.5v-446q0 -45 -34.5 -69.5t-102.5 -24.5zM189 29q52 0 75.5 20.5t23.5 49.5v430q0 25 -21 46t-80 21q-55 0 -76 -20.5t-21 -45.5v-431q0 -30 24 -50t75 -20zM235 682q-14 0 -17 5.5t-3 15.5
q0 11 3 16.5t17 5.5q16 0 19 -5.5t3 -16.5q0 -10 -3 -15.5t-19 -5.5zM142 682q-15 0 -17.5 5.5t-2.5 15.5q0 11 2.5 16.5t17.5 5.5q16 0 18.5 -5.5t2.5 -16.5q0 -10 -2.5 -15.5t-18.5 -5.5z" />
    <glyph glyph-name="multiply" unicode="&#xd7;" horiz-adv-x="348" 
d="M70 401l17 17l198 -198l-18 -16zM80 199l-16 17l197 198l17 -17z" />
    <glyph glyph-name="Oslash" unicode="&#xd8;" horiz-adv-x="376" 
d="M187 -3q-65 0 -100.5 24t-35.5 69v445q0 43 32 68.5t103 24.5q73 -1 106 -26t33 -68v-443q0 -45 -36.5 -69.5t-101.5 -24.5zM186 29q53 0 77 20.5t24 49.5v426q0 18 -9 34.5t-31 26t-63 9.5q-55 0 -75 -21.5t-20 -47.5v-428q0 -28 23.5 -48.5t73.5 -20.5zM61 -44l225 677
h21l-227 -677h-19z" />
    <glyph glyph-name="Ugrave" unicode="&#xd9;" horiz-adv-x="390" 
d="M195 -5q-37 0 -68 9t-49.5 29.5t-18.5 55.5v531h39v-517q0 -20 8 -37.5t28.5 -28.5t60.5 -11q42 0 63 11t28 28.5t7 37.5v517h38v-531q0 -35 -17.5 -55.5t-48 -29.5t-70.5 -9zM197 686l-109 85h41l94 -85h-26z" />
    <glyph glyph-name="Uacute" unicode="&#xda;" horiz-adv-x="390" 
d="M195 -5q-37 0 -68 9t-49.5 29.5t-18.5 55.5v531h39v-517q0 -20 8 -37.5t28.5 -28.5t60.5 -11q42 0 63 11t28 28.5t7 37.5v517h38v-531q0 -35 -17.5 -55.5t-48 -29.5t-70.5 -9zM151 686l94 85h41l-109 -85h-26z" />
    <glyph glyph-name="Ucircumflex" unicode="&#xdb;" horiz-adv-x="390" 
d="M195 -5q-37 0 -68 9t-49.5 29.5t-18.5 55.5v531h39v-517q0 -20 8 -37.5t28.5 -28.5t60.5 -11q42 0 63 11t28 28.5t7 37.5v517h38v-531q0 -35 -17.5 -55.5t-48 -29.5t-70.5 -9zM89 686l85 87h41l84 -87h-27l-77 67l-77 -67h-29z" />
    <glyph glyph-name="Udieresis" unicode="&#xdc;" horiz-adv-x="390" 
d="M195 -5q-37 0 -68 9t-49.5 29.5t-18.5 55.5v531h39v-517q0 -20 8 -37.5t28.5 -28.5t60.5 -11q42 0 63 11t28 28.5t7 37.5v517h38v-531q0 -35 -17.5 -55.5t-48 -29.5t-70.5 -9zM240 682q-14 0 -17 5.5t-3 15.5q0 11 3 16.5t17 5.5q16 0 19 -5.5t3 -16.5q0 -10 -3 -15.5
t-19 -5.5zM147 682q-15 0 -17.5 5.5t-2.5 15.5q0 11 2.5 16.5t17.5 5.5q16 0 18.5 -5.5t2.5 -16.5q0 -10 -2.5 -15.5t-18.5 -5.5z" />
    <glyph glyph-name="Yacute" unicode="&#xdd;" horiz-adv-x="338" 
d="M149 0v262l-136 358h36l118 -306l2 -12h1l2 12l116 306h37l-138 -358v-262h-38zM124 686l94 85h41l-109 -85h-26z" />
    <glyph glyph-name="Thorn" unicode="&#xde;" horiz-adv-x="382" 
d="M35 680h38v-99h140q43 0 63.5 -10.5t27 -32t6.5 -53.5v-156q0 -36 -6 -67.5t-31 -51t-82 -19.5h-118v-191h-38v680zM185 222q43 0 65 22t22 72v156q0 43 -15 60.5t-59 17.5h-125v-328h112z" />
    <glyph glyph-name="germandbls" unicode="&#xdf;" horiz-adv-x="452" 
d="M-29 -172l-9 31h64q29 0 37.5 15t8.5 47v526h-43v23h43v69q0 47 20 64.5t80 17.5h42q36 0 57.5 -7.5t31 -26.5t9.5 -54v-54q0 -11 -4.5 -15.5t-15.5 -7.5q-29 -2 -44.5 -16t-21 -35.5t-5.5 -43.5q0 -35 8 -53t35 -33q30 -17 46 -25.5t28 -15.5q31 -16 46 -32t19.5 -36
t4.5 -49v-8q0 -57 -29 -86t-107 -29q-69 0 -98.5 29.5t-29.5 82.5v69l35 6v-74q0 -21 7.5 -41t27.5 -32.5t59 -12.5q47 0 73.5 16.5t26.5 69.5q0 30 -3.5 48t-15 31.5t-37.5 27.5q-13 8 -35.5 19.5t-40.5 21.5q-21 12 -33.5 24.5t-17 32t-4.5 49.5q0 54 21 84t67 33v56
q-1 39 -17 51.5t-59 12.5h-10q-48 0 -63 -13t-15 -51v-622q0 -45 -15.5 -64.5t-57.5 -19.5h-66z" />
    <glyph glyph-name="agrave" unicode="&#xe0;" 
d="M130 0q-35 0 -50 9.5t-18.5 37t-3.5 79.5v255q0 39 8 58t30.5 25t67.5 6h168v-470h-38v439h-140q-30 0 -42 -8t-14 -25.5t-2 -49.5v-246q0 -32 3 -49t14 -23.5t33 -6.5h114l-5 -31h-125zM201 536l-100 93h41l85 -93h-26z" />
    <glyph glyph-name="aacute" unicode="&#xe1;" 
d="M130 0q-35 0 -50 9.5t-18.5 37t-3.5 79.5v255q0 39 8 58t30.5 25t67.5 6h168v-470h-38v439h-140q-30 0 -42 -8t-14 -25.5t-2 -49.5v-246q0 -32 3 -49t14 -23.5t33 -6.5h114l-5 -31h-125zM155 536l86 93h40l-100 -93h-26z" />
    <glyph glyph-name="acircumflex" unicode="&#xe2;" 
d="M130 0q-35 0 -50 9.5t-18.5 37t-3.5 79.5v255q0 39 8 58t30.5 25t67.5 6h168v-470h-38v439h-140q-30 0 -42 -8t-14 -25.5t-2 -49.5v-246q0 -32 3 -49t14 -23.5t33 -6.5h114l-5 -31h-125zM93 536l85 87h41l84 -87h-27l-77 67l-77 -67h-29z" />
    <glyph glyph-name="atilde" unicode="&#xe3;" 
d="M130 0q-35 0 -50 9.5t-18.5 37t-3.5 79.5v255q0 39 8 58t30.5 25t67.5 6h168v-470h-38v439h-140q-30 0 -42 -8t-14 -25.5t-2 -49.5v-246q0 -32 3 -49t14 -23.5t33 -6.5h114l-5 -31h-125zM102 530q0 39 14.5 56t36.5 17q20 0 34 -10.5t27 -22t28 -11.5q21 0 27 15t6 28h21
q0 -38 -16 -53t-35 -15q-20 0 -34 11.5t-26.5 22.5t-27.5 11q-17 0 -25 -13t-8 -36h-22z" />
    <glyph glyph-name="adieresis" unicode="&#xe4;" 
d="M130 0q-35 0 -50 9.5t-18.5 37t-3.5 79.5v255q0 39 8 58t30.5 25t67.5 6h168v-470h-38v439h-140q-30 0 -42 -8t-14 -25.5t-2 -49.5v-246q0 -32 3 -49t14 -23.5t33 -6.5h114l-5 -31h-125zM244 532q-14 0 -17 5.5t-3 15.5q0 11 3 16.5t17 5.5q16 0 19 -5.5t3 -16.5
q0 -10 -3 -15.5t-19 -5.5zM151 532q-15 0 -17.5 5.5t-2.5 15.5q0 11 2.5 16.5t17.5 5.5q16 0 18.5 -5.5t2.5 -16.5q0 -10 -2.5 -15.5t-18.5 -5.5z" />
    <glyph glyph-name="aring" unicode="&#xe5;" 
d="M130 0q-35 0 -50 9.5t-18.5 37t-3.5 79.5v255q0 39 8 58t30.5 25t67.5 6h168v-470h-38v439h-140q-30 0 -42 -8t-14 -25.5t-2 -49.5v-246q0 -32 3 -49t14 -23.5t33 -6.5h114l-5 -31h-125zM199 530q-31 0 -51.5 20t-20.5 47q0 28 20.5 48t51.5 20q29 0 49.5 -20t20.5 -48
q0 -27 -20.5 -47t-49.5 -20zM199 548q20 0 35 14.5t15 33.5q0 21 -15 36t-35 15q-22 0 -37 -15t-15 -36q0 -19 15 -33.5t37 -14.5z" />
    <glyph glyph-name="ae" unicode="&#xe6;" horiz-adv-x="581" 
d="M130 0q-35 0 -50 9.5t-18.5 37t-3.5 79.5v255q0 39 8 58t30.5 25t67.5 6h168v-470h-38v439h-140q-30 0 -42 -8t-14 -25.5t-2 -49.5v-246q0 -32 3 -49t14 -23.5t33 -6.5h114l-5 -31h-125zM421 -1q-54 0 -82 16t-38 40.5t-10 48.5v269q0 25 10 49t39.5 40t87.5 16
q57 0 86 -16t40 -40t11 -49v-118l-38 -2v114q0 41 -27 61t-72 20q-44 0 -71.5 -19.5t-27.5 -61.5v-256q0 -42 27 -61.5t65 -19.5q50 0 78 21t28 68v53l38 5v-59q0 -31 -11.5 -58.5t-42.5 -44t-90 -16.5zM299 236v23h266v-23h-266z" />
    <glyph glyph-name="ccedilla" unicode="&#xe7;" horiz-adv-x="379" 
d="M184 -4q-54 0 -82 16t-38 40.5t-10 48.5v269q0 25 10 49t39.5 40t87.5 16q57 0 86 -16t40 -40t11 -49v-67l-38 -7v68q0 41 -27 61t-72 20q-44 0 -71.5 -19.5t-27.5 -61.5v-256q0 -42 27 -61.5t65 -19.5q50 0 78 21t28 68v59l38 6v-66q0 -31 -11.5 -58.5t-42.5 -44
t-90 -16.5zM197 -172q-20 0 -36 7.5t-26 16.5l13 17q5 -7 19 -15t28 -8q25 0 39 17.5t14 35.5q0 17 -11 31.5t-37 14.5q-16 0 -29.5 -7t-22.5 -17l-16 14l52 65h20l-43 -53q22 15 46 15q36 0 51.5 -19.5t15.5 -41.5q0 -25 -19.5 -49t-57.5 -24z" />
    <glyph glyph-name="egrave" unicode="&#xe8;" horiz-adv-x="383" 
d="M184 -4q-54 0 -82 16t-38 40.5t-10 48.5v269q0 25 10 49t39.5 40t87.5 16q57 0 86 -16t40 -40t11 -49v-118l-38 -2v114q0 41 -27 61t-72 20q-44 0 -71.5 -19.5t-27.5 -61.5v-256q0 -42 27 -61.5t65 -19.5q50 0 78 21t28 68v53l38 5v-59q0 -31 -11.5 -58.5t-42.5 -44
t-90 -16.5zM62 233v23h266v-23h-266zM193 536l-100 93h41l85 -93h-26z" />
    <glyph glyph-name="eacute" unicode="&#xe9;" horiz-adv-x="383" 
d="M184 -4q-54 0 -82 16t-38 40.5t-10 48.5v269q0 25 10 49t39.5 40t87.5 16q57 0 86 -16t40 -40t11 -49v-118l-38 -2v114q0 41 -27 61t-72 20q-44 0 -71.5 -19.5t-27.5 -61.5v-256q0 -42 27 -61.5t65 -19.5q50 0 78 21t28 68v53l38 5v-59q0 -31 -11.5 -58.5t-42.5 -44
t-90 -16.5zM62 233v23h266v-23h-266zM147 536l86 93h40l-100 -93h-26z" />
    <glyph glyph-name="ecircumflex" unicode="&#xea;" horiz-adv-x="383" 
d="M184 -4q-54 0 -82 16t-38 40.5t-10 48.5v269q0 25 10 49t39.5 40t87.5 16q57 0 86 -16t40 -40t11 -49v-118l-38 -2v114q0 41 -27 61t-72 20q-44 0 -71.5 -19.5t-27.5 -61.5v-256q0 -42 27 -61.5t65 -19.5q50 0 78 21t28 68v53l38 5v-59q0 -31 -11.5 -58.5t-42.5 -44
t-90 -16.5zM62 233v23h266v-23h-266zM85 536l85 87h41l84 -87h-27l-77 67l-77 -67h-29z" />
    <glyph glyph-name="edieresis" unicode="&#xeb;" horiz-adv-x="383" 
d="M184 -4q-54 0 -82 16t-38 40.5t-10 48.5v269q0 25 10 49t39.5 40t87.5 16q57 0 86 -16t40 -40t11 -49v-118l-38 -2v114q0 41 -27 61t-72 20q-44 0 -71.5 -19.5t-27.5 -61.5v-256q0 -42 27 -61.5t65 -19.5q50 0 78 21t28 68v53l38 5v-59q0 -31 -11.5 -58.5t-42.5 -44
t-90 -16.5zM62 233v23h266v-23h-266zM236 532q-14 0 -17 5.5t-3 15.5q0 11 3 16.5t17 5.5q16 0 19 -5.5t3 -16.5q0 -10 -3 -15.5t-19 -5.5zM143 532q-15 0 -17.5 5.5t-2.5 15.5q0 11 2.5 16.5t17.5 5.5q16 0 18.5 -5.5t2.5 -16.5q0 -10 -2.5 -15.5t-18.5 -5.5z" />
    <glyph glyph-name="igrave" unicode="&#xec;" horiz-adv-x="166" 
d="M64 470h38v-470h-38v470zM84 536l-100 93h41l85 -93h-26z" />
    <glyph glyph-name="iacute" unicode="&#xed;" horiz-adv-x="166" 
d="M64 470h38v-470h-38v470zM39 536l86 93h40l-100 -93h-26z" />
    <glyph glyph-name="icircumflex" unicode="&#xee;" horiz-adv-x="166" 
d="M64 470h38v-470h-38v470zM-23 536l85 87h41l84 -87h-27l-77 67l-77 -67h-29z" />
    <glyph glyph-name="idieresis" unicode="&#xef;" horiz-adv-x="166" 
d="M64 470h38v-470h-38v470zM128 532q-14 0 -17 5.5t-3 15.5q0 11 3 16.5t17 5.5q16 0 19 -5.5t3 -16.5q0 -10 -3 -15.5t-19 -5.5zM35 532q-15 0 -17.5 5.5t-2.5 15.5q0 11 2.5 16.5t17.5 5.5q16 0 18.5 -5.5t2.5 -16.5q0 -10 -2.5 -15.5t-18.5 -5.5z" />
    <glyph glyph-name="eth" unicode="&#xf0;" horiz-adv-x="385" 
d="M190 -1q-54 0 -83.5 11.5t-40 45t-10.5 99.5v171q0 77 27 110.5t101 33.5q39 0 63.5 -10.5t39.5 -29.5l-5 -4q-6 73 -41.5 121.5t-106.5 48.5h-67v24h83q50 0 90 -26t64 -85t24 -157l1 -229q0 -37 -6.5 -60.5t-21.5 -37.5t-42 -20t-69 -6zM190 32q60 0 80.5 20t20.5 70
v242q0 34 -21 56.5t-78 22.5q-31 0 -53 -9t-33.5 -33t-11.5 -72v-189q0 -45 9.5 -68.5t30.5 -31.5t56 -8zM106 516l-14 10l100 132l13 -9z" />
    <glyph glyph-name="ntilde" unicode="&#xf1;" horiz-adv-x="395" 
d="M64 472h30l4 -49q16 24 44.5 39t71.5 15q62 0 92.5 -26t30.5 -77v-374h-38v362q0 44 -27 63.5t-72 19.5q-38 0 -61 -15t-37 -38v-392h-38v472zM102 530q0 39 14.5 56t36.5 17q20 0 34 -10.5t27 -22t28 -11.5q21 0 27 15t6 28h21q0 -38 -16 -53t-35 -15q-20 0 -34 11.5
t-26.5 22.5t-27.5 11q-17 0 -25 -13t-8 -36h-22z" />
    <glyph glyph-name="ograve" unicode="&#xf2;" horiz-adv-x="383" 
d="M184 -4q-54 0 -82 16t-38 40.5t-10 48.5v269q0 25 10 49t39.5 40t87.5 16q57 0 86 -16t40 -40t11 -49v-255q0 -31 -11.5 -58.5t-42.5 -44t-90 -16.5zM184 27q50 0 78 21t28 68v248q0 41 -27 61t-72 20q-44 0 -71.5 -19.5t-27.5 -61.5v-256q0 -42 27 -61.5t65 -19.5z
M193 536l-100 93h41l85 -93h-26z" />
    <glyph glyph-name="oacute" unicode="&#xf3;" horiz-adv-x="383" 
d="M184 -4q-54 0 -82 16t-38 40.5t-10 48.5v269q0 25 10 49t39.5 40t87.5 16q57 0 86 -16t40 -40t11 -49v-255q0 -31 -11.5 -58.5t-42.5 -44t-90 -16.5zM184 27q50 0 78 21t28 68v248q0 41 -27 61t-72 20q-44 0 -71.5 -19.5t-27.5 -61.5v-256q0 -42 27 -61.5t65 -19.5z
M147 536l86 93h40l-100 -93h-26z" />
    <glyph glyph-name="ocircumflex" unicode="&#xf4;" horiz-adv-x="383" 
d="M184 -4q-54 0 -82 16t-38 40.5t-10 48.5v269q0 25 10 49t39.5 40t87.5 16q57 0 86 -16t40 -40t11 -49v-255q0 -31 -11.5 -58.5t-42.5 -44t-90 -16.5zM184 27q50 0 78 21t28 68v248q0 41 -27 61t-72 20q-44 0 -71.5 -19.5t-27.5 -61.5v-256q0 -42 27 -61.5t65 -19.5z
M85 536l85 87h41l84 -87h-27l-77 67l-77 -67h-29z" />
    <glyph glyph-name="otilde" unicode="&#xf5;" horiz-adv-x="383" 
d="M184 -4q-54 0 -82 16t-38 40.5t-10 48.5v269q0 25 10 49t39.5 40t87.5 16q57 0 86 -16t40 -40t11 -49v-255q0 -31 -11.5 -58.5t-42.5 -44t-90 -16.5zM184 27q50 0 78 21t28 68v248q0 41 -27 61t-72 20q-44 0 -71.5 -19.5t-27.5 -61.5v-256q0 -42 27 -61.5t65 -19.5z
M94 530q0 39 14.5 56t36.5 17q20 0 34 -10.5t27 -22t28 -11.5q21 0 27 15t6 28h21q0 -38 -16 -53t-35 -15q-20 0 -34 11.5t-26.5 22.5t-27.5 11q-17 0 -25 -13t-8 -36h-22z" />
    <glyph glyph-name="odieresis" unicode="&#xf6;" horiz-adv-x="383" 
d="M184 -4q-54 0 -82 16t-38 40.5t-10 48.5v269q0 25 10 49t39.5 40t87.5 16q57 0 86 -16t40 -40t11 -49v-255q0 -31 -11.5 -58.5t-42.5 -44t-90 -16.5zM184 27q50 0 78 21t28 68v248q0 41 -27 61t-72 20q-44 0 -71.5 -19.5t-27.5 -61.5v-256q0 -42 27 -61.5t65 -19.5z
M236 532q-14 0 -17 5.5t-3 15.5q0 11 3 16.5t17 5.5q16 0 19 -5.5t3 -16.5q0 -10 -3 -15.5t-19 -5.5zM143 532q-15 0 -17.5 5.5t-2.5 15.5q0 11 2.5 16.5t17.5 5.5q16 0 18.5 -5.5t2.5 -16.5q0 -10 -2.5 -15.5t-18.5 -5.5z" />
    <glyph glyph-name="divide" unicode="&#xf7;" horiz-adv-x="390" 
d="M56 194v23h279v-23h-279zM193 354q-16 0 -18.5 5.5t-2.5 15.5q0 11 2.5 17t18.5 6q15 0 18.5 -6t3.5 -17q0 -10 -3.5 -15.5t-18.5 -5.5zM193 4q-16 0 -18.5 5.5t-2.5 15.5q0 11 2.5 17t18.5 6q15 0 18.5 -6t3.5 -17q0 -10 -3.5 -15.5t-18.5 -5.5z" />
    <glyph glyph-name="oslash" unicode="&#xf8;" horiz-adv-x="351" 
d="M169 -4q-54 0 -81.5 16t-37.5 40.5t-10 48.5v267q0 25 10 49t39.5 40t87.5 16q57 0 86 -15.5t39.5 -39.5t10.5 -49v-254q0 -31 -10.5 -58.5t-42 -44t-91.5 -16.5zM169 27q50 0 78 21t28 68v246q0 42 -27 62t-71 20q-43 0 -71 -19.5t-28 -62.5v-254q0 -42 27 -61.5
t64 -19.5zM20 -98l-14 2l326 668l15 -1z" />
    <glyph glyph-name="ugrave" unicode="&#xf9;" 
d="M182 0q-53 0 -79.5 15.5t-35 37.5t-8.5 44v373h38v-358q0 -44 27 -62.5t72 -18.5h99v439h38v-470h-151zM199 536l-100 93h41l85 -93h-26z" />
    <glyph glyph-name="uacute" unicode="&#xfa;" 
d="M182 0q-53 0 -79.5 15.5t-35 37.5t-8.5 44v373h38v-358q0 -44 27 -62.5t72 -18.5h99v439h38v-470h-151zM154 536l86 93h40l-100 -93h-26z" />
    <glyph glyph-name="ucircumflex" unicode="&#xfb;" 
d="M182 0q-53 0 -79.5 15.5t-35 37.5t-8.5 44v373h38v-358q0 -44 27 -62.5t72 -18.5h99v439h38v-470h-151zM92 536l85 87h41l84 -87h-27l-77 67l-77 -67h-29z" />
    <glyph glyph-name="udieresis" unicode="&#xfc;" 
d="M182 0q-53 0 -79.5 15.5t-35 37.5t-8.5 44v373h38v-358q0 -44 27 -62.5t72 -18.5h99v439h38v-470h-151zM243 532q-14 0 -17 5.5t-3 15.5q0 11 3 16.5t17 5.5q16 0 19 -5.5t3 -16.5q0 -10 -3 -15.5t-19 -5.5zM150 532q-15 0 -17.5 5.5t-2.5 15.5q0 11 2.5 16.5t17.5 5.5
q16 0 18.5 -5.5t2.5 -16.5q0 -10 -2.5 -15.5t-18.5 -5.5z" />
    <glyph glyph-name="yacute" unicode="&#xfd;" horiz-adv-x="318" 
d="M-6 -170l2 26h35q37 0 59.5 16.5t34.5 66.5l17 66l-127 465h37l107 -403l1 -9h-3l1 9l107 403h38l-146 -540q-15 -54 -39.5 -77t-80.5 -23h-43zM117 536l86 93h40l-100 -93h-26z" />
    <glyph glyph-name="thorn" unicode="&#xfe;" horiz-adv-x="348" 
d="M39 -157v769h37v-142h162q38 0 53.5 -9.5t18.5 -37.5t3 -82v-252q0 -39 -7.5 -58t-30.5 -25t-68 -6h-130v-157h-38zM77 31h140q31 0 42.5 8t13.5 26t2 49v246q0 32 -3 49t-13.5 23.5t-34.5 6.5h-147v-408z" />
    <glyph glyph-name="ydieresis" unicode="&#xff;" horiz-adv-x="318" 
d="M-6 -170l2 26h35q37 0 59.5 16.5t34.5 66.5l17 66l-127 465h37l107 -403l1 -9h-3l1 9l107 403h38l-146 -540q-15 -54 -39.5 -77t-80.5 -23h-43zM206 532q-14 0 -17 5.5t-3 15.5q0 11 3 16.5t17 5.5q16 0 19 -5.5t3 -16.5q0 -10 -3 -15.5t-19 -5.5zM113 532
q-15 0 -17.5 5.5t-2.5 15.5q0 11 2.5 16.5t17.5 5.5q16 0 18.5 -5.5t2.5 -16.5q0 -10 -2.5 -15.5t-18.5 -5.5z" />
    <glyph glyph-name="Amacron" unicode="&#x100;" horiz-adv-x="372" 
d="M21 0l131 620h68l129 -620h-40l-32 154l9 -8h-203l8 8l-31 -154h-39zM92 172l-4 6h194l-6 -6l-79 400l-2 5h-19l-2 -5zM83 692v26h204v-26h-204z" />
    <glyph glyph-name="amacron" unicode="&#x101;" 
d="M130 0q-35 0 -50 9.5t-18.5 37t-3.5 79.5v255q0 39 8 58t30.5 25t67.5 6h168v-470h-38v439h-140q-30 0 -42 -8t-14 -25.5t-2 -49.5v-246q0 -32 3 -49t14 -23.5t33 -6.5h114l-5 -31h-125zM97 542v26h204v-26h-204z" />
    <glyph glyph-name="Abreve" unicode="&#x102;" horiz-adv-x="372" 
d="M21 0l131 620h68l129 -620h-40l-32 154l9 -8h-203l8 8l-31 -154h-39zM92 172l-4 6h194l-6 -6l-79 400l-2 5h-19l-2 -5zM183 681q-37 0 -57 14t-27.5 34.5t-7.5 40.5h26q0 -24 14.5 -46t51.5 -22q40 0 55 22t16 46h25q0 -39 -22 -64t-74 -25z" />
    <glyph glyph-name="abreve" unicode="&#x103;" 
d="M130 0q-35 0 -50 9.5t-18.5 37t-3.5 79.5v255q0 39 8 58t30.5 25t67.5 6h168v-470h-38v439h-140q-30 0 -42 -8t-14 -25.5t-2 -49.5v-246q0 -32 3 -49t14 -23.5t33 -6.5h114l-5 -31h-125zM197 531q-37 0 -57 14t-27.5 34.5t-7.5 40.5h26q0 -26 14.5 -46.5t51.5 -20.5
q40 0 55.5 20t15.5 47h25q0 -37 -22 -63t-74 -26z" />
    <glyph glyph-name="Aogonek" unicode="&#x104;" horiz-adv-x="372" 
d="M21 0l131 620h68l129 -620h-40l-32 154l9 -8h-203l8 8l-31 -154h-39zM92 172l-4 6h194l-6 -6l-79 400l-2 5h-19l-2 -5zM300 -165q-30 0 -48.5 20.5t-18.5 52.5q0 26 21.5 54.5t68.5 43.5l23 -4q-36 -15 -60 -36.5t-24 -53.5q0 -22 14 -38t35 -16q17 0 30 4t27 17l5 -21
q-19 -13 -36 -18t-37 -5z" />
    <glyph glyph-name="aogonek" unicode="&#x105;" 
d="M130 0q-35 0 -50 9.5t-18.5 37t-3.5 79.5v255q0 39 8 58t30.5 25t67.5 6h168v-470h-38v439h-140q-30 0 -42 -8t-14 -25.5t-2 -49.5v-246q0 -32 3 -49t14 -23.5t33 -6.5h114l-5 -31h-125zM284 -161q-30 0 -48.5 20.5t-18.5 52.5q0 26 21.5 54.5t68.5 43.5l23 -4
q-36 -15 -60 -36.5t-24 -53.5q0 -22 14 -38t35 -16q17 0 30 4t27 17l5 -21q-19 -13 -36 -18t-37 -5z" />
    <glyph glyph-name="Cacute" unicode="&#x106;" horiz-adv-x="370" 
d="M187 -6q-65 0 -100 25t-35 76v424q0 54 31.5 81.5t100.5 27.5q72 0 105.5 -26.5t33.5 -83.5v-132l-38 -6v130q0 39 -20.5 62t-77.5 23q-56 0 -76 -23.5t-20 -60.5v-408q0 -34 23 -55.5t73 -21.5q51 0 74.5 21.5t23.5 56.5v124l38 7v-139q0 -52 -35.5 -77t-100.5 -25z
M142 686l94 85h41l-109 -85h-26z" />
    <glyph glyph-name="cacute" unicode="&#x107;" horiz-adv-x="379" 
d="M184 -4q-54 0 -82 16t-38 40.5t-10 48.5v269q0 25 10 49t39.5 40t87.5 16q57 0 86 -16t40 -40t11 -49v-67l-38 -7v68q0 41 -27 61t-72 20q-44 0 -71.5 -19.5t-27.5 -61.5v-256q0 -42 27 -61.5t65 -19.5q50 0 78 21t28 68v59l38 6v-66q0 -31 -11.5 -58.5t-42.5 -44
t-90 -16.5zM145 536l86 93h40l-100 -93h-26z" />
    <glyph glyph-name="Ccircumflex" unicode="&#x108;" horiz-adv-x="370" 
d="M187 -6q-65 0 -100 25t-35 76v424q0 54 31.5 81.5t100.5 27.5q72 0 105.5 -26.5t33.5 -83.5v-132l-38 -6v130q0 39 -20.5 62t-77.5 23q-56 0 -76 -23.5t-20 -60.5v-408q0 -34 23 -55.5t73 -21.5q51 0 74.5 21.5t23.5 56.5v124l38 7v-139q0 -52 -35.5 -77t-100.5 -25z
M80 686l85 87h41l84 -87h-27l-77 67l-77 -67h-29z" />
    <glyph glyph-name="ccircumflex" unicode="&#x109;" horiz-adv-x="379" 
d="M184 -4q-54 0 -82 16t-38 40.5t-10 48.5v269q0 25 10 49t39.5 40t87.5 16q57 0 86 -16t40 -40t11 -49v-67l-38 -7v68q0 41 -27 61t-72 20q-44 0 -71.5 -19.5t-27.5 -61.5v-256q0 -42 27 -61.5t65 -19.5q50 0 78 21t28 68v59l38 6v-66q0 -31 -11.5 -58.5t-42.5 -44
t-90 -16.5zM83 536l85 87h41l84 -87h-27l-77 67l-77 -67h-29z" />
    <glyph glyph-name="Cdotaccent" unicode="&#x10a;" horiz-adv-x="370" 
d="M187 -6q-65 0 -100 25t-35 76v424q0 54 31.5 81.5t100.5 27.5q72 0 105.5 -26.5t33.5 -83.5v-132l-38 -6v130q0 39 -20.5 62t-77.5 23q-56 0 -76 -23.5t-20 -60.5v-408q0 -34 23 -55.5t73 -21.5q51 0 74.5 21.5t23.5 56.5v124l38 7v-139q0 -52 -35.5 -77t-100.5 -25z
M185 683q-16 0 -18.5 5.5t-2.5 15.5q0 11 2.5 17t17.5 6q16 0 18.5 -6t2.5 -17q0 -10 -2.5 -15.5t-17.5 -5.5z" />
    <glyph glyph-name="cdotaccent" unicode="&#x10b;" horiz-adv-x="379" 
d="M184 -4q-54 0 -82 16t-38 40.5t-10 48.5v269q0 25 10 49t39.5 40t87.5 16q57 0 86 -16t40 -40t11 -49v-67l-38 -7v68q0 41 -27 61t-72 20q-44 0 -71.5 -19.5t-27.5 -61.5v-256q0 -42 27 -61.5t65 -19.5q50 0 78 21t28 68v59l38 6v-66q0 -31 -11.5 -58.5t-42.5 -44
t-90 -16.5zM189 533q-16 0 -18.5 5.5t-2.5 15.5q0 11 2.5 17t17.5 6q16 0 18.5 -6t2.5 -17q0 -10 -2.5 -15.5t-17.5 -5.5z" />
    <glyph glyph-name="Ccaron" unicode="&#x10c;" horiz-adv-x="370" 
d="M80 773h29l77 -67l76 67h28l-84 -87h-42zM187 -6q-65 0 -100 25t-35 76v424q0 54 31.5 81.5t100.5 27.5q72 0 105.5 -26.5t33.5 -83.5v-132l-38 -6v130q0 39 -20.5 62t-77.5 23q-56 0 -76 -23.5t-20 -60.5v-408q0 -34 23 -55.5t73 -21.5q51 0 74.5 21.5t23.5 56.5v124
l38 7v-139q0 -52 -35.5 -77t-100.5 -25z" />
    <glyph glyph-name="ccaron" unicode="&#x10d;" horiz-adv-x="379" 
d="M83 623h30l76 -67l77 67h27l-84 -87h-41zM184 -4q-54 0 -82 16t-38 40.5t-10 48.5v269q0 25 10 49t39.5 40t87.5 16q57 0 86 -16t40 -40t11 -49v-67l-38 -7v68q0 41 -27 61t-72 20q-44 0 -71.5 -19.5t-27.5 -61.5v-256q0 -42 27 -61.5t65 -19.5q50 0 78 21t28 68v59l38 6
v-66q0 -31 -11.5 -58.5t-42.5 -44t-90 -16.5z" />
    <glyph glyph-name="Dcaron" unicode="&#x10e;" horiz-adv-x="388" 
d="M90 773h29l77 -67l76 67h28l-84 -87h-42zM63 620h187q47 0 66 -25t19 -72v-425q0 -53 -17 -75.5t-75 -22.5h-180v620zM222 31q44 0 59.5 15.5t15.5 61.5v405q0 39 -17 57.5t-48 18.5h-131v-558h121z" />
    <glyph glyph-name="dcaron" unicode="&#x10f;" horiz-adv-x="387" 
d="M132 0q-31 0 -47 6.5t-21.5 28.5t-5.5 69v278q0 37 7.5 56t28.5 25.5t63 6.5h137v160h38v-630h-200zM294 31v408h-137q-38 0 -49.5 -10.5t-11.5 -47.5v-289q0 -40 11 -50.5t40 -10.5h147zM370 507l26 141h28l-35 -141h-19z" />
    <glyph glyph-name="Dcroat" unicode="&#x110;" horiz-adv-x="388" 
d="M-4 193v32h153v-32h-153zM63 620h187q47 0 66 -25t19 -72v-425q0 -53 -17 -75.5t-75 -22.5h-180v620zM222 31q44 0 59.5 15.5t15.5 61.5v405q0 39 -17 57.5t-48 18.5h-131v-558h121z" />
    <glyph glyph-name="dcroat" unicode="&#x111;" 
d="M132 0q-31 0 -47 6.5t-21.5 28.5t-5.5 69v278q0 37 7.5 56t28.5 25.5t63 6.5h137v160h38v-630h-200zM294 31v408h-137q-38 0 -49.5 -10.5t-11.5 -47.5v-289q0 -40 11 -50.5t40 -10.5h147zM146 529v21h225v-21h-225z" />
    <glyph glyph-name="Emacron" unicode="&#x112;" horiz-adv-x="365" 
d="M63 620h270v-31h-231v-223h215l-7 -30h-208v-306h231v-30h-270v620zM82 692v26h204v-26h-204z" />
    <glyph glyph-name="emacron" unicode="&#x113;" horiz-adv-x="383" 
d="M184 -4q-54 0 -82 16t-38 40.5t-10 48.5v269q0 25 10 49t39.5 40t87.5 16q57 0 86 -16t40 -40t11 -49v-118l-38 -2v114q0 41 -27 61t-72 20q-44 0 -71.5 -19.5t-27.5 -61.5v-256q0 -42 27 -61.5t65 -19.5q50 0 78 21t28 68v53l38 5v-59q0 -31 -11.5 -58.5t-42.5 -44
t-90 -16.5zM62 233v23h266v-23h-266zM89 542v26h204v-26h-204z" />
    <glyph glyph-name="Ebreve" unicode="&#x114;" horiz-adv-x="365" 
d="M63 620h270v-31h-231v-223h215l-7 -30h-208v-306h231v-30h-270v620zM182 681q-37 0 -57 14t-27.5 34.5t-7.5 40.5h26q0 -24 14.5 -46t51.5 -22q40 0 55 22t16 46h25q0 -39 -22 -64t-74 -25z" />
    <glyph glyph-name="ebreve" unicode="&#x115;" horiz-adv-x="383" 
d="M184 -4q-54 0 -82 16t-38 40.5t-10 48.5v269q0 25 10 49t39.5 40t87.5 16q57 0 86 -16t40 -40t11 -49v-118l-38 -2v114q0 41 -27 61t-72 20q-44 0 -71.5 -19.5t-27.5 -61.5v-256q0 -42 27 -61.5t65 -19.5q50 0 78 21t28 68v53l38 5v-59q0 -31 -11.5 -58.5t-42.5 -44
t-90 -16.5zM62 233v23h266v-23h-266zM189 531q-37 0 -57 14t-27.5 34.5t-7.5 40.5h26q0 -26 14.5 -46.5t51.5 -20.5q40 0 55.5 20t15.5 47h25q0 -37 -22 -63t-74 -26z" />
    <glyph glyph-name="Edotaccent" unicode="&#x116;" horiz-adv-x="365" 
d="M63 620h270v-31h-231v-223h215l-7 -30h-208v-306h231v-30h-270v620zM184 683q-16 0 -18.5 5.5t-2.5 15.5q0 11 2.5 17t17.5 6q16 0 18.5 -6t2.5 -17q0 -10 -2.5 -15.5t-17.5 -5.5z" />
    <glyph glyph-name="edotaccent" unicode="&#x117;" horiz-adv-x="383" 
d="M184 -4q-54 0 -82 16t-38 40.5t-10 48.5v269q0 25 10 49t39.5 40t87.5 16q57 0 86 -16t40 -40t11 -49v-118l-38 -2v114q0 41 -27 61t-72 20q-44 0 -71.5 -19.5t-27.5 -61.5v-256q0 -42 27 -61.5t65 -19.5q50 0 78 21t28 68v53l38 5v-59q0 -31 -11.5 -58.5t-42.5 -44
t-90 -16.5zM62 233v23h266v-23h-266zM191 533q-16 0 -18.5 5.5t-2.5 15.5q0 11 2.5 17t17.5 6q16 0 18.5 -6t2.5 -17q0 -10 -2.5 -15.5t-17.5 -5.5z" />
    <glyph glyph-name="Eogonek" unicode="&#x118;" horiz-adv-x="365" 
d="M63 620h270v-31h-231v-223h215l-7 -30h-208v-306h231v-30h-270v620zM284 -163q-30 0 -48.5 20.5t-18.5 52.5q0 26 21.5 54.5t68.5 43.5l23 -4q-36 -15 -60 -36.5t-24 -53.5q0 -22 14 -38t35 -16q17 0 30 4t27 17l5 -21q-19 -13 -36 -18t-37 -5z" />
    <glyph glyph-name="eogonek" unicode="&#x119;" horiz-adv-x="383" 
d="M184 -4q-54 0 -82 16t-38 40.5t-10 48.5v269q0 25 10 49t39.5 40t87.5 16q57 0 86 -16t40 -40t11 -49v-118l-38 -2v114q0 41 -27 61t-72 20q-44 0 -71.5 -19.5t-27.5 -61.5v-256q0 -42 27 -61.5t65 -19.5q50 0 78 21t28 68v53l38 5v-59q0 -31 -11.5 -58.5t-42.5 -44
t-90 -16.5zM62 233v23h266v-23h-266zM218 -161q-30 0 -48.5 20.5t-18.5 52.5q0 26 21.5 54.5t68.5 43.5l23 -4q-36 -15 -60 -36.5t-24 -53.5q0 -22 14 -38t35 -16q17 0 30 4t27 17l5 -21q-19 -13 -36 -18t-37 -5z" />
    <glyph glyph-name="Ecaron" unicode="&#x11a;" horiz-adv-x="365" 
d="M79 773h29l76 -67l77 67h28l-85 -87h-41zM63 620h270v-31h-231v-223h215l-7 -30h-208v-306h231v-30h-270v620z" />
    <glyph glyph-name="ecaron" unicode="&#x11b;" horiz-adv-x="383" 
d="M85 623h30l76 -67l77 67h27l-84 -87h-41zM184 -4q-54 0 -82 16t-38 40.5t-10 48.5v269q0 25 10 49t39.5 40t87.5 16q57 0 86 -16t40 -40t11 -49v-118l-38 -2v114q0 41 -27 61t-72 20q-44 0 -71.5 -19.5t-27.5 -61.5v-256q0 -42 27 -61.5t65 -19.5q50 0 78 21t28 68v53
l38 5v-59q0 -31 -11.5 -58.5t-42.5 -44t-90 -16.5zM62 233v23h266v-23h-266z" />
    <glyph glyph-name="Gcircumflex" unicode="&#x11c;" horiz-adv-x="376" 
d="M193 -3q-44 0 -75.5 7t-48.5 26.5t-17 56.5v449q0 53 37.5 70.5t103.5 17.5q65 0 99.5 -18t34.5 -71v-109l-39 -5v108q0 39 -25 51t-70 12t-73.5 -10.5t-28.5 -51.5v-438q0 -29 13 -42t36 -17t53 -4q28 0 49.5 4t34 17t12.5 42v208h-120l5 33h153v-246q0 -37 -15.5 -56.5
t-45.5 -26.5t-73 -7zM81 686l85 87h41l84 -87h-27l-77 67l-77 -67h-29z" />
    <glyph glyph-name="gcircumflex" unicode="&#x11d;" 
d="M113 -172l-6 31h140q30 0 38.5 15t8.5 47v518h-140q-30 0 -42 -8t-14 -25.5t-2 -49.5v-246q0 -32 3 -49t14 -23.5t33 -6.5h114l-5 -31h-125q-35 0 -50 9.5t-18.5 37t-3.5 79.5v255q0 39 8 58t30.5 25t67.5 6h168v-558q0 -45 -16 -64.5t-58 -19.5h-145zM92 536l85 87h41
l84 -87h-27l-77 67l-77 -67h-29z" />
    <glyph glyph-name="Gbreve" unicode="&#x11e;" horiz-adv-x="376" 
d="M193 -3q-44 0 -75.5 7t-48.5 26.5t-17 56.5v449q0 53 37.5 70.5t103.5 17.5q65 0 99.5 -18t34.5 -71v-109l-39 -5v108q0 39 -25 51t-70 12t-73.5 -10.5t-28.5 -51.5v-438q0 -29 13 -42t36 -17t53 -4q28 0 49.5 4t34 17t12.5 42v208h-120l5 33h153v-246q0 -37 -15.5 -56.5
t-45.5 -26.5t-73 -7zM185 681q-37 0 -57 14t-27.5 34.5t-7.5 40.5h26q0 -24 14.5 -46t51.5 -22q40 0 55 22t16 46h25q0 -39 -22 -64t-74 -25z" />
    <glyph glyph-name="gbreve" unicode="&#x11f;" 
d="M113 -172l-6 31h140q30 0 38.5 15t8.5 47v518h-140q-30 0 -42 -8t-14 -25.5t-2 -49.5v-246q0 -32 3 -49t14 -23.5t33 -6.5h114l-5 -31h-125q-35 0 -50 9.5t-18.5 37t-3.5 79.5v255q0 39 8 58t30.5 25t67.5 6h168v-558q0 -45 -16 -64.5t-58 -19.5h-145zM196 531
q-37 0 -57 14t-27.5 34.5t-7.5 40.5h26q0 -26 14.5 -46.5t51.5 -20.5q40 0 55.5 20t15.5 47h25q0 -37 -22 -63t-74 -26z" />
    <glyph glyph-name="Gdotaccent" unicode="&#x120;" horiz-adv-x="376" 
d="M193 -3q-44 0 -75.5 7t-48.5 26.5t-17 56.5v449q0 53 37.5 70.5t103.5 17.5q65 0 99.5 -18t34.5 -71v-109l-39 -5v108q0 39 -25 51t-70 12t-73.5 -10.5t-28.5 -51.5v-438q0 -29 13 -42t36 -17t53 -4q28 0 49.5 4t34 17t12.5 42v208h-120l5 33h153v-246q0 -37 -15.5 -56.5
t-45.5 -26.5t-73 -7zM187 683q-16 0 -18.5 5.5t-2.5 15.5q0 11 2.5 17t17.5 6q16 0 18.5 -6t2.5 -17q0 -10 -2.5 -15.5t-17.5 -5.5z" />
    <glyph glyph-name="gdotaccent" unicode="&#x121;" 
d="M113 -172l-6 31h140q30 0 38.5 15t8.5 47v518h-140q-30 0 -42 -8t-14 -25.5t-2 -49.5v-246q0 -32 3 -49t14 -23.5t33 -6.5h114l-5 -31h-125q-35 0 -50 9.5t-18.5 37t-3.5 79.5v255q0 39 8 58t30.5 25t67.5 6h168v-558q0 -45 -16 -64.5t-58 -19.5h-145zM197 533
q-16 0 -18.5 5.5t-2.5 15.5q0 11 2.5 17t17.5 6q16 0 18.5 -6t2.5 -17q0 -10 -2.5 -15.5t-17.5 -5.5z" />
    <glyph glyph-name="uni0122" unicode="&#x122;" horiz-adv-x="376" 
d="M193 -3q-44 0 -75.5 7t-48.5 26.5t-17 56.5v449q0 53 37.5 70.5t103.5 17.5q65 0 99.5 -18t34.5 -71v-109l-39 -5v108q0 39 -25 51t-70 12t-73.5 -10.5t-28.5 -51.5v-438q0 -29 13 -42t36 -17t53 -4q28 0 49.5 4t34 17t12.5 42v208h-120l5 33h153v-246q0 -37 -15.5 -56.5
t-45.5 -26.5t-73 -7zM159 -156q13 19 21.5 39t8.5 41q-13 0 -16 4t-3 9q0 9 2.5 13t19.5 4q14 0 16.5 -4t2.5 -12q0 -16 -4 -34t-11.5 -33.5t-16.5 -26.5h-20z" />
    <glyph glyph-name="uni0123" unicode="&#x123;" 
d="M113 -172l-6 31h140q30 0 38.5 15t8.5 47v518h-140q-30 0 -42 -8t-14 -25.5t-2 -49.5v-246q0 -32 3 -49t14 -23.5t33 -6.5h114l-5 -31h-125q-35 0 -50 9.5t-18.5 37t-3.5 79.5v255q0 39 8 58t30.5 25t67.5 6h168v-558q0 -45 -16 -64.5t-58 -19.5h-145zM194 536
q-12 0 -15.5 3.5t-3.5 11.5q0 15 4.5 33t12.5 34.5t16 26.5h22q-14 -19 -22.5 -38.5t-8.5 -40.5q12 0 14.5 -3t2.5 -8q0 -9 -3 -14t-19 -5z" />
    <glyph glyph-name="Hcircumflex" unicode="&#x124;" horiz-adv-x="398" 
d="M63 620h39v-254h195v254h38v-620h-38v336h-195v-336h-39v620zM93 686l85 87h41l84 -87h-27l-77 67l-77 -67h-29z" />
    <glyph glyph-name="hcircumflex" unicode="&#x125;" horiz-adv-x="395" 
d="M64 630h38v-207q16 25 42.5 38.5t69.5 13.5q53 0 79 -16t35 -39.5t9 -45.5v-374h-38v361q0 45 -27 64t-72 19q-40 0 -62 -14.5t-36 -37.5v-392h-38v630zM-25 696l85 87h41l84 -87h-27l-77 67l-77 -67h-29z" />
    <glyph glyph-name="Hbar" unicode="&#x126;" horiz-adv-x="372" 
d="M9 520v29h356v-29h-356zM78 620h39v-254h195v254h38v-620h-38v336h-195v-336h-39v620z" />
    <glyph glyph-name="hbar" unicode="&#x127;" horiz-adv-x="395" 
d="M19 531v18h172v-18h-172zM64 630h38v-207q16 25 42.5 38.5t69.5 13.5q53 0 79 -16t35 -39.5t9 -45.5v-374h-38v361q0 45 -27 64t-72 19q-40 0 -62 -14.5t-36 -37.5v-392h-38v630z" />
    <glyph glyph-name="Itilde" unicode="&#x128;" horiz-adv-x="165" 
d="M63 620h39v-620h-39v620zM-15 680q0 39 14.5 56t36.5 17q20 0 34 -10.5t27 -22t28 -11.5q21 0 27 15t6 28h21q0 -38 -16 -53t-35 -15q-20 0 -34 11.5t-26.5 22.5t-27.5 11q-17 0 -25 -13t-8 -36h-22z" />
    <glyph glyph-name="itilde" unicode="&#x129;" horiz-adv-x="166" 
d="M64 470h38v-470h-38v470zM-14 530q0 39 14.5 56t36.5 17q20 0 34 -10.5t27 -22t28 -11.5q21 0 27 15t6 28h21q0 -38 -16 -53t-35 -15q-20 0 -34 11.5t-26.5 22.5t-27.5 11q-17 0 -25 -13t-8 -36h-22z" />
    <glyph glyph-name="Imacron" unicode="&#x12a;" horiz-adv-x="165" 
d="M63 620h39v-620h-39v620zM-20 692v26h204v-26h-204z" />
    <glyph glyph-name="imacron" unicode="&#x12b;" horiz-adv-x="166" 
d="M64 470h38v-470h-38v470zM-20 542v26h204v-26h-204z" />
    <glyph glyph-name="Ibreve" unicode="&#x12c;" horiz-adv-x="165" 
d="M63 620h39v-620h-39v620zM80 681q-37 0 -57 14t-27.5 34.5t-7.5 40.5h26q0 -24 14.5 -46t51.5 -22q40 0 55 22t16 46h25q0 -39 -22 -64t-74 -25z" />
    <glyph glyph-name="ibreve" unicode="&#x12d;" horiz-adv-x="166" 
d="M64 470h38v-470h-38v470zM81 531q-37 0 -57 14t-27.5 34.5t-7.5 40.5h26q0 -26 14.5 -46.5t51.5 -20.5q40 0 55.5 20t15.5 47h25q0 -37 -22 -63t-74 -26z" />
    <glyph glyph-name="Iogonek" unicode="&#x12e;" horiz-adv-x="165" 
d="M63 620h39v-620h-39v620zM52 -161q-30 0 -48.5 20.5t-18.5 52.5q0 26 21.5 54.5t68.5 43.5l23 -4q-36 -15 -60 -36.5t-24 -53.5q0 -22 14 -38t35 -16q17 0 30 4t27 17l5 -21q-19 -13 -36 -18t-37 -5z" />
    <glyph glyph-name="iogonek" unicode="&#x12f;" horiz-adv-x="166" 
d="M64 470h38v-470h-38v470zM82 533q-16 0 -18.5 5.5t-2.5 15.5q0 11 2.5 17t17.5 6q16 0 18.5 -6t2.5 -17q0 -10 -2.5 -15.5t-17.5 -5.5zM28 -161q-30 0 -48.5 20.5t-18.5 52.5q0 26 21.5 54.5t68.5 43.5l23 -4q-36 -15 -60 -36.5t-24 -53.5q0 -22 14 -38t35 -16q17 0 30 4
t27 17l5 -21q-19 -13 -36 -18t-37 -5z" />
    <glyph glyph-name="Idotaccent" unicode="&#x130;" horiz-adv-x="165" 
d="M63 620h39v-620h-39v620zM82 683q-16 0 -18.5 5.5t-2.5 15.5q0 11 2.5 17t17.5 6q16 0 18.5 -6t2.5 -17q0 -10 -2.5 -15.5t-17.5 -5.5z" />
    <glyph glyph-name="dotlessi" unicode="&#x131;" horiz-adv-x="166" 
d="M64 470h38v-470h-38v470z" />
    <glyph glyph-name="Jcircumflex" unicode="&#x134;" horiz-adv-x="186" 
d="M7 0l-7 31h51q19 0 27 5t9.5 20t1.5 46v518h38v-527q0 -40 -3 -60.5t-18 -26.5t-50 -6h-49zM2 686l85 87h41l84 -87h-27l-77 67l-77 -67h-29z" />
    <glyph glyph-name="jcircumflex" unicode="&#x135;" horiz-adv-x="167" 
d="M-42 -172l-5 31h71q29 0 37.5 15t8.5 47v549h38v-558q0 -45 -15.5 -64.5t-57.5 -19.5h-77zM-17 536l85 87h41l84 -87h-27l-77 67l-77 -67h-29z" />
    <glyph glyph-name="uni0136" unicode="&#x136;" horiz-adv-x="353" 
d="M307 -8l-179 343l167 289l30 -18l-156 -270l173 -326zM63 620h39v-620h-39v620zM152 -156q13 19 21.5 39t8.5 41q-13 0 -16 4t-3 9q0 9 2.5 13t19.5 4q14 0 16.5 -4t2.5 -12q0 -16 -4 -34t-11.5 -33.5t-16.5 -26.5h-20z" />
    <glyph glyph-name="uni0137" unicode="&#x137;" horiz-adv-x="342" 
d="M64 0v629h38v-629h-38zM301 0l-161 227h-55v29h55l138 226l36 -15l-139 -222l170 -245h-44zM162 -156q13 19 21.5 39t8.5 41q-13 0 -16 4t-3 9q0 9 2.5 13t19.5 4q14 0 16.5 -4t2.5 -12q0 -16 -4 -34t-11.5 -33.5t-16.5 -26.5h-20z" />
    <glyph glyph-name="kgreenlandic" unicode="&#x138;" horiz-adv-x="339" 
d="M39 0v551h38v-551h-38zM60 227v29h61v-29h-61zM276 0l-169 242l139 228h44l-141 -225l171 -245h-44z" />
    <glyph glyph-name="Lacute" unicode="&#x139;" horiz-adv-x="321" 
d="M63 620h39v-590h204v-30h-243v620zM53 686l94 85h41l-109 -85h-26z" />
    <glyph glyph-name="lacute" unicode="&#x13a;" horiz-adv-x="166" 
d="M64 629h38v-629h-38v629zM39 696l86 93h40l-100 -93h-26z" />
    <glyph glyph-name="uni013B" unicode="&#x13b;" horiz-adv-x="321" 
d="M63 620h39v-590h204v-30h-243v620zM152 -156q13 19 21.5 39t8.5 41q-13 0 -16 4t-3 9q0 9 2.5 13t19.5 4q14 0 16.5 -4t2.5 -12q0 -16 -4 -34t-11.5 -33.5t-16.5 -26.5h-20z" />
    <glyph glyph-name="uni013C" unicode="&#x13c;" horiz-adv-x="166" 
d="M64 629h38v-629h-38v629zM54 -156q13 19 21.5 39t8.5 41q-13 0 -16 4t-3 9q0 9 2.5 13t19.5 4q14 0 16.5 -4t2.5 -12q0 -16 -4 -34t-11.5 -33.5t-16.5 -26.5h-20z" />
    <glyph glyph-name="Lcaron" unicode="&#x13d;" horiz-adv-x="321" 
d="M63 620h39v-590h204v-30h-243v620zM187 507l26 141h28l-35 -141h-19z" />
    <glyph glyph-name="lcaron" unicode="&#x13e;" horiz-adv-x="166" 
d="M64 629h38v-629h-38v629zM158 507l26 141h28l-35 -141h-19z" />
    <glyph glyph-name="Ldot" unicode="&#x13f;" horiz-adv-x="302" 
d="M63 620h39v-590h204v-30h-243v620zM259 235q-16 0 -18.5 5.5t-2.5 15.5q0 11 2.5 17t18.5 6q15 0 18.5 -6t3.5 -17q0 -10 -3.5 -15.5t-18.5 -5.5z" />
    <glyph glyph-name="ldot" unicode="&#x140;" horiz-adv-x="145" 
d="M64 629h38v-629h-38v629zM152 236q-16 0 -18.5 5.5t-2.5 15.5q0 11 2.5 17t18.5 6q15 0 18.5 -6t3.5 -17q0 -10 -3.5 -15.5t-18.5 -5.5z" />
    <glyph glyph-name="Lslash" unicode="&#x141;" horiz-adv-x="339" 
d="M48 620h39v-590h205v-30h-244v620zM-1 212l-8 30l182 48l9 -30z" />
    <glyph glyph-name="lslash" unicode="&#x142;" horiz-adv-x="254" 
d="M94 629h38v-629h-38v629zM40 212l-8 30l182 48l9 -30z" />
    <glyph glyph-name="Nacute" unicode="&#x143;" horiz-adv-x="405" 
d="M63 0v620h39l199 -533l1 -5l1 -2v540h39v-620h-42l-196 517l-2 7h-1v-524h-38zM159 686l94 85h41l-109 -85h-26z" />
    <glyph glyph-name="nacute" unicode="&#x144;" horiz-adv-x="395" 
d="M64 472h30l4 -49q16 24 44.5 39t71.5 15q62 0 92.5 -26t30.5 -77v-374h-38v362q0 44 -27 63.5t-72 19.5q-38 0 -61 -15t-37 -38v-392h-38v472zM155 536l86 93h40l-100 -93h-26z" />
    <glyph glyph-name="uni0145" unicode="&#x145;" horiz-adv-x="405" 
d="M63 0v620h39l199 -533l1 -5l1 -2v540h39v-620h-42l-196 517l-2 7h-1v-524h-38zM175 -156q13 19 21.5 39t8.5 41q-13 0 -16 4t-3 9q0 9 2.5 13t19.5 4q14 0 16.5 -4t2.5 -12q0 -16 -4 -34t-11.5 -33.5t-16.5 -26.5h-20z" />
    <glyph glyph-name="uni0146" unicode="&#x146;" horiz-adv-x="395" 
d="M64 472h30l4 -49q16 24 44.5 39t71.5 15q62 0 92.5 -26t30.5 -77v-374h-38v362q0 44 -27 63.5t-72 19.5q-38 0 -61 -15t-37 -38v-392h-38v472zM170 -156q13 19 21.5 39t8.5 41q-13 0 -16 4t-3 9q0 9 2.5 13t19.5 4q14 0 16.5 -4t2.5 -12q0 -16 -4 -34t-11.5 -33.5
t-16.5 -26.5h-20z" />
    <glyph glyph-name="Ncaron" unicode="&#x147;" horiz-adv-x="405" 
d="M97 773h29l77 -67l77 67h27l-84 -87h-42zM63 0v620h39l199 -533l1 -5l1 -2v540h39v-620h-42l-196 517l-2 7h-1v-524h-38z" />
    <glyph glyph-name="ncaron" unicode="&#x148;" horiz-adv-x="395" 
d="M93 623h29l77 -67l77 67h27l-84 -87h-42zM64 472h30l4 -49q16 24 44.5 39t71.5 15q62 0 92.5 -26t30.5 -77v-374h-38v362q0 44 -27 63.5t-72 19.5q-38 0 -61 -15t-37 -38v-392h-38v472z" />
    <glyph glyph-name="Eng" unicode="&#x14a;" horiz-adv-x="405" 
d="M200 -176l-6 30h64q28 0 37 15t9 43v77l-200 525l-2 6l-1 1v-521h-38v620h39l199 -537l1 -5l1 -2v544h39v-711q0 -45 -15.5 -65t-58.5 -20h-68z" />
    <glyph glyph-name="eng" unicode="&#x14b;" horiz-adv-x="562" 
d="M39 470h30l4 -49q17 26 44.5 40t71.5 14q52 0 78.5 -16t35.5 -40t9 -46v-373h-38v360q0 44 -27 64t-72 20q-40 0 -62.5 -15t-35.5 -38v-391h-38v470zM161 -178l-6 31h73q28 0 37 14.5t9 47.5v341h38v-349q0 -46 -16 -65.5t-58 -19.5h-77z" />
    <glyph glyph-name="Omacron" unicode="&#x14c;" horiz-adv-x="379" 
d="M189 -3q-66 0 -101.5 24t-35.5 69v448q0 38 32 64.5t105 25.5t105 -26.5t32 -64.5v-446q0 -45 -34.5 -69.5t-102.5 -24.5zM189 29q52 0 75.5 20.5t23.5 49.5v430q0 25 -21 46t-80 21q-55 0 -76 -20.5t-21 -45.5v-431q0 -30 24 -50t75 -20zM87 692v26h204v-26h-204z" />
    <glyph glyph-name="omacron" unicode="&#x14d;" horiz-adv-x="383" 
d="M184 -4q-54 0 -82 16t-38 40.5t-10 48.5v269q0 25 10 49t39.5 40t87.5 16q57 0 86 -16t40 -40t11 -49v-255q0 -31 -11.5 -58.5t-42.5 -44t-90 -16.5zM184 27q50 0 78 21t28 68v248q0 41 -27 61t-72 20q-44 0 -71.5 -19.5t-27.5 -61.5v-256q0 -42 27 -61.5t65 -19.5z
M89 542v26h204v-26h-204z" />
    <glyph glyph-name="Obreve" unicode="&#x14e;" horiz-adv-x="379" 
d="M189 -3q-66 0 -101.5 24t-35.5 69v448q0 38 32 64.5t105 25.5t105 -26.5t32 -64.5v-446q0 -45 -34.5 -69.5t-102.5 -24.5zM189 29q52 0 75.5 20.5t23.5 49.5v430q0 25 -21 46t-80 21q-55 0 -76 -20.5t-21 -45.5v-431q0 -30 24 -50t75 -20zM187 681q-37 0 -57 14
t-27.5 34.5t-7.5 40.5h26q0 -24 14.5 -46t51.5 -22q40 0 55 22t16 46h25q0 -39 -22 -64t-74 -25z" />
    <glyph glyph-name="obreve" unicode="&#x14f;" horiz-adv-x="383" 
d="M184 -4q-54 0 -82 16t-38 40.5t-10 48.5v269q0 25 10 49t39.5 40t87.5 16q57 0 86 -16t40 -40t11 -49v-255q0 -31 -11.5 -58.5t-42.5 -44t-90 -16.5zM184 27q50 0 78 21t28 68v248q0 41 -27 61t-72 20q-44 0 -71.5 -19.5t-27.5 -61.5v-256q0 -42 27 -61.5t65 -19.5z
M189 531q-37 0 -57 14t-27.5 34.5t-7.5 40.5h26q0 -26 14.5 -46.5t51.5 -20.5q40 0 55.5 20t15.5 47h25q0 -37 -22 -63t-74 -26z" />
    <glyph glyph-name="Ohungarumlaut" unicode="&#x150;" horiz-adv-x="379" 
d="M189 -3q-66 0 -101.5 24t-35.5 69v448q0 38 32 64.5t105 25.5t105 -26.5t32 -64.5v-446q0 -45 -34.5 -69.5t-102.5 -24.5zM189 29q52 0 75.5 20.5t23.5 49.5v430q0 25 -21 46t-80 21q-55 0 -76 -20.5t-21 -45.5v-431q0 -30 24 -50t75 -20zM141 686l37 93h40l-51 -93h-26z
M213 686l37 93h41l-52 -93h-26z" />
    <glyph glyph-name="ohungarumlaut" unicode="&#x151;" horiz-adv-x="383" 
d="M184 -4q-54 0 -82 16t-38 40.5t-10 48.5v269q0 25 10 49t39.5 40t87.5 16q57 0 86 -16t40 -40t11 -49v-255q0 -31 -11.5 -58.5t-42.5 -44t-90 -16.5zM184 27q50 0 78 21t28 68v248q0 41 -27 61t-72 20q-44 0 -71.5 -19.5t-27.5 -61.5v-256q0 -42 27 -61.5t65 -19.5z
M143 536l37 93h40l-51 -93h-26zM215 536l37 93h41l-52 -93h-26z" />
    <glyph glyph-name="OE" unicode="&#x152;" horiz-adv-x="580" 
d="M189 -3q-66 0 -101.5 24t-35.5 69v445q0 43 32.5 68.5t104.5 24.5q69 -1 99.5 -26t30.5 -68v-443q0 -45 -33.5 -69.5t-96.5 -24.5zM188 29q53 0 76.5 20.5t23.5 49.5v426q0 18 -8.5 34.5t-30.5 26t-62 9.5q-55 0 -76 -21.5t-21 -47.5v-428q0 -28 24 -48.5t74 -20.5z
M289 0v620h259v-31h-222v-223h208l-8 -30h-200v-306h222v-30h-259z" />
    <glyph glyph-name="oe" unicode="&#x153;" horiz-adv-x="585" 
d="M184 -4q-54 0 -82 16t-38 40.5t-10 48.5v269q0 25 10 49t39.5 40t87.5 16q57 0 86 -16t40 -40t11 -49v-255q0 -31 -11.5 -58.5t-42.5 -44t-90 -16.5zM184 27q50 0 78 21t28 68v248q0 41 -27 61t-72 20q-44 0 -71.5 -19.5t-27.5 -61.5v-256q0 -42 27 -61.5t65 -19.5z
M425 -7q-54 0 -82 16t-38 40.5t-10 48.5v269q0 25 10 49t39.5 40t87.5 16q57 0 86 -16t40 -40t11 -49v-118l-38 -2v114q0 41 -27 61t-72 20q-44 0 -71.5 -19.5t-27.5 -61.5v-256q0 -42 27 -61.5t65 -19.5q50 0 78 21t28 68v53l38 5v-59q0 -31 -11.5 -58.5t-42.5 -44
t-90 -16.5zM303 230v23h266v-23h-266z" />
    <glyph glyph-name="Racute" unicode="&#x154;" horiz-adv-x="388" 
d="M63 620h178q43 0 63.5 -10.5t27 -32t6.5 -53.5v-109q0 -36 -6 -67.5t-31 -51t-82 -19.5h-117v-277h-39v620zM323 -12l-115 292l27 4l11 -3l3 -8l110 -271zM212 309q43 0 65.5 21.5t22.5 72.5v108q0 43 -15.5 60.5t-58.5 17.5h-124v-280h110zM141 686l94 85h41l-109 -85
h-26z" />
    <glyph glyph-name="racute" unicode="&#x155;" horiz-adv-x="269" 
d="M64 0v470h30l4 -49q17 26 43 40t57 14q23 0 35.5 -2.5t24.5 -7.5l-2 -35q-13 7 -26.5 9.5t-33.5 2.5q-34 0 -57 -17t-37 -43v-382h-38zM119 536l86 93h40l-100 -93h-26z" />
    <glyph glyph-name="uni0156" unicode="&#x156;" horiz-adv-x="388" 
d="M63 620h178q43 0 63.5 -10.5t27 -32t6.5 -53.5v-109q0 -36 -6 -67.5t-31 -51t-82 -19.5h-117v-277h-39v620zM323 -12l-115 292l27 4l11 -3l3 -8l110 -271zM212 309q43 0 65.5 21.5t22.5 72.5v108q0 43 -15.5 60.5t-58.5 17.5h-124v-280h110zM162 -156q13 19 21.5 39
t8.5 41q-13 0 -16 4t-3 9q0 9 2.5 13t19.5 4q14 0 16.5 -4t2.5 -12q0 -16 -4 -34t-11.5 -33.5t-16.5 -26.5h-20z" />
    <glyph glyph-name="uni0157" unicode="&#x157;" horiz-adv-x="269" 
d="M64 0v470h30l4 -49q17 26 43 40t57 14q23 0 35.5 -2.5t24.5 -7.5l-2 -35q-13 7 -26.5 9.5t-33.5 2.5q-34 0 -57 -17t-37 -43v-382h-38zM53 -156q13 19 21.5 39t8.5 41q-13 0 -16 4t-3 9q0 9 2.5 13t19.5 4q14 0 16.5 -4t2.5 -12q0 -16 -4 -34t-11.5 -33.5t-16.5 -26.5
h-20z" />
    <glyph glyph-name="Rcaron" unicode="&#x158;" horiz-adv-x="388" 
d="M80 773h29l76 -67l77 67h27l-84 -87h-41zM63 620h178q43 0 63.5 -10.5t27 -32t6.5 -53.5v-109q0 -36 -6 -67.5t-31 -51t-82 -19.5h-117v-277h-39v620zM323 -12l-115 292l27 4l11 -3l3 -8l110 -271zM212 309q43 0 65.5 21.5t22.5 72.5v108q0 43 -15.5 60.5t-58.5 17.5
h-124v-280h110z" />
    <glyph glyph-name="rcaron" unicode="&#x159;" horiz-adv-x="269" 
d="M57 623h29l77 -67l77 67h27l-84 -87h-42zM64 0v470h30l4 -49q17 26 43 40t57 14q23 0 35.5 -2.5t24.5 -7.5l-2 -35q-13 7 -26.5 9.5t-33.5 2.5q-34 0 -57 -17t-37 -43v-382h-38z" />
    <glyph glyph-name="Sacute" unicode="&#x15a;" horiz-adv-x="367" 
d="M189 -3q-42 1 -74.5 7.5t-50.5 23.5t-18 49v126l38 7v-121q0 -29 22.5 -45t80.5 -16q39 0 59.5 8t27.5 25.5t7 46.5v96q0 39 -18.5 60.5t-53.5 31.5l-79 22q-45 13 -64.5 34.5t-19.5 65.5v106q0 43 17.5 64t49.5 28t76 7q42 0 71 -7t44.5 -24t15.5 -49v-127l-39 -8v120
q0 34 -18.5 49.5t-75.5 15.5q-58 0 -80.5 -18.5t-22.5 -62.5v-90q0 -34 20 -52t49 -26l82 -23q46 -13 65.5 -37.5t19.5 -69.5v-115q0 -44 -15 -65.5t-44 -28.5t-72 -8zM140 686l94 85h41l-109 -85h-26z" />
    <glyph glyph-name="sacute" unicode="&#x15b;" horiz-adv-x="362" 
d="M177 -6q-69 0 -99 29.5t-30 82.5v69l35 6v-74q0 -21 7.5 -40.5t28 -32t58.5 -12.5q47 0 74 16.5t27 68.5q0 43 -14 64.5t-52 38.5q-6 3 -20.5 9t-31.5 12.5t-30.5 12.5t-19.5 9q-23 12 -36.5 25t-19.5 31.5t-6 45.5v11q0 56 32.5 82.5t102.5 26.5t100 -25t30 -81v-73
l-35 -5v74q0 48 -25 65t-71 17t-66.5 -14t-26.5 -33.5t-6 -36.5q0 -38 9.5 -54t36.5 -31q14 -7 33.5 -15t39 -15.5t32.5 -13.5q46 -22 62.5 -46t16.5 -71v-8q0 -57 -29 -86t-107 -29zM139 536l86 93h40l-100 -93h-26z" />
    <glyph glyph-name="Scircumflex" unicode="&#x15c;" horiz-adv-x="367" 
d="M189 -3q-42 1 -74.5 7.5t-50.5 23.5t-18 49v126l38 7v-121q0 -29 22.5 -45t80.5 -16q39 0 59.5 8t27.5 25.5t7 46.5v96q0 39 -18.5 60.5t-53.5 31.5l-79 22q-45 13 -64.5 34.5t-19.5 65.5v106q0 43 17.5 64t49.5 28t76 7q42 0 71 -7t44.5 -24t15.5 -49v-127l-39 -8v120
q0 34 -18.5 49.5t-75.5 15.5q-58 0 -80.5 -18.5t-22.5 -62.5v-90q0 -34 20 -52t49 -26l82 -23q46 -13 65.5 -37.5t19.5 -69.5v-115q0 -44 -15 -65.5t-44 -28.5t-72 -8zM78 686l85 87h41l84 -87h-27l-77 67l-77 -67h-29z" />
    <glyph glyph-name="scircumflex" unicode="&#x15d;" horiz-adv-x="362" 
d="M177 -6q-69 0 -99 29.5t-30 82.5v69l35 6v-74q0 -21 7.5 -40.5t28 -32t58.5 -12.5q47 0 74 16.5t27 68.5q0 43 -14 64.5t-52 38.5q-6 3 -20.5 9t-31.5 12.5t-30.5 12.5t-19.5 9q-23 12 -36.5 25t-19.5 31.5t-6 45.5v11q0 56 32.5 82.5t102.5 26.5t100 -25t30 -81v-73
l-35 -5v74q0 48 -25 65t-71 17t-66.5 -14t-26.5 -33.5t-6 -36.5q0 -38 9.5 -54t36.5 -31q14 -7 33.5 -15t39 -15.5t32.5 -13.5q46 -22 62.5 -46t16.5 -71v-8q0 -57 -29 -86t-107 -29zM77 536l85 87h41l84 -87h-27l-77 67l-77 -67h-29z" />
    <glyph glyph-name="Scedilla" unicode="&#x15e;" horiz-adv-x="367" 
d="M189 -3q-42 1 -74.5 7.5t-50.5 23.5t-18 49v126l38 7v-121q0 -29 22.5 -45t80.5 -16q39 0 59.5 8t27.5 25.5t7 46.5v96q0 39 -18.5 60.5t-53.5 31.5l-79 22q-45 13 -64.5 34.5t-19.5 65.5v106q0 43 17.5 64t49.5 28t76 7q42 0 71 -7t44.5 -24t15.5 -49v-127l-39 -8v120
q0 34 -18.5 49.5t-75.5 15.5q-58 0 -80.5 -18.5t-22.5 -62.5v-90q0 -34 20 -52t49 -26l82 -23q46 -13 65.5 -37.5t19.5 -69.5v-115q0 -44 -15 -65.5t-44 -28.5t-72 -8zM192 -172q-20 0 -36 7.5t-26 16.5l13 17q5 -7 19 -15t28 -8q25 0 39 17.5t14 35.5q0 17 -11 31.5
t-37 14.5q-16 0 -29.5 -7t-22.5 -17l-16 14l52 65h20l-43 -53q22 15 46 15q36 0 51.5 -19.5t15.5 -41.5q0 -25 -19.5 -49t-57.5 -24z" />
    <glyph glyph-name="scedilla" unicode="&#x15f;" horiz-adv-x="362" 
d="M177 -6q-69 0 -99 29.5t-30 82.5v69l35 6v-74q0 -21 7.5 -40.5t28 -32t58.5 -12.5q47 0 74 16.5t27 68.5q0 43 -14 64.5t-52 38.5q-6 3 -20.5 9t-31.5 12.5t-30.5 12.5t-19.5 9q-23 12 -36.5 25t-19.5 31.5t-6 45.5v11q0 56 32.5 82.5t102.5 26.5t100 -25t30 -81v-73
l-35 -5v74q0 48 -25 65t-71 17t-66.5 -14t-26.5 -33.5t-6 -36.5q0 -38 9.5 -54t36.5 -31q14 -7 33.5 -15t39 -15.5t32.5 -13.5q46 -22 62.5 -46t16.5 -71v-8q0 -57 -29 -86t-107 -29zM189 -172q-20 0 -36 7.5t-26 16.5l13 17q5 -7 19 -15t28 -8q25 0 39 17.5t14 35.5
q0 17 -11 31.5t-37 14.5q-16 0 -29.5 -7t-22.5 -17l-16 14l52 65h20l-43 -53q22 15 46 15q36 0 51.5 -19.5t15.5 -41.5q0 -25 -19.5 -49t-57.5 -24z" />
    <glyph glyph-name="Scaron" unicode="&#x160;" horiz-adv-x="367" 
d="M78 773h29l77 -67l76 67h28l-84 -87h-42zM189 -3q-42 1 -74.5 7.5t-50.5 23.5t-18 49v126l38 7v-121q0 -29 22.5 -45t80.5 -16q39 0 59.5 8t27.5 25.5t7 46.5v96q0 39 -18.5 60.5t-53.5 31.5l-79 22q-45 13 -64.5 34.5t-19.5 65.5v106q0 43 17.5 64t49.5 28t76 7
q42 0 71 -7t44.5 -24t15.5 -49v-127l-39 -8v120q0 34 -18.5 49.5t-75.5 15.5q-58 0 -80.5 -18.5t-22.5 -62.5v-90q0 -34 20 -52t49 -26l82 -23q46 -13 65.5 -37.5t19.5 -69.5v-115q0 -44 -15 -65.5t-44 -28.5t-72 -8z" />
    <glyph glyph-name="scaron" unicode="&#x161;" horiz-adv-x="362" 
d="M77 623h29l77 -67l77 67h27l-84 -87h-42zM177 -6q-69 0 -99 29.5t-30 82.5v69l35 6v-74q0 -21 7.5 -40.5t28 -32t58.5 -12.5q47 0 74 16.5t27 68.5q0 43 -14 64.5t-52 38.5q-6 3 -20.5 9t-31.5 12.5t-30.5 12.5t-19.5 9q-23 12 -36.5 25t-19.5 31.5t-6 45.5v11
q0 56 32.5 82.5t102.5 26.5t100 -25t30 -81v-73l-35 -5v74q0 48 -25 65t-71 17t-66.5 -14t-26.5 -33.5t-6 -36.5q0 -38 9.5 -54t36.5 -31q14 -7 33.5 -15t39 -15.5t32.5 -13.5q46 -22 62.5 -46t16.5 -71v-8q0 -57 -29 -86t-107 -29z" />
    <glyph glyph-name="uni0162" unicode="&#x162;" horiz-adv-x="303" 
d="M131 589h-111v31h263v-31h-113v-589h-39v589zM147 -172q-20 0 -36 7.5t-26 16.5l13 17q5 -7 19 -15t28 -8q25 0 39 17.5t14 35.5q0 17 -11 31.5t-37 14.5q-16 0 -29.5 -7t-22.5 -17l-16 14l52 65h20l-43 -53q22 15 46 15q36 0 51.5 -19.5t15.5 -41.5q0 -25 -19.5 -49
t-57.5 -24z" />
    <glyph glyph-name="uni0163" unicode="&#x163;" horiz-adv-x="211" 
d="M161 0q-38 0 -59.5 10t-30.5 32.5t-9 59.5v339h-33v29h38l6 88h27v-88h85l-8 -29h-77v-335q0 -45 18.5 -60t52.5 -15h28v-31h-38zM156 -172q-20 0 -36 7.5t-26 16.5l13 17q5 -7 19 -15t28 -8q25 0 39 17.5t14 35.5q0 17 -11 31.5t-37 14.5q-16 0 -29.5 -7t-22.5 -17
l-16 14l52 65h20l-43 -53q22 15 46 15q36 0 51.5 -19.5t15.5 -41.5q0 -25 -19.5 -49t-57.5 -24z" />
    <glyph glyph-name="Tcaron" unicode="&#x164;" horiz-adv-x="303" 
d="M45 773h29l77 -67l77 67h27l-84 -87h-42zM131 589h-111v31h263v-31h-113v-589h-39v589z" />
    <glyph glyph-name="tcaron" unicode="&#x165;" horiz-adv-x="211" 
d="M161 0q-38 0 -59.5 10t-30.5 32.5t-9 59.5v339h-33v29h38l6 88h27v-88h85l-8 -29h-77v-335q0 -45 18.5 -60t52.5 -15h28v-31h-38zM154 513l26 141h28l-35 -141h-19z" />
    <glyph glyph-name="Tbar" unicode="&#x166;" horiz-adv-x="303" 
d="M131 589h-111v31h263v-31h-113v-589h-39v589zM39 417v21h225v-21h-225z" />
    <glyph glyph-name="tbar" unicode="&#x167;" horiz-adv-x="211" 
d="M161 0q-38 0 -59.5 10t-30.5 32.5t-9 59.5v339h-33v29h38l6 88h27v-88h85l-8 -29h-77v-335q0 -45 18.5 -60t52.5 -15h28v-31h-38zM-5 324v21h225v-21h-225z" />
    <glyph glyph-name="Utilde" unicode="&#x168;" horiz-adv-x="390" 
d="M195 -5q-37 0 -68 9t-49.5 29.5t-18.5 55.5v531h39v-517q0 -20 8 -37.5t28.5 -28.5t60.5 -11q42 0 63 11t28 28.5t7 37.5v517h38v-531q0 -35 -17.5 -55.5t-48 -29.5t-70.5 -9zM98 680q0 39 14.5 56t36.5 17q20 0 34 -10.5t27 -22t28 -11.5q21 0 27 15t6 28h21
q0 -38 -16 -53t-35 -15q-20 0 -34 11.5t-26.5 22.5t-27.5 11q-17 0 -25 -13t-8 -36h-22z" />
    <glyph glyph-name="utilde" unicode="&#x169;" 
d="M182 0q-53 0 -79.5 15.5t-35 37.5t-8.5 44v373h38v-358q0 -44 27 -62.5t72 -18.5h99v439h38v-470h-151zM101 530q0 39 14.5 56t36.5 17q20 0 34 -10.5t27 -22t28 -11.5q21 0 27 15t6 28h21q0 -38 -16 -53t-35 -15q-20 0 -34 11.5t-26.5 22.5t-27.5 11q-17 0 -25 -13
t-8 -36h-22z" />
    <glyph glyph-name="Umacron" unicode="&#x16a;" horiz-adv-x="390" 
d="M195 -5q-37 0 -68 9t-49.5 29.5t-18.5 55.5v531h39v-517q0 -20 8 -37.5t28.5 -28.5t60.5 -11q42 0 63 11t28 28.5t7 37.5v517h38v-531q0 -35 -17.5 -55.5t-48 -29.5t-70.5 -9zM93 692v26h204v-26h-204z" />
    <glyph glyph-name="umacron" unicode="&#x16b;" 
d="M182 0q-53 0 -79.5 15.5t-35 37.5t-8.5 44v373h38v-358q0 -44 27 -62.5t72 -18.5h99v439h38v-470h-151zM95 542v26h204v-26h-204z" />
    <glyph glyph-name="Ubreve" unicode="&#x16c;" horiz-adv-x="390" 
d="M195 -5q-37 0 -68 9t-49.5 29.5t-18.5 55.5v531h39v-517q0 -20 8 -37.5t28.5 -28.5t60.5 -11q42 0 63 11t28 28.5t7 37.5v517h38v-531q0 -35 -17.5 -55.5t-48 -29.5t-70.5 -9zM193 681q-37 0 -57 14t-27.5 34.5t-7.5 40.5h26q0 -24 14.5 -46t51.5 -22q40 0 55 22t16 46
h25q0 -39 -22 -64t-74 -25z" />
    <glyph glyph-name="ubreve" unicode="&#x16d;" 
d="M182 0q-53 0 -79.5 15.5t-35 37.5t-8.5 44v373h38v-358q0 -44 27 -62.5t72 -18.5h99v439h38v-470h-151zM196 531q-37 0 -57 14t-27.5 34.5t-7.5 40.5h26q0 -26 14.5 -46.5t51.5 -20.5q40 0 55.5 20t15.5 47h25q0 -37 -22 -63t-74 -26z" />
    <glyph glyph-name="Uring" unicode="&#x16e;" horiz-adv-x="390" 
d="M195 -5q-37 0 -68 9t-49.5 29.5t-18.5 55.5v531h39v-517q0 -20 8 -37.5t28.5 -28.5t60.5 -11q42 0 63 11t28 28.5t7 37.5v517h38v-531q0 -35 -17.5 -55.5t-48 -29.5t-70.5 -9zM195 680q-31 0 -51.5 20t-20.5 47q0 28 20.5 48t51.5 20q29 0 49.5 -20t20.5 -48
q0 -27 -20.5 -47t-49.5 -20zM195 698q20 0 35 14.5t15 33.5q0 21 -15 36t-35 15q-22 0 -37 -15t-15 -36q0 -19 15 -33.5t37 -14.5z" />
    <glyph glyph-name="uring" unicode="&#x16f;" 
d="M182 0q-53 0 -79.5 15.5t-35 37.5t-8.5 44v373h38v-358q0 -44 27 -62.5t72 -18.5h99v439h38v-470h-151zM198 530q-31 0 -51.5 20t-20.5 47q0 28 20.5 48t51.5 20q29 0 49.5 -20t20.5 -48q0 -27 -20.5 -47t-49.5 -20zM198 548q20 0 35 14.5t15 33.5q0 21 -15 36t-35 15
q-22 0 -37 -15t-15 -36q0 -19 15 -33.5t37 -14.5z" />
    <glyph glyph-name="Uhungarumlaut" unicode="&#x170;" horiz-adv-x="390" 
d="M195 -5q-37 0 -68 9t-49.5 29.5t-18.5 55.5v531h39v-517q0 -20 8 -37.5t28.5 -28.5t60.5 -11q42 0 63 11t28 28.5t7 37.5v517h38v-531q0 -35 -17.5 -55.5t-48 -29.5t-70.5 -9zM146 686l37 93h40l-51 -93h-26zM218 686l37 93h41l-52 -93h-26z" />
    <glyph glyph-name="uhungarumlaut" unicode="&#x171;" 
d="M182 0q-53 0 -79.5 15.5t-35 37.5t-8.5 44v373h38v-358q0 -44 27 -62.5t72 -18.5h99v439h38v-470h-151zM149 536l37 93h40l-51 -93h-26zM221 536l37 93h41l-52 -93h-26z" />
    <glyph glyph-name="Uogonek" unicode="&#x172;" horiz-adv-x="390" 
d="M195 -5q-37 0 -68 9t-49.5 29.5t-18.5 55.5v531h39v-517q0 -20 8 -37.5t28.5 -28.5t60.5 -11q42 0 63 11t28 28.5t7 37.5v517h38v-531q0 -35 -17.5 -55.5t-48 -29.5t-70.5 -9zM186 -166q-30 0 -48.5 20.5t-18.5 52.5q0 26 21.5 54.5t68.5 43.5l23 -4q-36 -15 -60 -36.5
t-24 -53.5q0 -22 14 -38t35 -16q17 0 30 4t27 17l5 -21q-19 -13 -36 -18t-37 -5z" />
    <glyph glyph-name="uogonek" unicode="&#x173;" 
d="M182 0q-53 0 -79.5 15.5t-35 37.5t-8.5 44v373h38v-358q0 -44 27 -62.5t72 -18.5h99v439h38v-470h-151zM274 -162q-30 0 -48.5 20.5t-18.5 52.5q0 26 21.5 54.5t68.5 43.5l23 -4q-36 -15 -60 -36.5t-24 -53.5q0 -22 14 -38t35 -16q17 0 30 4t27 17l5 -21q-19 -13 -36 -18
t-37 -5z" />
    <glyph glyph-name="Wcircumflex" unicode="&#x174;" horiz-adv-x="554" 
d="M141 0l-117 620h40l98 -542l1 -13h1v13l102 509h32l94 -509l1 -13h1l1 13l95 542h39l-114 -620h-42l-89 494v9h-1l-1 -9l-100 -494h-41zM177 686l85 87h41l84 -87h-27l-77 67l-77 -67h-29z" />
    <glyph glyph-name="wcircumflex" unicode="&#x175;" horiz-adv-x="548" 
d="M12 470h39l111 -393l94 393h32l97 -390l110 390h38l-132 -470h-27l-101 407l-101 -407h-28zM169 536l85 87h41l84 -87h-27l-77 67l-77 -67h-29z" />
    <glyph glyph-name="Ycircumflex" unicode="&#x176;" horiz-adv-x="338" 
d="M149 0v262l-136 358h36l118 -306l2 -12h1l2 12l116 306h37l-138 -358v-262h-38zM62 686l85 87h41l84 -87h-27l-77 67l-77 -67h-29z" />
    <glyph glyph-name="ycircumflex" unicode="&#x177;" horiz-adv-x="318" 
d="M-6 -170l2 26h35q37 0 59.5 16.5t34.5 66.5l17 66l-127 465h37l107 -403l1 -9h-3l1 9l107 403h38l-146 -540q-15 -54 -39.5 -77t-80.5 -23h-43zM55 536l85 87h41l84 -87h-27l-77 67l-77 -67h-29z" />
    <glyph glyph-name="Ydieresis" unicode="&#x178;" horiz-adv-x="338" 
d="M149 0v262l-136 358h36l118 -306l2 -12h1l2 12l116 306h37l-138 -358v-262h-38zM214 682q-14 0 -17 5.5t-3 15.5q0 11 3 16.5t17 5.5q16 0 19 -5.5t3 -16.5q0 -10 -3 -15.5t-19 -5.5zM121 682q-15 0 -17.5 5.5t-2.5 15.5q0 11 2.5 16.5t17.5 5.5q16 0 18.5 -5.5
t2.5 -16.5q0 -10 -2.5 -15.5t-18.5 -5.5z" />
    <glyph glyph-name="Zacute" unicode="&#x179;" horiz-adv-x="291" 
d="M13 0l202 589h-186v31h234l-201 -589h208v-31h-257zM102 686l94 85h41l-109 -85h-26z" />
    <glyph glyph-name="zacute" unicode="&#x17a;" horiz-adv-x="287" 
d="M22 9l194 430h-192l9 31h225v-22l-188 -417h197l-15 -31h-230v9zM100 536l86 93h40l-100 -93h-26z" />
    <glyph glyph-name="Zdotaccent" unicode="&#x17b;" horiz-adv-x="291" 
d="M13 0l202 589h-186v31h234l-201 -589h208v-31h-257zM145 683q-16 0 -18.5 5.5t-2.5 15.5q0 11 2.5 17t17.5 6q16 0 18.5 -6t2.5 -17q0 -10 -2.5 -15.5t-17.5 -5.5z" />
    <glyph glyph-name="zdotaccent" unicode="&#x17c;" horiz-adv-x="287" 
d="M22 9l194 430h-192l9 31h225v-22l-188 -417h197l-15 -31h-230v9zM144 533q-16 0 -18.5 5.5t-2.5 15.5q0 11 2.5 17t17.5 6q16 0 18.5 -6t2.5 -17q0 -10 -2.5 -15.5t-17.5 -5.5z" />
    <glyph glyph-name="Zcaron" unicode="&#x17d;" horiz-adv-x="291" 
d="M40 773h29l77 -67l76 67h28l-84 -87h-42zM13 0l202 589h-186v31h234l-201 -589h208v-31h-257z" />
    <glyph glyph-name="zcaron" unicode="&#x17e;" horiz-adv-x="287" 
d="M39 623h29l76 -67l77 67h27l-84 -87h-41zM22 9l194 430h-192l9 31h225v-22l-188 -417h197l-15 -31h-230v9z" />
    <glyph glyph-name="uni018F" unicode="&#x18f;" horiz-adv-x="346" 
d="M174 -3q-56 0 -86 20.5t-41 52.5t-11 64v180h235v171q0 56 -26.5 81.5t-68.5 25.5q-45 0 -73.5 -27.5t-28.5 -89.5v-78l-38 -6v78q0 43 11 77.5t42 56t87 21.5t85 -20.5t38.5 -52t9.5 -63.5v-353q0 -32 -10 -64t-38.5 -53t-86.5 -21zM174 28q29 0 51 12t34 36.5t12 60.5
v150h-197v-150q0 -36 12 -60.5t34.5 -36.5t53.5 -12z" />
    <glyph glyph-name="florin" unicode="&#x192;" horiz-adv-x="268" 
d="M-84 -172l-5 31h64q28 0 38 15t14 47l56 526h-43l2 23h43l8 81q3 26 12 41.5t28 22t50 6.5h74l-3 -23h-58q-35 0 -48.5 -11.5t-16.5 -40.5l-8 -76h87l-7 -23h-82l-57 -535q-4 -45 -22.5 -64.5t-60.5 -19.5h-65z" />
    <glyph glyph-name="Ohorn" unicode="&#x1a0;" horiz-adv-x="379" 
d="M189 -3q-66 0 -101.5 24t-35.5 69v448q0 38 32 64.5t105 25.5t105 -26.5t32 -64.5v-446q0 -45 -34.5 -69.5t-102.5 -24.5zM189 29q52 0 75.5 20.5t23.5 49.5v430q0 25 -21 46t-80 21q-55 0 -76 -20.5t-21 -45.5v-431q0 -30 24 -50t75 -20zM256 603l-3 17q35 0 47.5 12
t11.5 38h24q0 -37 -18 -52t-62 -15z" />
    <glyph glyph-name="ohorn" unicode="&#x1a1;" horiz-adv-x="383" 
d="M184 -4q-54 0 -82 16t-38 40.5t-10 48.5v269q0 25 10 49t39.5 40t87.5 16q57 0 86 -16t40 -40t11 -49v-255q0 -31 -11.5 -58.5t-42.5 -44t-90 -16.5zM184 27q50 0 78 21t28 68v248q0 41 -27 61t-72 20q-44 0 -71.5 -19.5t-27.5 -61.5v-256q0 -42 27 -61.5t65 -19.5z
M247 453l-3 17q35 0 47.5 12t11.5 38h24q0 -37 -18 -52t-62 -15z" />
    <glyph glyph-name="Uhorn" unicode="&#x1af;" horiz-adv-x="390" 
d="M195 -5q-37 0 -68 9t-49.5 29.5t-18.5 55.5v531h39v-517q0 -20 8 -37.5t28.5 -28.5t60.5 -11q42 0 63 11t28 28.5t7 37.5v517h38v-531q0 -35 -17.5 -55.5t-48 -29.5t-70.5 -9zM311 603l-3 17q35 0 47.5 12t11.5 38h24q0 -37 -18 -52t-62 -15z" />
    <glyph glyph-name="uhorn" unicode="&#x1b0;" 
d="M182 0q-53 0 -79.5 15.5t-35 37.5t-8.5 44v373h38v-358q0 -44 27 -62.5t72 -18.5h99v439h38v-470h-151zM312 453l-3 17q35 0 47.5 12t11.5 38h24q0 -37 -18 -52t-62 -15z" />
    <glyph glyph-name="uni01C4" unicode="&#x1c4;" horiz-adv-x="679" 
d="M428 773h29l76 -67l77 67h27l-84 -87h-41zM63 620h187q47 0 66 -25t19 -72v-425q0 -53 -17 -75.5t-75 -22.5h-180v620zM222 31q44 0 59.5 15.5t15.5 61.5v405q0 39 -17 57.5t-48 18.5h-131v-558h121zM401 0l201 589h-185v31h234l-201 -589h208v-31h-257z" />
    <glyph glyph-name="uni01C5" unicode="&#x1c5;" horiz-adv-x="675" 
d="M426 623h29l77 -67l77 67h27l-84 -87h-42zM63 620h187q47 0 66 -25t19 -72v-425q0 -53 -17 -75.5t-75 -22.5h-180v620zM222 31q44 0 59.5 15.5t15.5 61.5v405q0 39 -17 57.5t-48 18.5h-131v-558h121zM410 9l194 430h-192l9 31h225v-22l-188 -417h197l-15 -31h-230v9z" />
    <glyph glyph-name="uni01C6" unicode="&#x1c6;" horiz-adv-x="683" 
d="M435 623h29l76 -67l77 67h27l-84 -87h-41zM132 0q-31 0 -47 6.5t-21.5 28.5t-5.5 69v278q0 37 7.5 56t28.5 25.5t63 6.5h137v160h38v-630h-200zM294 31v408h-137q-38 0 -49.5 -10.5t-11.5 -47.5v-289q0 -40 11 -50.5t40 -10.5h147zM418 9l194 430h-192l9 31h225v-22
l-188 -417h197l-15 -31h-230v9z" />
    <glyph glyph-name="uni01C7" unicode="&#x1c7;" horiz-adv-x="508" 
d="M63 620h39v-590h204v-30h-243v620zM328 0l-7 31h51q19 0 27 5t9.5 20t1.5 46v518h38v-527q0 -40 -3 -60.5t-18 -26.5t-50 -6h-49z" />
    <glyph glyph-name="uni01C8" unicode="&#x1c8;" horiz-adv-x="494" 
d="M63 620h39v-590h204v-30h-243v620zM280 -172l-6 31h72q29 0 37.5 15t8.5 47v549h38v-558q0 -45 -15.5 -64.5t-57.5 -19.5h-77zM411 540q-15 0 -19.5 4t-4.5 17t4.5 17.5t19.5 4.5q16 0 20 -4.5t4 -17.5t-4 -17t-20 -4z" />
    <glyph glyph-name="uni01C9" unicode="&#x1c9;" horiz-adv-x="338" 
d="M64 629h38v-629h-38v629zM125 -172l-6 31h72q29 0 37.5 15t8.5 47v549h38v-558q0 -45 -15.5 -64.5t-57.5 -19.5h-77zM256 540q-15 0 -19.5 4t-4.5 17t4.5 17.5t19.5 4.5q16 0 20 -4.5t4 -17.5t-4 -17t-20 -4z" />
    <glyph glyph-name="uni01CA" unicode="&#x1ca;" horiz-adv-x="591" 
d="M63 0v620h39l199 -533l1 -5l1 -2v540h39v-620h-42l-196 517l-2 7h-1v-524h-38zM412 0l-7 31h51q19 0 27 5t9.5 20t1.5 46v518h38v-527q0 -40 -3 -60.5t-18 -26.5t-50 -6h-49z" />
    <glyph glyph-name="uni01CB" unicode="&#x1cb;" horiz-adv-x="578" 
d="M63 0v620h39l199 -533l1 -5l1 -2v540h39v-620h-42l-196 517l-2 7h-1v-524h-38zM364 -172l-6 31h72q29 0 37.5 15t8.5 47v549h38v-558q0 -45 -15.5 -64.5t-57.5 -19.5h-77zM495 540q-15 0 -19.5 4t-4.5 17t4.5 17.5t19.5 4.5q16 0 20 -4.5t4 -17.5t-4 -17t-20 -4z" />
    <glyph glyph-name="uni01CC" unicode="&#x1cc;" horiz-adv-x="568" 
d="M64 472h30l4 -49q16 24 44.5 39t71.5 15q62 0 92.5 -26t30.5 -77v-374h-38v362q0 44 -27 63.5t-72 19.5q-38 0 -61 -15t-37 -38v-392h-38v472zM354 -172l-6 31h72q29 0 37.5 15t8.5 47v549h38v-558q0 -45 -15.5 -64.5t-57.5 -19.5h-77zM485 540q-15 0 -19.5 4t-4.5 17
t4.5 17.5t19.5 4.5q16 0 20 -4.5t4 -17.5t-4 -17t-20 -4z" />
    <glyph glyph-name="uni01CD" unicode="&#x1cd;" horiz-adv-x="372" 
d="M79 773h29l77 -67l77 67h27l-84 -87h-42zM21 0l131 620h68l129 -620h-40l-32 154l9 -8h-203l8 8l-31 -154h-39zM92 172l-4 6h194l-6 -6l-79 400l-2 5h-19l-2 -5z" />
    <glyph glyph-name="uni01CE" unicode="&#x1ce;" 
d="M93 623h29l77 -67l77 67h27l-84 -87h-41zM130 0q-35 0 -50 9.5t-18.5 37t-3.5 79.5v255q0 39 8 58t30.5 25t67.5 6h168v-470h-38v439h-140q-30 0 -42 -8t-14 -25.5t-2 -49.5v-246q0 -32 3 -49t14 -23.5t33 -6.5h114l-5 -31h-125z" />
    <glyph glyph-name="uni01CF" unicode="&#x1cf;" horiz-adv-x="165" 
d="M-23 773h29l76 -67l77 67h27l-84 -87h-41zM63 620h39v-620h-39v620z" />
    <glyph glyph-name="uni01D0" unicode="&#x1d0;" horiz-adv-x="166" 
d="M-23 623h29l77 -67l77 67h27l-84 -87h-42zM64 470h38v-470h-38v470z" />
    <glyph glyph-name="uni01D1" unicode="&#x1d1;" horiz-adv-x="379" 
d="M84 773h29l76 -67l77 67h27l-84 -87h-41zM189 -3q-66 0 -101.5 24t-35.5 69v448q0 38 32 64.5t105 25.5t105 -26.5t32 -64.5v-446q0 -45 -34.5 -69.5t-102.5 -24.5zM189 29q52 0 75.5 20.5t23.5 49.5v430q0 25 -21 46t-80 21q-55 0 -76 -20.5t-21 -45.5v-431
q0 -30 24 -50t75 -20z" />
    <glyph glyph-name="uni01D2" unicode="&#x1d2;" horiz-adv-x="383" 
d="M85 623h30l76 -67l77 67h27l-84 -87h-41zM184 -4q-54 0 -82 16t-38 40.5t-10 48.5v269q0 25 10 49t39.5 40t87.5 16q57 0 86 -16t40 -40t11 -49v-255q0 -31 -11.5 -58.5t-42.5 -44t-90 -16.5zM184 27q50 0 78 21t28 68v248q0 41 -27 61t-72 20q-44 0 -71.5 -19.5
t-27.5 -61.5v-256q0 -42 27 -61.5t65 -19.5z" />
    <glyph glyph-name="uni01D3" unicode="&#x1d3;" horiz-adv-x="390" 
d="M89 773h29l77 -67l77 67h27l-84 -87h-41zM195 -5q-37 0 -68 9t-49.5 29.5t-18.5 55.5v531h39v-517q0 -20 8 -37.5t28.5 -28.5t60.5 -11q42 0 63 11t28 28.5t7 37.5v517h38v-531q0 -35 -17.5 -55.5t-48 -29.5t-70.5 -9z" />
    <glyph glyph-name="uni01D4" unicode="&#x1d4;" 
d="M92 623h29l77 -67l76 67h28l-84 -87h-42zM182 0q-53 0 -79.5 15.5t-35 37.5t-8.5 44v373h38v-358q0 -44 27 -62.5t72 -18.5h99v439h38v-470h-151z" />
    <glyph glyph-name="uni01D5" unicode="&#x1d5;" horiz-adv-x="390" 
d="M195 -5q-37 0 -68 9t-49.5 29.5t-18.5 55.5v531h39v-517q0 -20 8 -37.5t28.5 -28.5t60.5 -11q42 0 63 11t28 28.5t7 37.5v517h38v-531q0 -35 -17.5 -55.5t-48 -29.5t-70.5 -9zM240 682q-14 0 -17 5.5t-3 15.5q0 11 3 16.5t17 5.5q16 0 19 -5.5t3 -16.5q0 -10 -3 -15.5
t-19 -5.5zM147 682q-15 0 -17.5 5.5t-2.5 15.5q0 11 2.5 16.5t17.5 5.5q16 0 18.5 -5.5t2.5 -16.5q0 -10 -2.5 -15.5t-18.5 -5.5zM93 750v26h204v-26h-204z" />
    <glyph glyph-name="uni01D6" unicode="&#x1d6;" 
d="M182 0q-53 0 -79.5 15.5t-35 37.5t-8.5 44v373h38v-358q0 -44 27 -62.5t72 -18.5h99v439h38v-470h-151zM243 532q-14 0 -17 5.5t-3 15.5q0 11 3 16.5t17 5.5q16 0 19 -5.5t3 -16.5q0 -10 -3 -15.5t-19 -5.5zM150 532q-15 0 -17.5 5.5t-2.5 15.5q0 11 2.5 16.5t17.5 5.5
q16 0 18.5 -5.5t2.5 -16.5q0 -10 -2.5 -15.5t-18.5 -5.5zM95 600v26h204v-26h-204z" />
    <glyph glyph-name="uni01D7" unicode="&#x1d7;" horiz-adv-x="390" 
d="M195 -5q-37 0 -68 9t-49.5 29.5t-18.5 55.5v531h39v-517q0 -20 8 -37.5t28.5 -28.5t60.5 -11q42 0 63 11t28 28.5t7 37.5v517h38v-531q0 -35 -17.5 -55.5t-48 -29.5t-70.5 -9zM240 682q-14 0 -17 5.5t-3 15.5q0 11 3 16.5t17 5.5q16 0 19 -5.5t3 -16.5q0 -10 -3 -15.5
t-19 -5.5zM147 682q-15 0 -17.5 5.5t-2.5 15.5q0 11 2.5 16.5t17.5 5.5q16 0 18.5 -5.5t2.5 -16.5q0 -10 -2.5 -15.5t-18.5 -5.5zM151 744l94 85h41l-109 -85h-26z" />
    <glyph glyph-name="uni01D8" unicode="&#x1d8;" 
d="M182 0q-53 0 -79.5 15.5t-35 37.5t-8.5 44v373h38v-358q0 -44 27 -62.5t72 -18.5h99v439h38v-470h-151zM243 532q-14 0 -17 5.5t-3 15.5q0 11 3 16.5t17 5.5q16 0 19 -5.5t3 -16.5q0 -10 -3 -15.5t-19 -5.5zM150 532q-15 0 -17.5 5.5t-2.5 15.5q0 11 2.5 16.5t17.5 5.5
q16 0 18.5 -5.5t2.5 -16.5q0 -10 -2.5 -15.5t-18.5 -5.5zM154 594l86 93h40l-100 -93h-26z" />
    <glyph glyph-name="uni01D9" unicode="&#x1d9;" horiz-adv-x="390" 
d="M89 831h29l77 -67l77 67h27l-84 -88h-41zM195 -5q-37 0 -68 9t-49.5 29.5t-18.5 55.5v531h39v-517q0 -20 8 -37.5t28.5 -28.5t60.5 -11q42 0 63 11t28 28.5t7 37.5v517h38v-531q0 -35 -17.5 -55.5t-48 -29.5t-70.5 -9zM240 682q-14 0 -16.5 5.5t-2.5 15.5q0 11 2.5 16.5
t16.5 5.5q17 0 19.5 -5.5t2.5 -16.5q0 -10 -2.5 -15.5t-19.5 -5.5zM148 682q-16 0 -18.5 5.5t-2.5 15.5q0 11 2.5 16.5t18.5 5.5q15 0 18 -5.5t3 -16.5q0 -10 -3 -15.5t-18 -5.5z" />
    <glyph glyph-name="uni01DA" unicode="&#x1da;" 
d="M92 681h29l77 -67l76 67h28l-84 -88h-42zM182 0q-53 0 -79.5 15.5t-35 37.5t-8.5 44v373h38v-358q0 -44 27 -62.5t72 -18.5h99v439h38v-470h-151zM243 532q-15 0 -17.5 5.5t-2.5 15.5q0 11 2.5 16.5t17.5 5.5q16 0 19 -5.5t3 -16.5q0 -10 -3 -15.5t-19 -5.5zM150 532
q-15 0 -17.5 5.5t-2.5 15.5q0 11 2.5 16.5t17.5 5.5q16 0 18.5 -5.5t2.5 -16.5q0 -10 -2.5 -15.5t-18.5 -5.5z" />
    <glyph glyph-name="uni01DB" unicode="&#x1db;" horiz-adv-x="390" 
d="M195 -5q-37 0 -68 9t-49.5 29.5t-18.5 55.5v531h39v-517q0 -20 8 -37.5t28.5 -28.5t60.5 -11q42 0 63 11t28 28.5t7 37.5v517h38v-531q0 -35 -17.5 -55.5t-48 -29.5t-70.5 -9zM240 682q-14 0 -17 5.5t-3 15.5q0 11 3 16.5t17 5.5q16 0 19 -5.5t3 -16.5q0 -10 -3 -15.5
t-19 -5.5zM147 682q-15 0 -17.5 5.5t-2.5 15.5q0 11 2.5 16.5t17.5 5.5q16 0 18.5 -5.5t2.5 -16.5q0 -10 -2.5 -15.5t-18.5 -5.5zM197 744l-109 85h41l94 -85h-26z" />
    <glyph glyph-name="uni01DC" unicode="&#x1dc;" 
d="M182 0q-53 0 -79.5 15.5t-35 37.5t-8.5 44v373h38v-358q0 -44 27 -62.5t72 -18.5h99v439h38v-470h-151zM243 532q-14 0 -17 5.5t-3 15.5q0 11 3 16.5t17 5.5q16 0 19 -5.5t3 -16.5q0 -10 -3 -15.5t-19 -5.5zM150 532q-15 0 -17.5 5.5t-2.5 15.5q0 11 2.5 16.5t17.5 5.5
q16 0 18.5 -5.5t2.5 -16.5q0 -10 -2.5 -15.5t-18.5 -5.5zM199 594l-100 93h41l85 -93h-26z" />
    <glyph glyph-name="Gcaron" unicode="&#x1e6;" horiz-adv-x="376" 
d="M82 773h29l76 -67l77 67h27l-84 -87h-41zM193 -3q-44 0 -75.5 7t-48.5 26.5t-17 56.5v449q0 53 37.5 70.5t103.5 17.5q65 0 99.5 -18t34.5 -71v-109l-39 -5v108q0 39 -25 51t-70 12t-73.5 -10.5t-28.5 -51.5v-438q0 -29 13 -42t36 -17t53 -4q28 0 49.5 4t34 17t12.5 42
v208h-120l5 33h153v-246q0 -37 -15.5 -56.5t-45.5 -26.5t-73 -7z" />
    <glyph glyph-name="gcaron" unicode="&#x1e7;" 
d="M92 623h29l77 -67l77 67h27l-84 -87h-42zM113 -172l-6 31h140q30 0 38.5 15t8.5 47v518h-140q-30 0 -42 -8t-14 -25.5t-2 -49.5v-246q0 -32 3 -49t14 -23.5t33 -6.5h114l-5 -31h-125q-35 0 -50 9.5t-18.5 37t-3.5 79.5v255q0 39 8 58t30.5 25t67.5 6h168v-558
q0 -45 -16 -64.5t-58 -19.5h-145z" />
    <glyph glyph-name="uni01EA" unicode="&#x1ea;" horiz-adv-x="379" 
d="M189 -3q-66 0 -101.5 24t-35.5 69v448q0 38 32 64.5t105 25.5t105 -26.5t32 -64.5v-446q0 -45 -34.5 -69.5t-102.5 -24.5zM189 29q52 0 75.5 20.5t23.5 49.5v430q0 25 -21 46t-80 21q-55 0 -76 -20.5t-21 -45.5v-431q0 -30 24 -50t75 -20zM201 -161q-30 0 -48.5 20.5
t-18.5 52.5q0 26 21.5 54.5t68.5 43.5l23 -4q-36 -15 -60 -36.5t-24 -53.5q0 -22 14 -38t35 -16q17 0 30 4t27 17l5 -21q-19 -13 -36 -18t-37 -5z" />
    <glyph glyph-name="uni01EB" unicode="&#x1eb;" horiz-adv-x="383" 
d="M184 -4q-54 0 -82 16t-38 40.5t-10 48.5v269q0 25 10 49t39.5 40t87.5 16q57 0 86 -16t40 -40t11 -49v-255q0 -31 -11.5 -58.5t-42.5 -44t-90 -16.5zM184 27q50 0 78 21t28 68v248q0 41 -27 61t-72 20q-44 0 -71.5 -19.5t-27.5 -61.5v-256q0 -42 27 -61.5t65 -19.5z
M223 -161q-30 0 -48.5 20.5t-18.5 52.5q0 26 21.5 54.5t68.5 43.5l23 -4q-36 -15 -60 -36.5t-24 -53.5q0 -22 14 -38t35 -16q17 0 30 4t27 17l5 -21q-19 -13 -36 -18t-37 -5z" />
    <glyph glyph-name="Aringacute" unicode="&#x1fa;" horiz-adv-x="372" 
d="M21 0l131 620h68l129 -620h-40l-32 154l9 -8h-203l8 8l-31 -154h-39zM92 172l-4 6h194l-6 -6l-79 400l-2 5h-19l-2 -5zM185 680q-31 0 -51.5 20t-20.5 47q0 28 20.5 48t51.5 20q29 0 49.5 -20t20.5 -48q0 -27 -20.5 -47t-49.5 -20zM185 698q20 0 35 14.5t15 33.5
q0 21 -15 36t-35 15q-22 0 -37 -15t-15 -36q0 -19 15 -33.5t37 -14.5zM141 836l94 85h41l-109 -85h-26z" />
    <glyph glyph-name="aringacute" unicode="&#x1fb;" 
d="M130 0q-35 0 -50 9.5t-18.5 37t-3.5 79.5v255q0 39 8 58t30.5 25t67.5 6h168v-470h-38v439h-140q-30 0 -42 -8t-14 -25.5t-2 -49.5v-246q0 -32 3 -49t14 -23.5t33 -6.5h114l-5 -31h-125zM199 530q-31 0 -51.5 20t-20.5 47q0 28 20.5 48t51.5 20q29 0 49.5 -20t20.5 -48
q0 -27 -20.5 -47t-49.5 -20zM199 548q20 0 35 14.5t15 33.5q0 21 -15 36t-35 15q-22 0 -37 -15t-15 -36q0 -19 15 -33.5t37 -14.5zM155 686l86 93h40l-100 -93h-26z" />
    <glyph glyph-name="AEacute" unicode="&#x1fc;" horiz-adv-x="574" 
d="M268 620h275v-31h-235v-223h219l-7 -30h-212v-306h235v-30h-275v620zM68 146v32h213v-32h-213zM20 0l143 620h34l-138 -620h-39zM169 589v31h111v-31h-111zM244 686l86 93h40l-100 -93h-26z" />
    <glyph glyph-name="aeacute" unicode="&#x1fd;" horiz-adv-x="581" 
d="M130 0q-35 0 -50 9.5t-18.5 37t-3.5 79.5v255q0 39 8 58t30.5 25t67.5 6h168v-470h-38v439h-140q-30 0 -42 -8t-14 -25.5t-2 -49.5v-246q0 -32 3 -49t14 -23.5t33 -6.5h114l-5 -31h-125zM421 -1q-54 0 -82 16t-38 40.5t-10 48.5v269q0 25 10 49t39.5 40t87.5 16
q57 0 86 -16t40 -40t11 -49v-118l-38 -2v114q0 41 -27 61t-72 20q-44 0 -71.5 -19.5t-27.5 -61.5v-256q0 -42 27 -61.5t65 -19.5q50 0 78 21t28 68v53l38 5v-59q0 -31 -11.5 -58.5t-42.5 -44t-90 -16.5zM299 236v23h266v-23h-266zM246 536l86 93h40l-100 -93h-26z" />
    <glyph glyph-name="Oslashacute" unicode="&#x1fe;" horiz-adv-x="376" 
d="M187 -3q-65 0 -100.5 24t-35.5 69v445q0 43 32 68.5t103 24.5q73 -1 106 -26t33 -68v-443q0 -45 -36.5 -69.5t-101.5 -24.5zM186 29q53 0 77 20.5t24 49.5v426q0 18 -9 34.5t-31 26t-63 9.5q-55 0 -75 -21.5t-20 -47.5v-428q0 -28 23.5 -48.5t73.5 -20.5zM61 -44l225 677
h21l-227 -677h-19zM145 686l94 85h41l-109 -85h-26z" />
    <glyph glyph-name="oslashacute" unicode="&#x1ff;" horiz-adv-x="351" 
d="M169 -4q-54 0 -81.5 16t-37.5 40.5t-10 48.5v267q0 25 10 49t39.5 40t87.5 16q57 0 86 -15.5t39.5 -39.5t10.5 -49v-254q0 -31 -10.5 -58.5t-42 -44t-91.5 -16.5zM169 27q50 0 78 21t28 68v246q0 42 -27 62t-71 20q-43 0 -71 -19.5t-28 -62.5v-254q0 -42 27 -61.5
t64 -19.5zM20 -98l-14 2l326 668l15 -1zM133 536l86 93h40l-100 -93h-26z" />
    <glyph glyph-name="uni0200" unicode="&#x200;" horiz-adv-x="372" 
d="M21 0l131 620h68l129 -620h-40l-32 154l9 -8h-203l8 8l-31 -154h-39zM92 172l-4 6h194l-6 -6l-79 400l-2 5h-19l-2 -5zM136 686l-100 93h41l85 -93h-26zM208 686l-100 93h41l85 -93h-26z" />
    <glyph glyph-name="uni0201" unicode="&#x201;" 
d="M130 0q-35 0 -50 9.5t-18.5 37t-3.5 79.5v255q0 39 8 58t30.5 25t67.5 6h168v-470h-38v439h-140q-30 0 -42 -8t-14 -25.5t-2 -49.5v-246q0 -32 3 -49t14 -23.5t33 -6.5h114l-5 -31h-125zM150 536l-100 93h41l85 -93h-26zM222 536l-100 93h41l85 -93h-26z" />
    <glyph glyph-name="uni0202" unicode="&#x202;" horiz-adv-x="372" 
d="M183 770q52 0 74 -26.5t22 -62.5h-25q0 28 -16 47t-55 19q-37 0 -52 -20t-15 -46h-25q0 19 7.5 40t27.5 35t57 14zM21 0l131 620h68l129 -620h-40l-32 154l9 -8h-203l8 8l-31 -154h-39zM92 172l-4 6h194l-6 -6l-79 400l-2 5h-19l-2 -5z" />
    <glyph glyph-name="uni0203" unicode="&#x203;" 
d="M197 620q52 0 74 -26.5t22 -62.5h-25q0 28 -15.5 47t-55.5 19q-37 0 -51.5 -20t-14.5 -46h-25q0 19 7 40t27 35t57 14zM130 0q-35 0 -50 9.5t-18.5 37t-3.5 79.5v255q0 39 8 58t30.5 25t67.5 6h168v-470h-38v439h-140q-30 0 -42 -8t-14 -25.5t-2 -49.5v-246q0 -32 3 -49
t14 -23.5t33 -6.5h114l-5 -31h-125z" />
    <glyph glyph-name="uni0204" unicode="&#x204;" horiz-adv-x="365" 
d="M63 620h270v-31h-231v-223h215l-7 -30h-208v-306h231v-30h-270v620zM135 686l-100 93h41l85 -93h-26zM207 686l-100 93h41l85 -93h-26z" />
    <glyph glyph-name="uni0205" unicode="&#x205;" horiz-adv-x="383" 
d="M184 -4q-54 0 -82 16t-38 40.5t-10 48.5v269q0 25 10 49t39.5 40t87.5 16q57 0 86 -16t40 -40t11 -49v-118l-38 -2v114q0 41 -27 61t-72 20q-44 0 -71.5 -19.5t-27.5 -61.5v-256q0 -42 27 -61.5t65 -19.5q50 0 78 21t28 68v53l38 5v-59q0 -31 -11.5 -58.5t-42.5 -44
t-90 -16.5zM62 233v23h266v-23h-266zM142 536l-100 93h41l85 -93h-26zM214 536l-100 93h41l85 -93h-26z" />
    <glyph glyph-name="uni0206" unicode="&#x206;" horiz-adv-x="365" 
d="M182 770q52 0 74 -26.5t22 -62.5h-25q0 28 -15.5 47t-55.5 19q-37 0 -51.5 -20t-14.5 -46h-25q0 19 7 40t27 35t57 14zM63 620h270v-31h-231v-223h215l-7 -30h-208v-306h231v-30h-270v620z" />
    <glyph glyph-name="uni0207" unicode="&#x207;" horiz-adv-x="383" 
d="M189 620q52 0 74 -26.5t22 -62.5h-25q0 28 -15.5 47t-55.5 19q-37 0 -51.5 -20t-14.5 -46h-25q0 19 7 40t27 35t57 14zM184 -4q-54 0 -82 16t-38 40.5t-10 48.5v269q0 25 10 49t39.5 40t87.5 16q57 0 86 -16t40 -40t11 -49v-118l-38 -2v114q0 41 -27 61t-72 20
q-44 0 -71.5 -19.5t-27.5 -61.5v-256q0 -42 27 -61.5t65 -19.5q50 0 78 21t28 68v53l38 5v-59q0 -31 -11.5 -58.5t-42.5 -44t-90 -16.5zM62 233v23h266v-23h-266z" />
    <glyph glyph-name="uni0208" unicode="&#x208;" horiz-adv-x="165" 
d="M63 620h39v-620h-39v620zM33 686l-100 93h41l85 -93h-26zM105 686l-100 93h41l85 -93h-26z" />
    <glyph glyph-name="uni0209" unicode="&#x209;" horiz-adv-x="166" 
d="M64 470h38v-470h-38v470zM33 536l-100 93h41l85 -93h-26zM105 536l-100 93h41l85 -93h-26z" />
    <glyph glyph-name="uni020A" unicode="&#x20a;" horiz-adv-x="165" 
d="M80 770q52 0 74 -26.5t22 -62.5h-25q0 28 -15.5 47t-55.5 19q-37 0 -51.5 -20t-14.5 -46h-25q0 19 7 40t27 35t57 14zM63 620h39v-620h-39v620z" />
    <glyph glyph-name="uni020B" unicode="&#x20b;" horiz-adv-x="166" 
d="M80 620q53 0 74.5 -26.5t21.5 -62.5h-25q0 28 -15.5 47t-54.5 19q-37 0 -52 -20t-15 -46h-25q0 19 7 40t27 35t57 14zM64 470h38v-470h-38v470z" />
    <glyph glyph-name="uni020C" unicode="&#x20c;" horiz-adv-x="379" 
d="M189 -3q-66 0 -101.5 24t-35.5 69v448q0 38 32 64.5t105 25.5t105 -26.5t32 -64.5v-446q0 -45 -34.5 -69.5t-102.5 -24.5zM189 29q52 0 75.5 20.5t23.5 49.5v430q0 25 -21 46t-80 21q-55 0 -76 -20.5t-21 -45.5v-431q0 -30 24 -50t75 -20zM140 686l-100 93h41l85 -93h-26
zM212 686l-100 93h41l85 -93h-26z" />
    <glyph glyph-name="uni020D" unicode="&#x20d;" horiz-adv-x="383" 
d="M184 -4q-54 0 -82 16t-38 40.5t-10 48.5v269q0 25 10 49t39.5 40t87.5 16q57 0 86 -16t40 -40t11 -49v-255q0 -31 -11.5 -58.5t-42.5 -44t-90 -16.5zM184 27q50 0 78 21t28 68v248q0 41 -27 61t-72 20q-44 0 -71.5 -19.5t-27.5 -61.5v-256q0 -42 27 -61.5t65 -19.5z
M142 536l-100 93h41l85 -93h-26zM214 536l-100 93h41l85 -93h-26z" />
    <glyph glyph-name="uni020E" unicode="&#x20e;" horiz-adv-x="379" 
d="M187 770q52 0 74 -26.5t22 -62.5h-25q0 28 -15.5 47t-55.5 19q-37 0 -51.5 -20t-14.5 -46h-25q0 19 7 40t27 35t57 14zM189 -3q-66 0 -101.5 24t-35.5 69v448q0 38 32 64.5t105 25.5t105 -26.5t32 -64.5v-446q0 -45 -34.5 -69.5t-102.5 -24.5zM189 29q52 0 75.5 20.5
t23.5 49.5v430q0 25 -21 46t-80 21q-55 0 -76 -20.5t-21 -45.5v-431q0 -30 24 -50t75 -20z" />
    <glyph glyph-name="uni020F" unicode="&#x20f;" horiz-adv-x="383" 
d="M189 620q52 0 74 -26.5t22 -62.5h-25q0 28 -15.5 47t-55.5 19q-37 0 -51.5 -20t-14.5 -46h-25q0 19 7 40t27 35t57 14zM184 -4q-54 0 -82 16t-38 40.5t-10 48.5v269q0 25 10 49t39.5 40t87.5 16q57 0 86 -16t40 -40t11 -49v-255q0 -31 -11.5 -58.5t-42.5 -44t-90 -16.5z
M184 27q50 0 78 21t28 68v248q0 41 -27 61t-72 20q-44 0 -71.5 -19.5t-27.5 -61.5v-256q0 -42 27 -61.5t65 -19.5z" />
    <glyph glyph-name="uni0210" unicode="&#x210;" horiz-adv-x="388" 
d="M63 620h178q43 0 63.5 -10.5t27 -32t6.5 -53.5v-109q0 -36 -6 -67.5t-31 -51t-82 -19.5h-117v-277h-39v620zM323 -12l-115 292l27 4l11 -3l3 -8l110 -271zM212 309q43 0 65.5 21.5t22.5 72.5v108q0 43 -15.5 60.5t-58.5 17.5h-124v-280h110zM136 686l-100 93h41l85 -93
h-26zM208 686l-100 93h41l85 -93h-26z" />
    <glyph glyph-name="uni0211" unicode="&#x211;" horiz-adv-x="269" 
d="M64 0v470h30l4 -49q17 26 43 40t57 14q23 0 35.5 -2.5t24.5 -7.5l-2 -35q-13 7 -26.5 9.5t-33.5 2.5q-34 0 -57 -17t-37 -43v-382h-38zM113 536l-100 93h41l85 -93h-26zM185 536l-100 93h41l85 -93h-26z" />
    <glyph glyph-name="uni0212" unicode="&#x212;" horiz-adv-x="388" 
d="M183 770q52 0 74 -26.5t22 -62.5h-25q0 28 -15.5 47t-55.5 19q-37 0 -51.5 -20t-14.5 -46h-25q0 19 7 40t27 35t57 14zM63 620h178q43 0 63.5 -10.5t27 -32t6.5 -53.5v-109q0 -36 -6 -67.5t-31 -51t-82 -19.5h-117v-277h-39v620zM323 -12l-115 292l27 4l11 -3l3 -8
l110 -271zM212 309q43 0 65.5 21.5t22.5 72.5v108q0 43 -15.5 60.5t-58.5 17.5h-124v-280h110z" />
    <glyph glyph-name="uni0213" unicode="&#x213;" horiz-adv-x="269" 
d="M160 620q53 0 74.5 -26.5t21.5 -62.5h-25q0 28 -15.5 47t-54.5 19q-37 0 -52 -20t-15 -46h-25q0 19 7 40t27 35t57 14zM64 0v470h30l4 -49q17 26 43 40t57 14q23 0 35.5 -2.5t24.5 -7.5l-2 -35q-13 7 -26.5 9.5t-33.5 2.5q-34 0 -57 -17t-37 -43v-382h-38z" />
    <glyph glyph-name="uni0214" unicode="&#x214;" horiz-adv-x="390" 
d="M195 -5q-37 0 -68 9t-49.5 29.5t-18.5 55.5v531h39v-517q0 -20 8 -37.5t28.5 -28.5t60.5 -11q42 0 63 11t28 28.5t7 37.5v517h38v-531q0 -35 -17.5 -55.5t-48 -29.5t-70.5 -9zM146 686l-100 93h41l85 -93h-26zM218 686l-100 93h41l85 -93h-26z" />
    <glyph glyph-name="uni0215" unicode="&#x215;" 
d="M182 0q-53 0 -79.5 15.5t-35 37.5t-8.5 44v373h38v-358q0 -44 27 -62.5t72 -18.5h99v439h38v-470h-151zM148 536l-100 93h41l85 -93h-26zM220 536l-100 93h41l85 -93h-26z" />
    <glyph glyph-name="uni0216" unicode="&#x216;" horiz-adv-x="390" 
d="M193 770q52 0 74 -26.5t22 -62.5h-25q0 28 -15.5 47t-55.5 19q-37 0 -51.5 -20t-14.5 -46h-25q0 19 7 40t27 35t57 14zM195 -5q-37 0 -68 9t-49.5 29.5t-18.5 55.5v531h39v-517q0 -20 8 -37.5t28.5 -28.5t60.5 -11q42 0 63 11t28 28.5t7 37.5v517h38v-531
q0 -35 -17.5 -55.5t-48 -29.5t-70.5 -9z" />
    <glyph glyph-name="uni0217" unicode="&#x217;" 
d="M195 620q53 0 74.5 -26.5t21.5 -62.5h-25q0 28 -15.5 47t-54.5 19q-37 0 -52 -20t-15 -46h-25q0 19 7 40t27 35t57 14zM182 0q-53 0 -79.5 15.5t-35 37.5t-8.5 44v373h38v-358q0 -44 27 -62.5t72 -18.5h99v439h38v-470h-151z" />
    <glyph glyph-name="uni0218" unicode="&#x218;" horiz-adv-x="367" 
d="M189 -3q-42 1 -74.5 7.5t-50.5 23.5t-18 49v126l38 7v-121q0 -29 22.5 -45t80.5 -16q39 0 59.5 8t27.5 25.5t7 46.5v96q0 39 -18.5 60.5t-53.5 31.5l-79 22q-45 13 -64.5 34.5t-19.5 65.5v106q0 43 17.5 64t49.5 28t76 7q42 0 71 -7t44.5 -24t15.5 -49v-127l-39 -8v120
q0 34 -18.5 49.5t-75.5 15.5q-58 0 -80.5 -18.5t-22.5 -62.5v-90q0 -34 20 -52t49 -26l82 -23q46 -13 65.5 -37.5t19.5 -69.5v-115q0 -44 -15 -65.5t-44 -28.5t-72 -8zM155 -156q13 19 21.5 39t8.5 41q-13 0 -16 4t-3 9q0 9 2.5 13t19.5 4q14 0 16.5 -4t2.5 -12
q0 -16 -4 -34t-11.5 -33.5t-16.5 -26.5h-20z" />
    <glyph glyph-name="uni0219" unicode="&#x219;" horiz-adv-x="362" 
d="M177 -6q-69 0 -99 29.5t-30 82.5v69l35 6v-74q0 -21 7.5 -40.5t28 -32t58.5 -12.5q47 0 74 16.5t27 68.5q0 43 -14 64.5t-52 38.5q-6 3 -20.5 9t-31.5 12.5t-30.5 12.5t-19.5 9q-23 12 -36.5 25t-19.5 31.5t-6 45.5v11q0 56 32.5 82.5t102.5 26.5t100 -25t30 -81v-73
l-35 -5v74q0 48 -25 65t-71 17t-66.5 -14t-26.5 -33.5t-6 -36.5q0 -38 9.5 -54t36.5 -31q14 -7 33.5 -15t39 -15.5t32.5 -13.5q46 -22 62.5 -46t16.5 -71v-8q0 -57 -29 -86t-107 -29zM153 -156q13 19 21.5 39t8.5 41q-13 0 -16 4t-3 9q0 9 2.5 13t19.5 4q14 0 16.5 -4
t2.5 -12q0 -16 -4 -34t-11.5 -33.5t-16.5 -26.5h-20z" />
    <glyph glyph-name="uni021A" unicode="&#x21a;" horiz-adv-x="303" 
d="M131 589h-111v31h263v-31h-113v-589h-39v589zM123 -156q13 19 21.5 39t8.5 41q-13 0 -16 4t-3 9q0 9 2.5 13t19.5 4q14 0 16.5 -4t2.5 -12q0 -16 -4 -34t-11.5 -33.5t-16.5 -26.5h-20z" />
    <glyph glyph-name="uni021B" unicode="&#x21b;" horiz-adv-x="211" 
d="M161 0q-38 0 -59.5 10t-30.5 32.5t-9 59.5v339h-33v29h38l6 88h27v-88h85l-8 -29h-77v-335q0 -45 18.5 -60t52.5 -15h28v-31h-38zM119 -156q13 19 21.5 39t8.5 41q-13 0 -16 4t-3 9q0 9 2.5 13t19.5 4q14 0 16.5 -4t2.5 -12q0 -16 -4 -34t-11.5 -33.5t-16.5 -26.5h-20z
" />
    <glyph glyph-name="uni022A" unicode="&#x22a;" horiz-adv-x="379" 
d="M189 -3q-66 0 -101.5 24t-35.5 69v448q0 38 32 64.5t105 25.5t105 -26.5t32 -64.5v-446q0 -45 -34.5 -69.5t-102.5 -24.5zM189 29q52 0 75.5 20.5t23.5 49.5v430q0 25 -21 46t-80 21q-55 0 -76 -20.5t-21 -45.5v-431q0 -30 24 -50t75 -20zM235 682q-14 0 -17 5.5t-3 15.5
q0 11 3 16.5t17 5.5q16 0 19 -5.5t3 -16.5q0 -10 -3 -15.5t-19 -5.5zM142 682q-15 0 -17.5 5.5t-2.5 15.5q0 11 2.5 16.5t17.5 5.5q16 0 18.5 -5.5t2.5 -16.5q0 -10 -2.5 -15.5t-18.5 -5.5zM87 750v26h204v-26h-204z" />
    <glyph glyph-name="uni022B" unicode="&#x22b;" horiz-adv-x="383" 
d="M184 -4q-54 0 -82 16t-38 40.5t-10 48.5v269q0 25 10 49t39.5 40t87.5 16q57 0 86 -16t40 -40t11 -49v-255q0 -31 -11.5 -58.5t-42.5 -44t-90 -16.5zM184 27q50 0 78 21t28 68v248q0 41 -27 61t-72 20q-44 0 -71.5 -19.5t-27.5 -61.5v-256q0 -42 27 -61.5t65 -19.5z
M236 532q-14 0 -17 5.5t-3 15.5q0 11 3 16.5t17 5.5q16 0 19 -5.5t3 -16.5q0 -10 -3 -15.5t-19 -5.5zM143 532q-15 0 -17.5 5.5t-2.5 15.5q0 11 2.5 16.5t17.5 5.5q16 0 18.5 -5.5t2.5 -16.5q0 -10 -2.5 -15.5t-18.5 -5.5zM89 600v26h204v-26h-204z" />
    <glyph glyph-name="uni022C" unicode="&#x22c;" horiz-adv-x="379" 
d="M189 -3q-66 0 -101.5 24t-35.5 69v448q0 38 32 64.5t105 25.5t105 -26.5t32 -64.5v-446q0 -45 -34.5 -69.5t-102.5 -24.5zM189 29q52 0 75.5 20.5t23.5 49.5v430q0 25 -21 46t-80 21q-55 0 -76 -20.5t-21 -45.5v-431q0 -30 24 -50t75 -20zM92 680q0 39 14.5 56t36.5 17
q20 0 34 -10.5t27 -22t28 -11.5q21 0 27 15t6 28h21q0 -38 -16 -53t-35 -15q-20 0 -34 11.5t-26.5 22.5t-27.5 11q-17 0 -25 -13t-8 -36h-22zM87 786v26h204v-26h-204z" />
    <glyph glyph-name="uni022D" unicode="&#x22d;" horiz-adv-x="383" 
d="M184 -4q-54 0 -82 16t-38 40.5t-10 48.5v269q0 25 10 49t39.5 40t87.5 16q57 0 86 -16t40 -40t11 -49v-255q0 -31 -11.5 -58.5t-42.5 -44t-90 -16.5zM184 27q50 0 78 21t28 68v248q0 41 -27 61t-72 20q-44 0 -71.5 -19.5t-27.5 -61.5v-256q0 -42 27 -61.5t65 -19.5z
M94 530q0 39 14.5 56t36.5 17q20 0 34 -10.5t27 -22t28 -11.5q21 0 27 15t6 28h21q0 -38 -16 -53t-35 -15q-20 0 -34 11.5t-26.5 22.5t-27.5 11q-17 0 -25 -13t-8 -36h-22zM88 636v26h204v-26h-204z" />
    <glyph glyph-name="uni0230" unicode="&#x230;" horiz-adv-x="379" 
d="M189 -3q-66 0 -101.5 24t-35.5 69v448q0 38 32 64.5t105 25.5t105 -26.5t32 -64.5v-446q0 -45 -34.5 -69.5t-102.5 -24.5zM189 29q52 0 75.5 20.5t23.5 49.5v430q0 25 -21 46t-80 21q-55 0 -76 -20.5t-21 -45.5v-431q0 -30 24 -50t75 -20zM189 683q-16 0 -18.5 5.5
t-2.5 15.5q0 11 2.5 17t17.5 6q16 0 18.5 -6t2.5 -17q0 -10 -2.5 -15.5t-17.5 -5.5zM87 750v26h204v-26h-204z" />
    <glyph glyph-name="uni0231" unicode="&#x231;" horiz-adv-x="383" 
d="M184 -4q-54 0 -82 16t-38 40.5t-10 48.5v269q0 25 10 49t39.5 40t87.5 16q57 0 86 -16t40 -40t11 -49v-255q0 -31 -11.5 -58.5t-42.5 -44t-90 -16.5zM184 27q50 0 78 21t28 68v248q0 41 -27 61t-72 20q-44 0 -71.5 -19.5t-27.5 -61.5v-256q0 -42 27 -61.5t65 -19.5z
M191 533q-16 0 -18.5 5.5t-2.5 15.5q0 11 2.5 17t17.5 6q16 0 18.5 -6t2.5 -17q0 -10 -2.5 -15.5t-17.5 -5.5zM89 600v26h204v-26h-204z" />
    <glyph glyph-name="uni0232" unicode="&#x232;" horiz-adv-x="338" 
d="M149 0v262l-136 358h36l118 -306l2 -12h1l2 12l116 306h37l-138 -358v-262h-38zM66 692v26h204v-26h-204z" />
    <glyph glyph-name="uni0233" unicode="&#x233;" horiz-adv-x="318" 
d="M-6 -170l2 26h35q37 0 59.5 16.5t34.5 66.5l17 66l-127 465h37l107 -403l1 -9h-3l1 9l107 403h38l-146 -540q-15 -54 -39.5 -77t-80.5 -23h-43zM59 542v26h204v-26h-204z" />
    <glyph glyph-name="uni0237" unicode="&#x237;" horiz-adv-x="167" 
d="M-42 -172l-5 31h71q29 0 37.5 15t8.5 47v549h38v-558q0 -45 -15.5 -64.5t-57.5 -19.5h-77z" />
    <glyph glyph-name="uni0259" unicode="&#x259;" horiz-adv-x="344" 
d="M160 474q55 0 82.5 -16t37 -40t9.5 -49v-269q0 -24 -10 -48.5t-39.5 -40.5t-87.5 -16q-55 0 -85 16t-41 40.5t-11 48.5v118l38 2v-114q0 -41 27.5 -61t71.5 -20t71.5 19.5t27.5 61.5v256q0 42 -26.5 61.5t-64.5 19.5q-50 0 -78.5 -21t-28.5 -68v-53l-38 -5v59
q0 32 11.5 59t42.5 43.5t91 16.5zM282 237v-23h-267v23h267z" />
    <glyph glyph-name="uni02B9" unicode="&#x2b9;" horiz-adv-x="54" 
d="M0 452q11 21 17.5 43.5t6.5 45.5q-11 0 -13.5 4t-2.5 10q0 9 2.5 14t15.5 5q12 0 14.5 -4.5t2.5 -13.5q0 -17 -4 -37.5t-9.5 -38t-12.5 -28.5h-17z" />
    <glyph glyph-name="uni02BA" unicode="&#x2ba;" horiz-adv-x="143" 
d="M99 452q11 21 17.5 43.5t6.5 45.5q-11 0 -13 4t-2 10q0 9 2.5 14t15.5 5q12 0 14.5 -4.5t2.5 -13.5q0 -17 -4.5 -37.5t-10 -38t-12.5 -28.5h-17zM0 452q11 21 17.5 43.5t6.5 45.5q-11 0 -13.5 4t-2.5 10q0 9 2.5 14t15.5 5q12 0 14.5 -4.5t2.5 -13.5q0 -17 -4 -37.5
t-9.5 -38t-12.5 -28.5h-17z" />
    <glyph glyph-name="uni02BC" unicode="&#x2bc;" horiz-adv-x="65" 
d="M0 429q14 25 21.5 51.5t7.5 53.5q-13 0 -15.5 5t-2.5 12t1 12.5t5.5 8t14.5 2.5q14 0 17 -5.5t3 -15.5q0 -21 -5 -45t-11.5 -45t-15.5 -34h-20z" />
    <glyph glyph-name="circumflex" unicode="&#x2c6;" horiz-adv-x="213" 
d="M1 536l85 87h41l84 -87h-27l-77 67l-77 -67h-29z" />
    <glyph glyph-name="caron" unicode="&#x2c7;" horiz-adv-x="213" 
d="M1 623h29l77 -67l77 67h27l-84 -87h-41z" />
    <glyph glyph-name="breve" unicode="&#x2d8;" horiz-adv-x="196" 
d="M96 531q-37 0 -57 14t-27.5 34.5t-7.5 40.5h26q0 -26 14.5 -46.5t51.5 -20.5q40 0 55.5 20t15.5 47h25q0 -37 -22 -63t-74 -26z" />
    <glyph glyph-name="dotaccent" unicode="&#x2d9;" horiz-adv-x="41" 
d="M21 533q-16 0 -18.5 5.5t-2.5 15.5q0 11 2.5 17t17.5 6q16 0 18.5 -6t2.5 -17q0 -10 -2.5 -15.5t-17.5 -5.5z" />
    <glyph glyph-name="ring" unicode="&#x2da;" horiz-adv-x="142" 
d="M72 530q-31 0 -51.5 20t-20.5 47q0 28 20.5 48t51.5 20q29 0 49.5 -20t20.5 -48q0 -27 -20.5 -47t-49.5 -20zM72 548q20 0 35 14.5t15 33.5q0 21 -15 36t-35 15q-22 0 -37 -15t-15 -36q0 -19 15 -33.5t37 -14.5z" />
    <glyph glyph-name="ogonek" unicode="&#x2db;" horiz-adv-x="188" 
d="M76 -161q-30 0 -48.5 20.5t-18.5 52.5q0 26 21.5 54.5t68.5 43.5l23 -4q-36 -15 -60 -36.5t-24 -53.5q0 -22 14 -38t35 -16q17 0 30 4t27 17l5 -21q-19 -13 -36 -18t-37 -5z" />
    <glyph glyph-name="tilde" unicode="&#x2dc;" horiz-adv-x="200" 
d="M3 530q0 39 14.5 56t36.5 17q20 0 34 -10.5t27 -22t28 -11.5q21 0 27 15t6 28h21q0 -38 -16 -53t-35 -15q-20 0 -34 11.5t-26.5 22.5t-27.5 11q-17 0 -25 -13t-8 -36h-22z" />
    <glyph glyph-name="hungarumlaut" unicode="&#x2dd;" horiz-adv-x="150" 
d="M0 536l37 93h40l-51 -93h-26zM72 536l37 93h41l-52 -93h-26z" />
    <glyph glyph-name="gravecomb" unicode="&#x300;" horiz-adv-x="0" 
d="M100 536l-100 93h41l85 -93h-26z" />
    <glyph glyph-name="acutecomb" unicode="&#x301;" horiz-adv-x="0" 
d="M0 536l86 93h40l-100 -93h-26z" />
    <glyph glyph-name="uni0302" unicode="&#x302;" horiz-adv-x="0" 
d="M1 536l85 87h41l84 -87h-27l-77 67l-77 -67h-29z" />
    <glyph glyph-name="tildecomb" unicode="&#x303;" horiz-adv-x="0" 
d="M3 530q0 39 14.5 56t36.5 17q20 0 34 -10.5t27 -22t28 -11.5q21 0 27 15t6 28h21q0 -38 -16 -53t-35 -15q-20 0 -34 11.5t-26.5 22.5t-27.5 11q-17 0 -25 -13t-8 -36h-22z" />
    <glyph glyph-name="uni0304" unicode="&#x304;" horiz-adv-x="0" 
d="M0 542v26h204v-26h-204z" />
    <glyph glyph-name="uni0306" unicode="&#x306;" horiz-adv-x="0" 
d="M96 531q-37 0 -57 14t-27.5 34.5t-7.5 40.5h26q0 -26 14.5 -46.5t51.5 -20.5q40 0 55.5 20t15.5 47h25q0 -37 -22 -63t-74 -26z" />
    <glyph glyph-name="uni0307" unicode="&#x307;" horiz-adv-x="0" 
d="M21 533q-16 0 -18.5 5.5t-2.5 15.5q0 11 2.5 17t17.5 6q16 0 18.5 -6t2.5 -17q0 -10 -2.5 -15.5t-17.5 -5.5z" />
    <glyph glyph-name="uni0308" unicode="&#x308;" horiz-adv-x="0" 
d="M133 532q-14 0 -17 5.5t-3 15.5q0 11 3 16.5t17 5.5q16 0 19 -5.5t3 -16.5q0 -10 -3 -15.5t-19 -5.5zM40 532q-15 0 -17.5 5.5t-2.5 15.5q0 11 2.5 16.5t17.5 5.5q16 0 18.5 -5.5t2.5 -16.5q0 -10 -2.5 -15.5t-18.5 -5.5z" />
    <glyph glyph-name="hookabovecomb" unicode="&#x309;" horiz-adv-x="0" 
d="M55 536q0 12 8 20.5t19 16t19.5 17t8.5 23.5q0 16 -13 25.5t-30 9.5q-23 0 -34 -13t-14 -30l-19 7q3 27 21.5 42t50.5 15q30 0 46.5 -15t16.5 -37q0 -20 -8.5 -31.5t-19 -18.5t-18.5 -13.5t-8 -17.5h-26z" />
    <glyph glyph-name="uni030A" unicode="&#x30a;" horiz-adv-x="0" 
d="M72 530q-31 0 -51.5 20t-20.5 47q0 28 20.5 48t51.5 20q29 0 49.5 -20t20.5 -48q0 -27 -20.5 -47t-49.5 -20zM72 548q20 0 35 14.5t15 33.5q0 21 -15 36t-35 15q-22 0 -37 -15t-15 -36q0 -19 15 -33.5t37 -14.5z" />
    <glyph glyph-name="uni030B" unicode="&#x30b;" horiz-adv-x="0" 
d="M0 536l37 93h40l-51 -93h-26zM72 536l37 93h41l-52 -93h-26z" />
    <glyph glyph-name="uni030C" unicode="&#x30c;" horiz-adv-x="0" 
d="M1 623h29l77 -67l77 67h27l-84 -87h-41z" />
    <glyph glyph-name="uni030F" unicode="&#x30f;" horiz-adv-x="0" 
d="M86 536l-100 93h41l85 -93h-26zM158 536l-100 93h41l85 -93h-26z" />
    <glyph glyph-name="uni0311" unicode="&#x311;" horiz-adv-x="0" 
d="M96 620q52 0 74 -26.5t22 -62.5h-25q0 28 -15.5 47t-55.5 19q-37 0 -51.5 -20t-14.5 -46h-26q0 19 7.5 40t27.5 35t57 14z" />
    <glyph glyph-name="uni0312" unicode="&#x312;" horiz-adv-x="0" 
d="M19 536q-12 0 -15.5 3.5t-3.5 11.5q0 15 4.5 33t12.5 34.5t16 26.5h22q-14 -19 -22.5 -38.5t-8.5 -40.5q12 0 14.5 -3t2.5 -8q0 -9 -3 -14t-19 -5z" />
    <glyph glyph-name="uni031B" unicode="&#x31b;" horiz-adv-x="0" 
d="M3 453l-3 17q35 0 47.5 12t11.5 38h24q0 -37 -18 -52t-62 -15z" />
    <glyph glyph-name="dotbelowcomb" unicode="&#x323;" horiz-adv-x="0" 
d="M21 -89q-16 0 -18.5 5.5t-2.5 15.5q0 11 2.5 16.5t17.5 5.5q16 0 18.5 -5.5t2.5 -16.5q0 -10 -2.5 -15.5t-17.5 -5.5z" />
    <glyph glyph-name="uni0324" unicode="&#x324;" horiz-adv-x="0" 
d="M133 -89q-14 0 -17 5.5t-3 15.5q0 11 3 16.5t17 5.5q16 0 19 -5.5t3 -16.5q0 -10 -3 -15.5t-19 -5.5zM40 -89q-15 0 -17.5 5.5t-2.5 15.5q0 11 2.5 16.5t17.5 5.5q16 0 18.5 -5.5t2.5 -16.5q0 -10 -2.5 -15.5t-18.5 -5.5z" />
    <glyph glyph-name="uni0326" unicode="&#x326;" horiz-adv-x="0" 
d="M0 -156q13 19 21.5 39t8.5 41q-13 0 -16 4t-3 9q0 9 2.5 13t19.5 4q14 0 16.5 -4t2.5 -12q0 -16 -4 -34t-11.5 -33.5t-16.5 -26.5h-20z" />
    <glyph glyph-name="uni0327" unicode="&#x327;" horiz-adv-x="0" 
d="M67 -172q-20 0 -36 7.5t-26 16.5l13 17q5 -7 19 -15t28 -8q25 0 39 17.5t14 35.5q0 17 -11 31.5t-37 14.5q-16 0 -29.5 -7t-22.5 -17l-16 14l52 65h20l-43 -53q22 15 46 15q36 0 51.5 -19.5t15.5 -41.5q0 -25 -19.5 -49t-57.5 -24z" />
    <glyph glyph-name="uni0328" unicode="&#x328;" horiz-adv-x="0" 
d="M76 -161q-30 0 -48.5 20.5t-18.5 52.5q0 26 21.5 54.5t68.5 43.5l23 -4q-36 -15 -60 -36.5t-24 -53.5q0 -22 14 -38t35 -16q17 0 30 4t27 17l5 -21q-19 -13 -36 -18t-37 -5z" />
    <glyph glyph-name="uni032E" unicode="&#x32e;" horiz-adv-x="0" 
d="M96 -133q-37 0 -57 14t-27.5 34.5t-7.5 40.5h26q0 -26 14.5 -46.5t51.5 -20.5q40 0 55.5 20t15.5 47h25q0 -37 -22 -63t-74 -26z" />
    <glyph glyph-name="uni0331" unicode="&#x331;" horiz-adv-x="0" 
d="M0 -81v26h225v-26h-225z" />
    <glyph glyph-name="uni0335" unicode="&#x335;" horiz-adv-x="0" 
d="M0 175v21h225v-21h-225z" />
    <glyph glyph-name="uni03A9" unicode="&#x3a9;" horiz-adv-x="586" 
d="M34 31h137q-36 29 -64.5 77.5t-45.5 110t-17 131.5q0 62 7 111.5t32 85t75.5 54.5t137.5 19q68 0 114 -12.5t72.5 -36.5t40 -57.5t17.5 -74.5t4 -88q0 -70 -18.5 -131.5t-48.5 -110t-64 -78.5h139v-31h-166l-6 32q20 15 40.5 45.5t38.5 73t29 92t11 102.5q0 48 -4.5 92
t-23 79t-60 55.5t-116.5 20.5q-73 0 -115.5 -19.5t-62 -53t-24.5 -77.5t-5 -95q0 -45 8.5 -93t25 -91.5t37.5 -77.5t46 -53l-6 -32h-165v31z" />
    <glyph glyph-name="uni03BC" unicode="&#x3bc;" horiz-adv-x="355" 
d="M161 0q-52 0 -78.5 15.5t-35 37.5t-8.5 44v373h38v-358q0 -44 26.5 -62.5t71.5 -18.5h99v439h38v-470h-151zM111 -172q-42 0 -57 19.5t-15 64.5v558h38v-549q0 -32 8.5 -47t36.5 -15h10l-6 -31h-15z" />
    <glyph glyph-name="pi" unicode="&#x3c0;" horiz-adv-x="493" 
d="M138 0v441h-94v29h406v-29h-87v-269h-39v269h-148v-441h-38zM397 0q-42 0 -57.5 20t-15.5 65v385h38v-377q0 -32 9 -47t37 -15h8l-6 -31h-13z" />
    <glyph glyph-name="Wgrave" unicode="&#x1e80;" horiz-adv-x="554" 
d="M141 0l-117 620h40l98 -542l1 -13h1v13l102 509h32l94 -509l1 -13h1l1 13l95 542h39l-114 -620h-42l-89 494v9h-1l-1 -9l-100 -494h-41zM284 686l-109 85h41l94 -85h-26z" />
    <glyph glyph-name="wgrave" unicode="&#x1e81;" horiz-adv-x="548" 
d="M12 470h39l111 -393l94 393h32l97 -390l110 390h38l-132 -470h-27l-101 407l-101 -407h-28zM277 536l-100 93h41l85 -93h-26z" />
    <glyph glyph-name="Wacute" unicode="&#x1e82;" horiz-adv-x="554" 
d="M141 0l-117 620h40l98 -542l1 -13h1v13l102 509h32l94 -509l1 -13h1l1 13l95 542h39l-114 -620h-42l-89 494v9h-1l-1 -9l-100 -494h-41zM239 686l94 85h41l-109 -85h-26z" />
    <glyph glyph-name="wacute" unicode="&#x1e83;" horiz-adv-x="548" 
d="M12 470h39l111 -393l94 393h32l97 -390l110 390h38l-132 -470h-27l-101 407l-101 -407h-28zM231 536l86 93h40l-100 -93h-26z" />
    <glyph glyph-name="Wdieresis" unicode="&#x1e84;" horiz-adv-x="554" 
d="M141 0l-117 620h40l98 -542l1 -13h1v13l102 509h32l94 -509l1 -13h1l1 13l95 542h39l-114 -620h-42l-89 494v9h-1l-1 -9l-100 -494h-41zM328 682q-14 0 -17 5.5t-3 15.5q0 11 3 16.5t17 5.5q16 0 19 -5.5t3 -16.5q0 -10 -3 -15.5t-19 -5.5zM235 682q-15 0 -17.5 5.5
t-2.5 15.5q0 11 2.5 16.5t17.5 5.5q16 0 18.5 -5.5t2.5 -16.5q0 -10 -2.5 -15.5t-18.5 -5.5z" />
    <glyph glyph-name="wdieresis" unicode="&#x1e85;" horiz-adv-x="548" 
d="M12 470h39l111 -393l94 393h32l97 -390l110 390h38l-132 -470h-27l-101 407l-101 -407h-28zM320 532q-14 0 -17 5.5t-3 15.5q0 11 3 16.5t17 5.5q16 0 19 -5.5t3 -16.5q0 -10 -3 -15.5t-19 -5.5zM227 532q-15 0 -17.5 5.5t-2.5 15.5q0 11 2.5 16.5t17.5 5.5
q16 0 18.5 -5.5t2.5 -16.5q0 -10 -2.5 -15.5t-18.5 -5.5z" />
    <glyph glyph-name="uni1E9E" unicode="&#x1e9e;" horiz-adv-x="452" 
d="M263 -6q-69 0 -99 29t-30 86l35 5q0 -25 7.5 -45.5t27.5 -34t59 -13.5q47 0 73.5 16.5t26.5 69.5q0 28 -3.5 46t-15 33.5t-37.5 34.5q-14 8 -35.5 20t-39.5 23q-21 12 -35.5 23.5t-22 28t-7.5 39.5q0 26 10.5 45.5t33.5 41.5l46 40q17 16 25.5 31.5t8.5 35.5
q0 29 -21.5 39t-56.5 10h-35q-48 0 -62.5 -13t-14.5 -51v-534h-38v539q0 47 19.5 64.5t79.5 17.5h64q50 0 76 -15.5t26 -51.5q0 -28 -8.5 -47t-27.5 -37l-54 -49q-16 -17 -25.5 -32t-9.5 -34q0 -20 11 -36t36 -29q20 -11 34 -19t25 -14.5t19 -11.5q31 -20 46.5 -37.5
t20 -38.5t4.5 -53q0 -66 -30.5 -94t-105.5 -28z" />
    <glyph glyph-name="uni1EA0" unicode="&#x1ea0;" horiz-adv-x="372" 
d="M21 0l131 620h68l129 -620h-40l-32 154l9 -8h-203l8 8l-31 -154h-39zM92 172l-4 6h194l-6 -6l-79 400l-2 5h-19l-2 -5zM184 -89q-16 0 -18.5 5.5t-2.5 15.5q0 11 2.5 16.5t17.5 5.5q16 0 18.5 -5.5t2.5 -16.5q0 -10 -2.5 -15.5t-17.5 -5.5z" />
    <glyph glyph-name="uni1EA1" unicode="&#x1ea1;" 
d="M130 0q-35 0 -50 9.5t-18.5 37t-3.5 79.5v255q0 39 8 58t30.5 25t67.5 6h168v-470h-38v439h-140q-30 0 -42 -8t-14 -25.5t-2 -49.5v-246q0 -32 3 -49t14 -23.5t33 -6.5h114l-5 -31h-125zM197 -89q-16 0 -18.5 5.5t-2.5 15.5q0 11 2.5 16.5t17.5 5.5q16 0 18.5 -5.5
t2.5 -16.5q0 -10 -2.5 -15.5t-17.5 -5.5z" />
    <glyph glyph-name="uni1EA2" unicode="&#x1ea2;" horiz-adv-x="372" 
d="M21 0l131 620h68l129 -620h-40l-32 154l9 -8h-203l8 8l-31 -154h-39zM92 172l-4 6h194l-6 -6l-79 400l-2 5h-19l-2 -5zM172 686q0 12 8 20.5t19 16t19.5 17t8.5 23.5q0 16 -13 25.5t-30 9.5q-23 0 -34 -13t-14 -30l-19 7q3 27 21.5 42t50.5 15q30 0 46.5 -15t16.5 -37
q0 -20 -8.5 -31.5t-19 -18.5t-18.5 -13.5t-8 -17.5h-26z" />
    <glyph glyph-name="uni1EA3" unicode="&#x1ea3;" 
d="M130 0q-35 0 -50 9.5t-18.5 37t-3.5 79.5v255q0 39 8 58t30.5 25t67.5 6h168v-470h-38v439h-140q-30 0 -42 -8t-14 -25.5t-2 -49.5v-246q0 -32 3 -49t14 -23.5t33 -6.5h114l-5 -31h-125zM186 536q0 12 8 20.5t19 16t19.5 17t8.5 23.5q0 16 -13 25.5t-30 9.5
q-23 0 -34 -13t-14 -30l-19 7q3 27 21.5 42t50.5 15q30 0 46.5 -15t16.5 -37q0 -20 -8.5 -31.5t-19 -18.5t-18.5 -13.5t-8 -17.5h-26z" />
    <glyph glyph-name="uni1EA4" unicode="&#x1ea4;" horiz-adv-x="372" 
d="M21 0l131 620h68l129 -620h-40l-32 154l9 -8h-203l8 8l-31 -154h-39zM92 172l-4 6h194l-6 -6l-79 400l-2 5h-19l-2 -5zM96 672l68 70h40l67 -70h-27l-59 51l-59 -51h-30zM265 730l69 76h40l-82 -76h-27z" />
    <glyph glyph-name="uni1EA5" unicode="&#x1ea5;" 
d="M130 0q-35 0 -50 9.5t-18.5 37t-3.5 79.5v255q0 39 8 58t30.5 25t67.5 6h168v-470h-38v439h-140q-30 0 -42 -8t-14 -25.5t-2 -49.5v-246q0 -32 3 -49t14 -23.5t33 -6.5h114l-5 -31h-125zM93 536l85 87h41l84 -87h-27l-77 67l-77 -67h-29zM295 610l86 93h40l-100 -93h-26z
" />
    <glyph glyph-name="uni1EA6" unicode="&#x1ea6;" horiz-adv-x="372" 
d="M21 0l131 620h68l129 -620h-40l-32 154l9 -8h-203l8 8l-31 -154h-39zM92 172l-4 6h194l-6 -6l-79 400l-2 5h-19l-2 -5zM96 672l68 70h40l67 -70h-27l-59 51l-59 -51h-30zM288 730l-83 76h38l71 -76h-26z" />
    <glyph glyph-name="uni1EA7" unicode="&#x1ea7;" 
d="M130 0q-35 0 -50 9.5t-18.5 37t-3.5 79.5v255q0 39 8 58t30.5 25t67.5 6h168v-470h-38v439h-140q-30 0 -42 -8t-14 -25.5t-2 -49.5v-246q0 -32 3 -49t14 -23.5t33 -6.5h114l-5 -31h-125zM93 536l85 87h41l84 -87h-27l-77 67l-77 -67h-29zM323 610l-100 93h41l85 -93h-26z
" />
    <glyph glyph-name="uni1EA8" unicode="&#x1ea8;" horiz-adv-x="372" 
d="M21 0l131 620h68l129 -620h-40l-32 154l9 -8h-203l8 8l-31 -154h-39zM92 172l-4 6h194l-6 -6l-79 400l-2 5h-19l-2 -5zM96 672l68 70h40l67 -70h-27l-59 51l-59 -51h-30zM279 730q0 14 10.5 22t21 16.5t10.5 23.5q0 12 -9.5 19.5t-21.5 7.5q-17 0 -26 -10t-12 -23l-17 7
q2 20 17.5 32t41.5 12q24 0 39 -11t15 -31q0 -15 -6.5 -24.5t-15 -15.5t-15 -11.5t-6.5 -13.5h-26z" />
    <glyph glyph-name="uni1EA9" unicode="&#x1ea9;" 
d="M130 0q-35 0 -50 9.5t-18.5 37t-3.5 79.5v255q0 39 8 58t30.5 25t67.5 6h168v-470h-38v439h-140q-30 0 -42 -8t-14 -25.5t-2 -49.5v-246q0 -32 3 -49t14 -23.5t33 -6.5h114l-5 -31h-125zM93 536l85 87h41l84 -87h-27l-77 67l-77 -67h-29zM315 610q0 12 8 20.5t19 16
t19.5 17t8.5 23.5q0 16 -13 25.5t-30 9.5q-23 0 -34 -13t-14 -30l-19 7q3 27 21.5 42t50.5 15q30 0 46.5 -15t16.5 -37q0 -20 -8.5 -31.5t-19 -18.5t-18.5 -13.5t-8 -17.5h-26z" />
    <glyph glyph-name="uni1EAA" unicode="&#x1eaa;" horiz-adv-x="372" 
d="M21 0l131 620h68l129 -620h-40l-32 154l9 -8h-203l8 8l-31 -154h-39zM92 172l-4 6h194l-6 -6l-79 400l-2 5h-19l-2 -5zM96 672l68 70h40l67 -70h-27l-59 51l-59 -51h-30zM101 762q0 32 12.5 47.5t31.5 15.5q17 0 28.5 -9t22 -18t22.5 -9q16 0 21.5 12t5.5 22h20
q0 -32 -13.5 -45.5t-30.5 -13.5q-16 0 -27.5 9t-21.5 17.5t-23 8.5q-12 0 -19 -9.5t-7 -27.5h-22z" />
    <glyph glyph-name="uni1EAB" unicode="&#x1eab;" 
d="M130 0q-35 0 -50 9.5t-18.5 37t-3.5 79.5v255q0 39 8 58t30.5 25t67.5 6h168v-470h-38v439h-140q-30 0 -42 -8t-14 -25.5t-2 -49.5v-246q0 -32 3 -49t14 -23.5t33 -6.5h114l-5 -31h-125zM93 536l85 87h41l84 -87h-27l-77 67l-77 -67h-29zM100 647q0 39 14.5 56t36.5 17
q20 0 34 -10.5t27 -22t28 -11.5q21 0 27 15t6 28h21q0 -38 -16 -53t-35 -15q-20 0 -34 11.5t-26.5 22.5t-27.5 11q-17 0 -25 -13t-8 -36h-22z" />
    <glyph glyph-name="uni1EAC" unicode="&#x1eac;" horiz-adv-x="372" 
d="M21 0l131 620h68l129 -620h-40l-32 154l9 -8h-203l8 8l-31 -154h-39zM92 172l-4 6h194l-6 -6l-79 400l-2 5h-19l-2 -5zM184 -89q-16 0 -18.5 5.5t-2.5 15.5q0 11 2.5 16.5t17.5 5.5q16 0 18.5 -5.5t2.5 -16.5q0 -10 -2.5 -15.5t-17.5 -5.5zM79 686l85 87h41l84 -87h-27
l-77 67l-77 -67h-29z" />
    <glyph glyph-name="uni1EAD" unicode="&#x1ead;" 
d="M130 0q-35 0 -50 9.5t-18.5 37t-3.5 79.5v255q0 39 8 58t30.5 25t67.5 6h168v-470h-38v439h-140q-30 0 -42 -8t-14 -25.5t-2 -49.5v-246q0 -32 3 -49t14 -23.5t33 -6.5h114l-5 -31h-125zM197 -89q-16 0 -18.5 5.5t-2.5 15.5q0 11 2.5 16.5t17.5 5.5q16 0 18.5 -5.5
t2.5 -16.5q0 -10 -2.5 -15.5t-17.5 -5.5zM93 536l85 87h41l84 -87h-27l-77 67l-77 -67h-29z" />
    <glyph glyph-name="uni1EAE" unicode="&#x1eae;" horiz-adv-x="372" 
d="M21 0l131 620h68l129 -620h-40l-32 154l9 -8h-203l8 8l-31 -154h-39zM92 172l-4 6h194l-6 -6l-79 400l-2 5h-19l-2 -5zM184 667q-30 0 -47 11.5t-23.5 28t-6.5 33.5h26q0 -19 11.5 -35.5t39.5 -16.5q30 0 42 16.5t13 35.5h25q0 -32 -18.5 -52.5t-61.5 -20.5zM146 760
l71 76h38l-82 -76h-27z" />
    <glyph glyph-name="uni1EAF" unicode="&#x1eaf;" 
d="M130 0q-35 0 -50 9.5t-18.5 37t-3.5 79.5v255q0 39 8 58t30.5 25t67.5 6h168v-470h-38v439h-140q-30 0 -42 -8t-14 -25.5t-2 -49.5v-246q0 -32 3 -49t14 -23.5t33 -6.5h114l-5 -31h-125zM197 531q-37 0 -57 14t-27.5 34.5t-7.5 40.5h26q0 -26 14.5 -46.5t51.5 -20.5
q40 0 55.5 20t15.5 47h25q0 -37 -22 -63t-74 -26zM155 645l86 93h40l-100 -93h-26z" />
    <glyph glyph-name="uni1EB0" unicode="&#x1eb0;" horiz-adv-x="372" 
d="M21 0l131 620h68l129 -620h-40l-32 154l9 -8h-203l8 8l-31 -154h-39zM92 172l-4 6h194l-6 -6l-79 400l-2 5h-19l-2 -5zM183 667q-30 0 -47 11.5t-23 28.5t-6 33h25q0 -19 12 -35.5t40 -16.5q30 0 41.5 16.5t11.5 35.5h27q0 -32 -19 -52.5t-62 -20.5zM186 760l-83 76h39
l69 -76h-25z" />
    <glyph glyph-name="uni1EB1" unicode="&#x1eb1;" 
d="M130 0q-35 0 -50 9.5t-18.5 37t-3.5 79.5v255q0 39 8 58t30.5 25t67.5 6h168v-470h-38v439h-140q-30 0 -42 -8t-14 -25.5t-2 -49.5v-246q0 -32 3 -49t14 -23.5t33 -6.5h114l-5 -31h-125zM197 531q-37 0 -57 14t-27.5 34.5t-7.5 40.5h26q0 -26 14.5 -46.5t51.5 -20.5
q40 0 55.5 20t15.5 47h25q0 -37 -22 -63t-74 -26zM201 645l-100 93h41l85 -93h-26z" />
    <glyph glyph-name="uni1EB2" unicode="&#x1eb2;" horiz-adv-x="372" 
d="M21 0l131 620h68l129 -620h-40l-32 154l9 -8h-203l8 8l-31 -154h-39zM92 172l-4 6h194l-6 -6l-79 400l-2 5h-19l-2 -5zM184 667q-30 0 -47 11.5t-23.5 28t-6.5 33.5h26q0 -19 11.5 -35.5t39.5 -16.5q30 0 42 16.5t13 35.5h25q0 -32 -18.5 -52.5t-61.5 -20.5zM173 760
q0 14 10.5 22t21.5 16.5t11 23.5q0 12 -9.5 19.5t-21.5 7.5q-18 0 -26.5 -10t-11.5 -23l-18 7q3 21 18 33t42 12q25 0 39 -11.5t14 -30.5q0 -21 -10.5 -31t-21 -16t-10.5 -19h-27z" />
    <glyph glyph-name="uni1EB3" unicode="&#x1eb3;" 
d="M130 0q-35 0 -50 9.5t-18.5 37t-3.5 79.5v255q0 39 8 58t30.5 25t67.5 6h168v-470h-38v439h-140q-30 0 -42 -8t-14 -25.5t-2 -49.5v-246q0 -32 3 -49t14 -23.5t33 -6.5h114l-5 -31h-125zM197 531q-37 0 -57 14t-27.5 34.5t-7.5 40.5h26q0 -26 14.5 -46.5t51.5 -20.5
q40 0 55.5 20t15.5 47h25q0 -37 -22 -63t-74 -26zM186 645q0 12 8 20.5t19 16t19.5 17t8.5 23.5q0 16 -13 25.5t-30 9.5q-23 0 -34 -13t-14 -30l-19 7q3 27 21.5 42t50.5 15q30 0 46.5 -15t16.5 -37q0 -20 -8.5 -31.5t-19 -18.5t-18.5 -13.5t-8 -17.5h-26z" />
    <glyph glyph-name="uni1EB4" unicode="&#x1eb4;" horiz-adv-x="372" 
d="M21 0l131 620h68l129 -620h-40l-32 154l9 -8h-203l8 8l-31 -154h-39zM92 172l-4 6h194l-6 -6l-79 400l-2 5h-19l-2 -5zM184 667q-30 0 -47 11.5t-23.5 28.5t-6.5 33h26q0 -18 11.5 -35t39.5 -17q30 0 42 16.5t12 35.5h26q0 -31 -18.5 -52t-61.5 -21zM104 756
q0 33 12 47.5t31 14.5q16 0 28 -8.5t22.5 -17t22.5 -8.5q16 0 21 11.5t5 22.5h20q0 -33 -13 -46t-30 -13q-15 0 -27 9t-21.5 17.5t-22.5 8.5t-19.5 -10.5t-6.5 -27.5h-22z" />
    <glyph glyph-name="uni1EB5" unicode="&#x1eb5;" 
d="M130 0q-35 0 -50 9.5t-18.5 37t-3.5 79.5v255q0 39 8 58t30.5 25t67.5 6h168v-470h-38v439h-140q-30 0 -42 -8t-14 -25.5t-2 -49.5v-246q0 -32 3 -49t14 -23.5t33 -6.5h114l-5 -31h-125zM197 531q-37 0 -57 14t-27.5 34.5t-7.5 40.5h26q0 -26 14.5 -46.5t51.5 -20.5
q40 0 55.5 20t15.5 47h25q0 -37 -22 -63t-74 -26zM102 639q0 39 14.5 56t36.5 17q20 0 34 -10.5t27 -22t28 -11.5q21 0 27 15t6 28h21q0 -38 -16 -53t-35 -15q-20 0 -34 11.5t-26.5 22.5t-27.5 11q-17 0 -25 -13t-8 -36h-22z" />
    <glyph glyph-name="uni1EB6" unicode="&#x1eb6;" horiz-adv-x="372" 
d="M21 0l131 620h68l129 -620h-40l-32 154l9 -8h-203l8 8l-31 -154h-39zM92 172l-4 6h194l-6 -6l-79 400l-2 5h-19l-2 -5zM184 -89q-16 0 -18.5 5.5t-2.5 15.5q0 11 2.5 16.5t17.5 5.5q16 0 18.5 -5.5t2.5 -16.5q0 -10 -2.5 -15.5t-17.5 -5.5zM183 681q-37 0 -57 14
t-27.5 34.5t-7.5 40.5h26q0 -24 14.5 -46t51.5 -22q40 0 55 22t16 46h25q0 -39 -22 -64t-74 -25z" />
    <glyph glyph-name="uni1EB7" unicode="&#x1eb7;" 
d="M130 0q-35 0 -50 9.5t-18.5 37t-3.5 79.5v255q0 39 8 58t30.5 25t67.5 6h168v-470h-38v439h-140q-30 0 -42 -8t-14 -25.5t-2 -49.5v-246q0 -32 3 -49t14 -23.5t33 -6.5h114l-5 -31h-125zM197 -89q-16 0 -18.5 5.5t-2.5 15.5q0 11 2.5 16.5t17.5 5.5q16 0 18.5 -5.5
t2.5 -16.5q0 -10 -2.5 -15.5t-17.5 -5.5zM197 531q-37 0 -57 14t-27.5 34.5t-7.5 40.5h26q0 -26 14.5 -46.5t51.5 -20.5q40 0 55.5 20t15.5 47h25q0 -37 -22 -63t-74 -26z" />
    <glyph glyph-name="uni1EB8" unicode="&#x1eb8;" horiz-adv-x="365" 
d="M63 620h270v-31h-231v-223h215l-7 -30h-208v-306h231v-30h-270v620zM184 -89q-16 0 -18.5 5.5t-2.5 15.5q0 11 2.5 16.5t17.5 5.5q16 0 18.5 -5.5t2.5 -16.5q0 -10 -2.5 -15.5t-17.5 -5.5z" />
    <glyph glyph-name="uni1EB9" unicode="&#x1eb9;" horiz-adv-x="383" 
d="M184 -4q-54 0 -82 16t-38 40.5t-10 48.5v269q0 25 10 49t39.5 40t87.5 16q57 0 86 -16t40 -40t11 -49v-118l-38 -2v114q0 41 -27 61t-72 20q-44 0 -71.5 -19.5t-27.5 -61.5v-256q0 -42 27 -61.5t65 -19.5q50 0 78 21t28 68v53l38 5v-59q0 -31 -11.5 -58.5t-42.5 -44
t-90 -16.5zM62 233v23h266v-23h-266zM191 -89q-16 0 -18.5 5.5t-2.5 15.5q0 11 2.5 16.5t17.5 5.5q16 0 18.5 -5.5t2.5 -16.5q0 -10 -2.5 -15.5t-17.5 -5.5z" />
    <glyph glyph-name="uni1EBA" unicode="&#x1eba;" horiz-adv-x="365" 
d="M63 620h270v-31h-231v-223h215l-7 -30h-208v-306h231v-30h-270v620zM171 686q0 12 8 20.5t19 16t19.5 17t8.5 23.5q0 16 -13 25.5t-30 9.5q-23 0 -34 -13t-14 -30l-19 7q3 27 21.5 42t50.5 15q30 0 46.5 -15t16.5 -37q0 -20 -8.5 -31.5t-19 -18.5t-18.5 -13.5t-8 -17.5
h-26z" />
    <glyph glyph-name="uni1EBB" unicode="&#x1ebb;" horiz-adv-x="383" 
d="M184 -4q-54 0 -82 16t-38 40.5t-10 48.5v269q0 25 10 49t39.5 40t87.5 16q57 0 86 -16t40 -40t11 -49v-118l-38 -2v114q0 41 -27 61t-72 20q-44 0 -71.5 -19.5t-27.5 -61.5v-256q0 -42 27 -61.5t65 -19.5q50 0 78 21t28 68v53l38 5v-59q0 -31 -11.5 -58.5t-42.5 -44
t-90 -16.5zM62 233v23h266v-23h-266zM178 536q0 12 8 20.5t19 16t19.5 17t8.5 23.5q0 16 -13 25.5t-30 9.5q-23 0 -34 -13t-14 -30l-19 7q3 27 21.5 42t50.5 15q30 0 46.5 -15t16.5 -37q0 -20 -8.5 -31.5t-19 -18.5t-18.5 -13.5t-8 -17.5h-26z" />
    <glyph glyph-name="uni1EBC" unicode="&#x1ebc;" horiz-adv-x="365" 
d="M63 620h270v-31h-231v-223h215l-7 -30h-208v-306h231v-30h-270v620zM87 680q0 39 14.5 56t36.5 17q20 0 34 -10.5t27 -22t28 -11.5q21 0 27 15t6 28h21q0 -38 -16 -53t-35 -15q-20 0 -34 11.5t-26.5 22.5t-27.5 11q-17 0 -25 -13t-8 -36h-22z" />
    <glyph glyph-name="uni1EBD" unicode="&#x1ebd;" horiz-adv-x="383" 
d="M184 -4q-54 0 -82 16t-38 40.5t-10 48.5v269q0 25 10 49t39.5 40t87.5 16q57 0 86 -16t40 -40t11 -49v-118l-38 -2v114q0 41 -27 61t-72 20q-44 0 -71.5 -19.5t-27.5 -61.5v-256q0 -42 27 -61.5t65 -19.5q50 0 78 21t28 68v53l38 5v-59q0 -31 -11.5 -58.5t-42.5 -44
t-90 -16.5zM62 233v23h266v-23h-266zM94 530q0 39 14.5 56t36.5 17q20 0 34 -10.5t27 -22t28 -11.5q21 0 27 15t6 28h21q0 -38 -16 -53t-35 -15q-20 0 -34 11.5t-26.5 22.5t-27.5 11q-17 0 -25 -13t-8 -36h-22z" />
    <glyph glyph-name="uni1EBE" unicode="&#x1ebe;" horiz-adv-x="365" 
d="M63 620h270v-31h-231v-223h215l-7 -30h-208v-306h231v-30h-270v620zM95 672l68 70h40l67 -70h-27l-59 51l-59 -51h-30zM264 730l69 76h40l-82 -76h-27z" />
    <glyph glyph-name="uni1EBF" unicode="&#x1ebf;" horiz-adv-x="383" 
d="M184 -4q-54 0 -82 16t-38 40.5t-10 48.5v269q0 25 10 49t39.5 40t87.5 16q57 0 86 -16t40 -40t11 -49v-118l-38 -2v114q0 41 -27 61t-72 20q-44 0 -71.5 -19.5t-27.5 -61.5v-256q0 -42 27 -61.5t65 -19.5q50 0 78 21t28 68v53l38 5v-59q0 -31 -11.5 -58.5t-42.5 -44
t-90 -16.5zM62 233v23h266v-23h-266zM85 536l85 87h41l84 -87h-27l-77 67l-77 -67h-29zM287 610l86 93h40l-100 -93h-26z" />
    <glyph glyph-name="uni1EC0" unicode="&#x1ec0;" horiz-adv-x="365" 
d="M63 620h270v-31h-231v-223h215l-7 -30h-208v-306h231v-30h-270v620zM95 672l68 70h40l67 -70h-27l-59 51l-59 -51h-30zM287 730l-83 76h38l71 -76h-26z" />
    <glyph glyph-name="uni1EC1" unicode="&#x1ec1;" horiz-adv-x="383" 
d="M184 -4q-54 0 -82 16t-38 40.5t-10 48.5v269q0 25 10 49t39.5 40t87.5 16q57 0 86 -16t40 -40t11 -49v-118l-38 -2v114q0 41 -27 61t-72 20q-44 0 -71.5 -19.5t-27.5 -61.5v-256q0 -42 27 -61.5t65 -19.5q50 0 78 21t28 68v53l38 5v-59q0 -31 -11.5 -58.5t-42.5 -44
t-90 -16.5zM62 233v23h266v-23h-266zM85 536l85 87h41l84 -87h-27l-77 67l-77 -67h-29zM315 610l-100 93h41l85 -93h-26z" />
    <glyph glyph-name="uni1EC2" unicode="&#x1ec2;" horiz-adv-x="365" 
d="M63 620h270v-31h-231v-223h215l-7 -30h-208v-306h231v-30h-270v620zM95 672l68 70h40l67 -70h-27l-59 51l-59 -51h-30zM278 730q0 14 10.5 22t21 16.5t10.5 23.5q0 12 -9.5 19.5t-21.5 7.5q-17 0 -26 -10t-12 -23l-17 7q2 20 17.5 32t41.5 12q24 0 39 -11t15 -31
q0 -15 -6.5 -24.5t-15 -15.5t-15 -11.5t-6.5 -13.5h-26z" />
    <glyph glyph-name="uni1EC3" unicode="&#x1ec3;" horiz-adv-x="383" 
d="M184 -4q-54 0 -82 16t-38 40.5t-10 48.5v269q0 25 10 49t39.5 40t87.5 16q57 0 86 -16t40 -40t11 -49v-118l-38 -2v114q0 41 -27 61t-72 20q-44 0 -71.5 -19.5t-27.5 -61.5v-256q0 -42 27 -61.5t65 -19.5q50 0 78 21t28 68v53l38 5v-59q0 -31 -11.5 -58.5t-42.5 -44
t-90 -16.5zM62 233v23h266v-23h-266zM85 536l85 87h41l84 -87h-27l-77 67l-77 -67h-29zM307 610q0 12 8 20.5t19 16t19.5 17t8.5 23.5q0 16 -13 25.5t-30 9.5q-23 0 -34 -13t-14 -30l-19 7q3 27 21.5 42t50.5 15q30 0 46.5 -15t16.5 -37q0 -20 -8.5 -31.5t-19 -18.5
t-18.5 -13.5t-8 -17.5h-26z" />
    <glyph glyph-name="uni1EC4" unicode="&#x1ec4;" horiz-adv-x="365" 
d="M63 620h270v-31h-231v-223h215l-7 -30h-208v-306h231v-30h-270v620zM95 672l68 70h40l67 -70h-27l-59 51l-59 -51h-30zM100 762q0 32 12.5 47.5t31.5 15.5q17 0 28.5 -9t22 -18t22.5 -9q16 0 21.5 12t5.5 22h20q0 -32 -13.5 -45.5t-30.5 -13.5q-16 0 -27.5 9t-21.5 17.5
t-23 8.5q-12 0 -19 -9.5t-7 -27.5h-22z" />
    <glyph glyph-name="uni1EC5" unicode="&#x1ec5;" horiz-adv-x="383" 
d="M184 -4q-54 0 -82 16t-38 40.5t-10 48.5v269q0 25 10 49t39.5 40t87.5 16q57 0 86 -16t40 -40t11 -49v-118l-38 -2v114q0 41 -27 61t-72 20q-44 0 -71.5 -19.5t-27.5 -61.5v-256q0 -42 27 -61.5t65 -19.5q50 0 78 21t28 68v53l38 5v-59q0 -31 -11.5 -58.5t-42.5 -44
t-90 -16.5zM62 233v23h266v-23h-266zM85 536l85 87h41l84 -87h-27l-77 67l-77 -67h-29zM93 647q0 39 14.5 56t36.5 17q20 0 34 -10.5t27 -22t28 -11.5q21 0 27 15t6 28h21q0 -38 -16 -53t-35 -15q-20 0 -34 11.5t-26.5 22.5t-27.5 11q-17 0 -25 -13t-8 -36h-22z" />
    <glyph glyph-name="uni1EC6" unicode="&#x1ec6;" horiz-adv-x="365" 
d="M63 620h270v-31h-231v-223h215l-7 -30h-208v-306h231v-30h-270v620zM184 -89q-16 0 -18.5 5.5t-2.5 15.5q0 11 2.5 16.5t17.5 5.5q16 0 18.5 -5.5t2.5 -16.5q0 -10 -2.5 -15.5t-17.5 -5.5zM78 686l85 87h41l84 -87h-27l-77 67l-77 -67h-29z" />
    <glyph glyph-name="uni1EC7" unicode="&#x1ec7;" horiz-adv-x="383" 
d="M184 -4q-54 0 -82 16t-38 40.5t-10 48.5v269q0 25 10 49t39.5 40t87.5 16q57 0 86 -16t40 -40t11 -49v-118l-38 -2v114q0 41 -27 61t-72 20q-44 0 -71.5 -19.5t-27.5 -61.5v-256q0 -42 27 -61.5t65 -19.5q50 0 78 21t28 68v53l38 5v-59q0 -31 -11.5 -58.5t-42.5 -44
t-90 -16.5zM62 233v23h266v-23h-266zM191 -89q-16 0 -18.5 5.5t-2.5 15.5q0 11 2.5 16.5t17.5 5.5q16 0 18.5 -5.5t2.5 -16.5q0 -10 -2.5 -15.5t-17.5 -5.5zM85 536l85 87h41l84 -87h-27l-77 67l-77 -67h-29z" />
    <glyph glyph-name="uni1EC8" unicode="&#x1ec8;" horiz-adv-x="165" 
d="M63 620h39v-620h-39v620zM69 686q0 12 8 20.5t19 16t19.5 17t8.5 23.5q0 16 -13 25.5t-30 9.5q-23 0 -34 -13t-14 -30l-19 7q3 27 21.5 42t50.5 15q30 0 46.5 -15t16.5 -37q0 -20 -8.5 -31.5t-19 -18.5t-18.5 -13.5t-8 -17.5h-26z" />
    <glyph glyph-name="uni1EC9" unicode="&#x1ec9;" horiz-adv-x="166" 
d="M64 470h38v-470h-38v470zM70 536q0 12 8 20.5t19 16t19.5 17t8.5 23.5q0 16 -13 25.5t-30 9.5q-23 0 -34 -13t-14 -30l-19 7q3 27 21.5 42t50.5 15q30 0 46.5 -15t16.5 -37q0 -20 -8.5 -31.5t-19 -18.5t-18.5 -13.5t-8 -17.5h-26z" />
    <glyph glyph-name="uni1ECA" unicode="&#x1eca;" horiz-adv-x="165" 
d="M63 620h39v-620h-39v620zM82 -89q-16 0 -18.5 5.5t-2.5 15.5q0 11 2.5 16.5t17.5 5.5q16 0 18.5 -5.5t2.5 -16.5q0 -10 -2.5 -15.5t-17.5 -5.5z" />
    <glyph glyph-name="uni1ECB" unicode="&#x1ecb;" horiz-adv-x="165" 
d="M64 0v470h38v-470h-38zM82 540q-16 0 -20 4t-4 17t4 17.5t20 4.5q15 0 19.5 -4.5t4.5 -17.5t-4.5 -17t-19.5 -4zM82 -89q-16 0 -18.5 5.5t-2.5 15.5q0 11 2.5 16.5t17.5 5.5q16 0 18.5 -5.5t2.5 -16.5q0 -10 -2.5 -15.5t-17.5 -5.5z" />
    <glyph glyph-name="uni1ECC" unicode="&#x1ecc;" horiz-adv-x="379" 
d="M189 -3q-66 0 -101.5 24t-35.5 69v448q0 38 32 64.5t105 25.5t105 -26.5t32 -64.5v-446q0 -45 -34.5 -69.5t-102.5 -24.5zM189 29q52 0 75.5 20.5t23.5 49.5v430q0 25 -21 46t-80 21q-55 0 -76 -20.5t-21 -45.5v-431q0 -30 24 -50t75 -20zM189 -89q-16 0 -18.5 5.5
t-2.5 15.5q0 11 2.5 16.5t17.5 5.5q16 0 18.5 -5.5t2.5 -16.5q0 -10 -2.5 -15.5t-17.5 -5.5z" />
    <glyph glyph-name="uni1ECD" unicode="&#x1ecd;" horiz-adv-x="383" 
d="M184 -4q-54 0 -82 16t-38 40.5t-10 48.5v269q0 25 10 49t39.5 40t87.5 16q57 0 86 -16t40 -40t11 -49v-255q0 -31 -11.5 -58.5t-42.5 -44t-90 -16.5zM184 27q50 0 78 21t28 68v248q0 41 -27 61t-72 20q-44 0 -71.5 -19.5t-27.5 -61.5v-256q0 -42 27 -61.5t65 -19.5z
M191 -89q-16 0 -18.5 5.5t-2.5 15.5q0 11 2.5 16.5t17.5 5.5q16 0 18.5 -5.5t2.5 -16.5q0 -10 -2.5 -15.5t-17.5 -5.5z" />
    <glyph glyph-name="uni1ECE" unicode="&#x1ece;" horiz-adv-x="379" 
d="M189 -3q-66 0 -101.5 24t-35.5 69v448q0 38 32 64.5t105 25.5t105 -26.5t32 -64.5v-446q0 -45 -34.5 -69.5t-102.5 -24.5zM189 29q52 0 75.5 20.5t23.5 49.5v430q0 25 -21 46t-80 21q-55 0 -76 -20.5t-21 -45.5v-431q0 -30 24 -50t75 -20zM176 686q0 12 8 20.5t19 16
t19.5 17t8.5 23.5q0 16 -13 25.5t-30 9.5q-23 0 -34 -13t-14 -30l-19 7q3 27 21.5 42t50.5 15q30 0 46.5 -15t16.5 -37q0 -20 -8.5 -31.5t-19 -18.5t-18.5 -13.5t-8 -17.5h-26z" />
    <glyph glyph-name="uni1ECF" unicode="&#x1ecf;" horiz-adv-x="383" 
d="M184 -4q-54 0 -82 16t-38 40.5t-10 48.5v269q0 25 10 49t39.5 40t87.5 16q57 0 86 -16t40 -40t11 -49v-255q0 -31 -11.5 -58.5t-42.5 -44t-90 -16.5zM184 27q50 0 78 21t28 68v248q0 41 -27 61t-72 20q-44 0 -71.5 -19.5t-27.5 -61.5v-256q0 -42 27 -61.5t65 -19.5z
M178 536q0 12 8 20.5t19 16t19.5 17t8.5 23.5q0 16 -13 25.5t-30 9.5q-23 0 -34 -13t-14 -30l-19 7q3 27 21.5 42t50.5 15q30 0 46.5 -15t16.5 -37q0 -20 -8.5 -31.5t-19 -18.5t-18.5 -13.5t-8 -17.5h-26z" />
    <glyph glyph-name="uni1ED0" unicode="&#x1ed0;" horiz-adv-x="379" 
d="M189 -3q-66 0 -101.5 24t-35.5 69v448q0 38 32 64.5t105 25.5t105 -26.5t32 -64.5v-446q0 -45 -34.5 -69.5t-102.5 -24.5zM189 29q52 0 75.5 20.5t23.5 49.5v430q0 25 -21 46t-80 21q-55 0 -76 -20.5t-21 -45.5v-431q0 -30 24 -50t75 -20zM100 672l68 70h40l67 -70h-27
l-59 51l-59 -51h-30zM269 730l69 76h40l-82 -76h-27z" />
    <glyph glyph-name="uni1ED1" unicode="&#x1ed1;" horiz-adv-x="383" 
d="M184 -4q-54 0 -82 16t-38 40.5t-10 48.5v269q0 25 10 49t39.5 40t87.5 16q57 0 86 -16t40 -40t11 -49v-255q0 -31 -11.5 -58.5t-42.5 -44t-90 -16.5zM184 27q50 0 78 21t28 68v248q0 41 -27 61t-72 20q-44 0 -71.5 -19.5t-27.5 -61.5v-256q0 -42 27 -61.5t65 -19.5z
M85 536l85 87h41l84 -87h-27l-77 67l-77 -67h-29zM287 610l86 93h40l-100 -93h-26z" />
    <glyph glyph-name="uni1ED2" unicode="&#x1ed2;" horiz-adv-x="379" 
d="M189 -3q-66 0 -101.5 24t-35.5 69v448q0 38 32 64.5t105 25.5t105 -26.5t32 -64.5v-446q0 -45 -34.5 -69.5t-102.5 -24.5zM189 29q52 0 75.5 20.5t23.5 49.5v430q0 25 -21 46t-80 21q-55 0 -76 -20.5t-21 -45.5v-431q0 -30 24 -50t75 -20zM100 672l68 70h40l67 -70h-27
l-59 51l-59 -51h-30zM292 730l-83 76h38l71 -76h-26z" />
    <glyph glyph-name="uni1ED3" unicode="&#x1ed3;" horiz-adv-x="383" 
d="M184 -4q-54 0 -82 16t-38 40.5t-10 48.5v269q0 25 10 49t39.5 40t87.5 16q57 0 86 -16t40 -40t11 -49v-255q0 -31 -11.5 -58.5t-42.5 -44t-90 -16.5zM184 27q50 0 78 21t28 68v248q0 41 -27 61t-72 20q-44 0 -71.5 -19.5t-27.5 -61.5v-256q0 -42 27 -61.5t65 -19.5z
M85 536l85 87h41l84 -87h-27l-77 67l-77 -67h-29zM315 610l-100 93h41l85 -93h-26z" />
    <glyph glyph-name="uni1ED4" unicode="&#x1ed4;" horiz-adv-x="379" 
d="M189 -3q-66 0 -101.5 24t-35.5 69v448q0 38 32 64.5t105 25.5t105 -26.5t32 -64.5v-446q0 -45 -34.5 -69.5t-102.5 -24.5zM189 29q52 0 75.5 20.5t23.5 49.5v430q0 25 -21 46t-80 21q-55 0 -76 -20.5t-21 -45.5v-431q0 -30 24 -50t75 -20zM100 672l68 70h40l67 -70h-27
l-59 51l-59 -51h-30zM283 730q0 14 10.5 22t21 16.5t10.5 23.5q0 12 -9.5 19.5t-21.5 7.5q-17 0 -26 -10t-12 -23l-17 7q2 20 17.5 32t41.5 12q24 0 39 -11t15 -31q0 -15 -6.5 -24.5t-15 -15.5t-15 -11.5t-6.5 -13.5h-26z" />
    <glyph glyph-name="uni1ED5" unicode="&#x1ed5;" horiz-adv-x="383" 
d="M184 -4q-54 0 -82 16t-38 40.5t-10 48.5v269q0 25 10 49t39.5 40t87.5 16q57 0 86 -16t40 -40t11 -49v-255q0 -31 -11.5 -58.5t-42.5 -44t-90 -16.5zM184 27q50 0 78 21t28 68v248q0 41 -27 61t-72 20q-44 0 -71.5 -19.5t-27.5 -61.5v-256q0 -42 27 -61.5t65 -19.5z
M85 536l85 87h41l84 -87h-27l-77 67l-77 -67h-29zM307 610q0 12 8 20.5t19 16t19.5 17t8.5 23.5q0 16 -13 25.5t-30 9.5q-23 0 -34 -13t-14 -30l-19 7q3 27 21.5 42t50.5 15q30 0 46.5 -15t16.5 -37q0 -20 -8.5 -31.5t-19 -18.5t-18.5 -13.5t-8 -17.5h-26z" />
    <glyph glyph-name="uni1ED6" unicode="&#x1ed6;" horiz-adv-x="379" 
d="M189 -3q-66 0 -101.5 24t-35.5 69v448q0 38 32 64.5t105 25.5t105 -26.5t32 -64.5v-446q0 -45 -34.5 -69.5t-102.5 -24.5zM189 29q52 0 75.5 20.5t23.5 49.5v430q0 25 -21 46t-80 21q-55 0 -76 -20.5t-21 -45.5v-431q0 -30 24 -50t75 -20zM100 672l68 70h40l67 -70h-27
l-59 51l-59 -51h-30zM105 762q0 32 12.5 47.5t31.5 15.5q17 0 28.5 -9t22 -18t22.5 -9q16 0 21.5 12t5.5 22h20q0 -32 -13.5 -45.5t-30.5 -13.5q-16 0 -27.5 9t-21.5 17.5t-23 8.5q-12 0 -19 -9.5t-7 -27.5h-22z" />
    <glyph glyph-name="uni1ED7" unicode="&#x1ed7;" horiz-adv-x="383" 
d="M184 -4q-54 0 -82 16t-38 40.5t-10 48.5v269q0 25 10 49t39.5 40t87.5 16q57 0 86 -16t40 -40t11 -49v-255q0 -31 -11.5 -58.5t-42.5 -44t-90 -16.5zM184 27q50 0 78 21t28 68v248q0 41 -27 61t-72 20q-44 0 -71.5 -19.5t-27.5 -61.5v-256q0 -42 27 -61.5t65 -19.5z
M85 536l85 87h41l84 -87h-27l-77 67l-77 -67h-29zM93 647q0 39 14.5 56t36.5 17q20 0 34 -10.5t27 -22t28 -11.5q21 0 27 15t6 28h21q0 -38 -16 -53t-35 -15q-20 0 -34 11.5t-26.5 22.5t-27.5 11q-17 0 -25 -13t-8 -36h-22z" />
    <glyph glyph-name="uni1ED8" unicode="&#x1ed8;" horiz-adv-x="379" 
d="M189 -3q-66 0 -101.5 24t-35.5 69v448q0 38 32 64.5t105 25.5t105 -26.5t32 -64.5v-446q0 -45 -34.5 -69.5t-102.5 -24.5zM189 29q52 0 75.5 20.5t23.5 49.5v430q0 25 -21 46t-80 21q-55 0 -76 -20.5t-21 -45.5v-431q0 -30 24 -50t75 -20zM189 -89q-16 0 -18.5 5.5
t-2.5 15.5q0 11 2.5 16.5t17.5 5.5q16 0 18.5 -5.5t2.5 -16.5q0 -10 -2.5 -15.5t-17.5 -5.5zM83 686l85 87h41l84 -87h-27l-77 67l-77 -67h-29z" />
    <glyph glyph-name="uni1ED9" unicode="&#x1ed9;" horiz-adv-x="383" 
d="M184 -4q-54 0 -82 16t-38 40.5t-10 48.5v269q0 25 10 49t39.5 40t87.5 16q57 0 86 -16t40 -40t11 -49v-255q0 -31 -11.5 -58.5t-42.5 -44t-90 -16.5zM184 27q50 0 78 21t28 68v248q0 41 -27 61t-72 20q-44 0 -71.5 -19.5t-27.5 -61.5v-256q0 -42 27 -61.5t65 -19.5z
M191 -89q-16 0 -18.5 5.5t-2.5 15.5q0 11 2.5 16.5t17.5 5.5q16 0 18.5 -5.5t2.5 -16.5q0 -10 -2.5 -15.5t-17.5 -5.5zM85 536l85 87h41l84 -87h-27l-77 67l-77 -67h-29z" />
    <glyph glyph-name="uni1EDA" unicode="&#x1eda;" horiz-adv-x="379" 
d="M189 -3q-66 0 -101.5 24t-35.5 69v448q0 38 32 64.5t105 25.5t105 -26.5t32 -64.5v-446q0 -45 -34.5 -69.5t-102.5 -24.5zM189 29q52 0 75.5 20.5t23.5 49.5v430q0 25 -21 46t-80 21q-55 0 -76 -20.5t-21 -45.5v-431q0 -30 24 -50t75 -20zM256 603l-3 17q35 0 47.5 12
t11.5 38h24q0 -37 -18 -52t-62 -15zM145 686l94 85h41l-109 -85h-26z" />
    <glyph glyph-name="uni1EDB" unicode="&#x1edb;" horiz-adv-x="383" 
d="M184 -4q-54 0 -82 16t-38 40.5t-10 48.5v269q0 25 10 49t39.5 40t87.5 16q57 0 86 -16t40 -40t11 -49v-255q0 -31 -11.5 -58.5t-42.5 -44t-90 -16.5zM184 27q50 0 78 21t28 68v248q0 41 -27 61t-72 20q-44 0 -71.5 -19.5t-27.5 -61.5v-256q0 -42 27 -61.5t65 -19.5z
M247 453l-3 17q35 0 47.5 12t11.5 38h24q0 -37 -18 -52t-62 -15zM147 536l86 93h40l-100 -93h-26z" />
    <glyph glyph-name="uni1EDC" unicode="&#x1edc;" horiz-adv-x="379" 
d="M189 -3q-66 0 -101.5 24t-35.5 69v448q0 38 32 64.5t105 25.5t105 -26.5t32 -64.5v-446q0 -45 -34.5 -69.5t-102.5 -24.5zM189 29q52 0 75.5 20.5t23.5 49.5v430q0 25 -21 46t-80 21q-55 0 -76 -20.5t-21 -45.5v-431q0 -30 24 -50t75 -20zM256 603l-3 17q35 0 47.5 12
t11.5 38h24q0 -37 -18 -52t-62 -15zM191 686l-109 85h41l94 -85h-26z" />
    <glyph glyph-name="uni1EDD" unicode="&#x1edd;" horiz-adv-x="383" 
d="M184 -4q-54 0 -82 16t-38 40.5t-10 48.5v269q0 25 10 49t39.5 40t87.5 16q57 0 86 -16t40 -40t11 -49v-255q0 -31 -11.5 -58.5t-42.5 -44t-90 -16.5zM184 27q50 0 78 21t28 68v248q0 41 -27 61t-72 20q-44 0 -71.5 -19.5t-27.5 -61.5v-256q0 -42 27 -61.5t65 -19.5z
M247 453l-3 17q35 0 47.5 12t11.5 38h24q0 -37 -18 -52t-62 -15zM193 536l-100 93h41l85 -93h-26z" />
    <glyph glyph-name="uni1EDE" unicode="&#x1ede;" horiz-adv-x="379" 
d="M189 -3q-66 0 -101.5 24t-35.5 69v448q0 38 32 64.5t105 25.5t105 -26.5t32 -64.5v-446q0 -45 -34.5 -69.5t-102.5 -24.5zM189 29q52 0 75.5 20.5t23.5 49.5v430q0 25 -21 46t-80 21q-55 0 -76 -20.5t-21 -45.5v-431q0 -30 24 -50t75 -20zM256 603l-3 17q35 0 47.5 12
t11.5 38h24q0 -37 -18 -52t-62 -15zM176 686q0 12 8 20.5t19 16t19.5 17t8.5 23.5q0 16 -13 25.5t-30 9.5q-23 0 -34 -13t-14 -30l-19 7q3 27 21.5 42t50.5 15q30 0 46.5 -15t16.5 -37q0 -20 -8.5 -31.5t-19 -18.5t-18.5 -13.5t-8 -17.5h-26z" />
    <glyph glyph-name="uni1EDF" unicode="&#x1edf;" horiz-adv-x="383" 
d="M184 -4q-54 0 -82 16t-38 40.5t-10 48.5v269q0 25 10 49t39.5 40t87.5 16q57 0 86 -16t40 -40t11 -49v-255q0 -31 -11.5 -58.5t-42.5 -44t-90 -16.5zM184 27q50 0 78 21t28 68v248q0 41 -27 61t-72 20q-44 0 -71.5 -19.5t-27.5 -61.5v-256q0 -42 27 -61.5t65 -19.5z
M247 453l-3 17q35 0 47.5 12t11.5 38h24q0 -37 -18 -52t-62 -15zM178 536q0 12 8 20.5t19 16t19.5 17t8.5 23.5q0 16 -13 25.5t-30 9.5q-23 0 -34 -13t-14 -30l-19 7q3 27 21.5 42t50.5 15q30 0 46.5 -15t16.5 -37q0 -20 -8.5 -31.5t-19 -18.5t-18.5 -13.5t-8 -17.5h-26z
" />
    <glyph glyph-name="uni1EE0" unicode="&#x1ee0;" horiz-adv-x="379" 
d="M189 -3q-66 0 -101.5 24t-35.5 69v448q0 38 32 64.5t105 25.5t105 -26.5t32 -64.5v-446q0 -45 -34.5 -69.5t-102.5 -24.5zM189 29q52 0 75.5 20.5t23.5 49.5v430q0 25 -21 46t-80 21q-55 0 -76 -20.5t-21 -45.5v-431q0 -30 24 -50t75 -20zM256 603l-3 17q35 0 47.5 12
t11.5 38h24q0 -37 -18 -52t-62 -15zM92 680q0 39 14.5 56t36.5 17q20 0 34 -10.5t27 -22t28 -11.5q21 0 27 15t6 28h21q0 -38 -16 -53t-35 -15q-20 0 -34 11.5t-26.5 22.5t-27.5 11q-17 0 -25 -13t-8 -36h-22z" />
    <glyph glyph-name="uni1EE1" unicode="&#x1ee1;" horiz-adv-x="383" 
d="M184 -4q-54 0 -82 16t-38 40.5t-10 48.5v269q0 25 10 49t39.5 40t87.5 16q57 0 86 -16t40 -40t11 -49v-255q0 -31 -11.5 -58.5t-42.5 -44t-90 -16.5zM184 27q50 0 78 21t28 68v248q0 41 -27 61t-72 20q-44 0 -71.5 -19.5t-27.5 -61.5v-256q0 -42 27 -61.5t65 -19.5z
M247 453l-3 17q35 0 47.5 12t11.5 38h24q0 -37 -18 -52t-62 -15zM94 530q0 39 14.5 56t36.5 17q20 0 34 -10.5t27 -22t28 -11.5q21 0 27 15t6 28h21q0 -38 -16 -53t-35 -15q-20 0 -34 11.5t-26.5 22.5t-27.5 11q-17 0 -25 -13t-8 -36h-22z" />
    <glyph glyph-name="uni1EE2" unicode="&#x1ee2;" horiz-adv-x="379" 
d="M189 -3q-66 0 -101.5 24t-35.5 69v448q0 38 32 64.5t105 25.5t105 -26.5t32 -64.5v-446q0 -45 -34.5 -69.5t-102.5 -24.5zM189 29q52 0 75.5 20.5t23.5 49.5v430q0 25 -21 46t-80 21q-55 0 -76 -20.5t-21 -45.5v-431q0 -30 24 -50t75 -20zM256 603l-3 17q35 0 47.5 12
t11.5 38h24q0 -37 -18 -52t-62 -15zM189 -89q-16 0 -18.5 5.5t-2.5 15.5q0 11 2.5 16.5t17.5 5.5q16 0 18.5 -5.5t2.5 -16.5q0 -10 -2.5 -15.5t-17.5 -5.5z" />
    <glyph glyph-name="uni1EE3" unicode="&#x1ee3;" horiz-adv-x="383" 
d="M184 -4q-54 0 -82 16t-38 40.5t-10 48.5v269q0 25 10 49t39.5 40t87.5 16q57 0 86 -16t40 -40t11 -49v-255q0 -31 -11.5 -58.5t-42.5 -44t-90 -16.5zM184 27q50 0 78 21t28 68v248q0 41 -27 61t-72 20q-44 0 -71.5 -19.5t-27.5 -61.5v-256q0 -42 27 -61.5t65 -19.5z
M247 453l-3 17q35 0 47.5 12t11.5 38h24q0 -37 -18 -52t-62 -15zM191 -89q-16 0 -18.5 5.5t-2.5 15.5q0 11 2.5 16.5t17.5 5.5q16 0 18.5 -5.5t2.5 -16.5q0 -10 -2.5 -15.5t-17.5 -5.5z" />
    <glyph glyph-name="uni1EE4" unicode="&#x1ee4;" horiz-adv-x="390" 
d="M195 -5q-37 0 -68 9t-49.5 29.5t-18.5 55.5v531h39v-517q0 -20 8 -37.5t28.5 -28.5t60.5 -11q42 0 63 11t28 28.5t7 37.5v517h38v-531q0 -35 -17.5 -55.5t-48 -29.5t-70.5 -9zM195 -89q-16 0 -18.5 5.5t-2.5 15.5q0 11 2.5 16.5t17.5 5.5q16 0 18.5 -5.5t2.5 -16.5
q0 -10 -2.5 -15.5t-17.5 -5.5z" />
    <glyph glyph-name="uni1EE5" unicode="&#x1ee5;" 
d="M182 0q-53 0 -79.5 15.5t-35 37.5t-8.5 44v373h38v-358q0 -44 27 -62.5t72 -18.5h99v439h38v-470h-151zM197 -89q-16 0 -18.5 5.5t-2.5 15.5q0 11 2.5 16.5t17.5 5.5q16 0 18.5 -5.5t2.5 -16.5q0 -10 -2.5 -15.5t-17.5 -5.5z" />
    <glyph glyph-name="uni1EE6" unicode="&#x1ee6;" horiz-adv-x="390" 
d="M195 -5q-37 0 -68 9t-49.5 29.5t-18.5 55.5v531h39v-517q0 -20 8 -37.5t28.5 -28.5t60.5 -11q42 0 63 11t28 28.5t7 37.5v517h38v-531q0 -35 -17.5 -55.5t-48 -29.5t-70.5 -9zM182 686q0 12 8 20.5t19 16t19.5 17t8.5 23.5q0 16 -13 25.5t-30 9.5q-23 0 -34 -13t-14 -30
l-19 7q3 27 21.5 42t50.5 15q30 0 46.5 -15t16.5 -37q0 -20 -8.5 -31.5t-19 -18.5t-18.5 -13.5t-8 -17.5h-26z" />
    <glyph glyph-name="uni1EE7" unicode="&#x1ee7;" 
d="M182 0q-53 0 -79.5 15.5t-35 37.5t-8.5 44v373h38v-358q0 -44 27 -62.5t72 -18.5h99v439h38v-470h-151zM185 536q0 12 8 20.5t19 16t19.5 17t8.5 23.5q0 16 -13 25.5t-30 9.5q-23 0 -34 -13t-14 -30l-19 7q3 27 21.5 42t50.5 15q30 0 46.5 -15t16.5 -37q0 -20 -8.5 -31.5
t-19 -18.5t-18.5 -13.5t-8 -17.5h-26z" />
    <glyph glyph-name="uni1EE8" unicode="&#x1ee8;" horiz-adv-x="390" 
d="M195 -5q-37 0 -68 9t-49.5 29.5t-18.5 55.5v531h39v-517q0 -20 8 -37.5t28.5 -28.5t60.5 -11q42 0 63 11t28 28.5t7 37.5v517h38v-531q0 -35 -17.5 -55.5t-48 -29.5t-70.5 -9zM311 603l-3 17q35 0 47.5 12t11.5 38h24q0 -37 -18 -52t-62 -15zM151 686l94 85h41l-109 -85
h-26z" />
    <glyph glyph-name="uni1EE9" unicode="&#x1ee9;" 
d="M182 0q-53 0 -79.5 15.5t-35 37.5t-8.5 44v373h38v-358q0 -44 27 -62.5t72 -18.5h99v439h38v-470h-151zM312 453l-3 17q35 0 47.5 12t11.5 38h24q0 -37 -18 -52t-62 -15zM154 536l86 93h40l-100 -93h-26z" />
    <glyph glyph-name="uni1EEA" unicode="&#x1eea;" horiz-adv-x="390" 
d="M195 -5q-37 0 -68 9t-49.5 29.5t-18.5 55.5v531h39v-517q0 -20 8 -37.5t28.5 -28.5t60.5 -11q42 0 63 11t28 28.5t7 37.5v517h38v-531q0 -35 -17.5 -55.5t-48 -29.5t-70.5 -9zM311 603l-3 17q35 0 47.5 12t11.5 38h24q0 -37 -18 -52t-62 -15zM197 686l-109 85h41l94 -85
h-26z" />
    <glyph glyph-name="uni1EEB" unicode="&#x1eeb;" 
d="M182 0q-53 0 -79.5 15.5t-35 37.5t-8.5 44v373h38v-358q0 -44 27 -62.5t72 -18.5h99v439h38v-470h-151zM312 453l-3 17q35 0 47.5 12t11.5 38h24q0 -37 -18 -52t-62 -15zM199 536l-100 93h41l85 -93h-26z" />
    <glyph glyph-name="uni1EEC" unicode="&#x1eec;" horiz-adv-x="390" 
d="M195 -5q-37 0 -68 9t-49.5 29.5t-18.5 55.5v531h39v-517q0 -20 8 -37.5t28.5 -28.5t60.5 -11q42 0 63 11t28 28.5t7 37.5v517h38v-531q0 -35 -17.5 -55.5t-48 -29.5t-70.5 -9zM311 603l-3 17q35 0 47.5 12t11.5 38h24q0 -37 -18 -52t-62 -15zM182 686q0 12 8 20.5t19 16
t19.5 17t8.5 23.5q0 16 -13 25.5t-30 9.5q-23 0 -34 -13t-14 -30l-19 7q3 27 21.5 42t50.5 15q30 0 46.5 -15t16.5 -37q0 -20 -8.5 -31.5t-19 -18.5t-18.5 -13.5t-8 -17.5h-26z" />
    <glyph glyph-name="uni1EED" unicode="&#x1eed;" 
d="M182 0q-53 0 -79.5 15.5t-35 37.5t-8.5 44v373h38v-358q0 -44 27 -62.5t72 -18.5h99v439h38v-470h-151zM312 453l-3 17q35 0 47.5 12t11.5 38h24q0 -37 -18 -52t-62 -15zM185 536q0 12 8 20.5t19 16t19.5 17t8.5 23.5q0 16 -13 25.5t-30 9.5q-23 0 -34 -13t-14 -30l-19 7
q3 27 21.5 42t50.5 15q30 0 46.5 -15t16.5 -37q0 -20 -8.5 -31.5t-19 -18.5t-18.5 -13.5t-8 -17.5h-26z" />
    <glyph glyph-name="uni1EEE" unicode="&#x1eee;" horiz-adv-x="390" 
d="M195 -5q-37 0 -68 9t-49.5 29.5t-18.5 55.5v531h39v-517q0 -20 8 -37.5t28.5 -28.5t60.5 -11q42 0 63 11t28 28.5t7 37.5v517h38v-531q0 -35 -17.5 -55.5t-48 -29.5t-70.5 -9zM311 603l-3 17q35 0 47.5 12t11.5 38h24q0 -37 -18 -52t-62 -15zM98 680q0 39 14.5 56
t36.5 17q20 0 34 -10.5t27 -22t28 -11.5q21 0 27 15t6 28h21q0 -38 -16 -53t-35 -15q-20 0 -34 11.5t-26.5 22.5t-27.5 11q-17 0 -25 -13t-8 -36h-22z" />
    <glyph glyph-name="uni1EEF" unicode="&#x1eef;" 
d="M182 0q-53 0 -79.5 15.5t-35 37.5t-8.5 44v373h38v-358q0 -44 27 -62.5t72 -18.5h99v439h38v-470h-151zM312 453l-3 17q35 0 47.5 12t11.5 38h24q0 -37 -18 -52t-62 -15zM101 530q0 39 14.5 56t36.5 17q20 0 34 -10.5t27 -22t28 -11.5q21 0 27 15t6 28h21q0 -38 -16 -53
t-35 -15q-20 0 -34 11.5t-26.5 22.5t-27.5 11q-17 0 -25 -13t-8 -36h-22z" />
    <glyph glyph-name="uni1EF0" unicode="&#x1ef0;" horiz-adv-x="390" 
d="M195 -5q-37 0 -68 9t-49.5 29.5t-18.5 55.5v531h39v-517q0 -20 8 -37.5t28.5 -28.5t60.5 -11q42 0 63 11t28 28.5t7 37.5v517h38v-531q0 -35 -17.5 -55.5t-48 -29.5t-70.5 -9zM311 603l-3 17q35 0 47.5 12t11.5 38h24q0 -37 -18 -52t-62 -15zM195 -89q-16 0 -18.5 5.5
t-2.5 15.5q0 11 2.5 16.5t17.5 5.5q16 0 18.5 -5.5t2.5 -16.5q0 -10 -2.5 -15.5t-17.5 -5.5z" />
    <glyph glyph-name="uni1EF1" unicode="&#x1ef1;" 
d="M182 0q-53 0 -79.5 15.5t-35 37.5t-8.5 44v373h38v-358q0 -44 27 -62.5t72 -18.5h99v439h38v-470h-151zM312 453l-3 17q35 0 47.5 12t11.5 38h24q0 -37 -18 -52t-62 -15zM197 -89q-16 0 -18.5 5.5t-2.5 15.5q0 11 2.5 16.5t17.5 5.5q16 0 18.5 -5.5t2.5 -16.5
q0 -10 -2.5 -15.5t-17.5 -5.5z" />
    <glyph glyph-name="Ygrave" unicode="&#x1ef2;" horiz-adv-x="338" 
d="M149 0v262l-136 358h36l118 -306l2 -12h1l2 12l116 306h37l-138 -358v-262h-38zM170 686l-109 85h41l94 -85h-26z" />
    <glyph glyph-name="ygrave" unicode="&#x1ef3;" horiz-adv-x="318" 
d="M-6 -170l2 26h35q37 0 59.5 16.5t34.5 66.5l17 66l-127 465h37l107 -403l1 -9h-3l1 9l107 403h38l-146 -540q-15 -54 -39.5 -77t-80.5 -23h-43zM163 536l-100 93h41l85 -93h-26z" />
    <glyph glyph-name="uni1EF4" unicode="&#x1ef4;" horiz-adv-x="338" 
d="M149 0v262l-136 358h36l118 -306l2 -12h1l2 12l116 306h37l-138 -358v-262h-38zM168 -89q-16 0 -18.5 5.5t-2.5 15.5q0 11 2.5 16.5t17.5 5.5q16 0 18.5 -5.5t2.5 -16.5q0 -10 -2.5 -15.5t-17.5 -5.5z" />
    <glyph glyph-name="uni1EF5" unicode="&#x1ef5;" horiz-adv-x="318" 
d="M-6 -170l2 26h35q37 0 59.5 16.5t34.5 66.5l17 66l-127 465h37l107 -403l1 -9h-3l1 9l107 403h38l-146 -540q-15 -54 -39.5 -77t-80.5 -23h-43zM247 -89q-16 0 -18.5 5.5t-2.5 15.5q0 11 2.5 16.5t17.5 5.5q16 0 18.5 -5.5t2.5 -16.5q0 -10 -2.5 -15.5t-17.5 -5.5z" />
    <glyph glyph-name="uni1EF6" unicode="&#x1ef6;" horiz-adv-x="338" 
d="M149 0v262l-136 358h36l118 -306l2 -12h1l2 12l116 306h37l-138 -358v-262h-38zM155 686q0 12 8 20.5t19 16t19.5 17t8.5 23.5q0 16 -13 25.5t-30 9.5q-23 0 -34 -13t-14 -30l-19 7q3 27 21.5 42t50.5 15q30 0 46.5 -15t16.5 -37q0 -20 -8.5 -31.5t-19 -18.5t-18.5 -13.5
t-8 -17.5h-26z" />
    <glyph glyph-name="uni1EF7" unicode="&#x1ef7;" horiz-adv-x="318" 
d="M-6 -170l2 26h35q37 0 59.5 16.5t34.5 66.5l17 66l-127 465h37l107 -403l1 -9h-3l1 9l107 403h38l-146 -540q-15 -54 -39.5 -77t-80.5 -23h-43zM148 536q0 12 8 20.5t19 16t19.5 17t8.5 23.5q0 16 -13 25.5t-30 9.5q-23 0 -34 -13t-14 -30l-19 7q3 27 21.5 42t50.5 15
q30 0 46.5 -15t16.5 -37q0 -20 -8.5 -31.5t-19 -18.5t-18.5 -13.5t-8 -17.5h-26z" />
    <glyph glyph-name="uni1EF8" unicode="&#x1ef8;" horiz-adv-x="338" 
d="M149 0v262l-136 358h36l118 -306l2 -12h1l2 12l116 306h37l-138 -358v-262h-38zM71 680q0 39 14.5 56t36.5 17q20 0 34 -10.5t27 -22t28 -11.5q21 0 27 15t6 28h21q0 -38 -16 -53t-35 -15q-20 0 -34 11.5t-26.5 22.5t-27.5 11q-17 0 -25 -13t-8 -36h-22z" />
    <glyph glyph-name="uni1EF9" unicode="&#x1ef9;" horiz-adv-x="318" 
d="M-6 -170l2 26h35q37 0 59.5 16.5t34.5 66.5l17 66l-127 465h37l107 -403l1 -9h-3l1 9l107 403h38l-146 -540q-15 -54 -39.5 -77t-80.5 -23h-43zM64 530q0 39 14.5 56t36.5 17q20 0 34 -10.5t27 -22t28 -11.5q21 0 27 15t6 28h21q0 -38 -16 -53t-35 -15q-20 0 -34 11.5
t-26.5 22.5t-27.5 11q-17 0 -25 -13t-8 -36h-22z" />
    <glyph glyph-name="uni2010" unicode="&#x2010;" horiz-adv-x="384" 
d="M68 287v32h249v-32h-249z" />
    <glyph glyph-name="endash" unicode="&#x2013;" horiz-adv-x="445" 
d="M68 287v32h310v-32h-310z" />
    <glyph glyph-name="emdash" unicode="&#x2014;" horiz-adv-x="630" 
d="M68 287v32h495v-32h-495z" />
    <glyph glyph-name="quoteleft" unicode="&#x2018;" horiz-adv-x="197" 
d="M125 629q-14 -26 -22.5 -54t-8.5 -57q14 0 17 -5t3 -12t-1 -13t-5.5 -9t-16.5 -3q-14 0 -17 6t-3 17q0 22 4.5 47t12.5 47.5t16 35.5h21z" />
    <glyph glyph-name="quoteright" unicode="&#x2019;" horiz-adv-x="197" 
d="M71 480q15 27 23 54.5t8 56.5q-14 0 -16.5 5t-2.5 12q0 8 0.5 13.5t5.5 8.5t16 3q15 0 18 -6t3 -17q0 -22 -5 -47t-12 -47t-16 -36h-22z" />
    <glyph glyph-name="quotesinglbase" unicode="&#x201a;" horiz-adv-x="186" 
d="M80 -133l-8 214h41l-6 -214h-27z" />
    <glyph glyph-name="quotedblleft" unicode="&#x201c;" horiz-adv-x="291" 
d="M220 629q-14 -26 -22.5 -54t-8.5 -57q14 0 16.5 -5t2.5 -12t-0.5 -13t-5 -9t-16.5 -3q-15 0 -18 6t-3 17q0 22 5 47t12.5 47.5t15.5 35.5h22zM125 629q-14 -26 -22.5 -54t-8.5 -57q14 0 17 -5t3 -12t-1 -13t-5.5 -9t-16.5 -3q-14 0 -17 6t-3 17q0 22 4.5 47t12.5 47.5
t16 35.5h21z" />
    <glyph glyph-name="quotedblright" unicode="&#x201d;" horiz-adv-x="292" 
d="M71 480q15 27 23 54.5t8 56.5q-14 0 -16.5 5t-2.5 12q0 8 0.5 13.5t5.5 8.5t16 3q15 0 18 -6t3 -17q0 -22 -5 -47t-12 -47t-16 -36h-22zM166 480q15 27 23 54.5t8 56.5q-14 0 -16.5 5t-2.5 12q0 8 0.5 13.5t5.5 8.5t16 3q15 0 18 -6t3 -17q0 -22 -5 -47t-12 -47t-16 -36
h-22z" />
    <glyph glyph-name="quotedblbase" unicode="&#x201e;" horiz-adv-x="342" 
d="M205 -133l23 214h42l-38 -214h-27zM72 -133l22 214h42l-37 -214h-27z" />
    <glyph glyph-name="dagger" unicode="&#x2020;" horiz-adv-x="320" 
d="M144 649h32v-722h-32v722zM36 386v32h249v-32h-249z" />
    <glyph glyph-name="daggerdbl" unicode="&#x2021;" horiz-adv-x="320" 
d="M144 649h32v-722h-32v722zM40 303v28h240v-28h-240zM40 447v28h240v-28h-240z" />
    <glyph glyph-name="bullet" unicode="&#x2022;" horiz-adv-x="309" 
d="M153 181q-38 0 -64.5 28t-26.5 69q0 38 27 64.5t65 26.5q39 0 66 -27.5t27 -66.5t-27 -66.5t-67 -27.5z" />
    <glyph glyph-name="ellipsis" unicode="&#x2026;" horiz-adv-x="383" 
d="M72 5q-16 0 -18.5 5.5t-2.5 15.5q0 11 2.5 17t18.5 6q15 0 18.5 -6t3.5 -17q0 -10 -3.5 -15.5t-18.5 -5.5zM186 5q-16 0 -18.5 5.5t-2.5 15.5q0 11 2.5 17t18.5 6q15 0 18.5 -6t3.5 -17q0 -10 -3.5 -15.5t-18.5 -5.5zM297 5q-16 0 -18.5 5.5t-2.5 15.5q0 11 2.5 17
t18.5 6q15 0 18.5 -6t3.5 -17q0 -10 -3.5 -15.5t-18.5 -5.5z" />
    <glyph glyph-name="perthousand" unicode="&#x2030;" horiz-adv-x="758" 
d="M68 -44l340 674h28l-342 -674h-26zM401 8q-35 0 -53 8.5t-24.5 21t-6.5 24.5v142q0 14 6.5 26.5t26 21t57.5 8.5q37 0 55.5 -8t25.5 -20.5t7 -26.5v-135q0 -16 -7 -30.5t-27 -23t-60 -8.5zM401 27q34 0 52 9.5t18 34.5v130q0 23 -17 31.5t-47 8.5t-48 -8.5t-18 -31.5
v-134q0 -22 17 -31t43 -9zM124 366q-35 0 -53.5 8.5t-24.5 21.5t-6 26v142q0 13 6.5 26t26 21.5t56.5 8.5t56 -8.5t26 -21.5t7 -26v-134q0 -17 -7.5 -31.5t-27.5 -23.5t-59 -9zM124 387q34 0 52 9t18 34v130q0 22 -17 31t-48 9q-29 0 -47 -9t-18 -31v-134q0 -22 17 -30.5
t43 -8.5zM624 8q-35 0 -53 8.5t-25 21t-7 24.5v142q0 14 7 26.5t26.5 21t57.5 8.5q37 0 55.5 -8t25.5 -20.5t7 -26.5v-135q0 -16 -7 -30.5t-27.5 -23t-59.5 -8.5zM624 27q34 0 52 9.5t18 34.5v130q0 23 -17 31.5t-48 8.5q-30 0 -47 -8.5t-17 -31.5v-134q0 -22 17 -31t42 -9z
" />
    <glyph glyph-name="minute" unicode="&#x2032;" horiz-adv-x="186" 
d="M80 423l-8 214h41l-6 -214h-27z" />
    <glyph glyph-name="second" unicode="&#x2033;" horiz-adv-x="319" 
d="M213 423l-8 214h43l-8 -214h-27zM80 423l-8 214h41l-6 -214h-27z" />
    <glyph glyph-name="guilsinglleft" unicode="&#x2039;" horiz-adv-x="313" 
d="M201 53l-129 185l134 193h35l-133 -193l128 -185h-35z" />
    <glyph glyph-name="guilsinglright" unicode="&#x203a;" horiz-adv-x="313" 
d="M77 53l128 185l-133 193h36l133 -193l-129 -185h-35z" />
    <glyph glyph-name="fraction" unicode="&#x2044;" horiz-adv-x="154" 
d="M-119 -44l380 674h34l-382 -674h-32z" />
    <glyph glyph-name="uni2052" unicode="&#x2052;" horiz-adv-x="592" 
d="M98 371q-23 0 -38.5 16.5t-15.5 40.5q0 23 16 38.5t38 15.5q24 0 39.5 -16t15.5 -39q0 -24 -15.5 -40t-39.5 -16zM480 167q-23 0 -38.5 16.5t-15.5 40.5q0 23 16 38.5t38 15.5q24 0 39.5 -16t15.5 -39q0 -24 -15.5 -40t-39.5 -16zM109 13l333 630l19 -3l-335 -629z" />
    <glyph glyph-name="uni2074" unicode="&#x2074;" horiz-adv-x="278" 
d="M185 226v81h-166l-14 24l175 298h43l-1 -298h55l-6 -24h-48v-81h-38zM42 331h143v253z" />
    <glyph glyph-name="colonmonetary" unicode="&#x20a1;" horiz-adv-x="340" 
d="M170 -6q-66 0 -100.5 25t-34.5 76v424q0 54 31 81.5t101 27.5q72 0 105 -26.5t33 -83.5v-132l-32 -6v130q0 39 -21.5 62t-82.5 23q-59 0 -79 -23.5t-20 -60.5v-408q0 -34 23.5 -55.5t75.5 -21.5q56 0 80 21.5t24 56.5v124l32 7v-139q0 -52 -35 -77t-100 -25zM103 -85
l50 764h14l-51 -764h-13zM169 -85l50 764h15l-51 -764h-14z" />
    <glyph glyph-name="franc" unicode="&#x20a3;" horiz-adv-x="372" 
d="M0 164v25h220v-25h-220zM75 620h270v-31h-231v-223h216l-7 -30h-209v-336h-39v620z" />
    <glyph glyph-name="lira" unicode="&#x20a4;" horiz-adv-x="423" 
d="M283 -2q-19 0 -51 4t-66 8.5t-59 4.5q-18 0 -31.5 -2.5t-20.5 -7.5v17q42 43 59 93.5t17 128.5q0 55 -11.5 103t-23 88.5t-11.5 73.5q0 64 36 92t90 28q57 0 92 -30.5t35 -104.5v-43h-40v37q0 66 -25.5 91t-62.5 25q-39 0 -63 -24t-24 -68q0 -33 11.5 -72.5t22.5 -88
t11 -110.5q0 -80 -17.5 -128t-50.5 -74q5 1 11.5 1h13.5q21 0 45 -4t48 -7.5t42 -3.5q28 0 48 17.5t20 68.5v63l41 8v-61q0 -34 -5.5 -62t-24 -44.5t-56.5 -16.5zM55 199l6 21h202l-6 -21h-202zM55 278l6 20h206l-6 -20h-206z" />
    <glyph glyph-name="uni20A6" unicode="&#x20a6;" horiz-adv-x="398" 
d="M57 0v620h40l201 -544v544h39v-620h-42l-199 521v-521h-39zM21 263l5 16h352l-4 -16h-353zM21 341l5 16h352l-4 -16h-353z" />
    <glyph glyph-name="peseta" unicode="&#x20a7;" horiz-adv-x="464" 
d="M84 620h179q43 0 63.5 -10.5t27 -32t6.5 -53.5v-156q0 -36 -6 -67.5t-31 -51t-82 -19.5h-117v-230h-40v620zM234 261q43 0 65.5 22t22.5 72v156q0 43 -15.5 60.5t-59.5 17.5h-123v-328h110zM21 407v19h431v-19h-431z" />
    <glyph glyph-name="uni20A9" unicode="&#x20a9;" horiz-adv-x="606" 
d="M164 0l-117 620h39l99 -542l1 -13h1v13l102 509h32l94 -509l1 -13h1v13l96 542h40l-115 -620h-42l-90 494v9h-1l-1 -9l-99 -494h-41zM20 391l6 16h564l-6 -16h-564zM20 462l6 16h564l-6 -16h-564z" />
    <glyph glyph-name="dong" unicode="&#x20ab;" horiz-adv-x="358" 
d="M93 -72v21h225v-21h-225zM132 0q-31 0 -47 6.5t-21.5 28.5t-5.5 69v278q0 37 7.5 56t28.5 25.5t63 6.5h137v160h38v-630h-200zM294 31v408h-137q-38 0 -49.5 -10.5t-11.5 -47.5v-289q0 -40 11 -50.5t40 -10.5h147zM146 529v21h224v-21h-224z" />
    <glyph glyph-name="Euro" unicode="&#x20ac;" horiz-adv-x="383" 
d="M208 -6q-65 0 -99.5 25t-34.5 76v424q0 54 31 81.5t100 27.5q73 0 106.5 -26.5t33.5 -83.5v-97l-39 -6v95q0 39 -20.5 62t-77.5 23q-56 0 -75.5 -23.5t-19.5 -60.5v-408q0 -34 22.5 -55.5t72.5 -21.5q51 0 74.5 21.5t23.5 56.5v92l39 6v-106q0 -52 -36 -77t-101 -25z
M19 243v20h216l-11 -20h-205zM19 341v20h272l-11 -20h-261z" />
    <glyph glyph-name="uni20AD" unicode="&#x20ad;" horiz-adv-x="364" 
d="M2 322v28h346v-28h-346zM315 -8l-178 343l167 289l29 -18l-156 -270l173 -326zM71 620h39v-620h-39v620z" />
    <glyph glyph-name="uni20B1" unicode="&#x20b1;" horiz-adv-x="464" 
d="M84 620h179q43 0 63.5 -10.5t27 -32t6.5 -53.5v-156q0 -36 -6 -67.5t-31 -51t-82 -19.5h-117v-230h-40v620zM21 391v16h431v-16h-431zM234 254q43 0 65.5 22t22.5 72v163q0 32 -7 49.5t-23 24.5t-45 7h-123v-338h110zM21 462v17h431v-17h-431z" />
    <glyph glyph-name="uni20B2" unicode="&#x20b2;" horiz-adv-x="344" 
d="M176 -3q-44 0 -76 7t-48.5 26.5t-16.5 56.5v449q0 53 37 70.5t103 17.5q65 0 99.5 -18t34.5 -71v-109l-33 -5v108q0 39 -25.5 51t-74.5 12t-77.5 -10.5t-28.5 -51.5v-438q0 -29 13.5 -42t37.5 -17t55 -4q29 0 51 4t33.5 17t11.5 42v208h-103l5 33h135v-246
q0 -37 -15.5 -56.5t-45 -26.5t-72.5 -7zM140 -85l50 764h14l-50 -764h-14z" />
    <glyph glyph-name="uni20B5" unicode="&#x20b5;" horiz-adv-x="340" 
d="M170 -6q-66 0 -100.5 25t-34.5 76v424q0 54 31 81.5t101 27.5q72 0 105 -26.5t33 -83.5v-132l-34 -6v130q0 39 -20.5 62t-81.5 23q-57 0 -77 -23.5t-20 -60.5v-408q0 -34 23 -55.5t74 -21.5q55 0 78.5 21.5t23.5 56.5v124l34 7v-139q0 -52 -35 -77t-100 -25zM141 -85
l50 764h13l-48 -764h-15z" />
    <glyph glyph-name="uni20B9" unicode="&#x20b9;" horiz-adv-x="491" 
d="M100 230v23h134q42 0 65 21t23 72v173q0 41 -16 57t-61 16h-224v28h242q43 0 63.5 -10.5t27 -32t6.5 -53.5v-156q0 -36 -6 -67.5t-31 -51t-82 -19.5h-141zM335 -6l-140 250l34 3l136 -236zM21 416l6 24h432l-7 -24h-431z" />
    <glyph glyph-name="uni20BA" unicode="&#x20ba;" horiz-adv-x="415" 
d="M134 6q-18 0 -30 10t-12 38v566h39v-549q0 -18 7 -25t21 -7h44q50 1 78.5 8t42 26.5t13.5 56.5v235l38 16v-255q0 -71 -40.5 -95.5t-130.5 -24.5h-70zM8 205v24l239 55v-24zM8 334v24l239 55v-23z" />
    <glyph glyph-name="uni20BC" unicode="&#x20bc;" horiz-adv-x="446" 
d="M36 8l30 531q3 53 45 73.5t112 20.5q74 0 113.5 -20.5t42.5 -73.5l30 -531h-38l-30 517q-1 20 -9 37t-32.5 28t-76.5 11q-49 0 -74.5 -10.5t-34 -28t-9.5 -37.5l-30 -517h-39zM214 576l8 108l10 -432l-9 -108z" />
    <glyph glyph-name="uni20BD" unicode="&#x20bd;" horiz-adv-x="472" 
d="M84 620h179q43 0 63.5 -10.5t27 -32t6.5 -53.5v-156q0 -36 -6 -67.5t-31 -51t-82 -19.5h-117v-230h-40v620zM21 230v23h94v-23h-94zM234 254q43 0 65.5 22t22.5 72v163q0 32 -7 49.5t-23 24.5t-45 7h-123v-338h110zM21 416v24h431v-24h-431z" />
    <glyph glyph-name="uni2116" unicode="&#x2116;" horiz-adv-x="788" 
d="M63 0v620h39l199 -533l1 -5l1 -2v540h39v-620h-42l-196 517l-2 7h-1v-524h-38zM589 -4q-54 0 -82 16t-38 40.5t-10 48.5v269q0 25 10 49t39.5 40t87.5 16q57 0 86 -16t40 -40t11 -49v-255q0 -31 -11.5 -58.5t-42.5 -44t-90 -16.5zM589 27q50 0 78 21t28 68v248
q0 41 -27 61t-72 20q-44 0 -71.5 -19.5t-27.5 -61.5v-256q0 -42 27 -61.5t65 -19.5z" />
    <glyph glyph-name="trademark" unicode="&#x2122;" horiz-adv-x="493" 
d="M210 240v372h33l94 -304h1l95 304h34v-372h-26v319l-4 -13l-87 -270h-25l-85 267l-3 10v-313h-27zM86 240v351h-66v21h157v-21h-64v-351h-27z" />
    <glyph glyph-name="partialdiff" unicode="&#x2202;" horiz-adv-x="385" 
d="M190 -1q-54 0 -83.5 11.5t-40 45t-10.5 99.5v171q0 77 27 110.5t101 33.5q39 0 63.5 -10.5t39.5 -29.5l-5 -4q-6 73 -41.5 121.5t-106.5 48.5h-67v24h83q50 0 90 -26t64 -85t24 -157l1 -229q0 -37 -6.5 -60.5t-21.5 -37.5t-42 -20t-69 -6zM190 32q60 0 80.5 20t20.5 70
v242q0 34 -21 56.5t-78 22.5q-31 0 -53 -9t-33.5 -33t-11.5 -72v-189q0 -45 9.5 -68.5t30.5 -31.5t56 -8z" />
    <glyph glyph-name="uni2206" unicode="&#x2206;" horiz-adv-x="490" 
d="M24 0l201 592h45l195 -592h-441zM414 27l-175 533l-181 -533h356z" />
    <glyph glyph-name="product" unicode="&#x220f;" horiz-adv-x="493" 
d="M138 0v591h-94v29h406v-29h-87v-591h-39v591h-148v-591h-38z" />
    <glyph glyph-name="summation" unicode="&#x2211;" horiz-adv-x="419" 
d="M56 22l212 294l-204 287v17h299v-24l-246 -1l192 -272l-212 -292h266v-31h-307v22z" />
    <glyph glyph-name="minus" unicode="&#x2212;" horiz-adv-x="390" 
d="M56 296v23h279v-23h-279z" />
    <glyph glyph-name="uni2215" unicode="&#x2215;" horiz-adv-x="465" 
d="M39 -44l340 674h27l-342 -674h-25z" />
    <glyph glyph-name="uni2219" unicode="&#x2219;" horiz-adv-x="353" 
d="M169 224q-24 0 -39 16.5t-15 40.5q0 23 15.5 38.5t38.5 15.5t39 -16t16 -39q0 -24 -16 -40t-39 -16z" />
    <glyph glyph-name="radical" unicode="&#x221a;" horiz-adv-x="528" 
d="M258 8l-101 352l-103 -54v27l124 68l94 -341l160 561h42l-189 -613h-27z" />
    <glyph glyph-name="infinity" unicode="&#x221e;" horiz-adv-x="819" 
d="M200 75q-74 0 -109 43.5t-35 129.5t35 130t109 44q38 0 70.5 -18.5t59 -45.5t47 -52t33.5 -40q13 14 32 39t44.5 52t57 46t69.5 19q79 0 114.5 -44t35.5 -130t-36.5 -129.5t-113.5 -43.5q-36 0 -67 16.5t-57 41t-46 48.5t-33 39q-14 -16 -34 -40.5t-46.5 -48.5t-59 -40
t-70.5 -16zM210 108q44 0 91.5 36t91.5 97q-29 36 -57 69.5t-58.5 55.5t-67.5 22q-62 0 -88 -35.5t-26 -105.5q0 -68 26 -103.5t88 -35.5zM603 109q55 0 87.5 33t32.5 106q0 76 -32.5 108.5t-87.5 32.5q-31 0 -57 -17t-48 -41.5t-39 -49t-31 -40.5q14 -15 33.5 -37.5t43 -44
t48.5 -36t50 -14.5z" />
    <glyph glyph-name="integral" unicode="&#x222b;" horiz-adv-x="268" 
d="M-84 -172l-5 31h64q28 0 38 15t14 47l66 630q3 26 12 41.5t28 22t50 6.5h74l-3 -23h-58q-35 0 -48.5 -11.5t-16.5 -40.5l-67 -634q-4 -45 -22.5 -64.5t-60.5 -19.5h-65z" />
    <glyph glyph-name="approxequal" unicode="&#x2248;" horiz-adv-x="446" 
d="M54 330q0 39 24.5 56.5t62.5 17.5q33 0 57 -11t45 -22.5t47 -11.5q33 0 46.5 15t13.5 30h31q0 -26 -12 -42t-31.5 -23t-42.5 -7q-25 0 -43.5 7t-35 16.5t-33 16t-36.5 6.5q-27 0 -43 -13t-16 -35h-34zM64 143q0 39 24.5 56.5t62.5 17.5q33 0 57 -11t45 -22.5t47 -11.5
q33 0 46.5 15t13.5 30h31q0 -26 -12 -42t-31.5 -23t-42.5 -7q-25 0 -43.5 7t-35 16.5t-33 16t-36.5 6.5q-27 0 -43 -13t-16 -35h-34z" />
    <glyph glyph-name="notequal" unicode="&#x2260;" horiz-adv-x="377" 
d="M59 -44l242 514h28l-245 -514h-25zM56 106v24h273v-24h-273zM56 296v23h273v-23h-273z" />
    <glyph glyph-name="lessequal" unicode="&#x2264;" horiz-adv-x="416" 
d="M334 124l-247 189v26l247 191v-33l-222 -171l222 -169v-33zM97 -6v24h234v-24h-234z" />
    <glyph glyph-name="greaterequal" unicode="&#x2265;" horiz-adv-x="416" 
d="M87 124v33l223 169l-223 171v33l247 -191v-26zM87 -6v24h247v-24h-247z" />
    <glyph glyph-name="lozenge" unicode="&#x25ca;" horiz-adv-x="529" 
d="M256 0l-186 323l187 320h19l183 -320l-183 -323h-20zM266 41l163 282l-163 278l-164 -278z" />
    <glyph glyph-name="uni27E8" unicode="&#x27e8;" horiz-adv-x="275" 
d="M176 22l-103 339h28l101 -339h-26zM74 227l101 334h28l-103 -334h-26z" />
    <glyph glyph-name="uni27E9" unicode="&#x27e9;" horiz-adv-x="275" 
d="M73 22l102 339h28l-104 -339h-26zM176 227l-103 334h28l101 -334h-26z" />
    <glyph glyph-name="uniF8FF" unicode="&#xf8ff;" horiz-adv-x="427" 
d="M147 -15q1 0 1 2q0 1 -0.5 2t-0.5 2t2 3v5q-2 1 -2 4t-10 3q-4 -1 -7 -1.5t-6 -0.5v3h-1v11q-1 3 -4.5 5.5t-5.5 3.5v3h-1v2l-10 9h-16q-1 3 -4 6t-3 7v4l-11 8v24q2 5 2.5 9.5t4.5 10.5l4 6v13v11t-1 9l-5 17v10q-1 4 -2 5t-1 4v14h1v5h-1v7h-3l-5 2l0.5 -1.5t-1.5 -0.5
h-3v9h4q0 2 0.5 2.5t0.5 4.5h4q0 -2 1 -2v1h0.5t1.5 -1v-3h7v5q1 0 1.5 0.5l0.5 0.5v3h1v3q5 0 5 4v10q0 -1 -1 1t-5 3v9q1 1 1 0t1 2l3 11q0 1 0.5 1.5t0.5 1.5q0 3 -2.5 3t-2.5 3h-10v-3h-9v5q1 0 1 -0.5v-0.5q1 0 2 2l1 2h5v1h3v5h3v16h-3q-2 5 -6 5v3h-4v7h-2
q0 3 -1.5 3t-2.5 1v3q-1 1 -5 1h-5v18q0 4 1 4.5t1 5.5l-6 20q-3 11 -3 20v16q0 5 3 8.5t4 6.5v19q2 1 3 3t3 2v3q0 2 2 3l15 16v1h3q1 -1 3 -1l6 3l3 4v3h4l2 2q1 0 1.5 1l0.5 1l7 7l4 4t4 3l1 -1l1 0.5t2 0.5v2l3.5 7t5.5 7v3q0 3 2 3v-1q2 0 6 5.5t11 5.5v3h28l8 4
q2 2 8.5 7t13.5 5q3 0 4 -1l4 -2q3 -1 6.5 -4t4.5 -3q2 0 6.5 1t6.5 2q3 0 4 -1q2 0 7 2.5t19 2.5q6 0 9 -3l11 -10h18l16 -8v-2q4 -2 13.5 -5l9.5 -3v-8q1 -2 5 -3.5t6 -3.5q0 -6 5.5 -6t10.5 -3.5t5 -20.5l5 -8q0 -1 2 -4l2 -3l2 -7q0 -6 -2 -6v-11q-3 0 -3 -3v-13l6 -8
q5 -6 5.5 -16t0.5 -21v-12h-4v-10h-2q1 0 1 -0.5v-0.5h-3v-4q-2 -2 -2 -4t1 -6.5t2 -6.5q0 -1 -1 -2.5l-1 -1.5v-41h1v-5h2q-3 -6 -3 -9h-3q-3 -4 -4 -9v-9h-2q0 -3 -0.5 -3.5t-0.5 -3.5v-3q-1 -1 -2 -1.5t-1 -1.5v-4q0 -1 -2 -1h-3q-2 -4 -2 -5q-1 2 -1 1.5t-2 2.5h1
q0 1 -1 1h-3l3 4q-3 0 -4 1v2.5t4 1.5q0 1 -1 1.5l-1 0.5q0 1 1.5 1.5t1.5 3.5v2h4q0 4 -2 4q0 2 3 2v76q0 5 1.5 9t2.5 4v3q1 0 1.5 0.5t1.5 0.5v5h1v20q-1 0 -1 3v7h-3v3q-1 -1 -2 0.5t-2 1.5h-3v2h-2v2h-1v5h-3v7h-1v3q-3 0 -3 4q-1 -2 -3 -2h-7q0 2 -1 4l-3 2q1 0 1 1
l-1 -1v1l-2 4h-11l-7 10h-1v-1q-2 0 -3 1.5t-3 1.5t-4.5 -0.5t-1.5 -1.5h-4v-2h-4q0 -1 -1 -2t-6 -1t-9 0.5t-7 0.5v2q-1 -1 -1 1t-2 2h-2v3h-7v1h-2v4h-3q0 3 1.5 3.5t1.5 1.5q-3 3 -4 7t-5 3v3q-6 0 -16 -1.5t-10 -6.5v-1h-1l-0.5 -1.5t-1.5 -1.5q-2 0 -2 2v-4h-12l-2 3v2
h-5q-4 0 -5 -2.5t-4 -3.5v-3q-2 0 -4 3v-5q-5 0 -7.5 -2t-6.5 -5h-3v-2h-20q-1 -1 -3.5 -5t-2.5 -6q0 -1 0.5 -1t0.5 -1l-2 -2l-2 -3h-1t-2 -1q0 1 -0.5 1.5t-0.5 1.5q-5 0 -5 -3q-3 0 -3 2l-3 -2h-6q-1 0 -1.5 1t-2.5 1q-3 0 -4.5 -3l-1.5 -3v-1l6 -6v0.5t1 0.5h2
q0 -1 1 -2.5t1 -3.5q0 -1 -2 -1v-13q0 -1 0.5 -1.5t0.5 -1.5v-3l6 -4q0 -2 7 -2q1 2 3 2t2 4v3l3 3q3 3 3 4l-1 1h5v-3h2v-11q1 0 1.5 -2.5t0.5 -4.5h3q0 -1 2 -6t2 -7q-3 -1 -3 -3l1 -4q0 -1 -0.5 -1t-0.5 -2l-2 -2q-1 0 -1.5 -0.5l-0.5 -0.5h-4v-2h-1v-19l1 1v-3h11v-1
q2 3 8.5 3.5t13.5 0.5h26.5t17.5 -1l2 -2h6q2 -5 7.5 -11.5t6.5 -11.5l-2.5 -4t-4.5 -3l-2 -5q0 -11 -11 -11h-26l-7 -5v-1h-11v1h-4q0 1 -1 1v2q-1 0 -1 1h-3q0 1 -1 1h-9q0 2 -3.5 2.5t-1.5 2.5v2h-3q-1 0 -1 2v3h-12q0 1 -0.5 2l-1.5 3l-3 5h-9l-3 -3q-1 0 -1 0.5t-5 0.5
q-3 -5 -5.5 -6.5t-2.5 -6.5q0 -4 1.5 -4.5t1.5 -2.5h4q5 -4 7 -3t2 -4q0 -7 -6.5 -5t-6.5 -6q0 -3 0.5 -5.5t0.5 -5.5l3 -8q2 -5 2 -6.5t2 -4.5l3 -3q2 0 4 -0.5t3 -0.5h3t2 1h3l3 -3q4 -1 10 -1q5 0 10 1.5t8 1.5h2l7 1v2h3q3 3 4.5 5t6.5 6v1h1q1 1 1 0t1 -1t2 0.5l1 0.5
q3 -3 3 -8v-14q1 0 1.5 -0.5t1.5 -0.5h13l7 1v-1h6v-1h4v-4h6l2 -3h19q3 0 5.5 1.5t7.5 1.5v-4h2v-8q-1 0 -1.5 -0.5l-0.5 -0.5v-4q-1 1 -2 1q-7 -1 -8.5 -1t-3.5 -6h-4v-3q-4 2 -6 2t-3.5 -1.5t-6.5 -1.5v-4q0 -1 2 -3l5 -3v-2h-5q-2 0 -2.5 -0.5t-1.5 -0.5v1
q-5 0 -10.5 -0.5t-10.5 -0.5q-1 1 -1 2t-2 2l-2 3h-5v2h-10v-2q-1 -1 -2.5 -0.5t-1.5 -1.5v-10l3 -3q0 -1 0.5 -2t0.5 -3h15q1 0 1 -0.5t1 -0.5v-2q-1 -1 -4 -1h-8q-9 0 -12.5 3.5l-7 7t-12.5 3.5v-2q-1 0 -1.5 -1t-1.5 0v-4l-2 -3q0 -1 -2 -3q-2 2 -6 2v-2h-4q0 -3 -4 -7
l3 -3v-29h-3q0 -4 2.5 -5t1.5 -1l-1 -1l1 -0.5t3 -0.5h5q2 2 4 2l2 -4q1 -1 1 -2v-1q-1 -2 -1 -7v-7q1 0 1.5 -2t1.5 -2t1 -1l10 -8q0 -2 1 -2t2 1l1 1h3v-3h5q1 0 5 -2q2 0 4.5 1.5t3.5 1.5t1 -1v-2h7l2 -4h24q-1 0 0.5 -0.5t1.5 -2.5l1 1q1 -1 4 -3.5t4 -3.5h14l3 2
q-1 0 -1 0.5v0.5q0 2 3 2q4 -3 4 -9h-1q1 -1 1 -4q-7 0 -7.5 -5t-10.5 -5q1 -1 1 -1.5v-0.5v-0.5t-1 -0.5h-3q0 -1 -2 -5h-4v-5h-3v-5q-1 0 -1.5 0.5t-1.5 0.5q0 1 -2.5 -2.5t-2.5 -7.5l-6 -9h-9v-2q-1 -1 -3.5 -1.5t-4.5 -2.5q0 -3 1 -4l-2 -2h-5v-2h-3v-1h-2v-7h-55v3z
M61 240q-3 3 -3 5v3l-3 2l-0.5 0.5t-0.5 1.5v3h-2v2q-1 1 -1 6h1v1h3q2 -2 2 -3l1 -1h2v-3l2 -4t1 -3v-3h-1q0 -1 0.5 -1.5t0.5 -1.5h5q-2 -1 -3.5 -1.5t-3.5 -2.5zM54 283q-3 2 -3 4q3 2 3 4h-1v6h-2v8h1l1 1v-1h1v-4q0 -1 0.5 -1t0.5 -1t2 -1v-2l1 -1q1 0 1 -0.5t1 -0.5
v-8h-1l-2 -2v-1h-3zM221 126q-5 3 -5 4q-1 0 -1.5 -0.5l-0.5 -0.5q-1 0 -1 2h-6l-3 2q0 3 1 3v4h1q2 0 3 -0.5t6 -0.5q0 3 2 3h3q1 0 1 0.5t2 0.5h3q-3 2 -5 1.5t-2 2.5h-3q-1 -1 -2 0t-1 2l1 1v3h11q1 0 0.5 1t0.5 1l3 -2h5q0 2 3 2q2 0 4.5 -2.5t2.5 -4.5v-1h-8
q0 -2 -4 -2v-3q1 0 2 1h4q1 0 2 1q0 -1 4 -3t4 -6q2 0 -3.5 -2.5t-10.5 -2.5h-3q-1 -1 -6 -1v-2q-3 0 -4 -1zM238 158q-1 0 -1 4h2h0.5t1.5 -1v2h10q1 -1 1 -1.5v-0.5q-3 -3 -11 -3h-3zM287 74l-2 0.5t-2 2.5l2 4q-1 0 0 1.5t-1 2.5h4v2h1v2h2l3.5 5t7.5 6l-4 3l0.5 0.5
t1.5 0.5h2v7l2 3l-2 2h1l1 0.5t1 3.5v2h2v5h2q0 2 1.5 1.5t1.5 0.5v2h4v1h5q2 1 4 6.5t9 5.5q4 0 4 -5v-3q0 -1 -0.5 -1t-0.5 -1h1q0 -1 -1 -2h-2v-3q-1 -2 -3 -2t-4 -2l-6 -4q-3 -5 -6 -5l-2 -2l-2 -4t-3 -4v-3l-2 -3q-1 0 -1 0.5t-1 0.5q-4 0 -4 -5q1 -2 1 -5.5v-3.5v-7
h-5v-3h-6q-1 0 -1.5 -1.5t-2.5 -1.5zM297 260q-1 0 -4.5 5t-5.5 5h-17q0 1 -1 1q0 3 1 4t1 3v1t-1 2l-5 4q1 1 1 2v1l-1 6q2 0 2 2v1l1.5 1t0.5 2v3h1l4 4l3 1.5t6 1.5v2q0 2 1 3h7v2l7 1l4 -3h9l3 -5h5q0 -4 4 -4q2 0 5 2t4 2q0 -3 2 -4.5l2 -1.5l1 1v-4h4v-2q4 0 4 -2v-3
l-2 -2h1q0 -1 -2 -3t-2 -4q0 -1 1 -1t1 -1q0 -7 -9.5 -6.5t-13.5 -3.5v-2q-1 0 -2 -0.5t-3 -0.5v-3q-1 -1 -3 -2.5t-2 -3.5h-12v-1z" />
    <glyph glyph-name="acutecomb.case" horiz-adv-x="0" 
d="M0 536l94 85h41l-109 -85h-26z" />
    <glyph glyph-name="uni0306.case" horiz-adv-x="0" 
d="M96 531q-37 0 -57 14t-27.5 34.5t-7.5 40.5h26q0 -24 14.5 -46t51.5 -22q40 0 55 22t16 46h25q0 -39 -22 -64t-74 -25z" />
    <glyph glyph-name="uni03060301" horiz-adv-x="0" 
d="M96 531q-37 0 -57 14t-27.5 34.5t-7.5 40.5h26q0 -26 14.5 -46.5t51.5 -20.5q40 0 55.5 20t15.5 47h25q0 -37 -22 -63t-74 -26zM54 645l86 93h40l-100 -93h-26z" />
    <glyph glyph-name="uni03060301.case" horiz-adv-x="0" 
d="M82 423q-30 0 -47 11.5t-23.5 28t-6.5 33.5h26q0 -19 11.5 -35.5t39.5 -16.5q30 0 42 16.5t13 35.5h25q0 -32 -18.5 -52.5t-61.5 -20.5zM44 516l71 76h38l-82 -76h-27z" />
    <glyph glyph-name="uni03060300" horiz-adv-x="0" 
d="M99 531q-37 0 -57 14t-27.5 34.5t-7.5 40.5h26q0 -26 14.5 -46.5t51.5 -20.5q40 0 55.5 20t15.5 47h25q0 -37 -22 -63t-74 -26zM104 645l-100 93h41l85 -93h-26z" />
    <glyph glyph-name="uni03060300.case" horiz-adv-x="0" 
d="M85 423q-30 0 -47 11.5t-23 28.5t-6 33h25q0 -19 12 -35.5t40 -16.5q30 0 41.5 16.5t11.5 35.5h27q0 -32 -19 -52.5t-62 -20.5zM88 516l-83 76h39l69 -76h-25z" />
    <glyph glyph-name="uni03060309" horiz-adv-x="0" 
d="M96 531q-37 0 -57 14t-27.5 34.5t-7.5 40.5h26q0 -26 14.5 -46.5t51.5 -20.5q40 0 55.5 20t15.5 47h25q0 -37 -22 -63t-74 -26zM85 645q0 12 8 20.5t19 16t19.5 17t8.5 23.5q0 16 -13 25.5t-30 9.5q-23 0 -34 -13t-14 -30l-19 7q3 27 21.5 42t50.5 15q30 0 46.5 -15
t16.5 -37q0 -20 -8.5 -31.5t-19 -18.5t-18.5 -13.5t-8 -17.5h-26z" />
    <glyph glyph-name="uni03060309.case" horiz-adv-x="0" 
d="M82 423q-30 0 -47 11.5t-23.5 28t-6.5 33.5h26q0 -19 11.5 -35.5t39.5 -16.5q30 0 42 16.5t13 35.5h25q0 -32 -18.5 -52.5t-61.5 -20.5zM71 516q0 14 10.5 22t21.5 16.5t11 23.5q0 12 -9.5 19.5t-21.5 7.5q-18 0 -26.5 -10t-11.5 -23l-18 7q3 21 18 33t42 12
q25 0 39 -11.5t14 -30.5q0 -21 -10.5 -31t-21 -16t-10.5 -19h-27z" />
    <glyph glyph-name="uni03060303" horiz-adv-x="0" 
d="M96 531q-37 0 -57 14t-27.5 34.5t-7.5 40.5h26q0 -26 14.5 -46.5t51.5 -20.5q40 0 55.5 20t15.5 47h25q0 -37 -22 -63t-74 -26zM1 639q0 39 14.5 56t36.5 17q20 0 34 -10.5t27 -22t28 -11.5q21 0 27 15t6 28h21q0 -38 -16 -53t-35 -15q-20 0 -34 11.5t-26.5 22.5
t-27.5 11q-17 0 -25 -13t-8 -36h-22z" />
    <glyph glyph-name="uni03060303.case" horiz-adv-x="0" 
d="M82 423q-30 0 -47 11.5t-23.5 28.5t-6.5 33h26q0 -18 11.5 -35t39.5 -17q30 0 42 16.5t12 35.5h26q0 -31 -18.5 -52t-61.5 -21zM2 512q0 33 12 47.5t31 14.5q16 0 28 -8.5t22.5 -17t22.5 -8.5q16 0 21 11.5t5 22.5h20q0 -33 -13 -46t-30 -13q-15 0 -27 9t-21.5 17.5
t-22.5 8.5t-19.5 -10.5t-6.5 -27.5h-22z" />
    <glyph glyph-name="uni0311.case" horiz-adv-x="0" 
d="M96 620q52 0 74 -26.5t22 -62.5h-25q0 28 -15.5 47t-55.5 19q-37 0 -51.5 -20t-14.5 -46h-26q0 19 7.5 40t27.5 35t57 14z" />
    <glyph glyph-name="uni030C.alt" horiz-adv-x="0" 
d="M-26 329l26 141h28l-35 -141h-19z" />
    <glyph glyph-name="uni030C.alt.case" horiz-adv-x="0" 
d="M-26 329l26 141h28l-35 -141h-19z" />
    <glyph glyph-name="uni030C.case" horiz-adv-x="0" 
d="M1 623h29l77 -67l77 67h27l-84 -87h-41z" />
    <glyph glyph-name="uni0302.case" horiz-adv-x="0" 
d="M1 536l85 87h41l84 -87h-27l-77 67l-77 -67h-29z" />
    <glyph glyph-name="uni03020301" horiz-adv-x="0" 
d="M1 536l85 87h41l84 -87h-27l-77 67l-77 -67h-29zM203 610l86 93h40l-100 -93h-26z" />
    <glyph glyph-name="uni03020301.case" horiz-adv-x="0" 
d="M1 428l68 70h40l67 -70h-27l-59 51l-59 -51h-30zM170 486l69 76h40l-82 -76h-27z" />
    <glyph glyph-name="uni03020300" horiz-adv-x="0" 
d="M1 536l85 87h41l84 -87h-27l-77 67l-77 -67h-29zM230 610l-100 93h41l85 -93h-26z" />
    <glyph glyph-name="uni03020300.case" horiz-adv-x="0" 
d="M1 428l68 70h40l67 -70h-27l-59 51l-59 -51h-30zM193 486l-83 76h38l71 -76h-26z" />
    <glyph glyph-name="uni03020309" horiz-adv-x="0" 
d="M1 536l85 87h41l84 -87h-27l-77 67l-77 -67h-29zM223 610q0 12 8 20.5t19 16t19.5 17t8.5 23.5q0 16 -13 25.5t-30 9.5q-23 0 -34 -13t-14 -30l-19 7q3 27 21.5 42t50.5 15q30 0 46.5 -15t16.5 -37q0 -20 -8.5 -31.5t-19 -18.5t-18.5 -13.5t-8 -17.5h-26z" />
    <glyph glyph-name="uni03020309.case" horiz-adv-x="0" 
d="M1 428l68 70h40l67 -70h-27l-59 51l-59 -51h-30zM184 486q0 14 10.5 22t21 16.5t10.5 23.5q0 12 -9.5 19.5t-21.5 7.5q-17 0 -26 -10t-12 -23l-17 7q2 20 17.5 32t41.5 12q24 0 39 -11t15 -31q0 -15 -6.5 -24.5t-15 -15.5t-15 -11.5t-6.5 -13.5h-26z" />
    <glyph glyph-name="uni03020303" horiz-adv-x="0" 
d="M1 536l85 87h41l84 -87h-27l-77 67l-77 -67h-29zM8 647q0 39 14.5 56t36.5 17q20 0 34 -10.5t27 -22t28 -11.5q21 0 27 15t6 28h21q0 -38 -16 -53t-35 -15q-20 0 -34 11.5t-26.5 22.5t-27.5 11q-17 0 -25 -13t-8 -36h-22z" />
    <glyph glyph-name="uni03020303.case" horiz-adv-x="0" 
d="M1 428l68 70h40l67 -70h-27l-59 51l-59 -51h-30zM6 518q0 32 12.5 47.5t31.5 15.5q17 0 28.5 -9t22 -18t22.5 -9q16 0 21.5 12t5.5 22h20q0 -32 -13.5 -45.5t-30.5 -13.5q-16 0 -27.5 9t-21.5 17.5t-23 8.5q-12 0 -19 -9.5t-7 -27.5h-22z" />
    <glyph glyph-name="uni030F.case" horiz-adv-x="0" 
d="M86 536l-100 93h41l85 -93h-26zM158 536l-100 93h41l85 -93h-26z" />
    <glyph glyph-name="uni0308.case" horiz-adv-x="0" 
d="M133 532q-14 0 -17 5.5t-3 15.5q0 11 3 16.5t17 5.5q16 0 19 -5.5t3 -16.5q0 -10 -3 -15.5t-19 -5.5zM40 532q-15 0 -17.5 5.5t-2.5 15.5q0 11 2.5 16.5t17.5 5.5q16 0 18.5 -5.5t2.5 -16.5q0 -10 -2.5 -15.5t-18.5 -5.5z" />
    <glyph glyph-name="uni0307.case" horiz-adv-x="0" 
d="M21 533q-16 0 -18.5 5.5t-2.5 15.5q0 11 2.5 17t17.5 6q16 0 18.5 -6t2.5 -17q0 -10 -2.5 -15.5t-17.5 -5.5z" />
    <glyph glyph-name="gravecomb.case" horiz-adv-x="0" 
d="M100 536l-109 85h41l94 -85h-26z" />
    <glyph glyph-name="hookabovecomb.case" horiz-adv-x="0" 
d="M55 536q0 12 8 20.5t19 16t19.5 17t8.5 23.5q0 16 -13 25.5t-30 9.5q-23 0 -34 -13t-14 -30l-19 7q3 27 21.5 42t50.5 15q30 0 46.5 -15t16.5 -37q0 -20 -8.5 -31.5t-19 -18.5t-18.5 -13.5t-8 -17.5h-26z" />
    <glyph glyph-name="uni031B.case" horiz-adv-x="0" 
d="M3 453l-3 17q35 0 47.5 12t11.5 38h24q0 -37 -18 -52t-62 -15z" />
    <glyph glyph-name="uni030B.case" horiz-adv-x="0" 
d="M0 536l37 93h40l-51 -93h-26zM72 536l37 93h41l-52 -93h-26z" />
    <glyph glyph-name="i.loclTRK" horiz-adv-x="166" 
d="M64 470h38v-470h-38v470zM82 533q-16 0 -18.5 5.5t-2.5 15.5q0 11 2.5 17t17.5 6q16 0 18.5 -6t2.5 -17q0 -10 -2.5 -15.5t-17.5 -5.5z" />
    <glyph glyph-name="uni0304.case" horiz-adv-x="0" 
d="M0 542v26h204v-26h-204z" />
    <glyph glyph-name="periodcentered.loclCAT" horiz-adv-x="64" 
d="M31 210q-16 0 -18.5 5.5t-2.5 15.5q0 11 2.5 17t18.5 6q15 0 18.5 -6t3.5 -17q0 -10 -3.5 -15.5t-18.5 -5.5z" />
    <glyph glyph-name="periodcentered.loclCAT.case" horiz-adv-x="48" 
d="M34 270q-16 0 -18.5 5.5t-2.5 15.5q0 11 2.5 17t18.5 6q15 0 18.5 -6t3.5 -17q0 -10 -3.5 -15.5t-18.5 -5.5z" />
    <glyph glyph-name="uni030A.case" horiz-adv-x="0" 
d="M72 530q-31 0 -51.5 20t-20.5 47q0 28 20.5 48t51.5 20q29 0 49.5 -20t20.5 -48q0 -27 -20.5 -47t-49.5 -20zM72 548q20 0 35 14.5t15 33.5q0 21 -15 36t-35 15q-22 0 -37 -15t-15 -36q0 -19 15 -33.5t37 -14.5z" />
    <glyph glyph-name="tildecomb.case" horiz-adv-x="0" 
d="M3 530q0 39 14.5 56t36.5 17q20 0 34 -10.5t27 -22t28 -11.5q21 0 27 15t6 28h21q0 -38 -16 -53t-35 -15q-20 0 -34 11.5t-26.5 22.5t-27.5 11q-17 0 -25 -13t-8 -36h-22z" />
    <glyph glyph-name="uni03030307" horiz-adv-x="0" 
d="M3 530q0 39 14.5 56t36.5 17q20 0 34 -10.5t27 -22t28 -11.5q21 0 27 15t6 28h21q0 -38 -16 -53t-35 -15q-20 0 -34 11.5t-26.5 22.5t-27.5 11q-17 0 -25 -13t-8 -36h-22zM99 627q-16 0 -18.5 5.5t-2.5 15.5q0 11 2.5 17t17.5 6q16 0 18.5 -6t2.5 -17q0 -10 -2.5 -15.5
t-17.5 -5.5z" />
    <glyph glyph-name="uni03030304" horiz-adv-x="0" 
d="M7 530q0 39 14.5 56t36.5 17q20 0 34 -10.5t27 -22t28 -11.5q21 0 27 15t6 28h21q0 -38 -16 -53t-35 -15q-20 0 -34 11.5t-26.5 22.5t-27.5 11q-17 0 -25 -13t-8 -36h-22zM1 636v26h204v-26h-204z" />
    </font>
</defs>
</svg>
