<?xml version="1.0" standalone="no"?>
<!DOCTYPE svg PUBLIC "-//W3C//DTD SVG 1.1//EN" "http://www.w3.org/Graphics/SVG/1.1/DTD/svg11.dtd" >
<svg xmlns="http://www.w3.org/2000/svg" xmlns:xlink="http://www.w3.org/1999/xlink" version="1.1">
<metadata>
Created by FontForge 20170731 at Fri Dec 17 21:18:01 2021
 By Aleksey,,,
Copyright 2016 The Smooch Sans Project Authors (https://github.com/googlefonts/smooch-sans)
</metadata>
<defs>
<font id="SmoochSans-Thin" horiz-adv-x="0" >
  <font-face 
    font-family="Smooch Sans Thin"
    font-weight="250"
    font-stretch="normal"
    units-per-em="1000"
    panose-1="0 0 0 0 0 0 0 0 0 0"
    ascent="800"
    descent="-200"
    x-height="470"
    cap-height="620"
    bbox="-114 -245 765 906"
    underline-thickness="50"
    underline-position="-175"
    unicode-range="U+000D-FB02"
  />
<missing-glyph horiz-adv-x="494" 
d="M87 40v498h320v-498h-320zM158 117l83 150l85 -150l13 22l-86 151l86 153l-13 23l-85 -152l-83 151l-11 -22l83 -151l-83 -153zM52 -5l-12 12v568l12 12h391l11 -12v-568l-11 -12h-391zM430 21v540h-364v-540h364z" />
    <glyph glyph-name="fi" unicode="fi" horiz-adv-x="364" 
d="M76 456h-43v14h43v85q0 35 17 50t62 15h64v-14h-58q-37 0 -50.5 -12t-13.5 -41v-83h204l-3 -14h-201v-456h-21v456zM291 470h20v-470h-20v470z" />
    <glyph glyph-name="fl" unicode="fl" horiz-adv-x="367" 
d="M76 456h-43v14h43v85q0 35 17 50t62 15h140l-5 -14h-129q-37 0 -50.5 -12t-13.5 -41v-83h87l-3 -14h-84v-456h-21v456zM277 620h20v-620h-20v620z" />
    <glyph glyph-name="f_f" unicode="ff" horiz-adv-x="429" 
d="M76 456h-43v14h43v85q0 35 17 50t62 15h64v-14h-58q-37 0 -50.5 -12t-13.5 -41v-83h177l-4 -14h-173v-456h-21v456zM267 456h-43v14h43v85q0 35 17.5 50t61.5 15h65v-14h-59q-37 0 -50 -12t-13 -41v-83h87l-4 -14h-83v-456h-22v456z" />
    <glyph glyph-name="f_f_i" unicode="ffi" horiz-adv-x="553" 
d="M267 456h-43v14h43v85q0 35 17.5 50t61.5 15h65v-14h-59q-37 0 -50 -12t-13 -41v-83h207l-4 -14h-203v-456h-22v456zM76 456h-43v14h43v85q0 35 17 50t62 15h64v-14h-58q-37 0 -50.5 -12t-13.5 -41v-83h177l-4 -14h-173v-456h-21v456zM486 470h20v-470h-20v470z" />
    <glyph glyph-name="f_f_l" unicode="ffl" horiz-adv-x="601" 
d="M76 0v456h-43v14h43v85q0 35 17 50t62 15h64v-14h-58q-37 0 -50.5 -12t-13.5 -41v-83h196l-3 -14h-193v-456h-21zM310 0v456h-43v14h43v85q0 35 16.5 50t61.5 15h136l-5 -14h-125q-37 0 -50.5 -12t-13.5 -41v-83h88l-3 -14h-85v-456h-20zM511 0v620h20v-620h-20z" />
    <glyph glyph-name=".notdef" horiz-adv-x="494" 
d="M87 40v498h320v-498h-320zM158 117l83 150l85 -150l13 22l-86 151l86 153l-13 23l-85 -152l-83 151l-11 -22l83 -151l-83 -153zM52 -5l-12 12v568l12 12h391l11 -12v-568l-11 -12h-391zM430 21v540h-364v-540h364z" />
    <glyph glyph-name=".null" horiz-adv-x="600" 
 />
    <glyph glyph-name="nonmarkingreturn" horiz-adv-x="333" 
 />
    <glyph glyph-name="CR" unicode="&#xd;" horiz-adv-x="43" 
 />
    <glyph glyph-name="space" unicode=" " horiz-adv-x="170" 
 />
    <glyph glyph-name="exclam" unicode="!" horiz-adv-x="212" 
d="M92 188l-6 432h22l-6 -432h-10zM96 7q-12 0 -14 4.5t-2 11.5q0 8 2 13t14 5t14.5 -5t2.5 -13q0 -7 -2.5 -11.5t-14.5 -4.5z" />
    <glyph glyph-name="quotedbl" unicode="&#x22;" horiz-adv-x="312" 
d="M82 407l-6 214h26l-5 -214h-15zM214 407l-6 214h26l-5 -214h-15z" />
    <glyph glyph-name="numbersign" unicode="#" horiz-adv-x="519" 
d="M70 0l71 230h-135l5 12h135l39 125h-136l4 13h137l61 194h15l-61 -194h135l61 194h16l-62 -194h132l-5 -13h-131l-39 -125h133l-4 -12h-133l-72 -230h-16l72 230h-135l-72 -230h-15zM296 242l39 125h-135l-39 -125h135z" />
    <glyph glyph-name="dollar" unicode="$" horiz-adv-x="338" 
d="M175 -2q-42 1 -72.5 7.5t-47.5 23.5t-17 49v123l20 5v-124q0 -33 26 -50t90 -17q44 0 67 8.5t31 28t8 51.5v104q0 42 -20.5 64t-55.5 32l-82 22q-45 13 -64.5 34t-19.5 64v100q0 43 16.5 64t47 28t73.5 7q42 0 69.5 -7t41.5 -24t14 -49v-123l-20 -6v124q0 35 -20.5 52
t-85.5 17q-66 0 -91 -20t-25 -67v-98q0 -37 23 -55t52 -26l83 -22q46 -12 65 -37t19 -70v-111q0 -44 -13.5 -65.5t-41 -28.5t-70.5 -8zM103 -93l12 104l17 -3l-12 -101h-17zM206 611l-16 3l13 100h17z" />
    <glyph glyph-name="percent" unicode="%" horiz-adv-x="531" 
d="M70 -44l340 674h18l-342 -674h-16zM397 9q-34 0 -51.5 8.5t-24 20.5t-6.5 23v145q0 12 6.5 24.5t26 21t56.5 8.5t55.5 -8.5t25 -20.5t6.5 -24v-136q0 -16 -6.5 -30.5t-26.5 -23t-61 -8.5zM397 21q38 0 58.5 9.5t20.5 38.5v135q0 26 -19.5 35t-52.5 9t-53.5 -9t-20.5 -35
v-140q0 -25 19.5 -34t47.5 -9zM122 368q-34 0 -52 8.5t-24 21t-6 23.5v145q0 12 6.5 24.5t25.5 21t56 8.5t56 -8.5t25.5 -21t6.5 -24.5v-135q0 -16 -7 -30.5t-27 -23.5t-60 -9zM122 381q38 0 58.5 9.5t20.5 37.5v136q0 25 -19.5 34t-53.5 9q-32 0 -52.5 -9t-20.5 -34v-140
q0 -25 19.5 -34t47.5 -9z" />
    <glyph glyph-name="ampersand" unicode="&#x26;" horiz-adv-x="470" 
d="M217 6q-63 0 -90.5 15t-33.5 41t-6 58v112q0 33 6 57.5t31 38.5t81 14q-53 1 -77.5 12.5t-31 34t-6.5 55.5v91q0 39 10 58t38 25t80 6q57 0 85 -7t37 -26.5t9 -55.5v-116l-20 -9v122q0 28 -7 44t-30.5 22.5t-74.5 6.5q-47 0 -70 -6.5t-30 -22t-7 -43.5v-88q0 -37 8 -58
t35.5 -29.5t84.5 -8.5h77v-13h-77q-56 0 -84 -10t-37 -30.5t-10 -54.5v-119q0 -16 1 -33.5t9.5 -32.5t31 -24t66.5 -9q46 0 70 9t33 24t10 32.5t1 33.5v190h93l-8 -16h-65v-171q0 -24 -2.5 -45.5t-14.5 -38t-39 -26t-76 -9.5z" />
    <glyph glyph-name="quotesingle" unicode="'" horiz-adv-x="181" 
d="M83 407l-6 214h26l-5 -214h-15z" />
    <glyph glyph-name="parenleft" unicode="(" horiz-adv-x="350" 
d="M285 -118q-60 5 -107 36.5t-79.5 82.5t-49.5 115.5t-17 134.5q0 77 19 150t54 131.5t83.5 94.5t107.5 39v-13q-48 -3 -87 -29.5t-68.5 -69t-49 -94t-29.5 -105.5t-10 -103q0 -60 13.5 -119.5t42 -110.5t72.5 -85.5t105 -42.5v-12z" />
    <glyph glyph-name="parenright" unicode=")" horiz-adv-x="350" 
d="M65 667q60 -5 107 -36.5t79.5 -82.5t49.5 -115t17 -135q0 -77 -19 -150t-54 -131.5t-83.5 -94.5t-107.5 -39v13q48 3 87 29.5t68.5 69t49 94t29.5 105.5t10 103q0 60 -13.5 119.5t-42 110.5t-72.5 85.5t-105 42.5v12z" />
    <glyph glyph-name="asterisk" unicode="*" horiz-adv-x="415" 
d="M125 332l-18 13l95 114l-142 36l5 18l141 -46l-9 144h22l-6 -144l137 51l5 -16l-139 -43l93 -114l-18 -13l-82 123z" />
    <glyph glyph-name="plus" unicode="+" horiz-adv-x="371" 
d="M58 297v15h255v-15h-255zM192 169h-15v255h15v-255zM58 297v15h255v-15h-255z" />
    <glyph glyph-name="comma" unicode="," horiz-adv-x="180" 
d="M40 -98q14 23 21 49.5t7 56.5q-12 0 -14.5 4t-2.5 9q0 6 0.5 10.5t4.5 7t12 2.5q11 0 13.5 -5t2.5 -13q0 -21 -4 -44t-10.5 -43t-15.5 -34h-14z" />
    <glyph glyph-name="hyphen" unicode="-" horiz-adv-x="375" 
d="M73 294v18h230v-18h-230z" />
    <glyph glyph-name="period" unicode="." horiz-adv-x="148" 
d="M66 7q-12 0 -14 4.5t-2 11.5q0 8 2 13t14 5t14.5 -5t2.5 -13q0 -7 -2.5 -11.5t-14.5 -4.5z" />
    <glyph glyph-name="slash" unicode="/" horiz-adv-x="436" 
d="M40 -44l340 674h16l-342 -674h-14z" />
    <glyph glyph-name="zero" unicode="0" horiz-adv-x="372" 
d="M50 171v321q0 44 13 70t34 39t44 17t44 4q22 0 46 -4t44.5 -17t33.5 -39.5t13 -70.5v-320h-20v318q0 51 -18.5 75.5t-45.5 32t-53 7.5q-24 0 -50.5 -8t-45 -32t-18.5 -74v-319h-21zM185 -6q-21 0 -44 4t-44 17t-34 39t-13 70v321h21v-318q0 -50 18.5 -74.5t45 -32.5
t50.5 -8q26 0 53 8t45.5 33t18.5 75v317h20v-320q0 -44 -13 -70.5t-33.5 -39.5t-44.5 -17t-46 -4z" />
    <glyph glyph-name="one" unicode="1" horiz-adv-x="248" 
d="M158 0v589l-125 -153l-13 12l138 172h20v-620h-20z" />
    <glyph glyph-name="two" unicode="2" horiz-adv-x="343" 
d="M41 0v14q1 59 9.5 100t25 70.5t39.5 52.5t52 46q9 7 17.5 13.5t15.5 12.5q44 38 63.5 71t19.5 86v29q0 59 -25 84t-67 25h-29q-38 0 -59 -17.5t-28.5 -41.5t-7.5 -44v-101l-20 2v86q0 49 13.5 78t40.5 41.5t68 12.5h25q36 0 60.5 -13t36.5 -40t12 -69v-45q0 -52 -26 -88
t-70 -74q-11 -10 -23 -20t-26 -21q-45 -37 -65.5 -78.5t-26 -81.5t-5.5 -73h242l-6 -17h-256z" />
    <glyph glyph-name="three" unicode="3" horiz-adv-x="359" 
d="M163 0q-40 0 -66 13.5t-38 42.5t-12 75v88l20 -6v-72q0 -58 21 -91t75 -33h31q56 0 75.5 35t19.5 87v53q0 49 -13.5 75t-36.5 36t-54 10h-57v16h57q29 0 52.5 10.5t37.5 37t14 72.5v47q0 63 -21.5 85.5t-71.5 22.5h-37q-37 0 -57 -16t-27.5 -41t-7.5 -52v-87l-20 9v79
q0 62 27.5 93t76.5 31h50q35 0 59 -10.5t36.5 -37.5t12.5 -78v-46q0 -31 -8 -55t-22 -40t-31.5 -24t-35.5 -8v-1q18 0 35.5 -6t31.5 -19.5t22 -35.5t8 -53v-74q0 -69 -30 -100.5t-83 -31.5h-33z" />
    <glyph glyph-name="four" unicode="4" horiz-adv-x="396" 
d="M264 0l1 131h-244l-9 12l253 477h21l-1 -472h104l-6 -17h-97v-131h-22zM37 148h228v438z" />
    <glyph glyph-name="five" unicode="5" horiz-adv-x="357" 
d="M159 -2q-38 0 -61.5 14.5t-33.5 44t-10 74.5v85l20 -7v-79q0 -48 16.5 -81.5t68.5 -33.5h41q43 0 69.5 30.5t26.5 79.5v101q0 61 -10.5 93t-31.5 43.5t-54 11.5h-23q-32 0 -54 -14t-34 -30t-14 -23l-21 5v308h248v-17h-228v-270q3 4 15.5 18t35 26.5t55.5 12.5h25
q32 0 53.5 -8.5t34 -27.5t18 -50t5.5 -77v-93q0 -39 -10 -65t-27 -42t-37 -22.5t-40 -6.5h-43z" />
    <glyph glyph-name="six" unicode="6" horiz-adv-x="359" 
d="M178 -3q-28 0 -51.5 6.5t-40.5 24t-26.5 50t-9.5 83.5v344q0 36 12.5 62.5t41.5 41t78 14.5q48 0 76.5 -14.5t41 -40t12.5 -60.5v-58l-20 -7v62q0 48 -25.5 74t-84.5 26t-85.5 -26t-26.5 -74v-185q7 31 37.5 52t78.5 21q54 0 81 -20t36 -50t9 -62v-100q0 -51 -9 -83.5
t-26 -50t-42 -24t-57 -6.5zM177 14q35 0 61 11t40 43t14 95v96q0 27 -8 54.5t-31.5 45.5t-71.5 18q-58 0 -84.5 -32.5t-26.5 -85.5v-96q0 -63 15.5 -95t40 -43t51.5 -11z" />
    <glyph glyph-name="seven" unicode="7" horiz-adv-x="317" 
d="M23 0l264 603h-267l4 17h293l-270 -620h-24z" />
    <glyph glyph-name="eight" unicode="8" horiz-adv-x="364" 
d="M174 -2q-41 0 -69.5 14t-42.5 46.5t-14 87.5v46q0 42 10 69.5t29 42.5t46 17q-25 7 -43.5 20t-28.5 39t-10 70v37q0 49 13.5 78.5t41 43t68.5 13.5h20q59 0 89 -31t30 -105v-35q0 -44 -10 -70t-28 -39.5t-44 -20.5q27 -2 46 -17t29 -42.5t10 -69.5v-30q0 -63 -15 -98.5
t-44.5 -50.5t-74.5 -15h-8zM178 15q35 0 61.5 10t41 41.5t14.5 95.5v33q0 38 -8.5 64.5t-32.5 41t-72 14.5q-47 0 -71.5 -14.5t-33 -41t-8.5 -64.5v-47q0 -57 16 -85.5t41 -38t52 -9.5zM182 331q34 0 59 9.5t38.5 35.5t13.5 75v34q0 36 -8 63t-31.5 42.5t-71.5 15.5
q-47 0 -71 -15.5t-32 -42t-8 -60.5v-38q0 -49 13.5 -74.5t38.5 -35t59 -9.5z" />
    <glyph glyph-name="nine" unicode="9" horiz-adv-x="359" 
d="M178 -4q-48 0 -76.5 14.5t-41 40.5t-12.5 60v70l20 -6v-61q0 -48 26 -74t84 -26q60 0 85.5 26t25.5 74v185q-7 -31 -36.5 -52t-77.5 -21q-55 0 -82 20t-36 50.5t-9 61.5v100q0 51 9 83.5t26 50t42 24t57 6.5q28 0 51.5 -6.5t40.5 -24t26 -50t9 -83.5v-344
q0 -36 -12 -62.5t-40.5 -41t-78.5 -14.5zM179 242q59 0 84.5 33t25.5 85v96q0 63 -15 95t-39 43t-52 11q-35 0 -61 -11t-40 -43t-14 -95v-96q0 -27 8 -54t32 -45.5t71 -18.5z" />
    <glyph glyph-name="colon" unicode=":" horiz-adv-x="154" 
d="M66 357q-12 0 -14 4.5t-2 11.5q0 8 2 13t14 5t14.5 -5t2.5 -13q0 -7 -2.5 -11.5t-14.5 -4.5zM66 7q-12 0 -14 4.5t-2 11.5q0 8 2 13t14 5t14.5 -5t2.5 -13q0 -7 -2.5 -11.5t-14.5 -4.5z" />
    <glyph glyph-name="semicolon" unicode=";" horiz-adv-x="182" 
d="M40 -98q14 23 21 49.5t7 56.5q-11 0 -14 4t-3 9q0 6 0.5 10.5t4.5 7t12 2.5q11 0 13.5 -5t2.5 -13q0 -21 -4 -44t-10.5 -43t-15.5 -34h-14zM66 357q-12 0 -14 4.5t-2 11.5q0 8 2 13t14 5t14.5 -5t2.5 -13q0 -7 -2.5 -11.5t-14.5 -4.5z" />
    <glyph glyph-name="less" unicode="&#x3c;" horiz-adv-x="394" 
d="M297 128l-247 191v14l247 193v-19l-232 -181l232 -179v-19z" />
    <glyph glyph-name="equal" unicode="=" horiz-adv-x="366" 
d="M58 297v15h253v-15h-253zM58 110v15h253v-15h-253z" />
    <glyph glyph-name="greater" unicode="&#x3e;" horiz-adv-x="394" 
d="M98 128v19l232 179l-232 181v19l247 -193v-14z" />
    <glyph glyph-name="question" unicode="?" horiz-adv-x="374" 
d="M114 145l-4 169h105q39 0 54.5 11.5t18 30t2.5 39.5v105q0 54 -27 78.5t-64 24.5h-36q-37 0 -57.5 -17.5t-28.5 -41.5t-8 -44v-116l-20 4v100q0 72 31 102t92 30h28q50 0 80 -30t30 -89v-115q0 -50 -20 -69t-73 -19h-85l-4 -153h-14zM121 2q-11 0 -13.5 4t-2.5 11
q0 9 2.5 13.5t13.5 4.5q12 0 14 -4.5t2 -13.5q0 -7 -2 -11t-14 -4z" />
    <glyph glyph-name="at" unicode="@" horiz-adv-x="535" 
d="M269 -70q-81 1 -132.5 28.5t-76 93t-24.5 177.5q0 87 13.5 144.5t41.5 90.5t72 47t105 14q73 0 124.5 -24t79 -81t27.5 -157q0 -26 -2.5 -57.5t-9.5 -62t-19.5 -55.5t-32.5 -40.5t-49 -15.5q-31 0 -43 17t-12 68q-5 -18 -17 -28t-37 -10h-31q-26 0 -38.5 11t-16.5 30.5
t-4 43.5v20q0 42 9.5 64.5t38.5 22.5h92v52q-1 29 -9.5 45.5t-36.5 16.5h-26q-43 0 -43 -61v-25h-17v26q0 35 13 53.5t40 18.5h27q28 0 43 -9t21 -26t6 -43v-165q0 -47 3 -70t11.5 -30.5t26.5 -7.5q26 0 44 20t29 52.5t15.5 70t4.5 72.5q0 48 -8 93t-30 80.5t-63.5 56
t-109.5 20.5q-76 0 -123 -26t-68 -87.5t-21 -168.5q0 -88 16.5 -152t63 -98t134.5 -34q21 0 44.5 4t43.5 10.5t28 12.5l6 -10q-16 -13 -51.5 -22.5t-71.5 -9.5zM276 92q25 0 38 15t13 43v109h-81q-22 0 -32 -12.5t-10 -50.5v-38q0 -41 13 -53.5t36 -12.5h23z" />
    <glyph glyph-name="A" unicode="A" horiz-adv-x="366" 
d="M24 0l132 620h54l130 -620h-21l-34 160l7 -6h-220l6 6l-33 -160h-21zM78 167l-3 4h214l-4 -4l-89 431l-2 1h-22l-2 -1z" />
    <glyph glyph-name="B" unicode="B" horiz-adv-x="388" 
d="M70 0v620h144q43 0 66 -7t32 -27.5t9 -61.5v-64q0 -37 -11.5 -61.5t-28.5 -37t-32 -15.5h1q30 -6 48 -19.5t26 -35t8 -52.5v-128q0 -43 -8.5 -67t-32 -34t-68.5 -10h-153zM90 17h129q31 0 51 6t30 27t10 66v131q0 48 -31.5 69t-78.5 21h-110v-320zM90 354h124
q20 0 40 9.5t33.5 33.5t13.5 69v41q0 37 -5 58t-23 30t-58 9h-125v-250z" />
    <glyph glyph-name="C" unicode="C" horiz-adv-x="369" 
d="M186 -6q-61 0 -94.5 24t-33.5 74v432q0 50 29.5 77t95.5 27q70 0 101.5 -26t31.5 -79v-133l-20 -4v133q0 41 -23 66t-87 25q-62 0 -85 -25t-23 -65v-425q0 -37 26 -60.5t82 -23.5q57 0 83.5 23.5t26.5 61.5v128l20 5v-136q0 -51 -34 -75t-96 -24z" />
    <glyph glyph-name="D" unicode="D" horiz-adv-x="388" 
d="M70 620h173q47 0 67 -25.5t20 -72.5v-423q0 -54 -17.5 -76.5t-77.5 -22.5h-165v620zM226 17q49 0 66.5 16.5t17.5 68.5v417q0 43 -19.5 63.5t-53.5 20.5h-147v-586h136z" />
    <glyph glyph-name="E" unicode="E" horiz-adv-x="365" 
d="M70 620h260v-17h-240v-241h226l-5 -16h-221v-330h240v-16h-260v620z" />
    <glyph glyph-name="F" unicode="F" horiz-adv-x="360" 
d="M70 620h260v-17h-240v-241h226l-5 -16h-221v-346h-20v620z" />
    <glyph glyph-name="G" unicode="G" horiz-adv-x="375" 
d="M193 -2q-41 0 -71.5 5.5t-47 23.5t-16.5 55v461q0 50 36.5 65.5t98.5 15.5t94.5 -16t32.5 -66v-114l-20 -5v117q0 41 -28.5 54t-78.5 13q-49 0 -82 -11t-33 -55v-457q0 -32 15 -46.5t41 -18.5t59 -4q31 0 55 4t38 18.5t14 46.5v232h-135l5 17h150v-251q0 -37 -14.5 -55
t-43 -23.5t-69.5 -5.5z" />
    <glyph glyph-name="H" unicode="H" horiz-adv-x="400" 
d="M70 620h20v-258h220v258h20v-620h-20v346h-220v-346h-20v620z" />
    <glyph glyph-name="I" unicode="I" horiz-adv-x="160" 
d="M70 620h20v-620h-20v620z" />
    <glyph glyph-name="J" unicode="J" horiz-adv-x="175" 
d="M5 0l-5 17h51q19 0 27 5t9.5 20t1.5 46v532h20v-535q0 -38 -2.5 -56.5t-15 -23.5t-42.5 -5h-44z" />
    <glyph glyph-name="K" unicode="K" horiz-adv-x="341" 
d="M308 -6l-176 341l164 288l16 -9l-158 -279l173 -332zM70 620h20v-620h-20v620z" />
    <glyph glyph-name="L" unicode="L" horiz-adv-x="317" 
d="M70 620h20v-604h211v-16h-231v620z" />
    <glyph glyph-name="M" unicode="M" horiz-adv-x="544" 
d="M70 0v620h26l174 -530l1 -3h1l1 3l173 530h28v-620h-20v581v2l-2 -8l-172 -523h-17l-171 518l-1 4l-1 3v-577h-20z" />
    <glyph glyph-name="N" unicode="N" horiz-adv-x="403" 
d="M70 0v620h21l219 -571l2 -5l1 -2v578h20v-620h-23l-217 561l-3 7v0v-568h-20z" />
    <glyph glyph-name="O" unicode="O" horiz-adv-x="378" 
d="M188 -2q-61 0 -95.5 22.5t-34.5 65.5v457q0 36 30.5 61t99.5 24q70 -1 101 -25t31 -61v-455q0 -43 -34 -66t-98 -23zM188 15q58 0 85 22t27 53v449q0 26 -24 49t-90 23q-61 0 -84.5 -22.5t-23.5 -48.5v-451q0 -31 27 -52.5t83 -21.5z" />
    <glyph glyph-name="P" unicode="P" horiz-adv-x="367" 
d="M70 620h165q43 0 63.5 -10.5t27 -32t6.5 -53.5v-156q0 -36 -6 -67.5t-31 -51t-82 -19.5h-123v-230h-20v620zM214 247q47 0 72.5 24t25.5 79v171q0 44 -17.5 63t-64.5 19h-140v-356h124z" />
    <glyph glyph-name="Q" unicode="Q" horiz-adv-x="372" 
d="M188 -6q-61 0 -95.5 24t-34.5 74v432q0 51 31 78t99 26q70 -1 101 -27t31 -78v-430q0 -51 -35 -75t-97 -24zM188 11q58 0 85 23.5t27 60.5v424q0 41 -23.5 66t-88.5 25q-63 0 -86.5 -25t-23.5 -65v-427q0 -37 27 -59.5t83 -22.5zM330 -105l-104 105l14 14l105 -106z" />
    <glyph glyph-name="R" unicode="R" horiz-adv-x="385" 
d="M70 620h165q43 0 63.5 -10.5t27 -32t6.5 -53.5v-103q0 -36 -6 -67.5t-31 -51t-82 -19.5h-123v-283h-20v620zM331 -10l-116 295l15 4l5 -2l3 -8l112 -282zM214 300q47 0 72.5 23.5t25.5 79.5v118q0 44 -17.5 63t-64.5 19h-140v-303h124z" />
    <glyph glyph-name="S" unicode="S" horiz-adv-x="366" 
d="M188 -2q-42 1 -72.5 7.5t-47.5 23.5t-17 49v123l20 5v-124q0 -33 25.5 -50t90.5 -17q44 0 67 8.5t31 28t8 51.5v104q0 42 -20.5 64t-55.5 32l-82 22q-45 13 -64.5 34t-19.5 64v100q0 43 16.5 64t47 28t73.5 7q42 0 69.5 -7t41.5 -24t14 -49v-123l-20 -6v124
q0 35 -20.5 52t-85.5 17q-66 0 -91 -20t-25 -67v-98q0 -37 22.5 -55t52.5 -26l83 -22q46 -12 65 -37t19 -70v-111q0 -44 -13.5 -65.5t-41 -28.5t-70.5 -8z" />
    <glyph glyph-name="T" unicode="T" horiz-adv-x="291" 
d="M134 603h-112v17h247v-17h-114v-603h-21v603z" />
    <glyph glyph-name="U" unicode="U" horiz-adv-x="392" 
d="M196 -5q-35 0 -64.5 9t-47.5 29.5t-18 55.5v531h20v-523q0 -22 9 -41.5t32.5 -31.5t68.5 -12q48 0 71.5 12t31 31.5t7.5 41.5v523h20v-531q0 -35 -16.5 -55.5t-46 -29.5t-67.5 -9z" />
    <glyph glyph-name="V" unicode="V" horiz-adv-x="350" 
d="M162 0l-132 620h20l124 -586l1 -10h1v10l123 586h21l-132 -620h-26z" />
    <glyph glyph-name="W" unicode="W" horiz-adv-x="546" 
d="M143 0l-115 620h21l106 -580l1 -10h1v10l113 546h18l103 -546l1 -10h1l1 10l104 580h20l-113 -620h-25l-99 535v6h-1l-1 -6l-111 -535h-25z" />
    <glyph glyph-name="X" unicode="X" horiz-adv-x="358" 
d="M30 0l133 325l-127 295h22l118 -277l3 -8h1l3 8l117 277h21l-126 -295l133 -325h-21l-125 305l-2 10h-1l-3 -10l-125 -305h-21z" />
    <glyph glyph-name="Y" unicode="Y" horiz-adv-x="327" 
d="M153 0v274l-137 346h19l126 -314l2 -10h1l2 10l125 314h20l-138 -346v-274h-20z" />
    <glyph glyph-name="Z" unicode="Z" horiz-adv-x="282" 
d="M16 0l208 603h-191v17h216l-207 -603h216v-17h-242z" />
    <glyph glyph-name="bracketleft" unicode="[" horiz-adv-x="189" 
d="M35 630h114v-12h-94v-663h94v-12h-114v687z" />
    <glyph glyph-name="backslash" unicode="\" horiz-adv-x="436" 
d="M382 -44l-342 674h16l340 -674h-14z" />
    <glyph glyph-name="bracketright" unicode="]" horiz-adv-x="189" 
d="M40 -45h93v663h-93v12h113v-687h-113v12z" />
    <glyph glyph-name="asciicircum" unicode="^" horiz-adv-x="261" 
d="M32 649l85 90h27l86 -90h-16l-83 79l-84 -79h-15z" />
    <glyph glyph-name="underscore" unicode="_" horiz-adv-x="639" 
d="M0 -86v18h642v-18h-642z" />
    <glyph glyph-name="grave" unicode="`" horiz-adv-x="111" 
d="M96 538l-96 92h27l84 -92h-15z" />
    <glyph glyph-name="a" unicode="a" horiz-adv-x="396" 
d="M133 0q-34 0 -48.5 9t-17.5 36t-3 80v262q0 39 7 56.5t29 22t67 4.5h159v-470h-20v453h-159q-34 0 -47 -8.5t-14.5 -28t-1.5 -54.5v-259q0 -35 3 -53.5t14.5 -25.5t36.5 -7h130l-4 -17h-131z" />
    <glyph glyph-name="b" unicode="b" horiz-adv-x="395" 
d="M70 0v630h20v-160h139q45 0 66.5 -4.5t28.5 -22t7 -56.5v-260q0 -54 -3 -81.5t-17.5 -36.5t-49.5 -9h-191zM90 17h167q25 0 36 7t14.5 25.5t3.5 53.5v259q0 35 -1.5 54.5t-14.5 28t-47 8.5h-158v-436z" />
    <glyph glyph-name="c" unicode="c" horiz-adv-x="378" 
d="M182 -4q-51 0 -77.5 16t-35.5 40t-9 46v275q0 23 9.5 46.5t37.5 39.5t84 16q55 0 83 -16t38 -39.5t10 -46.5v-66l-20 -6v69q0 47 -31 68t-80 21q-48 0 -79.5 -20.5t-31.5 -68.5v-269q0 -47 30.5 -67.5t71.5 -20.5q56 0 88 22t32 75v61l20 5v-62q0 -30 -10.5 -57
t-40.5 -44t-89 -17z" />
    <glyph glyph-name="d" unicode="d" horiz-adv-x="396" 
d="M133 0q-29 0 -44 6t-20 27.5t-5 67.5v286q0 36 6.5 54t26.5 23.5t62 5.5h147v160h20v-630h-193zM306 17v436h-156q-42 0 -54 -11t-12 -52v-308q0 -42 11.5 -53.5t42.5 -11.5h168z" />
    <glyph glyph-name="e" unicode="e" horiz-adv-x="382" 
d="M182 -4q-51 0 -77.5 16t-35.5 40t-9 46v275q0 23 9.5 46.5t37.5 39.5t84 16q55 0 83 -16t38 -39.5t10 -46.5v-125h-20v122q0 47 -31 68t-80 21q-48 0 -79.5 -20.5t-31.5 -68.5v-269q0 -47 30.5 -67.5t71.5 -20.5q56 0 88 22t32 75v59l20 4v-59q0 -30 -10.5 -57t-40.5 -44
t-89 -17zM66 238v14h256v-14h-256z" />
    <glyph glyph-name="f" unicode="f" horiz-adv-x="195" 
d="M76 456h-43v14h43v85q0 35 17 50t62 15h64v-14h-59q-37 0 -50.5 -12t-13.5 -41v-83h88l-3 -14h-85v-456h-20v456z" />
    <glyph glyph-name="g" unicode="g" horiz-adv-x="396" 
d="M120 -170l-4 16h142q30 0 39 16t9 48v543h-159q-34 0 -47 -8.5t-14.5 -28t-1.5 -54.5v-259q0 -35 3 -53.5t14.5 -25.5t36.5 -7h130l-4 -17h-131q-34 0 -48.5 9t-17.5 36t-3 80v262q0 39 7 56.5t29 22t67 4.5h159v-563q0 -43 -14.5 -60t-52.5 -17h-139z" />
    <glyph glyph-name="h" unicode="h" horiz-adv-x="395" 
d="M70 630h20v-207q17 25 44 38.5t71 13.5q54 0 81 -16t36 -39.5t9 -45.5v-374h-20v368q0 49 -30.5 69.5t-80.5 20.5q-44 0 -69 -16t-41 -39v-403h-20v630z" />
    <glyph glyph-name="i" unicode="i" horiz-adv-x="160" 
d="M70 0v470h20v-470h-20zM79 546q-10 0 -12.5 2.5t-2.5 11.5t2.5 12.5t12.5 3.5t13 -3.5t3 -12.5t-3 -11.5t-13 -2.5z" />
    <glyph glyph-name="j" unicode="j" horiz-adv-x="155" 
d="M-46 -170l-4 16h68q29 0 38 16t9 48v560h20v-563q0 -43 -14 -60t-52 -17h-65zM75 546q-10 0 -13 2.5t-3 11.5t3 12.5t13 3.5t12.5 -3.5t2.5 -12.5t-2.5 -11.5t-12.5 -2.5z" />
    <glyph glyph-name="k" unicode="k" horiz-adv-x="332" 
d="M70 0v630h20v-630h-20zM310 0l-174 234h-56v16h56l145 232l20 -9l-146 -230l179 -243h-24z" />
    <glyph glyph-name="l" unicode="l" horiz-adv-x="160" 
d="M70 630h20v-630h-20v630z" />
    <glyph glyph-name="m" unicode="m" horiz-adv-x="636" 
d="M70 0v472h15l3 -49q17 25 45 39.5t72 14.5q42 0 67.5 -10.5t39 -27.5t17.5 -36l-6 -3q5 27 24 44t46 25t54 8q54 0 80.5 -16.5t35.5 -40.5t9 -46v-374h-20v369q0 48 -31 69.5t-79 21.5q-45 0 -78 -21.5t-33 -68.5v-370h-20v369q0 48 -31 69.5t-80 21.5q-44 0 -69 -17
t-41 -40v-403h-20z" />
    <glyph glyph-name="n" unicode="n" horiz-adv-x="395" 
d="M70 472h15l3 -49q16 23 44.5 38.5t72.5 15.5q64 0 95 -26.5t31 -76.5v-374h-20v368q0 48 -30.5 69.5t-80.5 21.5q-42 0 -68 -16.5t-42 -39.5v-403h-20v472z" />
    <glyph glyph-name="o" unicode="o" horiz-adv-x="382" 
d="M182 -4q-51 0 -77.5 16t-35.5 40t-9 46v275q0 23 9.5 46.5t37.5 39.5t84 16q55 0 83 -16t38 -39.5t10 -46.5v-259q0 -30 -10.5 -57t-40.5 -44t-89 -17zM182 13q56 0 88 22t32 75v260q0 47 -31 68t-80 21q-48 0 -79.5 -20.5t-31.5 -68.5v-269q0 -47 30.5 -67.5t71.5 -20.5
z" />
    <glyph glyph-name="p" unicode="p" horiz-adv-x="395" 
d="M70 470h191q35 0 49.5 -9t17.5 -36.5t3 -81.5v-260q0 -39 -7 -56.5t-28.5 -22t-66.5 -4.5h-139v-160h-20v630zM90 453v-436h158q34 0 47 8.5t14.5 28.5t1.5 54v259q0 35 -3.5 53.5t-14.5 25.5t-36 7h-167z" />
    <glyph glyph-name="q" unicode="q" horiz-adv-x="395" 
d="M325 470v-630h-20v160h-139q-44 0 -66 4.5t-29 22t-7 56.5v260q0 54 3 81.5t17.5 36.5t49.5 9h191zM305 453h-167q-24 0 -35.5 -7t-15 -25.5t-3.5 -53.5v-259q0 -34 1.5 -54t14.5 -28.5t47 -8.5h158v436z" />
    <glyph glyph-name="r" unicode="r" horiz-adv-x="260" 
d="M70 0v470h15l3 -49q17 25 43 39.5t58 14.5q22 0 34.5 -3t24.5 -8l-1 -19q-13 7 -25.5 10t-32.5 3q-35 0 -59 -17.5t-40 -42.5v-398h-20z" />
    <glyph glyph-name="s" unicode="s" horiz-adv-x="366" 
d="M179 -6q-68 0 -97 29.5t-29 82.5v71l19 4v-75q0 -23 8.5 -45t31.5 -36t67 -14q53 0 83.5 18t30.5 77q0 45 -16 67t-57 41q-6 3 -21.5 9t-33.5 12.5t-32.5 12.5t-19.5 9q-22 11 -35 23.5t-19 31t-6 47.5v9q0 54 31.5 80.5t100.5 26.5q68 0 97.5 -25t29.5 -81v-77l-19 -3
v78q0 54 -28.5 72.5t-80.5 18.5t-75.5 -15.5t-30 -37.5t-6.5 -41q0 -40 10.5 -57t40.5 -33q16 -8 37 -16t40.5 -15t29.5 -12q48 -22 65 -46t17 -72v-6q0 -55 -28.5 -84t-104.5 -29z" />
    <glyph glyph-name="t" unicode="t" horiz-adv-x="198" 
d="M157 0q-38 0 -58 10.5t-27 33.5t-7 58v352h-33v16h36l3 88h14v-88h85l-4 -16h-81v-359q0 -47 20 -62.5t55 -15.5h26v-17h-29z" />
    <glyph glyph-name="u" unicode="u" horiz-adv-x="397" 
d="M191 0q-54 0 -81 15.5t-36 38t-9 44.5v372h20v-365q0 -49 31 -68.5t80 -19.5h111v453h20v-470h-136z" />
    <glyph glyph-name="v" unicode="v" horiz-adv-x="302" 
d="M142 0l-123 470h20l113 -428l8 32l102 396h21l-124 -470h-17z" />
    <glyph glyph-name="w" unicode="w" horiz-adv-x="541" 
d="M16 470h21l121 -427l102 427h18l104 -425l120 425h20l-132 -470h-16l-104 432l-105 -432h-17z" />
    <glyph glyph-name="x" unicode="x" horiz-adv-x="299" 
d="M262 0l-91 241l89 229h19l-88 -229l90 -241h-19zM18 0l92 241l-90 229h20l90 -229l-92 -241h-20zM117 232v17h66v-17h-66z" />
    <glyph glyph-name="y" unicode="y" horiz-adv-x="305" 
d="M-4 -170l-1 15h32q39 0 62.5 17t35.5 68l19 73l-124 467h20l114 -430l1 -4h-4l1 4l114 430h21l-143 -543q-14 -53 -38 -75t-80 -22h-30z" />
    <glyph glyph-name="z" unicode="z" horiz-adv-x="278" 
d="M25 9l200 444h-199l6 17h216v-14l-198 -439h206l-10 -17h-221v9z" />
    <glyph glyph-name="braceleft" unicode="{" horiz-adv-x="300" 
d="M242 -135q-58 0 -93 14t-53.5 35t-25 42.5t-6.5 36.5q0 37 8 69t15.5 61.5t7.5 58.5q0 38 -15.5 58.5t-44.5 20.5v8q29 0 44.5 21t15.5 58q0 32 -7.5 60.5t-15.5 59t-8 69.5q0 15 6.5 36.5t25 42.5t53.5 35t93 14v-14q-51 0 -82 -12.5t-47 -31t-22 -38t-6 -34.5
q0 -34 7.5 -63.5t15 -58.5t7.5 -62q0 -34 -12.5 -56t-38.5 -30q26 -7 38.5 -29t12.5 -57q0 -33 -7.5 -61t-15 -57t-7.5 -66q0 -15 6 -34.5t22 -38t47 -31t82 -12.5v-14z" />
    <glyph glyph-name="bar" unicode="|" horiz-adv-x="212" 
d="M97 649h18v-722h-18v722z" />
    <glyph glyph-name="braceright" unicode="}" horiz-adv-x="300" 
d="M58 -135v14q51 0 82 12.5t47 31t22 38t6 34.5q0 37 -7.5 66t-15 57t-7.5 61q0 35 13 57t38 29q-25 8 -38 30t-13 56q0 33 7.5 62t15 58.5t7.5 63.5q0 15 -6 34.5t-22 38t-47 31t-82 12.5v14q58 0 93 -14t53.5 -35t25 -42.5t6.5 -36.5q0 -39 -7.5 -69.5t-15.5 -59
t-8 -60.5q0 -37 15.5 -58t44.5 -21v-8q-29 0 -44.5 -20.5t-15.5 -58.5q0 -29 8 -58.5t15.5 -61.5t7.5 -69q0 -15 -6.5 -36.5t-25 -42.5t-53.5 -35t-93 -14z" />
    <glyph glyph-name="asciitilde" unicode="~" horiz-adv-x="406" 
d="M58 629q0 35 21.5 51t53.5 16q31 0 52.5 -11.5t41.5 -23.5t45 -12q35 0 47.5 16t12.5 29h16q0 -34 -23 -47.5t-52 -13.5q-30 0 -52 12t-42 24t-44 12q-29 0 -44.5 -14.5t-15.5 -37.5h-17z" />
    <glyph glyph-name="uni00A0" unicode="&#xa0;" horiz-adv-x="170" 
 />
    <glyph glyph-name="exclamdown" unicode="&#xa1;" horiz-adv-x="212" 
d="M106 473q12 0 14.5 -4.5t2.5 -11.5q0 -8 -2.5 -13t-14.5 -5t-14 5t-2 13q0 7 2 11.5t14 4.5zM102 292h10l6 -432h-22z" />
    <glyph glyph-name="cent" unicode="&#xa2;" horiz-adv-x="338" 
d="M160 93q-51 0 -77 16t-35.5 40t-9.5 46v273q0 23 9.5 46.5t38 39.5t84.5 16q55 0 82.5 -16t37.5 -39.5t10 -46.5v-67l-20 -5v69q0 47 -31 67.5t-79 20.5t-80 -20.5t-32 -67.5v-267q0 -48 31 -68t71 -20q56 0 88 21.5t32 75.5v61l20 4v-61q0 -31 -10 -58t-40 -43.5
t-90 -16.5zM134 -85l49 763h12l-50 -763h-11z" />
    <glyph glyph-name="sterling" unicode="&#xa3;" horiz-adv-x="410" 
d="M267 -2q-16 0 -45.5 4t-61.5 8t-54 4q-16 0 -28.5 -1.5t-19.5 -6.5v12q43 43 60 92t17 128q0 58 -12 108t-24 92t-12 75q0 62 34.5 88.5t82.5 26.5q50 0 83.5 -29.5t33.5 -103.5v-43h-21v37q0 71 -28.5 98t-68.5 27q-43 0 -69.5 -26.5t-26.5 -73.5q0 -34 12 -74t24 -89.5
t12 -114.5q0 -81 -17.5 -130t-52.5 -78q5 1 11.5 1h13.5q23 0 49.5 -4t52.5 -8t45 -4q30 0 52 18.5t22 74.5v70l22 4v-59q0 -34 -5.5 -62t-24 -44.5t-56.5 -16.5zM59 271l5 12h186l-6 -12h-185z" />
    <glyph glyph-name="currency" unicode="&#xa4;" horiz-adv-x="303" 
d="M155 249q-31 0 -56 15t-40 40.5t-15 55.5q0 31 15 56t40 40t56 15q30 0 55 -15t40 -40t15 -56q0 -30 -15 -55.5t-40 -40.5t-55 -15zM153 266q38 1 65.5 28.5t27.5 65.5q0 39 -27 66.5t-66 27.5t-66.5 -27.5t-27.5 -66.5t27.5 -66.5t66.5 -27.5zM38 233l-10 10l48 49
l11 -9zM265 237l-44 45l10 10l45 -44zM231 428l-10 10l48 48l12 -10zM77 426l-53 52l10 11l52 -52z" />
    <glyph glyph-name="yen" unicode="&#xa5;" horiz-adv-x="343" 
d="M161 0v274l-138 346h20l126 -314l2 -10h1l2 10l125 314h20l-138 -346v-274h-20zM40 157l5 14h251l-5 -14h-251zM40 280l5 15h251l-5 -15h-251z" />
    <glyph glyph-name="brokenbar" unicode="&#xa6;" horiz-adv-x="212" 
d="M97 -73v311h18v-311h-18zM97 349v300h18v-300h-18z" />
    <glyph glyph-name="section" unicode="&#xa7;" horiz-adv-x="410" 
d="M195 -245q-44 1 -74.5 7.5t-46.5 24t-16 49.5v121l20 5v-122q0 -34 25.5 -50.5t89.5 -16.5q45 0 68 8.5t31 28t8 51.5v94q0 44 -20.5 65.5t-55.5 30.5l-82 22q-45 13 -73.5 35.5t-28.5 73.5v47q0 32 6.5 55t30 36t74.5 15q-32 14 -46.5 34t-14.5 56v98q0 42 15.5 63
t45.5 28.5t75 7.5q44 0 71.5 -7t40.5 -24.5t13 -49.5v-120l-20 -7v123q0 34 -20 51.5t-85 17.5q-67 0 -91.5 -20t-24.5 -67v-98q0 -39 23 -57t52 -26l84 -22q45 -11 73 -35.5t28 -68.5v-67q0 -35 -11.5 -59t-29.5 -36.5t-37 -15.5q11 -9 17 -20.5t8.5 -25.5t2.5 -31v-100
q0 -43 -13.5 -65t-41 -29t-70.5 -8zM280 45q28 2 49.5 30t21.5 68v64q0 41 -29.5 62t-63.5 29q-25 7 -35.5 10t-15.5 4.5t-11 3t-23 5.5q-55 0 -79 -13t-29 -34.5t-5 -46.5v-48q0 -30 15 -47.5t36 -27t40 -15.5q47 -12 70.5 -18.5t35.5 -11.5t23 -14z" />
    <glyph glyph-name="dieresis" unicode="&#xa8;" horiz-adv-x="157" 
d="M120 535q-11 0 -13 4.5t-2 11.5q0 8 2 12.5t13 4.5q13 0 15 -4.5t2 -12.5q0 -7 -2 -11.5t-15 -4.5zM36 535q-12 0 -14 4.5t-2 11.5q0 8 2 12.5t14 4.5t14 -4.5t2 -12.5q0 -7 -2 -11.5t-14 -4.5z" />
    <glyph glyph-name="copyright" unicode="&#xa9;" horiz-adv-x="767" 
d="M386 -3q-73 0 -134 24.5t-106.5 67.5t-70.5 99t-25 119q0 67 25 125t70.5 102t106.5 68.5t134 24.5q67 0 127 -24.5t106 -68.5t72 -102t26 -125q0 -63 -26 -119t-72 -99t-106 -67.5t-127 -24.5zM386 11q62 0 119 23.5t101.5 64.5t70.5 94.5t26 113.5q0 64 -26 119
t-70.5 97t-101.5 65.5t-119 23.5q-66 0 -124 -23.5t-102.5 -65.5t-69.5 -97t-25 -119q0 -60 25 -113.5t69.5 -94.5t102.5 -64.5t124 -23.5zM377 121q-41 0 -62 12.5t-28.5 31.5t-7.5 36v214q0 18 8 36.5t30.5 31t67.5 12.5q43 0 65 -12.5t30 -31t8 -36.5v-52l-17 -4v53
q0 37 -24 53.5t-62 16.5t-63 -16t-25 -54v-208q0 -37 24 -53t56 -16q44 0 69 17t25 58v48l17 4v-49q0 -23 -8 -44.5t-32 -34.5t-71 -13z" />
    <glyph glyph-name="ordfeminine" unicode="&#xaa;" horiz-adv-x="269" 
d="M94 350q-23 0 -32.5 6.5t-11.5 24t-2 50.5v170q0 24 4.5 35.5t19.5 15t44 3.5h105v-305h-17v291h-97q-33 0 -37.5 -12.5t-4.5 -43.5v-168q0 -31 6 -42t31 -11h80l-2 -14h-86z" />
    <glyph glyph-name="guillemotleft" unicode="&#xab;" horiz-adv-x="513" 
d="M409 54l-129 185l133 193h23l-133 -193l128 -185h-22zM206 54l-129 185l134 193h22l-133 -193l128 -185h-22z" />
    <glyph glyph-name="logicalnot" unicode="&#xac;" horiz-adv-x="584" 
d="M515 63v245h-467v16h487v-261h-20z" />
    <glyph glyph-name="uni00AD" unicode="&#xad;" horiz-adv-x="32" 
 />
    <glyph glyph-name="registered" unicode="&#xae;" horiz-adv-x="600" 
d="M253 318q-52 0 -94.5 25t-67 67.5t-24.5 95.5q0 51 24.5 92t67 65.5t94.5 24.5q51 0 92.5 -24.5t66.5 -65.5t25 -92q0 -53 -25 -95.5t-66.5 -67.5t-92.5 -25zM253 331q48 1 86.5 24.5t61.5 63t23 87.5q0 46 -23 84.5t-61.5 61.5t-86.5 23q-49 0 -88 -23t-62 -61.5
t-23 -84.5q0 -48 23 -88t62 -63.5t88 -23.5zM311 364l-47 121l-53 1v-117h-13v258h73q30 0 37.5 -10t7.5 -30v-43q0 -22 -6 -37.5t-33 -18.5l47 -119zM211 499h52q20 0 30.5 7t9.5 30v44q0 19 -7 27t-27 8h-58v-116z" />
    <glyph glyph-name="macron" unicode="&#xaf;" horiz-adv-x="189" 
d="M0 546v15h189v-15h-189z" />
    <glyph glyph-name="degree" unicode="&#xb0;" horiz-adv-x="248" 
d="M124 569q-25 0 -44.5 11t-31 29t-11.5 40q0 24 11.5 43t31 30t44.5 11q24 0 43.5 -11t31.5 -30t12 -43q0 -22 -12 -40t-31.5 -29t-43.5 -11zM124 582q29 0 50 19t21 47q0 29 -21 50t-50 21q-30 0 -50 -21t-20 -50q0 -28 20 -47t50 -19z" />
    <glyph glyph-name="plusminus" unicode="&#xb1;" horiz-adv-x="371" 
d="M178 423h14v-274h-14v274zM70 -2v14h237v-14h-237zM58 297v15h255v-15h-255z" />
    <glyph glyph-name="uni00B2" unicode="&#xb2;" horiz-adv-x="248" 
d="M34 222q0 41 5.5 69t16.5 48.5t26 36t34 30.5q6 4 11.5 8.5t9.5 8.5q21 17 33.5 31t17.5 31t5 39v19q0 37 -15.5 51.5t-42.5 14.5h-20q-24 0 -36.5 -10t-17 -24.5t-4.5 -27.5v-66l-19 2v56q0 47 19.5 66.5t60.5 19.5h20q35 0 55 -19.5t20 -60.5v-29q0 -34 -18.5 -59.5
t-50.5 -50.5q-7 -6 -14.5 -12t-15.5 -14q-30 -25 -42.5 -50t-15.5 -48.5t-3 -43.5h157l-4 -16h-172z" />
    <glyph glyph-name="uni00B3" unicode="&#xb3;" horiz-adv-x="257" 
d="M115 221q-38 0 -57 20t-19 65v57l19 -4v-47q0 -37 11.5 -56t46.5 -19h21q35 0 48 20.5t13 53.5v34q0 47 -19 61t-48 14h-37v15h36q29 0 48.5 17t19.5 60v31q0 40 -13.5 52.5t-46.5 12.5h-24q-36 0 -46 -19.5t-10 -45.5v-56l-19 5v51q0 41 17.5 61t48.5 20h39
q34 0 54 -15.5t20 -65.5v-30q0 -27 -9.5 -45t-22.5 -27.5t-25 -11.5l-13 -1l13 -1q12 -1 25.5 -8.5t22.5 -23t9 -40.5v-48q0 -45 -21.5 -65.5t-56.5 -20.5h-25z" />
    <glyph glyph-name="acute" unicode="&#xb4;" horiz-adv-x="111" 
d="M0 538l84 92h27l-96 -92h-15z" />
    <glyph glyph-name="uni00B5" unicode="&#xb5;" horiz-adv-x="342" 
d="M166 0q-54 0 -81 15.5t-36 38t-9 44.5v372h20v-365q0 -49 30.5 -68.5t80.5 -19.5h110v453h20v-470h-135zM105 -170q-38 0 -51.5 17t-13.5 60v563h20v-560q0 -32 9 -48t37 -16h11l-4 -16h-8z" />
    <glyph glyph-name="paragraph" unicode="&#xb6;" horiz-adv-x="354" 
d="M203 -112v342h-84q-57 0 -82 19.5t-31 51t-6 67.5v156q0 32 6.5 53.5t27.5 32t63 10.5h126v-732h-20zM283 620h18v-732h-18v732zM127 604v16h167v-16h-167z" />
    <glyph glyph-name="periodcentered" unicode="&#xb7;" horiz-adv-x="134" 
d="M66 235q-12 0 -14 4.5t-2 11.5q0 8 2 13t14 5t14.5 -5t2.5 -13q0 -7 -2.5 -11.5t-14.5 -4.5z" />
    <glyph glyph-name="cedilla" unicode="&#xb8;" horiz-adv-x="158" 
d="M64 -167q-19 0 -34.5 8t-23.5 16l10 11q5 -7 18.5 -15t28.5 -8q26 0 40.5 18.5t14.5 37.5q0 18 -11.5 33.5t-38.5 15.5q-17 0 -31 -7.5t-24 -18.5l-13 12l52 64h14l-43 -55q23 17 47 17q35 0 49.5 -19t14.5 -40q0 -24 -18 -47t-52 -23z" />
    <glyph glyph-name="uni00B9" unicode="&#xb9;" horiz-adv-x="186" 
d="M109 219v378l-80 -96l-9 9l89 112h19v-403h-19z" />
    <glyph glyph-name="ordmasculine" unicode="&#xba;" horiz-adv-x="268" 
d="M128 345q-34 0 -51 10.5t-23 26t-6 29.5v178q0 15 6 30t24.5 25.5t55.5 10.5q36 0 54.5 -10.5t25 -25.5t6.5 -30v-167q0 -20 -7 -37.5t-26.5 -28.5t-58.5 -11zM129 359q36 0 55 13t19 48v167q0 31 -18.5 42.5t-50.5 11.5q-31 0 -50 -11.5t-19 -42.5v-173q0 -31 18.5 -43
t45.5 -12z" />
    <glyph glyph-name="guillemotright" unicode="&#xbb;" horiz-adv-x="445" 
d="M252 54l128 185l-133 193h21l134 -193l-129 -185h-21zM48 54l128 185l-133 193h22l133 -193l-129 -185h-21z" />
    <glyph glyph-name="onequarter" unicode="&#xbc;" horiz-adv-x="587" 
d="M109 219v378l-80 -96l-9 9l89 112h19v-403h-19zM72 -44l380 674h20l-382 -674h-18zM515 5v81h-173l-8 16l180 306h21v-306h52l-3 -16h-49v-81h-20zM355 102h160v277z" />
    <glyph glyph-name="onehalf" unicode="&#xbd;" horiz-adv-x="616" 
d="M109 219v378l-80 -96l-9 9l89 112h19v-403h-19zM72 -44l380 674h20l-382 -674h-18zM402 1q0 41 5.5 69t16.5 48.5t26 36t34 30.5q6 4 11.5 8.5t9.5 8.5q21 17 33.5 31t17.5 31t5 39v19q0 37 -15.5 51.5t-42.5 14.5h-20q-24 0 -36.5 -10t-17 -24.5t-4.5 -27.5v-66l-19 2
v56q0 47 19.5 66.5t60.5 19.5h20q35 0 55 -19.5t20 -60.5v-29q0 -34 -18.5 -59.5t-50.5 -50.5q-7 -6 -14.5 -12t-15.5 -14q-30 -25 -42.5 -50t-15.5 -48.5t-3 -43.5h157l-4 -16h-172z" />
    <glyph glyph-name="threequarters" unicode="&#xbe;" horiz-adv-x="562" 
d="M115 221q-38 0 -57 20t-19 65v57l19 -4v-47q0 -37 11.5 -56t46.5 -19h21q35 0 48 20.5t13 53.5v34q0 47 -19 61t-48 14h-37v15h36q29 0 48.5 17t19.5 60v31q0 40 -13.5 52.5t-46.5 12.5h-24q-36 0 -46 -19.5t-10 -45.5v-56l-19 5v51q0 41 17.5 61t48.5 20h39
q34 0 54 -15.5t20 -65.5v-30q0 -27 -9.5 -45t-22.5 -27.5t-25 -11.5l-13 -1l13 -1q12 -1 25.5 -8.5t22.5 -23t9 -40.5v-48q0 -45 -21.5 -65.5t-56.5 -20.5h-25zM111 -44l380 674h20l-382 -674h-18zM490 2v81h-173l-8 16l180 306h21v-306h52l-3 -16h-49v-81h-20zM330 99h160
v277z" />
    <glyph glyph-name="questiondown" unicode="&#xbf;" horiz-adv-x="374" 
d="M236 327l4 -169h-105q-38 0 -54 -11.5t-18.5 -30t-2.5 -39.5v-105q0 -54 27 -78.5t64 -24.5h36q38 0 58 17.5t28 41.5t8 44v116l20 -4v-100q0 -72 -30.5 -102t-92.5 -30h-28q-50 0 -80 30.5t-30 88.5v115q0 50 20.5 69t72.5 19h85l4 153h14zM229 470q11 0 13.5 -4
t2.5 -11q0 -9 -2.5 -13.5t-13.5 -4.5q-12 0 -14 4.5t-2 13.5q0 7 2 11t14 4z" />
    <glyph glyph-name="Agrave" unicode="&#xc0;" horiz-adv-x="366" 
d="M24 0l132 620h54l130 -620h-21l-34 160l7 -6h-220l6 6l-33 -160h-21zM78 167l-3 4h214l-4 -4l-89 431l-2 1h-22l-2 -1zM187 688l-106 82h27l94 -82h-15z" />
    <glyph glyph-name="Aacute" unicode="&#xc1;" horiz-adv-x="366" 
d="M24 0l132 620h54l130 -620h-21l-34 160l7 -6h-220l6 6l-33 -160h-21zM78 167l-3 4h214l-4 -4l-89 431l-2 1h-22l-2 -1zM146 688l94 82h27l-106 -82h-15z" />
    <glyph glyph-name="Acircumflex" unicode="&#xc2;" horiz-adv-x="366" 
d="M24 0l132 620h54l130 -620h-21l-34 160l7 -6h-220l6 6l-33 -160h-21zM78 167l-3 4h214l-4 -4l-89 431l-2 1h-22l-2 -1zM83 688l84 85h28l84 -85h-15l-82 72l-82 -72h-17z" />
    <glyph glyph-name="Atilde" unicode="&#xc3;" horiz-adv-x="366" 
d="M24 0l132 620h54l130 -620h-21l-34 160l7 -6h-220l6 6l-33 -160h-21zM78 167l-3 4h214l-4 -4l-89 431l-2 1h-22l-2 -1zM92 682q0 35 13.5 50.5t32.5 15.5q20 0 33 -11.5t25.5 -23t27.5 -11.5q23 0 28.5 15.5t5.5 28.5h14q0 -34 -14.5 -47t-31.5 -13q-19 0 -33 12
t-26 23.5t-27 11.5q-18 0 -26 -14t-8 -37h-14z" />
    <glyph glyph-name="Adieresis" unicode="&#xc4;" horiz-adv-x="366" 
d="M24 0l132 620h54l130 -620h-21l-34 160l7 -6h-220l6 6l-33 -160h-21zM78 167l-3 4h214l-4 -4l-89 431l-2 1h-22l-2 -1zM223 685q-11 0 -13 4.5t-2 11.5q0 8 2 12.5t13 4.5q13 0 15 -4.5t2 -12.5q0 -7 -2 -11.5t-15 -4.5zM139 685q-12 0 -14 4.5t-2 11.5q0 8 2 12.5
t14 4.5t14 -4.5t2 -12.5q0 -7 -2 -11.5t-14 -4.5z" />
    <glyph glyph-name="Aring" unicode="&#xc5;" horiz-adv-x="366" 
d="M24 0l132 620h54l130 -620h-21l-34 160l7 -6h-220l6 6l-33 -160h-21zM78 167l-3 4h214l-4 -4l-89 431l-2 1h-22l-2 -1zM182 683q-29 0 -48 18.5t-19 43.5q0 26 19 44.5t48 18.5q27 0 46 -18.5t19 -44.5q0 -25 -19 -43.5t-46 -18.5zM182 694q21 0 37 15t16 35q0 22 -16 38
t-37 16q-23 0 -38.5 -16t-15.5 -38q0 -20 15.5 -35t38.5 -15z" />
    <glyph glyph-name="AE" unicode="&#xc6;" horiz-adv-x="557" 
d="M261 620h262v-17h-241v-241h227l-5 -16h-222v-330h241v-16h-262v620zM66 154v17h204v-17h-204zM23 0l137 620h18l-135 -620h-20zM162 603v17h109v-17h-109z" />
    <glyph glyph-name="Ccedilla" unicode="&#xc7;" horiz-adv-x="369" 
d="M186 -6q-61 0 -94.5 24t-33.5 74v432q0 50 29.5 77t95.5 27q70 0 101.5 -26t31.5 -79v-133l-20 -4v133q0 41 -23 66t-87 25q-62 0 -85 -25t-23 -65v-425q0 -37 26 -60.5t82 -23.5q57 0 83.5 23.5t26.5 61.5v128l20 5v-136q0 -51 -34 -75t-96 -24zM197 -167q-19 0 -34.5 8
t-23.5 16l10 11q5 -7 18.5 -15t28.5 -8q26 0 40.5 18.5t14.5 37.5q0 18 -11.5 33.5t-38.5 15.5q-17 0 -31 -7.5t-24 -18.5l-13 12l52 64h14l-43 -55q23 17 47 17q35 0 49.5 -19t14.5 -40q0 -24 -18 -47t-52 -23z" />
    <glyph glyph-name="Egrave" unicode="&#xc8;" horiz-adv-x="365" 
d="M70 620h260v-17h-240v-241h226l-5 -16h-221v-330h240v-16h-260v620zM190 688l-106 82h27l94 -82h-15z" />
    <glyph glyph-name="Eacute" unicode="&#xc9;" horiz-adv-x="365" 
d="M70 620h260v-17h-240v-241h226l-5 -16h-221v-330h240v-16h-260v620zM149 688l94 82h27l-106 -82h-15z" />
    <glyph glyph-name="Ecircumflex" unicode="&#xca;" horiz-adv-x="365" 
d="M70 620h260v-17h-240v-241h226l-5 -16h-221v-330h240v-16h-260v620zM86 688l84 85h28l84 -85h-15l-82 72l-82 -72h-17z" />
    <glyph glyph-name="Edieresis" unicode="&#xcb;" horiz-adv-x="365" 
d="M70 620h260v-17h-240v-241h226l-5 -16h-221v-330h240v-16h-260v620zM226 685q-11 0 -13 4.5t-2 11.5q0 8 2 12.5t13 4.5q13 0 15 -4.5t2 -12.5q0 -7 -2 -11.5t-15 -4.5zM142 685q-12 0 -14 4.5t-2 11.5q0 8 2 12.5t14 4.5t14 -4.5t2 -12.5q0 -7 -2 -11.5t-14 -4.5z" />
    <glyph glyph-name="Igrave" unicode="&#xcc;" horiz-adv-x="160" 
d="M70 620h20v-620h-20v620zM85 688l-106 82h27l94 -82h-15z" />
    <glyph glyph-name="Iacute" unicode="&#xcd;" horiz-adv-x="160" 
d="M70 620h20v-620h-20v620zM44 688l94 82h27l-106 -82h-15z" />
    <glyph glyph-name="Icircumflex" unicode="&#xce;" horiz-adv-x="160" 
d="M70 620h20v-620h-20v620zM-19 688l84 85h28l84 -85h-15l-82 72l-82 -72h-17z" />
    <glyph glyph-name="Idieresis" unicode="&#xcf;" horiz-adv-x="160" 
d="M70 620h20v-620h-20v620zM121 685q-11 0 -13 4.5t-2 11.5q0 8 2 12.5t13 4.5q13 0 15 -4.5t2 -12.5q0 -7 -2 -11.5t-15 -4.5zM37 685q-12 0 -14 4.5t-2 11.5q0 8 2 12.5t14 4.5t14 -4.5t2 -12.5q0 -7 -2 -11.5t-14 -4.5z" />
    <glyph glyph-name="Eth" unicode="&#xd0;" horiz-adv-x="371" 
d="M69 620h174q47 0 68 -25.5t21 -72.5v-423q0 -54 -18 -76.5t-79 -22.5h-166v620zM2 178v14h206v-14h-206zM227 17q49 0 66.5 16.5t17.5 68.5v417q0 43 -20 63.5t-54 20.5h-147v-586h137z" />
    <glyph glyph-name="Ntilde" unicode="&#xd1;" horiz-adv-x="403" 
d="M70 0v620h21l219 -571l2 -5l1 -2v578h20v-620h-23l-217 561l-3 7v0v-568h-20zM112 682q0 35 13.5 50.5t32.5 15.5q20 0 33 -11.5t25.5 -23t27.5 -11.5q23 0 28.5 15.5t5.5 28.5h14q0 -34 -14.5 -47t-31.5 -13q-19 0 -33 12t-26 23.5t-27 11.5q-18 0 -26 -14t-8 -37h-14z
" />
    <glyph glyph-name="Ograve" unicode="&#xd2;" horiz-adv-x="378" 
d="M188 -2q-61 0 -95.5 22.5t-34.5 65.5v457q0 36 30.5 61t99.5 24q70 -1 101 -25t31 -61v-455q0 -43 -34 -66t-98 -23zM188 15q58 0 85 22t27 53v449q0 26 -24 49t-90 23q-61 0 -84.5 -22.5t-23.5 -48.5v-451q0 -31 27 -52.5t83 -21.5zM194 688l-106 82h27l94 -82h-15z" />
    <glyph glyph-name="Oacute" unicode="&#xd3;" horiz-adv-x="378" 
d="M188 -2q-61 0 -95.5 22.5t-34.5 65.5v457q0 36 30.5 61t99.5 24q70 -1 101 -25t31 -61v-455q0 -43 -34 -66t-98 -23zM188 15q58 0 85 22t27 53v449q0 26 -24 49t-90 23q-61 0 -84.5 -22.5t-23.5 -48.5v-451q0 -31 27 -52.5t83 -21.5zM153 688l94 82h27l-106 -82h-15z" />
    <glyph glyph-name="Ocircumflex" unicode="&#xd4;" horiz-adv-x="378" 
d="M188 -2q-61 0 -95.5 22.5t-34.5 65.5v457q0 36 30.5 61t99.5 24q70 -1 101 -25t31 -61v-455q0 -43 -34 -66t-98 -23zM188 15q58 0 85 22t27 53v449q0 26 -24 49t-90 23q-61 0 -84.5 -22.5t-23.5 -48.5v-451q0 -31 27 -52.5t83 -21.5zM90 688l84 85h28l84 -85h-15l-82 72
l-82 -72h-17z" />
    <glyph glyph-name="Otilde" unicode="&#xd5;" horiz-adv-x="378" 
d="M188 -2q-61 0 -95.5 22.5t-34.5 65.5v457q0 36 30.5 61t99.5 24q70 -1 101 -25t31 -61v-455q0 -43 -34 -66t-98 -23zM188 15q58 0 85 22t27 53v449q0 26 -24 49t-90 23q-61 0 -84.5 -22.5t-23.5 -48.5v-451q0 -31 27 -52.5t83 -21.5zM99 682q0 35 13.5 50.5t32.5 15.5
q20 0 33 -11.5t25.5 -23t27.5 -11.5q23 0 28.5 15.5t5.5 28.5h14q0 -34 -14.5 -47t-31.5 -13q-19 0 -33 12t-26 23.5t-27 11.5q-18 0 -26 -14t-8 -37h-14z" />
    <glyph glyph-name="Odieresis" unicode="&#xd6;" horiz-adv-x="378" 
d="M188 -2q-61 0 -95.5 22.5t-34.5 65.5v457q0 36 30.5 61t99.5 24q70 -1 101 -25t31 -61v-455q0 -43 -34 -66t-98 -23zM188 15q58 0 85 22t27 53v449q0 26 -24 49t-90 23q-61 0 -84.5 -22.5t-23.5 -48.5v-451q0 -31 27 -52.5t83 -21.5zM230 685q-11 0 -13 4.5t-2 11.5
q0 8 2 12.5t13 4.5q13 0 15 -4.5t2 -12.5q0 -7 -2 -11.5t-15 -4.5zM146 685q-12 0 -14 4.5t-2 11.5q0 8 2 12.5t14 4.5t14 -4.5t2 -12.5q0 -7 -2 -11.5t-14 -4.5z" />
    <glyph glyph-name="multiply" unicode="&#xd7;" horiz-adv-x="332" 
d="M74 400l11 11l180 -181l-11 -10zM78 215l-10 10l180 181l11 -11z" />
    <glyph glyph-name="Oslash" unicode="&#xd8;" horiz-adv-x="373" 
d="M185 -2q-61 0 -95.5 22.5t-34.5 65.5v456q0 38 30.5 62.5t98.5 23.5q71 -1 102 -25t31 -62v-454q0 -43 -35 -66t-97 -23zM184 15q59 0 86 22t27 53v447q0 18 -10 35t-35 27.5t-70 10.5q-61 0 -84 -23t-23 -49v-449q0 -30 27 -52t82 -22zM62 -44l226 675h15l-229 -675h-12
z" />
    <glyph glyph-name="Ugrave" unicode="&#xd9;" horiz-adv-x="392" 
d="M196 -5q-35 0 -64.5 9t-47.5 29.5t-18 55.5v531h20v-523q0 -22 9 -41.5t32.5 -31.5t68.5 -12q48 0 71.5 12t31 31.5t7.5 41.5v523h20v-531q0 -35 -16.5 -55.5t-46 -29.5t-67.5 -9zM201 688l-106 82h27l94 -82h-15z" />
    <glyph glyph-name="Uacute" unicode="&#xda;" horiz-adv-x="392" 
d="M196 -5q-35 0 -64.5 9t-47.5 29.5t-18 55.5v531h20v-523q0 -22 9 -41.5t32.5 -31.5t68.5 -12q48 0 71.5 12t31 31.5t7.5 41.5v523h20v-531q0 -35 -16.5 -55.5t-46 -29.5t-67.5 -9zM160 688l94 82h27l-106 -82h-15z" />
    <glyph glyph-name="Ucircumflex" unicode="&#xdb;" horiz-adv-x="392" 
d="M196 -5q-35 0 -64.5 9t-47.5 29.5t-18 55.5v531h20v-523q0 -22 9 -41.5t32.5 -31.5t68.5 -12q48 0 71.5 12t31 31.5t7.5 41.5v523h20v-531q0 -35 -16.5 -55.5t-46 -29.5t-67.5 -9zM97 688l84 85h28l84 -85h-15l-82 72l-82 -72h-17z" />
    <glyph glyph-name="Udieresis" unicode="&#xdc;" horiz-adv-x="392" 
d="M196 -5q-35 0 -64.5 9t-47.5 29.5t-18 55.5v531h20v-523q0 -22 9 -41.5t32.5 -31.5t68.5 -12q48 0 71.5 12t31 31.5t7.5 41.5v523h20v-531q0 -35 -16.5 -55.5t-46 -29.5t-67.5 -9zM237 685q-11 0 -13 4.5t-2 11.5q0 8 2 12.5t13 4.5q13 0 15 -4.5t2 -12.5q0 -7 -2 -11.5
t-15 -4.5zM153 685q-12 0 -14 4.5t-2 11.5q0 8 2 12.5t14 4.5t14 -4.5t2 -12.5q0 -7 -2 -11.5t-14 -4.5z" />
    <glyph glyph-name="Yacute" unicode="&#xdd;" horiz-adv-x="327" 
d="M153 0v274l-137 346h19l126 -314l2 -10h1l2 10l125 314h20l-138 -346v-274h-20zM127 688l94 82h27l-106 -82h-15z" />
    <glyph glyph-name="Thorn" unicode="&#xde;" horiz-adv-x="382" 
d="M38 682h20v-101h145q43 0 63.5 -10.5t27 -32t6.5 -53.5v-156q0 -36 -6 -67.5t-31 -51t-82 -19.5h-123v-191h-20v682zM183 208q47 0 72 24t25 79v171q0 44 -16.5 63t-65.5 19h-140v-356h125z" />
    <glyph glyph-name="germandbls" unicode="&#xdf;" horiz-adv-x="437" 
d="M-31 -170l-5 16h64q30 0 39 16t9 48v546h-43v14h43v71q0 45 19 62t79 17h21q36 0 57 -7.5t30 -25t9 -48.5v-59q0 -7 -3 -10t-11 -4q-32 -1 -49 -16.5t-23 -39t-6 -47.5q0 -36 8 -55.5t36 -34.5q32 -18 47.5 -26.5t27.5 -14.5q32 -17 47 -32.5t19.5 -35.5t4.5 -51v-6
q0 -55 -28 -84t-105 -29q-67 0 -96 29.5t-29 82.5v71l19 4v-75q0 -23 8.5 -45.5t31.5 -36.5t67 -14q53 0 83.5 18t30.5 78q0 31 -4 50t-17 33t-42 30q-12 7 -35 19t-41 22q-20 10 -31.5 22t-16 31.5t-4.5 49.5q0 56 22 86t69 31v59q0 41 -18 54t-64 13h-8q-53 0 -69 -13.5
t-16 -53.5v-632q0 -43 -14 -60t-52 -17h-61z" />
    <glyph glyph-name="agrave" unicode="&#xe0;" horiz-adv-x="396" 
d="M133 0q-34 0 -48.5 9t-17.5 36t-3 80v262q0 39 7 56.5t29 22t67 4.5h159v-470h-20v453h-159q-34 0 -47 -8.5t-14.5 -28t-1.5 -54.5v-259q0 -35 3 -53.5t14.5 -25.5t36.5 -7h130l-4 -17h-131zM202 538l-96 92h27l84 -92h-15z" />
    <glyph glyph-name="aacute" unicode="&#xe1;" horiz-adv-x="396" 
d="M133 0q-34 0 -48.5 9t-17.5 36t-3 80v262q0 39 7 56.5t29 22t67 4.5h159v-470h-20v453h-159q-34 0 -47 -8.5t-14.5 -28t-1.5 -54.5v-259q0 -35 3 -53.5t14.5 -25.5t36.5 -7h130l-4 -17h-131zM161 538l84 92h27l-96 -92h-15z" />
    <glyph glyph-name="acircumflex" unicode="&#xe2;" horiz-adv-x="396" 
d="M133 0q-34 0 -48.5 9t-17.5 36t-3 80v262q0 39 7 56.5t29 22t67 4.5h159v-470h-20v453h-159q-34 0 -47 -8.5t-14.5 -28t-1.5 -54.5v-259q0 -35 3 -53.5t14.5 -25.5t36.5 -7h130l-4 -17h-131zM98 538l84 85h28l84 -85h-15l-82 72l-82 -72h-17z" />
    <glyph glyph-name="atilde" unicode="&#xe3;" horiz-adv-x="396" 
d="M133 0q-34 0 -48.5 9t-17.5 36t-3 80v262q0 39 7 56.5t29 22t67 4.5h159v-470h-20v453h-159q-34 0 -47 -8.5t-14.5 -28t-1.5 -54.5v-259q0 -35 3 -53.5t14.5 -25.5t36.5 -7h130l-4 -17h-131zM107 532q0 35 13.5 50.5t32.5 15.5q20 0 33 -11.5t25.5 -23t27.5 -11.5
q23 0 28.5 15.5t5.5 28.5h14q0 -34 -14.5 -47t-31.5 -13q-19 0 -33 12t-26 23.5t-27 11.5q-18 0 -26 -14t-8 -37h-14z" />
    <glyph glyph-name="adieresis" unicode="&#xe4;" horiz-adv-x="396" 
d="M133 0q-34 0 -48.5 9t-17.5 36t-3 80v262q0 39 7 56.5t29 22t67 4.5h159v-470h-20v453h-159q-34 0 -47 -8.5t-14.5 -28t-1.5 -54.5v-259q0 -35 3 -53.5t14.5 -25.5t36.5 -7h130l-4 -17h-131zM238 535q-11 0 -13 4.5t-2 11.5q0 8 2 12.5t13 4.5q13 0 15 -4.5t2 -12.5
q0 -7 -2 -11.5t-15 -4.5zM154 535q-12 0 -14 4.5t-2 11.5q0 8 2 12.5t14 4.5t14 -4.5t2 -12.5q0 -7 -2 -11.5t-14 -4.5z" />
    <glyph glyph-name="aring" unicode="&#xe5;" horiz-adv-x="396" 
d="M133 0q-34 0 -48.5 9t-17.5 36t-3 80v262q0 39 7 56.5t29 22t67 4.5h159v-470h-20v453h-159q-34 0 -47 -8.5t-14.5 -28t-1.5 -54.5v-259q0 -35 3 -53.5t14.5 -25.5t36.5 -7h130l-4 -17h-131zM197 533q-29 0 -48 18.5t-19 43.5q0 26 19 44.5t48 18.5q27 0 46 -18.5
t19 -44.5q0 -25 -19 -43.5t-46 -18.5zM197 544q21 0 37 15t16 35q0 22 -16 38t-37 16q-23 0 -38.5 -16t-15.5 -38q0 -20 15.5 -35t38.5 -15z" />
    <glyph glyph-name="ae" unicode="&#xe6;" horiz-adv-x="580" 
d="M133 0q-34 0 -48.5 9t-17.5 36t-3 80v262q0 39 7 56.5t29 22t67 4.5h159v-470h-20v453h-159q-34 0 -47 -8.5t-14.5 -28t-1.5 -54.5v-259q0 -35 3 -53.5t14.5 -25.5t36.5 -7h130l-4 -17h-131zM424 0q-51 0 -77.5 16t-35.5 40t-9 46v275q0 23 9.5 46.5t37.5 39.5t84 16
q55 0 83 -16t38 -39.5t10 -46.5v-125h-20v122q0 47 -31 68t-80 21q-48 0 -79.5 -20.5t-31.5 -68.5v-269q0 -47 30.5 -67.5t71.5 -20.5q56 0 88 22t32 75v59l20 4v-59q0 -30 -10.5 -57t-40.5 -44t-89 -17zM308 242v14h256v-14h-256z" />
    <glyph glyph-name="ccedilla" unicode="&#xe7;" horiz-adv-x="378" 
d="M182 -4q-51 0 -77.5 16t-35.5 40t-9 46v275q0 23 9.5 46.5t37.5 39.5t84 16q55 0 83 -16t38 -39.5t10 -46.5v-66l-20 -6v69q0 47 -31 68t-80 21q-48 0 -79.5 -20.5t-31.5 -68.5v-269q0 -47 30.5 -67.5t71.5 -20.5q56 0 88 22t32 75v61l20 5v-62q0 -30 -10.5 -57
t-40.5 -44t-89 -17zM201 -167q-19 0 -34.5 8t-23.5 16l10 11q5 -7 18.5 -15t28.5 -8q26 0 40.5 18.5t14.5 37.5q0 18 -11.5 33.5t-38.5 15.5q-17 0 -31 -7.5t-24 -18.5l-13 12l52 64h14l-43 -55q23 17 47 17q35 0 49.5 -19t14.5 -40q0 -24 -18 -47t-52 -23z" />
    <glyph glyph-name="egrave" unicode="&#xe8;" horiz-adv-x="382" 
d="M182 -4q-51 0 -77.5 16t-35.5 40t-9 46v275q0 23 9.5 46.5t37.5 39.5t84 16q55 0 83 -16t38 -39.5t10 -46.5v-125h-20v122q0 47 -31 68t-80 21q-48 0 -79.5 -20.5t-31.5 -68.5v-269q0 -47 30.5 -67.5t71.5 -20.5q56 0 88 22t32 75v59l20 4v-59q0 -30 -10.5 -57t-40.5 -44
t-89 -17zM66 238v14h256v-14h-256zM196 538l-96 92h27l84 -92h-15z" />
    <glyph glyph-name="eacute" unicode="&#xe9;" horiz-adv-x="382" 
d="M182 -4q-51 0 -77.5 16t-35.5 40t-9 46v275q0 23 9.5 46.5t37.5 39.5t84 16q55 0 83 -16t38 -39.5t10 -46.5v-125h-20v122q0 47 -31 68t-80 21q-48 0 -79.5 -20.5t-31.5 -68.5v-269q0 -47 30.5 -67.5t71.5 -20.5q56 0 88 22t32 75v59l20 4v-59q0 -30 -10.5 -57t-40.5 -44
t-89 -17zM66 238v14h256v-14h-256zM155 538l84 92h27l-96 -92h-15z" />
    <glyph glyph-name="ecircumflex" unicode="&#xea;" horiz-adv-x="382" 
d="M182 -4q-51 0 -77.5 16t-35.5 40t-9 46v275q0 23 9.5 46.5t37.5 39.5t84 16q55 0 83 -16t38 -39.5t10 -46.5v-125h-20v122q0 47 -31 68t-80 21q-48 0 -79.5 -20.5t-31.5 -68.5v-269q0 -47 30.5 -67.5t71.5 -20.5q56 0 88 22t32 75v59l20 4v-59q0 -30 -10.5 -57t-40.5 -44
t-89 -17zM66 238v14h256v-14h-256zM92 538l84 85h28l84 -85h-15l-82 72l-82 -72h-17z" />
    <glyph glyph-name="edieresis" unicode="&#xeb;" horiz-adv-x="382" 
d="M182 -4q-51 0 -77.5 16t-35.5 40t-9 46v275q0 23 9.5 46.5t37.5 39.5t84 16q55 0 83 -16t38 -39.5t10 -46.5v-125h-20v122q0 47 -31 68t-80 21q-48 0 -79.5 -20.5t-31.5 -68.5v-269q0 -47 30.5 -67.5t71.5 -20.5q56 0 88 22t32 75v59l20 4v-59q0 -30 -10.5 -57t-40.5 -44
t-89 -17zM66 238v14h256v-14h-256zM232 535q-11 0 -13 4.5t-2 11.5q0 8 2 12.5t13 4.5q13 0 15 -4.5t2 -12.5q0 -7 -2 -11.5t-15 -4.5zM148 535q-12 0 -14 4.5t-2 11.5q0 8 2 12.5t14 4.5t14 -4.5t2 -12.5q0 -7 -2 -11.5t-14 -4.5z" />
    <glyph glyph-name="igrave" unicode="&#xec;" horiz-adv-x="160" 
d="M70 470h20v-470h-20v470zM85 538l-96 92h27l84 -92h-15z" />
    <glyph glyph-name="iacute" unicode="&#xed;" horiz-adv-x="160" 
d="M70 470h20v-470h-20v470zM44 538l84 92h27l-96 -92h-15z" />
    <glyph glyph-name="icircumflex" unicode="&#xee;" horiz-adv-x="160" 
d="M70 470h20v-470h-20v470zM-19 538l84 85h28l84 -85h-15l-82 72l-82 -72h-17z" />
    <glyph glyph-name="idieresis" unicode="&#xef;" horiz-adv-x="160" 
d="M70 470h20v-470h-20v470zM121 535q-11 0 -13 4.5t-2 11.5q0 8 2 12.5t13 4.5q13 0 15 -4.5t2 -12.5q0 -7 -2 -11.5t-15 -4.5zM37 535q-12 0 -14 4.5t-2 11.5q0 8 2 12.5t14 4.5t14 -4.5t2 -12.5q0 -7 -2 -11.5t-14 -4.5z" />
    <glyph glyph-name="eth" unicode="&#xf0;" horiz-adv-x="378" 
d="M186 -1q-51 0 -79 11.5t-38.5 45t-10.5 98.5v172q0 77 27 110.5t105 33.5q41 0 67.5 -12t40.5 -35l-4 -2q-7 80 -44 132.5t-108 52.5h-73v14h79q48 0 86.5 -26t61.5 -84.5t23 -155.5v-238q0 -33 -6 -55.5t-20.5 -36t-40.5 -19.5t-66 -6zM186 16q67 0 90 22t23 78v253
q0 36 -23 60.5t-87 24.5q-35 0 -60 -9.5t-38 -36.5t-13 -80v-191q0 -51 11 -77t34.5 -35t62.5 -9zM103 522l-10 7l96 127l9 -7z" />
    <glyph glyph-name="ntilde" unicode="&#xf1;" horiz-adv-x="395" 
d="M70 472h15l3 -49q16 23 44.5 38.5t72.5 15.5q64 0 95 -26.5t31 -76.5v-374h-20v368q0 48 -30.5 69.5t-80.5 21.5q-42 0 -68 -16.5t-42 -39.5v-403h-20v472zM109 532q0 35 13.5 50.5t32.5 15.5q20 0 33 -11.5t25.5 -23t27.5 -11.5q23 0 28.5 15.5t5.5 28.5h14
q0 -34 -14.5 -47t-31.5 -13q-19 0 -33 12t-26 23.5t-27 11.5q-18 0 -26 -14t-8 -37h-14z" />
    <glyph glyph-name="ograve" unicode="&#xf2;" horiz-adv-x="382" 
d="M182 -4q-51 0 -77.5 16t-35.5 40t-9 46v275q0 23 9.5 46.5t37.5 39.5t84 16q55 0 83 -16t38 -39.5t10 -46.5v-259q0 -30 -10.5 -57t-40.5 -44t-89 -17zM182 13q56 0 88 22t32 75v260q0 47 -31 68t-80 21q-48 0 -79.5 -20.5t-31.5 -68.5v-269q0 -47 30.5 -67.5t71.5 -20.5
zM196 538l-96 92h27l84 -92h-15z" />
    <glyph glyph-name="oacute" unicode="&#xf3;" horiz-adv-x="382" 
d="M182 -4q-51 0 -77.5 16t-35.5 40t-9 46v275q0 23 9.5 46.5t37.5 39.5t84 16q55 0 83 -16t38 -39.5t10 -46.5v-259q0 -30 -10.5 -57t-40.5 -44t-89 -17zM182 13q56 0 88 22t32 75v260q0 47 -31 68t-80 21q-48 0 -79.5 -20.5t-31.5 -68.5v-269q0 -47 30.5 -67.5t71.5 -20.5
zM155 538l84 92h27l-96 -92h-15z" />
    <glyph glyph-name="ocircumflex" unicode="&#xf4;" horiz-adv-x="382" 
d="M182 -4q-51 0 -77.5 16t-35.5 40t-9 46v275q0 23 9.5 46.5t37.5 39.5t84 16q55 0 83 -16t38 -39.5t10 -46.5v-259q0 -30 -10.5 -57t-40.5 -44t-89 -17zM182 13q56 0 88 22t32 75v260q0 47 -31 68t-80 21q-48 0 -79.5 -20.5t-31.5 -68.5v-269q0 -47 30.5 -67.5t71.5 -20.5
zM92 538l84 85h28l84 -85h-15l-82 72l-82 -72h-17z" />
    <glyph glyph-name="otilde" unicode="&#xf5;" horiz-adv-x="382" 
d="M182 -4q-51 0 -77.5 16t-35.5 40t-9 46v275q0 23 9.5 46.5t37.5 39.5t84 16q55 0 83 -16t38 -39.5t10 -46.5v-259q0 -30 -10.5 -57t-40.5 -44t-89 -17zM182 13q56 0 88 22t32 75v260q0 47 -31 68t-80 21q-48 0 -79.5 -20.5t-31.5 -68.5v-269q0 -47 30.5 -67.5t71.5 -20.5
zM101 532q0 35 13.5 50.5t32.5 15.5q20 0 33 -11.5t25.5 -23t27.5 -11.5q23 0 28.5 15.5t5.5 28.5h14q0 -34 -14.5 -47t-31.5 -13q-19 0 -33 12t-26 23.5t-27 11.5q-18 0 -26 -14t-8 -37h-14z" />
    <glyph glyph-name="odieresis" unicode="&#xf6;" horiz-adv-x="382" 
d="M182 -4q-51 0 -77.5 16t-35.5 40t-9 46v275q0 23 9.5 46.5t37.5 39.5t84 16q55 0 83 -16t38 -39.5t10 -46.5v-259q0 -30 -10.5 -57t-40.5 -44t-89 -17zM182 13q56 0 88 22t32 75v260q0 47 -31 68t-80 21q-48 0 -79.5 -20.5t-31.5 -68.5v-269q0 -47 30.5 -67.5t71.5 -20.5
zM232 535q-11 0 -13 4.5t-2 11.5q0 8 2 12.5t13 4.5q13 0 15 -4.5t2 -12.5q0 -7 -2 -11.5t-15 -4.5zM148 535q-12 0 -14 4.5t-2 11.5q0 8 2 12.5t14 4.5t14 -4.5t2 -12.5q0 -7 -2 -11.5t-14 -4.5z" />
    <glyph glyph-name="divide" unicode="&#xf7;" horiz-adv-x="371" 
d="M58 195v15h255v-15h-255zM183 355q-12 0 -14 4.5t-2 11.5q0 8 2 13t14 5t14.5 -5t2.5 -13q0 -7 -2.5 -11.5t-14.5 -4.5zM183 5q-12 0 -14 4.5t-2 11.5q0 8 2 13t14 5t14.5 -5t2.5 -13q0 -7 -2.5 -11.5t-14.5 -4.5z" />
    <glyph glyph-name="oslash" unicode="&#xf8;" horiz-adv-x="346" 
d="M165 -4q-51 0 -77 16t-35.5 40t-9.5 46v273q0 23 9.5 46.5t38 39.5t84.5 16q55 0 82.5 -16t37.5 -39.5t10 -46.5v-257q0 -30 -10 -57t-40 -44t-90 -17zM165 13q56 0 88 22t32 75v258q0 47 -31 68t-79 21t-80 -20.5t-32 -68.5v-267q0 -47 31 -67.5t71 -20.5zM9 -100l-11 1
l335 672h12z" />
    <glyph glyph-name="ugrave" unicode="&#xf9;" horiz-adv-x="397" 
d="M191 0q-54 0 -81 15.5t-36 38t-9 44.5v372h20v-365q0 -49 31 -68.5t80 -19.5h111v453h20v-470h-136zM203 538l-96 92h27l84 -92h-15z" />
    <glyph glyph-name="uacute" unicode="&#xfa;" horiz-adv-x="397" 
d="M191 0q-54 0 -81 15.5t-36 38t-9 44.5v372h20v-365q0 -49 31 -68.5t80 -19.5h111v453h20v-470h-136zM162 538l84 92h27l-96 -92h-15z" />
    <glyph glyph-name="ucircumflex" unicode="&#xfb;" horiz-adv-x="397" 
d="M191 0q-54 0 -81 15.5t-36 38t-9 44.5v372h20v-365q0 -49 31 -68.5t80 -19.5h111v453h20v-470h-136zM99 538l84 85h28l84 -85h-15l-82 72l-82 -72h-17z" />
    <glyph glyph-name="udieresis" unicode="&#xfc;" horiz-adv-x="397" 
d="M191 0q-54 0 -81 15.5t-36 38t-9 44.5v372h20v-365q0 -49 31 -68.5t80 -19.5h111v453h20v-470h-136zM239 535q-11 0 -13 4.5t-2 11.5q0 8 2 12.5t13 4.5q13 0 15 -4.5t2 -12.5q0 -7 -2 -11.5t-15 -4.5zM155 535q-12 0 -14 4.5t-2 11.5q0 8 2 12.5t14 4.5t14 -4.5t2 -12.5
q0 -7 -2 -11.5t-14 -4.5z" />
    <glyph glyph-name="yacute" unicode="&#xfd;" horiz-adv-x="305" 
d="M-4 -170l-1 15h32q39 0 62.5 17t35.5 68l19 73l-124 467h20l114 -430l1 -4h-4l1 4l114 430h21l-143 -543q-14 -53 -38 -75t-80 -22h-30zM119 538l84 92h27l-96 -92h-15z" />
    <glyph glyph-name="thorn" unicode="&#xfe;" horiz-adv-x="343" 
d="M43 -157v768h20v-141h172q35 0 49.5 -9t17.5 -36.5t3 -81.5v-260q0 -39 -7 -56.5t-29 -22t-67 -4.5h-139v-157h-20zM63 17h159q34 0 46.5 8.5t14.5 28.5t2 54v259q0 35 -3 53.5t-14.5 25.5t-36.5 7h-168v-436z" />
    <glyph glyph-name="ydieresis" unicode="&#xff;" horiz-adv-x="305" 
d="M-4 -170l-1 15h32q39 0 62.5 17t35.5 68l19 73l-124 467h20l114 -430l1 -4h-4l1 4l114 430h21l-143 -543q-14 -53 -38 -75t-80 -22h-30zM196 535q-11 0 -13 4.5t-2 11.5q0 8 2 12.5t13 4.5q13 0 15 -4.5t2 -12.5q0 -7 -2 -11.5t-15 -4.5zM112 535q-12 0 -14 4.5t-2 11.5
q0 8 2 12.5t14 4.5t14 -4.5t2 -12.5q0 -7 -2 -11.5t-14 -4.5z" />
    <glyph glyph-name="Amacron" unicode="&#x100;" horiz-adv-x="366" 
d="M24 0l132 620h54l130 -620h-21l-34 160l7 -6h-220l6 6l-33 -160h-21zM78 167l-3 4h214l-4 -4l-89 431l-2 1h-22l-2 -1zM87 696v15h189v-15h-189z" />
    <glyph glyph-name="amacron" unicode="&#x101;" horiz-adv-x="396" 
d="M133 0q-34 0 -48.5 9t-17.5 36t-3 80v262q0 39 7 56.5t29 22t67 4.5h159v-470h-20v453h-159q-34 0 -47 -8.5t-14.5 -28t-1.5 -54.5v-259q0 -35 3 -53.5t14.5 -25.5t36.5 -7h130l-4 -17h-131zM102 546v15h189v-15h-189z" />
    <glyph glyph-name="Abreve" unicode="&#x102;" horiz-adv-x="366" 
d="M24 0l132 620h54l130 -620h-21l-34 160l7 -6h-220l6 6l-33 -160h-21zM78 167l-3 4h214l-4 -4l-89 431l-2 1h-22l-2 -1zM180 684q-36 0 -54.5 14t-24.5 34t-6 37h15q0 -24 15 -47.5t55 -23.5q42 0 58 23.5t17 47.5h14q0 -36 -20 -60.5t-69 -24.5z" />
    <glyph glyph-name="abreve" unicode="&#x103;" horiz-adv-x="396" 
d="M133 0q-34 0 -48.5 9t-17.5 36t-3 80v262q0 39 7 56.5t29 22t67 4.5h159v-470h-20v453h-159q-34 0 -47 -8.5t-14.5 -28t-1.5 -54.5v-259q0 -35 3 -53.5t14.5 -25.5t36.5 -7h130l-4 -17h-131zM195 534q-36 0 -54.5 14t-24.5 34t-6 37h14q0 -27 15.5 -48.5t55.5 -21.5
q42 0 58.5 21t16.5 49h14q0 -34 -20 -59.5t-69 -25.5z" />
    <glyph glyph-name="Aogonek" unicode="&#x104;" horiz-adv-x="366" 
d="M24 0l132 620h54l130 -620h-21l-34 160l7 -6h-220l6 6l-33 -160h-21zM78 167l-3 4h214l-4 -4l-89 431l-2 1h-22l-2 -1zM295 -160q-27 0 -43.5 20t-16.5 49q0 26 21.5 53.5t67.5 43.5l14 -4q-37 -16 -61.5 -37.5t-24.5 -54.5q0 -22 13.5 -38.5t35.5 -16.5q18 0 31.5 4.5
t29.5 17.5l2 -15q-18 -13 -33.5 -17.5t-35.5 -4.5z" />
    <glyph glyph-name="aogonek" unicode="&#x105;" horiz-adv-x="396" 
d="M133 0q-34 0 -48.5 9t-17.5 36t-3 80v262q0 39 7 56.5t29 22t67 4.5h159v-470h-20v453h-159q-34 0 -47 -8.5t-14.5 -28t-1.5 -54.5v-259q0 -35 3 -53.5t14.5 -25.5t36.5 -7h130l-4 -17h-131zM281 -156q-27 0 -43.5 20t-16.5 49q0 26 21.5 53.5t67.5 43.5l14 -4
q-37 -16 -61.5 -37.5t-24.5 -54.5q0 -22 13.5 -38.5t35.5 -16.5q18 0 31.5 4.5t29.5 17.5l2 -15q-18 -13 -33.5 -17.5t-35.5 -4.5z" />
    <glyph glyph-name="Cacute" unicode="&#x106;" horiz-adv-x="369" 
d="M186 -6q-61 0 -94.5 24t-33.5 74v432q0 50 29.5 77t95.5 27q70 0 101.5 -26t31.5 -79v-133l-20 -4v133q0 41 -23 66t-87 25q-62 0 -85 -25t-23 -65v-425q0 -37 26 -60.5t82 -23.5q57 0 83.5 23.5t26.5 61.5v128l20 5v-136q0 -51 -34 -75t-96 -24zM149 688l94 82h27
l-106 -82h-15z" />
    <glyph glyph-name="cacute" unicode="&#x107;" horiz-adv-x="378" 
d="M182 -4q-51 0 -77.5 16t-35.5 40t-9 46v275q0 23 9.5 46.5t37.5 39.5t84 16q55 0 83 -16t38 -39.5t10 -46.5v-66l-20 -6v69q0 47 -31 68t-80 21q-48 0 -79.5 -20.5t-31.5 -68.5v-269q0 -47 30.5 -67.5t71.5 -20.5q56 0 88 22t32 75v61l20 5v-62q0 -30 -10.5 -57
t-40.5 -44t-89 -17zM153 538l84 92h27l-96 -92h-15z" />
    <glyph glyph-name="Ccircumflex" unicode="&#x108;" horiz-adv-x="369" 
d="M186 -6q-61 0 -94.5 24t-33.5 74v432q0 50 29.5 77t95.5 27q70 0 101.5 -26t31.5 -79v-133l-20 -4v133q0 41 -23 66t-87 25q-62 0 -85 -25t-23 -65v-425q0 -37 26 -60.5t82 -23.5q57 0 83.5 23.5t26.5 61.5v128l20 5v-136q0 -51 -34 -75t-96 -24zM86 688l84 85h28l84 -85
h-15l-82 72l-82 -72h-17z" />
    <glyph glyph-name="ccircumflex" unicode="&#x109;" horiz-adv-x="378" 
d="M182 -4q-51 0 -77.5 16t-35.5 40t-9 46v275q0 23 9.5 46.5t37.5 39.5t84 16q55 0 83 -16t38 -39.5t10 -46.5v-66l-20 -6v69q0 47 -31 68t-80 21q-48 0 -79.5 -20.5t-31.5 -68.5v-269q0 -47 30.5 -67.5t71.5 -20.5q56 0 88 22t32 75v61l20 5v-62q0 -30 -10.5 -57
t-40.5 -44t-89 -17zM90 538l84 85h28l84 -85h-15l-82 72l-82 -72h-17z" />
    <glyph glyph-name="Cdotaccent" unicode="&#x10a;" horiz-adv-x="369" 
d="M186 -6q-61 0 -94.5 24t-33.5 74v432q0 50 29.5 77t95.5 27q70 0 101.5 -26t31.5 -79v-133l-20 -4v133q0 41 -23 66t-87 25q-62 0 -85 -25t-23 -65v-425q0 -37 26 -60.5t82 -23.5q57 0 83.5 23.5t26.5 61.5v128l20 5v-136q0 -51 -34 -75t-96 -24zM184 686q-12 0 -14 4.5
t-2 11.5q0 8 2 13t14 5t14 -5t2 -13q0 -7 -2 -11.5t-14 -4.5z" />
    <glyph glyph-name="cdotaccent" unicode="&#x10b;" horiz-adv-x="378" 
d="M182 -4q-51 0 -77.5 16t-35.5 40t-9 46v275q0 23 9.5 46.5t37.5 39.5t84 16q55 0 83 -16t38 -39.5t10 -46.5v-66l-20 -6v69q0 47 -31 68t-80 21q-48 0 -79.5 -20.5t-31.5 -68.5v-269q0 -47 30.5 -67.5t71.5 -20.5q56 0 88 22t32 75v61l20 5v-62q0 -30 -10.5 -57
t-40.5 -44t-89 -17zM188 536q-12 0 -14 4.5t-2 11.5q0 8 2 13t14 5t14 -5t2 -13q0 -7 -2 -11.5t-14 -4.5z" />
    <glyph glyph-name="Ccaron" unicode="&#x10c;" horiz-adv-x="369" 
d="M86 773h17l82 -72l82 72h15l-84 -85h-28zM186 -6q-61 0 -94.5 24t-33.5 74v432q0 50 29.5 77t95.5 27q70 0 101.5 -26t31.5 -79v-133l-20 -4v133q0 41 -23 66t-87 25q-62 0 -85 -25t-23 -65v-425q0 -37 26 -60.5t82 -23.5q57 0 83.5 23.5t26.5 61.5v128l20 5v-136
q0 -51 -34 -75t-96 -24z" />
    <glyph glyph-name="ccaron" unicode="&#x10d;" horiz-adv-x="378" 
d="M90 623h17l82 -72l82 72h15l-84 -85h-28zM182 -4q-51 0 -77.5 16t-35.5 40t-9 46v275q0 23 9.5 46.5t37.5 39.5t84 16q55 0 83 -16t38 -39.5t10 -46.5v-66l-20 -6v69q0 47 -31 68t-80 21q-48 0 -79.5 -20.5t-31.5 -68.5v-269q0 -47 30.5 -67.5t71.5 -20.5q56 0 88 22
t32 75v61l20 5v-62q0 -30 -10.5 -57t-40.5 -44t-89 -17z" />
    <glyph glyph-name="Dcaron" unicode="&#x10e;" horiz-adv-x="388" 
d="M97 773h17l82 -72l82 72h15l-84 -85h-28zM70 620h173q47 0 67 -25.5t20 -72.5v-423q0 -54 -17.5 -76.5t-77.5 -22.5h-165v620zM226 17q49 0 66.5 16.5t17.5 68.5v417q0 43 -19.5 63.5t-53.5 20.5h-147v-586h136z" />
    <glyph glyph-name="dcaron" unicode="&#x10f;" horiz-adv-x="376" 
d="M133 0q-29 0 -44 6t-20 27.5t-5 67.5v286q0 36 6.5 54t26.5 23.5t62 5.5h147v160h20v-630h-193zM306 17v436h-156q-42 0 -54 -11t-12 -52v-308q0 -42 11.5 -53.5t42.5 -11.5h168zM364 509l27 140h18l-34 -140h-11z" />
    <glyph glyph-name="Dcroat" unicode="&#x110;" horiz-adv-x="388" 
d="M-2 196v18h144v-18h-144zM70 620h173q47 0 67 -25.5t20 -72.5v-423q0 -54 -17.5 -76.5t-77.5 -22.5h-165v620zM226 17q49 0 66.5 16.5t17.5 68.5v417q0 43 -19.5 63.5t-53.5 20.5h-147v-586h136z" />
    <glyph glyph-name="dcroat" unicode="&#x111;" horiz-adv-x="396" 
d="M133 0q-29 0 -44 6t-20 27.5t-5 67.5v286q0 36 6.5 54t26.5 23.5t62 5.5h147v160h20v-630h-193zM306 17v436h-156q-42 0 -54 -11t-12 -52v-308q0 -42 11.5 -53.5t42.5 -11.5h168zM153 533v13h213v-13h-213z" />
    <glyph glyph-name="Emacron" unicode="&#x112;" horiz-adv-x="365" 
d="M70 620h260v-17h-240v-241h226l-5 -16h-221v-330h240v-16h-260v620zM90 696v15h189v-15h-189z" />
    <glyph glyph-name="emacron" unicode="&#x113;" horiz-adv-x="382" 
d="M182 -4q-51 0 -77.5 16t-35.5 40t-9 46v275q0 23 9.5 46.5t37.5 39.5t84 16q55 0 83 -16t38 -39.5t10 -46.5v-125h-20v122q0 47 -31 68t-80 21q-48 0 -79.5 -20.5t-31.5 -68.5v-269q0 -47 30.5 -67.5t71.5 -20.5q56 0 88 22t32 75v59l20 4v-59q0 -30 -10.5 -57t-40.5 -44
t-89 -17zM66 238v14h256v-14h-256zM96 546v15h189v-15h-189z" />
    <glyph glyph-name="Ebreve" unicode="&#x114;" horiz-adv-x="365" 
d="M70 620h260v-17h-240v-241h226l-5 -16h-221v-330h240v-16h-260v620zM183 684q-36 0 -54.5 14t-24.5 34t-6 37h15q0 -24 15 -47.5t55 -23.5q42 0 58 23.5t17 47.5h14q0 -36 -20 -60.5t-69 -24.5z" />
    <glyph glyph-name="ebreve" unicode="&#x115;" horiz-adv-x="382" 
d="M182 -4q-51 0 -77.5 16t-35.5 40t-9 46v275q0 23 9.5 46.5t37.5 39.5t84 16q55 0 83 -16t38 -39.5t10 -46.5v-125h-20v122q0 47 -31 68t-80 21q-48 0 -79.5 -20.5t-31.5 -68.5v-269q0 -47 30.5 -67.5t71.5 -20.5q56 0 88 22t32 75v59l20 4v-59q0 -30 -10.5 -57t-40.5 -44
t-89 -17zM66 238v14h256v-14h-256zM189 534q-36 0 -54.5 14t-24.5 34t-6 37h14q0 -27 15.5 -48.5t55.5 -21.5q42 0 58.5 21t16.5 49h14q0 -34 -20 -59.5t-69 -25.5z" />
    <glyph glyph-name="Edotaccent" unicode="&#x116;" horiz-adv-x="365" 
d="M70 620h260v-17h-240v-241h226l-5 -16h-221v-330h240v-16h-260v620zM184 686q-12 0 -14 4.5t-2 11.5q0 8 2 13t14 5t14 -5t2 -13q0 -7 -2 -11.5t-14 -4.5z" />
    <glyph glyph-name="edotaccent" unicode="&#x117;" horiz-adv-x="382" 
d="M182 -4q-51 0 -77.5 16t-35.5 40t-9 46v275q0 23 9.5 46.5t37.5 39.5t84 16q55 0 83 -16t38 -39.5t10 -46.5v-125h-20v122q0 47 -31 68t-80 21q-48 0 -79.5 -20.5t-31.5 -68.5v-269q0 -47 30.5 -67.5t71.5 -20.5q56 0 88 22t32 75v59l20 4v-59q0 -30 -10.5 -57t-40.5 -44
t-89 -17zM66 238v14h256v-14h-256zM190 536q-12 0 -14 4.5t-2 11.5q0 8 2 13t14 5t14 -5t2 -13q0 -7 -2 -11.5t-14 -4.5z" />
    <glyph glyph-name="Eogonek" unicode="&#x118;" horiz-adv-x="365" 
d="M70 620h260v-17h-240v-241h226l-5 -16h-221v-330h240v-16h-260v620zM284 -158q-27 0 -43.5 20t-16.5 49q0 26 21.5 53.5t67.5 43.5l14 -4q-37 -16 -61.5 -37.5t-24.5 -54.5q0 -22 13.5 -38.5t35.5 -16.5q18 0 31.5 4.5t29.5 17.5l2 -15q-18 -13 -33.5 -17.5t-35.5 -4.5z
" />
    <glyph glyph-name="eogonek" unicode="&#x119;" horiz-adv-x="382" 
d="M182 -4q-51 0 -77.5 16t-35.5 40t-9 46v275q0 23 9.5 46.5t37.5 39.5t84 16q55 0 83 -16t38 -39.5t10 -46.5v-125h-20v122q0 47 -31 68t-80 21q-48 0 -79.5 -20.5t-31.5 -68.5v-269q0 -47 30.5 -67.5t71.5 -20.5q56 0 88 22t32 75v59l20 4v-59q0 -30 -10.5 -57t-40.5 -44
t-89 -17zM66 238v14h256v-14h-256zM217 -156q-27 0 -43.5 20t-16.5 49q0 26 21.5 53.5t67.5 43.5l14 -4q-37 -16 -61.5 -37.5t-24.5 -54.5q0 -22 13.5 -38.5t35.5 -16.5q18 0 31.5 4.5t29.5 17.5l2 -15q-18 -13 -33.5 -17.5t-35.5 -4.5z" />
    <glyph glyph-name="Ecaron" unicode="&#x11a;" horiz-adv-x="365" 
d="M86 773h17l82 -72l82 72h15l-84 -85h-28zM70 620h260v-17h-240v-241h226l-5 -16h-221v-330h240v-16h-260v620z" />
    <glyph glyph-name="ecaron" unicode="&#x11b;" horiz-adv-x="382" 
d="M92 623h17l82 -72l82 72h15l-84 -85h-28zM182 -4q-51 0 -77.5 16t-35.5 40t-9 46v275q0 23 9.5 46.5t37.5 39.5t84 16q55 0 83 -16t38 -39.5t10 -46.5v-125h-20v122q0 47 -31 68t-80 21q-48 0 -79.5 -20.5t-31.5 -68.5v-269q0 -47 30.5 -67.5t71.5 -20.5q56 0 88 22
t32 75v59l20 4v-59q0 -30 -10.5 -57t-40.5 -44t-89 -17zM66 238v14h256v-14h-256z" />
    <glyph glyph-name="Gcircumflex" unicode="&#x11c;" horiz-adv-x="375" 
d="M193 -2q-41 0 -71.5 5.5t-47 23.5t-16.5 55v461q0 50 36.5 65.5t98.5 15.5t94.5 -16t32.5 -66v-114l-20 -5v117q0 41 -28.5 54t-78.5 13q-49 0 -82 -11t-33 -55v-457q0 -32 15 -46.5t41 -18.5t59 -4q31 0 55 4t38 18.5t14 46.5v232h-135l5 17h150v-251q0 -37 -14.5 -55
t-43 -23.5t-69.5 -5.5zM88 688l84 85h28l84 -85h-15l-82 72l-82 -72h-17z" />
    <glyph glyph-name="gcircumflex" unicode="&#x11d;" horiz-adv-x="396" 
d="M120 -170l-4 16h142q30 0 39 16t9 48v543h-159q-34 0 -47 -8.5t-14.5 -28t-1.5 -54.5v-259q0 -35 3 -53.5t14.5 -25.5t36.5 -7h130l-4 -17h-131q-34 0 -48.5 9t-17.5 36t-3 80v262q0 39 7 56.5t29 22t67 4.5h159v-563q0 -43 -14.5 -60t-52.5 -17h-139zM99 538l84 85h28
l84 -85h-15l-82 72l-82 -72h-17z" />
    <glyph glyph-name="Gbreve" unicode="&#x11e;" horiz-adv-x="375" 
d="M193 -2q-41 0 -71.5 5.5t-47 23.5t-16.5 55v461q0 50 36.5 65.5t98.5 15.5t94.5 -16t32.5 -66v-114l-20 -5v117q0 41 -28.5 54t-78.5 13q-49 0 -82 -11t-33 -55v-457q0 -32 15 -46.5t41 -18.5t59 -4q31 0 55 4t38 18.5t14 46.5v232h-135l5 17h150v-251q0 -37 -14.5 -55
t-43 -23.5t-69.5 -5.5zM185 684q-36 0 -54.5 14t-24.5 34t-6 37h15q0 -24 15 -47.5t55 -23.5q42 0 58 23.5t17 47.5h14q0 -36 -20 -60.5t-69 -24.5z" />
    <glyph glyph-name="gbreve" unicode="&#x11f;" horiz-adv-x="396" 
d="M120 -170l-4 16h142q30 0 39 16t9 48v543h-159q-34 0 -47 -8.5t-14.5 -28t-1.5 -54.5v-259q0 -35 3 -53.5t14.5 -25.5t36.5 -7h130l-4 -17h-131q-34 0 -48.5 9t-17.5 36t-3 80v262q0 39 7 56.5t29 22t67 4.5h159v-563q0 -43 -14.5 -60t-52.5 -17h-139zM196 534
q-36 0 -54.5 14t-24.5 34t-6 37h14q0 -27 15.5 -48.5t55.5 -21.5q42 0 58.5 21t16.5 49h14q0 -34 -20 -59.5t-69 -25.5z" />
    <glyph glyph-name="Gdotaccent" unicode="&#x120;" horiz-adv-x="375" 
d="M193 -2q-41 0 -71.5 5.5t-47 23.5t-16.5 55v461q0 50 36.5 65.5t98.5 15.5t94.5 -16t32.5 -66v-114l-20 -5v117q0 41 -28.5 54t-78.5 13q-49 0 -82 -11t-33 -55v-457q0 -32 15 -46.5t41 -18.5t59 -4q31 0 55 4t38 18.5t14 46.5v232h-135l5 17h150v-251q0 -37 -14.5 -55
t-43 -23.5t-69.5 -5.5zM186 686q-12 0 -14 4.5t-2 11.5q0 8 2 13t14 5t14 -5t2 -13q0 -7 -2 -11.5t-14 -4.5z" />
    <glyph glyph-name="gdotaccent" unicode="&#x121;" horiz-adv-x="396" 
d="M120 -170l-4 16h142q30 0 39 16t9 48v543h-159q-34 0 -47 -8.5t-14.5 -28t-1.5 -54.5v-259q0 -35 3 -53.5t14.5 -25.5t36.5 -7h130l-4 -17h-131q-34 0 -48.5 9t-17.5 36t-3 80v262q0 39 7 56.5t29 22t67 4.5h159v-563q0 -43 -14.5 -60t-52.5 -17h-139zM197 536
q-12 0 -14 4.5t-2 11.5q0 8 2 13t14 5t14 -5t2 -13q0 -7 -2 -11.5t-14 -4.5z" />
    <glyph glyph-name="uni0122" unicode="&#x122;" horiz-adv-x="375" 
d="M193 -2q-41 0 -71.5 5.5t-47 23.5t-16.5 55v461q0 50 36.5 65.5t98.5 15.5t94.5 -16t32.5 -66v-114l-20 -5v117q0 41 -28.5 54t-78.5 13q-49 0 -82 -11t-33 -55v-457q0 -32 15 -46.5t41 -18.5t59 -4q31 0 55 4t38 18.5t14 46.5v232h-135l5 17h150v-251q0 -37 -14.5 -55
t-43 -23.5t-69.5 -5.5zM165 -149q12 17 20 36t8 41q-13 0 -15.5 3t-2.5 7q0 6 2 10t15 4q11 0 13 -3.5t2 -9.5q0 -15 -3.5 -31.5t-10 -31t-15.5 -25.5h-13z" />
    <glyph glyph-name="uni0123" unicode="&#x123;" horiz-adv-x="396" 
d="M120 -170l-4 16h142q30 0 39 16t9 48v543h-159q-34 0 -47 -8.5t-14.5 -28t-1.5 -54.5v-259q0 -35 3 -53.5t14.5 -25.5t36.5 -7h130l-4 -17h-131q-34 0 -48.5 9t-17.5 36t-3 80v262q0 39 7 56.5t29 22t67 4.5h159v-563q0 -43 -14.5 -60t-52.5 -17h-139zM193 538
q-10 0 -12.5 3.5t-2.5 9.5q0 14 3.5 30.5t10.5 31.5t15 25h14q-13 -16 -20 -35t-7 -41q11 0 13.5 -2.5t2.5 -6.5q0 -6 -2 -10.5t-15 -4.5z" />
    <glyph glyph-name="Hcircumflex" unicode="&#x124;" horiz-adv-x="400" 
d="M70 620h20v-258h220v258h20v-620h-20v346h-220v-346h-20v620zM101 688l84 85h28l84 -85h-15l-82 72l-82 -72h-17z" />
    <glyph glyph-name="hcircumflex" unicode="&#x125;" horiz-adv-x="395" 
d="M70 630h20v-207q17 25 44 38.5t71 13.5q54 0 81 -16t36 -39.5t9 -45.5v-374h-20v368q0 49 -30.5 69.5t-80.5 20.5q-44 0 -69 -16t-41 -39v-403h-20v630zM-20 698l84 85h28l84 -85h-15l-82 72l-82 -72h-17z" />
    <glyph glyph-name="Hbar" unicode="&#x126;" horiz-adv-x="362" 
d="M10 529v18h344v-18h-344zM83 620h20v-258h220v258h20v-620h-20v346h-220v-346h-20v620z" />
    <glyph glyph-name="hbar" unicode="&#x127;" horiz-adv-x="395" 
d="M24 533v13h163v-13h-163zM70 630h20v-207q17 25 44 38.5t71 13.5q54 0 81 -16t36 -39.5t9 -45.5v-374h-20v368q0 49 -30.5 69.5t-80.5 20.5q-44 0 -69 -16t-41 -39v-403h-20v630z" />
    <glyph glyph-name="Itilde" unicode="&#x128;" horiz-adv-x="160" 
d="M70 620h20v-620h-20v620zM-10 682q0 35 13.5 50.5t32.5 15.5q20 0 33 -11.5t25.5 -23t27.5 -11.5q23 0 28.5 15.5t5.5 28.5h14q0 -34 -14.5 -47t-31.5 -13q-19 0 -33 12t-26 23.5t-27 11.5q-18 0 -26 -14t-8 -37h-14z" />
    <glyph glyph-name="itilde" unicode="&#x129;" horiz-adv-x="160" 
d="M70 470h20v-470h-20v470zM-10 532q0 35 13.5 50.5t32.5 15.5q20 0 33 -11.5t25.5 -23t27.5 -11.5q23 0 28.5 15.5t5.5 28.5h14q0 -34 -14.5 -47t-31.5 -13q-19 0 -33 12t-26 23.5t-27 11.5q-18 0 -26 -14t-8 -37h-14z" />
    <glyph glyph-name="Imacron" unicode="&#x12a;" horiz-adv-x="160" 
d="M70 620h20v-620h-20v620zM-15 696v15h189v-15h-189z" />
    <glyph glyph-name="imacron" unicode="&#x12b;" horiz-adv-x="160" 
d="M70 470h20v-470h-20v470zM-15 546v15h189v-15h-189z" />
    <glyph glyph-name="Ibreve" unicode="&#x12c;" horiz-adv-x="160" 
d="M70 620h20v-620h-20v620zM78 684q-36 0 -54.5 14t-24.5 34t-6 37h15q0 -24 15 -47.5t55 -23.5q42 0 58 23.5t17 47.5h14q0 -36 -20 -60.5t-69 -24.5z" />
    <glyph glyph-name="ibreve" unicode="&#x12d;" horiz-adv-x="160" 
d="M70 470h20v-470h-20v470zM78 534q-36 0 -54.5 14t-24.5 34t-6 37h14q0 -27 15.5 -48.5t55.5 -21.5q42 0 58.5 21t16.5 49h14q0 -34 -20 -59.5t-69 -25.5z" />
    <glyph glyph-name="Iogonek" unicode="&#x12e;" horiz-adv-x="160" 
d="M70 620h20v-620h-20v620zM45 -157q-27 0 -43.5 20t-16.5 49q0 26 21.5 53.5t67.5 43.5l14 -4q-37 -16 -61.5 -37.5t-24.5 -54.5q0 -22 13.5 -38.5t35.5 -16.5q18 0 31.5 4.5t29.5 17.5l2 -15q-18 -13 -33.5 -17.5t-35.5 -4.5z" />
    <glyph glyph-name="iogonek" unicode="&#x12f;" horiz-adv-x="160" 
d="M70 470h20v-470h-20v470zM79 536q-12 0 -14 4.5t-2 11.5q0 8 2 13t14 5t14 -5t2 -13q0 -7 -2 -11.5t-14 -4.5zM19 -156q-27 0 -43.5 20t-16.5 49q0 26 21.5 53.5t67.5 43.5l14 -4q-37 -16 -61.5 -37.5t-24.5 -54.5q0 -22 13.5 -38.5t35.5 -16.5q18 0 31.5 4.5t29.5 17.5
l2 -15q-18 -13 -33.5 -17.5t-35.5 -4.5z" />
    <glyph glyph-name="Idotaccent" unicode="&#x130;" horiz-adv-x="160" 
d="M70 620h20v-620h-20v620zM79 686q-12 0 -14 4.5t-2 11.5q0 8 2 13t14 5t14 -5t2 -13q0 -7 -2 -11.5t-14 -4.5z" />
    <glyph glyph-name="dotlessi" unicode="&#x131;" horiz-adv-x="160" 
d="M70 470h20v-470h-20v470z" />
    <glyph glyph-name="Jcircumflex" unicode="&#x134;" horiz-adv-x="175" 
d="M5 0l-5 17h51q19 0 27 5t9.5 20t1.5 46v532h20v-535q0 -38 -2.5 -56.5t-15 -23.5t-42.5 -5h-44zM0 688l84 85h28l84 -85h-15l-82 72l-82 -72h-17z" />
    <glyph glyph-name="jcircumflex" unicode="&#x135;" horiz-adv-x="149" 
d="M-47 -170l-3 16h67q29 0 38 16t9 48v560h20v-563q0 -43 -14 -60t-52 -17h-65zM-25 538l84 85h28l84 -85h-15l-82 72l-82 -72h-17z" />
    <glyph glyph-name="uni0136" unicode="&#x136;" horiz-adv-x="341" 
d="M308 -6l-176 341l164 288l16 -9l-158 -279l173 -332zM70 620h20v-620h-20v620zM153 -149q12 17 20 36t8 41q-13 0 -15.5 3t-2.5 7q0 6 2 10t15 4q11 0 13 -3.5t2 -9.5q0 -15 -3.5 -31.5t-10 -31t-15.5 -25.5h-13z" />
    <glyph glyph-name="uni0137" unicode="&#x137;" horiz-adv-x="332" 
d="M70 0v630h20v-630h-20zM310 0l-174 234h-56v16h56l145 232l20 -9l-146 -230l179 -243h-24zM164 -149q12 17 20 36t8 41q-13 0 -15.5 3t-2.5 7q0 6 2 10t15 4q11 0 13 -3.5t2 -9.5q0 -15 -3.5 -31.5t-10 -31t-15.5 -25.5h-13z" />
    <glyph glyph-name="kgreenlandic" unicode="&#x138;" horiz-adv-x="323" 
d="M40 0v555h20v-555h-20zM50 234v16h61v-16h-61zM280 0l-179 242l143 228h25l-145 -227l180 -243h-24z" />
    <glyph glyph-name="Lacute" unicode="&#x139;" horiz-adv-x="317" 
d="M70 620h20v-604h211v-16h-231v620zM49 688l94 82h27l-106 -82h-15z" />
    <glyph glyph-name="lacute" unicode="&#x13a;" horiz-adv-x="160" 
d="M70 630h20v-630h-20v630zM44 698l84 92h27l-96 -92h-15z" />
    <glyph glyph-name="uni013B" unicode="&#x13b;" horiz-adv-x="317" 
d="M70 620h20v-604h211v-16h-231v620zM159 -149q12 17 20 36t8 41q-13 0 -15.5 3t-2.5 7q0 6 2 10t15 4q11 0 13 -3.5t2 -9.5q0 -15 -3.5 -31.5t-10 -31t-15.5 -25.5h-13z" />
    <glyph glyph-name="uni013C" unicode="&#x13c;" horiz-adv-x="160" 
d="M70 630h20v-630h-20v630zM58 -149q12 17 20 36t8 41q-13 0 -15.5 3t-2.5 7q0 6 2 10t15 4q11 0 13 -3.5t2 -9.5q0 -15 -3.5 -31.5t-10 -31t-15.5 -25.5h-13z" />
    <glyph glyph-name="Lcaron" unicode="&#x13d;" horiz-adv-x="317" 
d="M70 620h20v-604h211v-16h-231v620zM176 509l27 140h18l-34 -140h-11z" />
    <glyph glyph-name="lcaron" unicode="&#x13e;" horiz-adv-x="160" 
d="M70 630h20v-630h-20v630zM148 509l27 140h18l-34 -140h-11z" />
    <glyph glyph-name="Ldot" unicode="&#x13f;" horiz-adv-x="295" 
d="M70 620h20v-604h211v-16h-231v620zM255 237q-12 0 -14 4.5t-2 11.5q0 8 2 13t14 5t14.5 -5t2.5 -13q0 -7 -2.5 -11.5t-14.5 -4.5z" />
    <glyph glyph-name="ldot" unicode="&#x140;" horiz-adv-x="135" 
d="M70 630h20v-630h-20v630zM134 238q-12 0 -14 4.5t-2 11.5q0 8 2 13t14 5t14.5 -5t2.5 -13q0 -7 -2.5 -11.5t-14.5 -4.5z" />
    <glyph glyph-name="Lslash" unicode="&#x141;" horiz-adv-x="333" 
d="M53 620h20v-604h212v-16h-232v620zM1 219l-5 16l169 45l5 -16z" />
    <glyph glyph-name="lslash" unicode="&#x142;" horiz-adv-x="247" 
d="M99 630h20v-630h-20v630zM42 219l-5 16l169 45l5 -16z" />
    <glyph glyph-name="Nacute" unicode="&#x143;" horiz-adv-x="403" 
d="M70 0v620h21l219 -571l2 -5l1 -2v578h20v-620h-23l-217 561l-3 7v0v-568h-20zM166 688l94 82h27l-106 -82h-15z" />
    <glyph glyph-name="nacute" unicode="&#x144;" horiz-adv-x="395" 
d="M70 472h15l3 -49q16 23 44.5 38.5t72.5 15.5q64 0 95 -26.5t31 -76.5v-374h-20v368q0 48 -30.5 69.5t-80.5 21.5q-42 0 -68 -16.5t-42 -39.5v-403h-20v472zM163 538l84 92h27l-96 -92h-15z" />
    <glyph glyph-name="uni0145" unicode="&#x145;" horiz-adv-x="403" 
d="M70 0v620h21l219 -571l2 -5l1 -2v578h20v-620h-23l-217 561l-3 7v0v-568h-20zM180 -149q12 17 20 36t8 41q-13 0 -15.5 3t-2.5 7q0 6 2 10t15 4q11 0 13 -3.5t2 -9.5q0 -15 -3.5 -31.5t-10 -31t-15.5 -25.5h-13z" />
    <glyph glyph-name="uni0146" unicode="&#x146;" horiz-adv-x="395" 
d="M70 472h15l3 -49q16 23 44.5 38.5t72.5 15.5q64 0 95 -26.5t31 -76.5v-374h-20v368q0 48 -30.5 69.5t-80.5 21.5q-42 0 -68 -16.5t-42 -39.5v-403h-20v472zM176 -149q12 17 20 36t8 41q-13 0 -15.5 3t-2.5 7q0 6 2 10t15 4q11 0 13 -3.5t2 -9.5q0 -15 -3.5 -31.5t-10 -31
t-15.5 -25.5h-13z" />
    <glyph glyph-name="Ncaron" unicode="&#x147;" horiz-adv-x="403" 
d="M103 773h17l82 -72l82 72h15l-84 -85h-28zM70 0v620h21l219 -571l2 -5l1 -2v578h20v-620h-23l-217 561l-3 7v0v-568h-20z" />
    <glyph glyph-name="ncaron" unicode="&#x148;" horiz-adv-x="395" 
d="M100 623h17l82 -72l82 72h15l-84 -85h-28zM70 472h15l3 -49q16 23 44.5 38.5t72.5 15.5q64 0 95 -26.5t31 -76.5v-374h-20v368q0 48 -30.5 69.5t-80.5 21.5q-42 0 -68 -16.5t-42 -39.5v-403h-20v472z" />
    <glyph glyph-name="Eng" unicode="&#x14a;" horiz-adv-x="403" 
d="M205 -172l-4 16h65q29 0 38 16t9 47v84l-220 566l-2 6l-1 1v-564h-20v620h21l219 -576l2 -5l1 -2v583h20v-714q0 -43 -14 -60.5t-52 -17.5h-62z" />
    <glyph glyph-name="eng" unicode="&#x14b;" horiz-adv-x="587" 
d="M40 470h16l2 -49q17 25 44.5 39.5t72.5 14.5q54 0 81 -16.5t36 -40.5t9 -46v-372h-20v367q0 48 -30.5 69.5t-80.5 21.5q-44 0 -69 -16.5t-41 -39.5v-402h-20v470zM170 -173l-4 17h68q29 0 38 15.5t9 48.5v359h20v-362q0 -43 -14 -60.5t-52 -17.5h-65z" />
    <glyph glyph-name="Omacron" unicode="&#x14c;" horiz-adv-x="378" 
d="M188 -2q-61 0 -95.5 22.5t-34.5 65.5v457q0 36 30.5 61t99.5 24q70 -1 101 -25t31 -61v-455q0 -43 -34 -66t-98 -23zM188 15q58 0 85 22t27 53v449q0 26 -24 49t-90 23q-61 0 -84.5 -22.5t-23.5 -48.5v-451q0 -31 27 -52.5t83 -21.5zM94 696v15h189v-15h-189z" />
    <glyph glyph-name="omacron" unicode="&#x14d;" horiz-adv-x="382" 
d="M182 -4q-51 0 -77.5 16t-35.5 40t-9 46v275q0 23 9.5 46.5t37.5 39.5t84 16q55 0 83 -16t38 -39.5t10 -46.5v-259q0 -30 -10.5 -57t-40.5 -44t-89 -17zM182 13q56 0 88 22t32 75v260q0 47 -31 68t-80 21q-48 0 -79.5 -20.5t-31.5 -68.5v-269q0 -47 30.5 -67.5t71.5 -20.5
zM96 546v15h189v-15h-189z" />
    <glyph glyph-name="Obreve" unicode="&#x14e;" horiz-adv-x="378" 
d="M188 -2q-61 0 -95.5 22.5t-34.5 65.5v457q0 36 30.5 61t99.5 24q70 -1 101 -25t31 -61v-455q0 -43 -34 -66t-98 -23zM188 15q58 0 85 22t27 53v449q0 26 -24 49t-90 23q-61 0 -84.5 -22.5t-23.5 -48.5v-451q0 -31 27 -52.5t83 -21.5zM187 684q-36 0 -54.5 14t-24.5 34
t-6 37h15q0 -24 15 -47.5t55 -23.5q42 0 58 23.5t17 47.5h14q0 -36 -20 -60.5t-69 -24.5z" />
    <glyph glyph-name="obreve" unicode="&#x14f;" horiz-adv-x="382" 
d="M182 -4q-51 0 -77.5 16t-35.5 40t-9 46v275q0 23 9.5 46.5t37.5 39.5t84 16q55 0 83 -16t38 -39.5t10 -46.5v-259q0 -30 -10.5 -57t-40.5 -44t-89 -17zM182 13q56 0 88 22t32 75v260q0 47 -31 68t-80 21q-48 0 -79.5 -20.5t-31.5 -68.5v-269q0 -47 30.5 -67.5t71.5 -20.5
zM189 534q-36 0 -54.5 14t-24.5 34t-6 37h14q0 -27 15.5 -48.5t55.5 -21.5q42 0 58.5 21t16.5 49h14q0 -34 -20 -59.5t-69 -25.5z" />
    <glyph glyph-name="Ohungarumlaut" unicode="&#x150;" horiz-adv-x="378" 
d="M188 -2q-61 0 -95.5 22.5t-34.5 65.5v457q0 36 30.5 61t99.5 24q70 -1 101 -25t31 -61v-455q0 -43 -34 -66t-98 -23zM188 15q58 0 85 22t27 53v449q0 26 -24 49t-90 23q-61 0 -84.5 -22.5t-23.5 -48.5v-451q0 -31 27 -52.5t83 -21.5zM152 688l35 92h26l-46 -92h-15z
M211 688l35 92h27l-47 -92h-15z" />
    <glyph glyph-name="ohungarumlaut" unicode="&#x151;" horiz-adv-x="382" 
d="M182 -4q-51 0 -77.5 16t-35.5 40t-9 46v275q0 23 9.5 46.5t37.5 39.5t84 16q55 0 83 -16t38 -39.5t10 -46.5v-259q0 -30 -10.5 -57t-40.5 -44t-89 -17zM182 13q56 0 88 22t32 75v260q0 47 -31 68t-80 21q-48 0 -79.5 -20.5t-31.5 -68.5v-269q0 -47 30.5 -67.5t71.5 -20.5
zM154 538l35 92h26l-46 -92h-15zM213 538l35 92h27l-47 -92h-15z" />
    <glyph glyph-name="OE" unicode="&#x152;" horiz-adv-x="585" 
d="M188 -2q-61 0 -95.5 22.5t-34.5 65.5v456q0 38 31 62.5t99 23.5t97.5 -25t29.5 -62v-454q0 -43 -33 -66t-94 -23zM188 15q58 0 85 22t27 53v447q0 18 -10 35t-34.5 27.5t-69.5 10.5q-61 0 -84.5 -23t-23.5 -49v-449q0 -30 27 -52t83 -22zM300 0v620h250v-17h-230v-241
h217l-6 -16h-211v-330h230v-16h-250z" />
    <glyph glyph-name="oe" unicode="&#x153;" horiz-adv-x="583" 
d="M182 -4q-51 0 -77.5 16t-35.5 40t-9 46v275q0 23 9.5 46.5t37.5 39.5t84 16q55 0 83 -16t38 -39.5t10 -46.5v-259q0 -30 -10.5 -57t-40.5 -44t-89 -17zM182 13q56 0 88 22t32 75v260q0 47 -31 68t-80 21q-48 0 -79.5 -20.5t-31.5 -68.5v-269q0 -47 30.5 -67.5t71.5 -20.5
zM426 -8q-51 0 -77.5 16t-35.5 40t-9 46v275q0 23 9.5 46.5t37.5 39.5t84 16q55 0 83 -16t38 -39.5t10 -46.5v-125h-20v122q0 47 -31 68t-80 21q-48 0 -79.5 -20.5t-31.5 -68.5v-269q0 -47 30.5 -67.5t71.5 -20.5q56 0 88 22t32 75v59l20 4v-59q0 -30 -10.5 -57t-40.5 -44
t-89 -17zM310 234v14h256v-14h-256z" />
    <glyph glyph-name="Racute" unicode="&#x154;" horiz-adv-x="385" 
d="M70 620h165q43 0 63.5 -10.5t27 -32t6.5 -53.5v-103q0 -36 -6 -67.5t-31 -51t-82 -19.5h-123v-283h-20v620zM331 -10l-116 295l15 4l5 -2l3 -8l112 -282zM214 300q47 0 72.5 23.5t25.5 79.5v118q0 44 -17.5 63t-64.5 19h-140v-303h124zM149 688l94 82h27l-106 -82h-15z
" />
    <glyph glyph-name="racute" unicode="&#x155;" horiz-adv-x="260" 
d="M70 0v470h15l3 -49q17 25 43 39.5t58 14.5q22 0 34.5 -3t24.5 -8l-1 -19q-13 7 -25.5 10t-32.5 3q-35 0 -59 -17.5t-40 -42.5v-398h-20zM124 538l84 92h27l-96 -92h-15z" />
    <glyph glyph-name="uni0156" unicode="&#x156;" horiz-adv-x="385" 
d="M70 620h165q43 0 63.5 -10.5t27 -32t6.5 -53.5v-103q0 -36 -6 -67.5t-31 -51t-82 -19.5h-123v-283h-20v620zM331 -10l-116 295l15 4l5 -2l3 -8l112 -282zM214 300q47 0 72.5 23.5t25.5 79.5v118q0 44 -17.5 63t-64.5 19h-140v-303h124zM171 -149q12 17 20 36t8 41
q-13 0 -15.5 3t-2.5 7q0 6 2 10t15 4q11 0 13 -3.5t2 -9.5q0 -15 -3.5 -31.5t-10 -31t-15.5 -25.5h-13z" />
    <glyph glyph-name="uni0157" unicode="&#x157;" horiz-adv-x="260" 
d="M70 0v470h15l3 -49q17 25 43 39.5t58 14.5q22 0 34.5 -3t24.5 -8l-1 -19q-13 7 -25.5 10t-32.5 3q-35 0 -59 -17.5t-40 -42.5v-398h-20zM57 -149q12 17 20 36t8 41q-13 0 -15.5 3t-2.5 7q0 6 2 10t15 4q11 0 13 -3.5t2 -9.5q0 -15 -3.5 -31.5t-10 -31t-15.5 -25.5h-13z
" />
    <glyph glyph-name="Rcaron" unicode="&#x158;" horiz-adv-x="385" 
d="M86 773h17l82 -72l82 72h15l-84 -85h-28zM70 620h165q43 0 63.5 -10.5t27 -32t6.5 -53.5v-103q0 -36 -6 -67.5t-31 -51t-82 -19.5h-123v-283h-20v620zM331 -10l-116 295l15 4l5 -2l3 -8l112 -282zM214 300q47 0 72.5 23.5t25.5 79.5v118q0 44 -17.5 63t-64.5 19h-140
v-303h124z" />
    <glyph glyph-name="rcaron" unicode="&#x159;" horiz-adv-x="260" 
d="M61 623h17l82 -72l82 72h15l-84 -85h-28zM70 0v470h15l3 -49q17 25 43 39.5t58 14.5q22 0 34.5 -3t24.5 -8l-1 -19q-13 7 -25.5 10t-32.5 3q-35 0 -59 -17.5t-40 -42.5v-398h-20z" />
    <glyph glyph-name="Sacute" unicode="&#x15a;" horiz-adv-x="366" 
d="M188 -2q-42 1 -72.5 7.5t-47.5 23.5t-17 49v123l20 5v-124q0 -33 25.5 -50t90.5 -17q44 0 67 8.5t31 28t8 51.5v104q0 42 -20.5 64t-55.5 32l-82 22q-45 13 -64.5 34t-19.5 64v100q0 43 16.5 64t47 28t73.5 7q42 0 69.5 -7t41.5 -24t14 -49v-123l-20 -6v124
q0 35 -20.5 52t-85.5 17q-66 0 -91 -20t-25 -67v-98q0 -37 22.5 -55t52.5 -26l83 -22q46 -12 65 -37t19 -70v-111q0 -44 -13.5 -65.5t-41 -28.5t-70.5 -8zM147 688l94 82h27l-106 -82h-15z" />
    <glyph glyph-name="sacute" unicode="&#x15b;" horiz-adv-x="366" 
d="M179 -6q-68 0 -97 29.5t-29 82.5v71l19 4v-75q0 -23 8.5 -45t31.5 -36t67 -14q53 0 83.5 18t30.5 77q0 45 -16 67t-57 41q-6 3 -21.5 9t-33.5 12.5t-32.5 12.5t-19.5 9q-22 11 -35 23.5t-19 31t-6 47.5v9q0 54 31.5 80.5t100.5 26.5q68 0 97.5 -25t29.5 -81v-77l-19 -3
v78q0 54 -28.5 72.5t-80.5 18.5t-75.5 -15.5t-30 -37.5t-6.5 -41q0 -40 10.5 -57t40.5 -33q16 -8 37 -16t40.5 -15t29.5 -12q48 -22 65 -46t17 -72v-6q0 -55 -28.5 -84t-104.5 -29zM149 538l84 92h27l-96 -92h-15z" />
    <glyph glyph-name="Scircumflex" unicode="&#x15c;" horiz-adv-x="366" 
d="M188 -2q-42 1 -72.5 7.5t-47.5 23.5t-17 49v123l20 5v-124q0 -33 25.5 -50t90.5 -17q44 0 67 8.5t31 28t8 51.5v104q0 42 -20.5 64t-55.5 32l-82 22q-45 13 -64.5 34t-19.5 64v100q0 43 16.5 64t47 28t73.5 7q42 0 69.5 -7t41.5 -24t14 -49v-123l-20 -6v124
q0 35 -20.5 52t-85.5 17q-66 0 -91 -20t-25 -67v-98q0 -37 22.5 -55t52.5 -26l83 -22q46 -12 65 -37t19 -70v-111q0 -44 -13.5 -65.5t-41 -28.5t-70.5 -8zM84 688l84 85h28l84 -85h-15l-82 72l-82 -72h-17z" />
    <glyph glyph-name="scircumflex" unicode="&#x15d;" horiz-adv-x="366" 
d="M179 -6q-68 0 -97 29.5t-29 82.5v71l19 4v-75q0 -23 8.5 -45t31.5 -36t67 -14q53 0 83.5 18t30.5 77q0 45 -16 67t-57 41q-6 3 -21.5 9t-33.5 12.5t-32.5 12.5t-19.5 9q-22 11 -35 23.5t-19 31t-6 47.5v9q0 54 31.5 80.5t100.5 26.5q68 0 97.5 -25t29.5 -81v-77l-19 -3
v78q0 54 -28.5 72.5t-80.5 18.5t-75.5 -15.5t-30 -37.5t-6.5 -41q0 -40 10.5 -57t40.5 -33q16 -8 37 -16t40.5 -15t29.5 -12q48 -22 65 -46t17 -72v-6q0 -55 -28.5 -84t-104.5 -29zM86 538l84 85h28l84 -85h-15l-82 72l-82 -72h-17z" />
    <glyph glyph-name="Scedilla" unicode="&#x15e;" horiz-adv-x="366" 
d="M188 -2q-42 1 -72.5 7.5t-47.5 23.5t-17 49v123l20 5v-124q0 -33 25.5 -50t90.5 -17q44 0 67 8.5t31 28t8 51.5v104q0 42 -20.5 64t-55.5 32l-82 22q-45 13 -64.5 34t-19.5 64v100q0 43 16.5 64t47 28t73.5 7q42 0 69.5 -7t41.5 -24t14 -49v-123l-20 -6v124
q0 35 -20.5 52t-85.5 17q-66 0 -91 -20t-25 -67v-98q0 -37 22.5 -55t52.5 -26l83 -22q46 -12 65 -37t19 -70v-111q0 -44 -13.5 -65.5t-41 -28.5t-70.5 -8zM195 -167q-19 0 -34.5 8t-23.5 16l10 11q5 -7 18.5 -15t28.5 -8q26 0 40.5 18.5t14.5 37.5q0 18 -11.5 33.5
t-38.5 15.5q-17 0 -31 -7.5t-24 -18.5l-13 12l52 64h14l-43 -55q23 17 47 17q35 0 49.5 -19t14.5 -40q0 -24 -18 -47t-52 -23z" />
    <glyph glyph-name="scedilla" unicode="&#x15f;" horiz-adv-x="366" 
d="M179 -6q-68 0 -97 29.5t-29 82.5v71l19 4v-75q0 -23 8.5 -45t31.5 -36t67 -14q53 0 83.5 18t30.5 77q0 45 -16 67t-57 41q-6 3 -21.5 9t-33.5 12.5t-32.5 12.5t-19.5 9q-22 11 -35 23.5t-19 31t-6 47.5v9q0 54 31.5 80.5t100.5 26.5q68 0 97.5 -25t29.5 -81v-77l-19 -3
v78q0 54 -28.5 72.5t-80.5 18.5t-75.5 -15.5t-30 -37.5t-6.5 -41q0 -40 10.5 -57t40.5 -33q16 -8 37 -16t40.5 -15t29.5 -12q48 -22 65 -46t17 -72v-6q0 -55 -28.5 -84t-104.5 -29zM195 -167q-19 0 -34.5 8t-23.5 16l10 11q5 -7 18.5 -15t28.5 -8q26 0 40.5 18.5t14.5 37.5
q0 18 -11.5 33.5t-38.5 15.5q-17 0 -31 -7.5t-24 -18.5l-13 12l52 64h14l-43 -55q23 17 47 17q35 0 49.5 -19t14.5 -40q0 -24 -18 -47t-52 -23z" />
    <glyph glyph-name="Scaron" unicode="&#x160;" horiz-adv-x="366" 
d="M84 773h17l82 -72l82 72h15l-84 -85h-28zM188 -2q-42 1 -72.5 7.5t-47.5 23.5t-17 49v123l20 5v-124q0 -33 25.5 -50t90.5 -17q44 0 67 8.5t31 28t8 51.5v104q0 42 -20.5 64t-55.5 32l-82 22q-45 13 -64.5 34t-19.5 64v100q0 43 16.5 64t47 28t73.5 7q42 0 69.5 -7
t41.5 -24t14 -49v-123l-20 -6v124q0 35 -20.5 52t-85.5 17q-66 0 -91 -20t-25 -67v-98q0 -37 22.5 -55t52.5 -26l83 -22q46 -12 65 -37t19 -70v-111q0 -44 -13.5 -65.5t-41 -28.5t-70.5 -8z" />
    <glyph glyph-name="scaron" unicode="&#x161;" horiz-adv-x="366" 
d="M86 623h17l82 -72l82 72h15l-84 -85h-28zM179 -6q-68 0 -97 29.5t-29 82.5v71l19 4v-75q0 -23 8.5 -45t31.5 -36t67 -14q53 0 83.5 18t30.5 77q0 45 -16 67t-57 41q-6 3 -21.5 9t-33.5 12.5t-32.5 12.5t-19.5 9q-22 11 -35 23.5t-19 31t-6 47.5v9q0 54 31.5 80.5
t100.5 26.5q68 0 97.5 -25t29.5 -81v-77l-19 -3v78q0 54 -28.5 72.5t-80.5 18.5t-75.5 -15.5t-30 -37.5t-6.5 -41q0 -40 10.5 -57t40.5 -33q16 -8 37 -16t40.5 -15t29.5 -12q48 -22 65 -46t17 -72v-6q0 -55 -28.5 -84t-104.5 -29z" />
    <glyph glyph-name="uni0162" unicode="&#x162;" horiz-adv-x="291" 
d="M134 603h-112v17h247v-17h-114v-603h-21v603zM143 -167q-19 0 -34.5 8t-23.5 16l10 11q5 -7 18.5 -15t28.5 -8q26 0 40.5 18.5t14.5 37.5q0 18 -11.5 33.5t-38.5 15.5q-17 0 -31 -7.5t-24 -18.5l-13 12l52 64h14l-43 -55q23 17 47 17q35 0 49.5 -19t14.5 -40
q0 -24 -18 -47t-52 -23z" />
    <glyph glyph-name="uni0163" unicode="&#x163;" horiz-adv-x="198" 
d="M157 0q-38 0 -58 10.5t-27 33.5t-7 58v352h-33v16h36l3 88h14v-88h85l-4 -16h-81v-359q0 -47 20 -62.5t55 -15.5h26v-17h-29zM153 -167q-19 0 -34.5 8t-23.5 16l10 11q5 -7 18.5 -15t28.5 -8q26 0 40.5 18.5t14.5 37.5q0 18 -11.5 33.5t-38.5 15.5q-17 0 -31 -7.5
t-24 -18.5l-13 12l52 64h14l-43 -55q23 17 47 17q35 0 49.5 -19t14.5 -40q0 -24 -18 -47t-52 -23z" />
    <glyph glyph-name="Tcaron" unicode="&#x164;" horiz-adv-x="291" 
d="M46 773h17l82 -72l82 72h15l-84 -85h-28zM134 603h-112v17h247v-17h-114v-603h-21v603z" />
    <glyph glyph-name="tcaron" unicode="&#x165;" horiz-adv-x="198" 
d="M157 0q-38 0 -58 10.5t-27 33.5t-7 58v352h-33v16h36l3 88h14v-88h85l-4 -16h-81v-359q0 -47 20 -62.5t55 -15.5h26v-17h-29zM141 511l27 140h18l-34 -140h-11z" />
    <glyph glyph-name="Tbar" unicode="&#x166;" horiz-adv-x="291" 
d="M134 603h-112v17h247v-17h-114v-603h-21v603zM39 428v13h213v-13h-213z" />
    <glyph glyph-name="tbar" unicode="&#x167;" horiz-adv-x="198" 
d="M157 0q-38 0 -58 10.5t-27 33.5t-7 58v352h-33v16h36l3 88h14v-88h85l-4 -16h-81v-359q0 -47 20 -62.5t55 -15.5h26v-17h-29zM-5 341v13h213v-13h-213z" />
    <glyph glyph-name="Utilde" unicode="&#x168;" horiz-adv-x="392" 
d="M196 -5q-35 0 -64.5 9t-47.5 29.5t-18 55.5v531h20v-523q0 -22 9 -41.5t32.5 -31.5t68.5 -12q48 0 71.5 12t31 31.5t7.5 41.5v523h20v-531q0 -35 -16.5 -55.5t-46 -29.5t-67.5 -9zM106 682q0 35 13.5 50.5t32.5 15.5q20 0 33 -11.5t25.5 -23t27.5 -11.5q23 0 28.5 15.5
t5.5 28.5h14q0 -34 -14.5 -47t-31.5 -13q-19 0 -33 12t-26 23.5t-27 11.5q-18 0 -26 -14t-8 -37h-14z" />
    <glyph glyph-name="utilde" unicode="&#x169;" horiz-adv-x="397" 
d="M191 0q-54 0 -81 15.5t-36 38t-9 44.5v372h20v-365q0 -49 31 -68.5t80 -19.5h111v453h20v-470h-136zM108 532q0 35 13.5 50.5t32.5 15.5q20 0 33 -11.5t25.5 -23t27.5 -11.5q23 0 28.5 15.5t5.5 28.5h14q0 -34 -14.5 -47t-31.5 -13q-19 0 -33 12t-26 23.5t-27 11.5
q-18 0 -26 -14t-8 -37h-14z" />
    <glyph glyph-name="Umacron" unicode="&#x16a;" horiz-adv-x="392" 
d="M196 -5q-35 0 -64.5 9t-47.5 29.5t-18 55.5v531h20v-523q0 -22 9 -41.5t32.5 -31.5t68.5 -12q48 0 71.5 12t31 31.5t7.5 41.5v523h20v-531q0 -35 -16.5 -55.5t-46 -29.5t-67.5 -9zM101 696v15h189v-15h-189z" />
    <glyph glyph-name="umacron" unicode="&#x16b;" horiz-adv-x="397" 
d="M191 0q-54 0 -81 15.5t-36 38t-9 44.5v372h20v-365q0 -49 31 -68.5t80 -19.5h111v453h20v-470h-136zM103 546v15h189v-15h-189z" />
    <glyph glyph-name="Ubreve" unicode="&#x16c;" horiz-adv-x="392" 
d="M196 -5q-35 0 -64.5 9t-47.5 29.5t-18 55.5v531h20v-523q0 -22 9 -41.5t32.5 -31.5t68.5 -12q48 0 71.5 12t31 31.5t7.5 41.5v523h20v-531q0 -35 -16.5 -55.5t-46 -29.5t-67.5 -9zM194 684q-36 0 -54.5 14t-24.5 34t-6 37h15q0 -24 15 -47.5t55 -23.5q42 0 58 23.5
t17 47.5h14q0 -36 -20 -60.5t-69 -24.5z" />
    <glyph glyph-name="ubreve" unicode="&#x16d;" horiz-adv-x="397" 
d="M191 0q-54 0 -81 15.5t-36 38t-9 44.5v372h20v-365q0 -49 31 -68.5t80 -19.5h111v453h20v-470h-136zM196 534q-36 0 -54.5 14t-24.5 34t-6 37h14q0 -27 15.5 -48.5t55.5 -21.5q42 0 58.5 21t16.5 49h14q0 -34 -20 -59.5t-69 -25.5z" />
    <glyph glyph-name="Uring" unicode="&#x16e;" horiz-adv-x="392" 
d="M196 -5q-35 0 -64.5 9t-47.5 29.5t-18 55.5v531h20v-523q0 -22 9 -41.5t32.5 -31.5t68.5 -12q48 0 71.5 12t31 31.5t7.5 41.5v523h20v-531q0 -35 -16.5 -55.5t-46 -29.5t-67.5 -9zM196 683q-29 0 -48 18.5t-19 43.5q0 26 19 44.5t48 18.5q27 0 46 -18.5t19 -44.5
q0 -25 -19 -43.5t-46 -18.5zM196 694q21 0 37 15t16 35q0 22 -16 38t-37 16q-23 0 -38.5 -16t-15.5 -38q0 -20 15.5 -35t38.5 -15z" />
    <glyph glyph-name="uring" unicode="&#x16f;" horiz-adv-x="397" 
d="M191 0q-54 0 -81 15.5t-36 38t-9 44.5v372h20v-365q0 -49 31 -68.5t80 -19.5h111v453h20v-470h-136zM198 533q-29 0 -48 18.5t-19 43.5q0 26 19 44.5t48 18.5q27 0 46 -18.5t19 -44.5q0 -25 -19 -43.5t-46 -18.5zM198 544q21 0 37 15t16 35q0 22 -16 38t-37 16
q-23 0 -38.5 -16t-15.5 -38q0 -20 15.5 -35t38.5 -15z" />
    <glyph glyph-name="Uhungarumlaut" unicode="&#x170;" horiz-adv-x="392" 
d="M196 -5q-35 0 -64.5 9t-47.5 29.5t-18 55.5v531h20v-523q0 -22 9 -41.5t32.5 -31.5t68.5 -12q48 0 71.5 12t31 31.5t7.5 41.5v523h20v-531q0 -35 -16.5 -55.5t-46 -29.5t-67.5 -9zM159 688l35 92h26l-46 -92h-15zM218 688l35 92h27l-47 -92h-15z" />
    <glyph glyph-name="uhungarumlaut" unicode="&#x171;" horiz-adv-x="397" 
d="M191 0q-54 0 -81 15.5t-36 38t-9 44.5v372h20v-365q0 -49 31 -68.5t80 -19.5h111v453h20v-470h-136zM161 538l35 92h26l-46 -92h-15zM220 538l35 92h27l-47 -92h-15z" />
    <glyph glyph-name="Uogonek" unicode="&#x172;" horiz-adv-x="392" 
d="M196 -5q-35 0 -64.5 9t-47.5 29.5t-18 55.5v531h20v-523q0 -22 9 -41.5t32.5 -31.5t68.5 -12q48 0 71.5 12t31 31.5t7.5 41.5v523h20v-531q0 -35 -16.5 -55.5t-46 -29.5t-67.5 -9zM182 -162q-27 0 -43.5 20t-16.5 49q0 26 21.5 53.5t67.5 43.5l14 -4q-37 -16 -61.5 -37.5
t-24.5 -54.5q0 -22 13.5 -38.5t35.5 -16.5q18 0 31.5 4.5t29.5 17.5l2 -15q-18 -13 -33.5 -17.5t-35.5 -4.5z" />
    <glyph glyph-name="uogonek" unicode="&#x173;" horiz-adv-x="397" 
d="M191 0q-54 0 -81 15.5t-36 38t-9 44.5v372h20v-365q0 -49 31 -68.5t80 -19.5h111v453h20v-470h-136zM276 -157q-27 0 -43.5 20t-16.5 49q0 26 21.5 53.5t67.5 43.5l14 -4q-37 -16 -61.5 -37.5t-24.5 -54.5q0 -22 13.5 -38.5t35.5 -16.5q18 0 31.5 4.5t29.5 17.5l2 -15
q-18 -13 -33.5 -17.5t-35.5 -4.5z" />
    <glyph glyph-name="Wcircumflex" unicode="&#x174;" horiz-adv-x="546" 
d="M143 0l-115 620h21l106 -580l1 -10h1v10l113 546h18l103 -546l1 -10h1l1 10l104 580h20l-113 -620h-25l-99 535v6h-1l-1 -6l-111 -535h-25zM181 688l84 85h28l84 -85h-15l-82 72l-82 -72h-17z" />
    <glyph glyph-name="wcircumflex" unicode="&#x175;" horiz-adv-x="541" 
d="M16 470h21l121 -427l102 427h18l104 -425l120 425h20l-132 -470h-16l-104 432l-105 -432h-17zM173 538l84 85h28l84 -85h-15l-82 72l-82 -72h-17z" />
    <glyph glyph-name="Ycircumflex" unicode="&#x176;" horiz-adv-x="327" 
d="M153 0v274l-137 346h19l126 -314l2 -10h1l2 10l125 314h20l-138 -346v-274h-20zM64 688l84 85h28l84 -85h-15l-82 72l-82 -72h-17z" />
    <glyph glyph-name="ycircumflex" unicode="&#x177;" horiz-adv-x="305" 
d="M-4 -170l-1 15h32q39 0 62.5 17t35.5 68l19 73l-124 467h20l114 -430l1 -4h-4l1 4l114 430h21l-143 -543q-14 -53 -38 -75t-80 -22h-30zM56 538l84 85h28l84 -85h-15l-82 72l-82 -72h-17z" />
    <glyph glyph-name="Ydieresis" unicode="&#x178;" horiz-adv-x="327" 
d="M153 0v274l-137 346h19l126 -314l2 -10h1l2 10l125 314h20l-138 -346v-274h-20zM204 685q-11 0 -13 4.5t-2 11.5q0 8 2 12.5t13 4.5q13 0 15 -4.5t2 -12.5q0 -7 -2 -11.5t-15 -4.5zM120 685q-12 0 -14 4.5t-2 11.5q0 8 2 12.5t14 4.5t14 -4.5t2 -12.5q0 -7 -2 -11.5
t-14 -4.5z" />
    <glyph glyph-name="Zacute" unicode="&#x179;" horiz-adv-x="282" 
d="M16 0l208 603h-191v17h216l-207 -603h216v-17h-242zM105 688l94 82h27l-106 -82h-15z" />
    <glyph glyph-name="zacute" unicode="&#x17a;" horiz-adv-x="278" 
d="M25 9l200 444h-199l6 17h216v-14l-198 -439h206l-10 -17h-221v9zM104 538l84 92h27l-96 -92h-15z" />
    <glyph glyph-name="Zdotaccent" unicode="&#x17b;" horiz-adv-x="282" 
d="M16 0l208 603h-191v17h216l-207 -603h216v-17h-242zM140 686q-12 0 -14 4.5t-2 11.5q0 8 2 13t14 5t14 -5t2 -13q0 -7 -2 -11.5t-14 -4.5z" />
    <glyph glyph-name="zdotaccent" unicode="&#x17c;" horiz-adv-x="278" 
d="M25 9l200 444h-199l6 17h216v-14l-198 -439h206l-10 -17h-221v9zM139 536q-12 0 -14 4.5t-2 11.5q0 8 2 13t14 5t14 -5t2 -13q0 -7 -2 -11.5t-14 -4.5z" />
    <glyph glyph-name="Zcaron" unicode="&#x17d;" horiz-adv-x="282" 
d="M42 773h17l82 -72l82 72h15l-84 -85h-28zM16 0l208 603h-191v17h216l-207 -603h216v-17h-242z" />
    <glyph glyph-name="zcaron" unicode="&#x17e;" horiz-adv-x="278" 
d="M41 623h17l82 -72l82 72h15l-84 -85h-28zM25 9l200 444h-199l6 17h216v-14l-198 -439h206l-10 -17h-221v9z" />
    <glyph glyph-name="uni018F" unicode="&#x18f;" horiz-adv-x="339" 
d="M171 -3q-55 0 -83.5 21t-39 52t-10.5 61v177h242v181q0 63 -30.5 90t-76.5 27q-49 0 -82 -29t-33 -100v-80l-20 -5v78q0 41 10.5 75.5t40 56t84.5 21.5q54 0 81.5 -20.5t36.5 -51t9 -59.5v-361q0 -29 -9.5 -60.5t-37 -52.5t-82.5 -21zM171 14q32 0 56.5 12.5t38.5 39
t14 67.5v160h-222v-160q0 -41 14 -67.5t39.5 -39t59.5 -12.5z" />
    <glyph glyph-name="florin" unicode="&#x192;" horiz-adv-x="242" 
d="M-98 -170l-3 16h65q29 0 39 16t14 48l58 546h-43l1 14h43l9 85q3 23 11.5 37.5t26 21t47.5 6.5h64l-2 -14h-58q-37 0 -51.5 -12t-17.5 -41l-9 -83h88l-6 -14h-83l-58 -549q-4 -43 -20.5 -60t-54.5 -17h-60z" />
    <glyph glyph-name="Ohorn" unicode="&#x1a0;" horiz-adv-x="378" 
d="M188 -2q-61 0 -95.5 22.5t-34.5 65.5v457q0 36 30.5 61t99.5 24q70 -1 101 -25t31 -61v-455q0 -43 -34 -66t-98 -23zM188 15q58 0 85 22t27 53v449q0 26 -24 49t-90 23q-61 0 -84.5 -22.5t-23.5 -48.5v-451q0 -31 27 -52.5t83 -21.5zM253 608l-2 12q38 0 50.5 12t11.5 38
h15q0 -37 -17 -49.5t-58 -12.5z" />
    <glyph glyph-name="ohorn" unicode="&#x1a1;" horiz-adv-x="382" 
d="M182 -4q-51 0 -77.5 16t-35.5 40t-9 46v275q0 23 9.5 46.5t37.5 39.5t84 16q55 0 83 -16t38 -39.5t10 -46.5v-259q0 -30 -10.5 -57t-40.5 -44t-89 -17zM182 13q56 0 88 22t32 75v260q0 47 -31 68t-80 21q-48 0 -79.5 -20.5t-31.5 -68.5v-269q0 -47 30.5 -67.5t71.5 -20.5
zM243 458l-2 12q38 0 50.5 12t11.5 38h15q0 -37 -17 -49.5t-58 -12.5z" />
    <glyph glyph-name="Uhorn" unicode="&#x1af;" horiz-adv-x="392" 
d="M196 -5q-35 0 -64.5 9t-47.5 29.5t-18 55.5v531h20v-523q0 -22 9 -41.5t32.5 -31.5t68.5 -12q48 0 71.5 12t31 31.5t7.5 41.5v523h20v-531q0 -35 -16.5 -55.5t-46 -29.5t-67.5 -9zM314 608l-2 12q38 0 50.5 12t11.5 38h15q0 -37 -17 -49.5t-58 -12.5z" />
    <glyph glyph-name="uhorn" unicode="&#x1b0;" horiz-adv-x="397" 
d="M191 0q-54 0 -81 15.5t-36 38t-9 44.5v372h20v-365q0 -49 31 -68.5t80 -19.5h111v453h20v-470h-136zM314 458l-2 12q38 0 50.5 12t11.5 38h15q0 -37 -17 -49.5t-58 -12.5z" />
    <glyph glyph-name="uni01C4" unicode="&#x1c4;" horiz-adv-x="670" 
d="M430 773h17l82 -72l82 72h15l-84 -85h-28zM70 620h173q47 0 67 -25.5t20 -72.5v-423q0 -54 -17.5 -76.5t-77.5 -22.5h-165v620zM226 17q49 0 66.5 16.5t17.5 68.5v417q0 43 -19.5 63.5t-53.5 20.5h-147v-586h136zM404 0l208 603h-191v17h216l-207 -603h216v-17h-242z" />
    <glyph glyph-name="uni01C5" unicode="&#x1c5;" horiz-adv-x="666" 
d="M429 623h17l82 -72l82 72h15l-84 -85h-28zM70 620h173q47 0 67 -25.5t20 -72.5v-423q0 -54 -17.5 -76.5t-77.5 -22.5h-165v620zM226 17q49 0 66.5 16.5t17.5 68.5v417q0 43 -19.5 63.5t-53.5 20.5h-147v-586h136zM413 9l200 444h-199l6 17h216v-14l-198 -439h206l-10 -17
h-221v9z" />
    <glyph glyph-name="uni01C6" unicode="&#x1c6;" horiz-adv-x="674" 
d="M437 623h17l82 -72l82 72h15l-84 -85h-28zM133 0q-29 0 -44 6t-20 27.5t-5 67.5v286q0 36 6.5 54t26.5 23.5t62 5.5h147v160h20v-630h-193zM306 17v436h-156q-42 0 -54 -11t-12 -52v-308q0 -42 11.5 -53.5t42.5 -11.5h168zM421 9l200 444h-199l6 17h216v-14l-198 -439
h206l-10 -17h-221v9z" />
    <glyph glyph-name="uni01C7" unicode="&#x1c7;" horiz-adv-x="492" 
d="M70 620h20v-604h211v-16h-231v620zM322 0l-5 17h51q19 0 27 5t9.5 20t1.5 46v532h20v-535q0 -38 -2.5 -56.5t-15 -23.5t-42.5 -5h-44z" />
    <glyph glyph-name="uni01C8" unicode="&#x1c8;" horiz-adv-x="472" 
d="M70 620h20v-604h211v-16h-231v620zM271 -170l-4 16h68q29 0 38 16t9 48v560h20v-563q0 -43 -14 -60t-52 -17h-65zM392 546q-10 0 -13 2.5t-3 11.5t3 12.5t13 3.5t12.5 -3.5t2.5 -12.5t-2.5 -11.5t-12.5 -2.5z" />
    <glyph glyph-name="uni01C9" unicode="&#x1c9;" horiz-adv-x="315" 
d="M70 630h20v-630h-20v630zM114 -170l-4 16h68q29 0 38 16t9 48v560h20v-563q0 -43 -14 -60t-52 -17h-65zM235 546q-10 0 -13 2.5t-3 11.5t3 12.5t13 3.5t12.5 -3.5t2.5 -12.5t-2.5 -11.5t-12.5 -2.5z" />
    <glyph glyph-name="uni01CA" unicode="&#x1ca;" horiz-adv-x="578" 
d="M70 0v620h21l219 -571l2 -5l1 -2v578h20v-620h-23l-217 561l-3 7v0v-568h-20zM408 0l-5 17h51q19 0 27 5t9.5 20t1.5 46v532h20v-535q0 -38 -2.5 -56.5t-15 -23.5t-42.5 -5h-44z" />
    <glyph glyph-name="uni01CB" unicode="&#x1cb;" horiz-adv-x="558" 
d="M70 0v620h21l219 -571l2 -5l1 -2v578h20v-620h-23l-217 561l-3 7v0v-568h-20zM357 -170l-4 16h68q29 0 38 16t9 48v560h20v-563q0 -43 -14 -60t-52 -17h-65zM478 546q-10 0 -13 2.5t-3 11.5t3 12.5t13 3.5t12.5 -3.5t2.5 -12.5t-2.5 -11.5t-12.5 -2.5z" />
    <glyph glyph-name="uni01CC" unicode="&#x1cc;" horiz-adv-x="550" 
d="M70 472h15l3 -49q16 23 44.5 38.5t72.5 15.5q64 0 95 -26.5t31 -76.5v-374h-20v368q0 48 -30.5 69.5t-80.5 21.5q-42 0 -68 -16.5t-42 -39.5v-403h-20v472zM349 -170l-4 16h68q29 0 38 16t9 48v560h20v-563q0 -43 -14 -60t-52 -17h-65zM470 546q-10 0 -13 2.5t-3 11.5
t3 12.5t13 3.5t12.5 -3.5t2.5 -12.5t-2.5 -11.5t-12.5 -2.5z" />
    <glyph glyph-name="uni01CD" unicode="&#x1cd;" horiz-adv-x="366" 
d="M83 773h17l82 -72l82 72h15l-84 -85h-28zM24 0l132 620h54l130 -620h-21l-34 160l7 -6h-220l6 6l-33 -160h-21zM78 167l-3 4h214l-4 -4l-89 431l-2 1h-22l-2 -1z" />
    <glyph glyph-name="uni01CE" unicode="&#x1ce;" horiz-adv-x="396" 
d="M98 623h17l82 -72l82 72h15l-84 -85h-28zM133 0q-34 0 -48.5 9t-17.5 36t-3 80v262q0 39 7 56.5t29 22t67 4.5h159v-470h-20v453h-159q-34 0 -47 -8.5t-14.5 -28t-1.5 -54.5v-259q0 -35 3 -53.5t14.5 -25.5t36.5 -7h130l-4 -17h-131z" />
    <glyph glyph-name="uni01CF" unicode="&#x1cf;" horiz-adv-x="160" 
d="M-19 773h17l82 -72l82 72h15l-84 -85h-28zM70 620h20v-620h-20v620z" />
    <glyph glyph-name="uni01D0" unicode="&#x1d0;" horiz-adv-x="160" 
d="M-19 623h17l82 -72l82 72h15l-84 -85h-28zM70 470h20v-470h-20v470z" />
    <glyph glyph-name="uni01D1" unicode="&#x1d1;" horiz-adv-x="378" 
d="M90 773h17l82 -72l82 72h15l-84 -85h-28zM188 -2q-61 0 -95.5 22.5t-34.5 65.5v457q0 36 30.5 61t99.5 24q70 -1 101 -25t31 -61v-455q0 -43 -34 -66t-98 -23zM188 15q58 0 85 22t27 53v449q0 26 -24 49t-90 23q-61 0 -84.5 -22.5t-23.5 -48.5v-451q0 -31 27 -52.5
t83 -21.5z" />
    <glyph glyph-name="uni01D2" unicode="&#x1d2;" horiz-adv-x="382" 
d="M92 623h17l82 -72l82 72h15l-84 -85h-28zM182 -4q-51 0 -77.5 16t-35.5 40t-9 46v275q0 23 9.5 46.5t37.5 39.5t84 16q55 0 83 -16t38 -39.5t10 -46.5v-259q0 -30 -10.5 -57t-40.5 -44t-89 -17zM182 13q56 0 88 22t32 75v260q0 47 -31 68t-80 21q-48 0 -79.5 -20.5
t-31.5 -68.5v-269q0 -47 30.5 -67.5t71.5 -20.5z" />
    <glyph glyph-name="uni01D3" unicode="&#x1d3;" horiz-adv-x="392" 
d="M97 773h17l82 -72l82 72h15l-84 -85h-28zM196 -5q-35 0 -64.5 9t-47.5 29.5t-18 55.5v531h20v-523q0 -22 9 -41.5t32.5 -31.5t68.5 -12q48 0 71.5 12t31 31.5t7.5 41.5v523h20v-531q0 -35 -16.5 -55.5t-46 -29.5t-67.5 -9z" />
    <glyph glyph-name="uni01D4" unicode="&#x1d4;" horiz-adv-x="397" 
d="M99 623h17l82 -72l82 72h15l-84 -85h-28zM191 0q-54 0 -81 15.5t-36 38t-9 44.5v372h20v-365q0 -49 31 -68.5t80 -19.5h111v453h20v-470h-136z" />
    <glyph glyph-name="uni01D5" unicode="&#x1d5;" horiz-adv-x="392" 
d="M196 -5q-35 0 -64.5 9t-47.5 29.5t-18 55.5v531h20v-523q0 -22 9 -41.5t32.5 -31.5t68.5 -12q48 0 71.5 12t31 31.5t7.5 41.5v523h20v-531q0 -35 -16.5 -55.5t-46 -29.5t-67.5 -9zM237 685q-11 0 -13 4.5t-2 11.5q0 8 2 12.5t13 4.5q13 0 15 -4.5t2 -12.5q0 -7 -2 -11.5
t-15 -4.5zM153 685q-12 0 -14 4.5t-2 11.5q0 8 2 12.5t14 4.5t14 -4.5t2 -12.5q0 -7 -2 -11.5t-14 -4.5zM101 743v15h189v-15h-189z" />
    <glyph glyph-name="uni01D6" unicode="&#x1d6;" horiz-adv-x="397" 
d="M191 0q-54 0 -81 15.5t-36 38t-9 44.5v372h20v-365q0 -49 31 -68.5t80 -19.5h111v453h20v-470h-136zM239 535q-11 0 -13 4.5t-2 11.5q0 8 2 12.5t13 4.5q13 0 15 -4.5t2 -12.5q0 -7 -2 -11.5t-15 -4.5zM155 535q-12 0 -14 4.5t-2 11.5q0 8 2 12.5t14 4.5t14 -4.5t2 -12.5
q0 -7 -2 -11.5t-14 -4.5zM103 593v15h189v-15h-189z" />
    <glyph glyph-name="uni01D7" unicode="&#x1d7;" horiz-adv-x="392" 
d="M196 -5q-35 0 -64.5 9t-47.5 29.5t-18 55.5v531h20v-523q0 -22 9 -41.5t32.5 -31.5t68.5 -12q48 0 71.5 12t31 31.5t7.5 41.5v523h20v-531q0 -35 -16.5 -55.5t-46 -29.5t-67.5 -9zM237 685q-11 0 -13 4.5t-2 11.5q0 8 2 12.5t13 4.5q13 0 15 -4.5t2 -12.5q0 -7 -2 -11.5
t-15 -4.5zM153 685q-12 0 -14 4.5t-2 11.5q0 8 2 12.5t14 4.5t14 -4.5t2 -12.5q0 -7 -2 -11.5t-14 -4.5zM160 735l94 82h27l-106 -82h-15z" />
    <glyph glyph-name="uni01D8" unicode="&#x1d8;" horiz-adv-x="397" 
d="M191 0q-54 0 -81 15.5t-36 38t-9 44.5v372h20v-365q0 -49 31 -68.5t80 -19.5h111v453h20v-470h-136zM239 535q-11 0 -13 4.5t-2 11.5q0 8 2 12.5t13 4.5q13 0 15 -4.5t2 -12.5q0 -7 -2 -11.5t-15 -4.5zM155 535q-12 0 -14 4.5t-2 11.5q0 8 2 12.5t14 4.5t14 -4.5t2 -12.5
q0 -7 -2 -11.5t-14 -4.5zM162 585l84 92h27l-96 -92h-15z" />
    <glyph glyph-name="uni01D9" unicode="&#x1d9;" horiz-adv-x="392" 
d="M97 820h17l82 -72l82 72h15l-84 -85h-28zM196 -5q-35 0 -64.5 9t-47.5 29.5t-18 55.5v531h20v-523q0 -22 9 -41.5t32.5 -31.5t68.5 -12q48 0 71.5 12t31 31.5t7.5 41.5v523h20v-531q0 -35 -16.5 -55.5t-46 -29.5t-67.5 -9zM237 685q-11 0 -13 4.5t-2 11.5q0 8 2 12.5
t13 4.5q13 0 15 -4.5t2 -12.5q0 -7 -2 -11.5t-15 -4.5zM153 685q-12 0 -14 4.5t-2 11.5q0 8 2 12.5t14 4.5t14 -4.5t2 -12.5q0 -7 -2 -11.5t-14 -4.5z" />
    <glyph glyph-name="uni01DA" unicode="&#x1da;" horiz-adv-x="397" 
d="M99 670h17l82 -72l82 72h15l-84 -85h-28zM191 0q-54 0 -81 15.5t-36 38t-9 44.5v372h20v-365q0 -49 31 -68.5t80 -19.5h111v453h20v-470h-136zM239 535q-11 0 -13 4.5t-2 11.5q0 8 2 12.5t13 4.5q13 0 15 -4.5t2 -12.5q0 -7 -2 -11.5t-15 -4.5zM155 535q-12 0 -14 4.5
t-2 11.5q0 8 2 12.5t14 4.5t14 -4.5t2 -12.5q0 -7 -2 -11.5t-14 -4.5z" />
    <glyph glyph-name="uni01DB" unicode="&#x1db;" horiz-adv-x="392" 
d="M196 -5q-35 0 -64.5 9t-47.5 29.5t-18 55.5v531h20v-523q0 -22 9 -41.5t32.5 -31.5t68.5 -12q48 0 71.5 12t31 31.5t7.5 41.5v523h20v-531q0 -35 -16.5 -55.5t-46 -29.5t-67.5 -9zM237 685q-11 0 -13 4.5t-2 11.5q0 8 2 12.5t13 4.5q13 0 15 -4.5t2 -12.5q0 -7 -2 -11.5
t-15 -4.5zM153 685q-12 0 -14 4.5t-2 11.5q0 8 2 12.5t14 4.5t14 -4.5t2 -12.5q0 -7 -2 -11.5t-14 -4.5zM201 735l-106 82h27l94 -82h-15z" />
    <glyph glyph-name="uni01DC" unicode="&#x1dc;" horiz-adv-x="397" 
d="M191 0q-54 0 -81 15.5t-36 38t-9 44.5v372h20v-365q0 -49 31 -68.5t80 -19.5h111v453h20v-470h-136zM239 535q-11 0 -13 4.5t-2 11.5q0 8 2 12.5t13 4.5q13 0 15 -4.5t2 -12.5q0 -7 -2 -11.5t-15 -4.5zM155 535q-12 0 -14 4.5t-2 11.5q0 8 2 12.5t14 4.5t14 -4.5t2 -12.5
q0 -7 -2 -11.5t-14 -4.5zM203 585l-96 92h27l84 -92h-15z" />
    <glyph glyph-name="Gcaron" unicode="&#x1e6;" horiz-adv-x="375" 
d="M88 773h17l82 -72l82 72h15l-84 -85h-28zM193 -2q-41 0 -71.5 5.5t-47 23.5t-16.5 55v461q0 50 36.5 65.5t98.5 15.5t94.5 -16t32.5 -66v-114l-20 -5v117q0 41 -28.5 54t-78.5 13q-49 0 -82 -11t-33 -55v-457q0 -32 15 -46.5t41 -18.5t59 -4q31 0 55 4t38 18.5t14 46.5
v232h-135l5 17h150v-251q0 -37 -14.5 -55t-43 -23.5t-69.5 -5.5z" />
    <glyph glyph-name="gcaron" unicode="&#x1e7;" horiz-adv-x="396" 
d="M99 623h17l82 -72l82 72h15l-84 -85h-28zM120 -170l-4 16h142q30 0 39 16t9 48v543h-159q-34 0 -47 -8.5t-14.5 -28t-1.5 -54.5v-259q0 -35 3 -53.5t14.5 -25.5t36.5 -7h130l-4 -17h-131q-34 0 -48.5 9t-17.5 36t-3 80v262q0 39 7 56.5t29 22t67 4.5h159v-563
q0 -43 -14.5 -60t-52.5 -17h-139z" />
    <glyph glyph-name="uni01EA" unicode="&#x1ea;" horiz-adv-x="378" 
d="M188 -2q-61 0 -95.5 22.5t-34.5 65.5v457q0 36 30.5 61t99.5 24q70 -1 101 -25t31 -61v-455q0 -43 -34 -66t-98 -23zM188 15q58 0 85 22t27 53v449q0 26 -24 49t-90 23q-61 0 -84.5 -22.5t-23.5 -48.5v-451q0 -31 27 -52.5t83 -21.5zM198 -156q-27 0 -43.5 20t-16.5 49
q0 26 21.5 53.5t67.5 43.5l14 -4q-37 -16 -61.5 -37.5t-24.5 -54.5q0 -22 13.5 -38.5t35.5 -16.5q18 0 31.5 4.5t29.5 17.5l2 -15q-18 -13 -33.5 -17.5t-35.5 -4.5z" />
    <glyph glyph-name="uni01EB" unicode="&#x1eb;" horiz-adv-x="382" 
d="M182 -4q-51 0 -77.5 16t-35.5 40t-9 46v275q0 23 9.5 46.5t37.5 39.5t84 16q55 0 83 -16t38 -39.5t10 -46.5v-259q0 -30 -10.5 -57t-40.5 -44t-89 -17zM182 13q56 0 88 22t32 75v260q0 47 -31 68t-80 21q-48 0 -79.5 -20.5t-31.5 -68.5v-269q0 -47 30.5 -67.5t71.5 -20.5
zM219 -156q-27 0 -43.5 20t-16.5 49q0 26 21.5 53.5t67.5 43.5l14 -4q-37 -16 -61.5 -37.5t-24.5 -54.5q0 -22 13.5 -38.5t35.5 -16.5q18 0 31.5 4.5t29.5 17.5l2 -15q-18 -13 -33.5 -17.5t-35.5 -4.5z" />
    <glyph glyph-name="Aringacute" unicode="&#x1fa;" horiz-adv-x="366" 
d="M24 0l132 620h54l130 -620h-21l-34 160l7 -6h-220l6 6l-33 -160h-21zM78 167l-3 4h214l-4 -4l-89 431l-2 1h-22l-2 -1zM182 683q-29 0 -48 18.5t-19 43.5q0 26 19 44.5t48 18.5q27 0 46 -18.5t19 -44.5q0 -25 -19 -43.5t-46 -18.5zM182 694q21 0 37 15t16 35q0 22 -16 38
t-37 16q-23 0 -38.5 -16t-15.5 -38q0 -20 15.5 -35t38.5 -15zM146 824l94 82h27l-106 -82h-15z" />
    <glyph glyph-name="aringacute" unicode="&#x1fb;" horiz-adv-x="396" 
d="M133 0q-34 0 -48.5 9t-17.5 36t-3 80v262q0 39 7 56.5t29 22t67 4.5h159v-470h-20v453h-159q-34 0 -47 -8.5t-14.5 -28t-1.5 -54.5v-259q0 -35 3 -53.5t14.5 -25.5t36.5 -7h130l-4 -17h-131zM197 533q-29 0 -48 18.5t-19 43.5q0 26 19 44.5t48 18.5q27 0 46 -18.5
t19 -44.5q0 -25 -19 -43.5t-46 -18.5zM197 544q21 0 37 15t16 35q0 22 -16 38t-37 16q-23 0 -38.5 -16t-15.5 -38q0 -20 15.5 -35t38.5 -15zM161 674l84 92h27l-96 -92h-15z" />
    <glyph glyph-name="AEacute" unicode="&#x1fc;" horiz-adv-x="557" 
d="M261 620h262v-17h-241v-241h227l-5 -16h-222v-330h241v-16h-262v620zM66 154v17h204v-17h-204zM23 0l137 620h18l-135 -620h-20zM162 603v17h109v-17h-109zM243 688l84 92h27l-96 -92h-15z" />
    <glyph glyph-name="aeacute" unicode="&#x1fd;" horiz-adv-x="580" 
d="M133 0q-34 0 -48.5 9t-17.5 36t-3 80v262q0 39 7 56.5t29 22t67 4.5h159v-470h-20v453h-159q-34 0 -47 -8.5t-14.5 -28t-1.5 -54.5v-259q0 -35 3 -53.5t14.5 -25.5t36.5 -7h130l-4 -17h-131zM424 0q-51 0 -77.5 16t-35.5 40t-9 46v275q0 23 9.5 46.5t37.5 39.5t84 16
q55 0 83 -16t38 -39.5t10 -46.5v-125h-20v122q0 47 -31 68t-80 21q-48 0 -79.5 -20.5t-31.5 -68.5v-269q0 -47 30.5 -67.5t71.5 -20.5q56 0 88 22t32 75v59l20 4v-59q0 -30 -10.5 -57t-40.5 -44t-89 -17zM308 242v14h256v-14h-256zM254 538l84 92h27l-96 -92h-15z" />
    <glyph glyph-name="Oslashacute" unicode="&#x1fe;" horiz-adv-x="373" 
d="M185 -2q-61 0 -95.5 22.5t-34.5 65.5v456q0 38 30.5 62.5t98.5 23.5q71 -1 102 -25t31 -62v-454q0 -43 -35 -66t-97 -23zM184 15q59 0 86 22t27 53v447q0 18 -10 35t-35 27.5t-70 10.5q-61 0 -84 -23t-23 -49v-449q0 -30 27 -52t82 -22zM62 -44l226 675h15l-229 -675h-12
zM151 688l94 82h27l-106 -82h-15z" />
    <glyph glyph-name="oslashacute" unicode="&#x1ff;" horiz-adv-x="346" 
d="M165 -4q-51 0 -77 16t-35.5 40t-9.5 46v273q0 23 9.5 46.5t38 39.5t84.5 16q55 0 82.5 -16t37.5 -39.5t10 -46.5v-257q0 -30 -10 -57t-40 -44t-90 -17zM165 13q56 0 88 22t32 75v258q0 47 -31 68t-79 21t-80 -20.5t-32 -68.5v-267q0 -47 31 -67.5t71 -20.5zM9 -100l-11 1
l335 672h12zM139 538l84 92h27l-96 -92h-15z" />
    <glyph glyph-name="uni0200" unicode="&#x200;" horiz-adv-x="366" 
d="M24 0l132 620h54l130 -620h-21l-34 160l7 -6h-220l6 6l-33 -160h-21zM78 167l-3 4h214l-4 -4l-89 431l-2 1h-22l-2 -1zM145 688l-96 92h27l84 -92h-15zM206 688l-96 92h27l84 -92h-15z" />
    <glyph glyph-name="uni0201" unicode="&#x201;" horiz-adv-x="396" 
d="M133 0q-34 0 -48.5 9t-17.5 36t-3 80v262q0 39 7 56.5t29 22t67 4.5h159v-470h-20v453h-159q-34 0 -47 -8.5t-14.5 -28t-1.5 -54.5v-259q0 -35 3 -53.5t14.5 -25.5t36.5 -7h130l-4 -17h-131zM160 538l-96 92h27l84 -92h-15zM221 538l-96 92h27l84 -92h-15z" />
    <glyph glyph-name="uni0202" unicode="&#x202;" horiz-adv-x="366" 
d="M180 767q49 0 69 -25.5t20 -59.5h-14q0 29 -16.5 49.5t-58.5 20.5q-40 0 -55.5 -21.5t-15.5 -48.5h-14q0 17 6 37t24.5 34t54.5 14zM24 0l132 620h54l130 -620h-21l-34 160l7 -6h-220l6 6l-33 -160h-21zM78 167l-3 4h214l-4 -4l-89 431l-2 1h-22l-2 -1z" />
    <glyph glyph-name="uni0203" unicode="&#x203;" horiz-adv-x="396" 
d="M195 617q49 0 69 -25.5t20 -59.5h-14q0 29 -16.5 49.5t-58.5 20.5q-40 0 -55.5 -21.5t-15.5 -48.5h-14q0 17 6 37t24.5 34t54.5 14zM133 0q-34 0 -48.5 9t-17.5 36t-3 80v262q0 39 7 56.5t29 22t67 4.5h159v-470h-20v453h-159q-34 0 -47 -8.5t-14.5 -28t-1.5 -54.5v-259
q0 -35 3 -53.5t14.5 -25.5t36.5 -7h130l-4 -17h-131z" />
    <glyph glyph-name="uni0204" unicode="&#x204;" horiz-adv-x="365" 
d="M70 620h260v-17h-240v-241h226l-5 -16h-221v-330h240v-16h-260v620zM148 688l-96 92h27l84 -92h-15zM209 688l-96 92h27l84 -92h-15z" />
    <glyph glyph-name="uni0205" unicode="&#x205;" horiz-adv-x="382" 
d="M182 -4q-51 0 -77.5 16t-35.5 40t-9 46v275q0 23 9.5 46.5t37.5 39.5t84 16q55 0 83 -16t38 -39.5t10 -46.5v-125h-20v122q0 47 -31 68t-80 21q-48 0 -79.5 -20.5t-31.5 -68.5v-269q0 -47 30.5 -67.5t71.5 -20.5q56 0 88 22t32 75v59l20 4v-59q0 -30 -10.5 -57t-40.5 -44
t-89 -17zM66 238v14h256v-14h-256zM154 538l-96 92h27l84 -92h-15zM215 538l-96 92h27l84 -92h-15z" />
    <glyph glyph-name="uni0206" unicode="&#x206;" horiz-adv-x="365" 
d="M183 767q49 0 69 -25.5t20 -59.5h-14q0 29 -16.5 49.5t-58.5 20.5q-40 0 -55.5 -21.5t-15.5 -48.5h-14q0 17 6 37t24.5 34t54.5 14zM70 620h260v-17h-240v-241h226l-5 -16h-221v-330h240v-16h-260v620z" />
    <glyph glyph-name="uni0207" unicode="&#x207;" horiz-adv-x="382" 
d="M189 617q49 0 69 -25.5t20 -59.5h-14q0 29 -16.5 49.5t-58.5 20.5q-40 0 -55.5 -21.5t-15.5 -48.5h-14q0 17 6 37t24.5 34t54.5 14zM182 -4q-51 0 -77.5 16t-35.5 40t-9 46v275q0 23 9.5 46.5t37.5 39.5t84 16q55 0 83 -16t38 -39.5t10 -46.5v-125h-20v122q0 47 -31 68
t-80 21q-48 0 -79.5 -20.5t-31.5 -68.5v-269q0 -47 30.5 -67.5t71.5 -20.5q56 0 88 22t32 75v59l20 4v-59q0 -30 -10.5 -57t-40.5 -44t-89 -17zM66 238v14h256v-14h-256z" />
    <glyph glyph-name="uni0208" unicode="&#x208;" horiz-adv-x="160" 
d="M70 620h20v-620h-20v620zM43 688l-96 92h27l84 -92h-15zM104 688l-96 92h27l84 -92h-15z" />
    <glyph glyph-name="uni0209" unicode="&#x209;" horiz-adv-x="160" 
d="M70 470h20v-470h-20v470zM43 538l-96 92h27l84 -92h-15zM104 538l-96 92h27l84 -92h-15z" />
    <glyph glyph-name="uni020A" unicode="&#x20a;" horiz-adv-x="160" 
d="M78 767q49 0 69 -25.5t20 -59.5h-14q0 29 -16.5 49.5t-58.5 20.5q-40 0 -55.5 -21.5t-15.5 -48.5h-14q0 17 6 37t24.5 34t54.5 14zM70 620h20v-620h-20v620z" />
    <glyph glyph-name="uni020B" unicode="&#x20b;" horiz-adv-x="160" 
d="M78 617q49 0 69 -25.5t20 -59.5h-14q0 29 -16.5 49.5t-58.5 20.5q-40 0 -55.5 -21.5t-15.5 -48.5h-14q0 17 6 37t24.5 34t54.5 14zM70 470h20v-470h-20v470z" />
    <glyph glyph-name="uni020C" unicode="&#x20c;" horiz-adv-x="378" 
d="M188 -2q-61 0 -95.5 22.5t-34.5 65.5v457q0 36 30.5 61t99.5 24q70 -1 101 -25t31 -61v-455q0 -43 -34 -66t-98 -23zM188 15q58 0 85 22t27 53v449q0 26 -24 49t-90 23q-61 0 -84.5 -22.5t-23.5 -48.5v-451q0 -31 27 -52.5t83 -21.5zM152 688l-96 92h27l84 -92h-15z
M213 688l-96 92h27l84 -92h-15z" />
    <glyph glyph-name="uni020D" unicode="&#x20d;" horiz-adv-x="382" 
d="M182 -4q-51 0 -77.5 16t-35.5 40t-9 46v275q0 23 9.5 46.5t37.5 39.5t84 16q55 0 83 -16t38 -39.5t10 -46.5v-259q0 -30 -10.5 -57t-40.5 -44t-89 -17zM182 13q56 0 88 22t32 75v260q0 47 -31 68t-80 21q-48 0 -79.5 -20.5t-31.5 -68.5v-269q0 -47 30.5 -67.5t71.5 -20.5
zM154 538l-96 92h27l84 -92h-15zM215 538l-96 92h27l84 -92h-15z" />
    <glyph glyph-name="uni020E" unicode="&#x20e;" horiz-adv-x="378" 
d="M187 767q49 0 69 -25.5t20 -59.5h-14q0 29 -16.5 49.5t-58.5 20.5q-40 0 -55.5 -21.5t-15.5 -48.5h-14q0 17 6 37t24.5 34t54.5 14zM188 -2q-61 0 -95.5 22.5t-34.5 65.5v457q0 36 30.5 61t99.5 24q70 -1 101 -25t31 -61v-455q0 -43 -34 -66t-98 -23zM188 15q58 0 85 22
t27 53v449q0 26 -24 49t-90 23q-61 0 -84.5 -22.5t-23.5 -48.5v-451q0 -31 27 -52.5t83 -21.5z" />
    <glyph glyph-name="uni020F" unicode="&#x20f;" horiz-adv-x="382" 
d="M189 617q49 0 69 -25.5t20 -59.5h-14q0 29 -16.5 49.5t-58.5 20.5q-40 0 -55.5 -21.5t-15.5 -48.5h-14q0 17 6 37t24.5 34t54.5 14zM182 -4q-51 0 -77.5 16t-35.5 40t-9 46v275q0 23 9.5 46.5t37.5 39.5t84 16q55 0 83 -16t38 -39.5t10 -46.5v-259q0 -30 -10.5 -57
t-40.5 -44t-89 -17zM182 13q56 0 88 22t32 75v260q0 47 -31 68t-80 21q-48 0 -79.5 -20.5t-31.5 -68.5v-269q0 -47 30.5 -67.5t71.5 -20.5z" />
    <glyph glyph-name="uni0210" unicode="&#x210;" horiz-adv-x="385" 
d="M70 620h165q43 0 63.5 -10.5t27 -32t6.5 -53.5v-103q0 -36 -6 -67.5t-31 -51t-82 -19.5h-123v-283h-20v620zM331 -10l-116 295l15 4l5 -2l3 -8l112 -282zM214 300q47 0 72.5 23.5t25.5 79.5v118q0 44 -17.5 63t-64.5 19h-140v-303h124zM148 688l-96 92h27l84 -92h-15z
M209 688l-96 92h27l84 -92h-15z" />
    <glyph glyph-name="uni0211" unicode="&#x211;" horiz-adv-x="260" 
d="M70 0v470h15l3 -49q17 25 43 39.5t58 14.5q22 0 34.5 -3t24.5 -8l-1 -19q-13 7 -25.5 10t-32.5 3q-35 0 -59 -17.5t-40 -42.5v-398h-20zM123 538l-96 92h27l84 -92h-15zM184 538l-96 92h27l84 -92h-15z" />
    <glyph glyph-name="uni0212" unicode="&#x212;" horiz-adv-x="385" 
d="M183 767q49 0 69 -25.5t20 -59.5h-14q0 29 -16.5 49.5t-58.5 20.5q-40 0 -55.5 -21.5t-15.5 -48.5h-14q0 17 6 37t24.5 34t54.5 14zM70 620h165q43 0 63.5 -10.5t27 -32t6.5 -53.5v-103q0 -36 -6 -67.5t-31 -51t-82 -19.5h-123v-283h-20v620zM331 -10l-116 295l15 4l5 -2
l3 -8l112 -282zM214 300q47 0 72.5 23.5t25.5 79.5v118q0 44 -17.5 63t-64.5 19h-140v-303h124z" />
    <glyph glyph-name="uni0213" unicode="&#x213;" horiz-adv-x="260" 
d="M158 617q49 0 69 -25.5t20 -59.5h-14q0 29 -16.5 49.5t-58.5 20.5q-40 0 -55.5 -21.5t-15.5 -48.5h-14q0 17 6 37t24 34t55 14zM70 0v470h15l3 -49q17 25 43 39.5t58 14.5q22 0 34.5 -3t24.5 -8l-1 -19q-13 7 -25.5 10t-32.5 3q-35 0 -59 -17.5t-40 -42.5v-398h-20z" />
    <glyph glyph-name="uni0214" unicode="&#x214;" horiz-adv-x="392" 
d="M196 -5q-35 0 -64.5 9t-47.5 29.5t-18 55.5v531h20v-523q0 -22 9 -41.5t32.5 -31.5t68.5 -12q48 0 71.5 12t31 31.5t7.5 41.5v523h20v-531q0 -35 -16.5 -55.5t-46 -29.5t-67.5 -9zM159 688l-96 92h27l84 -92h-15zM220 688l-96 92h27l84 -92h-15z" />
    <glyph glyph-name="uni0215" unicode="&#x215;" horiz-adv-x="397" 
d="M191 0q-54 0 -81 15.5t-36 38t-9 44.5v372h20v-365q0 -49 31 -68.5t80 -19.5h111v453h20v-470h-136zM161 538l-96 92h27l84 -92h-15zM222 538l-96 92h27l84 -92h-15z" />
    <glyph glyph-name="uni0216" unicode="&#x216;" horiz-adv-x="392" 
d="M194 767q49 0 69 -25.5t20 -59.5h-14q0 29 -16.5 49.5t-58.5 20.5q-40 0 -55.5 -21.5t-15.5 -48.5h-14q0 17 6 37t24.5 34t54.5 14zM196 -5q-35 0 -64.5 9t-47.5 29.5t-18 55.5v531h20v-523q0 -22 9 -41.5t32.5 -31.5t68.5 -12q48 0 71.5 12t31 31.5t7.5 41.5v523h20
v-531q0 -35 -16.5 -55.5t-46 -29.5t-67.5 -9z" />
    <glyph glyph-name="uni0217" unicode="&#x217;" horiz-adv-x="397" 
d="M196 617q49 0 69 -25.5t20 -59.5h-14q0 29 -16.5 49.5t-58.5 20.5q-40 0 -55.5 -21.5t-15.5 -48.5h-14q0 17 6 37t24.5 34t54.5 14zM191 0q-54 0 -81 15.5t-36 38t-9 44.5v372h20v-365q0 -49 31 -68.5t80 -19.5h111v453h20v-470h-136z" />
    <glyph glyph-name="uni0218" unicode="&#x218;" horiz-adv-x="366" 
d="M188 -2q-42 1 -72.5 7.5t-47.5 23.5t-17 49v123l20 5v-124q0 -33 25.5 -50t90.5 -17q44 0 67 8.5t31 28t8 51.5v104q0 42 -20.5 64t-55.5 32l-82 22q-45 13 -64.5 34t-19.5 64v100q0 43 16.5 64t47 28t73.5 7q42 0 69.5 -7t41.5 -24t14 -49v-123l-20 -6v124
q0 35 -20.5 52t-85.5 17q-66 0 -91 -20t-25 -67v-98q0 -37 22.5 -55t52.5 -26l83 -22q46 -12 65 -37t19 -70v-111q0 -44 -13.5 -65.5t-41 -28.5t-70.5 -8zM161 -149q12 17 20 36t8 41q-13 0 -15.5 3t-2.5 7q0 6 2 10t15 4q11 0 13 -3.5t2 -9.5q0 -15 -3.5 -31.5t-10 -31
t-15.5 -25.5h-13z" />
    <glyph glyph-name="uni0219" unicode="&#x219;" horiz-adv-x="366" 
d="M179 -6q-68 0 -97 29.5t-29 82.5v71l19 4v-75q0 -23 8.5 -45t31.5 -36t67 -14q53 0 83.5 18t30.5 77q0 45 -16 67t-57 41q-6 3 -21.5 9t-33.5 12.5t-32.5 12.5t-19.5 9q-22 11 -35 23.5t-19 31t-6 47.5v9q0 54 31.5 80.5t100.5 26.5q68 0 97.5 -25t29.5 -81v-77l-19 -3
v78q0 54 -28.5 72.5t-80.5 18.5t-75.5 -15.5t-30 -37.5t-6.5 -41q0 -40 10.5 -57t40.5 -33q16 -8 37 -16t40.5 -15t29.5 -12q48 -22 65 -46t17 -72v-6q0 -55 -28.5 -84t-104.5 -29zM161 -149q12 17 20 36t8 41q-13 0 -15.5 3t-2.5 7q0 6 2 10t15 4q11 0 13 -3.5t2 -9.5
q0 -15 -3.5 -31.5t-10 -31t-15.5 -25.5h-13z" />
    <glyph glyph-name="uni021A" unicode="&#x21a;" horiz-adv-x="291" 
d="M134 603h-112v17h247v-17h-114v-603h-21v603zM123 -149q12 17 20 36t8 41q-13 0 -15.5 3t-2.5 7q0 6 2 10t15 4q11 0 13 -3.5t2 -9.5q0 -15 -3.5 -31.5t-10 -31t-15.5 -25.5h-13z" />
    <glyph glyph-name="uni021B" unicode="&#x21b;" horiz-adv-x="198" 
d="M157 0q-38 0 -58 10.5t-27 33.5t-7 58v352h-33v16h36l3 88h14v-88h85l-4 -16h-81v-359q0 -47 20 -62.5t55 -15.5h26v-17h-29zM119 -149q12 17 20 36t8 41q-13 0 -15.5 3t-2.5 7q0 6 2 10t15 4q11 0 13 -3.5t2 -9.5q0 -15 -3.5 -31.5t-10 -31t-15.5 -25.5h-13z" />
    <glyph glyph-name="uni022A" unicode="&#x22a;" horiz-adv-x="378" 
d="M188 -2q-61 0 -95.5 22.5t-34.5 65.5v457q0 36 30.5 61t99.5 24q70 -1 101 -25t31 -61v-455q0 -43 -34 -66t-98 -23zM188 15q58 0 85 22t27 53v449q0 26 -24 49t-90 23q-61 0 -84.5 -22.5t-23.5 -48.5v-451q0 -31 27 -52.5t83 -21.5zM230 685q-11 0 -13 4.5t-2 11.5
q0 8 2 12.5t13 4.5q13 0 15 -4.5t2 -12.5q0 -7 -2 -11.5t-15 -4.5zM146 685q-12 0 -14 4.5t-2 11.5q0 8 2 12.5t14 4.5t14 -4.5t2 -12.5q0 -7 -2 -11.5t-14 -4.5zM94 743v15h189v-15h-189z" />
    <glyph glyph-name="uni022B" unicode="&#x22b;" horiz-adv-x="382" 
d="M182 -4q-51 0 -77.5 16t-35.5 40t-9 46v275q0 23 9.5 46.5t37.5 39.5t84 16q55 0 83 -16t38 -39.5t10 -46.5v-259q0 -30 -10.5 -57t-40.5 -44t-89 -17zM182 13q56 0 88 22t32 75v260q0 47 -31 68t-80 21q-48 0 -79.5 -20.5t-31.5 -68.5v-269q0 -47 30.5 -67.5t71.5 -20.5
zM232 535q-11 0 -13 4.5t-2 11.5q0 8 2 12.5t13 4.5q13 0 15 -4.5t2 -12.5q0 -7 -2 -11.5t-15 -4.5zM148 535q-12 0 -14 4.5t-2 11.5q0 8 2 12.5t14 4.5t14 -4.5t2 -12.5q0 -7 -2 -11.5t-14 -4.5zM96 593v15h189v-15h-189z" />
    <glyph glyph-name="uni022C" unicode="&#x22c;" horiz-adv-x="378" 
d="M188 -2q-61 0 -95.5 22.5t-34.5 65.5v457q0 36 30.5 61t99.5 24q70 -1 101 -25t31 -61v-455q0 -43 -34 -66t-98 -23zM188 15q58 0 85 22t27 53v449q0 26 -24 49t-90 23q-61 0 -84.5 -22.5t-23.5 -48.5v-451q0 -31 27 -52.5t83 -21.5zM99 682q0 35 13.5 50.5t32.5 15.5
q20 0 33 -11.5t25.5 -23t27.5 -11.5q23 0 28.5 15.5t5.5 28.5h14q0 -34 -14.5 -47t-31.5 -13q-19 0 -33 12t-26 23.5t-27 11.5q-18 0 -26 -14t-8 -37h-14zM94 782v15h189v-15h-189z" />
    <glyph glyph-name="uni022D" unicode="&#x22d;" horiz-adv-x="382" 
d="M182 -4q-51 0 -77.5 16t-35.5 40t-9 46v275q0 23 9.5 46.5t37.5 39.5t84 16q55 0 83 -16t38 -39.5t10 -46.5v-259q0 -30 -10.5 -57t-40.5 -44t-89 -17zM182 13q56 0 88 22t32 75v260q0 47 -31 68t-80 21q-48 0 -79.5 -20.5t-31.5 -68.5v-269q0 -47 30.5 -67.5t71.5 -20.5
zM101 532q0 35 13.5 50.5t32.5 15.5q20 0 33 -11.5t25.5 -23t27.5 -11.5q23 0 28.5 15.5t5.5 28.5h14q0 -34 -14.5 -47t-31.5 -13q-19 0 -33 12t-26 23.5t-27 11.5q-18 0 -26 -14t-8 -37h-14zM95 632v15h189v-15h-189z" />
    <glyph glyph-name="uni0230" unicode="&#x230;" horiz-adv-x="378" 
d="M188 -2q-61 0 -95.5 22.5t-34.5 65.5v457q0 36 30.5 61t99.5 24q70 -1 101 -25t31 -61v-455q0 -43 -34 -66t-98 -23zM188 15q58 0 85 22t27 53v449q0 26 -24 49t-90 23q-61 0 -84.5 -22.5t-23.5 -48.5v-451q0 -31 27 -52.5t83 -21.5zM188 686q-12 0 -14 4.5t-2 11.5
q0 8 2 13t14 5t14 -5t2 -13q0 -7 -2 -11.5t-14 -4.5zM94 743v15h189v-15h-189z" />
    <glyph glyph-name="uni0231" unicode="&#x231;" horiz-adv-x="382" 
d="M182 -4q-51 0 -77.5 16t-35.5 40t-9 46v275q0 23 9.5 46.5t37.5 39.5t84 16q55 0 83 -16t38 -39.5t10 -46.5v-259q0 -30 -10.5 -57t-40.5 -44t-89 -17zM182 13q56 0 88 22t32 75v260q0 47 -31 68t-80 21q-48 0 -79.5 -20.5t-31.5 -68.5v-269q0 -47 30.5 -67.5t71.5 -20.5
zM190 536q-12 0 -14 4.5t-2 11.5q0 8 2 13t14 5t14 -5t2 -13q0 -7 -2 -11.5t-14 -4.5zM96 593v15h189v-15h-189z" />
    <glyph glyph-name="uni0232" unicode="&#x232;" horiz-adv-x="327" 
d="M153 0v274l-137 346h19l126 -314l2 -10h1l2 10l125 314h20l-138 -346v-274h-20zM68 696v15h189v-15h-189z" />
    <glyph glyph-name="uni0233" unicode="&#x233;" horiz-adv-x="305" 
d="M-4 -170l-1 15h32q39 0 62.5 17t35.5 68l19 73l-124 467h20l114 -430l1 -4h-4l1 4l114 430h21l-143 -543q-14 -53 -38 -75t-80 -22h-30zM60 546v15h189v-15h-189z" />
    <glyph glyph-name="uni0237" unicode="&#x237;" horiz-adv-x="149" 
d="M-47 -170l-3 16h67q29 0 38 16t9 48v560h20v-563q0 -43 -14 -60t-52 -17h-65z" />
    <glyph glyph-name="uni0259" unicode="&#x259;" horiz-adv-x="338" 
d="M156 474q52 0 78 -16t35 -39.5t9 -46.5v-275q0 -22 -9.5 -46t-37.5 -40t-84 -16q-54 0 -82.5 16t-38.5 40t-10 46v125h20v-122q0 -47 31 -68t80 -21q48 0 79.5 20.5t31.5 68.5v269q0 47 -30.5 67.5t-71.5 20.5q-55 0 -87.5 -22t-32.5 -75v-59l-20 -4v59q0 31 10.5 57.5
t40.5 43.5t89 17zM272 232v-14h-256v14h256z" />
    <glyph glyph-name="uni02B9" unicode="&#x2b9;" horiz-adv-x="47" 
d="M0 457q10 18 16 39.5t6 45.5q-10 0 -12 3t-2 7q0 7 2 11.5t12 4.5q9 0 11 -4t2 -10q0 -17 -3.5 -35.5t-8.5 -34.5t-12 -27h-11z" />
    <glyph glyph-name="uni02BA" unicode="&#x2ba;" horiz-adv-x="129" 
d="M94 457q10 18 16 39.5t6 45.5q-10 0 -12 3t-2 7q0 7 2 11.5t12 4.5q9 0 11 -4t2 -10q0 -17 -3.5 -35.5t-8.5 -34.5t-12 -27h-11zM0 457q10 18 16 39.5t6 45.5q-10 0 -12 3t-2 7q0 7 2 11.5t12 4.5q9 0 11 -4t2 -10q0 -17 -3.5 -35.5t-8.5 -34.5t-12 -27h-11z" />
    <glyph glyph-name="uni02BC" unicode="&#x2bc;" horiz-adv-x="57" 
d="M0 435q13 21 20 46.5t7 53.5q-12 0 -14 4t-2 9t0.5 9.5t4 7t11.5 2.5q10 0 12.5 -5t2.5 -12q0 -20 -4 -42t-10 -41t-15 -32h-13z" />
    <glyph glyph-name="circumflex" unicode="&#x2c6;" horiz-adv-x="197" 
d="M0 538l84 85h28l84 -85h-15l-82 72l-82 -72h-17z" />
    <glyph glyph-name="caron" unicode="&#x2c7;" horiz-adv-x="197" 
d="M0 623h17l82 -72l82 72h15l-84 -85h-28z" />
    <glyph glyph-name="breve" unicode="&#x2d8;" horiz-adv-x="178" 
d="M87 534q-36 0 -54.5 14t-24.5 34t-6 37h14q0 -27 15.5 -48.5t55.5 -21.5q42 0 58.5 21t16.5 49h14q0 -34 -20 -59.5t-69 -25.5z" />
    <glyph glyph-name="dotaccent" unicode="&#x2d9;" horiz-adv-x="32" 
d="M16 536q-12 0 -14 4.5t-2 11.5q0 8 2 13t14 5t14 -5t2 -13q0 -7 -2 -11.5t-14 -4.5z" />
    <glyph glyph-name="ring" unicode="&#x2da;" horiz-adv-x="132" 
d="M67 533q-29 0 -48 18.5t-19 43.5q0 26 19 44.5t48 18.5q27 0 46 -18.5t19 -44.5q0 -25 -19 -43.5t-46 -18.5zM67 544q21 0 37 15t16 35q0 22 -16 38t-37 16q-23 0 -38.5 -16t-15.5 -38q0 -20 15.5 -35t38.5 -15z" />
    <glyph glyph-name="ogonek" unicode="&#x2db;" horiz-adv-x="185" 
d="M70 -156q-27 0 -43.5 20t-16.5 49q0 26 21.5 53.5t67.5 43.5l14 -4q-37 -16 -61.5 -37.5t-24.5 -54.5q0 -22 13.5 -38.5t35.5 -16.5q18 0 31.5 4.5t29.5 17.5l2 -15q-18 -13 -33.5 -17.5t-35.5 -4.5z" />
    <glyph glyph-name="tilde" unicode="&#x2dc;" horiz-adv-x="182" 
d="M1 532q0 35 13.5 50.5t32.5 15.5q20 0 33 -11.5t25.5 -23t27.5 -11.5q23 0 28.5 15.5t5.5 28.5h14q0 -34 -14.5 -47t-31.5 -13q-19 0 -33 12t-26 23.5t-27 11.5q-18 0 -26 -14t-8 -37h-14z" />
    <glyph glyph-name="hungarumlaut" unicode="&#x2dd;" horiz-adv-x="121" 
d="M0 538l35 92h26l-46 -92h-15zM59 538l35 92h27l-47 -92h-15z" />
    <glyph glyph-name="gravecomb" unicode="&#x300;" 
d="M96 538l-96 92h27l84 -92h-15z" />
    <glyph glyph-name="acutecomb" unicode="&#x301;" 
d="M0 538l84 92h27l-96 -92h-15z" />
    <glyph glyph-name="uni0302" unicode="&#x302;" 
d="M0 538l84 85h28l84 -85h-15l-82 72l-82 -72h-17z" />
    <glyph glyph-name="tildecomb" unicode="&#x303;" 
d="M1 532q0 35 13.5 50.5t32.5 15.5q20 0 33 -11.5t25.5 -23t27.5 -11.5q23 0 28.5 15.5t5.5 28.5h14q0 -34 -14.5 -47t-31.5 -13q-19 0 -33 12t-26 23.5t-27 11.5q-18 0 -26 -14t-8 -37h-14z" />
    <glyph glyph-name="uni0304" unicode="&#x304;" 
d="M0 546v15h189v-15h-189z" />
    <glyph glyph-name="uni0306" unicode="&#x306;" 
d="M87 534q-36 0 -54.5 14t-24.5 34t-6 37h14q0 -27 15.5 -48.5t55.5 -21.5q42 0 58.5 21t16.5 49h14q0 -34 -20 -59.5t-69 -25.5z" />
    <glyph glyph-name="uni0307" unicode="&#x307;" 
d="M16 536q-12 0 -14 4.5t-2 11.5q0 8 2 13t14 5t14 -5t2 -13q0 -7 -2 -11.5t-14 -4.5z" />
    <glyph glyph-name="uni0308" unicode="&#x308;" 
d="M120 535q-11 0 -13 4.5t-2 11.5q0 8 2 12.5t13 4.5q13 0 15 -4.5t2 -12.5q0 -7 -2 -11.5t-15 -4.5zM36 535q-12 0 -14 4.5t-2 11.5q0 8 2 12.5t14 4.5t14 -4.5t2 -12.5q0 -7 -2 -11.5t-14 -4.5z" />
    <glyph glyph-name="hookabovecomb" unicode="&#x309;" 
d="M53 538q0 12 8.5 20.5t20 16t20 17.5t8.5 25q0 17 -14.5 27t-31.5 10q-26 0 -37.5 -14t-14.5 -32l-12 4q2 26 19 40.5t47 14.5q29 0 44 -14.5t15 -34.5q0 -19 -8.5 -30t-19 -18t-19 -14t-8.5 -18h-17z" />
    <glyph glyph-name="uni030A" unicode="&#x30a;" 
d="M67 533q-29 0 -48 18.5t-19 43.5q0 26 19 44.5t48 18.5q27 0 46 -18.5t19 -44.5q0 -25 -19 -43.5t-46 -18.5zM67 544q21 0 37 15t16 35q0 22 -16 38t-37 16q-23 0 -38.5 -16t-15.5 -38q0 -20 15.5 -35t38.5 -15z" />
    <glyph glyph-name="uni030B" unicode="&#x30b;" 
d="M0 538l35 92h26l-46 -92h-15zM59 538l35 92h27l-47 -92h-15z" />
    <glyph glyph-name="uni030C" unicode="&#x30c;" 
d="M0 623h17l82 -72l82 72h15l-84 -85h-28z" />
    <glyph glyph-name="uni030F" unicode="&#x30f;" 
d="M91 538l-96 92h27l84 -92h-15zM152 538l-96 92h27l84 -92h-15z" />
    <glyph glyph-name="uni0311" unicode="&#x311;" 
d="M87 617q49 0 69 -25.5t20 -59.5h-14q0 29 -16.5 49.5t-58.5 20.5q-40 0 -55.5 -21.5t-15.5 -48.5h-14q0 17 6 37t24.5 34t54.5 14z" />
    <glyph glyph-name="uni0312" unicode="&#x312;" 
d="M15 538q-10 0 -12.5 3.5t-2.5 9.5q0 14 3.5 30.5t10.5 31.5t15 25h14q-13 -16 -20 -35t-7 -41q11 0 13.5 -2.5t2.5 -6.5q0 -6 -2 -10.5t-15 -4.5z" />
    <glyph glyph-name="uni031B" unicode="&#x31b;" 
d="M2 458l-2 12q38 0 50.5 12t11.5 38h15q0 -37 -17 -49.5t-58 -12.5z" />
    <glyph glyph-name="dotbelowcomb" unicode="&#x323;" 
d="M16 -82q-12 0 -14 4.5t-2 11.5q0 8 2 13t14 5t14 -5t2 -13q0 -7 -2 -11.5t-14 -4.5z" />
    <glyph glyph-name="uni0324" unicode="&#x324;" 
d="M120 -82q-11 0 -13 4.5t-2 11.5q0 8 2 12.5t13 4.5q13 0 15 -4.5t2 -12.5q0 -7 -2 -11.5t-15 -4.5zM36 -82q-12 0 -14 4.5t-2 11.5q0 8 2 12.5t14 4.5t14 -4.5t2 -12.5q0 -7 -2 -11.5t-14 -4.5z" />
    <glyph glyph-name="uni0326" unicode="&#x326;" 
d="M0 -149q12 17 20 36t8 41q-13 0 -15.5 3t-2.5 7q0 6 2 10t15 4q11 0 13 -3.5t2 -9.5q0 -15 -3.5 -31.5t-10 -31t-15.5 -25.5h-13z" />
    <glyph glyph-name="uni0327" unicode="&#x327;" 
d="M64 -167q-19 0 -34.5 8t-23.5 16l10 11q5 -7 18.5 -15t28.5 -8q26 0 40.5 18.5t14.5 37.5q0 18 -11.5 33.5t-38.5 15.5q-17 0 -31 -7.5t-24 -18.5l-13 12l52 64h14l-43 -55q23 17 47 17q35 0 49.5 -19t14.5 -40q0 -24 -18 -47t-52 -23z" />
    <glyph glyph-name="uni0328" unicode="&#x328;" 
d="M70 -156q-27 0 -43.5 20t-16.5 49q0 26 21.5 53.5t67.5 43.5l14 -4q-37 -16 -61.5 -37.5t-24.5 -54.5q0 -22 13.5 -38.5t35.5 -16.5q18 0 31.5 4.5t29.5 17.5l2 -15q-18 -13 -33.5 -17.5t-35.5 -4.5z" />
    <glyph glyph-name="uni032E" unicode="&#x32e;" 
d="M87 -131q-36 0 -54.5 14t-24.5 34t-6 37h14q0 -27 15.5 -48.5t55.5 -21.5q42 0 58.5 21t16.5 49h14q0 -34 -20 -59.5t-69 -25.5z" />
    <glyph glyph-name="uni0331" unicode="&#x331;" 
d="M0 -74v15h213v-15h-213z" />
    <glyph glyph-name="uni0335" unicode="&#x335;" 
d="M0 176v13h213v-13h-213z" />
    <glyph glyph-name="uni03A9" unicode="&#x3a9;" horiz-adv-x="567" 
d="M32 17h133q-35 29 -63.5 79.5t-45.5 115.5t-17 138q0 63 7.5 112.5t32 85t74 54t133.5 18.5q67 0 111.5 -12.5t71 -36t40 -57t17.5 -75t4 -89.5q0 -73 -18.5 -137.5t-48 -115t-63.5 -80.5h136v-17h-150l-6 17q20 15 42 47.5t41.5 78t31.5 98t12 107.5q0 50 -5 95.5
t-25 82t-65 57.5t-126 21q-80 0 -126 -20t-67 -55t-26.5 -81t-5.5 -99q0 -47 9.5 -97t27 -96t40 -82.5t48.5 -56.5l-6 -17h-148v17z" />
    <glyph glyph-name="uni03BC" unicode="&#x3bc;" horiz-adv-x="342" 
d="M166 0q-54 0 -81 15.5t-36 38t-9 44.5v372h20v-365q0 -49 30.5 -68.5t80.5 -19.5h110v453h20v-470h-135zM105 -170q-38 0 -51.5 17t-13.5 60v563h20v-560q0 -32 9 -48t37 -16h11l-4 -16h-8z" />
    <glyph glyph-name="pi" unicode="&#x3c0;" horiz-adv-x="480" 
d="M141 0v453h-93v17h385v-17h-87v-283h-20v283h-165v-453h-20zM391 0q-38 0 -51.5 17.5t-13.5 60.5v392h20v-389q0 -33 9 -48.5t37 -15.5h9l-4 -17h-6z" />
    <glyph glyph-name="Wgrave" unicode="&#x1e80;" horiz-adv-x="546" 
d="M143 0l-115 620h21l106 -580l1 -10h1v10l113 546h18l103 -546l1 -10h1l1 10l104 580h20l-113 -620h-25l-99 535v6h-1l-1 -6l-111 -535h-25zM285 688l-106 82h27l94 -82h-15z" />
    <glyph glyph-name="wgrave" unicode="&#x1e81;" horiz-adv-x="541" 
d="M16 470h21l121 -427l102 427h18l104 -425l120 425h20l-132 -470h-16l-104 432l-105 -432h-17zM277 538l-96 92h27l84 -92h-15z" />
    <glyph glyph-name="Wacute" unicode="&#x1e82;" horiz-adv-x="546" 
d="M143 0l-115 620h21l106 -580l1 -10h1v10l113 546h18l103 -546l1 -10h1l1 10l104 580h20l-113 -620h-25l-99 535v6h-1l-1 -6l-111 -535h-25zM244 688l94 82h27l-106 -82h-15z" />
    <glyph glyph-name="wacute" unicode="&#x1e83;" horiz-adv-x="541" 
d="M16 470h21l121 -427l102 427h18l104 -425l120 425h20l-132 -470h-16l-104 432l-105 -432h-17zM236 538l84 92h27l-96 -92h-15z" />
    <glyph glyph-name="Wdieresis" unicode="&#x1e84;" horiz-adv-x="546" 
d="M143 0l-115 620h21l106 -580l1 -10h1v10l113 546h18l103 -546l1 -10h1l1 10l104 580h20l-113 -620h-25l-99 535v6h-1l-1 -6l-111 -535h-25zM321 685q-11 0 -13 4.5t-2 11.5q0 8 2 12.5t13 4.5q13 0 15 -4.5t2 -12.5q0 -7 -2 -11.5t-15 -4.5zM237 685q-12 0 -14 4.5
t-2 11.5q0 8 2 12.5t14 4.5t14 -4.5t2 -12.5q0 -7 -2 -11.5t-14 -4.5z" />
    <glyph glyph-name="wdieresis" unicode="&#x1e85;" horiz-adv-x="541" 
d="M16 470h21l121 -427l102 427h18l104 -425l120 425h20l-132 -470h-16l-104 432l-105 -432h-17zM313 535q-11 0 -13 4.5t-2 11.5q0 8 2 12.5t13 4.5q13 0 15 -4.5t2 -12.5q0 -7 -2 -11.5t-15 -4.5zM229 535q-12 0 -14 4.5t-2 11.5q0 8 2 12.5t14 4.5t14 -4.5t2 -12.5
q0 -7 -2 -11.5t-14 -4.5z" />
    <glyph glyph-name="uni1E9E" unicode="&#x1e9e;" horiz-adv-x="441" 
d="M250 -6q-67 0 -96.5 29t-29.5 82l19 4q0 -25 8.5 -47.5t31.5 -37t67 -14.5q53 0 83.5 18t30.5 78q0 30 -4 49t-17 35.5t-42 37.5q-13 8 -35 20.5t-40 22.5q-20 11 -34 22t-21.5 26.5t-7.5 36.5q0 24 10.5 43t33.5 40l48 41q18 17 27 33.5t9 39.5q0 32 -23 42.5t-60 10.5
h-34q-52 0 -68 -13.5t-16 -53.5v-539h-20v541q0 45 19 62t78 17h47q48 0 72.5 -14t24.5 -50q0 -29 -9 -47.5t-29 -37.5l-53 -46q-17 -17 -27 -33t-10 -36q0 -21 12 -38t40 -32q22 -11 35.5 -19t23 -13.5t17.5 -10.5q32 -22 47.5 -39.5t20 -38t4.5 -52.5q0 -64 -30 -91.5
t-103 -27.5z" />
    <glyph glyph-name="uni1EA0" unicode="&#x1ea0;" horiz-adv-x="366" 
d="M24 0l132 620h54l130 -620h-21l-34 160l7 -6h-220l6 6l-33 -160h-21zM78 167l-3 4h214l-4 -4l-89 431l-2 1h-22l-2 -1zM181 -82q-12 0 -14 4.5t-2 11.5q0 8 2 13t14 5t14 -5t2 -13q0 -7 -2 -11.5t-14 -4.5z" />
    <glyph glyph-name="uni1EA1" unicode="&#x1ea1;" horiz-adv-x="396" 
d="M133 0q-34 0 -48.5 9t-17.5 36t-3 80v262q0 39 7 56.5t29 22t67 4.5h159v-470h-20v453h-159q-34 0 -47 -8.5t-14.5 -28t-1.5 -54.5v-259q0 -35 3 -53.5t14.5 -25.5t36.5 -7h130l-4 -17h-131zM197 -82q-12 0 -14 4.5t-2 11.5q0 8 2 13t14 5t14 -5t2 -13q0 -7 -2 -11.5
t-14 -4.5z" />
    <glyph glyph-name="uni1EA2" unicode="&#x1ea2;" horiz-adv-x="366" 
d="M24 0l132 620h54l130 -620h-21l-34 160l7 -6h-220l6 6l-33 -160h-21zM78 167l-3 4h214l-4 -4l-89 431l-2 1h-22l-2 -1zM172 688q0 12 8.5 20.5t20 16t20 17.5t8.5 25q0 17 -14.5 27t-31.5 10q-26 0 -37.5 -14t-14.5 -32l-12 4q2 26 19 40.5t47 14.5q29 0 44 -14.5
t15 -34.5q0 -19 -8.5 -30t-19 -18t-19 -14t-8.5 -18h-17z" />
    <glyph glyph-name="uni1EA3" unicode="&#x1ea3;" horiz-adv-x="396" 
d="M133 0q-34 0 -48.5 9t-17.5 36t-3 80v262q0 39 7 56.5t29 22t67 4.5h159v-470h-20v453h-159q-34 0 -47 -8.5t-14.5 -28t-1.5 -54.5v-259q0 -35 3 -53.5t14.5 -25.5t36.5 -7h130l-4 -17h-131zM187 538q0 12 8.5 20.5t20 16t20 17.5t8.5 25q0 17 -14.5 27t-31.5 10
q-26 0 -37.5 -14t-14.5 -32l-12 4q2 26 19 40.5t47 14.5q29 0 44 -14.5t15 -34.5q0 -19 -8.5 -30t-19 -18t-19 -14t-8.5 -18h-17z" />
    <glyph glyph-name="uni1EA4" unicode="&#x1ea4;" horiz-adv-x="366" 
d="M24 0l132 620h54l130 -620h-21l-34 160l7 -6h-220l6 6l-33 -160h-21zM78 167l-3 4h214l-4 -4l-89 431l-2 1h-22l-2 -1zM100 674l67 68h27l67 -68h-15l-64 56l-64 -56h-18zM255 733l68 74h26l-78 -74h-16z" />
    <glyph glyph-name="uni1EA5" unicode="&#x1ea5;" horiz-adv-x="396" 
d="M133 0q-34 0 -48.5 9t-17.5 36t-3 80v262q0 39 7 56.5t29 22t67 4.5h159v-470h-20v453h-159q-34 0 -47 -8.5t-14.5 -28t-1.5 -54.5v-259q0 -35 3 -53.5t14.5 -25.5t36.5 -7h130l-4 -17h-131zM98 538l84 85h28l84 -85h-15l-82 72l-82 -72h-17zM286 612l84 92h27l-96 -92
h-15z" />
    <glyph glyph-name="uni1EA6" unicode="&#x1ea6;" horiz-adv-x="366" 
d="M24 0l132 620h54l130 -620h-21l-34 160l7 -6h-220l6 6l-33 -160h-21zM78 167l-3 4h214l-4 -4l-89 431l-2 1h-22l-2 -1zM100 674l67 68h27l67 -68h-15l-64 56l-64 -56h-18zM277 733l-78 74h24l69 -74h-15z" />
    <glyph glyph-name="uni1EA7" unicode="&#x1ea7;" horiz-adv-x="396" 
d="M133 0q-34 0 -48.5 9t-17.5 36t-3 80v262q0 39 7 56.5t29 22t67 4.5h159v-470h-20v453h-159q-34 0 -47 -8.5t-14.5 -28t-1.5 -54.5v-259q0 -35 3 -53.5t14.5 -25.5t36.5 -7h130l-4 -17h-131zM98 538l84 85h28l84 -85h-15l-82 72l-82 -72h-17zM313 612l-96 92h27l84 -92
h-15z" />
    <glyph glyph-name="uni1EA8" unicode="&#x1ea8;" horiz-adv-x="366" 
d="M24 0l132 620h54l130 -620h-21l-34 160l7 -6h-220l6 6l-33 -160h-21zM78 167l-3 4h214l-4 -4l-89 431l-2 1h-22l-2 -1zM100 674l67 68h27l67 -68h-15l-64 56l-64 -56h-18zM272 733q0 13 11 21t22 17t11 25q0 13 -11 21t-24 8q-19 0 -28.5 -11t-12.5 -25l-11 4
q2 20 16 31.5t38 11.5q23 0 36.5 -11t13.5 -28q0 -15 -6.5 -24t-15.5 -15t-15.5 -11.5t-6.5 -13.5h-17z" />
    <glyph glyph-name="uni1EA9" unicode="&#x1ea9;" horiz-adv-x="396" 
d="M133 0q-34 0 -48.5 9t-17.5 36t-3 80v262q0 39 7 56.5t29 22t67 4.5h159v-470h-20v453h-159q-34 0 -47 -8.5t-14.5 -28t-1.5 -54.5v-259q0 -35 3 -53.5t14.5 -25.5t36.5 -7h130l-4 -17h-131zM98 538l84 85h28l84 -85h-15l-82 72l-82 -72h-17zM308 612q0 12 8.5 20.5
t20 16t20 17.5t8.5 25q0 17 -14.5 27t-31.5 10q-26 0 -37.5 -14t-14.5 -32l-12 4q2 26 19 40.5t47 14.5q29 0 44 -14.5t15 -34.5q0 -19 -8.5 -30t-19 -18t-19 -14t-8.5 -18h-17z" />
    <glyph glyph-name="uni1EAA" unicode="&#x1eaa;" horiz-adv-x="366" 
d="M24 0l132 620h54l130 -620h-21l-34 160l7 -6h-220l6 6l-33 -160h-21zM78 167l-3 4h214l-4 -4l-89 431l-2 1h-22l-2 -1zM100 674l67 68h27l67 -68h-15l-64 56l-64 -56h-18zM105 761q0 29 11.5 42.5t27.5 13.5t27 -9.5t21 -19t22 -9.5q17 0 22 13t5 23h13q0 -28 -12 -39.5
t-27 -11.5t-26 9.5t-21 18.5t-22 9q-14 0 -20.5 -10.5t-6.5 -29.5h-14z" />
    <glyph glyph-name="uni1EAB" unicode="&#x1eab;" horiz-adv-x="396" 
d="M133 0q-34 0 -48.5 9t-17.5 36t-3 80v262q0 39 7 56.5t29 22t67 4.5h159v-470h-20v453h-159q-34 0 -47 -8.5t-14.5 -28t-1.5 -54.5v-259q0 -35 3 -53.5t14.5 -25.5t36.5 -7h130l-4 -17h-131zM98 538l84 85h28l84 -85h-15l-82 72l-82 -72h-17zM105 647q0 35 13.5 50.5
t32.5 15.5q20 0 33 -11.5t25.5 -23t27.5 -11.5q23 0 28.5 15.5t5.5 28.5h14q0 -34 -14.5 -47t-31.5 -13q-19 0 -33 12t-26 23.5t-27 11.5q-18 0 -26 -14t-8 -37h-14z" />
    <glyph glyph-name="uni1EAC" unicode="&#x1eac;" horiz-adv-x="366" 
d="M24 0l132 620h54l130 -620h-21l-34 160l7 -6h-220l6 6l-33 -160h-21zM78 167l-3 4h214l-4 -4l-89 431l-2 1h-22l-2 -1zM181 -82q-12 0 -14 4.5t-2 11.5q0 8 2 13t14 5t14 -5t2 -13q0 -7 -2 -11.5t-14 -4.5zM83 688l84 85h28l84 -85h-15l-82 72l-82 -72h-17z" />
    <glyph glyph-name="uni1EAD" unicode="&#x1ead;" horiz-adv-x="396" 
d="M133 0q-34 0 -48.5 9t-17.5 36t-3 80v262q0 39 7 56.5t29 22t67 4.5h159v-470h-20v453h-159q-34 0 -47 -8.5t-14.5 -28t-1.5 -54.5v-259q0 -35 3 -53.5t14.5 -25.5t36.5 -7h130l-4 -17h-131zM197 -82q-12 0 -14 4.5t-2 11.5q0 8 2 13t14 5t14 -5t2 -13q0 -7 -2 -11.5
t-14 -4.5zM98 538l84 85h28l84 -85h-15l-82 72l-82 -72h-17z" />
    <glyph glyph-name="uni1EAE" unicode="&#x1eae;" horiz-adv-x="366" 
d="M24 0l132 620h54l130 -620h-21l-34 160l7 -6h-220l6 6l-33 -160h-21zM78 167l-3 4h214l-4 -4l-89 431l-2 1h-22l-2 -1zM181 670q-29 0 -44.5 11.5t-20.5 27.5t-5 30h15q0 -19 12 -37t43 -18q32 0 45 18t14 37h14q0 -29 -16.5 -49t-56.5 -20zM151 759l70 74h24l-78 -74
h-16z" />
    <glyph glyph-name="uni1EAF" unicode="&#x1eaf;" horiz-adv-x="396" 
d="M133 0q-34 0 -48.5 9t-17.5 36t-3 80v262q0 39 7 56.5t29 22t67 4.5h159v-470h-20v453h-159q-34 0 -47 -8.5t-14.5 -28t-1.5 -54.5v-259q0 -35 3 -53.5t14.5 -25.5t36.5 -7h130l-4 -17h-131zM195 534q-36 0 -54.5 14t-24.5 34t-6 37h14q0 -27 15.5 -48.5t55.5 -21.5
q42 0 58.5 21t16.5 49h14q0 -34 -20 -59.5t-69 -25.5zM161 643l84 92h27l-96 -92h-15z" />
    <glyph glyph-name="uni1EB0" unicode="&#x1eb0;" horiz-adv-x="366" 
d="M24 0l132 620h54l130 -620h-21l-34 160l7 -6h-220l6 6l-33 -160h-21zM78 167l-3 4h214l-4 -4l-89 431l-2 1h-22l-2 -1zM180 670q-29 0 -44.5 11.5t-20.5 28t-5 29.5h14q0 -19 13 -37t44 -18q32 0 44.5 18t12.5 37h16q0 -29 -17 -49t-57 -20zM186 759l-79 74h26l67 -74
h-14z" />
    <glyph glyph-name="uni1EB1" unicode="&#x1eb1;" horiz-adv-x="396" 
d="M133 0q-34 0 -48.5 9t-17.5 36t-3 80v262q0 39 7 56.5t29 22t67 4.5h159v-470h-20v453h-159q-34 0 -47 -8.5t-14.5 -28t-1.5 -54.5v-259q0 -35 3 -53.5t14.5 -25.5t36.5 -7h130l-4 -17h-131zM195 534q-36 0 -54.5 14t-24.5 34t-6 37h14q0 -27 15.5 -48.5t55.5 -21.5
q42 0 58.5 21t16.5 49h14q0 -34 -20 -59.5t-69 -25.5zM203 643l-96 92h27l84 -92h-15z" />
    <glyph glyph-name="uni1EB2" unicode="&#x1eb2;" horiz-adv-x="366" 
d="M24 0l132 620h54l130 -620h-21l-34 160l7 -6h-220l6 6l-33 -160h-21zM78 167l-3 4h214l-4 -4l-89 431l-2 1h-22l-2 -1zM181 670q-29 0 -44.5 11.5t-20.5 27.5t-5 30h15q0 -19 12 -37t43 -18q32 0 45 18t14 37h14q0 -29 -16.5 -49t-56.5 -20zM173 759q0 13 11 21t22.5 17
t11.5 25q0 13 -11 21t-23 8q-21 0 -30 -11t-12 -25l-11 4q2 20 15.5 32t38.5 12q24 0 36.5 -11.5t12.5 -28.5q0 -20 -10.5 -29.5t-21.5 -16t-11 -18.5h-18z" />
    <glyph glyph-name="uni1EB3" unicode="&#x1eb3;" horiz-adv-x="396" 
d="M133 0q-34 0 -48.5 9t-17.5 36t-3 80v262q0 39 7 56.5t29 22t67 4.5h159v-470h-20v453h-159q-34 0 -47 -8.5t-14.5 -28t-1.5 -54.5v-259q0 -35 3 -53.5t14.5 -25.5t36.5 -7h130l-4 -17h-131zM195 534q-36 0 -54.5 14t-24.5 34t-6 37h14q0 -27 15.5 -48.5t55.5 -21.5
q42 0 58.5 21t16.5 49h14q0 -34 -20 -59.5t-69 -25.5zM187 643q0 12 8.5 20.5t20 16t20 17.5t8.5 25q0 17 -14.5 27t-31.5 10q-26 0 -37.5 -14t-14.5 -32l-12 4q2 26 19 40.5t47 14.5q29 0 44 -14.5t15 -34.5q0 -19 -8.5 -30t-19 -18t-19 -14t-8.5 -18h-17z" />
    <glyph glyph-name="uni1EB4" unicode="&#x1eb4;" horiz-adv-x="366" 
d="M24 0l132 620h54l130 -620h-21l-34 160l7 -6h-220l6 6l-33 -160h-21zM78 167l-3 4h214l-4 -4l-89 431l-2 1h-22l-2 -1zM181 670q-29 0 -44.5 11.5t-20.5 28t-5 29.5h15q0 -18 12 -36.5t43 -18.5q32 0 45 18t13 37h15q0 -28 -16.5 -48.5t-56.5 -20.5zM108 754q0 29 11 42
t27 13t27 -9t21 -18t22 -9q18 0 22.5 12.5t4.5 22.5h13q0 -29 -12 -40t-26 -11q-15 0 -26.5 9.5t-21 18.5t-21.5 9q-14 0 -20.5 -11t-6.5 -29h-14z" />
    <glyph glyph-name="uni1EB5" unicode="&#x1eb5;" horiz-adv-x="396" 
d="M133 0q-34 0 -48.5 9t-17.5 36t-3 80v262q0 39 7 56.5t29 22t67 4.5h159v-470h-20v453h-159q-34 0 -47 -8.5t-14.5 -28t-1.5 -54.5v-259q0 -35 3 -53.5t14.5 -25.5t36.5 -7h130l-4 -17h-131zM195 534q-36 0 -54.5 14t-24.5 34t-6 37h14q0 -27 15.5 -48.5t55.5 -21.5
q42 0 58.5 21t16.5 49h14q0 -34 -20 -59.5t-69 -25.5zM107 637q0 35 13.5 50.5t32.5 15.5q20 0 33 -11.5t25.5 -23t27.5 -11.5q23 0 28.5 15.5t5.5 28.5h14q0 -34 -14.5 -47t-31.5 -13q-19 0 -33 12t-26 23.5t-27 11.5q-18 0 -26 -14t-8 -37h-14z" />
    <glyph glyph-name="uni1EB6" unicode="&#x1eb6;" horiz-adv-x="366" 
d="M24 0l132 620h54l130 -620h-21l-34 160l7 -6h-220l6 6l-33 -160h-21zM78 167l-3 4h214l-4 -4l-89 431l-2 1h-22l-2 -1zM181 -82q-12 0 -14 4.5t-2 11.5q0 8 2 13t14 5t14 -5t2 -13q0 -7 -2 -11.5t-14 -4.5zM180 684q-36 0 -54.5 14t-24.5 34t-6 37h15q0 -24 15 -47.5
t55 -23.5q42 0 58 23.5t17 47.5h14q0 -36 -20 -60.5t-69 -24.5z" />
    <glyph glyph-name="uni1EB7" unicode="&#x1eb7;" horiz-adv-x="396" 
d="M133 0q-34 0 -48.5 9t-17.5 36t-3 80v262q0 39 7 56.5t29 22t67 4.5h159v-470h-20v453h-159q-34 0 -47 -8.5t-14.5 -28t-1.5 -54.5v-259q0 -35 3 -53.5t14.5 -25.5t36.5 -7h130l-4 -17h-131zM197 -82q-12 0 -14 4.5t-2 11.5q0 8 2 13t14 5t14 -5t2 -13q0 -7 -2 -11.5
t-14 -4.5zM195 534q-36 0 -54.5 14t-24.5 34t-6 37h14q0 -27 15.5 -48.5t55.5 -21.5q42 0 58.5 21t16.5 49h14q0 -34 -20 -59.5t-69 -25.5z" />
    <glyph glyph-name="uni1EB8" unicode="&#x1eb8;" horiz-adv-x="365" 
d="M70 620h260v-17h-240v-241h226l-5 -16h-221v-330h240v-16h-260v620zM184 -82q-12 0 -14 4.5t-2 11.5q0 8 2 13t14 5t14 -5t2 -13q0 -7 -2 -11.5t-14 -4.5z" />
    <glyph glyph-name="uni1EB9" unicode="&#x1eb9;" horiz-adv-x="382" 
d="M182 -4q-51 0 -77.5 16t-35.5 40t-9 46v275q0 23 9.5 46.5t37.5 39.5t84 16q55 0 83 -16t38 -39.5t10 -46.5v-125h-20v122q0 47 -31 68t-80 21q-48 0 -79.5 -20.5t-31.5 -68.5v-269q0 -47 30.5 -67.5t71.5 -20.5q56 0 88 22t32 75v59l20 4v-59q0 -30 -10.5 -57t-40.5 -44
t-89 -17zM66 238v14h256v-14h-256zM190 -82q-12 0 -14 4.5t-2 11.5q0 8 2 13t14 5t14 -5t2 -13q0 -7 -2 -11.5t-14 -4.5z" />
    <glyph glyph-name="uni1EBA" unicode="&#x1eba;" horiz-adv-x="365" 
d="M70 620h260v-17h-240v-241h226l-5 -16h-221v-330h240v-16h-260v620zM175 688q0 12 8.5 20.5t20 16t20 17.5t8.5 25q0 17 -14.5 27t-31.5 10q-26 0 -37.5 -14t-14.5 -32l-12 4q2 26 19 40.5t47 14.5q29 0 44 -14.5t15 -34.5q0 -19 -8.5 -30t-19 -18t-19 -14t-8.5 -18h-17z
" />
    <glyph glyph-name="uni1EBB" unicode="&#x1ebb;" horiz-adv-x="382" 
d="M182 -4q-51 0 -77.5 16t-35.5 40t-9 46v275q0 23 9.5 46.5t37.5 39.5t84 16q55 0 83 -16t38 -39.5t10 -46.5v-125h-20v122q0 47 -31 68t-80 21q-48 0 -79.5 -20.5t-31.5 -68.5v-269q0 -47 30.5 -67.5t71.5 -20.5q56 0 88 22t32 75v59l20 4v-59q0 -30 -10.5 -57t-40.5 -44
t-89 -17zM66 238v14h256v-14h-256zM181 538q0 12 8.5 20.5t20 16t20 17.5t8.5 25q0 17 -14.5 27t-31.5 10q-26 0 -37.5 -14t-14.5 -32l-12 4q2 26 19 40.5t47 14.5q29 0 44 -14.5t15 -34.5q0 -19 -8.5 -30t-19 -18t-19 -14t-8.5 -18h-17z" />
    <glyph glyph-name="uni1EBC" unicode="&#x1ebc;" horiz-adv-x="365" 
d="M70 620h260v-17h-240v-241h226l-5 -16h-221v-330h240v-16h-260v620zM95 682q0 35 13.5 50.5t32.5 15.5q20 0 33 -11.5t25.5 -23t27.5 -11.5q23 0 28.5 15.5t5.5 28.5h14q0 -34 -14.5 -47t-31.5 -13q-19 0 -33 12t-26 23.5t-27 11.5q-18 0 -26 -14t-8 -37h-14z" />
    <glyph glyph-name="uni1EBD" unicode="&#x1ebd;" horiz-adv-x="382" 
d="M182 -4q-51 0 -77.5 16t-35.5 40t-9 46v275q0 23 9.5 46.5t37.5 39.5t84 16q55 0 83 -16t38 -39.5t10 -46.5v-125h-20v122q0 47 -31 68t-80 21q-48 0 -79.5 -20.5t-31.5 -68.5v-269q0 -47 30.5 -67.5t71.5 -20.5q56 0 88 22t32 75v59l20 4v-59q0 -30 -10.5 -57t-40.5 -44
t-89 -17zM66 238v14h256v-14h-256zM101 532q0 35 13.5 50.5t32.5 15.5q20 0 33 -11.5t25.5 -23t27.5 -11.5q23 0 28.5 15.5t5.5 28.5h14q0 -34 -14.5 -47t-31.5 -13q-19 0 -33 12t-26 23.5t-27 11.5q-18 0 -26 -14t-8 -37h-14z" />
    <glyph glyph-name="uni1EBE" unicode="&#x1ebe;" horiz-adv-x="365" 
d="M70 620h260v-17h-240v-241h226l-5 -16h-221v-330h240v-16h-260v620zM103 674l67 68h27l67 -68h-15l-64 56l-64 -56h-18zM258 733l68 74h26l-78 -74h-16z" />
    <glyph glyph-name="uni1EBF" unicode="&#x1ebf;" horiz-adv-x="382" 
d="M182 -4q-51 0 -77.5 16t-35.5 40t-9 46v275q0 23 9.5 46.5t37.5 39.5t84 16q55 0 83 -16t38 -39.5t10 -46.5v-125h-20v122q0 47 -31 68t-80 21q-48 0 -79.5 -20.5t-31.5 -68.5v-269q0 -47 30.5 -67.5t71.5 -20.5q56 0 88 22t32 75v59l20 4v-59q0 -30 -10.5 -57t-40.5 -44
t-89 -17zM66 238v14h256v-14h-256zM92 538l84 85h28l84 -85h-15l-82 72l-82 -72h-17zM280 612l84 92h27l-96 -92h-15z" />
    <glyph glyph-name="uni1EC0" unicode="&#x1ec0;" horiz-adv-x="365" 
d="M70 620h260v-17h-240v-241h226l-5 -16h-221v-330h240v-16h-260v620zM103 674l67 68h27l67 -68h-15l-64 56l-64 -56h-18zM280 733l-78 74h24l69 -74h-15z" />
    <glyph glyph-name="uni1EC1" unicode="&#x1ec1;" horiz-adv-x="382" 
d="M182 -4q-51 0 -77.5 16t-35.5 40t-9 46v275q0 23 9.5 46.5t37.5 39.5t84 16q55 0 83 -16t38 -39.5t10 -46.5v-125h-20v122q0 47 -31 68t-80 21q-48 0 -79.5 -20.5t-31.5 -68.5v-269q0 -47 30.5 -67.5t71.5 -20.5q56 0 88 22t32 75v59l20 4v-59q0 -30 -10.5 -57t-40.5 -44
t-89 -17zM66 238v14h256v-14h-256zM92 538l84 85h28l84 -85h-15l-82 72l-82 -72h-17zM307 612l-96 92h27l84 -92h-15z" />
    <glyph glyph-name="uni1EC2" unicode="&#x1ec2;" horiz-adv-x="365" 
d="M70 620h260v-17h-240v-241h226l-5 -16h-221v-330h240v-16h-260v620zM103 674l67 68h27l67 -68h-15l-64 56l-64 -56h-18zM275 733q0 13 11 21t22 17t11 25q0 13 -11 21t-24 8q-19 0 -28.5 -11t-12.5 -25l-11 4q2 20 16 31.5t38 11.5q23 0 36.5 -11t13.5 -28
q0 -15 -6.5 -24t-15.5 -15t-15.5 -11.5t-6.5 -13.5h-17z" />
    <glyph glyph-name="uni1EC3" unicode="&#x1ec3;" horiz-adv-x="382" 
d="M182 -4q-51 0 -77.5 16t-35.5 40t-9 46v275q0 23 9.5 46.5t37.5 39.5t84 16q55 0 83 -16t38 -39.5t10 -46.5v-125h-20v122q0 47 -31 68t-80 21q-48 0 -79.5 -20.5t-31.5 -68.5v-269q0 -47 30.5 -67.5t71.5 -20.5q56 0 88 22t32 75v59l20 4v-59q0 -30 -10.5 -57t-40.5 -44
t-89 -17zM66 238v14h256v-14h-256zM92 538l84 85h28l84 -85h-15l-82 72l-82 -72h-17zM302 612q0 12 8.5 20.5t20 16t20 17.5t8.5 25q0 17 -14.5 27t-31.5 10q-26 0 -37.5 -14t-14.5 -32l-12 4q2 26 19 40.5t47 14.5q29 0 44 -14.5t15 -34.5q0 -19 -8.5 -30t-19 -18t-19 -14
t-8.5 -18h-17z" />
    <glyph glyph-name="uni1EC4" unicode="&#x1ec4;" horiz-adv-x="365" 
d="M70 620h260v-17h-240v-241h226l-5 -16h-221v-330h240v-16h-260v620zM103 674l67 68h27l67 -68h-15l-64 56l-64 -56h-18zM108 761q0 29 11.5 42.5t27.5 13.5t27 -9.5t21 -19t22 -9.5q17 0 22 13t5 23h13q0 -28 -12 -39.5t-27 -11.5t-26 9.5t-21 18.5t-22 9
q-14 0 -20.5 -10.5t-6.5 -29.5h-14z" />
    <glyph glyph-name="uni1EC5" unicode="&#x1ec5;" horiz-adv-x="382" 
d="M182 -4q-51 0 -77.5 16t-35.5 40t-9 46v275q0 23 9.5 46.5t37.5 39.5t84 16q55 0 83 -16t38 -39.5t10 -46.5v-125h-20v122q0 47 -31 68t-80 21q-48 0 -79.5 -20.5t-31.5 -68.5v-269q0 -47 30.5 -67.5t71.5 -20.5q56 0 88 22t32 75v59l20 4v-59q0 -30 -10.5 -57t-40.5 -44
t-89 -17zM66 238v14h256v-14h-256zM92 538l84 85h28l84 -85h-15l-82 72l-82 -72h-17zM99 647q0 35 13.5 50.5t32.5 15.5q20 0 33 -11.5t25.5 -23t27.5 -11.5q23 0 28.5 15.5t5.5 28.5h14q0 -34 -14.5 -47t-31.5 -13q-19 0 -33 12t-26 23.5t-27 11.5q-18 0 -26 -14t-8 -37
h-14z" />
    <glyph glyph-name="uni1EC6" unicode="&#x1ec6;" horiz-adv-x="365" 
d="M70 620h260v-17h-240v-241h226l-5 -16h-221v-330h240v-16h-260v620zM184 -82q-12 0 -14 4.5t-2 11.5q0 8 2 13t14 5t14 -5t2 -13q0 -7 -2 -11.5t-14 -4.5zM86 688l84 85h28l84 -85h-15l-82 72l-82 -72h-17z" />
    <glyph glyph-name="uni1EC7" unicode="&#x1ec7;" horiz-adv-x="382" 
d="M182 -4q-51 0 -77.5 16t-35.5 40t-9 46v275q0 23 9.5 46.5t37.5 39.5t84 16q55 0 83 -16t38 -39.5t10 -46.5v-125h-20v122q0 47 -31 68t-80 21q-48 0 -79.5 -20.5t-31.5 -68.5v-269q0 -47 30.5 -67.5t71.5 -20.5q56 0 88 22t32 75v59l20 4v-59q0 -30 -10.5 -57t-40.5 -44
t-89 -17zM66 238v14h256v-14h-256zM190 -82q-12 0 -14 4.5t-2 11.5q0 8 2 13t14 5t14 -5t2 -13q0 -7 -2 -11.5t-14 -4.5zM92 538l84 85h28l84 -85h-15l-82 72l-82 -72h-17z" />
    <glyph glyph-name="uni1EC8" unicode="&#x1ec8;" horiz-adv-x="160" 
d="M70 620h20v-620h-20v620zM70 688q0 12 8.5 20.5t20 16t20 17.5t8.5 25q0 17 -14.5 27t-31.5 10q-26 0 -37.5 -14t-14.5 -32l-12 4q2 26 19 40.5t47 14.5q29 0 44 -14.5t15 -34.5q0 -19 -8.5 -30t-19 -18t-19 -14t-8.5 -18h-17z" />
    <glyph glyph-name="uni1EC9" unicode="&#x1ec9;" horiz-adv-x="160" 
d="M70 470h20v-470h-20v470zM70 538q0 12 8.5 20.5t20 16t20 17.5t8.5 25q0 17 -14.5 27t-31.5 10q-26 0 -37.5 -14t-14.5 -32l-12 4q2 26 19 40.5t47 14.5q29 0 44 -14.5t15 -34.5q0 -19 -8.5 -30t-19 -18t-19 -14t-8.5 -18h-17z" />
    <glyph glyph-name="uni1ECA" unicode="&#x1eca;" horiz-adv-x="160" 
d="M70 620h20v-620h-20v620zM79 -82q-12 0 -14 4.5t-2 11.5q0 8 2 13t14 5t14 -5t2 -13q0 -7 -2 -11.5t-14 -4.5z" />
    <glyph glyph-name="uni1ECB" unicode="&#x1ecb;" horiz-adv-x="160" 
d="M70 0v470h20v-470h-20zM79 546q-10 0 -12.5 2.5t-2.5 11.5t2.5 12.5t12.5 3.5t13 -3.5t3 -12.5t-3 -11.5t-13 -2.5zM79 -82q-12 0 -14 4.5t-2 11.5q0 8 2 13t14 5t14 -5t2 -13q0 -7 -2 -11.5t-14 -4.5z" />
    <glyph glyph-name="uni1ECC" unicode="&#x1ecc;" horiz-adv-x="378" 
d="M188 -2q-61 0 -95.5 22.5t-34.5 65.5v457q0 36 30.5 61t99.5 24q70 -1 101 -25t31 -61v-455q0 -43 -34 -66t-98 -23zM188 15q58 0 85 22t27 53v449q0 26 -24 49t-90 23q-61 0 -84.5 -22.5t-23.5 -48.5v-451q0 -31 27 -52.5t83 -21.5zM188 -82q-12 0 -14 4.5t-2 11.5
q0 8 2 13t14 5t14 -5t2 -13q0 -7 -2 -11.5t-14 -4.5z" />
    <glyph glyph-name="uni1ECD" unicode="&#x1ecd;" horiz-adv-x="382" 
d="M182 -4q-51 0 -77.5 16t-35.5 40t-9 46v275q0 23 9.5 46.5t37.5 39.5t84 16q55 0 83 -16t38 -39.5t10 -46.5v-259q0 -30 -10.5 -57t-40.5 -44t-89 -17zM182 13q56 0 88 22t32 75v260q0 47 -31 68t-80 21q-48 0 -79.5 -20.5t-31.5 -68.5v-269q0 -47 30.5 -67.5t71.5 -20.5
zM190 -82q-12 0 -14 4.5t-2 11.5q0 8 2 13t14 5t14 -5t2 -13q0 -7 -2 -11.5t-14 -4.5z" />
    <glyph glyph-name="uni1ECE" unicode="&#x1ece;" horiz-adv-x="378" 
d="M188 -2q-61 0 -95.5 22.5t-34.5 65.5v457q0 36 30.5 61t99.5 24q70 -1 101 -25t31 -61v-455q0 -43 -34 -66t-98 -23zM188 15q58 0 85 22t27 53v449q0 26 -24 49t-90 23q-61 0 -84.5 -22.5t-23.5 -48.5v-451q0 -31 27 -52.5t83 -21.5zM179 688q0 12 8.5 20.5t20 16
t20 17.5t8.5 25q0 17 -14.5 27t-31.5 10q-26 0 -37.5 -14t-14.5 -32l-12 4q2 26 19 40.5t47 14.5q29 0 44 -14.5t15 -34.5q0 -19 -8.5 -30t-19 -18t-19 -14t-8.5 -18h-17z" />
    <glyph glyph-name="uni1ECF" unicode="&#x1ecf;" horiz-adv-x="382" 
d="M182 -4q-51 0 -77.5 16t-35.5 40t-9 46v275q0 23 9.5 46.5t37.5 39.5t84 16q55 0 83 -16t38 -39.5t10 -46.5v-259q0 -30 -10.5 -57t-40.5 -44t-89 -17zM182 13q56 0 88 22t32 75v260q0 47 -31 68t-80 21q-48 0 -79.5 -20.5t-31.5 -68.5v-269q0 -47 30.5 -67.5t71.5 -20.5
zM181 538q0 12 8.5 20.5t20 16t20 17.5t8.5 25q0 17 -14.5 27t-31.5 10q-26 0 -37.5 -14t-14.5 -32l-12 4q2 26 19 40.5t47 14.5q29 0 44 -14.5t15 -34.5q0 -19 -8.5 -30t-19 -18t-19 -14t-8.5 -18h-17z" />
    <glyph glyph-name="uni1ED0" unicode="&#x1ed0;" horiz-adv-x="378" 
d="M188 -2q-61 0 -95.5 22.5t-34.5 65.5v457q0 36 30.5 61t99.5 24q70 -1 101 -25t31 -61v-455q0 -43 -34 -66t-98 -23zM188 15q58 0 85 22t27 53v449q0 26 -24 49t-90 23q-61 0 -84.5 -22.5t-23.5 -48.5v-451q0 -31 27 -52.5t83 -21.5zM107 674l67 68h27l67 -68h-15l-64 56
l-64 -56h-18zM262 733l68 74h26l-78 -74h-16z" />
    <glyph glyph-name="uni1ED1" unicode="&#x1ed1;" horiz-adv-x="382" 
d="M182 -4q-51 0 -77.5 16t-35.5 40t-9 46v275q0 23 9.5 46.5t37.5 39.5t84 16q55 0 83 -16t38 -39.5t10 -46.5v-259q0 -30 -10.5 -57t-40.5 -44t-89 -17zM182 13q56 0 88 22t32 75v260q0 47 -31 68t-80 21q-48 0 -79.5 -20.5t-31.5 -68.5v-269q0 -47 30.5 -67.5t71.5 -20.5
zM92 538l84 85h28l84 -85h-15l-82 72l-82 -72h-17zM280 612l84 92h27l-96 -92h-15z" />
    <glyph glyph-name="uni1ED2" unicode="&#x1ed2;" horiz-adv-x="378" 
d="M188 -2q-61 0 -95.5 22.5t-34.5 65.5v457q0 36 30.5 61t99.5 24q70 -1 101 -25t31 -61v-455q0 -43 -34 -66t-98 -23zM188 15q58 0 85 22t27 53v449q0 26 -24 49t-90 23q-61 0 -84.5 -22.5t-23.5 -48.5v-451q0 -31 27 -52.5t83 -21.5zM107 674l67 68h27l67 -68h-15l-64 56
l-64 -56h-18zM284 733l-78 74h24l69 -74h-15z" />
    <glyph glyph-name="uni1ED3" unicode="&#x1ed3;" horiz-adv-x="382" 
d="M182 -4q-51 0 -77.5 16t-35.5 40t-9 46v275q0 23 9.5 46.5t37.5 39.5t84 16q55 0 83 -16t38 -39.5t10 -46.5v-259q0 -30 -10.5 -57t-40.5 -44t-89 -17zM182 13q56 0 88 22t32 75v260q0 47 -31 68t-80 21q-48 0 -79.5 -20.5t-31.5 -68.5v-269q0 -47 30.5 -67.5t71.5 -20.5
zM92 538l84 85h28l84 -85h-15l-82 72l-82 -72h-17zM307 612l-96 92h27l84 -92h-15z" />
    <glyph glyph-name="uni1ED4" unicode="&#x1ed4;" horiz-adv-x="378" 
d="M188 -2q-61 0 -95.5 22.5t-34.5 65.5v457q0 36 30.5 61t99.5 24q70 -1 101 -25t31 -61v-455q0 -43 -34 -66t-98 -23zM188 15q58 0 85 22t27 53v449q0 26 -24 49t-90 23q-61 0 -84.5 -22.5t-23.5 -48.5v-451q0 -31 27 -52.5t83 -21.5zM107 674l67 68h27l67 -68h-15l-64 56
l-64 -56h-18zM279 733q0 13 11 21t22 17t11 25q0 13 -11 21t-24 8q-19 0 -28.5 -11t-12.5 -25l-11 4q2 20 16 31.5t38 11.5q23 0 36.5 -11t13.5 -28q0 -15 -6.5 -24t-15.5 -15t-15.5 -11.5t-6.5 -13.5h-17z" />
    <glyph glyph-name="uni1ED5" unicode="&#x1ed5;" horiz-adv-x="382" 
d="M182 -4q-51 0 -77.5 16t-35.5 40t-9 46v275q0 23 9.5 46.5t37.5 39.5t84 16q55 0 83 -16t38 -39.5t10 -46.5v-259q0 -30 -10.5 -57t-40.5 -44t-89 -17zM182 13q56 0 88 22t32 75v260q0 47 -31 68t-80 21q-48 0 -79.5 -20.5t-31.5 -68.5v-269q0 -47 30.5 -67.5t71.5 -20.5
zM92 538l84 85h28l84 -85h-15l-82 72l-82 -72h-17zM302 612q0 12 8.5 20.5t20 16t20 17.5t8.5 25q0 17 -14.5 27t-31.5 10q-26 0 -37.5 -14t-14.5 -32l-12 4q2 26 19 40.5t47 14.5q29 0 44 -14.5t15 -34.5q0 -19 -8.5 -30t-19 -18t-19 -14t-8.5 -18h-17z" />
    <glyph glyph-name="uni1ED6" unicode="&#x1ed6;" horiz-adv-x="378" 
d="M188 -2q-61 0 -95.5 22.5t-34.5 65.5v457q0 36 30.5 61t99.5 24q70 -1 101 -25t31 -61v-455q0 -43 -34 -66t-98 -23zM188 15q58 0 85 22t27 53v449q0 26 -24 49t-90 23q-61 0 -84.5 -22.5t-23.5 -48.5v-451q0 -31 27 -52.5t83 -21.5zM107 674l67 68h27l67 -68h-15l-64 56
l-64 -56h-18zM112 761q0 29 11.5 42.5t27.5 13.5t27 -9.5t21 -19t22 -9.5q17 0 22 13t5 23h13q0 -28 -12 -39.5t-27 -11.5t-26 9.5t-21 18.5t-22 9q-14 0 -20.5 -10.5t-6.5 -29.5h-14z" />
    <glyph glyph-name="uni1ED7" unicode="&#x1ed7;" horiz-adv-x="382" 
d="M182 -4q-51 0 -77.5 16t-35.5 40t-9 46v275q0 23 9.5 46.5t37.5 39.5t84 16q55 0 83 -16t38 -39.5t10 -46.5v-259q0 -30 -10.5 -57t-40.5 -44t-89 -17zM182 13q56 0 88 22t32 75v260q0 47 -31 68t-80 21q-48 0 -79.5 -20.5t-31.5 -68.5v-269q0 -47 30.5 -67.5t71.5 -20.5
zM92 538l84 85h28l84 -85h-15l-82 72l-82 -72h-17zM99 647q0 35 13.5 50.5t32.5 15.5q20 0 33 -11.5t25.5 -23t27.5 -11.5q23 0 28.5 15.5t5.5 28.5h14q0 -34 -14.5 -47t-31.5 -13q-19 0 -33 12t-26 23.5t-27 11.5q-18 0 -26 -14t-8 -37h-14z" />
    <glyph glyph-name="uni1ED8" unicode="&#x1ed8;" horiz-adv-x="378" 
d="M188 -2q-61 0 -95.5 22.5t-34.5 65.5v457q0 36 30.5 61t99.5 24q70 -1 101 -25t31 -61v-455q0 -43 -34 -66t-98 -23zM188 15q58 0 85 22t27 53v449q0 26 -24 49t-90 23q-61 0 -84.5 -22.5t-23.5 -48.5v-451q0 -31 27 -52.5t83 -21.5zM188 -82q-12 0 -14 4.5t-2 11.5
q0 8 2 13t14 5t14 -5t2 -13q0 -7 -2 -11.5t-14 -4.5zM90 688l84 85h28l84 -85h-15l-82 72l-82 -72h-17z" />
    <glyph glyph-name="uni1ED9" unicode="&#x1ed9;" horiz-adv-x="382" 
d="M182 -4q-51 0 -77.5 16t-35.5 40t-9 46v275q0 23 9.5 46.5t37.5 39.5t84 16q55 0 83 -16t38 -39.5t10 -46.5v-259q0 -30 -10.5 -57t-40.5 -44t-89 -17zM182 13q56 0 88 22t32 75v260q0 47 -31 68t-80 21q-48 0 -79.5 -20.5t-31.5 -68.5v-269q0 -47 30.5 -67.5t71.5 -20.5
zM190 -82q-12 0 -14 4.5t-2 11.5q0 8 2 13t14 5t14 -5t2 -13q0 -7 -2 -11.5t-14 -4.5zM92 538l84 85h28l84 -85h-15l-82 72l-82 -72h-17z" />
    <glyph glyph-name="uni1EDA" unicode="&#x1eda;" horiz-adv-x="378" 
d="M188 -2q-61 0 -95.5 22.5t-34.5 65.5v457q0 36 30.5 61t99.5 24q70 -1 101 -25t31 -61v-455q0 -43 -34 -66t-98 -23zM188 15q58 0 85 22t27 53v449q0 26 -24 49t-90 23q-61 0 -84.5 -22.5t-23.5 -48.5v-451q0 -31 27 -52.5t83 -21.5zM253 608l-2 12q38 0 50.5 12t11.5 38
h15q0 -37 -17 -49.5t-58 -12.5zM153 688l94 82h27l-106 -82h-15z" />
    <glyph glyph-name="uni1EDB" unicode="&#x1edb;" horiz-adv-x="382" 
d="M182 -4q-51 0 -77.5 16t-35.5 40t-9 46v275q0 23 9.5 46.5t37.5 39.5t84 16q55 0 83 -16t38 -39.5t10 -46.5v-259q0 -30 -10.5 -57t-40.5 -44t-89 -17zM182 13q56 0 88 22t32 75v260q0 47 -31 68t-80 21q-48 0 -79.5 -20.5t-31.5 -68.5v-269q0 -47 30.5 -67.5t71.5 -20.5
zM243 458l-2 12q38 0 50.5 12t11.5 38h15q0 -37 -17 -49.5t-58 -12.5zM155 538l84 92h27l-96 -92h-15z" />
    <glyph glyph-name="uni1EDC" unicode="&#x1edc;" horiz-adv-x="378" 
d="M188 -2q-61 0 -95.5 22.5t-34.5 65.5v457q0 36 30.5 61t99.5 24q70 -1 101 -25t31 -61v-455q0 -43 -34 -66t-98 -23zM188 15q58 0 85 22t27 53v449q0 26 -24 49t-90 23q-61 0 -84.5 -22.5t-23.5 -48.5v-451q0 -31 27 -52.5t83 -21.5zM253 608l-2 12q38 0 50.5 12t11.5 38
h15q0 -37 -17 -49.5t-58 -12.5zM194 688l-106 82h27l94 -82h-15z" />
    <glyph glyph-name="uni1EDD" unicode="&#x1edd;" horiz-adv-x="382" 
d="M182 -4q-51 0 -77.5 16t-35.5 40t-9 46v275q0 23 9.5 46.5t37.5 39.5t84 16q55 0 83 -16t38 -39.5t10 -46.5v-259q0 -30 -10.5 -57t-40.5 -44t-89 -17zM182 13q56 0 88 22t32 75v260q0 47 -31 68t-80 21q-48 0 -79.5 -20.5t-31.5 -68.5v-269q0 -47 30.5 -67.5t71.5 -20.5
zM243 458l-2 12q38 0 50.5 12t11.5 38h15q0 -37 -17 -49.5t-58 -12.5zM196 538l-96 92h27l84 -92h-15z" />
    <glyph glyph-name="uni1EDE" unicode="&#x1ede;" horiz-adv-x="378" 
d="M188 -2q-61 0 -95.5 22.5t-34.5 65.5v457q0 36 30.5 61t99.5 24q70 -1 101 -25t31 -61v-455q0 -43 -34 -66t-98 -23zM188 15q58 0 85 22t27 53v449q0 26 -24 49t-90 23q-61 0 -84.5 -22.5t-23.5 -48.5v-451q0 -31 27 -52.5t83 -21.5zM253 608l-2 12q38 0 50.5 12t11.5 38
h15q0 -37 -17 -49.5t-58 -12.5zM179 688q0 12 8.5 20.5t20 16t20 17.5t8.5 25q0 17 -14.5 27t-31.5 10q-26 0 -37.5 -14t-14.5 -32l-12 4q2 26 19 40.5t47 14.5q29 0 44 -14.5t15 -34.5q0 -19 -8.5 -30t-19 -18t-19 -14t-8.5 -18h-17z" />
    <glyph glyph-name="uni1EDF" unicode="&#x1edf;" horiz-adv-x="382" 
d="M182 -4q-51 0 -77.5 16t-35.5 40t-9 46v275q0 23 9.5 46.5t37.5 39.5t84 16q55 0 83 -16t38 -39.5t10 -46.5v-259q0 -30 -10.5 -57t-40.5 -44t-89 -17zM182 13q56 0 88 22t32 75v260q0 47 -31 68t-80 21q-48 0 -79.5 -20.5t-31.5 -68.5v-269q0 -47 30.5 -67.5t71.5 -20.5
zM243 458l-2 12q38 0 50.5 12t11.5 38h15q0 -37 -17 -49.5t-58 -12.5zM181 538q0 12 8.5 20.5t20 16t20 17.5t8.5 25q0 17 -14.5 27t-31.5 10q-26 0 -37.5 -14t-14.5 -32l-12 4q2 26 19 40.5t47 14.5q29 0 44 -14.5t15 -34.5q0 -19 -8.5 -30t-19 -18t-19 -14t-8.5 -18h-17z
" />
    <glyph glyph-name="uni1EE0" unicode="&#x1ee0;" horiz-adv-x="378" 
d="M188 -2q-61 0 -95.5 22.5t-34.5 65.5v457q0 36 30.5 61t99.5 24q70 -1 101 -25t31 -61v-455q0 -43 -34 -66t-98 -23zM188 15q58 0 85 22t27 53v449q0 26 -24 49t-90 23q-61 0 -84.5 -22.5t-23.5 -48.5v-451q0 -31 27 -52.5t83 -21.5zM253 608l-2 12q38 0 50.5 12t11.5 38
h15q0 -37 -17 -49.5t-58 -12.5zM99 682q0 35 13.5 50.5t32.5 15.5q20 0 33 -11.5t25.5 -23t27.5 -11.5q23 0 28.5 15.5t5.5 28.5h14q0 -34 -14.5 -47t-31.5 -13q-19 0 -33 12t-26 23.5t-27 11.5q-18 0 -26 -14t-8 -37h-14z" />
    <glyph glyph-name="uni1EE1" unicode="&#x1ee1;" horiz-adv-x="382" 
d="M182 -4q-51 0 -77.5 16t-35.5 40t-9 46v275q0 23 9.5 46.5t37.5 39.5t84 16q55 0 83 -16t38 -39.5t10 -46.5v-259q0 -30 -10.5 -57t-40.5 -44t-89 -17zM182 13q56 0 88 22t32 75v260q0 47 -31 68t-80 21q-48 0 -79.5 -20.5t-31.5 -68.5v-269q0 -47 30.5 -67.5t71.5 -20.5
zM243 458l-2 12q38 0 50.5 12t11.5 38h15q0 -37 -17 -49.5t-58 -12.5zM101 532q0 35 13.5 50.5t32.5 15.5q20 0 33 -11.5t25.5 -23t27.5 -11.5q23 0 28.5 15.5t5.5 28.5h14q0 -34 -14.5 -47t-31.5 -13q-19 0 -33 12t-26 23.5t-27 11.5q-18 0 -26 -14t-8 -37h-14z" />
    <glyph glyph-name="uni1EE2" unicode="&#x1ee2;" horiz-adv-x="378" 
d="M188 -2q-61 0 -95.5 22.5t-34.5 65.5v457q0 36 30.5 61t99.5 24q70 -1 101 -25t31 -61v-455q0 -43 -34 -66t-98 -23zM188 15q58 0 85 22t27 53v449q0 26 -24 49t-90 23q-61 0 -84.5 -22.5t-23.5 -48.5v-451q0 -31 27 -52.5t83 -21.5zM253 608l-2 12q38 0 50.5 12t11.5 38
h15q0 -37 -17 -49.5t-58 -12.5zM188 -82q-12 0 -14 4.5t-2 11.5q0 8 2 13t14 5t14 -5t2 -13q0 -7 -2 -11.5t-14 -4.5z" />
    <glyph glyph-name="uni1EE3" unicode="&#x1ee3;" horiz-adv-x="382" 
d="M182 -4q-51 0 -77.5 16t-35.5 40t-9 46v275q0 23 9.5 46.5t37.5 39.5t84 16q55 0 83 -16t38 -39.5t10 -46.5v-259q0 -30 -10.5 -57t-40.5 -44t-89 -17zM182 13q56 0 88 22t32 75v260q0 47 -31 68t-80 21q-48 0 -79.5 -20.5t-31.5 -68.5v-269q0 -47 30.5 -67.5t71.5 -20.5
zM243 458l-2 12q38 0 50.5 12t11.5 38h15q0 -37 -17 -49.5t-58 -12.5zM190 -82q-12 0 -14 4.5t-2 11.5q0 8 2 13t14 5t14 -5t2 -13q0 -7 -2 -11.5t-14 -4.5z" />
    <glyph glyph-name="uni1EE4" unicode="&#x1ee4;" horiz-adv-x="392" 
d="M196 -5q-35 0 -64.5 9t-47.5 29.5t-18 55.5v531h20v-523q0 -22 9 -41.5t32.5 -31.5t68.5 -12q48 0 71.5 12t31 31.5t7.5 41.5v523h20v-531q0 -35 -16.5 -55.5t-46 -29.5t-67.5 -9zM195 -82q-12 0 -14 4.5t-2 11.5q0 8 2 13t14 5t14 -5t2 -13q0 -7 -2 -11.5t-14 -4.5z" />
    <glyph glyph-name="uni1EE5" unicode="&#x1ee5;" horiz-adv-x="397" 
d="M191 0q-54 0 -81 15.5t-36 38t-9 44.5v372h20v-365q0 -49 31 -68.5t80 -19.5h111v453h20v-470h-136zM197 -82q-12 0 -14 4.5t-2 11.5q0 8 2 13t14 5t14 -5t2 -13q0 -7 -2 -11.5t-14 -4.5z" />
    <glyph glyph-name="uni1EE6" unicode="&#x1ee6;" horiz-adv-x="392" 
d="M196 -5q-35 0 -64.5 9t-47.5 29.5t-18 55.5v531h20v-523q0 -22 9 -41.5t32.5 -31.5t68.5 -12q48 0 71.5 12t31 31.5t7.5 41.5v523h20v-531q0 -35 -16.5 -55.5t-46 -29.5t-67.5 -9zM186 688q0 12 8.5 20.5t20 16t20 17.5t8.5 25q0 17 -14.5 27t-31.5 10q-26 0 -37.5 -14
t-14.5 -32l-12 4q2 26 19 40.5t47 14.5q29 0 44 -14.5t15 -34.5q0 -19 -8.5 -30t-19 -18t-19 -14t-8.5 -18h-17z" />
    <glyph glyph-name="uni1EE7" unicode="&#x1ee7;" horiz-adv-x="397" 
d="M191 0q-54 0 -81 15.5t-36 38t-9 44.5v372h20v-365q0 -49 31 -68.5t80 -19.5h111v453h20v-470h-136zM188 538q0 12 8.5 20.5t20 16t20 17.5t8.5 25q0 17 -14.5 27t-31.5 10q-26 0 -37.5 -14t-14.5 -32l-12 4q2 26 19 40.5t47 14.5q29 0 44 -14.5t15 -34.5q0 -19 -8.5 -30
t-19 -18t-19 -14t-8.5 -18h-17z" />
    <glyph glyph-name="uni1EE8" unicode="&#x1ee8;" horiz-adv-x="392" 
d="M196 -5q-35 0 -64.5 9t-47.5 29.5t-18 55.5v531h20v-523q0 -22 9 -41.5t32.5 -31.5t68.5 -12q48 0 71.5 12t31 31.5t7.5 41.5v523h20v-531q0 -35 -16.5 -55.5t-46 -29.5t-67.5 -9zM314 608l-2 12q38 0 50.5 12t11.5 38h15q0 -37 -17 -49.5t-58 -12.5zM160 688l94 82h27
l-106 -82h-15z" />
    <glyph glyph-name="uni1EE9" unicode="&#x1ee9;" horiz-adv-x="397" 
d="M191 0q-54 0 -81 15.5t-36 38t-9 44.5v372h20v-365q0 -49 31 -68.5t80 -19.5h111v453h20v-470h-136zM314 458l-2 12q38 0 50.5 12t11.5 38h15q0 -37 -17 -49.5t-58 -12.5zM162 538l84 92h27l-96 -92h-15z" />
    <glyph glyph-name="uni1EEA" unicode="&#x1eea;" horiz-adv-x="392" 
d="M196 -5q-35 0 -64.5 9t-47.5 29.5t-18 55.5v531h20v-523q0 -22 9 -41.5t32.5 -31.5t68.5 -12q48 0 71.5 12t31 31.5t7.5 41.5v523h20v-531q0 -35 -16.5 -55.5t-46 -29.5t-67.5 -9zM314 608l-2 12q38 0 50.5 12t11.5 38h15q0 -37 -17 -49.5t-58 -12.5zM201 688l-106 82h27
l94 -82h-15z" />
    <glyph glyph-name="uni1EEB" unicode="&#x1eeb;" horiz-adv-x="397" 
d="M191 0q-54 0 -81 15.5t-36 38t-9 44.5v372h20v-365q0 -49 31 -68.5t80 -19.5h111v453h20v-470h-136zM314 458l-2 12q38 0 50.5 12t11.5 38h15q0 -37 -17 -49.5t-58 -12.5zM203 538l-96 92h27l84 -92h-15z" />
    <glyph glyph-name="uni1EEC" unicode="&#x1eec;" horiz-adv-x="392" 
d="M196 -5q-35 0 -64.5 9t-47.5 29.5t-18 55.5v531h20v-523q0 -22 9 -41.5t32.5 -31.5t68.5 -12q48 0 71.5 12t31 31.5t7.5 41.5v523h20v-531q0 -35 -16.5 -55.5t-46 -29.5t-67.5 -9zM314 608l-2 12q38 0 50.5 12t11.5 38h15q0 -37 -17 -49.5t-58 -12.5zM186 688
q0 12 8.5 20.5t20 16t20 17.5t8.5 25q0 17 -14.5 27t-31.5 10q-26 0 -37.5 -14t-14.5 -32l-12 4q2 26 19 40.5t47 14.5q29 0 44 -14.5t15 -34.5q0 -19 -8.5 -30t-19 -18t-19 -14t-8.5 -18h-17z" />
    <glyph glyph-name="uni1EED" unicode="&#x1eed;" horiz-adv-x="397" 
d="M191 0q-54 0 -81 15.5t-36 38t-9 44.5v372h20v-365q0 -49 31 -68.5t80 -19.5h111v453h20v-470h-136zM314 458l-2 12q38 0 50.5 12t11.5 38h15q0 -37 -17 -49.5t-58 -12.5zM188 538q0 12 8.5 20.5t20 16t20 17.5t8.5 25q0 17 -14.5 27t-31.5 10q-26 0 -37.5 -14t-14.5 -32
l-12 4q2 26 19 40.5t47 14.5q29 0 44 -14.5t15 -34.5q0 -19 -8.5 -30t-19 -18t-19 -14t-8.5 -18h-17z" />
    <glyph glyph-name="uni1EEE" unicode="&#x1eee;" horiz-adv-x="392" 
d="M196 -5q-35 0 -64.5 9t-47.5 29.5t-18 55.5v531h20v-523q0 -22 9 -41.5t32.5 -31.5t68.5 -12q48 0 71.5 12t31 31.5t7.5 41.5v523h20v-531q0 -35 -16.5 -55.5t-46 -29.5t-67.5 -9zM314 608l-2 12q38 0 50.5 12t11.5 38h15q0 -37 -17 -49.5t-58 -12.5zM106 682
q0 35 13.5 50.5t32.5 15.5q20 0 33 -11.5t25.5 -23t27.5 -11.5q23 0 28.5 15.5t5.5 28.5h14q0 -34 -14.5 -47t-31.5 -13q-19 0 -33 12t-26 23.5t-27 11.5q-18 0 -26 -14t-8 -37h-14z" />
    <glyph glyph-name="uni1EEF" unicode="&#x1eef;" horiz-adv-x="397" 
d="M191 0q-54 0 -81 15.5t-36 38t-9 44.5v372h20v-365q0 -49 31 -68.5t80 -19.5h111v453h20v-470h-136zM314 458l-2 12q38 0 50.5 12t11.5 38h15q0 -37 -17 -49.5t-58 -12.5zM108 532q0 35 13.5 50.5t32.5 15.5q20 0 33 -11.5t25.5 -23t27.5 -11.5q23 0 28.5 15.5t5.5 28.5
h14q0 -34 -14.5 -47t-31.5 -13q-19 0 -33 12t-26 23.5t-27 11.5q-18 0 -26 -14t-8 -37h-14z" />
    <glyph glyph-name="uni1EF0" unicode="&#x1ef0;" horiz-adv-x="392" 
d="M196 -5q-35 0 -64.5 9t-47.5 29.5t-18 55.5v531h20v-523q0 -22 9 -41.5t32.5 -31.5t68.5 -12q48 0 71.5 12t31 31.5t7.5 41.5v523h20v-531q0 -35 -16.5 -55.5t-46 -29.5t-67.5 -9zM314 608l-2 12q38 0 50.5 12t11.5 38h15q0 -37 -17 -49.5t-58 -12.5zM195 -82
q-12 0 -14 4.5t-2 11.5q0 8 2 13t14 5t14 -5t2 -13q0 -7 -2 -11.5t-14 -4.5z" />
    <glyph glyph-name="uni1EF1" unicode="&#x1ef1;" horiz-adv-x="397" 
d="M191 0q-54 0 -81 15.5t-36 38t-9 44.5v372h20v-365q0 -49 31 -68.5t80 -19.5h111v453h20v-470h-136zM314 458l-2 12q38 0 50.5 12t11.5 38h15q0 -37 -17 -49.5t-58 -12.5zM197 -82q-12 0 -14 4.5t-2 11.5q0 8 2 13t14 5t14 -5t2 -13q0 -7 -2 -11.5t-14 -4.5z" />
    <glyph glyph-name="Ygrave" unicode="&#x1ef2;" horiz-adv-x="327" 
d="M153 0v274l-137 346h19l126 -314l2 -10h1l2 10l125 314h20l-138 -346v-274h-20zM168 688l-106 82h27l94 -82h-15z" />
    <glyph glyph-name="ygrave" unicode="&#x1ef3;" horiz-adv-x="305" 
d="M-4 -170l-1 15h32q39 0 62.5 17t35.5 68l19 73l-124 467h20l114 -430l1 -4h-4l1 4l114 430h21l-143 -543q-14 -53 -38 -75t-80 -22h-30zM160 538l-96 92h27l84 -92h-15z" />
    <glyph glyph-name="uni1EF4" unicode="&#x1ef4;" horiz-adv-x="327" 
d="M153 0v274l-137 346h19l126 -314l2 -10h1l2 10l125 314h20l-138 -346v-274h-20zM162 -82q-12 0 -14 4.5t-2 11.5q0 8 2 13t14 5t14 -5t2 -13q0 -7 -2 -11.5t-14 -4.5z" />
    <glyph glyph-name="uni1EF5" unicode="&#x1ef5;" horiz-adv-x="305" 
d="M-4 -170l-1 15h32q39 0 62.5 17t35.5 68l19 73l-124 467h20l114 -430l1 -4h-4l1 4l114 430h21l-143 -543q-14 -53 -38 -75t-80 -22h-30zM230 -82q-12 0 -14 4.5t-2 11.5q0 8 2 13t14 5t14 -5t2 -13q0 -7 -2 -11.5t-14 -4.5z" />
    <glyph glyph-name="uni1EF6" unicode="&#x1ef6;" horiz-adv-x="327" 
d="M153 0v274l-137 346h19l126 -314l2 -10h1l2 10l125 314h20l-138 -346v-274h-20zM153 688q0 12 8.5 20.5t20 16t20 17.5t8.5 25q0 17 -14.5 27t-31.5 10q-26 0 -37.5 -14t-14.5 -32l-12 4q2 26 19 40.5t47 14.5q29 0 44 -14.5t15 -34.5q0 -19 -8.5 -30t-19 -18t-19 -14
t-8.5 -18h-17z" />
    <glyph glyph-name="uni1EF7" unicode="&#x1ef7;" horiz-adv-x="305" 
d="M-4 -170l-1 15h32q39 0 62.5 17t35.5 68l19 73l-124 467h20l114 -430l1 -4h-4l1 4l114 430h21l-143 -543q-14 -53 -38 -75t-80 -22h-30zM145 538q0 12 8.5 20.5t20 16t20 17.5t8.5 25q0 17 -14.5 27t-31.5 10q-26 0 -37.5 -14t-14.5 -32l-12 4q2 26 19 40.5t47 14.5
q29 0 44 -14.5t15 -34.5q0 -19 -8.5 -30t-19 -18t-19 -14t-8.5 -18h-17z" />
    <glyph glyph-name="uni1EF8" unicode="&#x1ef8;" horiz-adv-x="327" 
d="M153 0v274l-137 346h19l126 -314l2 -10h1l2 10l125 314h20l-138 -346v-274h-20zM73 682q0 35 13.5 50.5t32.5 15.5q20 0 33 -11.5t25.5 -23t27.5 -11.5q23 0 28.5 15.5t5.5 28.5h14q0 -34 -14.5 -47t-31.5 -13q-19 0 -33 12t-26 23.5t-27 11.5q-18 0 -26 -14t-8 -37h-14z
" />
    <glyph glyph-name="uni1EF9" unicode="&#x1ef9;" horiz-adv-x="305" 
d="M-4 -170l-1 15h32q39 0 62.5 17t35.5 68l19 73l-124 467h20l114 -430l1 -4h-4l1 4l114 430h21l-143 -543q-14 -53 -38 -75t-80 -22h-30zM65 532q0 35 13.5 50.5t32.5 15.5q20 0 33 -11.5t25.5 -23t27.5 -11.5q23 0 28.5 15.5t5.5 28.5h14q0 -34 -14.5 -47t-31.5 -13
q-19 0 -33 12t-26 23.5t-27 11.5q-18 0 -26 -14t-8 -37h-14z" />
    <glyph glyph-name="uni2010" unicode="&#x2010;" horiz-adv-x="375" 
d="M73 294v18h230v-18h-230z" />
    <glyph glyph-name="endash" unicode="&#x2013;" horiz-adv-x="429" 
d="M73 294v18h284v-18h-284z" />
    <glyph glyph-name="emdash" unicode="&#x2014;" horiz-adv-x="623" 
d="M73 294v18h478v-18h-478z" />
    <glyph glyph-name="quoteleft" unicode="&#x2018;" horiz-adv-x="197" 
d="M120 623q-13 -22 -20.5 -49t-7.5 -57q12 0 14.5 -4t2.5 -9t-0.5 -10t-4 -7.5t-12.5 -2.5q-11 0 -13.5 5t-2.5 13q0 21 4 44t11 43.5t15 33.5h14z" />
    <glyph glyph-name="quoteright" unicode="&#x2019;" horiz-adv-x="197" 
d="M77 486q14 23 21 49.5t7 56.5q-12 0 -14.5 4t-2.5 9q0 6 0.5 10.5t4.5 7t12 2.5q11 0 13.5 -5t2.5 -13q0 -21 -4 -44t-10.5 -43t-15.5 -34h-14z" />
    <glyph glyph-name="quotesinglbase" unicode="&#x201a;" horiz-adv-x="181" 
d="M83 -133l-6 214h26l-5 -214h-15z" />
    <glyph glyph-name="quotedblleft" unicode="&#x201c;" horiz-adv-x="283" 
d="M206 623q-13 -22 -20.5 -49t-7.5 -57q12 0 14.5 -4t2.5 -9t-0.5 -10t-4 -7.5t-12.5 -2.5q-11 0 -13.5 5t-2.5 13q0 21 4 44t11 43.5t15 33.5h14zM120 623q-13 -22 -20.5 -49t-7.5 -57q12 0 14.5 -4t2.5 -9t-0.5 -10t-4 -7.5t-12.5 -2.5q-11 0 -13.5 5t-2.5 13q0 21 4 44
t11 43.5t15 33.5h14z" />
    <glyph glyph-name="quotedblright" unicode="&#x201d;" horiz-adv-x="283" 
d="M77 486q14 23 21 49.5t7 56.5q-12 0 -14.5 4t-2.5 9q0 6 0.5 10.5t4.5 7t12 2.5q11 0 13.5 -5t2.5 -13q0 -21 -4 -44t-10.5 -43t-15.5 -34h-14zM163 486q14 23 21 49.5t7 56.5q-12 0 -14.5 4t-2.5 9q0 6 0.5 10.5t4.5 7t12 2.5q11 0 13.5 -5t2.5 -13q0 -21 -4 -44
t-10.5 -43t-15.5 -34h-14z" />
    <glyph glyph-name="quotedblbase" unicode="&#x201e;" horiz-adv-x="329" 
d="M201 -133l25 214h26l-36 -214h-15zM77 -133l24 214h27l-36 -214h-15z" />
    <glyph glyph-name="dagger" unicode="&#x2020;" horiz-adv-x="307" 
d="M144 649h18v-722h-18v722zM39 393v18h230v-18h-230z" />
    <glyph glyph-name="daggerdbl" unicode="&#x2021;" horiz-adv-x="307" 
d="M144 649h18v-722h-18v722zM40 317v16h227v-16h-227zM40 454v17h227v-17h-227z" />
    <glyph glyph-name="bullet" unicode="&#x2022;" horiz-adv-x="315" 
d="M156 190q-37 0 -63 27t-26 67q0 38 26.5 63.5t63.5 25.5q38 0 64.5 -26.5t26.5 -64.5q0 -39 -26.5 -65.5t-65.5 -26.5z" />
    <glyph glyph-name="ellipsis" unicode="&#x2026;" horiz-adv-x="349" 
d="M66 7q-12 0 -14 4.5t-2 11.5q0 8 2 13t14 5t14.5 -5t2.5 -13q0 -7 -2.5 -11.5t-14.5 -4.5zM168 7q-12 0 -14 4.5t-2 11.5q0 8 2 13t14 5t14.5 -5t2.5 -13q0 -7 -2.5 -11.5t-14.5 -4.5zM267 7q-12 0 -14 4.5t-2 11.5q0 8 2 13t14 5t14.5 -5t2.5 -13q0 -7 -2.5 -11.5
t-14.5 -4.5z" />
    <glyph glyph-name="perthousand" unicode="&#x2030;" horiz-adv-x="755" 
d="M70 -44l340 674h18l-342 -674h-16zM397 9q-34 0 -51.5 8.5t-24 20.5t-6.5 23v145q0 12 6.5 24.5t26 21t56.5 8.5t55.5 -8.5t25 -20.5t6.5 -24v-136q0 -16 -6.5 -30.5t-26.5 -23t-61 -8.5zM397 21q38 0 58.5 9.5t20.5 38.5v135q0 26 -19.5 35t-52.5 9t-53.5 -9t-20.5 -35
v-140q0 -25 19.5 -34t47.5 -9zM122 368q-34 0 -52 8.5t-24 21t-6 23.5v145q0 12 6.5 24.5t25.5 21t56 8.5t56 -8.5t25.5 -21t6.5 -24.5v-135q0 -16 -7 -30.5t-27 -23.5t-60 -9zM122 381q38 0 58.5 9.5t20.5 37.5v136q0 25 -19.5 34t-53.5 9q-32 0 -52.5 -9t-20.5 -34v-140
q0 -25 19.5 -34t47.5 -9zM621 9q-34 0 -52 8.5t-24.5 20.5t-6.5 23v145q0 12 6.5 24.5t26 21t57.5 8.5q37 0 55.5 -8.5t25 -20.5t6.5 -24v-136q0 -16 -7 -30.5t-27 -23t-60 -8.5zM621 21q38 0 58.5 9.5t20.5 38.5v135q0 26 -19.5 35t-53.5 9q-33 0 -53 -9t-20 -35v-140
q0 -25 19.5 -34t47.5 -9z" />
    <glyph glyph-name="minute" unicode="&#x2032;" horiz-adv-x="181" 
d="M83 423l-6 214h26l-5 -214h-15z" />
    <glyph glyph-name="second" unicode="&#x2033;" horiz-adv-x="302" 
d="M204 423l-6 214h27l-6 -214h-15zM83 423l-6 214h26l-5 -214h-15z" />
    <glyph glyph-name="guilsinglleft" unicode="&#x2039;" horiz-adv-x="310" 
d="M206 54l-129 185l134 193h22l-133 -193l128 -185h-22z" />
    <glyph glyph-name="guilsinglright" unicode="&#x203a;" horiz-adv-x="310" 
d="M82 54l128 185l-133 193h23l133 -193l-129 -185h-22z" />
    <glyph glyph-name="fraction" unicode="&#x2044;" horiz-adv-x="149" 
d="M-114 -44l380 674h20l-382 -674h-18z" />
    <glyph glyph-name="uni2052" unicode="&#x2052;" horiz-adv-x="589" 
d="M101 376q-23 0 -38 16t-15 40q0 22 15.5 37.5t37.5 15.5q23 0 38.5 -16t15.5 -38q0 -24 -15.5 -39.5t-38.5 -15.5zM483 172q-23 0 -38 16t-15 40q0 22 15.5 37.5t37.5 15.5q23 0 38.5 -16t15.5 -38q0 -24 -15.5 -39.5t-38.5 -15.5zM111 13l333 630l11 -2l-335 -629z" />
    <glyph glyph-name="uni2074" unicode="&#x2074;" horiz-adv-x="258" 
d="M186 224v81h-173l-8 16l180 306h21v-306h52l-3 -16h-49v-81h-20zM26 321h160v277z" />
    <glyph glyph-name="colonmonetary" unicode="&#x20a1;" horiz-adv-x="334" 
d="M166 -6q-61 0 -94.5 24t-33.5 74v432q0 50 29.5 77t95.5 27q70 0 101.5 -26t31.5 -79v-133l-18 -4v133q0 41 -23.5 66t-88.5 25q-64 0 -86.5 -25t-22.5 -65v-425q0 -37 26.5 -60.5t82.5 -23.5q59 0 85.5 23.5t26.5 61.5v128l18 5v-136q0 -51 -34 -75t-96 -24zM98 -85
l51 763h11l-51 -763h-11zM167 -85l50 763h12l-51 -763h-11z" />
    <glyph glyph-name="franc" unicode="&#x20a3;" horiz-adv-x="370" 
d="M0 174v14h211v-14h-211zM80 620h260v-17h-240v-241h226l-5 -16h-221v-346h-20v620z" />
    <glyph glyph-name="lira" unicode="&#x20a4;" horiz-adv-x="410" 
d="M267 -2q-16 0 -45.5 4t-61.5 8t-54 4q-16 0 -28.5 -1.5t-19.5 -6.5v12q43 43 60 92t17 128q0 58 -12 108t-24 92t-12 75q0 62 34.5 88.5t82.5 26.5q50 0 83.5 -29.5t33.5 -103.5v-43h-21v37q0 71 -28.5 98t-68.5 27q-43 0 -69.5 -26.5t-26.5 -73.5q0 -34 12 -74t24 -89.5
t12 -114.5q0 -81 -17.5 -130t-52.5 -78q5 1 11.5 1h13.5q23 0 49.5 -4t52.5 -8t45 -4q30 0 52 18.5t22 74.5v70l22 4v-59q0 -34 -5.5 -62t-24 -44.5t-56.5 -16.5zM59 200l5 13h186l-6 -13h-185zM59 274l5 13h190l-5 -13h-190z" />
    <glyph glyph-name="uni20A6" unicode="&#x20a6;" horiz-adv-x="382" 
d="M57 0v620h21l222 -583v583h21v-620h-24l-220 564v-564h-20zM23 271l4 12h334l-4 -12h-334zM23 345l4 12h334l-4 -12h-334z" />
    <glyph glyph-name="peseta" unicode="&#x20a7;" horiz-adv-x="460" 
d="M89 620h166q43 0 63.5 -10.5t27 -32t6.5 -53.5v-156q0 -36 -6 -67.5t-31 -51t-82 -19.5h-123v-230h-21v620zM234 247q47 0 72.5 24t25.5 79v171q0 44 -17.5 63t-65.5 19h-139v-356h124zM23 409v13h423v-13h-423z" />
    <glyph glyph-name="uni20A9" unicode="&#x20a9;" horiz-adv-x="599" 
d="M165 0l-115 620h20l107 -580l1 -10h1v10l113 546h18l103 -546l1 -10h1v10l105 580h20l-113 -620h-25l-100 535v6h-1l-1 -6l-111 -535h-24zM23 396l5 12h553l-5 -12h-553zM23 467l5 12h553l-5 -12h-553z" />
    <glyph glyph-name="dong" unicode="&#x20ab;" horiz-adv-x="355" 
d="M98 -68v14h213v-14h-213zM133 0q-29 0 -44 6t-20 27.5t-5 67.5v286q0 36 6.5 54t26.5 23.5t62 5.5h147v160h20v-630h-193zM306 17v436h-156q-42 0 -54 -11t-12 -52v-308q0 -42 11.5 -53.5t42.5 -11.5h168zM153 533v13h212v-13h-212z" />
    <glyph glyph-name="Euro" unicode="&#x20ac;" horiz-adv-x="372" 
d="M202 -6q-61 0 -94 24t-33 74v432q0 50 29 77t95 27q71 0 102.5 -26t31.5 -79v-104l-20 -4v104q0 41 -23.5 66t-87.5 25q-62 0 -84.5 -25t-22.5 -65v-425q0 -37 26 -60.5t81 -23.5q57 0 84 23.5t27 61.5v100l20 5v-108q0 -51 -34.5 -75t-96.5 -24zM20 246v13h201l-8 -13
h-193zM20 343v12h255l-7 -12h-248z" />
    <glyph glyph-name="uni20AD" unicode="&#x20ad;" horiz-adv-x="335" 
d="M1 327v17h317v-17h-317zM311 -6l-176 341l164 288l16 -9l-158 -279l173 -332zM73 620h20v-620h-20v620z" />
    <glyph glyph-name="uni20B1" unicode="&#x20b1;" horiz-adv-x="460" 
d="M89 620h166q43 0 63.5 -10.5t27 -32t6.5 -53.5v-156q0 -36 -6 -67.5t-31 -51t-82 -19.5h-123v-230h-21v620zM23 396v12h423v-12h-423zM234 244q47 0 72.5 24t25.5 79v174q0 31 -7.5 49t-25.5 26t-50 8h-139v-360h124zM23 467v13h423v-13h-423z" />
    <glyph glyph-name="uni20B2" unicode="&#x20b2;" horiz-adv-x="338" 
d="M174 -2q-42 0 -72.5 5.5t-47 23.5t-16.5 55v461q0 50 36.5 65.5t98.5 15.5t94.5 -16t32.5 -66v-114l-18 -5v117q0 41 -29 54t-79 13q-52 0 -84.5 -11t-32.5 -55v-457q0 -32 15 -46.5t41.5 -18.5t60.5 -4q31 0 55 4t37.5 18.5t13.5 46.5v232h-114l5 17h129v-251
q0 -37 -14.5 -55t-42.5 -23.5t-69 -5.5zM138 -85l50 763h12l-51 -763h-11z" />
    <glyph glyph-name="uni20B5" unicode="&#x20b5;" horiz-adv-x="334" 
d="M166 -6q-61 0 -94.5 24t-33.5 74v432q0 50 29.5 77t95.5 27q70 0 101.5 -26t31.5 -79v-133l-18 -4v133q0 41 -23.5 66t-88.5 25q-63 0 -85.5 -25t-22.5 -65v-425q0 -37 26 -60.5t82 -23.5q58 0 85 23.5t27 61.5v128l18 5v-136q0 -51 -34 -75t-96 -24zM139 -85l50 763h11
l-49 -763h-12z" />
    <glyph glyph-name="uni20B9" unicode="&#x20b9;" horiz-adv-x="473" 
d="M100 230v14h134q47 0 72.5 23.5t25.5 79.5v177q0 44 -17.5 62t-66.5 18h-225v16h232q43 0 63.5 -10.5t27 -32t6.5 -53.5v-156q0 -36 -6 -67.5t-31 -51t-82 -19.5h-133zM338 -5l-129 242l19 2l126 -235zM23 421l6 15h423l-6 -15h-423z" />
    <glyph glyph-name="uni20BA" unicode="&#x20ba;" horiz-adv-x="404" 
d="M131 8q-14 0 -26 8.5t-12 36.5v567h20v-560q0 -19 8 -26.5t22 -7.5h51q55 1 87.5 9t47.5 29.5t15 62.5v244l20 10v-256q0 -70 -40 -93.5t-130 -23.5h-63zM3 197v15l240 58v-15zM3 326v15l240 58v-15z" />
    <glyph glyph-name="uni20BC" unicode="&#x20bc;" horiz-adv-x="439" 
d="M38 9l30 531q3 53 44 73.5t108 20.5q71 0 109 -20.5t41 -73.5l30 -531h-20l-30 523q-1 22 -10 41t-36 31.5t-84 12.5q-55 0 -83 -12t-37.5 -31.5t-10.5 -41.5l-30 -523h-21zM213 646l10 38l3 -502l-10 -38z" />
    <glyph glyph-name="uni20BD" unicode="&#x20bd;" horiz-adv-x="466" 
d="M89 620h166q43 0 63.5 -10.5t27 -32t6.5 -53.5v-156q0 -36 -6 -67.5t-31 -51t-82 -19.5h-123v-230h-21v620zM23 230v14h82v-14h-82zM234 244q47 0 72.5 24t25.5 79v174q0 31 -7.5 49t-25.5 26t-50 8h-139v-360h124zM23 421v15h423v-15h-423z" />
    <glyph glyph-name="uni2116" unicode="&#x2116;" horiz-adv-x="785" 
d="M70 0v620h21l219 -571l2 -5l1 -2v578h20v-620h-23l-217 561l-3 7v0v-568h-20zM585 -4q-51 0 -77.5 16t-35.5 40t-9 46v275q0 23 9.5 46.5t37.5 39.5t84 16q55 0 83 -16t38 -39.5t10 -46.5v-259q0 -30 -10.5 -57t-40.5 -44t-89 -17zM585 13q56 0 88 22t32 75v260
q0 47 -31 68t-80 21q-48 0 -79.5 -20.5t-31.5 -68.5v-269q0 -47 30.5 -67.5t71.5 -20.5z" />
    <glyph glyph-name="trademark" unicode="&#x2122;" horiz-adv-x="467" 
d="M198 239v372h20l101 -320h1l103 320h22v-372h-16v342l-4 -12l-97 -298h-17l-94 294l-3 9v-335h-16zM82 239v359h-67v13h148v-13h-65v-359h-16z" />
    <glyph glyph-name="partialdiff" unicode="&#x2202;" horiz-adv-x="378" 
d="M186 -1q-51 0 -79 11.5t-38.5 45t-10.5 98.5v172q0 77 27 110.5t105 33.5q41 0 67.5 -12t40.5 -35l-4 -2q-7 80 -44 132.5t-108 52.5h-73v14h79q48 0 86.5 -26t61.5 -84.5t23 -155.5v-238q0 -33 -6 -55.5t-20.5 -36t-40.5 -19.5t-66 -6zM186 16q67 0 90 22t23 78v253
q0 36 -23 60.5t-87 24.5q-35 0 -60 -9.5t-38 -36.5t-13 -80v-191q0 -51 11 -77t34.5 -35t62.5 -9z" />
    <glyph glyph-name="uni2206" unicode="&#x2206;" horiz-adv-x="463" 
d="M22 0l200 587h24l195 -587h-419zM415 16l-184 553l-189 -553h373z" />
    <glyph glyph-name="product" unicode="&#x220f;" horiz-adv-x="480" 
d="M141 0v603h-93v17h385v-17h-87v-603h-20v603h-165v-603h-20z" />
    <glyph glyph-name="summation" unicode="&#x2211;" horiz-adv-x="407" 
d="M58 14l214 300l-206 294v12h282v-14l-253 -1l201 -288l-215 -300h267v-17h-290v14z" />
    <glyph glyph-name="minus" unicode="&#x2212;" horiz-adv-x="371" 
d="M58 297v15h255v-15h-255z" />
    <glyph glyph-name="uni2215" unicode="&#x2215;" horiz-adv-x="443" 
d="M40 -44l340 674h16l-342 -674h-14z" />
    <glyph glyph-name="uni2219" unicode="&#x2219;" horiz-adv-x="348" 
d="M171 229q-23 0 -38 16t-15 40q0 22 15.5 37.5t37.5 15.5q23 0 38.5 -16t15.5 -38q0 -24 -15.5 -39.5t-38.5 -15.5z" />
    <glyph glyph-name="radical" unicode="&#x221a;" horiz-adv-x="520" 
d="M256 9l-98 366l-100 -54v15l112 62l96 -363l174 586h22l-186 -612h-20z" />
    <glyph glyph-name="infinity" unicode="&#x221e;" horiz-adv-x="824" 
d="M202 75q-74 0 -109 43.5t-35 129.5t35 130t109 44q38 0 70.5 -19.5t59.5 -48t47.5 -55t33.5 -41.5q13 14 32 40.5t44 55t56.5 48.5t69.5 20q79 0 114.5 -44t35.5 -130t-36.5 -129.5t-113.5 -43.5q-36 0 -67 17.5t-56.5 43t-45.5 50.5t-33 40q-14 -16 -34.5 -41.5
t-47 -50.5t-59 -42t-70.5 -17zM206 93q47 0 99 40t99 108q-31 39 -61.5 76.5t-63.5 62t-73 24.5q-69 0 -97.5 -39.5t-28.5 -116.5q0 -76 28.5 -115.5t97.5 -39.5zM612 93q60 0 96 36.5t36 118.5q0 84 -36 120t-96 36q-34 0 -62.5 -19t-52.5 -46.5t-42.5 -54.5t-32.5 -44
q14 -16 35 -41t46.5 -49t53 -40.5t55.5 -16.5z" />
    <glyph glyph-name="integral" unicode="&#x222b;" horiz-adv-x="242" 
d="M-98 -170l-3 16h65q29 0 39 16t14 48l68 645q3 23 11.5 37.5t26 21t47.5 6.5h64l-2 -14h-58q-37 0 -51.5 -12t-17.5 -41l-68 -646q-4 -43 -20.5 -60t-54.5 -17h-60z" />
    <glyph glyph-name="approxequal" unicode="&#x2248;" horiz-adv-x="424" 
d="M58 331q0 35 22 50.5t55 15.5q32 0 54 -11.5t42.5 -23.5t45.5 -12q35 0 48.5 16t13.5 30h17q0 -23 -11 -37t-28.5 -19.5t-37.5 -5.5q-23 0 -41 7t-34 16.5t-32 16.5t-35 7q-29 0 -44.5 -13.5t-15.5 -36.5h-19zM68 144q0 35 22 50.5t55 15.5q32 0 54 -11.5t42.5 -23.5
t45.5 -12q35 0 48.5 16t13.5 30h17q0 -23 -11 -37t-28.5 -19.5t-37.5 -5.5q-23 0 -41 7t-34 16.5t-32 16.5t-35 7q-29 0 -44.5 -13.5t-15.5 -36.5h-19z" />
    <glyph glyph-name="notequal" unicode="&#x2260;" horiz-adv-x="366" 
d="M60 -44l237 514h17l-240 -514h-14zM58 110v15h253v-15h-253zM58 297v15h253v-15h-253z" />
    <glyph glyph-name="lessequal" unicode="&#x2264;" horiz-adv-x="426" 
d="M335 128l-247 191v14l247 193v-19l-232 -181l232 -179v-19zM99 -2v14h232v-14h-232z" />
    <glyph glyph-name="greaterequal" unicode="&#x2265;" horiz-adv-x="426" 
d="M95 128v19l232 179l-232 181v19l247 -193v-14zM95 -2v14h247v-14h-247z" />
    <glyph glyph-name="lozenge" unicode="&#x25ca;" horiz-adv-x="536" 
d="M263 0l-190 323l190 320h13l186 -320l-186 -323h-13zM269 22l176 301l-176 296l-177 -296z" />
    <glyph glyph-name="uni27E8" unicode="&#x27e8;" horiz-adv-x="267" 
d="M200 -21l-148 339h17l146 -339h-15zM53 270l145 335h17l-147 -335h-15z" />
    <glyph glyph-name="uni27E9" unicode="&#x27e9;" horiz-adv-x="267" 
d="M52 -21l146 339h17l-148 -339h-15zM199 270l-147 335h17l145 -335h-15z" />
    <glyph glyph-name="uniF8FF" unicode="&#xf8ff;" horiz-adv-x="427" 
d="M147 -15q1 0 1 2q0 1 -0.5 2t-0.5 2t2 3v5q-2 1 -2 4t-10 3q-4 -1 -7 -1.5t-6 -0.5v3h-1v11q-1 3 -4.5 5.5t-5.5 3.5v3h-1v2l-10 9h-16q-1 3 -4 6t-3 7v4l-11 8v24q2 5 2.5 9.5t4.5 10.5l4 6v13v11t-1 9l-5 17v10q-1 4 -2 5t-1 4v14h1v5h-1v7h-3l-5 2l0.5 -1.5t-1.5 -0.5
h-3v9h4q0 2 0.5 2.5t0.5 4.5h4q0 -2 1 -2v1h0.5t1.5 -1v-3h7v5q1 0 1.5 0.5l0.5 0.5v3h1v3q5 0 5 4v10q0 -1 -1 1t-5 3v9q1 1 1 0t1 2l3 11q0 1 0.5 1.5t0.5 1.5q0 3 -2.5 3t-2.5 3h-10v-3h-9v5q1 0 1 -0.5v-0.5q1 0 2 2l1 2h5v1h3v5h3v16h-3q-2 5 -6 5v3h-4v7h-2
q0 3 -1.5 3t-2.5 1v3q-1 1 -5 1h-5v18q0 4 1 4.5t1 5.5l-6 20q-3 11 -3 20v16q0 5 3 8.5t4 6.5v19q2 1 3 3t3 2v3q0 2 2 3l15 16v1h3q1 -1 3 -1l6 3l3 4v3h4l2 2q1 0 1.5 1l0.5 1l7 7l4 4t4 3l1 -1l1 0.5t2 0.5v2l3.5 7t5.5 7v3q0 3 2 3v-1q2 0 6 5.5t11 5.5v3h28l8 4
q2 2 8.5 7t13.5 5q3 0 4 -1l4 -2q3 -1 6.5 -4t4.5 -3q2 0 6.5 1t6.5 2q3 0 4 -1q2 0 7 2.5t19 2.5q6 0 9 -3l11 -10h18l16 -8v-2q4 -2 13.5 -5l9.5 -3v-8q1 -2 5 -3.5t6 -3.5q0 -6 5.5 -6t10.5 -3.5t5 -20.5l5 -8q0 -1 2 -4l2 -3l2 -7q0 -6 -2 -6v-11q-3 0 -3 -3v-13l6 -8
q5 -6 5.5 -16t0.5 -21v-12h-4v-10h-2q1 0 1 -0.5v-0.5h-3v-4q-2 -2 -2 -4t1 -6.5t2 -6.5q0 -1 -1 -2.5l-1 -1.5v-41h1v-5h2q-3 -6 -3 -9h-3q-3 -4 -4 -9v-9h-2q0 -3 -0.5 -3.5t-0.5 -3.5v-3q-1 -1 -2 -1.5t-1 -1.5v-4q0 -1 -2 -1h-3q-2 -4 -2 -5q-1 2 -1 1.5t-2 2.5h1
q0 1 -1 1h-3l3 4q-3 0 -4 1v2.5t4 1.5q0 1 -1 1.5l-1 0.5q0 1 1.5 1.5t1.5 3.5v2h4q0 4 -2 4q0 2 3 2v76q0 5 1.5 9t2.5 4v3q1 0 1.5 0.5t1.5 0.5v5h1v20q-1 0 -1 3v7h-3v3q-1 -1 -2 0.5t-2 1.5h-3v2h-2v2h-1v5h-3v7h-1v3q-3 0 -3 4q-1 -2 -3 -2h-7q0 2 -1 4l-3 2q1 0 1 1
l-1 -1v1l-2 4h-11l-7 10h-1v-1q-2 0 -3 1.5t-3 1.5t-4.5 -0.5t-1.5 -1.5h-4v-2h-4q0 -1 -1 -2t-6 -1t-9 0.5t-7 0.5v2q-1 -1 -1 1t-2 2h-2v3h-7v1h-2v4h-3q0 3 1.5 3.5t1.5 1.5q-3 3 -4 7t-5 3v3q-6 0 -16 -1.5t-10 -6.5v-1h-1l-0.5 -1.5t-1.5 -1.5q-2 0 -2 2v-4h-12l-2 3v2
h-5q-4 0 -5 -2.5t-4 -3.5v-3q-2 0 -4 3v-5q-5 0 -7.5 -2t-6.5 -5h-3v-2h-20q-1 -1 -3.5 -5t-2.5 -6q0 -1 0.5 -1t0.5 -1l-2 -2l-2 -3h-1t-2 -1q0 1 -0.5 1.5t-0.5 1.5q-5 0 -5 -3q-3 0 -3 2l-3 -2h-6q-1 0 -1.5 1t-2.5 1q-3 0 -4.5 -3l-1.5 -3v-1l6 -6v0.5t1 0.5h2
q0 -1 1 -2.5t1 -3.5q0 -1 -2 -1v-13q0 -1 0.5 -1.5t0.5 -1.5v-3l6 -4q0 -2 7 -2q1 2 3 2t2 4v3l3 3q3 3 3 4l-1 1h5v-3h2v-11q1 0 1.5 -2.5t0.5 -4.5h3q0 -1 2 -6t2 -7q-3 -1 -3 -3l1 -4q0 -1 -0.5 -1t-0.5 -2l-2 -2q-1 0 -1.5 -0.5l-0.5 -0.5h-4v-2h-1v-19l1 1v-3h11v-1
q2 3 8.5 3.5t13.5 0.5h26.5t17.5 -1l2 -2h6q2 -5 7.5 -11.5t6.5 -11.5l-2.5 -4t-4.5 -3l-2 -5q0 -11 -11 -11h-26l-7 -5v-1h-11v1h-4q0 1 -1 1v2q-1 0 -1 1h-3q0 1 -1 1h-9q0 2 -3.5 2.5t-1.5 2.5v2h-3q-1 0 -1 2v3h-12q0 1 -0.5 2l-1.5 3l-3 5h-9l-3 -3q-1 0 -1 0.5t-5 0.5
q-3 -5 -5.5 -6.5t-2.5 -6.5q0 -4 1.5 -4.5t1.5 -2.5h4q5 -4 7 -3t2 -4q0 -7 -6.5 -5t-6.5 -6q0 -3 0.5 -5.5t0.5 -5.5l3 -8q2 -5 2 -6.5t2 -4.5l3 -3q2 0 4 -0.5t3 -0.5h3t2 1h3l3 -3q4 -1 10 -1q5 0 10 1.5t8 1.5h2l7 1v2h3q3 3 4.5 5t6.5 6v1h1q1 1 1 0t1 -1t2 0.5l1 0.5
q3 -3 3 -8v-14q1 0 1.5 -0.5t1.5 -0.5h13l7 1v-1h6v-1h4v-4h6l2 -3h19q3 0 5.5 1.5t7.5 1.5v-4h2v-8q-1 0 -1.5 -0.5l-0.5 -0.5v-4q-1 1 -2 1q-7 -1 -8.5 -1t-3.5 -6h-4v-3q-4 2 -6 2t-3.5 -1.5t-6.5 -1.5v-4q0 -1 2 -3l5 -3v-2h-5q-2 0 -2.5 -0.5t-1.5 -0.5v1
q-5 0 -10.5 -0.5t-10.5 -0.5q-1 1 -1 2t-2 2l-2 3h-5v2h-10v-2q-1 -1 -2.5 -0.5t-1.5 -1.5v-10l3 -3q0 -1 0.5 -2t0.5 -3h15q1 0 1 -0.5t1 -0.5v-2q-1 -1 -4 -1h-8q-9 0 -12.5 3.5l-7 7t-12.5 3.5v-2q-1 0 -1.5 -1t-1.5 0v-4l-2 -3q0 -1 -2 -3q-2 2 -6 2v-2h-4q0 -3 -4 -7
l3 -3v-29h-3q0 -4 2.5 -5t1.5 -1l-1 -1l1 -0.5t3 -0.5h5q2 2 4 2l2 -4q1 -1 1 -2v-1q-1 -2 -1 -7v-7q1 0 1.5 -2t1.5 -2t1 -1l10 -8q0 -2 1 -2t2 1l1 1h3v-3h5q1 0 5 -2q2 0 4.5 1.5t3.5 1.5t1 -1v-2h7l2 -4h24q-1 0 0.5 -0.5t1.5 -2.5l1 1q1 -1 4 -3.5t4 -3.5h14l3 2
q-1 0 -1 0.5v0.5q0 2 3 2q4 -3 4 -9h-1q1 -1 1 -4q-7 0 -7.5 -5t-10.5 -5q1 -1 1 -1.5v-0.5v-0.5t-1 -0.5h-3q0 -1 -2 -5h-4v-5h-3v-5q-1 0 -1.5 0.5t-1.5 0.5q0 1 -2.5 -2.5t-2.5 -7.5l-6 -9h-9v-2q-1 -1 -3.5 -1.5t-4.5 -2.5q0 -3 1 -4l-2 -2h-5v-2h-3v-1h-2v-7h-55v3z
M61 240q-3 3 -3 5v3l-3 2l-0.5 0.5t-0.5 1.5v3h-2v2q-1 1 -1 6h1v1h3q2 -2 2 -3l1 -1h2v-3l2 -4t1 -3v-3h-1q0 -1 0.5 -1.5t0.5 -1.5h5q-2 -1 -3.5 -1.5t-3.5 -2.5zM54 283q-3 2 -3 4q3 2 3 4h-1v6h-2v8h1l1 1v-1h1v-4q0 -1 0.5 -1t0.5 -1t2 -1v-2l1 -1q1 0 1 -0.5t1 -0.5
v-8h-1l-2 -2v-1h-3zM221 126q-5 3 -5 4q-1 0 -1.5 -0.5l-0.5 -0.5q-1 0 -1 2h-6l-3 2q0 3 1 3v4h1q2 0 3 -0.5t6 -0.5q0 3 2 3h3q1 0 1 0.5t2 0.5h3q-3 2 -5 1.5t-2 2.5h-3q-1 -1 -2 0t-1 2l1 1v3h11q1 0 0.5 1t0.5 1l3 -2h5q0 2 3 2q2 0 4.5 -2.5t2.5 -4.5v-1h-8
q0 -2 -4 -2v-3q1 0 2 1h4q1 0 2 1q0 -1 4 -3t4 -6q2 0 -3.5 -2.5t-10.5 -2.5h-3q-1 -1 -6 -1v-2q-3 0 -4 -1zM238 158q-1 0 -1 4h2h0.5t1.5 -1v2h10q1 -1 1 -1.5v-0.5q-3 -3 -11 -3h-3zM287 74l-2 0.5t-2 2.5l2 4q-1 0 0 1.5t-1 2.5h4v2h1v2h2l3.5 5t7.5 6l-4 3l0.5 0.5
t1.5 0.5h2v7l2 3l-2 2h1l1 0.5t1 3.5v2h2v5h2q0 2 1.5 1.5t1.5 0.5v2h4v1h5q2 1 4 6.5t9 5.5q4 0 4 -5v-3q0 -1 -0.5 -1t-0.5 -1h1q0 -1 -1 -2h-2v-3q-1 -2 -3 -2t-4 -2l-6 -4q-3 -5 -6 -5l-2 -2l-2 -4t-3 -4v-3l-2 -3q-1 0 -1 0.5t-1 0.5q-4 0 -4 -5q1 -2 1 -5.5v-3.5v-7
h-5v-3h-6q-1 0 -1.5 -1.5t-2.5 -1.5zM297 260q-1 0 -4.5 5t-5.5 5h-17q0 1 -1 1q0 3 1 4t1 3v1t-1 2l-5 4q1 1 1 2v1l-1 6q2 0 2 2v1l1.5 1t0.5 2v3h1l4 4l3 1.5t6 1.5v2q0 2 1 3h7v2l7 1l4 -3h9l3 -5h5q0 -4 4 -4q2 0 5 2t4 2q0 -3 2 -4.5l2 -1.5l1 1v-4h4v-2q4 0 4 -2v-3
l-2 -2h1q0 -1 -2 -3t-2 -4q0 -1 1 -1t1 -1q0 -7 -9.5 -6.5t-13.5 -3.5v-2q-1 0 -2 -0.5t-3 -0.5v-3q-1 -1 -3 -2.5t-2 -3.5h-12v-1z" />
    <glyph glyph-name="acutecomb.case" 
d="M0 538l94 82h27l-106 -82h-15z" />
    <glyph glyph-name="uni0306.case" 
d="M87 534q-36 0 -54.5 14t-24.5 34t-6 37h15q0 -24 15 -47.5t55 -23.5q42 0 58 23.5t17 47.5h14q0 -36 -20 -60.5t-69 -24.5z" />
    <glyph glyph-name="uni03060301" 
d="M87 534q-36 0 -54.5 14t-24.5 34t-6 37h14q0 -27 15.5 -48.5t55.5 -21.5q42 0 58.5 21t16.5 49h14q0 -34 -20 -59.5t-69 -25.5zM53 643l84 92h27l-96 -92h-15z" />
    <glyph glyph-name="uni03060301.case" 
d="M73 426q-29 0 -44.5 11.5t-20.5 27.5t-5 30h15q0 -19 12 -37t43 -18q32 0 45 18t14 37h14q0 -29 -16.5 -49t-56.5 -20zM43 515l70 74h24l-78 -74h-16z" />
    <glyph glyph-name="uni03060300" 
d="M88 534q-36 0 -54.5 14t-24.5 34t-6 37h14q0 -27 15.5 -48.5t55.5 -21.5q42 0 58.5 21t16.5 49h14q0 -34 -20 -59.5t-69 -25.5zM96 643l-96 92h27l84 -92h-15z" />
    <glyph glyph-name="uni03060300.case" 
d="M74 426q-29 0 -44.5 11.5t-20.5 28t-5 29.5h14q0 -19 13 -37t44 -18q32 0 44.5 18t12.5 37h16q0 -29 -17 -49t-57 -20zM80 515l-79 74h26l67 -74h-14z" />
    <glyph glyph-name="uni03060309" 
d="M87 534q-36 0 -54.5 14t-24.5 34t-6 37h14q0 -27 15.5 -48.5t55.5 -21.5q42 0 58.5 21t16.5 49h14q0 -34 -20 -59.5t-69 -25.5zM79 643q0 12 8.5 20.5t20 16t20 17.5t8.5 25q0 17 -14.5 27t-31.5 10q-26 0 -37.5 -14t-14.5 -32l-12 4q2 26 19 40.5t47 14.5q29 0 44 -14.5
t15 -34.5q0 -19 -8.5 -30t-19 -18t-19 -14t-8.5 -18h-17z" />
    <glyph glyph-name="uni03060309.case" 
d="M73 426q-29 0 -44.5 11.5t-20.5 27.5t-5 30h15q0 -19 12 -37t43 -18q32 0 45 18t14 37h14q0 -29 -16.5 -49t-56.5 -20zM65 515q0 13 11 21t22.5 17t11.5 25q0 13 -11 21t-23 8q-21 0 -30 -11t-12 -25l-11 4q2 20 15.5 32t38.5 12q24 0 36.5 -11.5t12.5 -28.5
q0 -20 -10.5 -29.5t-21.5 -16t-11 -18.5h-18z" />
    <glyph glyph-name="uni03060303" 
d="M87 534q-36 0 -54.5 14t-24.5 34t-6 37h14q0 -27 15.5 -48.5t55.5 -21.5q42 0 58.5 21t16.5 49h14q0 -34 -20 -59.5t-69 -25.5zM-1 637q0 35 13.5 50.5t32.5 15.5q20 0 33 -11.5t25.5 -23t27.5 -11.5q23 0 28.5 15.5t5.5 28.5h14q0 -34 -14.5 -47t-31.5 -13q-19 0 -33 12
t-26 23.5t-27 11.5q-18 0 -26 -14t-8 -37h-14z" />
    <glyph glyph-name="uni03060303.case" 
d="M73 426q-29 0 -44.5 11.5t-20.5 28t-5 29.5h15q0 -18 12 -36.5t43 -18.5q32 0 45 18t13 37h15q0 -28 -16.5 -48.5t-56.5 -20.5zM0 510q0 29 11 42t27 13t27 -9t21 -18t22 -9q18 0 22.5 12.5t4.5 22.5h13q0 -29 -12 -40t-26 -11q-15 0 -26.5 9.5t-21 18.5t-21.5 9
q-14 0 -20.5 -11t-6.5 -29h-14z" />
    <glyph glyph-name="uni0311.case" 
d="M87 617q49 0 69 -25.5t20 -59.5h-14q0 29 -16.5 49.5t-58.5 20.5q-40 0 -55.5 -21.5t-15.5 -48.5h-14q0 17 6 37t24.5 34t54.5 14z" />
    <glyph glyph-name="uni030C.alt" 
d="M-27 330l27 140h18l-34 -140h-11z" />
    <glyph glyph-name="uni030C.alt.case" 
d="M-27 330l27 140h18l-34 -140h-11z" />
    <glyph glyph-name="uni030C.case" 
d="M0 623h17l82 -72l82 72h15l-84 -85h-28z" />
    <glyph glyph-name="uni0302.case" 
d="M0 538l84 85h28l84 -85h-15l-82 72l-82 -72h-17z" />
    <glyph glyph-name="uni03020301" 
d="M0 538l84 85h28l84 -85h-15l-82 72l-82 -72h-17zM188 612l84 92h27l-96 -92h-15z" />
    <glyph glyph-name="uni03020301.case" 
d="M0 430l67 68h27l67 -68h-15l-64 56l-64 -56h-18zM155 489l68 74h26l-78 -74h-16z" />
    <glyph glyph-name="uni03020300" 
d="M0 538l84 85h28l84 -85h-15l-82 72l-82 -72h-17zM215 612l-96 92h27l84 -92h-15z" />
    <glyph glyph-name="uni03020300.case" 
d="M0 430l67 68h27l67 -68h-15l-64 56l-64 -56h-18zM177 489l-78 74h24l69 -74h-15z" />
    <glyph glyph-name="uni03020309" 
d="M0 538l84 85h28l84 -85h-15l-82 72l-82 -72h-17zM210 612q0 12 8.5 20.5t20 16t20 17.5t8.5 25q0 17 -14.5 27t-31.5 10q-26 0 -37.5 -14t-14.5 -32l-12 4q2 26 19 40.5t47 14.5q29 0 44 -14.5t15 -34.5q0 -19 -8.5 -30t-19 -18t-19 -14t-8.5 -18h-17z" />
    <glyph glyph-name="uni03020309.case" 
d="M0 430l67 68h27l67 -68h-15l-64 56l-64 -56h-18zM172 489q0 13 11 21t22 17t11 25q0 13 -11 21t-24 8q-19 0 -28.5 -11t-12.5 -25l-11 4q2 20 16 31.5t38 11.5q23 0 36.5 -11t13.5 -28q0 -15 -6.5 -24t-15.5 -15t-15.5 -11.5t-6.5 -13.5h-17z" />
    <glyph glyph-name="uni03020303" 
d="M0 538l84 85h28l84 -85h-15l-82 72l-82 -72h-17zM7 647q0 35 13.5 50.5t32.5 15.5q20 0 33 -11.5t25.5 -23t27.5 -11.5q23 0 28.5 15.5t5.5 28.5h14q0 -34 -14.5 -47t-31.5 -13q-19 0 -33 12t-26 23.5t-27 11.5q-18 0 -26 -14t-8 -37h-14z" />
    <glyph glyph-name="uni03020303.case" 
d="M0 430l67 68h27l67 -68h-15l-64 56l-64 -56h-18zM5 517q0 29 11.5 42.5t27.5 13.5t27 -9.5t21 -19t22 -9.5q17 0 22 13t5 23h13q0 -28 -12 -39.5t-27 -11.5t-26 9.5t-21 18.5t-22 9q-14 0 -20.5 -10.5t-6.5 -29.5h-14z" />
    <glyph glyph-name="uni030F.case" 
d="M91 538l-96 92h27l84 -92h-15zM152 538l-96 92h27l84 -92h-15z" />
    <glyph glyph-name="uni0308.case" 
d="M120 535q-11 0 -13 4.5t-2 11.5q0 8 2 12.5t13 4.5q13 0 15 -4.5t2 -12.5q0 -7 -2 -11.5t-15 -4.5zM36 535q-12 0 -14 4.5t-2 11.5q0 8 2 12.5t14 4.5t14 -4.5t2 -12.5q0 -7 -2 -11.5t-14 -4.5z" />
    <glyph glyph-name="uni0307.case" 
d="M16 536q-12 0 -14 4.5t-2 11.5q0 8 2 13t14 5t14 -5t2 -13q0 -7 -2 -11.5t-14 -4.5z" />
    <glyph glyph-name="gravecomb.case" 
d="M96 538l-106 82h27l94 -82h-15z" />
    <glyph glyph-name="hookabovecomb.case" 
d="M53 538q0 12 8.5 20.5t20 16t20 17.5t8.5 25q0 17 -14.5 27t-31.5 10q-26 0 -37.5 -14t-14.5 -32l-12 4q2 26 19 40.5t47 14.5q29 0 44 -14.5t15 -34.5q0 -19 -8.5 -30t-19 -18t-19 -14t-8.5 -18h-17z" />
    <glyph glyph-name="uni031B.case" 
d="M2 458l-2 12q38 0 50.5 12t11.5 38h15q0 -37 -17 -49.5t-58 -12.5z" />
    <glyph glyph-name="uni030B.case" 
d="M0 538l35 92h26l-46 -92h-15zM59 538l35 92h27l-47 -92h-15z" />
    <glyph glyph-name="i.loclTRK" horiz-adv-x="160" 
d="M70 470h20v-470h-20v470zM79 536q-12 0 -14 4.5t-2 11.5q0 8 2 13t14 5t14 -5t2 -13q0 -7 -2 -11.5t-14 -4.5z" />
    <glyph glyph-name="uni0304.case" 
d="M0 546v15h189v-15h-189z" />
    <glyph glyph-name="periodcentered.loclCAT" horiz-adv-x="55" 
d="M26 211q-12 0 -14 4.5t-2 11.5q0 8 2 13t14 5t14.5 -5t2.5 -13q0 -7 -2.5 -11.5t-14.5 -4.5z" />
    <glyph glyph-name="periodcentered.loclCAT.case" horiz-adv-x="37" 
d="M31 281q-12 0 -14 4.5t-2 11.5q0 8 2 13t14 5t14.5 -5t2.5 -13q0 -7 -2.5 -11.5t-14.5 -4.5z" />
    <glyph glyph-name="uni030A.case" 
d="M67 533q-29 0 -48 18.5t-19 43.5q0 26 19 44.5t48 18.5q27 0 46 -18.5t19 -44.5q0 -25 -19 -43.5t-46 -18.5zM67 544q21 0 37 15t16 35q0 22 -16 38t-37 16q-23 0 -38.5 -16t-15.5 -38q0 -20 15.5 -35t38.5 -15z" />
    <glyph glyph-name="tildecomb.case" 
d="M1 532q0 35 13.5 50.5t32.5 15.5q20 0 33 -11.5t25.5 -23t27.5 -11.5q23 0 28.5 15.5t5.5 28.5h14q0 -34 -14.5 -47t-31.5 -13q-19 0 -33 12t-26 23.5t-27 11.5q-18 0 -26 -14t-8 -37h-14z" />
    <glyph glyph-name="uni03030307" 
d="M1 532q0 35 13.5 50.5t32.5 15.5q20 0 33 -11.5t25.5 -23t27.5 -11.5q23 0 28.5 15.5t5.5 28.5h14q0 -34 -14.5 -47t-31.5 -13q-19 0 -33 12t-26 23.5t-27 11.5q-18 0 -26 -14t-8 -37h-14zM90 622q-12 0 -14 4.5t-2 11.5q0 8 2 13t14 5t14 -5t2 -13q0 -7 -2 -11.5
t-14 -4.5z" />
    <glyph glyph-name="uni03030304" 
d="M6 532q0 35 13.5 50.5t32.5 15.5q20 0 33 -11.5t25.5 -23t27.5 -11.5q23 0 28.5 15.5t5.5 28.5h14q0 -34 -14.5 -47t-31.5 -13q-19 0 -33 12t-26 23.5t-27 11.5q-18 0 -26 -14t-8 -37h-14zM0 632v15h189v-15h-189z" />
    </font>
</defs>
</svg>
