<?xml version="1.0" standalone="no"?>
<!DOCTYPE svg PUBLIC "-//W3C//DTD SVG 1.1//EN" "http://www.w3.org/Graphics/SVG/1.1/DTD/svg11.dtd" >
<svg xmlns="http://www.w3.org/2000/svg" xmlns:xlink="http://www.w3.org/1999/xlink" version="1.1">
<metadata>
Created by FontForge 20170731 at Fri Dec 17 21:18:01 2021
 By Aleksey,,,
Copyright 2016 The Smooch Sans Project Authors (https://github.com/googlefonts/smooch-sans)
</metadata>
<defs>
<font id="SmoochSans-ExtraBold" horiz-adv-x="385" >
  <font-face 
    font-family="Smooch Sans ExtraBold"
    font-weight="800"
    font-stretch="normal"
    units-per-em="1000"
    panose-1="0 0 0 0 0 0 0 0 0 0"
    ascent="800"
    descent="-200"
    x-height="470"
    cap-height="620"
    bbox="-145 -288 776 995"
    underline-thickness="50"
    underline-position="-175"
    unicode-range="U+000D-FB02"
  />
<missing-glyph horiz-adv-x="494" 
d="M87 40v498h320v-498h-320zM158 117l83 150l85 -150l13 22l-86 151l86 153l-13 23l-85 -152l-83 151l-11 -22l83 -151l-83 -153zM52 -5l-12 12v568l12 12h391l11 -12v-568l-11 -12h-391zM430 21v540h-364v-540h364z" />
    <glyph glyph-name="fi" unicode="fi" horiz-adv-x="478" 
d="M53 402h-43v68h43v63q0 55 23 74t84 19h130v-69h-61q-25 0 -32.5 -8.5t-7.5 -40.5v-38h186l-8 -68h-178v-402h-136v402zM327 470h130v-470h-130v470z" />
    <glyph glyph-name="fl" unicode="fl" horiz-adv-x="495" 
d="M53 402h-43v68h43v63q0 55 23 75t84 18l303 -6l-71 -63h-163q-25 0 -32.5 -8.5t-7.5 -40.5v-38h85l-9 -68h-76v-402h-136v402zM333 620h130v-620h-130v620z" />
    <glyph glyph-name="f_f" unicode="ff" horiz-adv-x="575" 
d="M53 402h-43v68h43v63q0 55 23 74t84 19h130v-69h-61q-25 0 -32.5 -8.5t-7.5 -40.5v-38h128l-9 -68h-119v-402h-136v402zM327 402h-43v68h43v63q0 55 23 74t84 19h130v-69h-61q-26 0 -33 -8.5t-7 -40.5v-38h85l-9 -68h-76v-402h-136v402z" />
    <glyph glyph-name="f_f_i" unicode="ffi" horiz-adv-x="776" 
d="M327 402h-43v68h43v63q0 55 23 74t84 19h130v-69h-61q-26 0 -33 -8.5t-7 -40.5v-38h207l-9 -68h-198v-402h-136v402zM53 402h-43v68h43v63q0 55 23 74t84 19h130v-69h-61q-25 0 -32.5 -8.5t-7.5 -40.5v-38h128l-9 -68h-119v-402h-136v402zM626 470h130v-470h-130v470z
" />
    <glyph glyph-name="f_f_l" unicode="ffl" horiz-adv-x="799" 
d="M53 0v402h-43v68h43v63q0 55 23 74t84 19h130v-69h-61q-25 0 -32.5 -8.5t-7.5 -40.5v-38h230l-9 -68h-221v-402h-136zM357 0v402h-43v68h43v63q0 55 23 75t84 18l302 -6l-71 -63h-162q-25 0 -32.5 -8.5t-7.5 -40.5v-38h85l-9 -68h-76v-402h-136zM637 0v620h130v-620h-130
z" />
    <glyph glyph-name=".notdef" horiz-adv-x="494" 
d="M87 40v498h320v-498h-320zM158 117l83 150l85 -150l13 22l-86 151l86 153l-13 23l-85 -152l-83 151l-11 -22l83 -151l-83 -153zM52 -5l-12 12v568l12 12h391l11 -12v-568l-11 -12h-391zM430 21v540h-364v-540h364z" />
    <glyph glyph-name=".null" horiz-adv-x="600" 
 />
    <glyph glyph-name="nonmarkingreturn" horiz-adv-x="333" 
 />
    <glyph glyph-name="CR" unicode="&#xd;" horiz-adv-x="514" 
 />
    <glyph glyph-name="space" unicode=" " horiz-adv-x="153" 
 />
    <glyph glyph-name="exclam" unicode="!" horiz-adv-x="261" 
d="M101 188l-37 432h130l-39 -432h-54zM129 -4q-32 0 -37.5 10.5t-5.5 35.5q0 27 5.5 36.5t37.5 9.5q34 0 40 -9.5t6 -36.5q0 -25 -6.5 -35.5t-39.5 -10.5z" />
    <glyph glyph-name="quotedbl" unicode="&#x22;" horiz-adv-x="401" 
d="M62 407l-16 214h120l-15 -214h-89zM251 407l-16 214h120l-15 -214h-89z" />
    <glyph glyph-name="numbersign" unicode="#" horiz-adv-x="703" 
d="M120 0l58 185h-135l18 57h135l41 128h-136l17 57h137l46 147h76l-47 -147h117l47 147h76l-47 -147h132l-18 -57h-131l-41 -128h133l-17 -57h-133l-59 -185h-76l59 185h-118l-58 -185h-76zM389 242l41 128h-117l-41 -128h117z" />
    <glyph glyph-name="dollar" unicode="$" horiz-adv-x="372" 
d="M194 -9q-46 0 -86 6.5t-64.5 23.5t-24.5 50v145l133 14v-102q0 -14 6.5 -22.5t27.5 -8.5q13 0 20.5 4.5t10.5 12t3 17.5v57q0 23 -10.5 43.5t-41.5 30.5l-66 21q-44 14 -63.5 36t-19.5 71v138q0 44 24 65t63.5 27.5t85.5 6.5q43 0 79.5 -7t59 -24.5t22.5 -48.5v-145
l-133 -18v95q0 30 -8 37.5t-25 7.5q-18 0 -26.5 -9t-8.5 -40v-46q0 -20 7 -39.5t30 -27.5l75 -25q47 -16 68 -38t21 -69v-137q0 -42 -22 -64t-58 -30t-79 -8zM84 -93l17 148l83 -6l-18 -142h-82zM247 565l-80 20l17 138h84z" />
    <glyph glyph-name="percent" unicode="%" horiz-adv-x="555" 
d="M56 -44l340 674h84l-342 -674h-82zM421 1q-39 0 -59 8.5t-27.5 23.5t-7.5 34v130q0 18 7.5 33.5t27.5 24t60 8.5q35 0 55 -8.5t29 -23t9 -33.5v-130q0 -20 -9 -35t-29 -23.5t-56 -8.5zM420 60q14 0 18.5 7t4.5 16v101q0 8 -4.5 15.5t-17.5 7.5q-14 0 -18 -7.5t-4 -15.5
v-102q0 -8 4 -15t17 -7zM134 359q-39 0 -59 8.5t-27.5 23.5t-7.5 33v130q0 19 7.5 34t27.5 23.5t60 8.5q35 0 55.5 -8t29 -22.5t8.5 -34.5v-130q0 -19 -9 -34.5t-29 -23.5t-56 -8zM133 417q14 0 18.5 7t4.5 16v101q0 8 -4 16t-18 8q-13 0 -17.5 -8t-4.5 -16v-102q0 -8 4 -15
t17 -7z" />
    <glyph glyph-name="ampersand" unicode="&#x26;" horiz-adv-x="495" 
d="M235 -4q-73 0 -111.5 16t-53 44.5t-14.5 63.5v112q0 33 9 56.5t32 38.5t65 19q-37 5 -60 14.5t-33 30t-10 53.5v77q0 50 16.5 76t54.5 35t98 9q56 0 92 -8.5t53 -33.5t17 -78v-76l-130 -35v69q0 15 -3.5 24t-12 13t-23.5 4q-12 0 -20 -4t-11.5 -10.5t-3.5 -15.5v-34
q0 -36 4 -54t17.5 -24t42.5 -7h34v-44l-34 -1q-27 -2 -41 -12t-18 -34t-5 -69v-69q0 -8 1.5 -15.5t5.5 -12t11.5 -7t18.5 -2.5q12 0 19.5 3t11.5 8.5t5 12.5t1 13v170h207l-27 -99h-46v-32q0 -44 -5 -78.5t-21 -58t-48 -36t-85 -12.5z" />
    <glyph glyph-name="quotesingle" unicode="'" horiz-adv-x="211" 
d="M62 407l-16 214h120l-15 -214h-89z" />
    <glyph glyph-name="parenleft" unicode="(" horiz-adv-x="447" 
d="M343 -123q-64 1 -117 33t-91 86t-58.5 122.5t-20.5 140.5q0 80 22.5 156t63 137t95 98t117.5 37v-56q-35 -4 -63.5 -26t-50 -58.5t-36 -82.5t-21.5 -97t-7 -102q0 -61 10.5 -119.5t31 -105.5t52 -75.5t73.5 -30.5v-57z" />
    <glyph glyph-name="parenright" unicode=")" horiz-adv-x="447" 
d="M104 690q64 -1 117 -33t91 -86.5t59 -122t21 -141.5q0 -78 -23 -154.5t-63.5 -137.5t-95 -98t-117.5 -37v56q35 4 63.5 26t50 58t36 82t21.5 97.5t7 102.5q0 62 -10 119.5t-31 105t-52.5 76t-73.5 30.5v57z" />
    <glyph glyph-name="asterisk" unicode="*" horiz-adv-x="467" 
d="M156 271l-56 43l110 117l-158 31l21 64l147 -67l-20 160h69l-20 -160l147 67l20 -63l-157 -32l109 -118l-54 -39l-79 140z" />
    <glyph glyph-name="plus" unicode="+" horiz-adv-x="489" 
d="M43 289v69h403v-69h-403zM274 117h-68v403h68v-403zM43 289v69h403v-69h-403z" />
    <glyph glyph-name="comma" unicode="," horiz-adv-x="220" 
d="M48 -137q20 48 32 80t12 58q-21 0 -25.5 11t-4.5 29q0 19 2 29t12 14t34 4q34 0 40 -9.5t6 -36.5t-8.5 -62.5t-20 -67.5t-21.5 -49h-58z" />
    <glyph glyph-name="hyphen" unicode="-" horiz-adv-x="432" 
d="M45 253v105h342v-105h-342z" />
    <glyph glyph-name="period" unicode="." horiz-adv-x="208" 
d="M102 -4q-33 0 -38.5 10.5t-5.5 35.5q0 27 5.5 36.5t38.5 9.5q34 0 39.5 -9.5t5.5 -36.5q0 -25 -6 -35.5t-39 -10.5z" />
    <glyph glyph-name="slash" unicode="/" horiz-adv-x="487" 
d="M32 -44l340 674h83l-342 -674h-81z" />
    <glyph glyph-name="zero" unicode="0" horiz-adv-x="396" 
d="M25 194v298q0 39 11 64.5t33 41t54 22t74 6.5q40 0 72.5 -6.5t55.5 -22t34.5 -41.5t11.5 -65v-297h-133v270q0 24 -4 35t-12.5 15.5t-24.5 4.5q-12 0 -21 -5.5t-13 -17t-4 -31.5v-271h-134zM197 -7q-42 0 -74 6.5t-54 22t-33 41.5t-11 64v299h134v-272q0 -19 4 -31
t13 -17t21 -5q16 0 24.5 4t12.5 16t4 34v271h133v-298q0 -39 -11.5 -65t-34.5 -41.5t-55.5 -22t-72.5 -6.5z" />
    <glyph glyph-name="one" unicode="1" horiz-adv-x="326" 
d="M168 0v446l-94 -101l-71 67l168 208h126l1 -620h-130z" />
    <glyph glyph-name="two" unicode="2" horiz-adv-x="372" 
d="M19 0v77q0 61 5 99t15.5 61t29 38t46.5 31q14 8 28 14.5t27 13.5q28 17 41 36.5t13 50.5v53q0 27 -8 38.5t-23 11.5h-11q-12 0 -19 -6.5t-10 -17t-3 -25.5v-94l-131 29v96q0 47 16 72t48 34t83 9h44q50 0 82 -9.5t47 -33.5t15 -71v-76q0 -64 -24.5 -100.5t-65.5 -65.5
q-14 -10 -29.5 -19.5t-24.5 -14.5q-26 -16 -39.5 -35t-18 -42t-4.5 -51l206 1l-24 -104h-311z" />
    <glyph glyph-name="three" unicode="3" horiz-adv-x="375" 
d="M185 -3q-69 0 -104.5 14t-48 44t-12.5 76v81l130 -12v-41q0 -33 9 -44t23 -11h10q16 0 24.5 11.5t8.5 42.5v50q0 27 -5 40.5t-13 17.5t-21 4h-103v88h81q16 0 30 4.5t22.5 21t8.5 53.5v45q0 25 -7.5 33.5t-22.5 8.5h-15q-10 0 -17 -5t-10 -13.5t-3 -23.5v-65l-130 19v52
q0 67 39 99.5t111 32.5h44q41 0 73 -11.5t50 -41.5t18 -87v-32q0 -34 -13 -60t-32.5 -43.5t-38.5 -26.5t-31 -9v-2q13 0 32 -5t38 -17t32 -31.5t13 -47.5l1 -74q0 -69 -42 -102t-115 -33h-14z" />
    <glyph glyph-name="four" unicode="4" horiz-adv-x="457" 
d="M233 0l2 120h-195l-38 62l205 438h169l-3 -395h86l-24 -105h-60l1 -120h-143zM150 225h91v236z" />
    <glyph glyph-name="five" unicode="5" horiz-adv-x="383" 
d="M177 -2q-63 0 -96.5 16.5t-46 48t-12.5 77.5v79l136 -21v-38q0 -32 6.5 -44t22.5 -12h14q19 0 25.5 17.5t6.5 50.5v101q0 28 -3 43t-9.5 20.5t-17.5 5.5h-9q-13 0 -21.5 -9t-12 -22.5t-4.5 -27.5l-128 26v311h329v-104h-199v-103q4 4 16.5 9t29 8.5t33.5 3.5h27
q13 0 29.5 -4t32 -18t26.5 -42.5t11 -78.5v-130q0 -58 -17 -91.5t-41 -48.5t-46.5 -19t-34.5 -4h-47z" />
    <glyph glyph-name="six" unicode="6" horiz-adv-x="377" 
d="M191 -6q-33 0 -63 4t-54 18t-37.5 42.5t-13.5 77.5v341q0 57 17 89t54.5 46t96.5 14q49 0 86 -10.5t57.5 -36t20.5 -72.5v-65l-127 -10v33q0 29 -8.5 41t-28.5 12q-21 0 -29.5 -12t-8.5 -41v-107q5 13 24.5 24t69.5 11q38 0 62.5 -14.5t36.5 -40.5t12 -62v-140
q0 -49 -13.5 -78t-36.5 -42.5t-53.5 -17.5t-63.5 -4zM190 103q14 0 22.5 6t12 21.5t3.5 41.5v84q0 19 -3 31.5t-11 18.5t-24 6q-19 0 -28 -13t-9 -43v-84q0 -26 3.5 -41.5t11.5 -21.5t22 -6z" />
    <glyph glyph-name="seven" unicode="7" horiz-adv-x="409" 
d="M32 0l190 516h-210l22 104h374l-224 -620h-152z" />
    <glyph glyph-name="eight" unicode="8" horiz-adv-x="378" 
d="M161 -3q-53 0 -84 14t-43.5 46.5t-12.5 87.5v44q0 48 13 73t31 36.5t32 13.5q-14 5 -31 17t-29 37.5t-12 67.5v39q0 51 11.5 84.5t42 49.5t84.5 16h49q80 0 110 -34t30 -108v-47q0 -40 -13 -65.5t-31.5 -38.5t-35.5 -18q17 -3 37 -15.5t34 -38t14 -69.5v-28
q0 -63 -14 -99t-47 -50.5t-89 -14.5h-46zM188 103q15 0 23 5t11.5 18t3.5 38v61q0 18 -3 29t-10.5 15.5t-23.5 4.5q-14 0 -22.5 -4.5t-12 -15.5t-3.5 -29v-63q0 -24 4 -36.5t12 -17.5t21 -5zM189 373q14 0 22 5t11.5 17.5t3.5 33.5v47q0 17 -3 28t-10.5 16t-23.5 5
q-14 0 -22.5 -5t-12 -16t-3.5 -28v-47q0 -21 3.5 -33.5t11.5 -17.5t23 -5z" />
    <glyph glyph-name="nine" unicode="9" horiz-adv-x="377" 
d="M186 -7q-49 0 -86 10.5t-57.5 36t-20.5 72.5v79l127 -8v-29q0 -29 8.5 -41t28.5 -12q21 0 29.5 12t8.5 41v107q-5 -13 -24.5 -24t-69.5 -11q-37 0 -62 14.5t-37 41t-12 61.5v140q0 50 13.5 78.5t36.5 42t53.5 17.5t63.5 4q32 0 62.5 -4t54.5 -18t37.5 -42.5t13.5 -77.5
v-341q0 -56 -17 -88.5t-54 -46.5t-97 -14zM187 307q19 0 28 13t9 43v84q0 27 -3.5 42t-11.5 21t-22 6t-22.5 -6t-12 -21t-3.5 -42v-84q0 -18 3 -30.5t11.5 -19t23.5 -6.5z" />
    <glyph glyph-name="colon" unicode=":" horiz-adv-x="230" 
d="M102 346q-33 0 -38.5 10.5t-5.5 35.5q0 27 5.5 36.5t38.5 9.5q34 0 39.5 -9.5t5.5 -36.5q0 -25 -6 -35.5t-39 -10.5zM102 -4q-33 0 -38.5 10.5t-5.5 35.5q0 27 5.5 36.5t38.5 9.5q34 0 39.5 -9.5t5.5 -36.5q0 -25 -6 -35.5t-39 -10.5z" />
    <glyph glyph-name="semicolon" unicode=";" horiz-adv-x="234" 
d="M48 -137q20 48 32 80t12 58q-19 0 -23 11t-4 29q0 19 1.5 29t11.5 14t32 4q32 0 37.5 -9.5t5.5 -36.5t-7.5 -62.5t-18.5 -67.5t-21 -49h-58zM102 346q-33 0 -38.5 10.5t-5.5 35.5q0 27 5.5 36.5t38.5 9.5q34 0 39.5 -9.5t5.5 -36.5q0 -25 -6 -35.5t-39 -10.5z" />
    <glyph glyph-name="less" unicode="&#x3c;" horiz-adv-x="363" 
d="M289 104l-247 180v85l247 181v-106l-174 -118l174 -117v-105z" />
    <glyph glyph-name="equal" unicode="=" horiz-adv-x="430" 
d="M43 289v69h379v-69h-379zM43 85v69h379v-69h-379z" />
    <glyph glyph-name="greater" unicode="&#x3e;" horiz-adv-x="363" 
d="M74 104v105l174 117l-174 118v106l247 -181v-85z" />
    <glyph glyph-name="question" unicode="?" horiz-adv-x="415" 
d="M111 148v187h97q16 0 23 5t9 16.5t2 30.5v85q0 24 -8 33.5t-23 9.5h-11q-11 0 -18.5 -5t-11 -15t-3.5 -23v-73l-130 15v77q0 64 43 99.5t114 35.5h20q81 0 119.5 -38t38.5 -102v-97q0 -77 -29.5 -112t-91.5 -37l-34 -1l-20 -91h-86zM156 -5q-28 0 -35.5 8t-7.5 38t7.5 38
t35.5 8q29 0 37 -8t8 -38q0 -29 -8 -37.5t-37 -8.5z" />
    <glyph glyph-name="at" unicode="@" horiz-adv-x="741" 
d="M366 -81q-105 3 -176 37.5t-106.5 104.5t-35.5 176q0 96 22 157.5t64.5 96t105 48t142.5 13.5q95 0 165 -28t108.5 -87.5t38.5 -155.5q0 -28 -1.5 -60t-8.5 -63t-23.5 -57.5t-47.5 -42t-81 -15.5q-34 0 -57 18t-23 57q-8 -16 -21.5 -22t-35.5 -6h-53q-45 0 -67 11
t-29 30.5t-7 43.5v20q0 42 17 64.5t65 22.5h86v50q-1 15 -6.5 21.5t-23.5 6.5h-12q-29 0 -29 -28v-22h-90v26q0 35 26 53.5t72 18.5h38q50 0 75.5 -9t35 -26t9.5 -43v-154q0 -28 3.5 -42t9.5 -19t14 -5q12 0 18.5 7t10 24t5 46t1.5 72q0 47 -8 87t-27 69.5t-53.5 45.5
t-89.5 16q-76 0 -122 -25t-66 -78t-20 -137q0 -82 19 -137t63.5 -82t118.5 -27q21 0 51.5 1.5t59 7t42.5 13.5l24 -52q-34 -22 -85 -32.5t-105 -9.5zM378 143q10 0 20 8t10 29v51h-44q-19 0 -25 -8.5t-6 -23.5v-22q0 -18 8.5 -26t28.5 -8h8z" />
    <glyph glyph-name="A" unicode="A" horiz-adv-x="402" 
d="M4 0l128 620h138l128 -620h-139l-24 126l21 -19h-115l17 19l-20 -126h-134zM163 198l-11 14h97l-16 -14l-30 242l-1 24h-5l-1 -24z" />
    <glyph glyph-name="B" unicode="B" horiz-adv-x="386" 
d="M28 0v620h208q40 0 67.5 -10t42.5 -36t15 -74v-30q0 -30 -8.5 -57t-24.5 -44t-38 -18v-3q27 -1 44 -17t24 -40t7 -50v-94q0 -51 -9.5 -83.5t-36.5 -48t-82 -15.5h-209zM162 103h32q12 0 20 5.5t12 16.5t4 30v84q0 27 -12 36t-29 9h-27v-181zM162 386h29q12 0 20 6t13 19
t5 36v23q0 18 -2.5 30t-10.5 18t-24 6h-30v-138z" />
    <glyph glyph-name="C" unicode="C" horiz-adv-x="377" 
d="M194 -8q-89 0 -129.5 32.5t-40.5 87.5v384q0 71 39.5 100.5t127.5 29.5q82 0 125 -29t42 -102v-132l-131 -16v115q0 29 -6 43t-30 14q-23 0 -28 -16t-5 -40v-319q0 -17 6 -29.5t27 -12.5q23 0 29.5 12.5t6.5 29.5v107l131 14v-153q0 -55 -42.5 -87.5t-121.5 -32.5z" />
    <glyph glyph-name="D" unicode="D" horiz-adv-x="386" 
d="M28 620h257q47 0 62 -21.5t15 -68.5v-439q0 -48 -15 -69.5t-60 -21.5h-259v620zM203 104q17 0 21.5 9.5t4.5 23.5v347q0 16 -5 24t-19 8h-45v-412h43z" />
    <glyph glyph-name="E" unicode="E" horiz-adv-x="362" 
d="M28 620h318v-104h-185v-128h163l-16 -104h-147v-180h185v-104h-318v620z" />
    <glyph glyph-name="F" unicode="F" horiz-adv-x="361" 
d="M28 620h318v-104h-185v-128h163l-16 -104h-147v-284h-133v620z" />
    <glyph glyph-name="G" unicode="G" horiz-adv-x="381" 
d="M194 -7q-59 0 -96.5 14t-55.5 40.5t-18 63.5v388q0 71 40.5 99t126.5 28q82 0 125.5 -28t43.5 -100v-85l-134 -5v63q0 29 -6.5 38t-26.5 9q-22 0 -28.5 -10.5t-6.5 -35.5v-340q0 -11 3.5 -17.5t11.5 -9.5t22 -3q13 0 21 3t11.5 9.5t3.5 17.5v89h-44l8 112h165v-222
q0 -37 -19.5 -63.5t-56.5 -40.5t-90 -14z" />
    <glyph glyph-name="H" unicode="H" horiz-adv-x="390" 
d="M28 620h133v-232h68v232h133v-620h-133v284h-68v-284h-133v620z" />
    <glyph glyph-name="I" unicode="I" horiz-adv-x="189" 
d="M28 620h133v-620h-133v620z" />
    <glyph glyph-name="J" unicode="J" horiz-adv-x="244" 
d="M15 0l-17 104h51q19 0 27 5t9.5 20t1.5 46v445h134v-488q0 -49 -7.5 -78t-34.5 -41.5t-84 -12.5h-80z" />
    <glyph glyph-name="K" unicode="K" horiz-adv-x="417" 
d="M300 -19l-191 351l184 299l99 -64l-147 -225l174 -299zM28 620h134v-620h-134v620z" />
    <glyph glyph-name="L" unicode="L" horiz-adv-x="344" 
d="M28 620h133v-516h172v-104h-305v620z" />
    <glyph glyph-name="M" unicode="M" horiz-adv-x="568" 
d="M28 0v620h168l87 -345v-6h2v6l87 345h168v-620h-133v336h-2v-24l-67 -222h-108l-67 221v24h-2v-335h-133z" />
    <glyph glyph-name="N" unicode="N" horiz-adv-x="416" 
d="M28 0v620h133l92 -338l1 -6h1v344h133v-620h-136l-90 292l-1 7h-1v-299h-132z" />
    <glyph glyph-name="O" unicode="O" horiz-adv-x="383" 
d="M191 -7q-89 0 -128 32t-39 86v399q0 53 38.5 85.5t128.5 32.5q91 0 129.5 -32.5t38.5 -85.5v-398q0 -54 -39 -86.5t-129 -32.5zM191 102q22 0 30 11t8 35v328q0 23 -7.5 33.5t-30.5 10.5q-22 0 -29.5 -10.5t-7.5 -32.5v-330q0 -23 8 -34t29 -11z" />
    <glyph glyph-name="P" unicode="P" horiz-adv-x="386" 
d="M28 620h246q43 0 63.5 -10.5t27 -32t6.5 -53.5v-156q0 -36 -6 -67.5t-31 -51t-82 -19.5h-91v-230h-133v620zM205 334q19 0 26 11t7 37v78q0 38 -6 47t-25 9h-46v-182h44z" />
    <glyph glyph-name="Q" unicode="Q" horiz-adv-x="386" 
d="M194 -8q-89 0 -129.5 32.5t-40.5 87.5v384q0 71 40 100.5t127 29.5q83 0 126.5 -29.5t43.5 -101.5v-383q0 -55 -43.5 -87.5t-123.5 -32.5zM191 102q24 0 30 9.5t6 26.5v330q0 29 -5.5 40t-30.5 11q-23 0 -28 -13t-5 -37v-335q0 -16 7 -24t26 -8zM323 -146l-133 148l86 88
l142 -141z" />
    <glyph glyph-name="R" unicode="R" horiz-adv-x="404" 
d="M28 620h246q43 0 63.5 -10.5t27 -32t6.5 -53.5v-137q0 -36 -6 -67.5t-31 -51t-82 -19.5h-91v-249h-133v620zM283 -23l-110 280l89 2l38 -9l6 -5l101 -219zM205 353q19 0 26 11t7 37v59q0 38 -6 47t-25 9h-46v-163h44z" />
    <glyph glyph-name="S" unicode="S" horiz-adv-x="374" 
d="M195 -9q-46 0 -86 6.5t-64.5 23.5t-24.5 50v145l133 14v-102q0 -14 6.5 -22.5t27.5 -8.5q14 0 21 4.5t10 12t3 17.5v57q0 23 -10.5 43.5t-41.5 30.5l-66 21q-43 14 -63 36t-20 71v138q0 44 24 65t64 27.5t85 6.5q43 0 79.5 -7t59 -24.5t22.5 -48.5v-145l-133 -18v95
q0 30 -8 37.5t-25 7.5q-18 0 -26.5 -9t-8.5 -40v-46q0 -20 7 -39.5t30 -27.5l75 -25q47 -16 68 -38t21 -69v-137q0 -42 -22 -64t-58 -30t-79 -8z" />
    <glyph glyph-name="T" unicode="T" horiz-adv-x="363" 
d="M115 516h-105v104h343v-104h-105v-516h-133v516z" />
    <glyph glyph-name="U" unicode="U" horiz-adv-x="382" 
d="M190 -5q-48 0 -86 9t-59 29.5t-21 55.5v531h133v-489q0 -9 3 -16t10.5 -11.5t19.5 -4.5q13 0 20.5 4.5t11 12t3.5 15.5v489h133v-531q0 -35 -22 -55.5t-60 -29.5t-86 -9z" />
    <glyph glyph-name="V" unicode="V" horiz-adv-x="382" 
d="M125 0l-129 620h134l60 -418l1 -24h1l1 24l54 418h139l-128 -620h-133z" />
    <glyph glyph-name="W" unicode="W" horiz-adv-x="593" 
d="M130 0l-126 620h134l58 -350l1 -23h1v23l49 324h100l48 -324l1 -23h1l1 23l52 350h138l-125 -620h-124l-39 285l-1 24h-1l-1 -24l-42 -285h-125z" />
    <glyph glyph-name="X" unicode="X" 
d="M-7 0l107 325l-101 295h133l58 -200l1 -39h2l1 39l58 200h134l-101 -295l107 -325h-141l-58 203l-1 44h-2l-1 -44l-59 -203h-137z" />
    <glyph glyph-name="Y" unicode="Y" horiz-adv-x="392" 
d="M131 0v198l-133 422h122l78 -267l1 -22h1l1 22l71 267h122l-133 -421v-199h-130z" />
    <glyph glyph-name="Z" unicode="Z" horiz-adv-x="339" 
d="M-2 0l168 516h-156v104h325l-170 -516h167v-104h-334z" />
    <glyph glyph-name="bracketleft" unicode="[" horiz-adv-x="291" 
d="M39 630h217v-49h-87v-589h87v-49h-217v687z" />
    <glyph glyph-name="backslash" unicode="\" horiz-adv-x="487" 
d="M374 -44l-342 674h83l340 -674h-81z" />
    <glyph glyph-name="bracketright" unicode="]" horiz-adv-x="291" 
d="M36 -8h86v590h-86v48h216v-687h-216v49z" />
    <glyph glyph-name="asciicircum" unicode="^" horiz-adv-x="409" 
d="M56 644l93 103h111l94 -103h-82l-67 57l-67 -57h-82z" />
    <glyph glyph-name="underscore" unicode="_" horiz-adv-x="606" 
d="M0 -161v104h642v-104h-642z" />
    <glyph glyph-name="grave" unicode="`" horiz-adv-x="204" 
d="M122 523l-122 103h111l93 -103h-82z" />
    <glyph glyph-name="a" unicode="a" horiz-adv-x="396" 
d="M116 0q-41 0 -59 13t-23 42.5t-5 76.5v218q0 39 11 65.5t37 40.5t71 14h216v-470h-130v366h-45q-12 0 -18.5 -4t-9 -12t-2.5 -22v-181q0 -20 3 -29t9.5 -11.5t18.5 -2.5h29l-13 -104h-90z" />
    <glyph glyph-name="b" unicode="b" horiz-adv-x="396" 
d="M32 0v627h130v-157h85q46 0 72 -14t37 -40.5t11 -65.5v-208q0 -54 -4.5 -85t-24.5 -44t-69 -13h-237zM162 104h42q13 0 19.5 2.5t10 11.5t3.5 29v181q0 14 -2.5 22t-9 12t-18.5 4h-45v-262z" />
    <glyph glyph-name="c" unicode="c" horiz-adv-x="381" 
d="M192 -5q-69 0 -105 16t-49 44t-13 62v237q0 35 13 62.5t49 43.5t107 16q61 0 97.5 -15t52.5 -42t16 -63v-76l-130 -9v61q0 14 -7.5 29t-29.5 15q-23 0 -30.5 -15t-7.5 -29v-190q0 -14 7.5 -27.5t28.5 -13.5q24 0 31.5 13.5t7.5 29.5v52l130 10v-89q0 -36 -16 -63.5
t-52.5 -43t-99.5 -15.5z" />
    <glyph glyph-name="d" unicode="d" horiz-adv-x="396" 
d="M127 0q-39 0 -60.5 8.5t-29.5 34.5t-8 77v239q0 39 13 63t39.5 36t66.5 12h86v157h130v-627h-237zM234 104v262h-44q-17 0 -24 -7.5t-7 -26.5v-188q0 -28 7.5 -34t25.5 -6h42z" />
    <glyph glyph-name="e" unicode="e" 
d="M192 -5q-69 0 -105 16t-49 44t-13 62v237q0 35 13 62.5t49 43.5t107 16q61 0 97.5 -15t52.5 -42t16 -63v-85l-130 -9v70q0 14 -7.5 29t-29.5 15q-23 0 -30.5 -15t-7.5 -29v-190q0 -14 7.5 -27.5t28.5 -13.5q24 0 31.5 13.5t7.5 29.5v25l130 9v-61q0 -36 -16 -63.5
t-52.5 -43t-99.5 -15.5zM40 210v68h320v-68h-320z" />
    <glyph glyph-name="f" unicode="f" horiz-adv-x="274" 
d="M53 402h-43v68h43v63q0 55 23 74t84 19h125v-69h-62q-25 0 -32 -8.5t-7 -40.5v-38h85l-9 -68h-76v-402h-131v402z" />
    <glyph glyph-name="g" unicode="g" horiz-adv-x="396" 
d="M78 -179l-16 104h132q24 0 32 10.5t8 39.5v391h-45q-12 0 -18.5 -4t-9 -12t-2.5 -22v-181q0 -20 3 -29t9.5 -11.5t18.5 -2.5h29l-13 -104h-90q-41 0 -59 13t-23 42.5t-5 76.5v218q0 39 11 65.5t37 40.5t71 14h216v-530q0 -56 -24.5 -87.5t-88.5 -31.5h-173z" />
    <glyph glyph-name="h" unicode="h" horiz-adv-x="395" 
d="M32 627h130v-206q14 25 37 38.5t61 13.5q46 0 68.5 -16t30.5 -39t8 -45v-373h-130v327q0 22 -7.5 34t-29.5 12q-18 0 -27 -8.5t-11 -26.5v-338h-130v627z" />
    <glyph glyph-name="i" unicode="i" horiz-adv-x="192" 
d="M31 0v470h130v-470h-130zM96 507q-43 0 -55.5 12.5t-12.5 44.5q0 34 12.5 46t55.5 12q44 0 56 -12t12 -46q0 -32 -12 -44.5t-56 -12.5z" />
    <glyph glyph-name="j" unicode="j" horiz-adv-x="264" 
d="M-17 -179l-16 104h96q24 0 32 10.5t8 39.5v495h130v-530q0 -56 -24.5 -87.5t-87.5 -31.5h-138zM168 507q-43 0 -55.5 12.5t-12.5 44.5q0 34 12.5 46t55.5 12q44 0 56 -12t12 -46q0 -32 -12 -44.5t-56 -12.5z" />
    <glyph glyph-name="k" unicode="k" horiz-adv-x="394" 
d="M32 0v622h130v-622h-130zM255 0l-94 190h-52v97h52l99 195l119 -44l-104 -186l128 -252h-148z" />
    <glyph glyph-name="l" unicode="l" horiz-adv-x="194" 
d="M32 622h130v-622h-130v622z" />
    <glyph glyph-name="m" unicode="m" horiz-adv-x="600" 
d="M32 0v470h106l13 -49q14 29 42.5 43t66.5 14q39 0 61.5 -12.5t32.5 -31.5t11 -39l-27 -25q9 47 29.5 70t46.5 30.5t51 7.5q45 0 68 -16t30.5 -39.5t7.5 -45.5v-377h-130v328q0 26 -8.5 36t-27.5 10q-18 0 -28 -10t-10 -36v-328h-130v333q0 21 -9 31t-29 10q-17 0 -26 -9
t-11 -27v-338h-130z" />
    <glyph glyph-name="n" unicode="n" horiz-adv-x="395" 
d="M32 470h106l13 -49q14 28 42.5 43t66.5 15q50 0 78.5 -25t28.5 -77v-377h-130v332q0 22 -8.5 32t-28.5 10q-17 0 -26.5 -9t-11.5 -27v-338h-130v470z" />
    <glyph glyph-name="o" unicode="o" 
d="M192 -5q-69 0 -105 16t-49 44t-13 62v237q0 35 13 62.5t49 43.5t107 16q61 0 97.5 -15t52.5 -42t16 -63v-239q0 -36 -16 -63.5t-52.5 -43t-99.5 -15.5zM191 101q24 0 31.5 13.5t7.5 29.5v188q0 14 -7.5 29t-29.5 15q-23 0 -30.5 -15t-7.5 -29v-190q0 -14 7.5 -27.5
t28.5 -13.5z" />
    <glyph glyph-name="p" unicode="p" horiz-adv-x="396" 
d="M32 470h237q49 0 69 -13t24.5 -44t4.5 -85v-208q0 -39 -11 -65.5t-37 -40.5t-72 -14h-85v-157h-130v627zM162 366v-262h45q12 0 18.5 4t9 12.5t2.5 21.5v181q0 20 -3.5 29t-10 11.5t-19.5 2.5h-42z" />
    <glyph glyph-name="q" unicode="q" horiz-adv-x="396" 
d="M364 470v-627h-130v157h-85q-46 0 -72 14t-37 40.5t-11 65.5v208q0 54 4.5 85t25 44t68.5 13h237zM234 366h-42q-12 0 -19.5 -2.5t-10.5 -11.5t-3 -29v-181q0 -13 2.5 -21.5t9 -12.5t18.5 -4h45v262z" />
    <glyph glyph-name="r" unicode="r" horiz-adv-x="312" 
d="M32 0v470h106l13 -49q14 28 40.5 42.5t49.5 14.5q28 0 43 -2.5t22 -7.5l-6 -113q-10 3 -28.5 5.5t-41.5 2.5q-25 0 -45.5 -15t-22.5 -49v-299h-130z" />
    <glyph glyph-name="s" unicode="s" horiz-adv-x="342" 
d="M166 -6q-76 0 -109.5 29.5t-33.5 82.5v61l117 15v-69q0 -9 2 -16.5t8.5 -12t19.5 -4.5q15 0 22.5 7.5t7.5 25.5q0 35 -3 51t-24 26q-8 5 -18 10t-20.5 11t-20.5 11t-18 10q-32 18 -47.5 35t-20.5 34t-5 36v22q0 61 36.5 89t114.5 28t111.5 -25t33.5 -81v-52l-118 -15v55
q0 16 -7 23.5t-24 7.5q-12 0 -18.5 -4.5t-8.5 -11.5t-2 -16q0 -28 3.5 -38.5t15.5 -19.5q6 -4 17.5 -11t31 -17t46.5 -24q34 -17 49 -42t15 -69v-18q0 -63 -32.5 -93.5t-120.5 -30.5z" />
    <glyph glyph-name="t" unicode="t" horiz-adv-x="276" 
d="M184 0q-38 0 -69 6.5t-49 28t-18 67.5v271h-33v97h45l22 88h95v-88h86l-29 -97h-57v-210q0 -33 11.5 -46t35.5 -13h41v-104h-81z" />
    <glyph glyph-name="u" unicode="u" horiz-adv-x="394" 
d="M133 0q-45 0 -68 14t-30.5 36t-7.5 44v376h130v-319q0 -23 7.5 -35t28.5 -12h39v366h130v-470h-229z" />
    <glyph glyph-name="v" unicode="v" horiz-adv-x="350" 
d="M132 0l-139 470h121l65 -249l-5 4l56 245h123l-139 -470h-82z" />
    <glyph glyph-name="w" unicode="w" horiz-adv-x="583" 
d="M-8 470h130l58 -221l58 221h103l57 -209l58 209h130l-132 -470h-82l-83 276l-83 -276h-82z" />
    <glyph glyph-name="x" unicode="x" horiz-adv-x="339" 
d="M229 0l-99 241l97 229h111l-95 -229l97 -241h-111zM-1 0l97 241l-95 229h111l97 -229l-99 -241h-111zM138 182v104h66v-104h-66z" />
    <glyph glyph-name="y" unicode="y" 
d="M-19 -170l22 80h51q27 0 44.5 16t27.5 58l7 29l-141 457h124l69 -267l1 -31h1l1 31l70 267h126l-160 -522q-20 -62 -49 -90t-83 -28h-111z" />
    <glyph glyph-name="z" unicode="z" horiz-adv-x="332" 
d="M6 9l164 357h-155l22 104h274v-62l-138 -304h151l-39 -104h-279v9z" />
    <glyph glyph-name="braceleft" unicode="{" horiz-adv-x="347" 
d="M304 -135q-83 0 -132 14t-73 35t-31.5 42.5t-7.5 36.5q0 37 8 69t15.5 61.5t7.5 58.5q0 38 -15.5 58.5t-44.5 20.5v8q29 0 44.5 21t15.5 58q0 32 -7.5 60.5t-15.5 59t-8 69.5q0 15 7.5 36.5t31.5 42.5t73 35t132 14v-82q-32 0 -52.5 -5.5t-32.5 -15.5t-17 -23.5t-5 -28.5
q0 -12 5 -30.5t9.5 -42.5t4.5 -56q0 -49 -26 -78t-93 -38q67 -9 93 -38t26 -78q0 -26 -4.5 -50t-9.5 -44t-5 -35t4.5 -28.5t17 -23.5t33 -15.5t52.5 -5.5v-82z" />
    <glyph glyph-name="bar" unicode="|" horiz-adv-x="236" 
d="M66 649h104v-722h-104v722z" />
    <glyph glyph-name="braceright" unicode="}" horiz-adv-x="347" 
d="M43 -135v82q32 0 52.5 5.5t32.5 15.5t17 23.5t5 28.5t-4.5 35t-9.5 44t-5 50q0 49 26 78t93 38q-67 9 -93 38t-26 78q0 32 5 56t9.5 42.5t4.5 30.5q0 15 -5 28.5t-17.5 23.5t-33 15.5t-51.5 5.5v82q82 0 131 -14t73 -35t32 -42.5t8 -36.5q0 -39 -7.5 -69.5t-15.5 -59
t-8 -60.5q0 -37 15.5 -58t44.5 -21v-8q-29 0 -44.5 -20.5t-15.5 -58.5q0 -29 8 -58.5t15.5 -61.5t7.5 -69q0 -15 -8 -36.5t-32 -42.5t-73 -35t-131 -14z" />
    <glyph glyph-name="asciitilde" unicode="~" horiz-adv-x="447" 
d="M34 600q0 59 29.5 88t78.5 29q34 0 59 -8.5t46 -17.5t43 -9q18 0 31 10t13 28h79q0 -64 -32 -91.5t-75 -27.5q-34 0 -56 10t-41.5 19.5t-44.5 9.5q-15 0 -28.5 -10.5t-13.5 -29.5h-88z" />
    <glyph glyph-name="uni00A0" unicode="&#xa0;" horiz-adv-x="153" 
 />
    <glyph glyph-name="exclamdown" unicode="&#xa1;" horiz-adv-x="261" 
d="M136 479q33 0 39 -10t6 -36q0 -27 -5.5 -36.5t-39.5 -9.5q-33 0 -38 9.5t-5 36.5q0 26 5 36t38 10zM108 287h54l39 -432h-130z" />
    <glyph glyph-name="cent" unicode="&#xa2;" horiz-adv-x="372" 
d="M185 89q-69 0 -105 16t-48.5 43.5t-12.5 61.5v238q0 35 12.5 62t49 43t106.5 16q62 0 98 -15t52 -42t16 -63v-76l-130 -9v61q0 14 -7 29t-30 15t-30 -15t-7 -29v-189q0 -15 7 -28t29 -13q23 0 30.5 13.5t7.5 28.5v53l130 9v-88q0 -36 -16 -64t-52.5 -43t-99.5 -15z
M145 -85l47 771h28l-48 -771h-27z" />
    <glyph glyph-name="sterling" unicode="&#xa3;" horiz-adv-x="488" 
d="M362 -1q-31 0 -75 5t-90.5 9.5t-83.5 4.5q-27 0 -46.5 -5.5t-29.5 -13.5v42q37 46 54.5 102t17.5 131q0 43 -8.5 79t-17 69t-8.5 66q0 72 43 107.5t132 35.5q90 0 132 -33.5t42 -107.5v-43h-133v37q0 42 -13 54.5t-34 12.5q-16 0 -28 -11t-12 -35q0 -32 8.5 -69.5
t16.5 -79t8 -87.5q0 -78 -19 -119.5t-39 -52.5h10t11 -1q12 -1 24.5 -3.5t25 -4t24.5 -1.5q21 0 30.5 11t9.5 37v32l140 22v-66q0 -36 -7 -64t-26.5 -43.5t-58.5 -16.5zM35 262l10 57h287l-9 -57h-288z" />
    <glyph glyph-name="currency" unicode="&#xa4;" horiz-adv-x="476" 
d="M239 198q-45 0 -81.5 22t-58.5 59t-22 81q0 45 22 81.5t58.5 58.5t81.5 22q44 0 81 -22t58.5 -58.5t21.5 -81.5q0 -44 -21.5 -81t-58.5 -59t-81 -22zM239 288q29 0 50 21t21 50q0 30 -21 51t-50 21t-50.5 -21t-21.5 -51q0 -29 21.5 -50t50.5 -21zM92 164l-48 49l82 83
l54 -41zM388 165l-96 95l52 45l92 -92zM344 419l-47 49l91 83l49 -48zM135 417l-92 86l50 52l87 -87z" />
    <glyph glyph-name="yen" unicode="&#xa5;" horiz-adv-x="412" 
d="M139 0v198l-131 422h122l78 -267v-22h2v22l72 267h122l-132 -421v-199h-133zM19 129l9 68h364l-10 -68h-363zM19 255l9 68h364l-10 -68h-363z" />
    <glyph glyph-name="brokenbar" unicode="&#xa6;" horiz-adv-x="236" 
d="M66 -73v330h104v-330h-104zM66 350v299h104v-299h-104z" />
    <glyph glyph-name="section" unicode="&#xa7;" horiz-adv-x="427" 
d="M212 -288q-67 0 -106 9t-55.5 28t-16.5 47v128l130 9v-84q0 -14 8.5 -22t28.5 -8q15 0 22.5 4.5t10 14t2.5 24.5v46q0 36 -15 51t-38 23l-66 21q-45 15 -65 39.5t-20 76.5v114q0 28 9 47t33 29.5t68 11.5q-39 14 -61.5 35t-22.5 60v102q0 39 13.5 61.5t50 32.5t104.5 10
q71 0 106.5 -10t47.5 -30.5t12 -52.5v-112l-133 -18v80q0 25 -7.5 35t-25.5 10q-19 0 -27 -9t-8 -40v-63q0 -24 8.5 -35t28.5 -15l88 -20q41 -9 60 -30.5t19 -64.5v-111q0 -45 -12.5 -69t-36 -33t-54.5 -9q34 -9 49.5 -23t20 -33.5t4.5 -47.5v-106q0 -36 -16 -58.5
t-49.5 -33.5t-88.5 -11zM242 72q13 0 19.5 11.5t6.5 36.5v66q0 20 -9 29t-21 13q-7 2 -11 3l-8 2t-9.5 2.5t-14.5 2.5q-13 0 -19.5 -3.5t-8.5 -11.5t-2 -21v-64q0 -16 3.5 -24.5t9.5 -13.5t14 -9q13 -6 22 -9.5t16 -5.5t12 -4z" />
    <glyph glyph-name="dieresis" unicode="&#xa8;" horiz-adv-x="265" 
d="M200 518q-33 0 -38 10.5t-5 35.5q0 27 5 36t38 9q34 0 39.5 -9t5.5 -36q0 -25 -6 -35.5t-39 -10.5zM63 518q-32 0 -37.5 10.5t-5.5 35.5q0 27 5.5 36t37.5 9q34 0 40 -9t6 -36q0 -25 -6.5 -35.5t-39.5 -10.5z" />
    <glyph glyph-name="copyright" unicode="&#xa9;" horiz-adv-x="767" 
d="M386 -3q-73 0 -134 24.5t-106.5 67.5t-70.5 99t-25 119q0 67 25 125t70.5 102t106.5 68.5t134 24.5q67 0 127 -24.5t106 -68.5t72 -102t26 -125q0 -63 -26 -119t-72 -99t-106 -67.5t-127 -24.5zM386 60q52 0 98.5 19.5t82.5 52.5t56.5 77.5t20.5 94.5q0 53 -20.5 100
t-56.5 83t-82.5 56.5t-98.5 20.5q-55 0 -103 -20.5t-84 -56.5t-56 -83t-20 -100q0 -50 20 -94.5t56 -77.5t84 -52.5t103 -19.5zM382 120q-54 0 -82.5 12.5t-38.5 34.5t-10 48v186q0 28 10 49.5t38.5 34t83.5 12.5q49 0 77.5 -12t41 -33.5t12.5 -48.5v-59l-102 -8v48
q0 11 -6 23t-24 12q-17 0 -23 -12t-6 -23v-148q0 -11 5.5 -21.5t22.5 -10.5q19 0 25 10.5t6 22.5v41l102 7v-69q0 -29 -12.5 -50.5t-41 -33.5t-78.5 -12z" />
    <glyph glyph-name="ordfeminine" unicode="&#xaa;" horiz-adv-x="307" 
d="M101 350q-35 0 -50 8.5t-18.5 27.5t-3.5 49v142q0 26 7 43.5t27.5 26.5t57.5 8h158v-305h-102v237h-28q-12 0 -16 -5.5t-4 -18.5v-117q0 -19 4.5 -23.5t15.5 -4.5h19l-8 -68h-59z" />
    <glyph glyph-name="guillemotleft" unicode="&#xab;" horiz-adv-x="549" 
d="M394 46l-129 185l133 193h105l-133 -193l128 -185h-104zM175 46l-129 185l134 193h104l-133 -193l128 -185h-104z" />
    <glyph glyph-name="logicalnot" unicode="&#xac;" horiz-adv-x="662" 
d="M499 63v193h-466v90h596v-283h-130z" />
    <glyph glyph-name="uni00AD" unicode="&#xad;" horiz-adv-x="379" 
 />
    <glyph glyph-name="registered" unicode="&#xae;" horiz-adv-x="600" 
d="M288 241q-65 0 -118 31t-84 83t-31 117q0 64 31 115t84 81t118 30q63 0 115.5 -30t83 -81t30.5 -115q0 -65 -30.5 -117t-82.5 -83t-116 -31zM288 295q48 1 86.5 25t62 63.5t23.5 87.5t-23.5 87t-62 62.5t-86.5 23.5q-49 0 -88.5 -23.5t-63 -62.5t-23.5 -87t23.5 -88
t62.5 -64t89 -24zM320 334l-41 104l-10 6v-100h-56v258h104q26 0 33 -10t7 -30v-58q0 -27 -7 -40.5t-23 -14.5l45 -94zM269 491h19q8 0 10.5 4t2.5 16v23q0 16 -2 19.5t-11 3.5h-19v-66z" />
    <glyph glyph-name="macron" unicode="&#xaf;" horiz-adv-x="281" 
d="M0 524v80h281v-80h-281z" />
    <glyph glyph-name="degree" unicode="&#xb0;" horiz-adv-x="367" 
d="M185 508q-37 0 -66 15.5t-46 42.5t-17 60t17 60.5t46 44t66 16.5q34 0 63 -16.5t46 -44t17 -60.5t-17 -60t-46 -42.5t-63 -15.5zM185 572q21 0 38.5 15t17.5 39q0 23 -17.5 38.5t-38.5 15.5q-26 0 -42 -15.5t-16 -38.5q0 -24 16 -39t42 -15z" />
    <glyph glyph-name="plusminus" unicode="&#xb1;" horiz-adv-x="489" 
d="M206 519h68v-374h-68v374zM66 -27v75h352v-75h-352zM43 289v69h403v-69h-403z" />
    <glyph glyph-name="uni00B2" unicode="&#xb2;" horiz-adv-x="314" 
d="M20 237q0 60 1.5 94.5t8.5 54t20.5 30.5t37.5 23q8 3 14 6.5t12 6.5q32 12 45 21t16 18.5t3 18.5v32q0 20 -5 27.5t-17 7.5h-4q-9 0 -13 -3.5t-6 -10.5t-2 -18v-61l-112 20v62q0 46 23.5 60.5t72.5 14.5h86q49 0 71.5 -14.5t22.5 -59.5v-49q0 -42 -19 -69t-72 -51
q-4 -1 -9 -4.5t-11 -6.5q-23 -14 -34.5 -27t-15.5 -22.5t-4 -14.5l165 1l-16 -87h-259z" />
    <glyph glyph-name="uni00B3" unicode="&#xb3;" horiz-adv-x="315" 
d="M132 237q-58 0 -86 21t-28 66v57l111 -12v-27q0 -21 6 -28t15 -7h6q10 0 16 7t6 27v33q0 22 -7 28t-19 6l-64 1v67h50q16 0 28 8t12 39v29q0 16 -5 21t-15 5h-9q-10 0 -15 -6t-5 -20v-50l-111 20v48q0 33 21 52.5t67 19.5h96q40 0 66 -17.5t26 -73.5v-21
q0 -30 -14.5 -49.5t-31.5 -30t-28 -10.5l-34 -1l34 -1q11 0 28.5 -6.5t31.5 -20.5t14 -38l1 -48q0 -45 -27.5 -66.5t-75.5 -21.5h-60z" />
    <glyph glyph-name="acute" unicode="&#xb4;" horiz-adv-x="204" 
d="M0 523l93 103h111l-122 -103h-82z" />
    <glyph glyph-name="uni00B5" unicode="&#xb5;" horiz-adv-x="423" 
d="M138 0q-45 0 -68 14t-30.5 36t-7.5 44v376h130v-319q0 -23 7 -35t29 -12h38v366h130v-470h-228zM144 -179q-63 0 -87.5 31.5t-24.5 87.5v530h130v-495q0 -29 8 -39.5t32 -10.5h7l-16 -104h-49z" />
    <glyph glyph-name="paragraph" unicode="&#xb6;" horiz-adv-x="545" 
d="M178 -121v351h-59q-57 0 -82 19.5t-31 51t-6 67.5v156q0 32 6.5 53.5t27.5 32t63 10.5h215v-741h-134zM348 620h104v-741h-104v741zM186 535v85h187v-85h-187z" />
    <glyph glyph-name="periodcentered" unicode="&#xb7;" horiz-adv-x="206" 
d="M102 224q-33 0 -38.5 10.5t-5.5 35.5q0 27 5.5 36.5t38.5 9.5q34 0 39.5 -9.5t5.5 -36.5q0 -25 -6 -35.5t-39 -10.5z" />
    <glyph glyph-name="cedilla" unicode="&#xb8;" horiz-adv-x="197" 
d="M84 -199q-24 0 -44 7t-37 16l28 47q5 -7 19 -12.5t27 -5.5q20 0 30.5 11t10.5 25q0 10 -9 20.5t-27 10.5q-12 0 -22.5 -4t-15.5 -9l-35 25l52 68h52l-38 -46q16 10 36 10q43 0 63.5 -21.5t20.5 -48.5q0 -34 -28 -63.5t-83 -29.5z" />
    <glyph glyph-name="uni00B9" unicode="&#xb9;" horiz-adv-x="251" 
d="M114 237v289l-60 -65l-47 44l109 135h108l1 -403h-111z" />
    <glyph glyph-name="ordmasculine" unicode="&#xba;" horiz-adv-x="292" 
d="M142 344q-48 0 -72.5 10.5t-32.5 28.5t-8 40v154q0 23 8.5 41t33.5 28t75 10q44 1 70 -9t36.5 -28t10.5 -41v-154q0 -25 -11 -42.5t-37.5 -27.5t-72.5 -10zM145 413q18 0 23 9t5 19v121q0 9 -5 18.5t-22 10.5q-18 0 -23.5 -10t-5.5 -19v-122q0 -10 5 -18.5t23 -8.5z" />
    <glyph glyph-name="guillemotright" unicode="&#xbb;" horiz-adv-x="606" 
d="M299 46l128 185l-133 193h103l134 -193l-129 -185h-103zM79 46l128 185l-133 193h105l133 -193l-129 -185h-104z" />
    <glyph glyph-name="onequarter" unicode="&#xbc;" horiz-adv-x="760" 
d="M114 237v289l-60 -65l-47 44l109 135h108l1 -403h-111zM106 -44l382 674h104l-385 -674h-101zM559 3v77h-128l-47 69l154 257h151l-1 -257h64l-15 -69h-48v-77h-130zM503 149h61v127z" />
    <glyph glyph-name="onehalf" unicode="&#xbd;" horiz-adv-x="780" 
d="M114 237v289l-60 -65l-47 44l109 135h108l1 -403h-111zM106 -44l382 674h104l-385 -674h-101zM486 0q0 60 1.5 94.5t8.5 54t20.5 30.5t37.5 23q8 3 14 6.5t12 6.5q32 12 45 21t16 18.5t3 18.5v32q0 20 -5 27.5t-17 7.5h-4q-9 0 -13 -3.5t-6 -10.5t-2 -18v-61l-112 20v62
q0 46 23.5 60.5t72.5 14.5h86q49 0 71.5 -14.5t22.5 -59.5v-49q0 -42 -19 -69t-72 -51q-4 -1 -9 -4.5t-11 -6.5q-23 -14 -34.5 -27t-15.5 -22.5t-4 -14.5l165 1l-16 -87h-259z" />
    <glyph glyph-name="threequarters" unicode="&#xbe;" horiz-adv-x="777" 
d="M132 237q-58 0 -86 21t-28 66v57l111 -12v-27q0 -21 6 -28t15 -7h6q10 0 16 7t6 27v33q0 22 -7 28t-19 6l-64 1v67h50q16 0 28 8t12 39v29q0 16 -5 21t-15 5h-9q-10 0 -15 -6t-5 -20v-50l-111 20v48q0 33 21 52.5t67 19.5h96q40 0 66 -17.5t26 -73.5v-21
q0 -30 -14.5 -49.5t-31.5 -30t-28 -10.5l-34 -1l34 -1q11 0 28.5 -6.5t31.5 -20.5t14 -38l1 -48q0 -45 -27.5 -66.5t-75.5 -21.5h-60zM139 -44l382 674h104l-385 -674h-101zM576 2v77h-128l-47 69l154 257h151l-1 -257h64l-15 -69h-48v-77h-130zM520 148h61v127z" />
    <glyph glyph-name="questiondown" unicode="&#xbf;" horiz-adv-x="415" 
d="M296 324l1 -187h-98q-16 0 -23 -5t-8.5 -16.5t-1.5 -30.5v-85q0 -24 8 -33.5t23 -9.5h10q13 0 20 5t10 15t3 23v73l130 -15v-77q0 -63 -42 -99t-114 -36h-20q-81 0 -119.5 38.5t-38.5 101.5v97q0 77 29.5 112t91.5 37l33 1l20 91h86zM252 477q29 0 36 -8t7 -38t-7 -38
t-36 -8q-28 0 -37 8t-9 38q0 29 9 37.5t37 8.5z" />
    <glyph glyph-name="Agrave" unicode="&#xc0;" horiz-adv-x="402" 
d="M4 0l128 620h138l128 -620h-139l-24 126l21 -19h-115l17 19l-20 -126h-134zM163 198l-11 14h97l-16 -14l-30 242l-1 24h-5l-1 -24zM185 673l-124 101h111l95 -101h-82z" />
    <glyph glyph-name="Aacute" unicode="&#xc1;" horiz-adv-x="402" 
d="M4 0l128 620h138l128 -620h-139l-24 126l21 -19h-115l17 19l-20 -126h-134zM163 198l-11 14h97l-16 -14l-30 242l-1 24h-5l-1 -24zM116 673l95 101h111l-124 -101h-82z" />
    <glyph glyph-name="Acircumflex" unicode="&#xc2;" horiz-adv-x="402" 
d="M4 0l128 620h138l128 -620h-139l-24 126l21 -19h-115l17 19l-20 -126h-134zM163 198l-11 14h97l-16 -14l-30 242l-1 24h-5l-1 -24zM60 673l85 102h111l85 -102h-90l-50 42l-50 -42h-91z" />
    <glyph glyph-name="Atilde" unicode="&#xc3;" horiz-adv-x="402" 
d="M4 0l128 620h138l128 -620h-139l-24 126l21 -19h-115l17 19l-20 -126h-134zM163 198l-11 14h97l-16 -14l-30 242l-1 24h-5l-1 -24zM65 672q0 55 21.5 82t56.5 27q24 0 41.5 -8t32.5 -16.5t30 -8.5q13 0 22 9.5t9 25.5h58q0 -59 -23.5 -85t-53.5 -26q-25 0 -40.5 9.5
t-28.5 18t-32 8.5q-10 0 -19.5 -9t-9.5 -27h-64z" />
    <glyph glyph-name="Adieresis" unicode="&#xc4;" horiz-adv-x="402" 
d="M4 0l128 620h138l128 -620h-139l-24 126l21 -19h-115l17 19l-20 -126h-134zM163 198l-11 14h97l-16 -14l-30 242l-1 24h-5l-1 -24zM267 668q-33 0 -38 10.5t-5 35.5q0 27 5 36t38 9q34 0 39.5 -9t5.5 -36q0 -25 -6 -35.5t-39 -10.5zM130 668q-32 0 -37.5 10.5t-5.5 35.5
q0 27 5.5 36t37.5 9q34 0 40 -9t6 -36q0 -25 -6.5 -35.5t-39.5 -10.5z" />
    <glyph glyph-name="Aring" unicode="&#xc5;" horiz-adv-x="402" 
d="M4 0l128 620h138l128 -620h-139l-24 126l21 -19h-115l17 19l-20 -126h-134zM163 198l-11 14h97l-16 -14l-30 242l-1 24h-5l-1 -24zM201 667q-41 0 -69 26t-28 64t28 65t69 27q39 0 67.5 -27t28.5 -65t-28.5 -64t-67.5 -26zM201 720q16 0 27 10.5t11 26.5q0 15 -11.5 26
t-26.5 11q-16 0 -27.5 -11t-11.5 -26q0 -16 11 -26.5t28 -10.5z" />
    <glyph glyph-name="AE" unicode="&#xc6;" horiz-adv-x="662" 
d="M307 620h335v-104h-202v-128h180l-16 -104h-164v-180h202v-104h-335v620zM80 107v105h255v-105h-255zM4 0l175 620h115l-156 -620h-134zM203 516v104h125v-104h-125z" />
    <glyph glyph-name="Ccedilla" unicode="&#xc7;" horiz-adv-x="377" 
d="M194 -8q-89 0 -129.5 32.5t-40.5 87.5v384q0 71 39.5 100.5t127.5 29.5q82 0 125 -29t42 -102v-132l-131 -16v115q0 29 -6 43t-30 14q-23 0 -28 -16t-5 -40v-319q0 -17 6 -29.5t27 -12.5q23 0 29.5 12.5t6.5 29.5v107l131 14v-153q0 -55 -42.5 -87.5t-121.5 -32.5z
M179 -199q-24 0 -44 7t-37 16l28 47q5 -7 19 -12.5t27 -5.5q20 0 30.5 11t10.5 25q0 10 -9 20.5t-27 10.5q-12 0 -22.5 -4t-15.5 -9l-35 25l52 68h52l-38 -46q16 10 36 10q43 0 63.5 -21.5t20.5 -48.5q0 -34 -28 -63.5t-83 -29.5z" />
    <glyph glyph-name="Egrave" unicode="&#xc8;" horiz-adv-x="362" 
d="M28 620h318v-104h-185v-128h163l-16 -104h-147v-180h185v-104h-318v620zM166 673l-124 101h111l95 -101h-82z" />
    <glyph glyph-name="Eacute" unicode="&#xc9;" horiz-adv-x="362" 
d="M28 620h318v-104h-185v-128h163l-16 -104h-147v-180h185v-104h-318v620zM97 673l95 101h111l-124 -101h-82z" />
    <glyph glyph-name="Ecircumflex" unicode="&#xca;" horiz-adv-x="362" 
d="M28 620h318v-104h-185v-128h163l-16 -104h-147v-180h185v-104h-318v620zM41 673l85 102h111l85 -102h-90l-50 42l-50 -42h-91z" />
    <glyph glyph-name="Edieresis" unicode="&#xcb;" horiz-adv-x="362" 
d="M28 620h318v-104h-185v-128h163l-16 -104h-147v-180h185v-104h-318v620zM248 668q-33 0 -38 10.5t-5 35.5q0 27 5 36t38 9q34 0 39.5 -9t5.5 -36q0 -25 -6 -35.5t-39 -10.5zM111 668q-32 0 -37.5 10.5t-5.5 35.5q0 27 5.5 36t37.5 9q34 0 40 -9t6 -36q0 -25 -6.5 -35.5
t-39.5 -10.5z" />
    <glyph glyph-name="Igrave" unicode="&#xcc;" horiz-adv-x="189" 
d="M28 620h133v-620h-133v620zM79 673l-124 101h111l95 -101h-82z" />
    <glyph glyph-name="Iacute" unicode="&#xcd;" horiz-adv-x="189" 
d="M28 620h133v-620h-133v620zM9 673l95 101h111l-124 -101h-82z" />
    <glyph glyph-name="Icircumflex" unicode="&#xce;" horiz-adv-x="189" 
d="M28 620h133v-620h-133v620zM-47 673l85 102h111l85 -102h-90l-50 42l-50 -42h-91z" />
    <glyph glyph-name="Idieresis" unicode="&#xcf;" horiz-adv-x="189" 
d="M28 620h133v-620h-133v620zM161 668q-33 0 -38 10.5t-5 35.5q0 27 5 36t38 9q34 0 39.5 -9t5.5 -36q0 -25 -6 -35.5t-39 -10.5zM24 668q-32 0 -37.5 10.5t-5.5 35.5q0 27 5.5 36t37.5 9q34 0 40 -9t6 -36q0 -25 -6.5 -35.5t-39.5 -10.5z" />
    <glyph glyph-name="Eth" unicode="&#xd0;" horiz-adv-x="438" 
d="M60 620h264q47 0 62 -21.5t15 -68.5v-439q0 -48 -15 -69.5t-60 -21.5h-266v620zM18 199v73h217v-73h-217zM244 104q17 0 21.5 9.5t4.5 23.5v347q0 16 -5 24t-20 8h-53v-412h52z" />
    <glyph glyph-name="Ntilde" unicode="&#xd1;" horiz-adv-x="416" 
d="M28 0v620h133l92 -338l1 -6h1v344h133v-620h-136l-90 292l-1 7h-1v-299h-132zM72 672q0 55 21.5 82t56.5 27q24 0 41.5 -8t32.5 -16.5t30 -8.5q13 0 22 9.5t9 25.5h58q0 -59 -23.5 -85t-53.5 -26q-25 0 -40.5 9.5t-28.5 18t-32 8.5q-10 0 -19.5 -9t-9.5 -27h-64z" />
    <glyph glyph-name="Ograve" unicode="&#xd2;" horiz-adv-x="383" 
d="M191 -7q-89 0 -128 32t-39 86v399q0 53 38.5 85.5t128.5 32.5q91 0 129.5 -32.5t38.5 -85.5v-398q0 -54 -39 -86.5t-129 -32.5zM191 102q22 0 30 11t8 35v328q0 23 -7.5 33.5t-30.5 10.5q-22 0 -29.5 -10.5t-7.5 -32.5v-330q0 -23 8 -34t29 -11zM176 673l-124 101h111
l95 -101h-82z" />
    <glyph glyph-name="Oacute" unicode="&#xd3;" horiz-adv-x="383" 
d="M191 -7q-89 0 -128 32t-39 86v399q0 53 38.5 85.5t128.5 32.5q91 0 129.5 -32.5t38.5 -85.5v-398q0 -54 -39 -86.5t-129 -32.5zM191 102q22 0 30 11t8 35v328q0 23 -7.5 33.5t-30.5 10.5q-22 0 -29.5 -10.5t-7.5 -32.5v-330q0 -23 8 -34t29 -11zM106 673l95 101h111
l-124 -101h-82z" />
    <glyph glyph-name="Ocircumflex" unicode="&#xd4;" horiz-adv-x="383" 
d="M191 -7q-89 0 -128 32t-39 86v399q0 53 38.5 85.5t128.5 32.5q91 0 129.5 -32.5t38.5 -85.5v-398q0 -54 -39 -86.5t-129 -32.5zM191 102q22 0 30 11t8 35v328q0 23 -7.5 33.5t-30.5 10.5q-22 0 -29.5 -10.5t-7.5 -32.5v-330q0 -23 8 -34t29 -11zM51 673l85 102h111
l85 -102h-90l-50 42l-50 -42h-91z" />
    <glyph glyph-name="Otilde" unicode="&#xd5;" horiz-adv-x="383" 
d="M191 -7q-89 0 -128 32t-39 86v399q0 53 38.5 85.5t128.5 32.5q91 0 129.5 -32.5t38.5 -85.5v-398q0 -54 -39 -86.5t-129 -32.5zM191 102q22 0 30 11t8 35v328q0 23 -7.5 33.5t-30.5 10.5q-22 0 -29.5 -10.5t-7.5 -32.5v-330q0 -23 8 -34t29 -11zM56 672q0 55 21.5 82
t56.5 27q24 0 41.5 -8t32.5 -16.5t30 -8.5q13 0 22 9.5t9 25.5h58q0 -59 -23.5 -85t-53.5 -26q-25 0 -40.5 9.5t-28.5 18t-32 8.5q-10 0 -19.5 -9t-9.5 -27h-64z" />
    <glyph glyph-name="Odieresis" unicode="&#xd6;" horiz-adv-x="383" 
d="M191 -7q-89 0 -128 32t-39 86v399q0 53 38.5 85.5t128.5 32.5q91 0 129.5 -32.5t38.5 -85.5v-398q0 -54 -39 -86.5t-129 -32.5zM191 102q22 0 30 11t8 35v328q0 23 -7.5 33.5t-30.5 10.5q-22 0 -29.5 -10.5t-7.5 -32.5v-330q0 -23 8 -34t29 -11zM258 668q-33 0 -38 10.5
t-5 35.5q0 27 5 36t38 9q34 0 39.5 -9t5.5 -36q0 -25 -6 -35.5t-39 -10.5zM121 668q-32 0 -37.5 10.5t-5.5 35.5q0 27 5.5 36t37.5 9q34 0 40 -9t6 -36q0 -25 -6.5 -35.5t-39.5 -10.5z" />
    <glyph glyph-name="multiply" unicode="&#xd7;" horiz-adv-x="428" 
d="M51 405l48 49l285 -286l-48 -48zM92 119l-48 48l285 286l48 -49z" />
    <glyph glyph-name="Oslash" unicode="&#xd8;" horiz-adv-x="394" 
d="M199 -7q-89 0 -129 32t-40 86v388q0 69 39.5 98t127.5 29q83 0 125.5 -29t41.5 -99v-386q0 -54 -42.5 -86.5t-122.5 -32.5zM196 102q25 0 31.5 12.5t6.5 28.5v322q0 18 -2 30t-10.5 18t-25.5 6q-26 0 -31 -15.5t-5 -37.5v-323q0 -16 6 -28.5t30 -12.5zM59 -44l214 685h53
l-216 -685h-51z" />
    <glyph glyph-name="Ugrave" unicode="&#xd9;" horiz-adv-x="382" 
d="M190 -5q-48 0 -86 9t-59 29.5t-21 55.5v531h133v-489q0 -9 3 -16t10.5 -11.5t19.5 -4.5q13 0 20.5 4.5t11 12t3.5 15.5v489h133v-531q0 -35 -22 -55.5t-60 -29.5t-86 -9zM175 673l-124 101h111l95 -101h-82z" />
    <glyph glyph-name="Uacute" unicode="&#xda;" horiz-adv-x="382" 
d="M190 -5q-48 0 -86 9t-59 29.5t-21 55.5v531h133v-489q0 -9 3 -16t10.5 -11.5t19.5 -4.5q13 0 20.5 4.5t11 12t3.5 15.5v489h133v-531q0 -35 -22 -55.5t-60 -29.5t-86 -9zM106 673l95 101h111l-124 -101h-82z" />
    <glyph glyph-name="Ucircumflex" unicode="&#xdb;" horiz-adv-x="382" 
d="M190 -5q-48 0 -86 9t-59 29.5t-21 55.5v531h133v-489q0 -9 3 -16t10.5 -11.5t19.5 -4.5q13 0 20.5 4.5t11 12t3.5 15.5v489h133v-531q0 -35 -22 -55.5t-60 -29.5t-86 -9zM50 673l85 102h111l85 -102h-90l-50 42l-50 -42h-91z" />
    <glyph glyph-name="Udieresis" unicode="&#xdc;" horiz-adv-x="382" 
d="M190 -5q-48 0 -86 9t-59 29.5t-21 55.5v531h133v-489q0 -9 3 -16t10.5 -11.5t19.5 -4.5q13 0 20.5 4.5t11 12t3.5 15.5v489h133v-531q0 -35 -22 -55.5t-60 -29.5t-86 -9zM258 668q-33 0 -38 10.5t-5 35.5q0 27 5 36t38 9q34 0 39.5 -9t5.5 -36q0 -25 -6 -35.5t-39 -10.5z
M121 668q-32 0 -37.5 10.5t-5.5 35.5q0 27 5.5 36t37.5 9q34 0 40 -9t6 -36q0 -25 -6.5 -35.5t-39.5 -10.5z" />
    <glyph glyph-name="Yacute" unicode="&#xdd;" horiz-adv-x="392" 
d="M131 0v198l-133 422h122l78 -267l1 -22h1l1 22l71 267h122l-133 -421v-199h-130zM111 673l95 101h111l-124 -101h-82z" />
    <glyph glyph-name="Thorn" unicode="&#xde;" 
d="M19 672h132v-92h114q43 0 63.5 -10.5t27 -32t6.5 -53.5v-156q0 -36 -6 -67.5t-31 -51t-82 -19.5h-91v-190h-133v672zM196 294q19 0 25.5 11t6.5 37v78q0 38 -5.5 47t-24.5 9h-46v-182h44z" />
    <glyph glyph-name="germandbls" unicode="&#xdf;" horiz-adv-x="528" 
d="M-19 -179l-29 104h62q24 0 32 10.5t8 39.5l-1 427h-43v68h43v61q0 57 23.5 76t86.5 19h145q41 0 65 -9t35 -35.5t11 -81.5v-28q0 -27 -11 -40.5t-39 -28.5q-15 -7 -22 -14t-10 -17t-3 -24q0 -27 6.5 -37t29.5 -24q18 -11 37.5 -21.5t34.5 -18.5q26 -13 39.5 -30.5
t18 -37.5t4.5 -43v-18q0 -63 -32 -93.5t-120 -30.5q-77 0 -110 29.5t-33 82.5v61l116 15v-69q0 -11 2.5 -18.5t9.5 -11t18 -3.5q15 0 22.5 7.5t7.5 25.5q0 23 -0.5 37.5t-5.5 24t-19 16.5q-17 10 -35.5 20.5t-36.5 20.5q-29 17 -44.5 32t-21.5 35t-6 49q0 48 15 77t57 41
l-1 40q-1 34 -9.5 42.5t-31.5 8.5h-19q-28 0 -35.5 -9t-7.5 -42v-566q0 -56 -24.5 -87.5t-88.5 -31.5h-90z" />
    <glyph glyph-name="agrave" unicode="&#xe0;" horiz-adv-x="396" 
d="M116 0q-41 0 -59 13t-23 42.5t-5 76.5v218q0 39 11 65.5t37 40.5t71 14h216v-470h-130v366h-45q-12 0 -18.5 -4t-9 -12t-2.5 -22v-181q0 -20 3 -29t9.5 -11.5t18.5 -2.5h29l-13 -104h-90zM195 523l-122 103h111l93 -103h-82z" />
    <glyph glyph-name="aacute" unicode="&#xe1;" horiz-adv-x="396" 
d="M116 0q-41 0 -59 13t-23 42.5t-5 76.5v218q0 39 11 65.5t37 40.5t71 14h216v-470h-130v366h-45q-12 0 -18.5 -4t-9 -12t-2.5 -22v-181q0 -20 3 -29t9.5 -11.5t18.5 -2.5h29l-13 -104h-90zM125 523l93 103h111l-122 -103h-82z" />
    <glyph glyph-name="acircumflex" unicode="&#xe2;" horiz-adv-x="396" 
d="M116 0q-41 0 -59 13t-23 42.5t-5 76.5v218q0 39 11 65.5t37 40.5t71 14h216v-470h-130v366h-45q-12 0 -18.5 -4t-9 -12t-2.5 -22v-181q0 -20 3 -29t9.5 -11.5t18.5 -2.5h29l-13 -104h-90zM70 523l85 102h111l85 -102h-90l-50 42l-50 -42h-91z" />
    <glyph glyph-name="atilde" unicode="&#xe3;" horiz-adv-x="396" 
d="M116 0q-41 0 -59 13t-23 42.5t-5 76.5v218q0 39 11 65.5t37 40.5t71 14h216v-470h-130v366h-45q-12 0 -18.5 -4t-9 -12t-2.5 -22v-181q0 -20 3 -29t9.5 -11.5t18.5 -2.5h29l-13 -104h-90zM75 522q0 55 21.5 82t56.5 27q24 0 41.5 -8t32.5 -16.5t30 -8.5q13 0 22 9.5
t9 25.5h58q0 -59 -23.5 -85t-53.5 -26q-25 0 -40.5 9.5t-28.5 18t-32 8.5q-10 0 -19.5 -9t-9.5 -27h-64z" />
    <glyph glyph-name="adieresis" unicode="&#xe4;" horiz-adv-x="396" 
d="M116 0q-41 0 -59 13t-23 42.5t-5 76.5v218q0 39 11 65.5t37 40.5t71 14h216v-470h-130v366h-45q-12 0 -18.5 -4t-9 -12t-2.5 -22v-181q0 -20 3 -29t9.5 -11.5t18.5 -2.5h29l-13 -104h-90zM277 518q-33 0 -38 10.5t-5 35.5q0 27 5 36t38 9q34 0 39.5 -9t5.5 -36
q0 -25 -6 -35.5t-39 -10.5zM140 518q-32 0 -37.5 10.5t-5.5 35.5q0 27 5.5 36t37.5 9q34 0 40 -9t6 -36q0 -25 -6.5 -35.5t-39.5 -10.5z" />
    <glyph glyph-name="aring" unicode="&#xe5;" horiz-adv-x="396" 
d="M116 0q-41 0 -59 13t-23 42.5t-5 76.5v218q0 39 11 65.5t37 40.5t71 14h216v-470h-130v366h-45q-12 0 -18.5 -4t-9 -12t-2.5 -22v-181q0 -20 3 -29t9.5 -11.5t18.5 -2.5h29l-13 -104h-90zM211 517q-41 0 -69 26t-28 64t28 65t69 27q39 0 67.5 -27t28.5 -65t-28.5 -64
t-67.5 -26zM211 570q16 0 27 10.5t11 26.5q0 15 -11.5 26t-26.5 11q-16 0 -27.5 -11t-11.5 -26q0 -16 11 -26.5t28 -10.5z" />
    <glyph glyph-name="ae" unicode="&#xe6;" horiz-adv-x="583" 
d="M116 0q-41 0 -59 13t-23 42.5t-5 76.5v218q0 39 11 65.5t37 40.5t71 14h216v-470h-130v366h-45q-12 0 -18.5 -4t-9 -12t-2.5 -22v-181q0 -20 3 -29t9.5 -11.5t18.5 -2.5h29l-13 -104h-90zM404 -4q-69 0 -105 16t-49 44t-13 62v237q0 35 13 62.5t49 43.5t107 16
q61 0 97.5 -15t52.5 -42t16 -63v-85l-130 -9v70q0 14 -7.5 29t-29.5 15q-23 0 -30.5 -15t-7.5 -29v-190q0 -14 7.5 -27.5t28.5 -13.5q24 0 31.5 13.5t7.5 29.5v25l130 9v-61q0 -36 -16 -63.5t-52.5 -43t-99.5 -15.5zM252 211v68h320v-68h-320z" />
    <glyph glyph-name="ccedilla" unicode="&#xe7;" horiz-adv-x="381" 
d="M192 -5q-69 0 -105 16t-49 44t-13 62v237q0 35 13 62.5t49 43.5t107 16q61 0 97.5 -15t52.5 -42t16 -63v-76l-130 -9v61q0 14 -7.5 29t-29.5 15q-23 0 -30.5 -15t-7.5 -29v-190q0 -14 7.5 -27.5t28.5 -13.5q24 0 31.5 13.5t7.5 29.5v52l130 10v-89q0 -36 -16 -63.5
t-52.5 -43t-99.5 -15.5zM180 -199q-24 0 -44 7t-37 16l28 47q5 -7 19 -12.5t27 -5.5q20 0 30.5 11t10.5 25q0 10 -9 20.5t-27 10.5q-12 0 -22.5 -4t-15.5 -9l-35 25l52 68h52l-38 -46q16 10 36 10q43 0 63.5 -21.5t20.5 -48.5q0 -34 -28 -63.5t-83 -29.5z" />
    <glyph glyph-name="egrave" unicode="&#xe8;" 
d="M192 -5q-69 0 -105 16t-49 44t-13 62v237q0 35 13 62.5t49 43.5t107 16q61 0 97.5 -15t52.5 -42t16 -63v-85l-130 -9v70q0 14 -7.5 29t-29.5 15q-23 0 -30.5 -15t-7.5 -29v-190q0 -14 7.5 -27.5t28.5 -13.5q24 0 31.5 13.5t7.5 29.5v25l130 9v-61q0 -36 -16 -63.5
t-52.5 -43t-99.5 -15.5zM40 210v68h320v-68h-320zM177 523l-122 103h111l93 -103h-82z" />
    <glyph glyph-name="eacute" unicode="&#xe9;" 
d="M192 -5q-69 0 -105 16t-49 44t-13 62v237q0 35 13 62.5t49 43.5t107 16q61 0 97.5 -15t52.5 -42t16 -63v-85l-130 -9v70q0 14 -7.5 29t-29.5 15q-23 0 -30.5 -15t-7.5 -29v-190q0 -14 7.5 -27.5t28.5 -13.5q24 0 31.5 13.5t7.5 29.5v25l130 9v-61q0 -36 -16 -63.5
t-52.5 -43t-99.5 -15.5zM40 210v68h320v-68h-320zM108 523l93 103h111l-122 -103h-82z" />
    <glyph glyph-name="ecircumflex" unicode="&#xea;" 
d="M192 -5q-69 0 -105 16t-49 44t-13 62v237q0 35 13 62.5t49 43.5t107 16q61 0 97.5 -15t52.5 -42t16 -63v-85l-130 -9v70q0 14 -7.5 29t-29.5 15q-23 0 -30.5 -15t-7.5 -29v-190q0 -14 7.5 -27.5t28.5 -13.5q24 0 31.5 13.5t7.5 29.5v25l130 9v-61q0 -36 -16 -63.5
t-52.5 -43t-99.5 -15.5zM40 210v68h320v-68h-320zM52 523l85 102h111l85 -102h-90l-50 42l-50 -42h-91z" />
    <glyph glyph-name="edieresis" unicode="&#xeb;" 
d="M192 -5q-69 0 -105 16t-49 44t-13 62v237q0 35 13 62.5t49 43.5t107 16q61 0 97.5 -15t52.5 -42t16 -63v-85l-130 -9v70q0 14 -7.5 29t-29.5 15q-23 0 -30.5 -15t-7.5 -29v-190q0 -14 7.5 -27.5t28.5 -13.5q24 0 31.5 13.5t7.5 29.5v25l130 9v-61q0 -36 -16 -63.5
t-52.5 -43t-99.5 -15.5zM40 210v68h320v-68h-320zM260 518q-33 0 -38 10.5t-5 35.5q0 27 5 36t38 9q34 0 39.5 -9t5.5 -36q0 -25 -6 -35.5t-39 -10.5zM123 518q-32 0 -37.5 10.5t-5.5 35.5q0 27 5.5 36t37.5 9q34 0 40 -9t6 -36q0 -25 -6.5 -35.5t-39.5 -10.5z" />
    <glyph glyph-name="igrave" unicode="&#xec;" horiz-adv-x="194" 
d="M32 470h130v-470h-130v470zM81 523l-122 103h111l93 -103h-82z" />
    <glyph glyph-name="iacute" unicode="&#xed;" horiz-adv-x="194" 
d="M32 470h130v-470h-130v470zM12 523l93 103h111l-122 -103h-82z" />
    <glyph glyph-name="icircumflex" unicode="&#xee;" horiz-adv-x="194" 
d="M32 470h130v-470h-130v470zM-44 523l85 102h111l85 -102h-90l-50 42l-50 -42h-91z" />
    <glyph glyph-name="idieresis" unicode="&#xef;" horiz-adv-x="194" 
d="M32 470h130v-470h-130v470zM164 518q-33 0 -38 10.5t-5 35.5q0 27 5 36t38 9q34 0 39.5 -9t5.5 -36q0 -25 -6 -35.5t-39 -10.5zM27 518q-32 0 -37.5 10.5t-5.5 35.5q0 27 5.5 36t37.5 9q34 0 40 -9t6 -36q0 -25 -6.5 -35.5t-39.5 -10.5z" />
    <glyph glyph-name="eth" unicode="&#xf0;" horiz-adv-x="420" 
d="M210 -1q-68 0 -104 12.5t-49.5 46.5t-13.5 99v169q0 77 27.5 110.5t85.5 33.5q28 0 41 -2t33 -5l-8 -11q-3 37 -30.5 66.5t-96.5 29.5h-39v72h101q62 0 111.5 -26.5t79 -87.5t29.5 -166v-183q0 -53 -6 -84.5t-24 -47.5t-51.5 -21t-85.5 -5zM210 111q22 0 29.5 10t7.5 33
v187q0 23 -8.5 33.5t-28.5 10.5q-12 0 -20.5 -5t-12.5 -15.5t-4 -29.5v-178q0 -17 3.5 -27.5t12 -14.5t21.5 -4zM120 486l-32 26l121 159l31 -25z" />
    <glyph glyph-name="ntilde" unicode="&#xf1;" horiz-adv-x="395" 
d="M32 470h106l13 -49q14 28 42.5 43t66.5 15q50 0 78.5 -25t28.5 -77v-377h-130v332q0 22 -8.5 32t-28.5 10q-17 0 -26.5 -9t-11.5 -27v-338h-130v470zM62 522q0 55 21.5 82t56.5 27q24 0 41.5 -8t32.5 -16.5t30 -8.5q13 0 22 9.5t9 25.5h58q0 -59 -23.5 -85t-53.5 -26
q-25 0 -40.5 9.5t-28.5 18t-32 8.5q-10 0 -19.5 -9t-9.5 -27h-64z" />
    <glyph glyph-name="ograve" unicode="&#xf2;" 
d="M192 -5q-69 0 -105 16t-49 44t-13 62v237q0 35 13 62.5t49 43.5t107 16q61 0 97.5 -15t52.5 -42t16 -63v-239q0 -36 -16 -63.5t-52.5 -43t-99.5 -15.5zM191 101q24 0 31.5 13.5t7.5 29.5v188q0 14 -7.5 29t-29.5 15q-23 0 -30.5 -15t-7.5 -29v-190q0 -14 7.5 -27.5
t28.5 -13.5zM177 523l-122 103h111l93 -103h-82z" />
    <glyph glyph-name="oacute" unicode="&#xf3;" 
d="M192 -5q-69 0 -105 16t-49 44t-13 62v237q0 35 13 62.5t49 43.5t107 16q61 0 97.5 -15t52.5 -42t16 -63v-239q0 -36 -16 -63.5t-52.5 -43t-99.5 -15.5zM191 101q24 0 31.5 13.5t7.5 29.5v188q0 14 -7.5 29t-29.5 15q-23 0 -30.5 -15t-7.5 -29v-190q0 -14 7.5 -27.5
t28.5 -13.5zM108 523l93 103h111l-122 -103h-82z" />
    <glyph glyph-name="ocircumflex" unicode="&#xf4;" 
d="M192 -5q-69 0 -105 16t-49 44t-13 62v237q0 35 13 62.5t49 43.5t107 16q61 0 97.5 -15t52.5 -42t16 -63v-239q0 -36 -16 -63.5t-52.5 -43t-99.5 -15.5zM191 101q24 0 31.5 13.5t7.5 29.5v188q0 14 -7.5 29t-29.5 15q-23 0 -30.5 -15t-7.5 -29v-190q0 -14 7.5 -27.5
t28.5 -13.5zM52 523l85 102h111l85 -102h-90l-50 42l-50 -42h-91z" />
    <glyph glyph-name="otilde" unicode="&#xf5;" 
d="M192 -5q-69 0 -105 16t-49 44t-13 62v237q0 35 13 62.5t49 43.5t107 16q61 0 97.5 -15t52.5 -42t16 -63v-239q0 -36 -16 -63.5t-52.5 -43t-99.5 -15.5zM191 101q24 0 31.5 13.5t7.5 29.5v188q0 14 -7.5 29t-29.5 15q-23 0 -30.5 -15t-7.5 -29v-190q0 -14 7.5 -27.5
t28.5 -13.5zM57 522q0 55 21.5 82t56.5 27q24 0 41.5 -8t32.5 -16.5t30 -8.5q13 0 22 9.5t9 25.5h58q0 -59 -23.5 -85t-53.5 -26q-25 0 -40.5 9.5t-28.5 18t-32 8.5q-10 0 -19.5 -9t-9.5 -27h-64z" />
    <glyph glyph-name="odieresis" unicode="&#xf6;" 
d="M192 -5q-69 0 -105 16t-49 44t-13 62v237q0 35 13 62.5t49 43.5t107 16q61 0 97.5 -15t52.5 -42t16 -63v-239q0 -36 -16 -63.5t-52.5 -43t-99.5 -15.5zM191 101q24 0 31.5 13.5t7.5 29.5v188q0 14 -7.5 29t-29.5 15q-23 0 -30.5 -15t-7.5 -29v-190q0 -14 7.5 -27.5
t28.5 -13.5zM260 518q-33 0 -38 10.5t-5 35.5q0 27 5 36t38 9q34 0 39.5 -9t5.5 -36q0 -25 -6 -35.5t-39 -10.5zM123 518q-32 0 -37.5 10.5t-5.5 35.5q0 27 5.5 36t37.5 9q34 0 40 -9t6 -36q0 -25 -6.5 -35.5t-39.5 -10.5z" />
    <glyph glyph-name="divide" unicode="&#xf7;" horiz-adv-x="489" 
d="M43 188v69h403v-69h-403zM241 350q-33 0 -38.5 10.5t-5.5 35.5q0 27 5.5 36.5t38.5 9.5q34 0 39.5 -9.5t5.5 -36.5q0 -25 -6 -35.5t-39 -10.5zM241 0q-33 0 -38.5 10.5t-5.5 35.5q0 27 5.5 36.5t38.5 9.5q34 0 39.5 -9.5t5.5 -36.5q0 -25 -6 -35.5t-39 -10.5z" />
    <glyph glyph-name="oslash" unicode="&#xf8;" horiz-adv-x="378" 
d="M189 -5q-70 0 -105.5 16t-48.5 44t-13 62v237q0 35 13 62.5t49 43.5t106 16q62 0 98.5 -15.5t52.5 -42.5t16 -62v-239q0 -36 -16 -63.5t-53 -43t-99 -15.5zM188 101q24 0 31.5 13.5t7.5 29.5v188q0 14 -7.5 29t-30.5 15q-22 0 -29.5 -15t-7.5 -29v-190q0 -14 7 -27.5
t29 -13.5zM78 -86l-31 6l278 650l31 -6z" />
    <glyph glyph-name="ugrave" unicode="&#xf9;" horiz-adv-x="394" 
d="M133 0q-45 0 -68 14t-30.5 36t-7.5 44v376h130v-319q0 -23 7.5 -35t28.5 -12h39v366h130v-470h-229zM181 523l-122 103h111l93 -103h-82z" />
    <glyph glyph-name="uacute" unicode="&#xfa;" horiz-adv-x="394" 
d="M133 0q-45 0 -68 14t-30.5 36t-7.5 44v376h130v-319q0 -23 7.5 -35t28.5 -12h39v366h130v-470h-229zM111 523l93 103h111l-122 -103h-82z" />
    <glyph glyph-name="ucircumflex" unicode="&#xfb;" horiz-adv-x="394" 
d="M133 0q-45 0 -68 14t-30.5 36t-7.5 44v376h130v-319q0 -23 7.5 -35t28.5 -12h39v366h130v-470h-229zM55 523l85 102h111l85 -102h-90l-50 42l-50 -42h-91z" />
    <glyph glyph-name="udieresis" unicode="&#xfc;" horiz-adv-x="394" 
d="M133 0q-45 0 -68 14t-30.5 36t-7.5 44v376h130v-319q0 -23 7.5 -35t28.5 -12h39v366h130v-470h-229zM263 518q-33 0 -38 10.5t-5 35.5q0 27 5 36t38 9q34 0 39.5 -9t5.5 -36q0 -25 -6 -35.5t-39 -10.5zM126 518q-32 0 -37.5 10.5t-5.5 35.5q0 27 5.5 36t37.5 9
q34 0 40 -9t6 -36q0 -25 -6.5 -35.5t-39.5 -10.5z" />
    <glyph glyph-name="yacute" unicode="&#xfd;" 
d="M-19 -170l22 80h51q27 0 44.5 16t27.5 58l7 29l-141 457h124l69 -267l1 -31h1l1 31l70 267h126l-160 -522q-20 -62 -49 -90t-83 -28h-111zM108 523l93 103h111l-122 -103h-82z" />
    <glyph glyph-name="thorn" unicode="&#xfe;" horiz-adv-x="373" 
d="M19 -157v776h126v-149h111q50 0 70 -13t24 -44t4 -85v-208q0 -39 -11 -65.5t-37 -40.5t-72 -14h-85v-157h-130zM149 104h45q12 0 18.5 4t9 12.5t2.5 21.5v181q0 20 -3 29t-10 11.5t-20 2.5h-42v-262z" />
    <glyph glyph-name="ydieresis" unicode="&#xff;" 
d="M-19 -170l22 80h51q27 0 44.5 16t27.5 58l7 29l-141 457h124l69 -267l1 -31h1l1 31l70 267h126l-160 -522q-20 -62 -49 -90t-83 -28h-111zM260 518q-33 0 -38 10.5t-5 35.5q0 27 5 36t38 9q34 0 39.5 -9t5.5 -36q0 -25 -6 -35.5t-39 -10.5zM123 518q-32 0 -37.5 10.5
t-5.5 35.5q0 27 5.5 36t37.5 9q34 0 40 -9t6 -36q0 -25 -6.5 -35.5t-39.5 -10.5z" />
    <glyph glyph-name="Amacron" unicode="&#x100;" horiz-adv-x="402" 
d="M4 0l128 620h138l128 -620h-139l-24 126l21 -19h-115l17 19l-20 -126h-134zM163 198l-11 14h97l-16 -14l-30 242l-1 24h-5l-1 -24zM60 674v80h281v-80h-281z" />
    <glyph glyph-name="amacron" unicode="&#x101;" horiz-adv-x="396" 
d="M116 0q-41 0 -59 13t-23 42.5t-5 76.5v218q0 39 11 65.5t37 40.5t71 14h216v-470h-130v366h-45q-12 0 -18.5 -4t-9 -12t-2.5 -22v-181q0 -20 3 -29t9.5 -11.5t18.5 -2.5h29l-13 -104h-90zM70 524v80h281v-80h-281z" />
    <glyph glyph-name="Abreve" unicode="&#x102;" horiz-adv-x="402" 
d="M4 0l128 620h138l128 -620h-139l-24 126l21 -19h-115l17 19l-20 -126h-134zM163 198l-11 14h97l-16 -14l-30 242l-1 24h-5l-1 -24zM197 663q-43 0 -70 14.5t-40.5 39.5t-13.5 56h82q0 -21 11 -35.5t33 -14.5q26 0 37 14.5t12 35.5h80q0 -49 -31 -79.5t-100 -30.5z" />
    <glyph glyph-name="abreve" unicode="&#x103;" horiz-adv-x="396" 
d="M116 0q-41 0 -59 13t-23 42.5t-5 76.5v218q0 39 11 65.5t37 40.5t71 14h216v-470h-130v366h-45q-12 0 -18.5 -4t-9 -12t-2.5 -22v-181q0 -20 3 -29t9.5 -11.5t18.5 -2.5h29l-13 -104h-90zM207 513q-43 0 -70 14.5t-40.5 39.5t-13.5 56h82q0 -22 11 -35.5t33 -13.5
q26 0 37 13.5t12 35.5h80q0 -49 -31 -79.5t-100 -30.5z" />
    <glyph glyph-name="Aogonek" unicode="&#x104;" horiz-adv-x="402" 
d="M4 0l128 620h138l128 -620h-139l-24 126l21 -19h-115l17 19l-20 -126h-134zM163 198l-11 14h97l-16 -14l-30 242l-1 24h-5l-1 -24zM326 -189q-44 0 -74 24t-30 72q0 26 21.5 57t76.5 46l67 -3q-31 -12 -51 -35t-20 -47q0 -25 15 -38t34 -13q11 0 20 3.5t16 10.5l17 -51
q-22 -13 -45.5 -19.5t-46.5 -6.5z" />
    <glyph glyph-name="aogonek" unicode="&#x105;" horiz-adv-x="396" 
d="M116 0q-41 0 -59 13t-23 42.5t-5 76.5v218q0 39 11 65.5t37 40.5t71 14h216v-470h-130v366h-45q-12 0 -18.5 -4t-9 -12t-2.5 -22v-181q0 -20 3 -29t9.5 -11.5t18.5 -2.5h29l-13 -104h-90zM296 -189q-44 0 -74 24t-30 72q0 26 21.5 57t76.5 46l67 -3q-31 -12 -51 -35
t-20 -47q0 -25 15 -38t34 -13q11 0 20 3.5t16 10.5l17 -51q-22 -13 -45.5 -19.5t-46.5 -6.5z" />
    <glyph glyph-name="Cacute" unicode="&#x106;" horiz-adv-x="377" 
d="M194 -8q-89 0 -129.5 32.5t-40.5 87.5v384q0 71 39.5 100.5t127.5 29.5q82 0 125 -29t42 -102v-132l-131 -16v115q0 29 -6 43t-30 14q-23 0 -28 -16t-5 -40v-319q0 -17 6 -29.5t27 -12.5q23 0 29.5 12.5t6.5 29.5v107l131 14v-153q0 -55 -42.5 -87.5t-121.5 -32.5z
M104 673l95 101h111l-124 -101h-82z" />
    <glyph glyph-name="cacute" unicode="&#x107;" horiz-adv-x="381" 
d="M192 -5q-69 0 -105 16t-49 44t-13 62v237q0 35 13 62.5t49 43.5t107 16q61 0 97.5 -15t52.5 -42t16 -63v-76l-130 -9v61q0 14 -7.5 29t-29.5 15q-23 0 -30.5 -15t-7.5 -29v-190q0 -14 7.5 -27.5t28.5 -13.5q24 0 31.5 13.5t7.5 29.5v52l130 10v-89q0 -36 -16 -63.5
t-52.5 -43t-99.5 -15.5zM106 523l93 103h111l-122 -103h-82z" />
    <glyph glyph-name="Ccircumflex" unicode="&#x108;" horiz-adv-x="377" 
d="M194 -8q-89 0 -129.5 32.5t-40.5 87.5v384q0 71 39.5 100.5t127.5 29.5q82 0 125 -29t42 -102v-132l-131 -16v115q0 29 -6 43t-30 14q-23 0 -28 -16t-5 -40v-319q0 -17 6 -29.5t27 -12.5q23 0 29.5 12.5t6.5 29.5v107l131 14v-153q0 -55 -42.5 -87.5t-121.5 -32.5z
M48 673l85 102h111l85 -102h-90l-50 42l-50 -42h-91z" />
    <glyph glyph-name="ccircumflex" unicode="&#x109;" horiz-adv-x="381" 
d="M192 -5q-69 0 -105 16t-49 44t-13 62v237q0 35 13 62.5t49 43.5t107 16q61 0 97.5 -15t52.5 -42t16 -63v-76l-130 -9v61q0 14 -7.5 29t-29.5 15q-23 0 -30.5 -15t-7.5 -29v-190q0 -14 7.5 -27.5t28.5 -13.5q24 0 31.5 13.5t7.5 29.5v52l130 10v-89q0 -36 -16 -63.5
t-52.5 -43t-99.5 -15.5zM50 523l85 102h111l85 -102h-90l-50 42l-50 -42h-91z" />
    <glyph glyph-name="Cdotaccent" unicode="&#x10a;" horiz-adv-x="377" 
d="M194 -8q-89 0 -129.5 32.5t-40.5 87.5v384q0 71 39.5 100.5t127.5 29.5q82 0 125 -29t42 -102v-132l-131 -16v115q0 29 -6 43t-30 14q-23 0 -28 -16t-5 -40v-319q0 -17 6 -29.5t27 -12.5q23 0 29.5 12.5t6.5 29.5v107l131 14v-153q0 -55 -42.5 -87.5t-121.5 -32.5z
M187 670q-32 0 -37.5 10.5t-5.5 34.5q0 28 5.5 37t37.5 9q34 0 40 -9t6 -37q0 -24 -6.5 -34.5t-39.5 -10.5z" />
    <glyph glyph-name="cdotaccent" unicode="&#x10b;" horiz-adv-x="381" 
d="M192 -5q-69 0 -105 16t-49 44t-13 62v237q0 35 13 62.5t49 43.5t107 16q61 0 97.5 -15t52.5 -42t16 -63v-76l-130 -9v61q0 14 -7.5 29t-29.5 15q-23 0 -30.5 -15t-7.5 -29v-190q0 -14 7.5 -27.5t28.5 -13.5q24 0 31.5 13.5t7.5 29.5v52l130 10v-89q0 -36 -16 -63.5
t-52.5 -43t-99.5 -15.5zM189 520q-32 0 -37.5 10.5t-5.5 34.5q0 28 5.5 37t37.5 9q34 0 40 -9t6 -37q0 -24 -6.5 -34.5t-39.5 -10.5z" />
    <glyph glyph-name="Ccaron" unicode="&#x10c;" horiz-adv-x="377" 
d="M49 775h90l50 -43l50 43h90l-84 -102h-111zM194 -8q-89 0 -129.5 32.5t-40.5 87.5v384q0 71 39.5 100.5t127.5 29.5q82 0 125 -29t42 -102v-132l-131 -16v115q0 29 -6 43t-30 14q-23 0 -28 -16t-5 -40v-319q0 -17 6 -29.5t27 -12.5q23 0 29.5 12.5t6.5 29.5v107l131 14
v-153q0 -55 -42.5 -87.5t-121.5 -32.5z" />
    <glyph glyph-name="ccaron" unicode="&#x10d;" horiz-adv-x="381" 
d="M50 625h91l50 -43l50 43h90l-85 -102h-111zM192 -5q-69 0 -105 16t-49 44t-13 62v237q0 35 13 62.5t49 43.5t107 16q61 0 97.5 -15t52.5 -42t16 -63v-76l-130 -9v61q0 14 -7.5 29t-29.5 15q-23 0 -30.5 -15t-7.5 -29v-190q0 -14 7.5 -27.5t28.5 -13.5q24 0 31.5 13.5
t7.5 29.5v52l130 10v-89q0 -36 -16 -63.5t-52.5 -43t-99.5 -15.5z" />
    <glyph glyph-name="Dcaron" unicode="&#x10e;" horiz-adv-x="386" 
d="M53 775h91l49 -43l50 43h91l-85 -102h-111zM28 620h257q47 0 62 -21.5t15 -68.5v-439q0 -48 -15 -69.5t-60 -21.5h-259v620zM203 104q17 0 21.5 9.5t4.5 23.5v347q0 16 -5 24t-19 8h-45v-412h43z" />
    <glyph glyph-name="dcaron" unicode="&#x10f;" horiz-adv-x="445" 
d="M127 0q-39 0 -60.5 8.5t-29.5 34.5t-8 77v239q0 39 13 63t39.5 36t66.5 12h86v157h130v-627h-237zM234 104v262h-44q-17 0 -24 -7.5t-7 -26.5v-188q0 -28 7.5 -34t25.5 -6h42zM404 496l19 148h77l-40 -148h-56z" />
    <glyph glyph-name="Dcroat" unicode="&#x110;" horiz-adv-x="386" 
d="M-14 179v104h196v-104h-196zM28 620h257q47 0 62 -21.5t15 -68.5v-439q0 -48 -15 -69.5t-60 -21.5h-259v620zM203 104q17 0 21.5 9.5t4.5 23.5v347q0 16 -5 24t-19 8h-45v-412h43z" />
    <glyph glyph-name="dcroat" unicode="&#x111;" horiz-adv-x="396" 
d="M127 0q-39 0 -60.5 8.5t-29.5 34.5t-8 77v239q0 39 13 63t39.5 36t66.5 12h86v157h130v-627h-237zM234 104v262h-44q-17 0 -24 -7.5t-7 -26.5v-188q0 -28 7.5 -34t25.5 -6h42zM112 509v63h285v-63h-285z" />
    <glyph glyph-name="Emacron" unicode="&#x112;" horiz-adv-x="362" 
d="M28 620h318v-104h-185v-128h163l-16 -104h-147v-180h185v-104h-318v620zM41 674v80h281v-80h-281z" />
    <glyph glyph-name="emacron" unicode="&#x113;" 
d="M192 -5q-69 0 -105 16t-49 44t-13 62v237q0 35 13 62.5t49 43.5t107 16q61 0 97.5 -15t52.5 -42t16 -63v-85l-130 -9v70q0 14 -7.5 29t-29.5 15q-23 0 -30.5 -15t-7.5 -29v-190q0 -14 7.5 -27.5t28.5 -13.5q24 0 31.5 13.5t7.5 29.5v25l130 9v-61q0 -36 -16 -63.5
t-52.5 -43t-99.5 -15.5zM40 210v68h320v-68h-320zM52 524v80h281v-80h-281z" />
    <glyph glyph-name="Ebreve" unicode="&#x114;" horiz-adv-x="362" 
d="M28 620h318v-104h-185v-128h163l-16 -104h-147v-180h185v-104h-318v620zM178 663q-43 0 -70 14.5t-40.5 39.5t-13.5 56h82q0 -21 11 -35.5t33 -14.5q26 0 37 14.5t12 35.5h80q0 -49 -31 -79.5t-100 -30.5z" />
    <glyph glyph-name="ebreve" unicode="&#x115;" 
d="M192 -5q-69 0 -105 16t-49 44t-13 62v237q0 35 13 62.5t49 43.5t107 16q61 0 97.5 -15t52.5 -42t16 -63v-85l-130 -9v70q0 14 -7.5 29t-29.5 15q-23 0 -30.5 -15t-7.5 -29v-190q0 -14 7.5 -27.5t28.5 -13.5q24 0 31.5 13.5t7.5 29.5v25l130 9v-61q0 -36 -16 -63.5
t-52.5 -43t-99.5 -15.5zM40 210v68h320v-68h-320zM189 513q-43 0 -70 14.5t-40.5 39.5t-13.5 56h82q0 -22 11 -35.5t33 -13.5q26 0 37 13.5t12 35.5h80q0 -49 -31 -79.5t-100 -30.5z" />
    <glyph glyph-name="Edotaccent" unicode="&#x116;" horiz-adv-x="362" 
d="M28 620h318v-104h-185v-128h163l-16 -104h-147v-180h185v-104h-318v620zM180 670q-32 0 -37.5 10.5t-5.5 34.5q0 28 5.5 37t37.5 9q34 0 40 -9t6 -37q0 -24 -6.5 -34.5t-39.5 -10.5z" />
    <glyph glyph-name="edotaccent" unicode="&#x117;" 
d="M192 -5q-69 0 -105 16t-49 44t-13 62v237q0 35 13 62.5t49 43.5t107 16q61 0 97.5 -15t52.5 -42t16 -63v-85l-130 -9v70q0 14 -7.5 29t-29.5 15q-23 0 -30.5 -15t-7.5 -29v-190q0 -14 7.5 -27.5t28.5 -13.5q24 0 31.5 13.5t7.5 29.5v25l130 9v-61q0 -36 -16 -63.5
t-52.5 -43t-99.5 -15.5zM40 210v68h320v-68h-320zM191 520q-32 0 -37.5 10.5t-5.5 34.5q0 28 5.5 37t37.5 9q34 0 40 -9t6 -37q0 -24 -6.5 -34.5t-39.5 -10.5z" />
    <glyph glyph-name="Eogonek" unicode="&#x118;" horiz-adv-x="362" 
d="M28 620h318v-104h-185v-128h163l-16 -104h-147v-180h185v-104h-318v620zM282 -189q-44 0 -74 24t-30 72q0 26 21.5 57t76.5 46l67 -3q-31 -12 -51 -35t-20 -47q0 -25 15 -38t34 -13q11 0 20 3.5t16 10.5l17 -51q-22 -13 -45.5 -19.5t-46.5 -6.5z" />
    <glyph glyph-name="eogonek" unicode="&#x119;" 
d="M192 -5q-69 0 -105 16t-49 44t-13 62v237q0 35 13 62.5t49 43.5t107 16q61 0 97.5 -15t52.5 -42t16 -63v-85l-130 -9v70q0 14 -7.5 29t-29.5 15q-23 0 -30.5 -15t-7.5 -29v-190q0 -14 7.5 -27.5t28.5 -13.5q24 0 31.5 13.5t7.5 29.5v25l130 9v-61q0 -36 -16 -63.5
t-52.5 -43t-99.5 -15.5zM40 210v68h320v-68h-320zM223 -188q-44 0 -74 24t-30 72q0 26 21.5 57t76.5 46l67 -3q-31 -12 -51 -35t-20 -47q0 -25 15 -38t34 -13q11 0 20 3.5t16 10.5l17 -51q-22 -13 -45.5 -19.5t-46.5 -6.5z" />
    <glyph glyph-name="Ecaron" unicode="&#x11a;" horiz-adv-x="362" 
d="M41 775h91l50 -43l49 43h91l-85 -102h-111zM28 620h318v-104h-185v-128h163l-16 -104h-147v-180h185v-104h-318v620z" />
    <glyph glyph-name="ecaron" unicode="&#x11b;" 
d="M52 625h91l50 -43l50 43h90l-85 -102h-111zM192 -5q-69 0 -105 16t-49 44t-13 62v237q0 35 13 62.5t49 43.5t107 16q61 0 97.5 -15t52.5 -42t16 -63v-85l-130 -9v70q0 14 -7.5 29t-29.5 15q-23 0 -30.5 -15t-7.5 -29v-190q0 -14 7.5 -27.5t28.5 -13.5q24 0 31.5 13.5
t7.5 29.5v25l130 9v-61q0 -36 -16 -63.5t-52.5 -43t-99.5 -15.5zM40 210v68h320v-68h-320z" />
    <glyph glyph-name="Gcircumflex" unicode="&#x11c;" horiz-adv-x="381" 
d="M194 -7q-59 0 -96.5 14t-55.5 40.5t-18 63.5v388q0 71 40.5 99t126.5 28q82 0 125.5 -28t43.5 -100v-85l-134 -5v63q0 29 -6.5 38t-26.5 9q-22 0 -28.5 -10.5t-6.5 -35.5v-340q0 -11 3.5 -17.5t11.5 -9.5t22 -3q13 0 21 3t11.5 9.5t3.5 17.5v89h-44l8 112h165v-222
q0 -37 -19.5 -63.5t-56.5 -40.5t-90 -14zM49 673l85 102h111l85 -102h-90l-50 42l-50 -42h-91z" />
    <glyph glyph-name="gcircumflex" unicode="&#x11d;" horiz-adv-x="396" 
d="M78 -179l-16 104h132q24 0 32 10.5t8 39.5v391h-45q-12 0 -18.5 -4t-9 -12t-2.5 -22v-181q0 -20 3 -29t9.5 -11.5t18.5 -2.5h29l-13 -104h-90q-41 0 -59 13t-23 42.5t-5 76.5v218q0 39 11 65.5t37 40.5t71 14h216v-530q0 -56 -24.5 -87.5t-88.5 -31.5h-173zM57 523
l85 102h111l85 -102h-90l-50 42l-50 -42h-91z" />
    <glyph glyph-name="Gbreve" unicode="&#x11e;" horiz-adv-x="381" 
d="M194 -7q-59 0 -96.5 14t-55.5 40.5t-18 63.5v388q0 71 40.5 99t126.5 28q82 0 125.5 -28t43.5 -100v-85l-134 -5v63q0 29 -6.5 38t-26.5 9q-22 0 -28.5 -10.5t-6.5 -35.5v-340q0 -11 3.5 -17.5t11.5 -9.5t22 -3q13 0 21 3t11.5 9.5t3.5 17.5v89h-44l8 112h165v-222
q0 -37 -19.5 -63.5t-56.5 -40.5t-90 -14zM186 663q-43 0 -70 14.5t-40.5 39.5t-13.5 56h82q0 -21 11 -35.5t33 -14.5q26 0 37 14.5t12 35.5h80q0 -49 -31 -79.5t-100 -30.5z" />
    <glyph glyph-name="gbreve" unicode="&#x11f;" horiz-adv-x="396" 
d="M78 -179l-16 104h132q24 0 32 10.5t8 39.5v391h-45q-12 0 -18.5 -4t-9 -12t-2.5 -22v-181q0 -20 3 -29t9.5 -11.5t18.5 -2.5h29l-13 -104h-90q-41 0 -59 13t-23 42.5t-5 76.5v218q0 39 11 65.5t37 40.5t71 14h216v-530q0 -56 -24.5 -87.5t-88.5 -31.5h-173zM194 513
q-43 0 -70 14.5t-40.5 39.5t-13.5 56h82q0 -22 11 -35.5t33 -13.5q26 0 37 13.5t12 35.5h80q0 -49 -31 -79.5t-100 -30.5z" />
    <glyph glyph-name="Gdotaccent" unicode="&#x120;" horiz-adv-x="381" 
d="M194 -7q-59 0 -96.5 14t-55.5 40.5t-18 63.5v388q0 71 40.5 99t126.5 28q82 0 125.5 -28t43.5 -100v-85l-134 -5v63q0 29 -6.5 38t-26.5 9q-22 0 -28.5 -10.5t-6.5 -35.5v-340q0 -11 3.5 -17.5t11.5 -9.5t22 -3q13 0 21 3t11.5 9.5t3.5 17.5v89h-44l8 112h165v-222
q0 -37 -19.5 -63.5t-56.5 -40.5t-90 -14zM188 670q-32 0 -37.5 10.5t-5.5 34.5q0 28 5.5 37t37.5 9q34 0 40 -9t6 -37q0 -24 -6.5 -34.5t-39.5 -10.5z" />
    <glyph glyph-name="gdotaccent" unicode="&#x121;" horiz-adv-x="396" 
d="M78 -179l-16 104h132q24 0 32 10.5t8 39.5v391h-45q-12 0 -18.5 -4t-9 -12t-2.5 -22v-181q0 -20 3 -29t9.5 -11.5t18.5 -2.5h29l-13 -104h-90q-41 0 -59 13t-23 42.5t-5 76.5v218q0 39 11 65.5t37 40.5t71 14h216v-530q0 -56 -24.5 -87.5t-88.5 -31.5h-173zM196 520
q-32 0 -37.5 10.5t-5.5 34.5q0 28 5.5 37t37.5 9q34 0 40 -9t6 -37q0 -24 -6.5 -34.5t-39.5 -10.5z" />
    <glyph glyph-name="uni0122" unicode="&#x122;" horiz-adv-x="381" 
d="M194 -7q-59 0 -96.5 14t-55.5 40.5t-18 63.5v388q0 71 40.5 99t126.5 28q82 0 125.5 -28t43.5 -100v-85l-134 -5v63q0 29 -6.5 38t-26.5 9q-22 0 -28.5 -10.5t-6.5 -35.5v-340q0 -11 3.5 -17.5t11.5 -9.5t22 -3q13 0 21 3t11.5 9.5t3.5 17.5v89h-44l8 112h165v-222
q0 -37 -19.5 -63.5t-56.5 -40.5t-90 -14zM129 -195q19 34 31 57.5t12 41.5q-19 0 -23 8t-4 21q0 20 6 26.5t40 6.5q31 0 37 -6.5t6 -26.5q0 -19 -8 -44.5t-18.5 -48t-20.5 -35.5h-58z" />
    <glyph glyph-name="uni0123" unicode="&#x123;" horiz-adv-x="396" 
d="M78 -179l-16 104h132q24 0 32 10.5t8 39.5v391h-45q-12 0 -18.5 -4t-9 -12t-2.5 -22v-181q0 -20 3 -29t9.5 -11.5t18.5 -2.5h29l-13 -104h-90q-41 0 -59 13t-23 42.5t-5 76.5v218q0 39 11 65.5t37 40.5t71 14h216v-530q0 -56 -24.5 -87.5t-88.5 -31.5h-173zM197 523
q-21 0 -30.5 6t-9.5 21q0 19 9.5 45.5t23 50.5t23.5 37h59q-21 -34 -35 -57t-16 -42q16 0 21 -5t5 -14q0 -25 -10.5 -33.5t-39.5 -8.5z" />
    <glyph glyph-name="Hcircumflex" unicode="&#x124;" horiz-adv-x="390" 
d="M28 620h133v-232h68v232h133v-620h-133v284h-68v-284h-133v620zM54 673l85 102h111l85 -102h-90l-50 42l-50 -42h-91z" />
    <glyph glyph-name="hcircumflex" unicode="&#x125;" horiz-adv-x="395" 
d="M32 627h130v-206q14 25 37 38.5t61 13.5q46 0 68.5 -16t30.5 -39t8 -45v-373h-130v327q0 22 -7.5 34t-29.5 12q-18 0 -27 -8.5t-11 -26.5v-338h-130v627zM-46 683l85 102h111l85 -102h-90l-50 42l-50 -42h-91z" />
    <glyph glyph-name="Hbar" unicode="&#x126;" horiz-adv-x="424" 
d="M6 476v86h412v-86h-412zM53 620h134v-232h67v232h134v-620h-134v284h-67v-284h-134v620z" />
    <glyph glyph-name="hbar" unicode="&#x127;" horiz-adv-x="395" 
d="M-4 522v43h218v-43h-218zM32 627h130v-206q14 25 37 38.5t61 13.5q46 0 68.5 -16t30.5 -39t8 -45v-373h-130v327q0 22 -7.5 34t-29.5 12q-18 0 -27 -8.5t-11 -26.5v-338h-130v627z" />
    <glyph glyph-name="Itilde" unicode="&#x128;" horiz-adv-x="189" 
d="M28 620h133v-620h-133v620zM-42 672q0 55 21.5 82t56.5 27q24 0 41.5 -8t32.5 -16.5t30 -8.5q13 0 22 9.5t9 25.5h58q0 -59 -23.5 -85t-53.5 -26q-25 0 -40.5 9.5t-28.5 18t-32 8.5q-10 0 -19.5 -9t-9.5 -27h-64z" />
    <glyph glyph-name="itilde" unicode="&#x129;" horiz-adv-x="194" 
d="M32 470h130v-470h-130v470zM-39 522q0 55 21.5 82t56.5 27q24 0 41.5 -8t32.5 -16.5t30 -8.5q13 0 22 9.5t9 25.5h58q0 -59 -23.5 -85t-53.5 -26q-25 0 -40.5 9.5t-28.5 18t-32 8.5q-10 0 -19.5 -9t-9.5 -27h-64z" />
    <glyph glyph-name="Imacron" unicode="&#x12a;" horiz-adv-x="189" 
d="M28 620h133v-620h-133v620zM-46 674v80h281v-80h-281z" />
    <glyph glyph-name="imacron" unicode="&#x12b;" horiz-adv-x="194" 
d="M32 470h130v-470h-130v470zM-44 524v80h281v-80h-281z" />
    <glyph glyph-name="Ibreve" unicode="&#x12c;" horiz-adv-x="189" 
d="M28 620h133v-620h-133v620zM91 663q-43 0 -70 14.5t-40.5 39.5t-13.5 56h82q0 -21 11 -35.5t33 -14.5q26 0 37 14.5t12 35.5h80q0 -49 -31 -79.5t-100 -30.5z" />
    <glyph glyph-name="ibreve" unicode="&#x12d;" horiz-adv-x="194" 
d="M32 470h130v-470h-130v470zM93 513q-43 0 -70 14.5t-40.5 39.5t-13.5 56h82q0 -22 11 -35.5t33 -13.5q26 0 37 13.5t12 35.5h80q0 -49 -31 -79.5t-100 -30.5z" />
    <glyph glyph-name="Iogonek" unicode="&#x12e;" horiz-adv-x="189" 
d="M28 620h133v-620h-133v620zM89 -180q-44 0 -74 24t-30 72q0 26 21.5 57t76.5 46l67 -3q-31 -12 -51 -35t-20 -47q0 -25 15 -38t34 -13q11 0 20 3.5t16 10.5l17 -51q-22 -13 -45.5 -19.5t-46.5 -6.5z" />
    <glyph glyph-name="iogonek" unicode="&#x12f;" horiz-adv-x="194" 
d="M32 470h130v-470h-130v470zM95 520q-32 0 -37.5 10.5t-5.5 34.5q0 28 5.5 37t37.5 9q34 0 40 -9t6 -37q0 -24 -6.5 -34.5t-39.5 -10.5zM74 -189q-44 0 -74 24t-30 72q0 26 21.5 57t76.5 46l67 -3q-31 -12 -51 -35t-20 -47q0 -25 15 -38t34 -13q11 0 20 3.5t16 10.5
l17 -51q-22 -13 -45.5 -19.5t-46.5 -6.5z" />
    <glyph glyph-name="Idotaccent" unicode="&#x130;" horiz-adv-x="189" 
d="M28 620h133v-620h-133v620zM92 670q-32 0 -37.5 10.5t-5.5 34.5q0 28 5.5 37t37.5 9q34 0 40 -9t6 -37q0 -24 -6.5 -34.5t-39.5 -10.5z" />
    <glyph glyph-name="dotlessi" unicode="&#x131;" horiz-adv-x="194" 
d="M32 470h130v-470h-130v470z" />
    <glyph glyph-name="Jcircumflex" unicode="&#x134;" horiz-adv-x="244" 
d="M15 0l-17 104h51q19 0 27 5t9.5 20t1.5 46v445h134v-488q0 -49 -7.5 -78t-34.5 -41.5t-84 -12.5h-80zM12 673l85 102h111l85 -102h-90l-50 42l-50 -42h-91z" />
    <glyph glyph-name="jcircumflex" unicode="&#x135;" horiz-adv-x="261" 
d="M-17 -179l-16 104h96q24 0 32 10.5t8 39.5v495h130v-530q0 -56 -24.5 -87.5t-88.5 -31.5h-137zM25 523l85 102h111l85 -102h-90l-50 42l-50 -42h-91z" />
    <glyph glyph-name="uni0136" unicode="&#x136;" horiz-adv-x="417" 
d="M300 -19l-191 351l184 299l99 -64l-147 -225l174 -299zM28 620h134v-620h-134v620zM149 -195q19 34 31 57.5t12 41.5q-19 0 -23 8t-4 21q0 20 6 26.5t40 6.5q31 0 37 -6.5t6 -26.5q0 -19 -8 -44.5t-18.5 -48t-20.5 -35.5h-58z" />
    <glyph glyph-name="uni0137" unicode="&#x137;" horiz-adv-x="394" 
d="M32 0v622h130v-622h-130zM255 0l-94 190h-52v97h52l99 195l119 -44l-104 -186l128 -252h-148zM152 -195q19 34 31 57.5t12 41.5q-19 0 -23 8t-4 21q0 20 6 26.5t40 6.5q31 0 37 -6.5t6 -26.5q0 -19 -8 -44.5t-18.5 -48t-20.5 -35.5h-58z" />
    <glyph glyph-name="kgreenlandic" unicode="&#x138;" horiz-adv-x="418" 
d="M32 0v530h130v-530h-130zM108 190v97h61v-97h-61zM255 0l-118 240l116 230h142l-120 -218l127 -252h-147z" />
    <glyph glyph-name="Lacute" unicode="&#x139;" horiz-adv-x="344" 
d="M28 620h133v-516h172v-104h-305v620zM76 673l95 101h111l-124 -101h-82z" />
    <glyph glyph-name="lacute" unicode="&#x13a;" horiz-adv-x="194" 
d="M32 622h130v-622h-130v622zM12 683l93 103h111l-122 -103h-82z" />
    <glyph glyph-name="uni013B" unicode="&#x13b;" horiz-adv-x="344" 
d="M28 620h133v-516h172v-104h-305v620zM115 -195q19 34 31 57.5t12 41.5q-19 0 -23 8t-4 21q0 20 6 26.5t40 6.5q31 0 37 -6.5t6 -26.5q0 -19 -8 -44.5t-18.5 -48t-20.5 -35.5h-58z" />
    <glyph glyph-name="uni013C" unicode="&#x13c;" horiz-adv-x="194" 
d="M32 622h130v-622h-130v622zM36 -195q19 34 31 57.5t12 41.5q-19 0 -23 8t-4 21q0 20 6 26.5t40 6.5q31 0 37 -6.5t6 -26.5q0 -19 -8 -44.5t-18.5 -48t-20.5 -35.5h-58z" />
    <glyph glyph-name="Lcaron" unicode="&#x13d;" horiz-adv-x="344" 
d="M28 620h133v-516h172v-104h-305v620zM246 496l19 148h77l-40 -148h-56z" />
    <glyph glyph-name="lcaron" unicode="&#x13e;" horiz-adv-x="194" 
d="M32 622h130v-622h-130v622zM208 496l19 148h77l-40 -148h-56z" />
    <glyph glyph-name="Ldot" unicode="&#x13f;" horiz-adv-x="341" 
d="M28 620h133v-516h172v-104h-305v620zM281 224q-33 0 -38.5 10.5t-5.5 35.5q0 27 5.5 36.5t38.5 9.5q34 0 39.5 -9.5t5.5 -36.5q0 -25 -6 -35.5t-39 -10.5z" />
    <glyph glyph-name="ldot" unicode="&#x140;" horiz-adv-x="198" 
d="M32 622h130v-622h-130v622zM243 224q-33 0 -38.5 10.5t-5.5 35.5q0 27 5.5 36.5t38.5 9.5q34 0 39.5 -9.5t5.5 -36.5q0 -25 -6 -35.5t-39 -10.5z" />
    <glyph glyph-name="Lslash" unicode="&#x141;" horiz-adv-x="368" 
d="M25 620h133v-516h173v-104h-306v620zM-8 174l-27 101l249 67l27 -101z" />
    <glyph glyph-name="lslash" unicode="&#x142;" horiz-adv-x="288" 
d="M71 622h130v-622h-130v622zM33 174l-27 101l249 67l27 -101z" />
    <glyph glyph-name="Nacute" unicode="&#x143;" horiz-adv-x="416" 
d="M28 0v620h133l92 -338l1 -6h1v344h133v-620h-136l-90 292l-1 7h-1v-299h-132zM123 673l95 101h111l-124 -101h-82z" />
    <glyph glyph-name="nacute" unicode="&#x144;" horiz-adv-x="395" 
d="M32 470h106l13 -49q14 28 42.5 43t66.5 15q50 0 78.5 -25t28.5 -77v-377h-130v332q0 22 -8.5 32t-28.5 10q-17 0 -26.5 -9t-11.5 -27v-338h-130v470zM113 523l93 103h111l-122 -103h-82z" />
    <glyph glyph-name="uni0145" unicode="&#x145;" horiz-adv-x="416" 
d="M28 0v620h133l92 -338l1 -6h1v344h133v-620h-136l-90 292l-1 7h-1v-299h-132zM147 -195q19 34 31 57.5t12 41.5q-19 0 -23 8t-4 21q0 20 6 26.5t40 6.5q31 0 37 -6.5t6 -26.5q0 -19 -8 -44.5t-18.5 -48t-20.5 -35.5h-58z" />
    <glyph glyph-name="uni0146" unicode="&#x146;" horiz-adv-x="395" 
d="M32 470h106l13 -49q14 28 42.5 43t66.5 15q50 0 78.5 -25t28.5 -77v-377h-130v332q0 22 -8.5 32t-28.5 10q-17 0 -26.5 -9t-11.5 -27v-338h-130v470zM137 -195q19 34 31 57.5t12 41.5q-19 0 -23 8t-4 21q0 20 6 26.5t40 6.5q31 0 37 -6.5t6 -26.5q0 -19 -8 -44.5
t-18.5 -48t-20.5 -35.5h-58z" />
    <glyph glyph-name="Ncaron" unicode="&#x147;" horiz-adv-x="416" 
d="M67 775h91l50 -43l50 43h90l-85 -102h-111zM28 0v620h133l92 -338l1 -6h1v344h133v-620h-136l-90 292l-1 7h-1v-299h-132z" />
    <glyph glyph-name="ncaron" unicode="&#x148;" horiz-adv-x="395" 
d="M58 625h90l50 -43l50 43h90l-85 -102h-110zM32 470h106l13 -49q14 28 42.5 43t66.5 15q50 0 78.5 -25t28.5 -77v-377h-130v332q0 22 -8.5 32t-28.5 10q-17 0 -26.5 -9t-11.5 -27v-338h-130v470z" />
    <glyph glyph-name="Eng" unicode="&#x14a;" horiz-adv-x="416" 
d="M172 -197l-16 104h62q24 0 32 8t8 25v37l-96 314l-1 7h-1v-298h-132v620h133l92 -339l1 -6h1v345h133v-698q0 -56 -24.5 -87.5t-88.5 -31.5h-103z" />
    <glyph glyph-name="eng" unicode="&#x14b;" horiz-adv-x="436" 
d="M32 470h106l12 -49q15 28 43 42.5t67 14.5q45 0 68 -16.5t30.5 -40t7.5 -45.5v-376h-130v326q0 23 -7 35t-29 12q-18 0 -27 -8.5t-11 -26.5v-338h-130v470zM116 -205l-16 104h96q24 0 32 10.5t8 39.5v249h130v-284q0 -55 -24.5 -87t-87.5 -32h-138z" />
    <glyph glyph-name="Omacron" unicode="&#x14c;" horiz-adv-x="383" 
d="M191 -7q-89 0 -128 32t-39 86v399q0 53 38.5 85.5t128.5 32.5q91 0 129.5 -32.5t38.5 -85.5v-398q0 -54 -39 -86.5t-129 -32.5zM191 102q22 0 30 11t8 35v328q0 23 -7.5 33.5t-30.5 10.5q-22 0 -29.5 -10.5t-7.5 -32.5v-330q0 -23 8 -34t29 -11zM51 674v80h281v-80h-281z
" />
    <glyph glyph-name="omacron" unicode="&#x14d;" 
d="M192 -5q-69 0 -105 16t-49 44t-13 62v237q0 35 13 62.5t49 43.5t107 16q61 0 97.5 -15t52.5 -42t16 -63v-239q0 -36 -16 -63.5t-52.5 -43t-99.5 -15.5zM191 101q24 0 31.5 13.5t7.5 29.5v188q0 14 -7.5 29t-29.5 15q-23 0 -30.5 -15t-7.5 -29v-190q0 -14 7.5 -27.5
t28.5 -13.5zM52 524v80h281v-80h-281z" />
    <glyph glyph-name="Obreve" unicode="&#x14e;" horiz-adv-x="383" 
d="M191 -7q-89 0 -128 32t-39 86v399q0 53 38.5 85.5t128.5 32.5q91 0 129.5 -32.5t38.5 -85.5v-398q0 -54 -39 -86.5t-129 -32.5zM191 102q22 0 30 11t8 35v328q0 23 -7.5 33.5t-30.5 10.5q-22 0 -29.5 -10.5t-7.5 -32.5v-330q0 -23 8 -34t29 -11zM188 663q-43 0 -70 14.5
t-40.5 39.5t-13.5 56h82q0 -21 11 -35.5t33 -14.5q26 0 37 14.5t12 35.5h80q0 -49 -31 -79.5t-100 -30.5z" />
    <glyph glyph-name="obreve" unicode="&#x14f;" 
d="M192 -5q-69 0 -105 16t-49 44t-13 62v237q0 35 13 62.5t49 43.5t107 16q61 0 97.5 -15t52.5 -42t16 -63v-239q0 -36 -16 -63.5t-52.5 -43t-99.5 -15.5zM191 101q24 0 31.5 13.5t7.5 29.5v188q0 14 -7.5 29t-29.5 15q-23 0 -30.5 -15t-7.5 -29v-190q0 -14 7.5 -27.5
t28.5 -13.5zM189 513q-43 0 -70 14.5t-40.5 39.5t-13.5 56h82q0 -22 11 -35.5t33 -13.5q26 0 37 13.5t12 35.5h80q0 -49 -31 -79.5t-100 -30.5z" />
    <glyph glyph-name="Ohungarumlaut" unicode="&#x150;" horiz-adv-x="383" 
d="M191 -7q-89 0 -128 32t-39 86v399q0 53 38.5 85.5t128.5 32.5q91 0 129.5 -32.5t38.5 -85.5v-398q0 -54 -39 -86.5t-129 -32.5zM191 102q22 0 30 11t8 35v328q0 23 -7.5 33.5t-30.5 10.5q-22 0 -29.5 -10.5t-7.5 -32.5v-330q0 -23 8 -34t29 -11zM83 673l46 103h111
l-75 -103h-82zM224 673l46 103h111l-75 -103h-82z" />
    <glyph glyph-name="ohungarumlaut" unicode="&#x151;" 
d="M192 -5q-69 0 -105 16t-49 44t-13 62v237q0 35 13 62.5t49 43.5t107 16q61 0 97.5 -15t52.5 -42t16 -63v-239q0 -36 -16 -63.5t-52.5 -43t-99.5 -15.5zM191 101q24 0 31.5 13.5t7.5 29.5v188q0 14 -7.5 29t-29.5 15q-23 0 -30.5 -15t-7.5 -29v-190q0 -14 7.5 -27.5
t28.5 -13.5zM84 523l46 103h111l-75 -103h-82zM225 523l46 103h111l-75 -103h-82z" />
    <glyph glyph-name="OE" unicode="&#x152;" horiz-adv-x="557" 
d="M194 -7q-89 0 -129.5 32t-40.5 86v388q0 69 40 98t127 29q74 0 112 -29t38 -99v-386q0 -54 -38 -86.5t-109 -32.5zM191 102q25 0 31.5 12.5t6.5 28.5v322q0 18 -2.5 30t-10.5 18t-26 6q-25 0 -30.5 -15.5t-5.5 -37.5v-323q0 -16 6.5 -28.5t30.5 -12.5zM232 0v620h309
v-104h-184v-128h161l-16 -104h-145v-180h184v-104h-309z" />
    <glyph glyph-name="oe" unicode="&#x153;" horiz-adv-x="597" 
d="M192 -5q-69 0 -105 16t-49 44t-13 62v237q0 35 13 62.5t49 43.5t107 16q61 0 97.5 -15t52.5 -42t16 -63v-239q0 -36 -16 -63.5t-52.5 -43t-99.5 -15.5zM191 101q24 0 31.5 13.5t7.5 29.5v188q0 14 -7.5 29t-29.5 15q-23 0 -30.5 -15t-7.5 -29v-190q0 -14 7.5 -27.5
t28.5 -13.5zM417 -6q-69 0 -105 16t-49 44t-13 62v237q0 35 13 62.5t49 43.5t107 16q61 0 97.5 -15t52.5 -42t16 -63v-85l-130 -9v70q0 14 -7.5 29t-29.5 15q-23 0 -30.5 -15t-7.5 -29v-190q0 -14 7.5 -27.5t28.5 -13.5q24 0 31.5 13.5t7.5 29.5v25l130 9v-61
q0 -36 -16 -63.5t-52.5 -43t-99.5 -15.5zM265 209v68h320v-68h-320z" />
    <glyph glyph-name="Racute" unicode="&#x154;" horiz-adv-x="404" 
d="M28 620h246q43 0 63.5 -10.5t27 -32t6.5 -53.5v-137q0 -36 -6 -67.5t-31 -51t-82 -19.5h-91v-249h-133v620zM283 -23l-110 280l89 2l38 -9l6 -5l101 -219zM205 353q19 0 26 11t7 37v59q0 38 -6 47t-25 9h-46v-163h44zM102 673l95 101h111l-124 -101h-82z" />
    <glyph glyph-name="racute" unicode="&#x155;" horiz-adv-x="312" 
d="M32 0v470h106l13 -49q14 28 40.5 42.5t49.5 14.5q28 0 43 -2.5t22 -7.5l-6 -113q-10 3 -28.5 5.5t-41.5 2.5q-25 0 -45.5 -15t-22.5 -49v-299h-130zM92 523l93 103h111l-122 -103h-82z" />
    <glyph glyph-name="uni0156" unicode="&#x156;" horiz-adv-x="404" 
d="M28 620h246q43 0 63.5 -10.5t27 -32t6.5 -53.5v-137q0 -36 -6 -67.5t-31 -51t-82 -19.5h-91v-249h-133v620zM283 -23l-110 280l89 2l38 -9l6 -5l101 -219zM205 353q19 0 26 11t7 37v59q0 38 -6 47t-25 9h-46v-163h44zM116 -195q19 34 31 57.5t12 41.5q-19 0 -23 8t-4 21
q0 20 6 26.5t40 6.5q31 0 37 -6.5t6 -26.5q0 -19 -8 -44.5t-18.5 -48t-20.5 -35.5h-58z" />
    <glyph glyph-name="uni0157" unicode="&#x157;" horiz-adv-x="312" 
d="M32 0v470h106l13 -49q14 28 40.5 42.5t49.5 14.5q28 0 43 -2.5t22 -7.5l-6 -113q-10 3 -28.5 5.5t-41.5 2.5q-25 0 -45.5 -15t-22.5 -49v-299h-130zM33 -195q19 34 31 57.5t12 41.5q-19 0 -23 8t-4 21q0 20 6 26.5t40 6.5q31 0 37 -6.5t6 -26.5q0 -19 -8 -44.5t-18.5 -48
t-20.5 -35.5h-58z" />
    <glyph glyph-name="Rcaron" unicode="&#x158;" horiz-adv-x="404" 
d="M47 775h91l50 -43l49 43h91l-85 -102h-111zM28 620h246q43 0 63.5 -10.5t27 -32t6.5 -53.5v-137q0 -36 -6 -67.5t-31 -51t-82 -19.5h-91v-249h-133v620zM283 -23l-110 280l89 2l38 -9l6 -5l101 -219zM205 353q19 0 26 11t7 37v59q0 38 -6 47t-25 9h-46v-163h44z" />
    <glyph glyph-name="rcaron" unicode="&#x159;" horiz-adv-x="312" 
d="M36 625h91l50 -43l50 43h90l-85 -102h-111zM32 0v470h106l13 -49q14 28 40.5 42.5t49.5 14.5q28 0 43 -2.5t22 -7.5l-6 -113q-10 3 -28.5 5.5t-41.5 2.5q-25 0 -45.5 -15t-22.5 -49v-299h-130z" />
    <glyph glyph-name="Sacute" unicode="&#x15a;" horiz-adv-x="374" 
d="M195 -9q-46 0 -86 6.5t-64.5 23.5t-24.5 50v145l133 14v-102q0 -14 6.5 -22.5t27.5 -8.5q14 0 21 4.5t10 12t3 17.5v57q0 23 -10.5 43.5t-41.5 30.5l-66 21q-43 14 -63 36t-20 71v138q0 44 24 65t64 27.5t85 6.5q43 0 79.5 -7t59 -24.5t22.5 -48.5v-145l-133 -18v95
q0 30 -8 37.5t-25 7.5q-18 0 -26.5 -9t-8.5 -40v-46q0 -20 7 -39.5t30 -27.5l75 -25q47 -16 68 -38t21 -69v-137q0 -42 -22 -64t-58 -30t-79 -8zM102 673l95 101h111l-124 -101h-82z" />
    <glyph glyph-name="sacute" unicode="&#x15b;" horiz-adv-x="342" 
d="M166 -6q-76 0 -109.5 29.5t-33.5 82.5v61l117 15v-69q0 -9 2 -16.5t8.5 -12t19.5 -4.5q15 0 22.5 7.5t7.5 25.5q0 35 -3 51t-24 26q-8 5 -18 10t-20.5 11t-20.5 11t-18 10q-32 18 -47.5 35t-20.5 34t-5 36v22q0 61 36.5 89t114.5 28t111.5 -25t33.5 -81v-52l-118 -15v55
q0 16 -7 23.5t-24 7.5q-12 0 -18.5 -4.5t-8.5 -11.5t-2 -16q0 -28 3.5 -38.5t15.5 -19.5q6 -4 17.5 -11t31 -17t46.5 -24q34 -17 49 -42t15 -69v-18q0 -63 -32.5 -93.5t-120.5 -30.5zM86 523l93 103h111l-122 -103h-82z" />
    <glyph glyph-name="Scircumflex" unicode="&#x15c;" horiz-adv-x="374" 
d="M195 -9q-46 0 -86 6.5t-64.5 23.5t-24.5 50v145l133 14v-102q0 -14 6.5 -22.5t27.5 -8.5q14 0 21 4.5t10 12t3 17.5v57q0 23 -10.5 43.5t-41.5 30.5l-66 21q-43 14 -63 36t-20 71v138q0 44 24 65t64 27.5t85 6.5q43 0 79.5 -7t59 -24.5t22.5 -48.5v-145l-133 -18v95
q0 30 -8 37.5t-25 7.5q-18 0 -26.5 -9t-8.5 -40v-46q0 -20 7 -39.5t30 -27.5l75 -25q47 -16 68 -38t21 -69v-137q0 -42 -22 -64t-58 -30t-79 -8zM46 673l85 102h111l85 -102h-90l-50 42l-50 -42h-91z" />
    <glyph glyph-name="scircumflex" unicode="&#x15d;" horiz-adv-x="342" 
d="M166 -6q-76 0 -109.5 29.5t-33.5 82.5v61l117 15v-69q0 -9 2 -16.5t8.5 -12t19.5 -4.5q15 0 22.5 7.5t7.5 25.5q0 35 -3 51t-24 26q-8 5 -18 10t-20.5 11t-20.5 11t-18 10q-32 18 -47.5 35t-20.5 34t-5 36v22q0 61 36.5 89t114.5 28t111.5 -25t33.5 -81v-52l-118 -15v55
q0 16 -7 23.5t-24 7.5q-12 0 -18.5 -4.5t-8.5 -11.5t-2 -16q0 -28 3.5 -38.5t15.5 -19.5q6 -4 17.5 -11t31 -17t46.5 -24q34 -17 49 -42t15 -69v-18q0 -63 -32.5 -93.5t-120.5 -30.5zM31 523l85 102h111l85 -102h-90l-50 42l-50 -42h-91z" />
    <glyph glyph-name="Scedilla" unicode="&#x15e;" horiz-adv-x="374" 
d="M195 -9q-46 0 -86 6.5t-64.5 23.5t-24.5 50v145l133 14v-102q0 -14 6.5 -22.5t27.5 -8.5q14 0 21 4.5t10 12t3 17.5v57q0 23 -10.5 43.5t-41.5 30.5l-66 21q-43 14 -63 36t-20 71v138q0 44 24 65t64 27.5t85 6.5q43 0 79.5 -7t59 -24.5t22.5 -48.5v-145l-133 -18v95
q0 30 -8 37.5t-25 7.5q-18 0 -26.5 -9t-8.5 -40v-46q0 -20 7 -39.5t30 -27.5l75 -25q47 -16 68 -38t21 -69v-137q0 -42 -22 -64t-58 -30t-79 -8zM177 -199q-24 0 -44 7t-37 16l28 47q5 -7 19 -12.5t27 -5.5q20 0 30.5 11t10.5 25q0 10 -9 20.5t-27 10.5q-12 0 -22.5 -4
t-15.5 -9l-35 25l52 68h52l-38 -46q16 10 36 10q43 0 63.5 -21.5t20.5 -48.5q0 -34 -28 -63.5t-83 -29.5z" />
    <glyph glyph-name="scedilla" unicode="&#x15f;" horiz-adv-x="342" 
d="M166 -6q-76 0 -109.5 29.5t-33.5 82.5v61l117 15v-69q0 -9 2 -16.5t8.5 -12t19.5 -4.5q15 0 22.5 7.5t7.5 25.5q0 35 -3 51t-24 26q-8 5 -18 10t-20.5 11t-20.5 11t-18 10q-32 18 -47.5 35t-20.5 34t-5 36v22q0 61 36.5 89t114.5 28t111.5 -25t33.5 -81v-52l-118 -15v55
q0 16 -7 23.5t-24 7.5q-12 0 -18.5 -4.5t-8.5 -11.5t-2 -16q0 -28 3.5 -38.5t15.5 -19.5q6 -4 17.5 -11t31 -17t46.5 -24q34 -17 49 -42t15 -69v-18q0 -63 -32.5 -93.5t-120.5 -30.5zM161 -199q-24 0 -44 7t-37 16l28 47q5 -7 19 -12.5t27 -5.5q20 0 30.5 11t10.5 25
q0 10 -9 20.5t-27 10.5q-12 0 -22.5 -4t-15.5 -9l-35 25l52 68h52l-38 -46q16 10 36 10q43 0 63.5 -21.5t20.5 -48.5q0 -34 -28 -63.5t-83 -29.5z" />
    <glyph glyph-name="Scaron" unicode="&#x160;" horiz-adv-x="374" 
d="M47 775h90l50 -43l50 43h90l-84 -102h-111zM195 -9q-46 0 -86 6.5t-64.5 23.5t-24.5 50v145l133 14v-102q0 -14 6.5 -22.5t27.5 -8.5q14 0 21 4.5t10 12t3 17.5v57q0 23 -10.5 43.5t-41.5 30.5l-66 21q-43 14 -63 36t-20 71v138q0 44 24 65t64 27.5t85 6.5q43 0 79.5 -7
t59 -24.5t22.5 -48.5v-145l-133 -18v95q0 30 -8 37.5t-25 7.5q-18 0 -26.5 -9t-8.5 -40v-46q0 -20 7 -39.5t30 -27.5l75 -25q47 -16 68 -38t21 -69v-137q0 -42 -22 -64t-58 -30t-79 -8z" />
    <glyph glyph-name="scaron" unicode="&#x161;" horiz-adv-x="342" 
d="M31 625h91l49 -43l50 43h91l-85 -102h-111zM166 -6q-76 0 -109.5 29.5t-33.5 82.5v61l117 15v-69q0 -9 2 -16.5t8.5 -12t19.5 -4.5q15 0 22.5 7.5t7.5 25.5q0 35 -3 51t-24 26q-8 5 -18 10t-20.5 11t-20.5 11t-18 10q-32 18 -47.5 35t-20.5 34t-5 36v22q0 61 36.5 89
t114.5 28t111.5 -25t33.5 -81v-52l-118 -15v55q0 16 -7 23.5t-24 7.5q-12 0 -18.5 -4.5t-8.5 -11.5t-2 -16q0 -28 3.5 -38.5t15.5 -19.5q6 -4 17.5 -11t31 -17t46.5 -24q34 -17 49 -42t15 -69v-18q0 -63 -32.5 -93.5t-120.5 -30.5z" />
    <glyph glyph-name="uni0162" unicode="&#x162;" horiz-adv-x="363" 
d="M115 516h-105v104h343v-104h-105v-516h-133v516zM169 -199q-24 0 -44 7t-37 16l28 47q5 -7 19 -12.5t27 -5.5q20 0 30.5 11t10.5 25q0 10 -9 20.5t-27 10.5q-12 0 -22.5 -4t-15.5 -9l-35 25l52 68h52l-38 -46q16 10 36 10q43 0 63.5 -21.5t20.5 -48.5q0 -34 -28 -63.5
t-83 -29.5z" />
    <glyph glyph-name="uni0163" unicode="&#x163;" horiz-adv-x="276" 
d="M184 0q-38 0 -69 6.5t-49 28t-18 67.5v271h-33v97h45l22 88h95v-88h86l-29 -97h-57v-210q0 -33 11.5 -46t35.5 -13h41v-104h-81zM171 -196q-24 0 -44 7t-37 16l28 47q5 -7 19 -12.5t27 -5.5q20 0 30.5 11t10.5 25q0 10 -9 20.5t-27 10.5q-12 0 -22.5 -4t-15.5 -9l-35 25
l52 68h52l-38 -46q16 10 36 10q43 0 63.5 -21.5t20.5 -48.5q0 -34 -28 -63.5t-83 -29.5z" />
    <glyph glyph-name="Tcaron" unicode="&#x164;" horiz-adv-x="363" 
d="M41 775h91l49 -43l50 43h91l-85 -102h-111zM115 516h-105v104h343v-104h-105v-516h-133v516z" />
    <glyph glyph-name="tcaron" unicode="&#x165;" horiz-adv-x="276" 
d="M184 0q-38 0 -69 6.5t-49 28t-18 67.5v271h-33v97h45l22 88h95v-88h86l-29 -97h-57v-210q0 -33 11.5 -46t35.5 -13h41v-104h-81zM221 519l19 148h77l-40 -148h-56z" />
    <glyph glyph-name="Tbar" unicode="&#x166;" horiz-adv-x="363" 
d="M115 516h-105v104h343v-104h-105v-516h-133v516zM39 362v63h285v-63h-285z" />
    <glyph glyph-name="tbar" unicode="&#x167;" horiz-adv-x="276" 
d="M184 0q-38 0 -69 6.5t-49 28t-18 67.5v271h-33v97h45l22 88h95v-88h86l-29 -97h-57v-210q0 -33 11.5 -46t35.5 -13h41v-104h-81zM-4 235v63h285v-63h-285z" />
    <glyph glyph-name="Utilde" unicode="&#x168;" horiz-adv-x="382" 
d="M190 -5q-48 0 -86 9t-59 29.5t-21 55.5v531h133v-489q0 -9 3 -16t10.5 -11.5t19.5 -4.5q13 0 20.5 4.5t11 12t3.5 15.5v489h133v-531q0 -35 -22 -55.5t-60 -29.5t-86 -9zM55 672q0 55 21.5 82t56.5 27q24 0 41.5 -8t32.5 -16.5t30 -8.5q13 0 22 9.5t9 25.5h58
q0 -59 -23.5 -85t-53.5 -26q-25 0 -40.5 9.5t-28.5 18t-32 8.5q-10 0 -19.5 -9t-9.5 -27h-64z" />
    <glyph glyph-name="utilde" unicode="&#x169;" horiz-adv-x="394" 
d="M133 0q-45 0 -68 14t-30.5 36t-7.5 44v376h130v-319q0 -23 7.5 -35t28.5 -12h39v366h130v-470h-229zM60 522q0 55 21.5 82t56.5 27q24 0 41.5 -8t32.5 -16.5t30 -8.5q13 0 22 9.5t9 25.5h58q0 -59 -23.5 -85t-53.5 -26q-25 0 -40.5 9.5t-28.5 18t-32 8.5q-10 0 -19.5 -9
t-9.5 -27h-64z" />
    <glyph glyph-name="Umacron" unicode="&#x16a;" horiz-adv-x="382" 
d="M190 -5q-48 0 -86 9t-59 29.5t-21 55.5v531h133v-489q0 -9 3 -16t10.5 -11.5t19.5 -4.5q13 0 20.5 4.5t11 12t3.5 15.5v489h133v-531q0 -35 -22 -55.5t-60 -29.5t-86 -9zM50 674v80h281v-80h-281z" />
    <glyph glyph-name="umacron" unicode="&#x16b;" horiz-adv-x="394" 
d="M133 0q-45 0 -68 14t-30.5 36t-7.5 44v376h130v-319q0 -23 7.5 -35t28.5 -12h39v366h130v-470h-229zM56 524v80h281v-80h-281z" />
    <glyph glyph-name="Ubreve" unicode="&#x16c;" horiz-adv-x="382" 
d="M190 -5q-48 0 -86 9t-59 29.5t-21 55.5v531h133v-489q0 -9 3 -16t10.5 -11.5t19.5 -4.5q13 0 20.5 4.5t11 12t3.5 15.5v489h133v-531q0 -35 -22 -55.5t-60 -29.5t-86 -9zM187 663q-43 0 -70 14.5t-40.5 39.5t-13.5 56h82q0 -21 11 -35.5t33 -14.5q26 0 37 14.5t12 35.5
h80q0 -49 -31 -79.5t-100 -30.5z" />
    <glyph glyph-name="ubreve" unicode="&#x16d;" horiz-adv-x="394" 
d="M133 0q-45 0 -68 14t-30.5 36t-7.5 44v376h130v-319q0 -23 7.5 -35t28.5 -12h39v366h130v-470h-229zM192 513q-43 0 -70 14.5t-40.5 39.5t-13.5 56h82q0 -22 11 -35.5t33 -13.5q26 0 37 13.5t12 35.5h80q0 -49 -31 -79.5t-100 -30.5z" />
    <glyph glyph-name="Uring" unicode="&#x16e;" horiz-adv-x="382" 
d="M190 -5q-48 0 -86 9t-59 29.5t-21 55.5v531h133v-489q0 -9 3 -16t10.5 -11.5t19.5 -4.5q13 0 20.5 4.5t11 12t3.5 15.5v489h133v-531q0 -35 -22 -55.5t-60 -29.5t-86 -9zM191 667q-41 0 -69 26t-28 64t28 65t69 27q39 0 67.5 -27t28.5 -65t-28.5 -64t-67.5 -26zM191 720
q16 0 27 10.5t11 26.5q0 15 -11.5 26t-26.5 11q-16 0 -27.5 -11t-11.5 -26q0 -16 11 -26.5t28 -10.5z" />
    <glyph glyph-name="uring" unicode="&#x16f;" horiz-adv-x="394" 
d="M133 0q-45 0 -68 14t-30.5 36t-7.5 44v376h130v-319q0 -23 7.5 -35t28.5 -12h39v366h130v-470h-229zM197 517q-41 0 -69 26t-28 64t28 65t69 27q39 0 67.5 -27t28.5 -65t-28.5 -64t-67.5 -26zM197 570q16 0 27 10.5t11 26.5q0 15 -11.5 26t-26.5 11q-16 0 -27.5 -11
t-11.5 -26q0 -16 11 -26.5t28 -10.5z" />
    <glyph glyph-name="Uhungarumlaut" unicode="&#x170;" horiz-adv-x="382" 
d="M190 -5q-48 0 -86 9t-59 29.5t-21 55.5v531h133v-489q0 -9 3 -16t10.5 -11.5t19.5 -4.5q13 0 20.5 4.5t11 12t3.5 15.5v489h133v-531q0 -35 -22 -55.5t-60 -29.5t-86 -9zM82 673l46 103h111l-75 -103h-82zM223 673l46 103h111l-75 -103h-82z" />
    <glyph glyph-name="uhungarumlaut" unicode="&#x171;" horiz-adv-x="394" 
d="M133 0q-45 0 -68 14t-30.5 36t-7.5 44v376h130v-319q0 -23 7.5 -35t28.5 -12h39v366h130v-470h-229zM87 523l46 103h111l-75 -103h-82zM228 523l46 103h111l-75 -103h-82z" />
    <glyph glyph-name="Uogonek" unicode="&#x172;" horiz-adv-x="382" 
d="M190 -5q-48 0 -86 9t-59 29.5t-21 55.5v531h133v-489q0 -9 3 -16t10.5 -11.5t19.5 -4.5q13 0 20.5 4.5t11 12t3.5 15.5v489h133v-531q0 -35 -22 -55.5t-60 -29.5t-86 -9zM204 -190q-44 0 -74 24t-30 72q0 26 21.5 57t76.5 46l67 -3q-31 -12 -51 -35t-20 -47q0 -25 15 -38
t34 -13q11 0 20 3.5t16 10.5l17 -51q-22 -13 -45.5 -19.5t-46.5 -6.5z" />
    <glyph glyph-name="uogonek" unicode="&#x173;" horiz-adv-x="394" 
d="M133 0q-45 0 -68 14t-30.5 36t-7.5 44v376h130v-319q0 -23 7.5 -35t28.5 -12h39v366h130v-470h-229zM260 -189q-44 0 -74 24t-30 72q0 26 21.5 57t76.5 46l67 -3q-31 -12 -51 -35t-20 -47q0 -25 15 -38t34 -13q11 0 20 3.5t16 10.5l17 -51q-22 -13 -45.5 -19.5
t-46.5 -6.5z" />
    <glyph glyph-name="Wcircumflex" unicode="&#x174;" horiz-adv-x="593" 
d="M130 0l-126 620h134l58 -350l1 -23h1v23l49 324h100l48 -324l1 -23h1l1 23l52 350h138l-125 -620h-124l-39 285l-1 24h-1l-1 -24l-42 -285h-125zM157 673l85 102h111l85 -102h-90l-50 42l-50 -42h-91z" />
    <glyph glyph-name="wcircumflex" unicode="&#x175;" horiz-adv-x="583" 
d="M-8 470h130l58 -221l58 221h103l57 -209l58 209h130l-132 -470h-82l-83 276l-83 -276h-82zM151 523l85 102h111l85 -102h-90l-50 42l-50 -42h-91z" />
    <glyph glyph-name="Ycircumflex" unicode="&#x176;" horiz-adv-x="392" 
d="M131 0v198l-133 422h122l78 -267l1 -22h1l1 22l71 267h122l-133 -421v-199h-130zM55 673l85 102h111l85 -102h-90l-50 42l-50 -42h-91z" />
    <glyph glyph-name="ycircumflex" unicode="&#x177;" 
d="M-19 -170l22 80h51q27 0 44.5 16t27.5 58l7 29l-141 457h124l69 -267l1 -31h1l1 31l70 267h126l-160 -522q-20 -62 -49 -90t-83 -28h-111zM52 523l85 102h111l85 -102h-90l-50 42l-50 -42h-91z" />
    <glyph glyph-name="Ydieresis" unicode="&#x178;" horiz-adv-x="392" 
d="M131 0v198l-133 422h122l78 -267l1 -22h1l1 22l71 267h122l-133 -421v-199h-130zM263 668q-33 0 -38 10.5t-5 35.5q0 27 5 36t38 9q34 0 39.5 -9t5.5 -36q0 -25 -6 -35.5t-39 -10.5zM126 668q-32 0 -37.5 10.5t-5.5 35.5q0 27 5.5 36t37.5 9q34 0 40 -9t6 -36
q0 -25 -6.5 -35.5t-39.5 -10.5z" />
    <glyph glyph-name="Zacute" unicode="&#x179;" horiz-adv-x="339" 
d="M-2 0l168 516h-156v104h325l-170 -516h167v-104h-334zM85 673l95 101h111l-124 -101h-82z" />
    <glyph glyph-name="zacute" unicode="&#x17a;" horiz-adv-x="332" 
d="M6 9l164 357h-155l22 104h274v-62l-138 -304h151l-39 -104h-279v9zM81 523l93 103h111l-122 -103h-82z" />
    <glyph glyph-name="Zdotaccent" unicode="&#x17b;" horiz-adv-x="339" 
d="M-2 0l168 516h-156v104h325l-170 -516h167v-104h-334zM168 670q-32 0 -37.5 10.5t-5.5 34.5q0 28 5.5 37t37.5 9q34 0 40 -9t6 -37q0 -24 -6.5 -34.5t-39.5 -10.5z" />
    <glyph glyph-name="zdotaccent" unicode="&#x17c;" horiz-adv-x="332" 
d="M6 9l164 357h-155l22 104h274v-62l-138 -304h151l-39 -104h-279v9zM164 520q-32 0 -37.5 10.5t-5.5 34.5q0 28 5.5 37t37.5 9q34 0 40 -9t6 -37q0 -24 -6.5 -34.5t-39.5 -10.5z" />
    <glyph glyph-name="Zcaron" unicode="&#x17d;" horiz-adv-x="339" 
d="M29 775h91l50 -43l50 43h90l-85 -102h-111zM-2 0l168 516h-156v104h325l-170 -516h167v-104h-334z" />
    <glyph glyph-name="zcaron" unicode="&#x17e;" horiz-adv-x="332" 
d="M26 625h90l50 -43l50 43h90l-84 -102h-111zM6 9l164 357h-155l22 104h274v-62l-138 -304h151l-39 -104h-279v9z" />
    <glyph glyph-name="uni018F" unicode="&#x18f;" horiz-adv-x="380" 
d="M190 -6q-62 0 -98.5 20.5t-52.5 56t-16 81.5v192h205v120q0 19 -7.5 37t-29.5 18q-23 0 -30.5 -18t-7.5 -39v-63l-130 -12v80q0 48 16 84.5t52.5 56.5t98.5 20q70 0 106 -21t49 -57.5t13 -81.5v-313q0 -45 -13 -82t-49 -58t-106 -21zM190 101q16 0 24 9.5t11 23.5t3 26
v95h-75v-95q0 -12 3 -26t11 -23.5t23 -9.5z" />
    <glyph glyph-name="florin" unicode="&#x192;" horiz-adv-x="404" 
d="M-12 -179l-17 104h62q23 0 32.5 10.5t12.5 39.5l44 427h-43l6 68h43l7 63q4 37 16 57t36 28t65 8h125l-8 -69h-61q-25 0 -33.5 -8.5t-11.5 -40.5l-4 -38h85l-16 -68h-76l-48 -462q-6 -56 -34 -87.5t-91 -31.5h-91z" />
    <glyph glyph-name="Ohorn" unicode="&#x1a0;" horiz-adv-x="383" 
d="M191 -7q-89 0 -128 32t-39 86v399q0 53 38.5 85.5t128.5 32.5q91 0 129.5 -32.5t38.5 -85.5v-398q0 -54 -39 -86.5t-129 -32.5zM191 102q22 0 30 11t8 35v328q0 23 -7.5 33.5t-30.5 10.5q-22 0 -29.5 -10.5t-7.5 -32.5v-330q0 -23 8 -34t29 -11zM270 578l-6 42
q20 0 31 11.5t10 37.5h72q0 -37 -23 -64t-84 -27z" />
    <glyph glyph-name="ohorn" unicode="&#x1a1;" 
d="M192 -5q-69 0 -105 16t-49 44t-13 62v237q0 35 13 62.5t49 43.5t107 16q61 0 97.5 -15t52.5 -42t16 -63v-239q0 -36 -16 -63.5t-52.5 -43t-99.5 -15.5zM191 101q24 0 31.5 13.5t7.5 29.5v188q0 14 -7.5 29t-29.5 15q-23 0 -30.5 -15t-7.5 -29v-190q0 -14 7.5 -27.5
t28.5 -13.5zM264 428l-6 42q20 0 31 11.5t10 37.5h72q0 -37 -23 -64t-84 -27z" />
    <glyph glyph-name="Uhorn" unicode="&#x1af;" horiz-adv-x="382" 
d="M190 -5q-48 0 -86 9t-59 29.5t-21 55.5v531h133v-489q0 -9 3 -16t10.5 -11.5t19.5 -4.5q13 0 20.5 4.5t11 12t3.5 15.5v489h133v-531q0 -35 -22 -55.5t-60 -29.5t-86 -9zM295 578l-6 42q20 0 31 11.5t10 37.5h72q0 -37 -23 -64t-84 -27z" />
    <glyph glyph-name="uhorn" unicode="&#x1b0;" horiz-adv-x="394" 
d="M133 0q-45 0 -68 14t-30.5 36t-7.5 44v376h130v-319q0 -23 7.5 -35t28.5 -12h39v366h130v-470h-229zM299 428l-6 42q20 0 31 11.5t10 37.5h72q0 -37 -23 -64t-84 -27z" />
    <glyph glyph-name="uni01C4" unicode="&#x1c4;" horiz-adv-x="725" 
d="M416 775h90l50 -43l50 43h90l-85 -102h-111zM28 620h257q47 0 62 -21.5t15 -68.5v-439q0 -48 -15 -69.5t-60 -21.5h-259v620zM203 104q17 0 21.5 9.5t4.5 23.5v347q0 16 -5 24t-19 8h-45v-412h43zM385 0l168 516h-157v104h326l-171 -516h168v-104h-334z" />
    <glyph glyph-name="uni01C5" unicode="&#x1c5;" horiz-adv-x="718" 
d="M412 625h91l50 -43l49 43h91l-85 -102h-111zM28 620h257q47 0 62 -21.5t15 -68.5v-439q0 -48 -15 -69.5t-60 -21.5h-259v620zM203 104q17 0 21.5 9.5t4.5 23.5v347q0 16 -5 24t-19 8h-45v-412h43zM393 9l163 357h-155l22 104h274v-62l-138 -304h151l-39 -104h-278v9z" />
    <glyph glyph-name="uni01C6" unicode="&#x1c6;" horiz-adv-x="728" 
d="M422 625h90l50 -43l50 43h90l-84 -102h-111zM127 0q-39 0 -60.5 8.5t-29.5 34.5t-8 77v239q0 39 13 63t39.5 36t66.5 12h86v157h130v-627h-237zM234 104v262h-44q-17 0 -24 -7.5t-7 -26.5v-188q0 -28 7.5 -34t25.5 -6h42zM402 9l164 357h-155l22 104h274v-62l-138 -304
h151l-39 -104h-279v9z" />
    <glyph glyph-name="uni01C7" unicode="&#x1c7;" horiz-adv-x="588" 
d="M28 620h133v-516h172v-104h-305v620zM359 0l-17 104h51q19 0 27 5t9.5 20t1.5 46v445h134v-488q0 -49 -7.5 -78t-34.5 -41.5t-84 -12.5h-80z" />
    <glyph glyph-name="uni01C8" unicode="&#x1c8;" horiz-adv-x="608" 
d="M28 620h133v-516h172v-104h-305v620zM327 -179l-16 104h96q24 0 32 10.5t8 39.5v495h130v-530q0 -56 -24.5 -87.5t-87.5 -31.5h-138zM512 507q-43 0 -55.5 12.5t-12.5 44.5q0 34 12.5 46t55.5 12q44 0 56 -12t12 -46q0 -32 -12 -44.5t-56 -12.5z" />
    <glyph glyph-name="uni01C9" unicode="&#x1c9;" horiz-adv-x="458" 
d="M32 622h130v-622h-130v622zM177 -179l-16 104h96q24 0 32 10.5t8 39.5v495h130v-530q0 -56 -24.5 -87.5t-87.5 -31.5h-138zM362 507q-43 0 -55.5 12.5t-12.5 44.5q0 34 12.5 46t55.5 12q44 0 56 -12t12 -46q0 -32 -12 -44.5t-56 -12.5z" />
    <glyph glyph-name="uni01CA" unicode="&#x1ca;" horiz-adv-x="660" 
d="M28 0v620h133l92 -338l1 -6h1v344h133v-620h-136l-90 292l-1 7h-1v-299h-132zM431 0l-17 104h51q19 0 27 5t9.5 20t1.5 46v445h134v-488q0 -49 -7.5 -78t-34.5 -41.5t-84 -12.5h-80z" />
    <glyph glyph-name="uni01CB" unicode="&#x1cb;" horiz-adv-x="680" 
d="M28 0v620h133l92 -338l1 -6h1v344h133v-620h-136l-90 292l-1 7h-1v-299h-132zM399 -179l-16 104h96q24 0 32 10.5t8 39.5v495h130v-530q0 -56 -24.5 -87.5t-87.5 -31.5h-138zM584 507q-43 0 -55.5 12.5t-12.5 44.5q0 34 12.5 46t55.5 12q44 0 56 -12t12 -46
q0 -32 -12 -44.5t-56 -12.5z" />
    <glyph glyph-name="uni01CC" unicode="&#x1cc;" horiz-adv-x="659" 
d="M32 470h106l13 -49q14 28 42.5 43t66.5 15q50 0 78.5 -25t28.5 -77v-377h-130v332q0 22 -8.5 32t-28.5 10q-17 0 -26.5 -9t-11.5 -27v-338h-130v470zM378 -179l-16 104h96q24 0 32 10.5t8 39.5v495h130v-530q0 -56 -24.5 -87.5t-87.5 -31.5h-138zM563 507
q-43 0 -55.5 12.5t-12.5 44.5q0 34 12.5 46t55.5 12q44 0 56 -12t12 -46q0 -32 -12 -44.5t-56 -12.5z" />
    <glyph glyph-name="uni01CD" unicode="&#x1cd;" horiz-adv-x="402" 
d="M60 775h91l50 -43l49 43h91l-85 -102h-111zM4 0l128 620h138l128 -620h-139l-24 126l21 -19h-115l17 19l-20 -126h-134zM163 198l-11 14h97l-16 -14l-30 242l-1 24h-5l-1 -24z" />
    <glyph glyph-name="uni01CE" unicode="&#x1ce;" horiz-adv-x="396" 
d="M70 625h91l50 -43l49 43h91l-85 -102h-111zM116 0q-41 0 -59 13t-23 42.5t-5 76.5v218q0 39 11 65.5t37 40.5t71 14h216v-470h-130v366h-45q-12 0 -18.5 -4t-9 -12t-2.5 -22v-181q0 -20 3 -29t9.5 -11.5t18.5 -2.5h29l-13 -104h-90z" />
    <glyph glyph-name="uni01CF" unicode="&#x1cf;" horiz-adv-x="189" 
d="M-46 775h91l49 -43l50 43h91l-85 -102h-111zM28 620h133v-620h-133v620z" />
    <glyph glyph-name="uni01D0" unicode="&#x1d0;" horiz-adv-x="194" 
d="M-44 625h91l50 -43l50 43h90l-85 -102h-111zM32 470h130v-470h-130v470z" />
    <glyph glyph-name="uni01D1" unicode="&#x1d1;" horiz-adv-x="383" 
d="M51 775h91l50 -43l49 43h91l-85 -102h-111zM191 -7q-89 0 -128 32t-39 86v399q0 53 38.5 85.5t128.5 32.5q91 0 129.5 -32.5t38.5 -85.5v-398q0 -54 -39 -86.5t-129 -32.5zM191 102q22 0 30 11t8 35v328q0 23 -7.5 33.5t-30.5 10.5q-22 0 -29.5 -10.5t-7.5 -32.5v-330
q0 -23 8 -34t29 -11z" />
    <glyph glyph-name="uni01D2" unicode="&#x1d2;" 
d="M52 625h91l50 -43l50 43h90l-85 -102h-111zM192 -5q-69 0 -105 16t-49 44t-13 62v237q0 35 13 62.5t49 43.5t107 16q61 0 97.5 -15t52.5 -42t16 -63v-239q0 -36 -16 -63.5t-52.5 -43t-99.5 -15.5zM191 101q24 0 31.5 13.5t7.5 29.5v188q0 14 -7.5 29t-29.5 15
q-23 0 -30.5 -15t-7.5 -29v-190q0 -14 7.5 -27.5t28.5 -13.5z" />
    <glyph glyph-name="uni01D3" unicode="&#x1d3;" horiz-adv-x="382" 
d="M50 775h91l50 -43l50 43h90l-85 -102h-111zM190 -5q-48 0 -86 9t-59 29.5t-21 55.5v531h133v-489q0 -9 3 -16t10.5 -11.5t19.5 -4.5q13 0 20.5 4.5t11 12t3.5 15.5v489h133v-531q0 -35 -22 -55.5t-60 -29.5t-86 -9z" />
    <glyph glyph-name="uni01D4" unicode="&#x1d4;" horiz-adv-x="394" 
d="M56 625h90l50 -43l50 43h90l-84 -102h-111zM133 0q-45 0 -68 14t-30.5 36t-7.5 44v376h130v-319q0 -23 7.5 -35t28.5 -12h39v366h130v-470h-229z" />
    <glyph glyph-name="uni01D5" unicode="&#x1d5;" horiz-adv-x="382" 
d="M190 -5q-48 0 -86 9t-59 29.5t-21 55.5v531h133v-489q0 -9 3 -16t10.5 -11.5t19.5 -4.5q13 0 20.5 4.5t11 12t3.5 15.5v489h133v-531q0 -35 -22 -55.5t-60 -29.5t-86 -9zM258 668q-33 0 -38 10.5t-5 35.5q0 27 5 36t38 9q34 0 39.5 -9t5.5 -36q0 -25 -6 -35.5t-39 -10.5z
M121 668q-32 0 -37.5 10.5t-5.5 35.5q0 27 5.5 36t37.5 9q34 0 40 -9t6 -36q0 -25 -6.5 -35.5t-39.5 -10.5zM50 785v80h281v-80h-281z" />
    <glyph glyph-name="uni01D6" unicode="&#x1d6;" horiz-adv-x="394" 
d="M133 0q-45 0 -68 14t-30.5 36t-7.5 44v376h130v-319q0 -23 7.5 -35t28.5 -12h39v366h130v-470h-229zM263 518q-33 0 -38 10.5t-5 35.5q0 27 5 36t38 9q34 0 39.5 -9t5.5 -36q0 -25 -6 -35.5t-39 -10.5zM126 518q-32 0 -37.5 10.5t-5.5 35.5q0 27 5.5 36t37.5 9
q34 0 40 -9t6 -36q0 -25 -6.5 -35.5t-39.5 -10.5zM56 635v80h281v-80h-281z" />
    <glyph glyph-name="uni01D7" unicode="&#x1d7;" horiz-adv-x="382" 
d="M190 -5q-48 0 -86 9t-59 29.5t-21 55.5v531h133v-489q0 -9 3 -16t10.5 -11.5t19.5 -4.5q13 0 20.5 4.5t11 12t3.5 15.5v489h133v-531q0 -35 -22 -55.5t-60 -29.5t-86 -9zM258 668q-33 0 -38 10.5t-5 35.5q0 27 5 36t38 9q34 0 39.5 -9t5.5 -36q0 -25 -6 -35.5t-39 -10.5z
M121 668q-32 0 -37.5 10.5t-5.5 35.5q0 27 5.5 36t37.5 9q34 0 40 -9t6 -36q0 -25 -6.5 -35.5t-39.5 -10.5zM106 784l95 101h111l-124 -101h-82z" />
    <glyph glyph-name="uni01D8" unicode="&#x1d8;" horiz-adv-x="394" 
d="M133 0q-45 0 -68 14t-30.5 36t-7.5 44v376h130v-319q0 -23 7.5 -35t28.5 -12h39v366h130v-470h-229zM263 518q-33 0 -38 10.5t-5 35.5q0 27 5 36t38 9q34 0 39.5 -9t5.5 -36q0 -25 -6 -35.5t-39 -10.5zM126 518q-32 0 -37.5 10.5t-5.5 35.5q0 27 5.5 36t37.5 9
q34 0 40 -9t6 -36q0 -25 -6.5 -35.5t-39.5 -10.5zM111 634l93 103h111l-122 -103h-82z" />
    <glyph glyph-name="uni01D9" unicode="&#x1d9;" horiz-adv-x="382" 
d="M50 886h91l50 -42l50 42h90l-85 -102h-111zM190 -5q-48 0 -86 9t-59 29.5t-21 55.5v531h133v-489q0 -9 3 -16t10.5 -11.5t19.5 -4.5q13 0 20.5 4.5t11 12t3.5 15.5v489h133v-531q0 -35 -22 -55.5t-60 -29.5t-86 -9zM257 668q-32 0 -37.5 10.5t-5.5 35.5q0 27 5.5 36
t37.5 9q34 0 40 -9t6 -36q0 -25 -6 -35.5t-40 -10.5zM121 668q-32 0 -37.5 10.5t-5.5 35.5q0 27 5.5 36t37.5 9q34 0 39.5 -9t5.5 -36q0 -25 -6 -35.5t-39 -10.5z" />
    <glyph glyph-name="uni01DA" unicode="&#x1da;" horiz-adv-x="394" 
d="M56 736h90l50 -42l50 42h90l-84 -102h-111zM133 0q-45 0 -68 14t-30.5 36t-7.5 44v376h130v-319q0 -23 7.5 -35t28.5 -12h39v366h130v-470h-229zM263 518q-32 0 -37.5 10.5t-5.5 35.5q0 27 5.5 36t37.5 9q34 0 39.5 -9t5.5 -36q0 -25 -6 -35.5t-39 -10.5zM126 518
q-32 0 -37.5 10.5t-5.5 35.5q0 27 5.5 36t37.5 9q34 0 40 -9t6 -36q0 -25 -6.5 -35.5t-39.5 -10.5z" />
    <glyph glyph-name="uni01DB" unicode="&#x1db;" horiz-adv-x="382" 
d="M190 -5q-48 0 -86 9t-59 29.5t-21 55.5v531h133v-489q0 -9 3 -16t10.5 -11.5t19.5 -4.5q13 0 20.5 4.5t11 12t3.5 15.5v489h133v-531q0 -35 -22 -55.5t-60 -29.5t-86 -9zM258 668q-33 0 -38 10.5t-5 35.5q0 27 5 36t38 9q34 0 39.5 -9t5.5 -36q0 -25 -6 -35.5t-39 -10.5z
M121 668q-32 0 -37.5 10.5t-5.5 35.5q0 27 5.5 36t37.5 9q34 0 40 -9t6 -36q0 -25 -6.5 -35.5t-39.5 -10.5zM175 784l-124 101h111l95 -101h-82z" />
    <glyph glyph-name="uni01DC" unicode="&#x1dc;" horiz-adv-x="394" 
d="M133 0q-45 0 -68 14t-30.5 36t-7.5 44v376h130v-319q0 -23 7.5 -35t28.5 -12h39v366h130v-470h-229zM263 518q-33 0 -38 10.5t-5 35.5q0 27 5 36t38 9q34 0 39.5 -9t5.5 -36q0 -25 -6 -35.5t-39 -10.5zM126 518q-32 0 -37.5 10.5t-5.5 35.5q0 27 5.5 36t37.5 9
q34 0 40 -9t6 -36q0 -25 -6.5 -35.5t-39.5 -10.5zM181 634l-122 103h111l93 -103h-82z" />
    <glyph glyph-name="Gcaron" unicode="&#x1e6;" horiz-adv-x="381" 
d="M49 775h91l50 -43l49 43h91l-85 -102h-111zM194 -7q-59 0 -96.5 14t-55.5 40.5t-18 63.5v388q0 71 40.5 99t126.5 28q82 0 125.5 -28t43.5 -100v-85l-134 -5v63q0 29 -6.5 38t-26.5 9q-22 0 -28.5 -10.5t-6.5 -35.5v-340q0 -11 3.5 -17.5t11.5 -9.5t22 -3q13 0 21 3
t11.5 9.5t3.5 17.5v89h-44l8 112h165v-222q0 -37 -19.5 -63.5t-56.5 -40.5t-90 -14z" />
    <glyph glyph-name="gcaron" unicode="&#x1e7;" horiz-adv-x="396" 
d="M58 625h90l50 -43l50 43h90l-85 -102h-111zM78 -179l-16 104h132q24 0 32 10.5t8 39.5v391h-45q-12 0 -18.5 -4t-9 -12t-2.5 -22v-181q0 -20 3 -29t9.5 -11.5t18.5 -2.5h29l-13 -104h-90q-41 0 -59 13t-23 42.5t-5 76.5v218q0 39 11 65.5t37 40.5t71 14h216v-530
q0 -56 -24.5 -87.5t-88.5 -31.5h-173z" />
    <glyph glyph-name="uni01EA" unicode="&#x1ea;" horiz-adv-x="383" 
d="M191 -7q-89 0 -128 32t-39 86v399q0 53 38.5 85.5t128.5 32.5q91 0 129.5 -32.5t38.5 -85.5v-398q0 -54 -39 -86.5t-129 -32.5zM191 102q22 0 30 11t8 35v328q0 23 -7.5 33.5t-30.5 10.5q-22 0 -29.5 -10.5t-7.5 -32.5v-330q0 -23 8 -34t29 -11zM215 -189q-44 0 -74 24
t-30 72q0 26 21.5 57t76.5 46l67 -3q-31 -12 -51 -35t-20 -47q0 -25 15 -38t34 -13q11 0 20 3.5t16 10.5l17 -51q-22 -13 -45.5 -19.5t-46.5 -6.5z" />
    <glyph glyph-name="uni01EB" unicode="&#x1eb;" 
d="M192 -5q-69 0 -105 16t-49 44t-13 62v237q0 35 13 62.5t49 43.5t107 16q61 0 97.5 -15t52.5 -42t16 -63v-239q0 -36 -16 -63.5t-52.5 -43t-99.5 -15.5zM191 101q24 0 31.5 13.5t7.5 29.5v188q0 14 -7.5 29t-29.5 15q-23 0 -30.5 -15t-7.5 -29v-190q0 -14 7.5 -27.5
t28.5 -13.5zM246 -189q-44 0 -74 24t-30 72q0 26 21.5 57t76.5 46l67 -3q-31 -12 -51 -35t-20 -47q0 -25 15 -38t34 -13q11 0 20 3.5t16 10.5l17 -51q-22 -13 -45.5 -19.5t-46.5 -6.5z" />
    <glyph glyph-name="Aringacute" unicode="&#x1fa;" horiz-adv-x="402" 
d="M4 0l128 620h138l128 -620h-139l-24 126l21 -19h-115l17 19l-20 -126h-134zM163 198l-11 14h97l-16 -14l-30 242l-1 24h-5l-1 -24zM201 667q-41 0 -69 26t-28 64t28 65t69 27q39 0 67.5 -27t28.5 -65t-28.5 -64t-67.5 -26zM201 720q16 0 27 10.5t11 26.5q0 15 -11.5 26
t-26.5 11q-16 0 -27.5 -11t-11.5 -26q0 -16 11 -26.5t28 -10.5zM116 894l95 101h111l-124 -101h-82z" />
    <glyph glyph-name="aringacute" unicode="&#x1fb;" horiz-adv-x="396" 
d="M116 0q-41 0 -59 13t-23 42.5t-5 76.5v218q0 39 11 65.5t37 40.5t71 14h216v-470h-130v366h-45q-12 0 -18.5 -4t-9 -12t-2.5 -22v-181q0 -20 3 -29t9.5 -11.5t18.5 -2.5h29l-13 -104h-90zM211 517q-41 0 -69 26t-28 64t28 65t69 27q39 0 67.5 -27t28.5 -65t-28.5 -64
t-67.5 -26zM211 570q16 0 27 10.5t11 26.5q0 15 -11.5 26t-26.5 11q-16 0 -27.5 -11t-11.5 -26q0 -16 11 -26.5t28 -10.5zM125 744l93 103h111l-122 -103h-82z" />
    <glyph glyph-name="AEacute" unicode="&#x1fc;" horiz-adv-x="662" 
d="M307 620h335v-104h-202v-128h180l-16 -104h-164v-180h202v-104h-335v620zM80 107v105h255v-105h-255zM4 0l175 620h115l-156 -620h-134zM203 516v104h125v-104h-125zM246 673l93 103h111l-122 -103h-82z" />
    <glyph glyph-name="aeacute" unicode="&#x1fd;" horiz-adv-x="583" 
d="M116 0q-41 0 -59 13t-23 42.5t-5 76.5v218q0 39 11 65.5t37 40.5t71 14h216v-470h-130v366h-45q-12 0 -18.5 -4t-9 -12t-2.5 -22v-181q0 -20 3 -29t9.5 -11.5t18.5 -2.5h29l-13 -104h-90zM404 -4q-69 0 -105 16t-49 44t-13 62v237q0 35 13 62.5t49 43.5t107 16
q61 0 97.5 -15t52.5 -42t16 -63v-85l-130 -9v70q0 14 -7.5 29t-29.5 15q-23 0 -30.5 -15t-7.5 -29v-190q0 -14 7.5 -27.5t28.5 -13.5q24 0 31.5 13.5t7.5 29.5v25l130 9v-61q0 -36 -16 -63.5t-52.5 -43t-99.5 -15.5zM252 211v68h320v-68h-320zM207 523l93 103h111l-122 -103
h-82z" />
    <glyph glyph-name="Oslashacute" unicode="&#x1fe;" horiz-adv-x="394" 
d="M199 -7q-89 0 -129 32t-40 86v388q0 69 39.5 98t127.5 29q83 0 125.5 -29t41.5 -99v-386q0 -54 -42.5 -86.5t-122.5 -32.5zM196 102q25 0 31.5 12.5t6.5 28.5v322q0 18 -2 30t-10.5 18t-25.5 6q-26 0 -31 -15.5t-5 -37.5v-323q0 -16 6 -28.5t30 -12.5zM59 -44l214 685h53
l-216 -685h-51zM112 673l95 101h111l-124 -101h-82z" />
    <glyph glyph-name="oslashacute" unicode="&#x1ff;" horiz-adv-x="378" 
d="M189 -5q-70 0 -105.5 16t-48.5 44t-13 62v237q0 35 13 62.5t49 43.5t106 16q62 0 98.5 -15.5t52.5 -42.5t16 -62v-239q0 -36 -16 -63.5t-53 -43t-99 -15.5zM188 101q24 0 31.5 13.5t7.5 29.5v188q0 14 -7.5 29t-30.5 15q-22 0 -29.5 -15t-7.5 -29v-190q0 -14 7 -27.5
t29 -13.5zM78 -86l-31 6l278 650l31 -6zM104 523l93 103h111l-122 -103h-82z" />
    <glyph glyph-name="uni0200" unicode="&#x200;" horiz-adv-x="402" 
d="M4 0l128 620h138l128 -620h-139l-24 126l21 -19h-115l17 19l-20 -126h-134zM163 198l-11 14h97l-16 -14l-30 242l-1 24h-5l-1 -24zM90 673l-122 103h111l93 -103h-82zM218 673l-122 103h111l93 -103h-82z" />
    <glyph glyph-name="uni0201" unicode="&#x201;" horiz-adv-x="396" 
d="M116 0q-41 0 -59 13t-23 42.5t-5 76.5v218q0 39 11 65.5t37 40.5t71 14h216v-470h-130v366h-45q-12 0 -18.5 -4t-9 -12t-2.5 -22v-181q0 -20 3 -29t9.5 -11.5t18.5 -2.5h29l-13 -104h-90zM100 523l-122 103h111l93 -103h-82zM228 523l-122 103h111l93 -103h-82z" />
    <glyph glyph-name="uni0202" unicode="&#x202;" horiz-adv-x="402" 
d="M197 784q68 0 99.5 -30.5t31.5 -79.5h-81q0 22 -11 35.5t-37 13.5q-23 0 -33.5 -14t-10.5 -35h-82q0 32 13 56.5t40.5 39t70.5 14.5zM4 0l128 620h138l128 -620h-139l-24 126l21 -19h-115l17 19l-20 -126h-134zM163 198l-11 14h97l-16 -14l-30 242l-1 24h-5l-1 -24z" />
    <glyph glyph-name="uni0203" unicode="&#x203;" horiz-adv-x="396" 
d="M207 634q68 0 99.5 -30.5t31.5 -79.5h-81q-1 22 -12 35.5t-36 13.5q-23 0 -33.5 -14t-10.5 -35h-82q0 32 13 56.5t40.5 39t70.5 14.5zM116 0q-41 0 -59 13t-23 42.5t-5 76.5v218q0 39 11 65.5t37 40.5t71 14h216v-470h-130v366h-45q-12 0 -18.5 -4t-9 -12t-2.5 -22v-181
q0 -20 3 -29t9.5 -11.5t18.5 -2.5h29l-13 -104h-90z" />
    <glyph glyph-name="uni0204" unicode="&#x204;" horiz-adv-x="362" 
d="M28 620h318v-104h-185v-128h163l-16 -104h-147v-180h185v-104h-318v620zM71 673l-122 103h111l93 -103h-82zM199 673l-122 103h111l93 -103h-82z" />
    <glyph glyph-name="uni0205" unicode="&#x205;" 
d="M192 -5q-69 0 -105 16t-49 44t-13 62v237q0 35 13 62.5t49 43.5t107 16q61 0 97.5 -15t52.5 -42t16 -63v-85l-130 -9v70q0 14 -7.5 29t-29.5 15q-23 0 -30.5 -15t-7.5 -29v-190q0 -14 7.5 -27.5t28.5 -13.5q24 0 31.5 13.5t7.5 29.5v25l130 9v-61q0 -36 -16 -63.5
t-52.5 -43t-99.5 -15.5zM40 210v68h320v-68h-320zM82 523l-122 103h111l93 -103h-82zM210 523l-122 103h111l93 -103h-82z" />
    <glyph glyph-name="uni0206" unicode="&#x206;" horiz-adv-x="362" 
d="M178 784q68 0 99.5 -30.5t31.5 -79.5h-81q0 22 -11 35.5t-37 13.5q-23 0 -33.5 -14t-10.5 -35h-82q0 32 13 56.5t40.5 39t70.5 14.5zM28 620h318v-104h-185v-128h163l-16 -104h-147v-180h185v-104h-318v620z" />
    <glyph glyph-name="uni0207" unicode="&#x207;" 
d="M189 634q68 0 99.5 -30.5t31.5 -79.5h-81q0 22 -11 35.5t-37 13.5q-23 0 -33.5 -14t-10.5 -35h-82q0 32 13 56.5t40.5 39t70.5 14.5zM192 -5q-69 0 -105 16t-49 44t-13 62v237q0 35 13 62.5t49 43.5t107 16q61 0 97.5 -15t52.5 -42t16 -63v-85l-130 -9v70q0 14 -7.5 29
t-29.5 15q-23 0 -30.5 -15t-7.5 -29v-190q0 -14 7.5 -27.5t28.5 -13.5q24 0 31.5 13.5t7.5 29.5v25l130 9v-61q0 -36 -16 -63.5t-52.5 -43t-99.5 -15.5zM40 210v68h320v-68h-320z" />
    <glyph glyph-name="uni0208" unicode="&#x208;" horiz-adv-x="189" 
d="M28 620h133v-620h-133v620zM-16 673l-122 103h111l93 -103h-82zM111 673l-122 103h111l93 -103h-82z" />
    <glyph glyph-name="uni0209" unicode="&#x209;" horiz-adv-x="194" 
d="M32 470h130v-470h-130v470zM-14 523l-122 103h111l93 -103h-82zM114 523l-122 103h111l93 -103h-82z" />
    <glyph glyph-name="uni020A" unicode="&#x20a;" horiz-adv-x="189" 
d="M91 784q68 0 99.5 -30.5t31.5 -79.5h-81q-1 22 -12 35.5t-37 13.5q-22 0 -33 -14t-11 -35h-81q0 32 13 56.5t40.5 39t70.5 14.5zM28 620h133v-620h-133v620z" />
    <glyph glyph-name="uni020B" unicode="&#x20b;" horiz-adv-x="194" 
d="M93 634q69 0 100.5 -30.5t31.5 -79.5h-81q-1 22 -12 35.5t-37 13.5q-22 0 -33 -14t-11 -35h-82q0 32 13.5 56.5t40.5 39t70 14.5zM32 470h130v-470h-130v470z" />
    <glyph glyph-name="uni020C" unicode="&#x20c;" horiz-adv-x="383" 
d="M191 -7q-89 0 -128 32t-39 86v399q0 53 38.5 85.5t128.5 32.5q91 0 129.5 -32.5t38.5 -85.5v-398q0 -54 -39 -86.5t-129 -32.5zM191 102q22 0 30 11t8 35v328q0 23 -7.5 33.5t-30.5 10.5q-22 0 -29.5 -10.5t-7.5 -32.5v-330q0 -23 8 -34t29 -11zM81 673l-122 103h111
l93 -103h-82zM209 673l-122 103h111l93 -103h-82z" />
    <glyph glyph-name="uni020D" unicode="&#x20d;" 
d="M192 -5q-69 0 -105 16t-49 44t-13 62v237q0 35 13 62.5t49 43.5t107 16q61 0 97.5 -15t52.5 -42t16 -63v-239q0 -36 -16 -63.5t-52.5 -43t-99.5 -15.5zM191 101q24 0 31.5 13.5t7.5 29.5v188q0 14 -7.5 29t-29.5 15q-23 0 -30.5 -15t-7.5 -29v-190q0 -14 7.5 -27.5
t28.5 -13.5zM82 523l-122 103h111l93 -103h-82zM210 523l-122 103h111l93 -103h-82z" />
    <glyph glyph-name="uni020E" unicode="&#x20e;" horiz-adv-x="383" 
d="M188 784q68 0 99.5 -30.5t31.5 -79.5h-81q-1 22 -12 35.5t-36 13.5q-23 0 -33.5 -14t-10.5 -35h-82q0 32 13 56.5t40.5 39t70.5 14.5zM191 -7q-89 0 -128 32t-39 86v399q0 53 38.5 85.5t128.5 32.5q91 0 129.5 -32.5t38.5 -85.5v-398q0 -54 -39 -86.5t-129 -32.5z
M191 102q22 0 30 11t8 35v328q0 23 -7.5 33.5t-30.5 10.5q-22 0 -29.5 -10.5t-7.5 -32.5v-330q0 -23 8 -34t29 -11z" />
    <glyph glyph-name="uni020F" unicode="&#x20f;" 
d="M189 634q68 0 99.5 -30.5t31.5 -79.5h-81q0 22 -11 35.5t-37 13.5q-23 0 -33.5 -14t-10.5 -35h-82q0 32 13 56.5t40.5 39t70.5 14.5zM192 -5q-69 0 -105 16t-49 44t-13 62v237q0 35 13 62.5t49 43.5t107 16q61 0 97.5 -15t52.5 -42t16 -63v-239q0 -36 -16 -63.5
t-52.5 -43t-99.5 -15.5zM191 101q24 0 31.5 13.5t7.5 29.5v188q0 14 -7.5 29t-29.5 15q-23 0 -30.5 -15t-7.5 -29v-190q0 -14 7.5 -27.5t28.5 -13.5z" />
    <glyph glyph-name="uni0210" unicode="&#x210;" horiz-adv-x="404" 
d="M28 620h246q43 0 63.5 -10.5t27 -32t6.5 -53.5v-137q0 -36 -6 -67.5t-31 -51t-82 -19.5h-91v-249h-133v620zM283 -23l-110 280l89 2l38 -9l6 -5l101 -219zM205 353q19 0 26 11t7 37v59q0 38 -6 47t-25 9h-46v-163h44zM77 673l-122 103h111l93 -103h-82zM205 673l-122 103
h111l93 -103h-82z" />
    <glyph glyph-name="uni0211" unicode="&#x211;" horiz-adv-x="312" 
d="M32 0v470h106l13 -49q14 28 40.5 42.5t49.5 14.5q28 0 43 -2.5t22 -7.5l-6 -113q-10 3 -28.5 5.5t-41.5 2.5q-25 0 -45.5 -15t-22.5 -49v-299h-130zM66 523l-122 103h111l93 -103h-82zM194 523l-122 103h111l93 -103h-82z" />
    <glyph glyph-name="uni0212" unicode="&#x212;" horiz-adv-x="404" 
d="M184 784q68 0 99.5 -30.5t31.5 -79.5h-81q-1 22 -12 35.5t-36 13.5q-23 0 -33.5 -14t-10.5 -35h-82q0 32 13 56.5t40.5 39t70.5 14.5zM28 620h246q43 0 63.5 -10.5t27 -32t6.5 -53.5v-137q0 -36 -6 -67.5t-31 -51t-82 -19.5h-91v-249h-133v620zM283 -23l-110 280l89 2
l38 -9l6 -5l101 -219zM205 353q19 0 26 11t7 37v59q0 38 -6 47t-25 9h-46v-163h44z" />
    <glyph glyph-name="uni0213" unicode="&#x213;" horiz-adv-x="312" 
d="M173 634q69 0 100.5 -30.5t31.5 -79.5h-81q-1 22 -12 35.5t-37 13.5q-22 0 -33 -14t-11 -35h-82q0 32 13.5 56.5t40.5 39t70 14.5zM32 0v470h106l13 -49q14 28 40.5 42.5t49.5 14.5q28 0 43 -2.5t22 -7.5l-6 -113q-10 3 -28.5 5.5t-41.5 2.5q-25 0 -45.5 -15t-22.5 -49
v-299h-130z" />
    <glyph glyph-name="uni0214" unicode="&#x214;" horiz-adv-x="382" 
d="M190 -5q-48 0 -86 9t-59 29.5t-21 55.5v531h133v-489q0 -9 3 -16t10.5 -11.5t19.5 -4.5q13 0 20.5 4.5t11 12t3.5 15.5v489h133v-531q0 -35 -22 -55.5t-60 -29.5t-86 -9zM80 673l-122 103h111l93 -103h-82zM208 673l-122 103h111l93 -103h-82z" />
    <glyph glyph-name="uni0215" unicode="&#x215;" horiz-adv-x="394" 
d="M133 0q-45 0 -68 14t-30.5 36t-7.5 44v376h130v-319q0 -23 7.5 -35t28.5 -12h39v366h130v-470h-229zM85 523l-122 103h111l93 -103h-82zM213 523l-122 103h111l93 -103h-82z" />
    <glyph glyph-name="uni0216" unicode="&#x216;" horiz-adv-x="382" 
d="M187 784q69 0 100.5 -30.5t31.5 -79.5h-81q-1 22 -12 35.5t-37 13.5q-22 0 -33 -14t-11 -35h-82q0 32 13.5 56.5t40.5 39t70 14.5zM190 -5q-48 0 -86 9t-59 29.5t-21 55.5v531h133v-489q0 -9 3 -16t10.5 -11.5t19.5 -4.5q13 0 20.5 4.5t11 12t3.5 15.5v489h133v-531
q0 -35 -22 -55.5t-60 -29.5t-86 -9z" />
    <glyph glyph-name="uni0217" unicode="&#x217;" horiz-adv-x="394" 
d="M193 634q68 0 99.5 -30.5t31.5 -79.5h-81q-1 22 -12 35.5t-37 13.5q-22 0 -33 -14t-11 -35h-81q0 32 13 56.5t40.5 39t70.5 14.5zM133 0q-45 0 -68 14t-30.5 36t-7.5 44v376h130v-319q0 -23 7.5 -35t28.5 -12h39v366h130v-470h-229z" />
    <glyph glyph-name="uni0218" unicode="&#x218;" horiz-adv-x="374" 
d="M195 -9q-46 0 -86 6.5t-64.5 23.5t-24.5 50v145l133 14v-102q0 -14 6.5 -22.5t27.5 -8.5q14 0 21 4.5t10 12t3 17.5v57q0 23 -10.5 43.5t-41.5 30.5l-66 21q-43 14 -63 36t-20 71v138q0 44 24 65t64 27.5t85 6.5q43 0 79.5 -7t59 -24.5t22.5 -48.5v-145l-133 -18v95
q0 30 -8 37.5t-25 7.5q-18 0 -26.5 -9t-8.5 -40v-46q0 -20 7 -39.5t30 -27.5l75 -25q47 -16 68 -38t21 -69v-137q0 -42 -22 -64t-58 -30t-79 -8zM126 -195q19 34 31 57.5t12 41.5q-19 0 -23 8t-4 21q0 20 6 26.5t40 6.5q31 0 37 -6.5t6 -26.5q0 -19 -8 -44.5t-18.5 -48
t-20.5 -35.5h-58z" />
    <glyph glyph-name="uni0219" unicode="&#x219;" horiz-adv-x="342" 
d="M166 -6q-76 0 -109.5 29.5t-33.5 82.5v61l117 15v-69q0 -9 2 -16.5t8.5 -12t19.5 -4.5q15 0 22.5 7.5t7.5 25.5q0 35 -3 51t-24 26q-8 5 -18 10t-20.5 11t-20.5 11t-18 10q-32 18 -47.5 35t-20.5 34t-5 36v22q0 61 36.5 89t114.5 28t111.5 -25t33.5 -81v-52l-118 -15v55
q0 16 -7 23.5t-24 7.5q-12 0 -18.5 -4.5t-8.5 -11.5t-2 -16q0 -28 3.5 -38.5t15.5 -19.5q6 -4 17.5 -11t31 -17t46.5 -24q34 -17 49 -42t15 -69v-18q0 -63 -32.5 -93.5t-120.5 -30.5zM110 -195q19 34 31 57.5t12 41.5q-19 0 -23 8t-4 21q0 20 6 26.5t40 6.5q31 0 37 -6.5
t6 -26.5q0 -19 -8 -44.5t-18.5 -48t-20.5 -35.5h-58z" />
    <glyph glyph-name="uni021A" unicode="&#x21a;" horiz-adv-x="363" 
d="M115 516h-105v104h343v-104h-105v-516h-133v516zM120 -195q19 34 31 57.5t12 41.5q-19 0 -23 8t-4 21q0 20 6 26.5t40 6.5q31 0 37 -6.5t6 -26.5q0 -19 -8 -44.5t-18.5 -48t-20.5 -35.5h-58z" />
    <glyph glyph-name="uni021B" unicode="&#x21b;" horiz-adv-x="276" 
d="M184 0q-38 0 -69 6.5t-49 28t-18 67.5v271h-33v97h45l22 88h95v-88h86l-29 -97h-57v-210q0 -33 11.5 -46t35.5 -13h41v-104h-81zM121 -192q19 34 31 57.5t12 41.5q-19 0 -23 8t-4 21q0 20 6 26.5t40 6.5q31 0 37 -6.5t6 -26.5q0 -19 -8 -44.5t-18.5 -48t-20.5 -35.5h-58z
" />
    <glyph glyph-name="uni022A" unicode="&#x22a;" horiz-adv-x="383" 
d="M191 -7q-89 0 -128 32t-39 86v399q0 53 38.5 85.5t128.5 32.5q91 0 129.5 -32.5t38.5 -85.5v-398q0 -54 -39 -86.5t-129 -32.5zM191 102q22 0 30 11t8 35v328q0 23 -7.5 33.5t-30.5 10.5q-22 0 -29.5 -10.5t-7.5 -32.5v-330q0 -23 8 -34t29 -11zM258 668q-33 0 -38 10.5
t-5 35.5q0 27 5 36t38 9q34 0 39.5 -9t5.5 -36q0 -25 -6 -35.5t-39 -10.5zM121 668q-32 0 -37.5 10.5t-5.5 35.5q0 27 5.5 36t37.5 9q34 0 40 -9t6 -36q0 -25 -6.5 -35.5t-39.5 -10.5zM51 785v80h281v-80h-281z" />
    <glyph glyph-name="uni022B" unicode="&#x22b;" 
d="M192 -5q-69 0 -105 16t-49 44t-13 62v237q0 35 13 62.5t49 43.5t107 16q61 0 97.5 -15t52.5 -42t16 -63v-239q0 -36 -16 -63.5t-52.5 -43t-99.5 -15.5zM191 101q24 0 31.5 13.5t7.5 29.5v188q0 14 -7.5 29t-29.5 15q-23 0 -30.5 -15t-7.5 -29v-190q0 -14 7.5 -27.5
t28.5 -13.5zM260 518q-33 0 -38 10.5t-5 35.5q0 27 5 36t38 9q34 0 39.5 -9t5.5 -36q0 -25 -6 -35.5t-39 -10.5zM123 518q-32 0 -37.5 10.5t-5.5 35.5q0 27 5.5 36t37.5 9q34 0 40 -9t6 -36q0 -25 -6.5 -35.5t-39.5 -10.5zM52 635v80h281v-80h-281z" />
    <glyph glyph-name="uni022C" unicode="&#x22c;" horiz-adv-x="383" 
d="M191 -7q-89 0 -128 32t-39 86v399q0 53 38.5 85.5t128.5 32.5q91 0 129.5 -32.5t38.5 -85.5v-398q0 -54 -39 -86.5t-129 -32.5zM191 102q22 0 30 11t8 35v328q0 23 -7.5 33.5t-30.5 10.5q-22 0 -29.5 -10.5t-7.5 -32.5v-330q0 -23 8 -34t29 -11zM56 672q0 55 21.5 82
t56.5 27q24 0 41.5 -8t32.5 -16.5t30 -8.5q13 0 22 9.5t9 25.5h58q0 -59 -23.5 -85t-53.5 -26q-25 0 -40.5 9.5t-28.5 18t-32 8.5q-10 0 -19.5 -9t-9.5 -27h-64zM51 809v80h281v-80h-281z" />
    <glyph glyph-name="uni022D" unicode="&#x22d;" 
d="M192 -5q-69 0 -105 16t-49 44t-13 62v237q0 35 13 62.5t49 43.5t107 16q61 0 97.5 -15t52.5 -42t16 -63v-239q0 -36 -16 -63.5t-52.5 -43t-99.5 -15.5zM191 101q24 0 31.5 13.5t7.5 29.5v188q0 14 -7.5 29t-29.5 15q-23 0 -30.5 -15t-7.5 -29v-190q0 -14 7.5 -27.5
t28.5 -13.5zM57 522q0 55 21.5 82t56.5 27q24 0 41.5 -8t32.5 -16.5t30 -8.5q13 0 22 9.5t9 25.5h58q0 -59 -23.5 -85t-53.5 -26q-25 0 -40.5 9.5t-28.5 18t-32 8.5q-10 0 -19.5 -9t-9.5 -27h-64zM52 659v80h281v-80h-281z" />
    <glyph glyph-name="uni0230" unicode="&#x230;" horiz-adv-x="383" 
d="M191 -7q-89 0 -128 32t-39 86v399q0 53 38.5 85.5t128.5 32.5q91 0 129.5 -32.5t38.5 -85.5v-398q0 -54 -39 -86.5t-129 -32.5zM191 102q22 0 30 11t8 35v328q0 23 -7.5 33.5t-30.5 10.5q-22 0 -29.5 -10.5t-7.5 -32.5v-330q0 -23 8 -34t29 -11zM190 670
q-32 0 -37.5 10.5t-5.5 34.5q0 28 5.5 37t37.5 9q34 0 40 -9t6 -37q0 -24 -6.5 -34.5t-39.5 -10.5zM51 785v80h281v-80h-281z" />
    <glyph glyph-name="uni0231" unicode="&#x231;" 
d="M192 -5q-69 0 -105 16t-49 44t-13 62v237q0 35 13 62.5t49 43.5t107 16q61 0 97.5 -15t52.5 -42t16 -63v-239q0 -36 -16 -63.5t-52.5 -43t-99.5 -15.5zM191 101q24 0 31.5 13.5t7.5 29.5v188q0 14 -7.5 29t-29.5 15q-23 0 -30.5 -15t-7.5 -29v-190q0 -14 7.5 -27.5
t28.5 -13.5zM191 520q-32 0 -37.5 10.5t-5.5 34.5q0 28 5.5 37t37.5 9q34 0 40 -9t6 -37q0 -24 -6.5 -34.5t-39.5 -10.5zM52 635v80h281v-80h-281z" />
    <glyph glyph-name="uni0232" unicode="&#x232;" horiz-adv-x="392" 
d="M131 0v198l-133 422h122l78 -267l1 -22h1l1 22l71 267h122l-133 -421v-199h-130zM55 674v80h281v-80h-281z" />
    <glyph glyph-name="uni0233" unicode="&#x233;" 
d="M-19 -170l22 80h51q27 0 44.5 16t27.5 58l7 29l-141 457h124l69 -267l1 -31h1l1 31l70 267h126l-160 -522q-20 -62 -49 -90t-83 -28h-111zM52 524v80h281v-80h-281z" />
    <glyph glyph-name="uni0237" unicode="&#x237;" horiz-adv-x="261" 
d="M-17 -179l-16 104h96q24 0 32 10.5t8 39.5v495h130v-530q0 -56 -24.5 -87.5t-88.5 -31.5h-137z" />
    <glyph glyph-name="uni0259" unicode="&#x259;" horiz-adv-x="372" 
d="M180 475q69 0 105 -16t49 -43.5t13 -62.5v-237q0 -34 -13 -62t-49 -44t-107 -16q-61 0 -97.5 15t-52.5 42.5t-16 62.5v85l130 9v-70q0 -14 7 -29t30 -15t30.5 15t7.5 29v190q0 14 -7.5 27.5t-28.5 13.5q-24 0 -31.5 -13.5t-7.5 -29.5v-25l-130 -9v61q0 37 16 64
t52.5 42.5t99.5 15.5zM332 260v-68h-320v68h320z" />
    <glyph glyph-name="uni02B9" unicode="&#x2b9;" horiz-adv-x="88" 
d="M0 426q15 37 25 63t10 47q-17 0 -20.5 8.5t-3.5 23.5q0 22 4.5 29.5t33.5 7.5q27 0 32 -7.5t5 -29.5t-7 -49.5t-16 -53.5t-16 -39h-47z" />
    <glyph glyph-name="uni02BA" unicode="&#x2ba;" horiz-adv-x="212" 
d="M126 426q15 37 25 63t10 47q-17 0 -20.5 8.5t-3.5 23.5q0 22 5 29.5t33 7.5q27 0 32 -7.5t5 -29.5t-7 -49.5t-16 -53.5t-16 -39h-47zM0 426q15 37 25 63t10 47q-17 0 -20.5 8.5t-3.5 23.5q0 22 4.5 29.5t33.5 7.5q27 0 32 -7.5t5 -29.5t-7 -49.5t-16 -53.5t-16 -39h-47z
" />
    <glyph glyph-name="uni02BC" unicode="&#x2bc;" horiz-adv-x="104" 
d="M0 398q18 44 29.5 75t11.5 56q-20 0 -24 10.5t-4 27.5t2 26.5t11.5 13.5t32.5 4q31 0 37 -9t6 -34q0 -27 -8 -60.5t-19 -63.5t-20 -46h-55z" />
    <glyph glyph-name="circumflex" unicode="&#x2c6;" horiz-adv-x="298" 
d="M8 523l85 102h111l85 -102h-90l-50 42l-50 -42h-91z" />
    <glyph glyph-name="caron" unicode="&#x2c7;" horiz-adv-x="298" 
d="M8 625h91l50 -43l50 43h90l-85 -102h-111z" />
    <glyph glyph-name="breve" unicode="&#x2d8;" horiz-adv-x="290" 
d="M141 513q-43 0 -70 14.5t-40.5 39.5t-13.5 56h82q0 -22 11 -35.5t33 -13.5q26 0 37 13.5t12 35.5h80q0 -49 -31 -79.5t-100 -30.5z" />
    <glyph glyph-name="dotaccent" unicode="&#x2d9;" horiz-adv-x="89" 
d="M43 520q-32 0 -37.5 10.5t-5.5 34.5q0 28 5.5 37t37.5 9q34 0 40 -9t6 -37q0 -24 -6.5 -34.5t-39.5 -10.5z" />
    <glyph glyph-name="ring" unicode="&#x2da;" horiz-adv-x="193" 
d="M97 517q-41 0 -69 26t-28 64t28 65t69 27q39 0 67.5 -27t28.5 -65t-28.5 -64t-67.5 -26zM97 570q16 0 27 10.5t11 26.5q0 15 -11.5 26t-26.5 11q-16 0 -27.5 -11t-11.5 -26q0 -16 11 -26.5t28 -10.5z" />
    <glyph glyph-name="ogonek" unicode="&#x2db;" horiz-adv-x="205" 
d="M106 -187q-44 0 -74 24t-30 72q0 26 21.5 57t76.5 46l67 -3q-31 -12 -51 -35t-20 -47q0 -25 15 -38t34 -13q11 0 20 3.5t16 10.5l17 -51q-22 -13 -45.5 -19.5t-46.5 -6.5z" />
    <glyph glyph-name="tilde" unicode="&#x2dc;" horiz-adv-x="291" 
d="M10 522q0 55 21.5 82t56.5 27q24 0 41.5 -8t32.5 -16.5t30 -8.5q13 0 22 9.5t9 25.5h58q0 -59 -23.5 -85t-53.5 -26q-25 0 -40.5 9.5t-28.5 18t-32 8.5q-10 0 -19.5 -9t-9.5 -27h-64z" />
    <glyph glyph-name="hungarumlaut" unicode="&#x2dd;" horiz-adv-x="298" 
d="M0 523l46 103h111l-75 -103h-82zM141 523l46 103h111l-75 -103h-82z" />
    <glyph glyph-name="gravecomb" unicode="&#x300;" horiz-adv-x="0" 
d="M122 523l-122 103h111l93 -103h-82z" />
    <glyph glyph-name="acutecomb" unicode="&#x301;" horiz-adv-x="0" 
d="M0 523l93 103h111l-122 -103h-82z" />
    <glyph glyph-name="uni0302" unicode="&#x302;" horiz-adv-x="0" 
d="M8 523l85 102h111l85 -102h-90l-50 42l-50 -42h-91z" />
    <glyph glyph-name="tildecomb" unicode="&#x303;" horiz-adv-x="0" 
d="M10 522q0 55 21.5 82t56.5 27q24 0 41.5 -8t32.5 -16.5t30 -8.5q13 0 22 9.5t9 25.5h58q0 -59 -23.5 -85t-53.5 -26q-25 0 -40.5 9.5t-28.5 18t-32 8.5q-10 0 -19.5 -9t-9.5 -27h-64z" />
    <glyph glyph-name="uni0304" unicode="&#x304;" horiz-adv-x="0" 
d="M0 524v80h281v-80h-281z" />
    <glyph glyph-name="uni0306" unicode="&#x306;" horiz-adv-x="0" 
d="M141 513q-43 0 -70 14.5t-40.5 39.5t-13.5 56h82q0 -22 11 -35.5t33 -13.5q26 0 37 13.5t12 35.5h80q0 -49 -31 -79.5t-100 -30.5z" />
    <glyph glyph-name="uni0307" unicode="&#x307;" horiz-adv-x="0" 
d="M43 520q-32 0 -37.5 10.5t-5.5 34.5q0 28 5.5 37t37.5 9q34 0 40 -9t6 -37q0 -24 -6.5 -34.5t-39.5 -10.5z" />
    <glyph glyph-name="uni0308" unicode="&#x308;" horiz-adv-x="0" 
d="M200 518q-33 0 -38 10.5t-5 35.5q0 27 5 36t38 9q34 0 39.5 -9t5.5 -36q0 -25 -6 -35.5t-39 -10.5zM63 518q-32 0 -37.5 10.5t-5.5 35.5q0 27 5.5 36t37.5 9q34 0 40 -9t6 -36q0 -25 -6.5 -35.5t-39.5 -10.5z" />
    <glyph glyph-name="hookabovecomb" unicode="&#x309;" horiz-adv-x="0" 
d="M63 523q0 13 7 22.5t15.5 16.5t15 14.5t6.5 17.5q0 9 -5 16t-17 7t-20.5 -8t-11.5 -18l-53 21q7 29 34 46.5t68 17.5q34 0 59 -16.5t25 -49.5q0 -24 -7.5 -36.5t-18 -19.5t-18.5 -13t-8 -18h-71z" />
    <glyph glyph-name="uni030A" unicode="&#x30a;" horiz-adv-x="0" 
d="M97 517q-41 0 -69 26t-28 64t28 65t69 27q39 0 67.5 -27t28.5 -65t-28.5 -64t-67.5 -26zM97 570q16 0 27 10.5t11 26.5q0 15 -11.5 26t-26.5 11q-16 0 -27.5 -11t-11.5 -26q0 -16 11 -26.5t28 -10.5z" />
    <glyph glyph-name="uni030B" unicode="&#x30b;" horiz-adv-x="0" 
d="M0 523l46 103h111l-75 -103h-82zM141 523l46 103h111l-75 -103h-82z" />
    <glyph glyph-name="uni030C" unicode="&#x30c;" horiz-adv-x="0" 
d="M8 625h91l50 -43l50 43h90l-85 -102h-111z" />
    <glyph glyph-name="uni030F" unicode="&#x30f;" horiz-adv-x="0" 
d="M62 523l-122 103h111l93 -103h-82zM190 523l-122 103h111l93 -103h-82z" />
    <glyph glyph-name="uni0311" unicode="&#x311;" horiz-adv-x="0" 
d="M141 634q69 0 100 -30.5t31 -79.5h-80q-1 22 -12 35.5t-37 13.5q-22 0 -33 -14t-11 -35h-82q0 32 13.5 56.5t40.5 39t70 14.5z" />
    <glyph glyph-name="uni0312" unicode="&#x312;" horiz-adv-x="0" 
d="M40 523q-21 0 -30.5 6t-9.5 21q0 19 9.5 45.5t23 50.5t23.5 37h59q-21 -34 -35 -57t-16 -42q16 0 21 -5t5 -14q0 -25 -10.5 -33.5t-39.5 -8.5z" />
    <glyph glyph-name="uni031B" unicode="&#x31b;" horiz-adv-x="0" 
d="M6 428l-6 42q20 0 31 11.5t10 37.5h72q0 -37 -23 -64t-84 -27z" />
    <glyph glyph-name="dotbelowcomb" unicode="&#x323;" horiz-adv-x="0" 
d="M43 -124q-32 0 -37.5 10.5t-5.5 34.5q0 28 5.5 37t37.5 9q34 0 40 -9t6 -37q0 -24 -6.5 -34.5t-39.5 -10.5z" />
    <glyph glyph-name="uni0324" unicode="&#x324;" horiz-adv-x="0" 
d="M200 -126q-33 0 -38 10.5t-5 35.5q0 27 5 36t38 9q34 0 39.5 -9t5.5 -36q0 -25 -6 -35.5t-39 -10.5zM63 -126q-32 0 -37.5 10.5t-5.5 35.5q0 27 5.5 36t37.5 9q34 0 40 -9t6 -36q0 -25 -6.5 -35.5t-39.5 -10.5z" />
    <glyph glyph-name="uni0326" unicode="&#x326;" horiz-adv-x="0" 
d="M0 -195q19 34 31 57.5t12 41.5q-19 0 -23 8t-4 21q0 20 6 26.5t40 6.5q31 0 37 -6.5t6 -26.5q0 -19 -8 -44.5t-18.5 -48t-20.5 -35.5h-58z" />
    <glyph glyph-name="uni0327" unicode="&#x327;" horiz-adv-x="0" 
d="M84 -199q-24 0 -44 7t-37 16l28 47q5 -7 19 -12.5t27 -5.5q20 0 30.5 11t10.5 25q0 10 -9 20.5t-27 10.5q-12 0 -22.5 -4t-15.5 -9l-35 25l52 68h52l-38 -46q16 10 36 10q43 0 63.5 -21.5t20.5 -48.5q0 -34 -28 -63.5t-83 -29.5z" />
    <glyph glyph-name="uni0328" unicode="&#x328;" horiz-adv-x="0" 
d="M106 -187q-44 0 -74 24t-30 72q0 26 21.5 57t76.5 46l67 -3q-31 -12 -51 -35t-20 -47q0 -25 15 -38t34 -13q11 0 20 3.5t16 10.5l17 -51q-22 -13 -45.5 -19.5t-46.5 -6.5z" />
    <glyph glyph-name="uni032E" unicode="&#x32e;" horiz-adv-x="0" 
d="M141 -145q-43 0 -70 14.5t-40.5 39.5t-13.5 56h82q0 -22 11 -35.5t33 -13.5q26 0 37 13.5t12 35.5h80q0 -49 -31 -79.5t-100 -30.5z" />
    <glyph glyph-name="uni0331" unicode="&#x331;" horiz-adv-x="0" 
d="M0 -115v80h285v-80h-285z" />
    <glyph glyph-name="uni0335" unicode="&#x335;" horiz-adv-x="0" 
d="M0 171v63h285v-63h-285z" />
    <glyph glyph-name="uni03A9" unicode="&#x3a9;" horiz-adv-x="682" 
d="M47 104h156q-40 29 -70.5 65.5t-47 81.5t-17.5 98q0 58 6.5 107t32.5 86t82 57.5t155 20.5q79 0 130 -14t80 -38.5t42.5 -57.5t16.5 -71.5t3 -80.5q0 -58 -18.5 -104.5t-50 -83t-70.5 -66.5h158v-104h-248l-7 109q17 14 31.5 34.5t25 48t16.5 61.5t6 74t-2 76t-12 65
t-34 45.5t-68 16.5q-42 0 -66.5 -15t-36 -42t-14.5 -61.5t-3 -75.5q0 -37 5 -72t15.5 -65.5t25.5 -53.5t34 -36l-7 -109h-249v104z" />
    <glyph glyph-name="uni03BC" unicode="&#x3bc;" horiz-adv-x="423" 
d="M138 0q-45 0 -68 14t-30.5 36t-7.5 44v376h130v-319q0 -23 7 -35t29 -12h38v366h130v-470h-228zM144 -179q-63 0 -87.5 31.5t-24.5 87.5v530h130v-495q0 -29 8 -39.5t32 -10.5h7l-16 -104h-49z" />
    <glyph glyph-name="pi" unicode="&#x3c0;" horiz-adv-x="561" 
d="M123 0v381h-99v89h513v-89h-89v-202h-131v202h-64v-381h-130zM429 0q-62 0 -87 32t-25 87v351h130v-315q0 -30 8 -40.5t32 -10.5h6l-16 -104h-48z" />
    <glyph glyph-name="Wgrave" unicode="&#x1e80;" horiz-adv-x="593" 
d="M130 0l-126 620h134l58 -350l1 -23h1v23l49 324h100l48 -324l1 -23h1l1 23l52 350h138l-125 -620h-124l-39 285l-1 24h-1l-1 -24l-42 -285h-125zM282 673l-124 101h111l95 -101h-82z" />
    <glyph glyph-name="wgrave" unicode="&#x1e81;" horiz-adv-x="583" 
d="M-8 470h130l58 -221l58 221h103l57 -209l58 209h130l-132 -470h-82l-83 276l-83 -276h-82zM277 523l-122 103h111l93 -103h-82z" />
    <glyph glyph-name="Wacute" unicode="&#x1e82;" horiz-adv-x="593" 
d="M130 0l-126 620h134l58 -350l1 -23h1v23l49 324h100l48 -324l1 -23h1l1 23l52 350h138l-125 -620h-124l-39 285l-1 24h-1l-1 -24l-42 -285h-125zM213 673l95 101h111l-124 -101h-82z" />
    <glyph glyph-name="wacute" unicode="&#x1e83;" horiz-adv-x="583" 
d="M-8 470h130l58 -221l58 221h103l57 -209l58 209h130l-132 -470h-82l-83 276l-83 -276h-82zM207 523l93 103h111l-122 -103h-82z" />
    <glyph glyph-name="Wdieresis" unicode="&#x1e84;" horiz-adv-x="593" 
d="M130 0l-126 620h134l58 -350l1 -23h1v23l49 324h100l48 -324l1 -23h1l1 23l52 350h138l-125 -620h-124l-39 285l-1 24h-1l-1 -24l-42 -285h-125zM365 668q-33 0 -38 10.5t-5 35.5q0 27 5 36t38 9q34 0 39.5 -9t5.5 -36q0 -25 -6 -35.5t-39 -10.5zM228 668
q-32 0 -37.5 10.5t-5.5 35.5q0 27 5.5 36t37.5 9q34 0 40 -9t6 -36q0 -25 -6.5 -35.5t-39.5 -10.5z" />
    <glyph glyph-name="wdieresis" unicode="&#x1e85;" horiz-adv-x="583" 
d="M-8 470h130l58 -221l58 221h103l57 -209l58 209h130l-132 -470h-82l-83 276l-83 -276h-82zM359 518q-33 0 -38 10.5t-5 35.5q0 27 5 36t38 9q34 0 39.5 -9t5.5 -36q0 -25 -6 -35.5t-39 -10.5zM222 518q-32 0 -37.5 10.5t-5.5 35.5q0 27 5.5 36t37.5 9q34 0 40 -9t6 -36
q0 -25 -6.5 -35.5t-39.5 -10.5z" />
    <glyph glyph-name="uni1E9E" unicode="&#x1e9e;" horiz-adv-x="509" 
d="M330 -6q-79 0 -113 30.5t-34 107.5l117 7q0 -22 2 -35t8.5 -18.5t19.5 -5.5q14 0 22 7.5t8 25.5t-0.5 30t-5.5 21.5t-19 17.5q-17 11 -36 21.5t-36 21.5q-27 19 -43.5 35t-23.5 36.5t-7 51.5q0 36 9.5 59t34.5 50l36 37q11 11 15.5 19.5t4.5 17.5q0 14 -13.5 20t-35.5 6
h-39q-27 0 -34.5 -9t-7.5 -42v-506h-130l-1 531q0 57 23 76t86 19h150q59 0 93 -22t34 -60q0 -25 -6 -45t-18 -34l-58 -67q-12 -14 -20 -25.5t-8 -24.5q0 -15 5.5 -24t16.5 -16q12 -7 28.5 -16.5t33.5 -19.5t28 -15q26 -14 39.5 -31t18.5 -40t5 -54q0 -75 -32.5 -106.5
t-116.5 -31.5z" />
    <glyph glyph-name="uni1EA0" unicode="&#x1ea0;" horiz-adv-x="402" 
d="M4 0l128 620h138l128 -620h-139l-24 126l21 -19h-115l17 19l-20 -126h-134zM163 198l-11 14h97l-16 -14l-30 242l-1 24h-5l-1 -24zM199 -124q-32 0 -37.5 10.5t-5.5 34.5q0 28 5.5 37t37.5 9q34 0 40 -9t6 -37q0 -24 -6.5 -34.5t-39.5 -10.5z" />
    <glyph glyph-name="uni1EA1" unicode="&#x1ea1;" horiz-adv-x="396" 
d="M116 0q-41 0 -59 13t-23 42.5t-5 76.5v218q0 39 11 65.5t37 40.5t71 14h216v-470h-130v366h-45q-12 0 -18.5 -4t-9 -12t-2.5 -22v-181q0 -20 3 -29t9.5 -11.5t18.5 -2.5h29l-13 -104h-90zM196 -124q-32 0 -37.5 10.5t-5.5 34.5q0 28 5.5 37t37.5 9q34 0 40 -9t6 -37
q0 -24 -6.5 -34.5t-39.5 -10.5z" />
    <glyph glyph-name="uni1EA2" unicode="&#x1ea2;" horiz-adv-x="402" 
d="M4 0l128 620h138l128 -620h-139l-24 126l21 -19h-115l17 19l-20 -126h-134zM163 198l-11 14h97l-16 -14l-30 242l-1 24h-5l-1 -24zM170 673q0 13 7 22.5t15.5 16.5t15 14.5t6.5 17.5q0 9 -5 16t-17 7t-20.5 -8t-11.5 -18l-53 21q7 29 34 46.5t68 17.5q34 0 59 -16.5
t25 -49.5q0 -24 -7.5 -36.5t-18 -19.5t-18.5 -13t-8 -18h-71z" />
    <glyph glyph-name="uni1EA3" unicode="&#x1ea3;" horiz-adv-x="396" 
d="M116 0q-41 0 -59 13t-23 42.5t-5 76.5v218q0 39 11 65.5t37 40.5t71 14h216v-470h-130v366h-45q-12 0 -18.5 -4t-9 -12t-2.5 -22v-181q0 -20 3 -29t9.5 -11.5t18.5 -2.5h29l-13 -104h-90zM180 523q0 13 7 22.5t15.5 16.5t15 14.5t6.5 17.5q0 9 -5 16t-17 7t-20.5 -8
t-11.5 -18l-53 21q7 29 34 46.5t68 17.5q34 0 59 -16.5t25 -49.5q0 -24 -7.5 -36.5t-18 -19.5t-18.5 -13t-8 -18h-71z" />
    <glyph glyph-name="uni1EA4" unicode="&#x1ea4;" horiz-adv-x="402" 
d="M4 0l128 620h138l128 -620h-139l-24 126l21 -19h-115l17 19l-20 -126h-134zM163 198l-11 14h97l-16 -14l-30 242l-1 24h-5l-1 -24zM77 659l68 85h110l68 -85h-90l-32 26l-32 -26h-92zM315 716l77 85h110l-105 -85h-82z" />
    <glyph glyph-name="uni1EA5" unicode="&#x1ea5;" horiz-adv-x="396" 
d="M116 0q-41 0 -59 13t-23 42.5t-5 76.5v218q0 39 11 65.5t37 40.5t71 14h216v-470h-130v366h-45q-12 0 -18.5 -4t-9 -12t-2.5 -22v-181q0 -20 3 -29t9.5 -11.5t18.5 -2.5h29l-13 -104h-90zM70 523l85 102h111l85 -102h-90l-50 42l-50 -42h-91zM341 595l93 103h111
l-122 -103h-82z" />
    <glyph glyph-name="uni1EA6" unicode="&#x1ea6;" horiz-adv-x="402" 
d="M4 0l128 620h138l128 -620h-139l-24 126l21 -19h-115l17 19l-20 -126h-134zM163 198l-11 14h97l-16 -14l-30 242l-1 24h-5l-1 -24zM77 659l68 85h110l68 -85h-90l-32 26l-32 -26h-92zM342 716l-104 85h109l77 -85h-82z" />
    <glyph glyph-name="uni1EA7" unicode="&#x1ea7;" horiz-adv-x="396" 
d="M116 0q-41 0 -59 13t-23 42.5t-5 76.5v218q0 39 11 65.5t37 40.5t71 14h216v-470h-130v366h-45q-12 0 -18.5 -4t-9 -12t-2.5 -22v-181q0 -20 3 -29t9.5 -11.5t18.5 -2.5h29l-13 -104h-90zM70 523l85 102h111l85 -102h-90l-50 42l-50 -42h-91zM373 595l-122 103h111
l93 -103h-82z" />
    <glyph glyph-name="uni1EA8" unicode="&#x1ea8;" horiz-adv-x="402" 
d="M4 0l128 620h138l128 -620h-139l-24 126l21 -19h-115l17 19l-20 -126h-134zM163 198l-11 14h97l-16 -14l-30 242l-1 24h-5l-1 -24zM77 659l68 85h110l68 -85h-90l-32 26l-32 -26h-92zM315 716q0 16 8.5 24t16.5 15t8 16q0 5 -2.5 10t-10.5 5q-6 0 -12 -5t-8 -11l-53 21
q7 25 30.5 39t59.5 14q30 0 52 -13.5t22 -42.5q0 -20 -6 -31t-14 -16.5t-14 -10.5t-6 -14h-71z" />
    <glyph glyph-name="uni1EA9" unicode="&#x1ea9;" horiz-adv-x="396" 
d="M116 0q-41 0 -59 13t-23 42.5t-5 76.5v218q0 39 11 65.5t37 40.5t71 14h216v-470h-130v366h-45q-12 0 -18.5 -4t-9 -12t-2.5 -22v-181q0 -20 3 -29t9.5 -11.5t18.5 -2.5h29l-13 -104h-90zM70 523l85 102h111l85 -102h-90l-50 42l-50 -42h-91zM346 595q0 13 7 22.5
t15.5 16.5t15 14.5t6.5 17.5q0 9 -5 16t-17 7t-20.5 -8t-11.5 -18l-53 21q7 29 34 46.5t68 17.5q34 0 59 -16.5t25 -49.5q0 -24 -7.5 -36.5t-18 -19.5t-18.5 -13t-8 -18h-71z" />
    <glyph glyph-name="uni1EAA" unicode="&#x1eaa;" horiz-adv-x="402" 
d="M4 0l128 620h138l128 -620h-139l-24 126l21 -19h-115l17 19l-20 -126h-134zM163 198l-11 14h97l-16 -14l-30 242l-1 24h-5l-1 -24zM77 659l68 85h110l68 -85h-90l-32 26l-32 -26h-92zM81 765q0 49 18.5 74t50.5 25q20 0 36 -6t28.5 -12t24.5 -6q8 0 15.5 6t7.5 20h57
q0 -54 -20.5 -77.5t-47.5 -23.5q-21 0 -34 6.5t-24.5 13t-26.5 6.5q-7 0 -14.5 -7t-7.5 -19h-63z" />
    <glyph glyph-name="uni1EAB" unicode="&#x1eab;" horiz-adv-x="396" 
d="M116 0q-41 0 -59 13t-23 42.5t-5 76.5v218q0 39 11 65.5t37 40.5t71 14h216v-470h-130v366h-45q-12 0 -18.5 -4t-9 -12t-2.5 -22v-181q0 -20 3 -29t9.5 -11.5t18.5 -2.5h29l-13 -104h-90zM70 523l85 102h111l85 -102h-90l-50 42l-50 -42h-91zM74 651q0 55 21.5 82
t56.5 27q24 0 41.5 -8t32.5 -16.5t30 -8.5q13 0 22 9.5t9 25.5h58q0 -59 -23.5 -85t-53.5 -26q-25 0 -40.5 9.5t-28.5 18t-32 8.5q-10 0 -19.5 -9t-9.5 -27h-64z" />
    <glyph glyph-name="uni1EAC" unicode="&#x1eac;" horiz-adv-x="402" 
d="M4 0l128 620h138l128 -620h-139l-24 126l21 -19h-115l17 19l-20 -126h-134zM163 198l-11 14h97l-16 -14l-30 242l-1 24h-5l-1 -24zM199 -124q-32 0 -37.5 10.5t-5.5 34.5q0 28 5.5 37t37.5 9q34 0 40 -9t6 -37q0 -24 -6.5 -34.5t-39.5 -10.5zM60 673l85 102h111l85 -102
h-90l-50 42l-50 -42h-91z" />
    <glyph glyph-name="uni1EAD" unicode="&#x1ead;" horiz-adv-x="396" 
d="M116 0q-41 0 -59 13t-23 42.5t-5 76.5v218q0 39 11 65.5t37 40.5t71 14h216v-470h-130v366h-45q-12 0 -18.5 -4t-9 -12t-2.5 -22v-181q0 -20 3 -29t9.5 -11.5t18.5 -2.5h29l-13 -104h-90zM196 -124q-32 0 -37.5 10.5t-5.5 34.5q0 28 5.5 37t37.5 9q34 0 40 -9t6 -37
q0 -24 -6.5 -34.5t-39.5 -10.5zM70 523l85 102h111l85 -102h-90l-50 42l-50 -42h-91z" />
    <glyph glyph-name="uni1EAE" unicode="&#x1eae;" horiz-adv-x="402" 
d="M4 0l128 620h138l128 -620h-139l-24 126l21 -19h-115l17 19l-20 -126h-134zM163 198l-11 14h97l-16 -14l-30 242l-1 24h-5l-1 -24zM198 649q-36 0 -60 11.5t-36.5 33t-12.5 49.5h82q0 -16 8 -25t21 -9q16 0 24 9t9 25h80q0 -42 -27.5 -68t-87.5 -26zM121 767l77 85h109
l-104 -85h-82z" />
    <glyph glyph-name="uni1EAF" unicode="&#x1eaf;" horiz-adv-x="396" 
d="M116 0q-41 0 -59 13t-23 42.5t-5 76.5v218q0 39 11 65.5t37 40.5t71 14h216v-470h-130v366h-45q-12 0 -18.5 -4t-9 -12t-2.5 -22v-181q0 -20 3 -29t9.5 -11.5t18.5 -2.5h29l-13 -104h-90zM207 513q-43 0 -70 14.5t-40.5 39.5t-13.5 56h82q0 -22 11 -35.5t33 -13.5
q26 0 37 13.5t12 35.5h80q0 -49 -31 -79.5t-100 -30.5zM125 652l93 103h111l-122 -103h-82z" />
    <glyph glyph-name="uni1EB0" unicode="&#x1eb0;" horiz-adv-x="402" 
d="M4 0l128 620h138l128 -620h-139l-24 126l21 -19h-115l17 19l-20 -126h-134zM163 198l-11 14h97l-16 -14l-30 242l-1 24h-5l-1 -24zM198 649q-36 0 -60.5 11.5t-36.5 33t-12 49.5h81q0 -16 8 -25t22 -9q15 0 22.5 9t8.5 25h82q0 -42 -28 -68t-87 -26zM183 767l-104 85h110
l76 -85h-82z" />
    <glyph glyph-name="uni1EB1" unicode="&#x1eb1;" horiz-adv-x="396" 
d="M116 0q-41 0 -59 13t-23 42.5t-5 76.5v218q0 39 11 65.5t37 40.5t71 14h216v-470h-130v366h-45q-12 0 -18.5 -4t-9 -12t-2.5 -22v-181q0 -20 3 -29t9.5 -11.5t18.5 -2.5h29l-13 -104h-90zM207 513q-43 0 -70 14.5t-40.5 39.5t-13.5 56h82q0 -22 11 -35.5t33 -13.5
q26 0 37 13.5t12 35.5h80q0 -49 -31 -79.5t-100 -30.5zM195 652l-122 103h111l93 -103h-82z" />
    <glyph glyph-name="uni1EB2" unicode="&#x1eb2;" horiz-adv-x="402" 
d="M4 0l128 620h138l128 -620h-139l-24 126l21 -19h-115l17 19l-20 -126h-134zM163 198l-11 14h97l-16 -14l-30 242l-1 24h-5l-1 -24zM198 649q-36 0 -60 11.5t-36.5 33t-12.5 49.5h82q0 -16 8 -25t21 -9q16 0 24 9t9 25h80q0 -42 -27.5 -68t-87.5 -26zM172 767q0 16 8 24.5
t16 15.5t8 16q0 4 -2 9t-9 5t-13 -5.5t-8 -9.5l-53 21q7 24 31 38.5t59 14.5q30 0 51.5 -13.5t21.5 -43.5q0 -27 -9.5 -37.5t-19.5 -16t-10 -18.5h-71z" />
    <glyph glyph-name="uni1EB3" unicode="&#x1eb3;" horiz-adv-x="396" 
d="M116 0q-41 0 -59 13t-23 42.5t-5 76.5v218q0 39 11 65.5t37 40.5t71 14h216v-470h-130v366h-45q-12 0 -18.5 -4t-9 -12t-2.5 -22v-181q0 -20 3 -29t9.5 -11.5t18.5 -2.5h29l-13 -104h-90zM207 513q-43 0 -70 14.5t-40.5 39.5t-13.5 56h82q0 -22 11 -35.5t33 -13.5
q26 0 37 13.5t12 35.5h80q0 -49 -31 -79.5t-100 -30.5zM180 652q0 13 7 22.5t15.5 16.5t15 14.5t6.5 17.5q0 9 -5 16t-17 7t-20.5 -8t-11.5 -18l-53 21q7 29 34 46.5t68 17.5q34 0 59 -16.5t25 -49.5q0 -24 -7.5 -36.5t-18 -19.5t-18.5 -13t-8 -18h-71z" />
    <glyph glyph-name="uni1EB4" unicode="&#x1eb4;" horiz-adv-x="402" 
d="M4 0l128 620h138l128 -620h-139l-24 126l21 -19h-115l17 19l-20 -126h-134zM163 198l-11 14h97l-16 -14l-30 242l-1 24h-5l-1 -24zM198 649q-36 0 -60 11.5t-36.5 33t-12.5 49.5h82q0 -16 8 -25t21 -9q16 0 23.5 9t8.5 25h81q0 -42 -27.5 -68t-87.5 -26zM81 768
q0 49 19 73.5t50 24.5q21 0 36.5 -6t28 -12t24.5 -6q8 0 16 6.5t8 20.5h57q0 -54 -21 -78t-48 -24q-21 0 -34 6.5t-24 13t-26 6.5q-6 0 -14 -6.5t-8 -18.5h-64z" />
    <glyph glyph-name="uni1EB5" unicode="&#x1eb5;" horiz-adv-x="396" 
d="M116 0q-41 0 -59 13t-23 42.5t-5 76.5v218q0 39 11 65.5t37 40.5t71 14h216v-470h-130v366h-45q-12 0 -18.5 -4t-9 -12t-2.5 -22v-181q0 -20 3 -29t9.5 -11.5t18.5 -2.5h29l-13 -104h-90zM207 513q-43 0 -70 14.5t-40.5 39.5t-13.5 56h82q0 -22 11 -35.5t33 -13.5
q26 0 37 13.5t12 35.5h80q0 -49 -31 -79.5t-100 -30.5zM75 651q0 55 21.5 82t56.5 27q24 0 41.5 -8t32.5 -16.5t30 -8.5q13 0 22 9.5t9 25.5h58q0 -59 -23.5 -85t-53.5 -26q-25 0 -40.5 9.5t-28.5 18t-32 8.5q-10 0 -19.5 -9t-9.5 -27h-64z" />
    <glyph glyph-name="uni1EB6" unicode="&#x1eb6;" horiz-adv-x="402" 
d="M4 0l128 620h138l128 -620h-139l-24 126l21 -19h-115l17 19l-20 -126h-134zM163 198l-11 14h97l-16 -14l-30 242l-1 24h-5l-1 -24zM199 -124q-32 0 -37.5 10.5t-5.5 34.5q0 28 5.5 37t37.5 9q34 0 40 -9t6 -37q0 -24 -6.5 -34.5t-39.5 -10.5zM197 663q-43 0 -70 14.5
t-40.5 39.5t-13.5 56h82q0 -21 11 -35.5t33 -14.5q26 0 37 14.5t12 35.5h80q0 -49 -31 -79.5t-100 -30.5z" />
    <glyph glyph-name="uni1EB7" unicode="&#x1eb7;" horiz-adv-x="396" 
d="M116 0q-41 0 -59 13t-23 42.5t-5 76.5v218q0 39 11 65.5t37 40.5t71 14h216v-470h-130v366h-45q-12 0 -18.5 -4t-9 -12t-2.5 -22v-181q0 -20 3 -29t9.5 -11.5t18.5 -2.5h29l-13 -104h-90zM196 -124q-32 0 -37.5 10.5t-5.5 34.5q0 28 5.5 37t37.5 9q34 0 40 -9t6 -37
q0 -24 -6.5 -34.5t-39.5 -10.5zM207 513q-43 0 -70 14.5t-40.5 39.5t-13.5 56h82q0 -22 11 -35.5t33 -13.5q26 0 37 13.5t12 35.5h80q0 -49 -31 -79.5t-100 -30.5z" />
    <glyph glyph-name="uni1EB8" unicode="&#x1eb8;" horiz-adv-x="362" 
d="M28 620h318v-104h-185v-128h163l-16 -104h-147v-180h185v-104h-318v620zM180 -124q-32 0 -37.5 10.5t-5.5 34.5q0 28 5.5 37t37.5 9q34 0 40 -9t6 -37q0 -24 -6.5 -34.5t-39.5 -10.5z" />
    <glyph glyph-name="uni1EB9" unicode="&#x1eb9;" 
d="M192 -5q-69 0 -105 16t-49 44t-13 62v237q0 35 13 62.5t49 43.5t107 16q61 0 97.5 -15t52.5 -42t16 -63v-85l-130 -9v70q0 14 -7.5 29t-29.5 15q-23 0 -30.5 -15t-7.5 -29v-190q0 -14 7.5 -27.5t28.5 -13.5q24 0 31.5 13.5t7.5 29.5v25l130 9v-61q0 -36 -16 -63.5
t-52.5 -43t-99.5 -15.5zM40 210v68h320v-68h-320zM191 -124q-32 0 -37.5 10.5t-5.5 34.5q0 28 5.5 37t37.5 9q34 0 40 -9t6 -37q0 -24 -6.5 -34.5t-39.5 -10.5z" />
    <glyph glyph-name="uni1EBA" unicode="&#x1eba;" horiz-adv-x="362" 
d="M28 620h318v-104h-185v-128h163l-16 -104h-147v-180h185v-104h-318v620zM151 673q0 13 7 22.5t15.5 16.5t15 14.5t6.5 17.5q0 9 -5 16t-17 7t-20.5 -8t-11.5 -18l-53 21q7 29 34 46.5t68 17.5q34 0 59 -16.5t25 -49.5q0 -24 -7.5 -36.5t-18 -19.5t-18.5 -13t-8 -18h-71z
" />
    <glyph glyph-name="uni1EBB" unicode="&#x1ebb;" 
d="M192 -5q-69 0 -105 16t-49 44t-13 62v237q0 35 13 62.5t49 43.5t107 16q61 0 97.5 -15t52.5 -42t16 -63v-85l-130 -9v70q0 14 -7.5 29t-29.5 15q-23 0 -30.5 -15t-7.5 -29v-190q0 -14 7.5 -27.5t28.5 -13.5q24 0 31.5 13.5t7.5 29.5v25l130 9v-61q0 -36 -16 -63.5
t-52.5 -43t-99.5 -15.5zM40 210v68h320v-68h-320zM162 523q0 13 7 22.5t15.5 16.5t15 14.5t6.5 17.5q0 9 -5 16t-17 7t-20.5 -8t-11.5 -18l-53 21q7 29 34 46.5t68 17.5q34 0 59 -16.5t25 -49.5q0 -24 -7.5 -36.5t-18 -19.5t-18.5 -13t-8 -18h-71z" />
    <glyph glyph-name="uni1EBC" unicode="&#x1ebc;" horiz-adv-x="362" 
d="M28 620h318v-104h-185v-128h163l-16 -104h-147v-180h185v-104h-318v620zM46 672q0 55 21.5 82t56.5 27q24 0 41.5 -8t32.5 -16.5t30 -8.5q13 0 22 9.5t9 25.5h58q0 -59 -23.5 -85t-53.5 -26q-25 0 -40.5 9.5t-28.5 18t-32 8.5q-10 0 -19.5 -9t-9.5 -27h-64z" />
    <glyph glyph-name="uni1EBD" unicode="&#x1ebd;" 
d="M192 -5q-69 0 -105 16t-49 44t-13 62v237q0 35 13 62.5t49 43.5t107 16q61 0 97.5 -15t52.5 -42t16 -63v-85l-130 -9v70q0 14 -7.5 29t-29.5 15q-23 0 -30.5 -15t-7.5 -29v-190q0 -14 7.5 -27.5t28.5 -13.5q24 0 31.5 13.5t7.5 29.5v25l130 9v-61q0 -36 -16 -63.5
t-52.5 -43t-99.5 -15.5zM40 210v68h320v-68h-320zM57 522q0 55 21.5 82t56.5 27q24 0 41.5 -8t32.5 -16.5t30 -8.5q13 0 22 9.5t9 25.5h58q0 -59 -23.5 -85t-53.5 -26q-25 0 -40.5 9.5t-28.5 18t-32 8.5q-10 0 -19.5 -9t-9.5 -27h-64z" />
    <glyph glyph-name="uni1EBE" unicode="&#x1ebe;" horiz-adv-x="362" 
d="M28 620h318v-104h-185v-128h163l-16 -104h-147v-180h185v-104h-318v620zM58 659l68 85h110l68 -85h-90l-32 26l-32 -26h-92zM296 716l77 85h110l-105 -85h-82z" />
    <glyph glyph-name="uni1EBF" unicode="&#x1ebf;" 
d="M192 -5q-69 0 -105 16t-49 44t-13 62v237q0 35 13 62.5t49 43.5t107 16q61 0 97.5 -15t52.5 -42t16 -63v-85l-130 -9v70q0 14 -7.5 29t-29.5 15q-23 0 -30.5 -15t-7.5 -29v-190q0 -14 7.5 -27.5t28.5 -13.5q24 0 31.5 13.5t7.5 29.5v25l130 9v-61q0 -36 -16 -63.5
t-52.5 -43t-99.5 -15.5zM40 210v68h320v-68h-320zM52 523l85 102h111l85 -102h-90l-50 42l-50 -42h-91zM323 595l93 103h111l-122 -103h-82z" />
    <glyph glyph-name="uni1EC0" unicode="&#x1ec0;" horiz-adv-x="362" 
d="M28 620h318v-104h-185v-128h163l-16 -104h-147v-180h185v-104h-318v620zM58 659l68 85h110l68 -85h-90l-32 26l-32 -26h-92zM323 716l-104 85h109l77 -85h-82z" />
    <glyph glyph-name="uni1EC1" unicode="&#x1ec1;" 
d="M192 -5q-69 0 -105 16t-49 44t-13 62v237q0 35 13 62.5t49 43.5t107 16q61 0 97.5 -15t52.5 -42t16 -63v-85l-130 -9v70q0 14 -7.5 29t-29.5 15q-23 0 -30.5 -15t-7.5 -29v-190q0 -14 7.5 -27.5t28.5 -13.5q24 0 31.5 13.5t7.5 29.5v25l130 9v-61q0 -36 -16 -63.5
t-52.5 -43t-99.5 -15.5zM40 210v68h320v-68h-320zM52 523l85 102h111l85 -102h-90l-50 42l-50 -42h-91zM355 595l-122 103h111l93 -103h-82z" />
    <glyph glyph-name="uni1EC2" unicode="&#x1ec2;" horiz-adv-x="362" 
d="M28 620h318v-104h-185v-128h163l-16 -104h-147v-180h185v-104h-318v620zM58 659l68 85h110l68 -85h-90l-32 26l-32 -26h-92zM296 716q0 16 8.5 24t16.5 15t8 16q0 5 -2.5 10t-10.5 5q-6 0 -12 -5t-8 -11l-53 21q7 25 30.5 39t59.5 14q30 0 52 -13.5t22 -42.5
q0 -20 -6 -31t-14 -16.5t-14 -10.5t-6 -14h-71z" />
    <glyph glyph-name="uni1EC3" unicode="&#x1ec3;" 
d="M192 -5q-69 0 -105 16t-49 44t-13 62v237q0 35 13 62.5t49 43.5t107 16q61 0 97.5 -15t52.5 -42t16 -63v-85l-130 -9v70q0 14 -7.5 29t-29.5 15q-23 0 -30.5 -15t-7.5 -29v-190q0 -14 7.5 -27.5t28.5 -13.5q24 0 31.5 13.5t7.5 29.5v25l130 9v-61q0 -36 -16 -63.5
t-52.5 -43t-99.5 -15.5zM40 210v68h320v-68h-320zM52 523l85 102h111l85 -102h-90l-50 42l-50 -42h-91zM328 595q0 13 7 22.5t15.5 16.5t15 14.5t6.5 17.5q0 9 -5 16t-17 7t-20.5 -8t-11.5 -18l-53 21q7 29 34 46.5t68 17.5q34 0 59 -16.5t25 -49.5q0 -24 -7.5 -36.5
t-18 -19.5t-18.5 -13t-8 -18h-71z" />
    <glyph glyph-name="uni1EC4" unicode="&#x1ec4;" horiz-adv-x="362" 
d="M28 620h318v-104h-185v-128h163l-16 -104h-147v-180h185v-104h-318v620zM58 659l68 85h110l68 -85h-90l-32 26l-32 -26h-92zM62 765q0 49 18.5 74t50.5 25q20 0 36 -6t28.5 -12t24.5 -6q8 0 15.5 6t7.5 20h57q0 -54 -20.5 -77.5t-47.5 -23.5q-21 0 -34 6.5t-24.5 13
t-26.5 6.5q-7 0 -14.5 -7t-7.5 -19h-63z" />
    <glyph glyph-name="uni1EC5" unicode="&#x1ec5;" 
d="M192 -5q-69 0 -105 16t-49 44t-13 62v237q0 35 13 62.5t49 43.5t107 16q61 0 97.5 -15t52.5 -42t16 -63v-85l-130 -9v70q0 14 -7.5 29t-29.5 15q-23 0 -30.5 -15t-7.5 -29v-190q0 -14 7.5 -27.5t28.5 -13.5q24 0 31.5 13.5t7.5 29.5v25l130 9v-61q0 -36 -16 -63.5
t-52.5 -43t-99.5 -15.5zM40 210v68h320v-68h-320zM52 523l85 102h111l85 -102h-90l-50 42l-50 -42h-91zM56 651q0 55 21.5 82t56.5 27q24 0 41.5 -8t32.5 -16.5t30 -8.5q13 0 22 9.5t9 25.5h58q0 -59 -23.5 -85t-53.5 -26q-25 0 -40.5 9.5t-28.5 18t-32 8.5q-10 0 -19.5 -9
t-9.5 -27h-64z" />
    <glyph glyph-name="uni1EC6" unicode="&#x1ec6;" horiz-adv-x="362" 
d="M28 620h318v-104h-185v-128h163l-16 -104h-147v-180h185v-104h-318v620zM180 -124q-32 0 -37.5 10.5t-5.5 34.5q0 28 5.5 37t37.5 9q34 0 40 -9t6 -37q0 -24 -6.5 -34.5t-39.5 -10.5zM41 673l85 102h111l85 -102h-90l-50 42l-50 -42h-91z" />
    <glyph glyph-name="uni1EC7" unicode="&#x1ec7;" 
d="M192 -5q-69 0 -105 16t-49 44t-13 62v237q0 35 13 62.5t49 43.5t107 16q61 0 97.5 -15t52.5 -42t16 -63v-85l-130 -9v70q0 14 -7.5 29t-29.5 15q-23 0 -30.5 -15t-7.5 -29v-190q0 -14 7.5 -27.5t28.5 -13.5q24 0 31.5 13.5t7.5 29.5v25l130 9v-61q0 -36 -16 -63.5
t-52.5 -43t-99.5 -15.5zM40 210v68h320v-68h-320zM191 -124q-32 0 -37.5 10.5t-5.5 34.5q0 28 5.5 37t37.5 9q34 0 40 -9t6 -37q0 -24 -6.5 -34.5t-39.5 -10.5zM52 523l85 102h111l85 -102h-90l-50 42l-50 -42h-91z" />
    <glyph glyph-name="uni1EC8" unicode="&#x1ec8;" horiz-adv-x="189" 
d="M28 620h133v-620h-133v620zM64 673q0 13 7 22.5t15.5 16.5t15 14.5t6.5 17.5q0 9 -5 16t-17 7t-20.5 -8t-11.5 -18l-53 21q7 29 34 46.5t68 17.5q34 0 59 -16.5t25 -49.5q0 -24 -7.5 -36.5t-18 -19.5t-18.5 -13t-8 -18h-71z" />
    <glyph glyph-name="uni1EC9" unicode="&#x1ec9;" horiz-adv-x="194" 
d="M32 470h130v-470h-130v470zM66 523q0 13 7 22.5t15.5 16.5t15 14.5t6.5 17.5q0 9 -5 16t-17 7t-20.5 -8t-11.5 -18l-53 21q7 29 34 46.5t68 17.5q34 0 59 -16.5t25 -49.5q0 -24 -7.5 -36.5t-18 -19.5t-18.5 -13t-8 -18h-71z" />
    <glyph glyph-name="uni1ECA" unicode="&#x1eca;" horiz-adv-x="189" 
d="M28 620h133v-620h-133v620zM92 -124q-32 0 -37.5 10.5t-5.5 34.5q0 28 5.5 37t37.5 9q34 0 40 -9t6 -37q0 -24 -6.5 -34.5t-39.5 -10.5z" />
    <glyph glyph-name="uni1ECB" unicode="&#x1ecb;" horiz-adv-x="192" 
d="M31 0v470h130v-470h-130zM96 507q-43 0 -55.5 12.5t-12.5 44.5q0 34 12.5 46t55.5 12q44 0 56 -12t12 -46q0 -32 -12 -44.5t-56 -12.5zM94 -124q-32 0 -37.5 10.5t-5.5 34.5q0 28 5.5 37t37.5 9q34 0 40 -9t6 -37q0 -24 -6.5 -34.5t-39.5 -10.5z" />
    <glyph glyph-name="uni1ECC" unicode="&#x1ecc;" horiz-adv-x="383" 
d="M191 -7q-89 0 -128 32t-39 86v399q0 53 38.5 85.5t128.5 32.5q91 0 129.5 -32.5t38.5 -85.5v-398q0 -54 -39 -86.5t-129 -32.5zM191 102q22 0 30 11t8 35v328q0 23 -7.5 33.5t-30.5 10.5q-22 0 -29.5 -10.5t-7.5 -32.5v-330q0 -23 8 -34t29 -11zM190 -124
q-32 0 -37.5 10.5t-5.5 34.5q0 28 5.5 37t37.5 9q34 0 40 -9t6 -37q0 -24 -6.5 -34.5t-39.5 -10.5z" />
    <glyph glyph-name="uni1ECD" unicode="&#x1ecd;" 
d="M192 -5q-69 0 -105 16t-49 44t-13 62v237q0 35 13 62.5t49 43.5t107 16q61 0 97.5 -15t52.5 -42t16 -63v-239q0 -36 -16 -63.5t-52.5 -43t-99.5 -15.5zM191 101q24 0 31.5 13.5t7.5 29.5v188q0 14 -7.5 29t-29.5 15q-23 0 -30.5 -15t-7.5 -29v-190q0 -14 7.5 -27.5
t28.5 -13.5zM191 -124q-32 0 -37.5 10.5t-5.5 34.5q0 28 5.5 37t37.5 9q34 0 40 -9t6 -37q0 -24 -6.5 -34.5t-39.5 -10.5z" />
    <glyph glyph-name="uni1ECE" unicode="&#x1ece;" horiz-adv-x="383" 
d="M191 -7q-89 0 -128 32t-39 86v399q0 53 38.5 85.5t128.5 32.5q91 0 129.5 -32.5t38.5 -85.5v-398q0 -54 -39 -86.5t-129 -32.5zM191 102q22 0 30 11t8 35v328q0 23 -7.5 33.5t-30.5 10.5q-22 0 -29.5 -10.5t-7.5 -32.5v-330q0 -23 8 -34t29 -11zM161 673q0 13 7 22.5
t15.5 16.5t15 14.5t6.5 17.5q0 9 -5 16t-17 7t-20.5 -8t-11.5 -18l-53 21q7 29 34 46.5t68 17.5q34 0 59 -16.5t25 -49.5q0 -24 -7.5 -36.5t-18 -19.5t-18.5 -13t-8 -18h-71z" />
    <glyph glyph-name="uni1ECF" unicode="&#x1ecf;" 
d="M192 -5q-69 0 -105 16t-49 44t-13 62v237q0 35 13 62.5t49 43.5t107 16q61 0 97.5 -15t52.5 -42t16 -63v-239q0 -36 -16 -63.5t-52.5 -43t-99.5 -15.5zM191 101q24 0 31.5 13.5t7.5 29.5v188q0 14 -7.5 29t-29.5 15q-23 0 -30.5 -15t-7.5 -29v-190q0 -14 7.5 -27.5
t28.5 -13.5zM162 523q0 13 7 22.5t15.5 16.5t15 14.5t6.5 17.5q0 9 -5 16t-17 7t-20.5 -8t-11.5 -18l-53 21q7 29 34 46.5t68 17.5q34 0 59 -16.5t25 -49.5q0 -24 -7.5 -36.5t-18 -19.5t-18.5 -13t-8 -18h-71z" />
    <glyph glyph-name="uni1ED0" unicode="&#x1ed0;" horiz-adv-x="383" 
d="M191 -7q-89 0 -128 32t-39 86v399q0 53 38.5 85.5t128.5 32.5q91 0 129.5 -32.5t38.5 -85.5v-398q0 -54 -39 -86.5t-129 -32.5zM191 102q22 0 30 11t8 35v328q0 23 -7.5 33.5t-30.5 10.5q-22 0 -29.5 -10.5t-7.5 -32.5v-330q0 -23 8 -34t29 -11zM68 659l68 85h110l68 -85
h-90l-32 26l-32 -26h-92zM306 716l77 85h110l-105 -85h-82z" />
    <glyph glyph-name="uni1ED1" unicode="&#x1ed1;" 
d="M192 -5q-69 0 -105 16t-49 44t-13 62v237q0 35 13 62.5t49 43.5t107 16q61 0 97.5 -15t52.5 -42t16 -63v-239q0 -36 -16 -63.5t-52.5 -43t-99.5 -15.5zM191 101q24 0 31.5 13.5t7.5 29.5v188q0 14 -7.5 29t-29.5 15q-23 0 -30.5 -15t-7.5 -29v-190q0 -14 7.5 -27.5
t28.5 -13.5zM52 523l85 102h111l85 -102h-90l-50 42l-50 -42h-91zM323 595l93 103h111l-122 -103h-82z" />
    <glyph glyph-name="uni1ED2" unicode="&#x1ed2;" horiz-adv-x="383" 
d="M191 -7q-89 0 -128 32t-39 86v399q0 53 38.5 85.5t128.5 32.5q91 0 129.5 -32.5t38.5 -85.5v-398q0 -54 -39 -86.5t-129 -32.5zM191 102q22 0 30 11t8 35v328q0 23 -7.5 33.5t-30.5 10.5q-22 0 -29.5 -10.5t-7.5 -32.5v-330q0 -23 8 -34t29 -11zM68 659l68 85h110l68 -85
h-90l-32 26l-32 -26h-92zM333 716l-104 85h109l77 -85h-82z" />
    <glyph glyph-name="uni1ED3" unicode="&#x1ed3;" 
d="M192 -5q-69 0 -105 16t-49 44t-13 62v237q0 35 13 62.5t49 43.5t107 16q61 0 97.5 -15t52.5 -42t16 -63v-239q0 -36 -16 -63.5t-52.5 -43t-99.5 -15.5zM191 101q24 0 31.5 13.5t7.5 29.5v188q0 14 -7.5 29t-29.5 15q-23 0 -30.5 -15t-7.5 -29v-190q0 -14 7.5 -27.5
t28.5 -13.5zM52 523l85 102h111l85 -102h-90l-50 42l-50 -42h-91zM355 595l-122 103h111l93 -103h-82z" />
    <glyph glyph-name="uni1ED4" unicode="&#x1ed4;" horiz-adv-x="383" 
d="M191 -7q-89 0 -128 32t-39 86v399q0 53 38.5 85.5t128.5 32.5q91 0 129.5 -32.5t38.5 -85.5v-398q0 -54 -39 -86.5t-129 -32.5zM191 102q22 0 30 11t8 35v328q0 23 -7.5 33.5t-30.5 10.5q-22 0 -29.5 -10.5t-7.5 -32.5v-330q0 -23 8 -34t29 -11zM68 659l68 85h110l68 -85
h-90l-32 26l-32 -26h-92zM306 716q0 16 8.5 24t16.5 15t8 16q0 5 -2.5 10t-10.5 5q-6 0 -12 -5t-8 -11l-53 21q7 25 30.5 39t59.5 14q30 0 52 -13.5t22 -42.5q0 -20 -6 -31t-14 -16.5t-14 -10.5t-6 -14h-71z" />
    <glyph glyph-name="uni1ED5" unicode="&#x1ed5;" 
d="M192 -5q-69 0 -105 16t-49 44t-13 62v237q0 35 13 62.5t49 43.5t107 16q61 0 97.5 -15t52.5 -42t16 -63v-239q0 -36 -16 -63.5t-52.5 -43t-99.5 -15.5zM191 101q24 0 31.5 13.5t7.5 29.5v188q0 14 -7.5 29t-29.5 15q-23 0 -30.5 -15t-7.5 -29v-190q0 -14 7.5 -27.5
t28.5 -13.5zM52 523l85 102h111l85 -102h-90l-50 42l-50 -42h-91zM328 595q0 13 7 22.5t15.5 16.5t15 14.5t6.5 17.5q0 9 -5 16t-17 7t-20.5 -8t-11.5 -18l-53 21q7 29 34 46.5t68 17.5q34 0 59 -16.5t25 -49.5q0 -24 -7.5 -36.5t-18 -19.5t-18.5 -13t-8 -18h-71z" />
    <glyph glyph-name="uni1ED6" unicode="&#x1ed6;" horiz-adv-x="383" 
d="M191 -7q-89 0 -128 32t-39 86v399q0 53 38.5 85.5t128.5 32.5q91 0 129.5 -32.5t38.5 -85.5v-398q0 -54 -39 -86.5t-129 -32.5zM191 102q22 0 30 11t8 35v328q0 23 -7.5 33.5t-30.5 10.5q-22 0 -29.5 -10.5t-7.5 -32.5v-330q0 -23 8 -34t29 -11zM68 659l68 85h110l68 -85
h-90l-32 26l-32 -26h-92zM72 765q0 49 18.5 74t50.5 25q20 0 36 -6t28.5 -12t24.5 -6q8 0 15.5 6t7.5 20h57q0 -54 -20.5 -77.5t-47.5 -23.5q-21 0 -34 6.5t-24.5 13t-26.5 6.5q-7 0 -14.5 -7t-7.5 -19h-63z" />
    <glyph glyph-name="uni1ED7" unicode="&#x1ed7;" 
d="M192 -5q-69 0 -105 16t-49 44t-13 62v237q0 35 13 62.5t49 43.5t107 16q61 0 97.5 -15t52.5 -42t16 -63v-239q0 -36 -16 -63.5t-52.5 -43t-99.5 -15.5zM191 101q24 0 31.5 13.5t7.5 29.5v188q0 14 -7.5 29t-29.5 15q-23 0 -30.5 -15t-7.5 -29v-190q0 -14 7.5 -27.5
t28.5 -13.5zM52 523l85 102h111l85 -102h-90l-50 42l-50 -42h-91zM56 651q0 55 21.5 82t56.5 27q24 0 41.5 -8t32.5 -16.5t30 -8.5q13 0 22 9.5t9 25.5h58q0 -59 -23.5 -85t-53.5 -26q-25 0 -40.5 9.5t-28.5 18t-32 8.5q-10 0 -19.5 -9t-9.5 -27h-64z" />
    <glyph glyph-name="uni1ED8" unicode="&#x1ed8;" horiz-adv-x="383" 
d="M191 -7q-89 0 -128 32t-39 86v399q0 53 38.5 85.5t128.5 32.5q91 0 129.5 -32.5t38.5 -85.5v-398q0 -54 -39 -86.5t-129 -32.5zM191 102q22 0 30 11t8 35v328q0 23 -7.5 33.5t-30.5 10.5q-22 0 -29.5 -10.5t-7.5 -32.5v-330q0 -23 8 -34t29 -11zM190 -124
q-32 0 -37.5 10.5t-5.5 34.5q0 28 5.5 37t37.5 9q34 0 40 -9t6 -37q0 -24 -6.5 -34.5t-39.5 -10.5zM51 673l85 102h111l85 -102h-90l-50 42l-50 -42h-91z" />
    <glyph glyph-name="uni1ED9" unicode="&#x1ed9;" 
d="M192 -5q-69 0 -105 16t-49 44t-13 62v237q0 35 13 62.5t49 43.5t107 16q61 0 97.5 -15t52.5 -42t16 -63v-239q0 -36 -16 -63.5t-52.5 -43t-99.5 -15.5zM191 101q24 0 31.5 13.5t7.5 29.5v188q0 14 -7.5 29t-29.5 15q-23 0 -30.5 -15t-7.5 -29v-190q0 -14 7.5 -27.5
t28.5 -13.5zM191 -124q-32 0 -37.5 10.5t-5.5 34.5q0 28 5.5 37t37.5 9q34 0 40 -9t6 -37q0 -24 -6.5 -34.5t-39.5 -10.5zM52 523l85 102h111l85 -102h-90l-50 42l-50 -42h-91z" />
    <glyph glyph-name="uni1EDA" unicode="&#x1eda;" horiz-adv-x="383" 
d="M191 -7q-89 0 -128 32t-39 86v399q0 53 38.5 85.5t128.5 32.5q91 0 129.5 -32.5t38.5 -85.5v-398q0 -54 -39 -86.5t-129 -32.5zM191 102q22 0 30 11t8 35v328q0 23 -7.5 33.5t-30.5 10.5q-22 0 -29.5 -10.5t-7.5 -32.5v-330q0 -23 8 -34t29 -11zM270 578l-6 42
q20 0 31 11.5t10 37.5h72q0 -37 -23 -64t-84 -27zM106 673l95 101h111l-124 -101h-82z" />
    <glyph glyph-name="uni1EDB" unicode="&#x1edb;" 
d="M192 -5q-69 0 -105 16t-49 44t-13 62v237q0 35 13 62.5t49 43.5t107 16q61 0 97.5 -15t52.5 -42t16 -63v-239q0 -36 -16 -63.5t-52.5 -43t-99.5 -15.5zM191 101q24 0 31.5 13.5t7.5 29.5v188q0 14 -7.5 29t-29.5 15q-23 0 -30.5 -15t-7.5 -29v-190q0 -14 7.5 -27.5
t28.5 -13.5zM264 428l-6 42q20 0 31 11.5t10 37.5h72q0 -37 -23 -64t-84 -27zM108 523l93 103h111l-122 -103h-82z" />
    <glyph glyph-name="uni1EDC" unicode="&#x1edc;" horiz-adv-x="383" 
d="M191 -7q-89 0 -128 32t-39 86v399q0 53 38.5 85.5t128.5 32.5q91 0 129.5 -32.5t38.5 -85.5v-398q0 -54 -39 -86.5t-129 -32.5zM191 102q22 0 30 11t8 35v328q0 23 -7.5 33.5t-30.5 10.5q-22 0 -29.5 -10.5t-7.5 -32.5v-330q0 -23 8 -34t29 -11zM270 578l-6 42
q20 0 31 11.5t10 37.5h72q0 -37 -23 -64t-84 -27zM176 673l-124 101h111l95 -101h-82z" />
    <glyph glyph-name="uni1EDD" unicode="&#x1edd;" 
d="M192 -5q-69 0 -105 16t-49 44t-13 62v237q0 35 13 62.5t49 43.5t107 16q61 0 97.5 -15t52.5 -42t16 -63v-239q0 -36 -16 -63.5t-52.5 -43t-99.5 -15.5zM191 101q24 0 31.5 13.5t7.5 29.5v188q0 14 -7.5 29t-29.5 15q-23 0 -30.5 -15t-7.5 -29v-190q0 -14 7.5 -27.5
t28.5 -13.5zM264 428l-6 42q20 0 31 11.5t10 37.5h72q0 -37 -23 -64t-84 -27zM177 523l-122 103h111l93 -103h-82z" />
    <glyph glyph-name="uni1EDE" unicode="&#x1ede;" horiz-adv-x="383" 
d="M191 -7q-89 0 -128 32t-39 86v399q0 53 38.5 85.5t128.5 32.5q91 0 129.5 -32.5t38.5 -85.5v-398q0 -54 -39 -86.5t-129 -32.5zM191 102q22 0 30 11t8 35v328q0 23 -7.5 33.5t-30.5 10.5q-22 0 -29.5 -10.5t-7.5 -32.5v-330q0 -23 8 -34t29 -11zM270 578l-6 42
q20 0 31 11.5t10 37.5h72q0 -37 -23 -64t-84 -27zM161 673q0 13 7 22.5t15.5 16.5t15 14.5t6.5 17.5q0 9 -5 16t-17 7t-20.5 -8t-11.5 -18l-53 21q7 29 34 46.5t68 17.5q34 0 59 -16.5t25 -49.5q0 -24 -7.5 -36.5t-18 -19.5t-18.5 -13t-8 -18h-71z" />
    <glyph glyph-name="uni1EDF" unicode="&#x1edf;" 
d="M192 -5q-69 0 -105 16t-49 44t-13 62v237q0 35 13 62.5t49 43.5t107 16q61 0 97.5 -15t52.5 -42t16 -63v-239q0 -36 -16 -63.5t-52.5 -43t-99.5 -15.5zM191 101q24 0 31.5 13.5t7.5 29.5v188q0 14 -7.5 29t-29.5 15q-23 0 -30.5 -15t-7.5 -29v-190q0 -14 7.5 -27.5
t28.5 -13.5zM264 428l-6 42q20 0 31 11.5t10 37.5h72q0 -37 -23 -64t-84 -27zM162 523q0 13 7 22.5t15.5 16.5t15 14.5t6.5 17.5q0 9 -5 16t-17 7t-20.5 -8t-11.5 -18l-53 21q7 29 34 46.5t68 17.5q34 0 59 -16.5t25 -49.5q0 -24 -7.5 -36.5t-18 -19.5t-18.5 -13t-8 -18h-71
z" />
    <glyph glyph-name="uni1EE0" unicode="&#x1ee0;" horiz-adv-x="383" 
d="M191 -7q-89 0 -128 32t-39 86v399q0 53 38.5 85.5t128.5 32.5q91 0 129.5 -32.5t38.5 -85.5v-398q0 -54 -39 -86.5t-129 -32.5zM191 102q22 0 30 11t8 35v328q0 23 -7.5 33.5t-30.5 10.5q-22 0 -29.5 -10.5t-7.5 -32.5v-330q0 -23 8 -34t29 -11zM270 578l-6 42
q20 0 31 11.5t10 37.5h72q0 -37 -23 -64t-84 -27zM56 672q0 55 21.5 82t56.5 27q24 0 41.5 -8t32.5 -16.5t30 -8.5q13 0 22 9.5t9 25.5h58q0 -59 -23.5 -85t-53.5 -26q-25 0 -40.5 9.5t-28.5 18t-32 8.5q-10 0 -19.5 -9t-9.5 -27h-64z" />
    <glyph glyph-name="uni1EE1" unicode="&#x1ee1;" 
d="M192 -5q-69 0 -105 16t-49 44t-13 62v237q0 35 13 62.5t49 43.5t107 16q61 0 97.5 -15t52.5 -42t16 -63v-239q0 -36 -16 -63.5t-52.5 -43t-99.5 -15.5zM191 101q24 0 31.5 13.5t7.5 29.5v188q0 14 -7.5 29t-29.5 15q-23 0 -30.5 -15t-7.5 -29v-190q0 -14 7.5 -27.5
t28.5 -13.5zM264 428l-6 42q20 0 31 11.5t10 37.5h72q0 -37 -23 -64t-84 -27zM57 522q0 55 21.5 82t56.5 27q24 0 41.5 -8t32.5 -16.5t30 -8.5q13 0 22 9.5t9 25.5h58q0 -59 -23.5 -85t-53.5 -26q-25 0 -40.5 9.5t-28.5 18t-32 8.5q-10 0 -19.5 -9t-9.5 -27h-64z" />
    <glyph glyph-name="uni1EE2" unicode="&#x1ee2;" horiz-adv-x="383" 
d="M191 -7q-89 0 -128 32t-39 86v399q0 53 38.5 85.5t128.5 32.5q91 0 129.5 -32.5t38.5 -85.5v-398q0 -54 -39 -86.5t-129 -32.5zM191 102q22 0 30 11t8 35v328q0 23 -7.5 33.5t-30.5 10.5q-22 0 -29.5 -10.5t-7.5 -32.5v-330q0 -23 8 -34t29 -11zM270 578l-6 42
q20 0 31 11.5t10 37.5h72q0 -37 -23 -64t-84 -27zM190 -124q-32 0 -37.5 10.5t-5.5 34.5q0 28 5.5 37t37.5 9q34 0 40 -9t6 -37q0 -24 -6.5 -34.5t-39.5 -10.5z" />
    <glyph glyph-name="uni1EE3" unicode="&#x1ee3;" 
d="M192 -5q-69 0 -105 16t-49 44t-13 62v237q0 35 13 62.5t49 43.5t107 16q61 0 97.5 -15t52.5 -42t16 -63v-239q0 -36 -16 -63.5t-52.5 -43t-99.5 -15.5zM191 101q24 0 31.5 13.5t7.5 29.5v188q0 14 -7.5 29t-29.5 15q-23 0 -30.5 -15t-7.5 -29v-190q0 -14 7.5 -27.5
t28.5 -13.5zM264 428l-6 42q20 0 31 11.5t10 37.5h72q0 -37 -23 -64t-84 -27zM191 -124q-32 0 -37.5 10.5t-5.5 34.5q0 28 5.5 37t37.5 9q34 0 40 -9t6 -37q0 -24 -6.5 -34.5t-39.5 -10.5z" />
    <glyph glyph-name="uni1EE4" unicode="&#x1ee4;" horiz-adv-x="382" 
d="M190 -5q-48 0 -86 9t-59 29.5t-21 55.5v531h133v-489q0 -9 3 -16t10.5 -11.5t19.5 -4.5q13 0 20.5 4.5t11 12t3.5 15.5v489h133v-531q0 -35 -22 -55.5t-60 -29.5t-86 -9zM189 -124q-32 0 -37.5 10.5t-5.5 34.5q0 28 5.5 37t37.5 9q34 0 40 -9t6 -37q0 -24 -6.5 -34.5
t-39.5 -10.5z" />
    <glyph glyph-name="uni1EE5" unicode="&#x1ee5;" horiz-adv-x="394" 
d="M133 0q-45 0 -68 14t-30.5 36t-7.5 44v376h130v-319q0 -23 7.5 -35t28.5 -12h39v366h130v-470h-229zM194 -124q-32 0 -37.5 10.5t-5.5 34.5q0 28 5.5 37t37.5 9q34 0 40 -9t6 -37q0 -24 -6.5 -34.5t-39.5 -10.5z" />
    <glyph glyph-name="uni1EE6" unicode="&#x1ee6;" horiz-adv-x="382" 
d="M190 -5q-48 0 -86 9t-59 29.5t-21 55.5v531h133v-489q0 -9 3 -16t10.5 -11.5t19.5 -4.5q13 0 20.5 4.5t11 12t3.5 15.5v489h133v-531q0 -35 -22 -55.5t-60 -29.5t-86 -9zM160 673q0 13 7 22.5t15.5 16.5t15 14.5t6.5 17.5q0 9 -5 16t-17 7t-20.5 -8t-11.5 -18l-53 21
q7 29 34 46.5t68 17.5q34 0 59 -16.5t25 -49.5q0 -24 -7.5 -36.5t-18 -19.5t-18.5 -13t-8 -18h-71z" />
    <glyph glyph-name="uni1EE7" unicode="&#x1ee7;" horiz-adv-x="394" 
d="M133 0q-45 0 -68 14t-30.5 36t-7.5 44v376h130v-319q0 -23 7.5 -35t28.5 -12h39v366h130v-470h-229zM166 523q0 13 7 22.5t15.5 16.5t15 14.5t6.5 17.5q0 9 -5 16t-17 7t-20.5 -8t-11.5 -18l-53 21q7 29 34 46.5t68 17.5q34 0 59 -16.5t25 -49.5q0 -24 -7.5 -36.5
t-18 -19.5t-18.5 -13t-8 -18h-71z" />
    <glyph glyph-name="uni1EE8" unicode="&#x1ee8;" horiz-adv-x="382" 
d="M190 -5q-48 0 -86 9t-59 29.5t-21 55.5v531h133v-489q0 -9 3 -16t10.5 -11.5t19.5 -4.5q13 0 20.5 4.5t11 12t3.5 15.5v489h133v-531q0 -35 -22 -55.5t-60 -29.5t-86 -9zM295 578l-6 42q20 0 31 11.5t10 37.5h72q0 -37 -23 -64t-84 -27zM106 673l95 101h111l-124 -101
h-82z" />
    <glyph glyph-name="uni1EE9" unicode="&#x1ee9;" horiz-adv-x="394" 
d="M133 0q-45 0 -68 14t-30.5 36t-7.5 44v376h130v-319q0 -23 7.5 -35t28.5 -12h39v366h130v-470h-229zM299 428l-6 42q20 0 31 11.5t10 37.5h72q0 -37 -23 -64t-84 -27zM111 523l93 103h111l-122 -103h-82z" />
    <glyph glyph-name="uni1EEA" unicode="&#x1eea;" horiz-adv-x="382" 
d="M190 -5q-48 0 -86 9t-59 29.5t-21 55.5v531h133v-489q0 -9 3 -16t10.5 -11.5t19.5 -4.5q13 0 20.5 4.5t11 12t3.5 15.5v489h133v-531q0 -35 -22 -55.5t-60 -29.5t-86 -9zM295 578l-6 42q20 0 31 11.5t10 37.5h72q0 -37 -23 -64t-84 -27zM175 673l-124 101h111l95 -101
h-82z" />
    <glyph glyph-name="uni1EEB" unicode="&#x1eeb;" horiz-adv-x="394" 
d="M133 0q-45 0 -68 14t-30.5 36t-7.5 44v376h130v-319q0 -23 7.5 -35t28.5 -12h39v366h130v-470h-229zM299 428l-6 42q20 0 31 11.5t10 37.5h72q0 -37 -23 -64t-84 -27zM181 523l-122 103h111l93 -103h-82z" />
    <glyph glyph-name="uni1EEC" unicode="&#x1eec;" horiz-adv-x="382" 
d="M190 -5q-48 0 -86 9t-59 29.5t-21 55.5v531h133v-489q0 -9 3 -16t10.5 -11.5t19.5 -4.5q13 0 20.5 4.5t11 12t3.5 15.5v489h133v-531q0 -35 -22 -55.5t-60 -29.5t-86 -9zM295 578l-6 42q20 0 31 11.5t10 37.5h72q0 -37 -23 -64t-84 -27zM160 673q0 13 7 22.5t15.5 16.5
t15 14.5t6.5 17.5q0 9 -5 16t-17 7t-20.5 -8t-11.5 -18l-53 21q7 29 34 46.5t68 17.5q34 0 59 -16.5t25 -49.5q0 -24 -7.5 -36.5t-18 -19.5t-18.5 -13t-8 -18h-71z" />
    <glyph glyph-name="uni1EED" unicode="&#x1eed;" horiz-adv-x="394" 
d="M133 0q-45 0 -68 14t-30.5 36t-7.5 44v376h130v-319q0 -23 7.5 -35t28.5 -12h39v366h130v-470h-229zM299 428l-6 42q20 0 31 11.5t10 37.5h72q0 -37 -23 -64t-84 -27zM166 523q0 13 7 22.5t15.5 16.5t15 14.5t6.5 17.5q0 9 -5 16t-17 7t-20.5 -8t-11.5 -18l-53 21
q7 29 34 46.5t68 17.5q34 0 59 -16.5t25 -49.5q0 -24 -7.5 -36.5t-18 -19.5t-18.5 -13t-8 -18h-71z" />
    <glyph glyph-name="uni1EEE" unicode="&#x1eee;" horiz-adv-x="382" 
d="M190 -5q-48 0 -86 9t-59 29.5t-21 55.5v531h133v-489q0 -9 3 -16t10.5 -11.5t19.5 -4.5q13 0 20.5 4.5t11 12t3.5 15.5v489h133v-531q0 -35 -22 -55.5t-60 -29.5t-86 -9zM295 578l-6 42q20 0 31 11.5t10 37.5h72q0 -37 -23 -64t-84 -27zM55 672q0 55 21.5 82t56.5 27
q24 0 41.5 -8t32.5 -16.5t30 -8.5q13 0 22 9.5t9 25.5h58q0 -59 -23.5 -85t-53.5 -26q-25 0 -40.5 9.5t-28.5 18t-32 8.5q-10 0 -19.5 -9t-9.5 -27h-64z" />
    <glyph glyph-name="uni1EEF" unicode="&#x1eef;" horiz-adv-x="394" 
d="M133 0q-45 0 -68 14t-30.5 36t-7.5 44v376h130v-319q0 -23 7.5 -35t28.5 -12h39v366h130v-470h-229zM299 428l-6 42q20 0 31 11.5t10 37.5h72q0 -37 -23 -64t-84 -27zM60 522q0 55 21.5 82t56.5 27q24 0 41.5 -8t32.5 -16.5t30 -8.5q13 0 22 9.5t9 25.5h58
q0 -59 -23.5 -85t-53.5 -26q-25 0 -40.5 9.5t-28.5 18t-32 8.5q-10 0 -19.5 -9t-9.5 -27h-64z" />
    <glyph glyph-name="uni1EF0" unicode="&#x1ef0;" horiz-adv-x="382" 
d="M190 -5q-48 0 -86 9t-59 29.5t-21 55.5v531h133v-489q0 -9 3 -16t10.5 -11.5t19.5 -4.5q13 0 20.5 4.5t11 12t3.5 15.5v489h133v-531q0 -35 -22 -55.5t-60 -29.5t-86 -9zM295 578l-6 42q20 0 31 11.5t10 37.5h72q0 -37 -23 -64t-84 -27zM189 -124q-32 0 -37.5 10.5
t-5.5 34.5q0 28 5.5 37t37.5 9q34 0 40 -9t6 -37q0 -24 -6.5 -34.5t-39.5 -10.5z" />
    <glyph glyph-name="uni1EF1" unicode="&#x1ef1;" horiz-adv-x="394" 
d="M133 0q-45 0 -68 14t-30.5 36t-7.5 44v376h130v-319q0 -23 7.5 -35t28.5 -12h39v366h130v-470h-229zM299 428l-6 42q20 0 31 11.5t10 37.5h72q0 -37 -23 -64t-84 -27zM194 -124q-32 0 -37.5 10.5t-5.5 34.5q0 28 5.5 37t37.5 9q34 0 40 -9t6 -37q0 -24 -6.5 -34.5
t-39.5 -10.5z" />
    <glyph glyph-name="Ygrave" unicode="&#x1ef2;" horiz-adv-x="392" 
d="M131 0v198l-133 422h122l78 -267l1 -22h1l1 22l71 267h122l-133 -421v-199h-130zM180 673l-124 101h111l95 -101h-82z" />
    <glyph glyph-name="ygrave" unicode="&#x1ef3;" 
d="M-19 -170l22 80h51q27 0 44.5 16t27.5 58l7 29l-141 457h124l69 -267l1 -31h1l1 31l70 267h126l-160 -522q-20 -62 -49 -90t-83 -28h-111zM178 523l-122 103h111l93 -103h-82z" />
    <glyph glyph-name="uni1EF4" unicode="&#x1ef4;" horiz-adv-x="392" 
d="M131 0v198l-133 422h122l78 -267l1 -22h1l1 22l71 267h122l-133 -421v-199h-130zM194 -124q-32 0 -37.5 10.5t-5.5 34.5q0 28 5.5 37t37.5 9q34 0 40 -9t6 -37q0 -24 -6.5 -34.5t-39.5 -10.5z" />
    <glyph glyph-name="uni1EF5" unicode="&#x1ef5;" 
d="M-19 -170l22 80h51q27 0 44.5 16t27.5 58l7 29l-141 457h124l69 -267l1 -31h1l1 31l70 267h126l-160 -522q-20 -62 -49 -90t-83 -28h-111zM330 -124q-32 0 -37.5 10.5t-5.5 34.5q0 28 5.5 37t37.5 9q34 0 40 -9t6 -37q0 -24 -6.5 -34.5t-39.5 -10.5z" />
    <glyph glyph-name="uni1EF6" unicode="&#x1ef6;" horiz-adv-x="392" 
d="M131 0v198l-133 422h122l78 -267l1 -22h1l1 22l71 267h122l-133 -421v-199h-130zM166 673q0 13 7 22.5t15.5 16.5t15 14.5t6.5 17.5q0 9 -5 16t-17 7t-20.5 -8t-11.5 -18l-53 21q7 29 34 46.5t68 17.5q34 0 59 -16.5t25 -49.5q0 -24 -7.5 -36.5t-18 -19.5t-18.5 -13
t-8 -18h-71z" />
    <glyph glyph-name="uni1EF7" unicode="&#x1ef7;" 
d="M-19 -170l22 80h51q27 0 44.5 16t27.5 58l7 29l-141 457h124l69 -267l1 -31h1l1 31l70 267h126l-160 -522q-20 -62 -49 -90t-83 -28h-111zM163 523q0 13 7 22.5t15.5 16.5t15 14.5t6.5 17.5q0 9 -5 16t-17 7t-20.5 -8t-11.5 -18l-53 21q7 29 34 46.5t68 17.5
q34 0 59 -16.5t25 -49.5q0 -24 -7.5 -36.5t-18 -19.5t-18.5 -13t-8 -18h-71z" />
    <glyph glyph-name="uni1EF8" unicode="&#x1ef8;" horiz-adv-x="392" 
d="M131 0v198l-133 422h122l78 -267l1 -22h1l1 22l71 267h122l-133 -421v-199h-130zM60 672q0 55 21.5 82t56.5 27q24 0 41.5 -8t32.5 -16.5t30 -8.5q13 0 22 9.5t9 25.5h58q0 -59 -23.5 -85t-53.5 -26q-25 0 -40.5 9.5t-28.5 18t-32 8.5q-10 0 -19.5 -9t-9.5 -27h-64z" />
    <glyph glyph-name="uni1EF9" unicode="&#x1ef9;" 
d="M-19 -170l22 80h51q27 0 44.5 16t27.5 58l7 29l-141 457h124l69 -267l1 -31h1l1 31l70 267h126l-160 -522q-20 -62 -49 -90t-83 -28h-111zM57 522q0 55 21.5 82t56.5 27q24 0 41.5 -8t32.5 -16.5t30 -8.5q13 0 22 9.5t9 25.5h58q0 -59 -23.5 -85t-53.5 -26
q-25 0 -40.5 9.5t-28.5 18t-32 8.5q-10 0 -19.5 -9t-9.5 -27h-64z" />
    <glyph glyph-name="uni2010" unicode="&#x2010;" horiz-adv-x="432" 
d="M45 253v105h342v-105h-342z" />
    <glyph glyph-name="endash" unicode="&#x2013;" horiz-adv-x="530" 
d="M45 253v105h440v-105h-440z" />
    <glyph glyph-name="emdash" unicode="&#x2014;" horiz-adv-x="669" 
d="M45 253v105h579v-105h-579z" />
    <glyph glyph-name="quoteleft" unicode="&#x2018;" horiz-adv-x="196" 
d="M150 662q-18 -47 -30.5 -79.5t-12.5 -58.5q22 0 26 -11t4 -29t-2 -28.5t-12 -14.5t-34 -4q-33 0 -39.5 9.5t-6.5 36.5q0 28 8.5 63t20.5 67t20 49h58z" />
    <glyph glyph-name="quoteright" unicode="&#x2019;" horiz-adv-x="196" 
d="M45 447q20 48 32 80t12 58q-21 0 -25.5 11t-4.5 29q0 19 2 29t12 14t34 4q34 0 40 -9.5t6 -36.5t-8.5 -62.5t-20 -67.5t-21.5 -49h-58z" />
    <glyph glyph-name="quotesinglbase" unicode="&#x201a;" horiz-adv-x="211" 
d="M62 -133l-16 214h120l-15 -214h-89z" />
    <glyph glyph-name="quotedblleft" unicode="&#x201c;" horiz-adv-x="335" 
d="M289 662q-18 -47 -30.5 -79.5t-12.5 -58.5q21 0 25 -11t4 -29t-1.5 -28.5t-12 -14.5t-34.5 -4q-33 0 -39.5 9.5t-6.5 36.5q0 28 9 63t20.5 67t20.5 49h58zM150 662q-18 -47 -30.5 -79.5t-12.5 -58.5q22 0 26 -11t4 -29t-2 -28.5t-12 -14.5t-34 -4q-33 0 -39.5 9.5
t-6.5 36.5q0 28 8.5 63t20.5 67t20 49h58z" />
    <glyph glyph-name="quotedblright" unicode="&#x201d;" horiz-adv-x="337" 
d="M45 447q20 48 32 80t12 58q-21 0 -25.5 11t-4.5 29q0 19 2 29t12 14t34 4q34 0 40 -9.5t6 -36.5t-8.5 -62.5t-20 -67.5t-21.5 -49h-58zM186 447q20 48 32 80t12 58q-21 0 -25.5 11t-4.5 29q0 19 2 29t12 14t34 4q34 0 40 -9.5t6 -36.5t-8.5 -62.5t-20 -67.5t-21.5 -49
h-58z" />
    <glyph glyph-name="quotedblbase" unicode="&#x201e;" horiz-adv-x="406" 
d="M226 -133l14 214h120l-44 -214h-90zM46 -133l14 214h120l-45 -214h-89z" />
    <glyph glyph-name="dagger" unicode="&#x2020;" horiz-adv-x="387" 
d="M142 649h104v-722h-104v722zM23 352v105h342v-105h-342z" />
    <glyph glyph-name="daggerdbl" unicode="&#x2021;" horiz-adv-x="387" 
d="M141 649h105v-722h-105v722zM40 232v87h307v-87h-307zM40 408v88h307v-88h-307z" />
    <glyph glyph-name="bullet" unicode="&#x2022;" horiz-adv-x="278" 
d="M137 138q-43 0 -72 31t-29 76q0 43 30 72.5t72 29.5q43 0 73.5 -30.5t30.5 -74.5t-30 -74t-75 -30z" />
    <glyph glyph-name="ellipsis" unicode="&#x2026;" horiz-adv-x="557" 
d="M102 -4q-33 0 -38.5 10.5t-5.5 35.5q0 27 5.5 36.5t38.5 9.5q34 0 39.5 -9.5t5.5 -36.5q0 -25 -6 -35.5t-39 -10.5zM276 -4q-33 0 -38.5 10.5t-5.5 35.5q0 27 5.5 36.5t38.5 9.5q34 0 39.5 -9.5t5.5 -36.5q0 -25 -6 -35.5t-39 -10.5zM451 -4q-33 0 -38.5 10.5t-5.5 35.5
q0 27 5.5 36.5t38.5 9.5q34 0 39.5 -9.5t5.5 -36.5q0 -25 -6 -35.5t-39 -10.5z" />
    <glyph glyph-name="perthousand" unicode="&#x2030;" horiz-adv-x="774" 
d="M56 -44l340 674h84l-342 -674h-82zM421 1q-39 0 -59 8.5t-27.5 23.5t-7.5 34v130q0 18 7.5 33.5t27.5 24t60 8.5q35 0 55 -8.5t29 -23t9 -33.5v-130q0 -20 -9 -35t-29 -23.5t-56 -8.5zM420 60q14 0 18.5 7t4.5 16v101q0 8 -4.5 15.5t-17.5 7.5q-14 0 -18 -7.5t-4 -15.5
v-102q0 -8 4 -15t17 -7zM134 359q-39 0 -59 8.5t-27.5 23.5t-7.5 33v130q0 19 7.5 34t27.5 23.5t60 8.5q35 0 55.5 -8t29 -22.5t8.5 -34.5v-130q0 -19 -9 -34.5t-29 -23.5t-56 -8zM133 417q14 0 18.5 7t4.5 16v101q0 8 -4 16t-18 8q-13 0 -17.5 -8t-4.5 -16v-102q0 -8 4 -15
t17 -7zM640 1q-39 0 -59 8.5t-27.5 23.5t-7.5 34v130q0 18 7.5 33.5t28 24t60.5 8.5q35 0 55 -8.5t28.5 -23t8.5 -33.5v-130q0 -20 -8.5 -35t-29 -23.5t-56.5 -8.5zM640 60q14 0 18.5 7t4.5 16v101q0 8 -4.5 15.5t-17.5 7.5q-14 0 -18.5 -7.5t-4.5 -15.5v-102q0 -8 4.5 -15
t17.5 -7z" />
    <glyph glyph-name="minute" unicode="&#x2032;" horiz-adv-x="211" 
d="M62 423l-16 214h120l-15 -214h-89z" />
    <glyph glyph-name="second" unicode="&#x2033;" horiz-adv-x="409" 
d="M259 423l-16 214h120l-15 -214h-89zM62 423l-16 214h120l-15 -214h-89z" />
    <glyph glyph-name="guilsinglleft" unicode="&#x2039;" horiz-adv-x="329" 
d="M175 46l-129 185l134 193h104l-133 -193l128 -185h-104z" />
    <glyph glyph-name="guilsinglright" unicode="&#x203a;" horiz-adv-x="329" 
d="M51 46l128 185l-133 193h105l133 -193l-129 -185h-104z" />
    <glyph glyph-name="fraction" unicode="&#x2044;" horiz-adv-x="179" 
d="M-145 -44l382 674h104l-385 -674h-101z" />
    <glyph glyph-name="uni2052" unicode="&#x2052;" horiz-adv-x="609" 
d="M84 345q-26 0 -43.5 18.5t-17.5 44.5q0 27 18 44t43 17q26 0 44 -18t18 -44t-18 -44t-44 -18zM466 141q-26 0 -43.5 18.5t-17.5 44.5q0 27 18 44t43 17q26 0 44 -18t18 -44t-18 -44t-44 -18zM101 14l334 630l56 -9l-335 -630z" />
    <glyph glyph-name="uni2074" unicode="&#x2074;" horiz-adv-x="379" 
d="M178 238v77h-128l-47 69l154 257h151l-1 -257h64l-15 -69h-48v-77h-130zM122 384h61v127z" />
    <glyph glyph-name="colonmonetary" unicode="&#x20a1;" horiz-adv-x="371" 
d="M188 -8q-89 0 -129 32.5t-40 87.5v384q0 71 39.5 100.5t126.5 29.5q83 0 126 -29t42 -102v-132l-107 -16v115q0 29 -9 43t-52 14q-36 0 -43 -16t-7 -40v-319q0 -17 8 -29.5t42 -12.5q42 0 51.5 12.5t9.5 29.5v107l107 14v-153q0 -55 -42.5 -87.5t-122.5 -32.5zM128 -85
l48 771h27l-48 -771h-27zM182 -85l49 771h27l-49 -771h-27z" />
    <glyph glyph-name="franc" unicode="&#x20a3;" 
d="M0 114v80h268v-80h-268zM52 620h318v-104h-185v-128h164l-16 -104h-148v-284h-133v620z" />
    <glyph glyph-name="lira" unicode="&#x20a4;" horiz-adv-x="488" 
d="M362 -1q-31 0 -75 5t-90.5 9.5t-83.5 4.5q-27 0 -46.5 -5.5t-29.5 -13.5v42q37 46 54.5 102t17.5 131q0 43 -8.5 79t-17 69t-8.5 66q0 72 43 107.5t132 35.5q90 0 132 -33.5t42 -107.5v-43h-133v37q0 42 -13 54.5t-34 12.5q-16 0 -28 -11t-12 -35q0 -32 8.5 -69.5
t16.5 -79t8 -87.5q0 -78 -19 -119.5t-39 -52.5h10t11 -1q12 -1 24.5 -3.5t25 -4t24.5 -1.5q21 0 30.5 11t9.5 37v32l140 22v-66q0 -36 -7 -64t-26.5 -43.5t-58.5 -16.5zM35 197l10 57h287l-9 -57h-288zM34 297l10 58h289l-10 -58h-289z" />
    <glyph glyph-name="uni20A6" unicode="&#x20a6;" horiz-adv-x="478" 
d="M59 0v620h133l94 -345v345h133v-620h-136l-92 298v-298h-132zM14 224l5 36h444l-4 -36h-445zM14 319l5 35h444l-4 -35h-445z" />
    <glyph glyph-name="peseta" unicode="&#x20a7;" horiz-adv-x="487" 
d="M59 620h247q43 0 63.5 -10.5t27 -32t6.5 -53.5v-156q0 -36 -6 -67.5t-31 -51t-82 -19.5h-91v-230h-134v620zM237 334q19 0 25.5 11t6.5 37v78q0 38 -5.5 47t-24.5 9h-46v-182h44zM8 395v49h477v-49h-477z" />
    <glyph glyph-name="uni20A9" unicode="&#x20a9;" horiz-adv-x="640" 
d="M159 0l-126 620h133l58 -350l1 -23h1l1 23l49 324h100l48 -324l1 -23h1l1 23l52 350h138l-125 -620h-125l-39 285l-1 24h-1l-1 -24l-41 -285h-125zM4 367l9 36h624l-9 -36h-624zM4 439l9 36h624l-9 -36h-624z" />
    <glyph glyph-name="dong" unicode="&#x20ab;" horiz-adv-x="374" 
d="M67 -95v60h285v-60h-285zM127 0q-39 0 -60.5 8.5t-29.5 34.5t-8 77v239q0 39 13 63t39.5 36t66.5 12h86v157h130v-627h-237zM234 104v262h-44q-17 0 -24 -7.5t-7 -26.5v-188q0 -28 7.5 -34t25.5 -6h42zM112 508v63h284v-63h-284z" />
    <glyph glyph-name="Euro" unicode="&#x20ac;" horiz-adv-x="436" 
d="M240 -8q-89 0 -129 32.5t-40 87.5v384q0 71 39.5 100.5t126.5 29.5q83 0 126 -29t42 -102v-66l-132 -16v49q0 29 -5.5 43t-29.5 14t-28.5 -16t-4.5 -40v-319q0 -17 5.5 -29.5t27.5 -12.5q23 0 29 12.5t6 29.5v49l132 15v-96q0 -55 -42.5 -87.5t-122.5 -32.5zM16 230v56
h291l-30 -56h-261zM16 334v56h354l-31 -56h-323z" />
    <glyph glyph-name="uni20AD" unicode="&#x20ad;" horiz-adv-x="514" 
d="M4 297v83h499v-83h-499zM336 -19l-192 351l184 299l100 -64l-147 -225l173 -299zM63 620h134v-620h-134v620z" />
    <glyph glyph-name="uni20B1" unicode="&#x20b1;" horiz-adv-x="487" 
d="M59 620h247q43 0 63.5 -10.5t27 -32t6.5 -53.5v-156q0 -36 -6 -67.5t-31 -51t-82 -19.5h-91v-230h-134v620zM8 367v36h477v-36h-477zM237 305q19 0 25.5 11t6.5 37v107q0 34 -2 49.5t-8.5 19.5t-19.5 4h-46v-228h44zM8 439v36h477v-36h-477z" />
    <glyph glyph-name="uni20B2" unicode="&#x20b2;" horiz-adv-x="373" 
d="M188 -7q-59 0 -96.5 14t-55 40.5t-17.5 63.5v388q0 71 40 99t127 28q81 0 124.5 -28t43.5 -100v-85l-108 -5v63q0 29 -9.5 38t-48.5 9q-36 0 -44.5 -10.5t-8.5 -35.5v-340q0 -11 6 -17.5t18 -9.5t30 -3t27.5 3t13 9.5t3.5 17.5v89h-48l7 112h162v-222q0 -37 -19.5 -63.5
t-56.5 -40.5t-90 -14zM152 -85l45 771h28l-46 -771h-27z" />
    <glyph glyph-name="uni20B5" unicode="&#x20b5;" horiz-adv-x="371" 
d="M188 -8q-89 0 -129 32.5t-40 87.5v384q0 71 39.5 100.5t126.5 29.5q83 0 126 -29t42 -102v-132l-115 -16v115q0 29 -7.5 43t-45.5 14q-29 0 -35 -16t-6 -40v-319q0 -17 7 -29.5t34 -12.5q36 0 44.5 12.5t8.5 29.5v107l115 14v-153q0 -55 -42.5 -87.5t-122.5 -32.5z
M152 -85l47 771h27l-47 -771h-27z" />
    <glyph glyph-name="uni20B9" unicode="&#x20b9;" horiz-adv-x="580" 
d="M98 230v70h134q18 0 27.5 9t9.5 34v153q0 22 -9 29.5t-29 7.5h-223v87h298q43 0 63.5 -10.5t27 -32t6.5 -53.5v-156q0 -36 -6 -67.5t-31 -51t-82 -19.5h-186zM318 -12l-195 289l113 9l182 -237zM8 388l9 70h477l-9 -70h-477z" />
    <glyph glyph-name="uni20BA" unicode="&#x20ba;" horiz-adv-x="473" 
d="M149 -5q-36 0 -49.5 17t-13.5 48v560h134v-491q0 -15 4.5 -20.5t14.5 -5.5h13q19 1 29 4.5t14 12.5t4 27v187l134 48v-254q0 -73 -44.5 -103t-131.5 -30h-108zM34 247v68l234 41v-68zM34 377v68l234 41v-68z" />
    <glyph glyph-name="uni20BC" unicode="&#x20bc;" horiz-adv-x="480" 
d="M23 1l30 531q3 53 51 73.5t135 20.5t136.5 -20.5t52.5 -73.5l30 -531h-134l-30 490q0 8 -4.5 15t-15.5 11.5t-35 4.5q-22 0 -33.5 -4.5t-15 -11.5t-4.5 -15l-30 -490h-133zM221 221l-1 463l42 -77l-5 -463z" />
    <glyph glyph-name="uni20BD" unicode="&#x20bd;" horiz-adv-x="501" 
d="M59 620h247q43 0 63.5 -10.5t27 -32t6.5 -53.5v-156q0 -36 -6 -67.5t-31 -51t-82 -19.5h-91v-230h-134v620zM8 230v70h160v-70h-160zM237 305q19 0 25.5 11t6.5 37v107q0 34 -2 49.5t-8.5 19.5t-19.5 4h-46v-228h44zM8 388v70h477v-70h-477z" />
    <glyph glyph-name="uni2116" unicode="&#x2116;" horiz-adv-x="801" 
d="M28 0v620h133l92 -338l1 -6h1v344h133v-620h-136l-90 292l-1 7h-1v-299h-132zM608 -5q-69 0 -105 16t-49 44t-13 62v237q0 35 13 62.5t49 43.5t107 16q61 0 97.5 -15t52.5 -42t16 -63v-239q0 -36 -16 -63.5t-52.5 -43t-99.5 -15.5zM607 101q24 0 31.5 13.5t7.5 29.5v188
q0 14 -7.5 29t-29.5 15q-23 0 -30.5 -15t-7.5 -29v-190q0 -14 7.5 -27.5t28.5 -13.5z" />
    <glyph glyph-name="trademark" unicode="&#x2122;" horiz-adv-x="628" 
d="M274 247v372h100l53 -225h1l55 225h99v-372h-80v200l-3 -16l-38 -130h-66l-38 129l-3 16v-199h-80zM107 247v309h-62v63h205v-63h-62v-309h-81z" />
    <glyph glyph-name="partialdiff" unicode="&#x2202;" horiz-adv-x="420" 
d="M210 -1q-68 0 -104 12.5t-49.5 46.5t-13.5 99v169q0 77 27.5 110.5t85.5 33.5q28 0 41 -2t33 -5l-8 -11q-3 37 -30.5 66.5t-96.5 29.5h-39v72h101q62 0 111.5 -26.5t79 -87.5t29.5 -166v-183q0 -53 -6 -84.5t-24 -47.5t-51.5 -21t-85.5 -5zM210 111q22 0 29.5 10t7.5 33
v187q0 23 -8.5 33.5t-28.5 10.5q-12 0 -20.5 -5t-12.5 -15.5t-4 -29.5v-178q0 -17 3.5 -27.5t12 -14.5t21.5 -4z" />
    <glyph glyph-name="uni2206" unicode="&#x2206;" horiz-adv-x="625" 
d="M37 0l203 615h151l197 -615h-551zM409 80l-131 431l-135 -431h266z" />
    <glyph glyph-name="product" unicode="&#x220f;" horiz-adv-x="561" 
d="M123 0v531h-99v89h513v-89h-89v-531h-131v531h-64v-531h-130z" />
    <glyph glyph-name="summation" unicode="&#x2211;" horiz-adv-x="481" 
d="M43 65l204 264l-195 249v42h387v-73h-210l149 -192l-201 -251h262v-104h-396v65z" />
    <glyph glyph-name="minus" unicode="&#x2212;" horiz-adv-x="489" 
d="M43 289v69h403v-69h-403z" />
    <glyph glyph-name="uni2215" unicode="&#x2215;" horiz-adv-x="576" 
d="M32 -44l340 674h83l-342 -674h-81z" />
    <glyph glyph-name="uni2219" unicode="&#x2219;" horiz-adv-x="376" 
d="M158 198q-26 0 -43 18.5t-17 44.5q0 27 17.5 44t42.5 17q26 0 44 -18t18 -44t-17.5 -44t-44.5 -18z" />
    <glyph glyph-name="radical" unicode="&#x221a;" horiz-adv-x="568" 
d="M270 1l-120 282l-116 -53v86l186 98l82 -226l91 432h141l-206 -619h-58z" />
    <glyph glyph-name="infinity" unicode="&#x221e;" horiz-adv-x="793" 
d="M192 75q-78 0 -113.5 43.5t-35.5 129.5t35.5 130t113.5 44q36 0 67 -12.5t57 -31.5t46 -38.5t33 -34.5q13 14 33 33.5t46 38.5t57.5 32t68.5 13q79 0 114.5 -44t35.5 -130t-36 -129.5t-114 -43.5q-36 0 -67 12.5t-57 31.5t-46 38.5t-33 34.5q-14 -16 -34 -36.5t-46 -38.5
t-57.5 -30t-67.5 -12zM233 182q25 0 49 15.5t52 44.5l-32 32t-31.5 24.5t-37.5 9.5q-29 0 -41.5 -16t-12.5 -47q0 -32 12.5 -47.5t41.5 -15.5zM559 188q28 0 41.5 15t13.5 48q0 32 -13.5 47t-41.5 15q-17 0 -30 -6t-25 -16t-22.5 -21t-22.5 -22q13 -12 25 -23t24.5 -19.5
t25 -13t25.5 -4.5z" />
    <glyph glyph-name="integral" unicode="&#x222b;" horiz-adv-x="404" 
d="M-12 -179l-17 104h62q23 0 32.5 10.5t12.5 39.5l57 558q4 37 16 57t36 28t65 8h125l-8 -69h-61q-25 0 -33.5 -8.5t-11.5 -40.5l-59 -568q-6 -56 -34 -87.5t-91 -31.5h-91z" />
    <glyph glyph-name="approxequal" unicode="&#x2248;" horiz-adv-x="556" 
d="M34 324q0 59 37.5 88t99.5 29q42 0 73 -8.5t57.5 -17.5t53.5 -9q22 0 38 10t16 28h103q0 -42 -19 -69t-50 -38.5t-67 -11.5q-32 0 -55.5 5.5t-42 13.5t-37.5 13.5t-43 5.5q-17 0 -34.5 -10t-17.5 -29h-112zM44 137q0 59 37.5 88t99.5 29q42 0 73 -9t57.5 -17.5t53.5 -8.5
q22 0 38 10t16 28h103q0 -42 -19 -69t-50 -38.5t-67 -11.5q-32 0 -55.5 5.5t-42 13.5t-37.5 13.5t-43 5.5q-17 0 -34.5 -10t-17.5 -29h-112z" />
    <glyph glyph-name="notequal" unicode="&#x2260;" horiz-adv-x="430" 
d="M52 -44l270 514h83l-272 -514h-81zM43 85v69h379v-69h-379zM43 289v69h379v-69h-379z" />
    <glyph glyph-name="lessequal" unicode="&#x2264;" horiz-adv-x="368" 
d="M332 104l-247 180v85l247 181v-106l-174 -118l174 -117v-105zM86 -27v75h245v-75h-245z" />
    <glyph glyph-name="greaterequal" unicode="&#x2265;" horiz-adv-x="368" 
d="M48 104v105l174 117l-174 118v106l247 -181v-85zM48 -27v75h247v-75h-247z" />
    <glyph glyph-name="lozenge" unicode="&#x25ca;" horiz-adv-x="496" 
d="M223 0l-169 323l171 320h50l168 -320l-170 -323h-50zM250 137l100 186l-100 186l-100 -186z" />
    <glyph glyph-name="uni27E8" unicode="&#x27e8;" horiz-adv-x="319" 
d="M56 240l123 342h84l-125 -342h-82zM181 4l-125 333h84l123 -333h-82z" />
    <glyph glyph-name="uni27E9" unicode="&#x27e9;" horiz-adv-x="319" 
d="M181 240l-125 342h84l122 -342h-81zM56 4l123 333h84l-125 -333h-82z" />
    <glyph glyph-name="uniF8FF" unicode="&#xf8ff;" horiz-adv-x="427" 
d="M147 -15q1 0 1 2q0 1 -0.5 2t-0.5 2t2 3v5q-2 1 -2 4t-10 3q-4 -1 -7 -1.5t-6 -0.5v3h-1v11q-1 3 -4.5 5.5t-5.5 3.5v3h-1v2l-10 9h-16q-1 3 -4 6t-3 7v4l-11 8v24q2 5 2.5 9.5t4.5 10.5l4 6v13v11t-1 9l-5 17v10q-1 4 -2 5t-1 4v14h1v5h-1v7h-3l-5 2l0.5 -1.5t-1.5 -0.5
h-3v9h4q0 2 0.5 2.5t0.5 4.5h4q0 -2 1 -2v1h0.5t1.5 -1v-3h7v5q1 0 1.5 0.5l0.5 0.5v3h1v3q5 0 5 4v10q0 -1 -1 1t-5 3v9q1 1 1 0t1 2l3 11q0 1 0.5 1.5t0.5 1.5q0 3 -2.5 3t-2.5 3h-10v-3h-9v5q1 0 1 -0.5v-0.5q1 0 2 2l1 2h5v1h3v5h3v16h-3q-2 5 -6 5v3h-4v7h-2
q0 3 -1.5 3t-2.5 1v3q-1 1 -5 1h-5v18q0 4 1 4.5t1 5.5l-6 20q-3 11 -3 20v16q0 5 3 8.5t4 6.5v19q2 1 3 3t3 2v3q0 2 2 3l15 16v1h3q1 -1 3 -1l6 3l3 4v3h4l2 2q1 0 1.5 1l0.5 1l7 7l4 4t4 3l1 -1l1 0.5t2 0.5v2l3.5 7t5.5 7v3q0 3 2 3v-1q2 0 6 5.5t11 5.5v3h28l8 4
q2 2 8.5 7t13.5 5q3 0 4 -1l4 -2q3 -1 6.5 -4t4.5 -3q2 0 6.5 1t6.5 2q3 0 4 -1q2 0 7 2.5t19 2.5q6 0 9 -3l11 -10h18l16 -8v-2q4 -2 13.5 -5l9.5 -3v-8q1 -2 5 -3.5t6 -3.5q0 -6 5.5 -6t10.5 -3.5t5 -20.5l5 -8q0 -1 2 -4l2 -3l2 -7q0 -6 -2 -6v-11q-3 0 -3 -3v-13l6 -8
q5 -6 5.5 -16t0.5 -21v-12h-4v-10h-2q1 0 1 -0.5v-0.5h-3v-4q-2 -2 -2 -4t1 -6.5t2 -6.5q0 -1 -1 -2.5l-1 -1.5v-41h1v-5h2q-3 -6 -3 -9h-3q-3 -4 -4 -9v-9h-2q0 -3 -0.5 -3.5t-0.5 -3.5v-3q-1 -1 -2 -1.5t-1 -1.5v-4q0 -1 -2 -1h-3q-2 -4 -2 -5q-1 2 -1 1.5t-2 2.5h1
q0 1 -1 1h-3l3 4q-3 0 -4 1v2.5t4 1.5q0 1 -1 1.5l-1 0.5q0 1 1.5 1.5t1.5 3.5v2h4q0 4 -2 4q0 2 3 2v76q0 5 1.5 9t2.5 4v3q1 0 1.5 0.5t1.5 0.5v5h1v20q-1 0 -1 3v7h-3v3q-1 -1 -2 0.5t-2 1.5h-3v2h-2v2h-1v5h-3v7h-1v3q-3 0 -3 4q-1 -2 -3 -2h-7q0 2 -1 4l-3 2q1 0 1 1
l-1 -1v1l-2 4h-11l-7 10h-1v-1q-2 0 -3 1.5t-3 1.5t-4.5 -0.5t-1.5 -1.5h-4v-2h-4q0 -1 -1 -2t-6 -1t-9 0.5t-7 0.5v2q-1 -1 -1 1t-2 2h-2v3h-7v1h-2v4h-3q0 3 1.5 3.5t1.5 1.5q-3 3 -4 7t-5 3v3q-6 0 -16 -1.5t-10 -6.5v-1h-1l-0.5 -1.5t-1.5 -1.5q-2 0 -2 2v-4h-12l-2 3v2
h-5q-4 0 -5 -2.5t-4 -3.5v-3q-2 0 -4 3v-5q-5 0 -7.5 -2t-6.5 -5h-3v-2h-20q-1 -1 -3.5 -5t-2.5 -6q0 -1 0.5 -1t0.5 -1l-2 -2l-2 -3h-1t-2 -1q0 1 -0.5 1.5t-0.5 1.5q-5 0 -5 -3q-3 0 -3 2l-3 -2h-6q-1 0 -1.5 1t-2.5 1q-3 0 -4.5 -3l-1.5 -3v-1l6 -6v0.5t1 0.5h2
q0 -1 1 -2.5t1 -3.5q0 -1 -2 -1v-13q0 -1 0.5 -1.5t0.5 -1.5v-3l6 -4q0 -2 7 -2q1 2 3 2t2 4v3l3 3q3 3 3 4l-1 1h5v-3h2v-11q1 0 1.5 -2.5t0.5 -4.5h3q0 -1 2 -6t2 -7q-3 -1 -3 -3l1 -4q0 -1 -0.5 -1t-0.5 -2l-2 -2q-1 0 -1.5 -0.5l-0.5 -0.5h-4v-2h-1v-19l1 1v-3h11v-1
q2 3 8.5 3.5t13.5 0.5h26.5t17.5 -1l2 -2h6q2 -5 7.5 -11.5t6.5 -11.5l-2.5 -4t-4.5 -3l-2 -5q0 -11 -11 -11h-26l-7 -5v-1h-11v1h-4q0 1 -1 1v2q-1 0 -1 1h-3q0 1 -1 1h-9q0 2 -3.5 2.5t-1.5 2.5v2h-3q-1 0 -1 2v3h-12q0 1 -0.5 2l-1.5 3l-3 5h-9l-3 -3q-1 0 -1 0.5t-5 0.5
q-3 -5 -5.5 -6.5t-2.5 -6.5q0 -4 1.5 -4.5t1.5 -2.5h4q5 -4 7 -3t2 -4q0 -7 -6.5 -5t-6.5 -6q0 -3 0.5 -5.5t0.5 -5.5l3 -8q2 -5 2 -6.5t2 -4.5l3 -3q2 0 4 -0.5t3 -0.5h3t2 1h3l3 -3q4 -1 10 -1q5 0 10 1.5t8 1.5h2l7 1v2h3q3 3 4.5 5t6.5 6v1h1q1 1 1 0t1 -1t2 0.5l1 0.5
q3 -3 3 -8v-14q1 0 1.5 -0.5t1.5 -0.5h13l7 1v-1h6v-1h4v-4h6l2 -3h19q3 0 5.5 1.5t7.5 1.5v-4h2v-8q-1 0 -1.5 -0.5l-0.5 -0.5v-4q-1 1 -2 1q-7 -1 -8.5 -1t-3.5 -6h-4v-3q-4 2 -6 2t-3.5 -1.5t-6.5 -1.5v-4q0 -1 2 -3l5 -3v-2h-5q-2 0 -2.5 -0.5t-1.5 -0.5v1
q-5 0 -10.5 -0.5t-10.5 -0.5q-1 1 -1 2t-2 2l-2 3h-5v2h-10v-2q-1 -1 -2.5 -0.5t-1.5 -1.5v-10l3 -3q0 -1 0.5 -2t0.5 -3h15q1 0 1 -0.5t1 -0.5v-2q-1 -1 -4 -1h-8q-9 0 -12.5 3.5l-7 7t-12.5 3.5v-2q-1 0 -1.5 -1t-1.5 0v-4l-2 -3q0 -1 -2 -3q-2 2 -6 2v-2h-4q0 -3 -4 -7
l3 -3v-29h-3q0 -4 2.5 -5t1.5 -1l-1 -1l1 -0.5t3 -0.5h5q2 2 4 2l2 -4q1 -1 1 -2v-1q-1 -2 -1 -7v-7q1 0 1.5 -2t1.5 -2t1 -1l10 -8q0 -2 1 -2t2 1l1 1h3v-3h5q1 0 5 -2q2 0 4.5 1.5t3.5 1.5t1 -1v-2h7l2 -4h24q-1 0 0.5 -0.5t1.5 -2.5l1 1q1 -1 4 -3.5t4 -3.5h14l3 2
q-1 0 -1 0.5v0.5q0 2 3 2q4 -3 4 -9h-1q1 -1 1 -4q-7 0 -7.5 -5t-10.5 -5q1 -1 1 -1.5v-0.5v-0.5t-1 -0.5h-3q0 -1 -2 -5h-4v-5h-3v-5q-1 0 -1.5 0.5t-1.5 0.5q0 1 -2.5 -2.5t-2.5 -7.5l-6 -9h-9v-2q-1 -1 -3.5 -1.5t-4.5 -2.5q0 -3 1 -4l-2 -2h-5v-2h-3v-1h-2v-7h-55v3z
M61 240q-3 3 -3 5v3l-3 2l-0.5 0.5t-0.5 1.5v3h-2v2q-1 1 -1 6h1v1h3q2 -2 2 -3l1 -1h2v-3l2 -4t1 -3v-3h-1q0 -1 0.5 -1.5t0.5 -1.5h5q-2 -1 -3.5 -1.5t-3.5 -2.5zM54 283q-3 2 -3 4q3 2 3 4h-1v6h-2v8h1l1 1v-1h1v-4q0 -1 0.5 -1t0.5 -1t2 -1v-2l1 -1q1 0 1 -0.5t1 -0.5
v-8h-1l-2 -2v-1h-3zM221 126q-5 3 -5 4q-1 0 -1.5 -0.5l-0.5 -0.5q-1 0 -1 2h-6l-3 2q0 3 1 3v4h1q2 0 3 -0.5t6 -0.5q0 3 2 3h3q1 0 1 0.5t2 0.5h3q-3 2 -5 1.5t-2 2.5h-3q-1 -1 -2 0t-1 2l1 1v3h11q1 0 0.5 1t0.5 1l3 -2h5q0 2 3 2q2 0 4.5 -2.5t2.5 -4.5v-1h-8
q0 -2 -4 -2v-3q1 0 2 1h4q1 0 2 1q0 -1 4 -3t4 -6q2 0 -3.5 -2.5t-10.5 -2.5h-3q-1 -1 -6 -1v-2q-3 0 -4 -1zM238 158q-1 0 -1 4h2h0.5t1.5 -1v2h10q1 -1 1 -1.5v-0.5q-3 -3 -11 -3h-3zM287 74l-2 0.5t-2 2.5l2 4q-1 0 0 1.5t-1 2.5h4v2h1v2h2l3.5 5t7.5 6l-4 3l0.5 0.5
t1.5 0.5h2v7l2 3l-2 2h1l1 0.5t1 3.5v2h2v5h2q0 2 1.5 1.5t1.5 0.5v2h4v1h5q2 1 4 6.5t9 5.5q4 0 4 -5v-3q0 -1 -0.5 -1t-0.5 -1h1q0 -1 -1 -2h-2v-3q-1 -2 -3 -2t-4 -2l-6 -4q-3 -5 -6 -5l-2 -2l-2 -4t-3 -4v-3l-2 -3q-1 0 -1 0.5t-1 0.5q-4 0 -4 -5q1 -2 1 -5.5v-3.5v-7
h-5v-3h-6q-1 0 -1.5 -1.5t-2.5 -1.5zM297 260q-1 0 -4.5 5t-5.5 5h-17q0 1 -1 1q0 3 1 4t1 3v1t-1 2l-5 4q1 1 1 2v1l-1 6q2 0 2 2v1l1.5 1t0.5 2v3h1l4 4l3 1.5t6 1.5v2q0 2 1 3h7v2l7 1l4 -3h9l3 -5h5q0 -4 4 -4q2 0 5 2t4 2q0 -3 2 -4.5l2 -1.5l1 1v-4h4v-2q4 0 4 -2v-3
l-2 -2h1q0 -1 -2 -3t-2 -4q0 -1 1 -1t1 -1q0 -7 -9.5 -6.5t-13.5 -3.5v-2q-1 0 -2 -0.5t-3 -0.5v-3q-1 -1 -3 -2.5t-2 -3.5h-12v-1z" />
    <glyph glyph-name="acutecomb.case" horiz-adv-x="0" 
d="M0 523l95 101h111l-124 -101h-82z" />
    <glyph glyph-name="uni0306.case" horiz-adv-x="0" 
d="M141 513q-43 0 -70 14.5t-40.5 39.5t-13.5 56h82q0 -21 11 -35.5t33 -14.5q26 0 37 14.5t12 35.5h80q0 -49 -31 -79.5t-100 -30.5z" />
    <glyph glyph-name="uni03060301" horiz-adv-x="0" 
d="M141 513q-43 0 -70 14.5t-40.5 39.5t-13.5 56h82q0 -22 11 -35.5t33 -13.5q26 0 37 13.5t12 35.5h80q0 -49 -31 -79.5t-100 -30.5zM60 652l93 103h111l-122 -103h-82z" />
    <glyph glyph-name="uni03060301.case" horiz-adv-x="0" 
d="M127 405q-36 0 -60 11.5t-36.5 33t-12.5 49.5h82q0 -16 8 -25t21 -9q16 0 24 9t9 25h80q0 -42 -27.5 -68t-87.5 -26zM50 523l77 85h109l-104 -85h-82z" />
    <glyph glyph-name="uni03060300" horiz-adv-x="0" 
d="M156 513q-43 0 -70 14.5t-40.5 39.5t-13.5 56h82q0 -22 11 -35.5t33 -13.5q26 0 37 13.5t12 35.5h80q0 -49 -31 -79.5t-100 -30.5zM144 652l-122 103h111l93 -103h-82z" />
    <glyph glyph-name="uni03060300.case" horiz-adv-x="0" 
d="M142 405q-36 0 -60.5 11.5t-36.5 33t-12 49.5h81q0 -16 8 -25t22 -9q15 0 22.5 9t8.5 25h82q0 -42 -28 -68t-87 -26zM127 523l-104 85h110l76 -85h-82z" />
    <glyph glyph-name="uni03060309" horiz-adv-x="0" 
d="M141 513q-43 0 -70 14.5t-40.5 39.5t-13.5 56h82q0 -22 11 -35.5t33 -13.5q26 0 37 13.5t12 35.5h80q0 -49 -31 -79.5t-100 -30.5zM114 652q0 13 7 22.5t15.5 16.5t15 14.5t6.5 17.5q0 9 -5 16t-17 7t-20.5 -8t-11.5 -18l-53 21q7 29 34 46.5t68 17.5q34 0 59 -16.5
t25 -49.5q0 -24 -7.5 -36.5t-18 -19.5t-18.5 -13t-8 -18h-71z" />
    <glyph glyph-name="uni03060309.case" horiz-adv-x="0" 
d="M127 405q-36 0 -60 11.5t-36.5 33t-12.5 49.5h82q0 -16 8 -25t21 -9q16 0 24 9t9 25h80q0 -42 -27.5 -68t-87.5 -26zM101 523q0 16 8 24.5t16 15.5t8 16q0 4 -2 9t-9 5t-13 -5.5t-8 -9.5l-53 21q7 24 31 38.5t59 14.5q30 0 51.5 -13.5t21.5 -43.5q0 -27 -9.5 -37.5
t-19.5 -16t-10 -18.5h-71z" />
    <glyph glyph-name="uni03060303" horiz-adv-x="0" 
d="M141 513q-43 0 -70 14.5t-40.5 39.5t-13.5 56h82q0 -22 11 -35.5t33 -13.5q26 0 37 13.5t12 35.5h80q0 -49 -31 -79.5t-100 -30.5zM9 651q0 55 21.5 82t56.5 27q24 0 41.5 -8t32.5 -16.5t30 -8.5q13 0 22 9.5t9 25.5h58q0 -59 -23.5 -85t-53.5 -26q-25 0 -40.5 9.5
t-28.5 18t-32 8.5q-10 0 -19.5 -9t-9.5 -27h-64z" />
    <glyph glyph-name="uni03060303.case" horiz-adv-x="0" 
d="M127 405q-36 0 -60 11.5t-36.5 33t-12.5 49.5h82q0 -16 8 -25t21 -9q16 0 23.5 9t8.5 25h81q0 -42 -27.5 -68t-87.5 -26zM10 524q0 49 19 73.5t50 24.5q21 0 36.5 -6t28 -12t24.5 -6q8 0 16 6.5t8 20.5h57q0 -54 -21 -78t-48 -24q-21 0 -34 6.5t-24 13t-26 6.5
q-6 0 -14 -6.5t-8 -18.5h-64z" />
    <glyph glyph-name="uni0311.case" horiz-adv-x="0" 
d="M141 634q69 0 100 -30.5t31 -79.5h-80q-1 22 -12 35.5t-37 13.5q-22 0 -33 -14t-11 -35h-82q0 32 13.5 56.5t40.5 39t70 14.5z" />
    <glyph glyph-name="uni030C.alt" horiz-adv-x="0" 
d="M-19 322l19 148h77l-40 -148h-56z" />
    <glyph glyph-name="uni030C.alt.case" horiz-adv-x="0" 
d="M-19 322l19 148h77l-40 -148h-56z" />
    <glyph glyph-name="uni030C.case" horiz-adv-x="0" 
d="M8 625h91l50 -43l50 43h90l-85 -102h-111z" />
    <glyph glyph-name="uni0302.case" horiz-adv-x="0" 
d="M8 523l85 102h111l85 -102h-90l-50 42l-50 -42h-91z" />
    <glyph glyph-name="uni03020301" horiz-adv-x="0" 
d="M8 523l85 102h111l85 -102h-90l-50 42l-50 -42h-91zM279 595l93 103h111l-122 -103h-82z" />
    <glyph glyph-name="uni03020301.case" horiz-adv-x="0" 
d="M8 415l68 85h110l68 -85h-90l-32 26l-32 -26h-92zM246 472l77 85h110l-105 -85h-82z" />
    <glyph glyph-name="uni03020300" horiz-adv-x="0" 
d="M8 523l85 102h111l85 -102h-90l-50 42l-50 -42h-91zM311 595l-122 103h111l93 -103h-82z" />
    <glyph glyph-name="uni03020300.case" horiz-adv-x="0" 
d="M8 415l68 85h110l68 -85h-90l-32 26l-32 -26h-92zM273 472l-104 85h109l77 -85h-82z" />
    <glyph glyph-name="uni03020309" horiz-adv-x="0" 
d="M8 523l85 102h111l85 -102h-90l-50 42l-50 -42h-91zM284 595q0 13 7 22.5t15.5 16.5t15 14.5t6.5 17.5q0 9 -5 16t-17 7t-20.5 -8t-11.5 -18l-53 21q7 29 34 46.5t68 17.5q34 0 59 -16.5t25 -49.5q0 -24 -7.5 -36.5t-18 -19.5t-18.5 -13t-8 -18h-71z" />
    <glyph glyph-name="uni03020309.case" horiz-adv-x="0" 
d="M8 415l68 85h110l68 -85h-90l-32 26l-32 -26h-92zM246 472q0 16 8.5 24t16.5 15t8 16q0 5 -2.5 10t-10.5 5q-6 0 -12 -5t-8 -11l-53 21q7 25 30.5 39t59.5 14q30 0 52 -13.5t22 -42.5q0 -20 -6 -31t-14 -16.5t-14 -10.5t-6 -14h-71z" />
    <glyph glyph-name="uni03020303" horiz-adv-x="0" 
d="M8 523l85 102h111l85 -102h-90l-50 42l-50 -42h-91zM13 651q0 55 21.5 82t56.5 27q24 0 41.5 -8t32.5 -16.5t30 -8.5q13 0 22 9.5t9 25.5h58q0 -59 -23.5 -85t-53.5 -26q-25 0 -40.5 9.5t-28.5 18t-32 8.5q-10 0 -19.5 -9t-9.5 -27h-64z" />
    <glyph glyph-name="uni03020303.case" horiz-adv-x="0" 
d="M8 415l68 85h110l68 -85h-90l-32 26l-32 -26h-92zM12 521q0 49 18.5 74t50.5 25q20 0 36 -6t28.5 -12t24.5 -6q8 0 15.5 6t7.5 20h57q0 -54 -20.5 -77.5t-47.5 -23.5q-21 0 -34 6.5t-24.5 13t-26.5 6.5q-7 0 -14.5 -7t-7.5 -19h-63z" />
    <glyph glyph-name="uni030F.case" horiz-adv-x="0" 
d="M62 523l-122 103h111l93 -103h-82zM190 523l-122 103h111l93 -103h-82z" />
    <glyph glyph-name="uni0308.case" horiz-adv-x="0" 
d="M200 518q-33 0 -38 10.5t-5 35.5q0 27 5 36t38 9q34 0 39.5 -9t5.5 -36q0 -25 -6 -35.5t-39 -10.5zM63 518q-32 0 -37.5 10.5t-5.5 35.5q0 27 5.5 36t37.5 9q34 0 40 -9t6 -36q0 -25 -6.5 -35.5t-39.5 -10.5z" />
    <glyph glyph-name="uni0307.case" horiz-adv-x="0" 
d="M43 520q-32 0 -37.5 10.5t-5.5 34.5q0 28 5.5 37t37.5 9q34 0 40 -9t6 -37q0 -24 -6.5 -34.5t-39.5 -10.5z" />
    <glyph glyph-name="gravecomb.case" horiz-adv-x="0" 
d="M122 523l-124 101h111l95 -101h-82z" />
    <glyph glyph-name="hookabovecomb.case" horiz-adv-x="0" 
d="M63 523q0 13 7 22.5t15.5 16.5t15 14.5t6.5 17.5q0 9 -5 16t-17 7t-20.5 -8t-11.5 -18l-53 21q7 29 34 46.5t68 17.5q34 0 59 -16.5t25 -49.5q0 -24 -7.5 -36.5t-18 -19.5t-18.5 -13t-8 -18h-71z" />
    <glyph glyph-name="uni031B.case" horiz-adv-x="0" 
d="M6 428l-6 42q20 0 31 11.5t10 37.5h72q0 -37 -23 -64t-84 -27z" />
    <glyph glyph-name="uni030B.case" horiz-adv-x="0" 
d="M0 523l46 103h111l-75 -103h-82zM141 523l46 103h111l-75 -103h-82z" />
    <glyph glyph-name="i.loclTRK" horiz-adv-x="194" 
d="M32 470h130v-470h-130v470zM95 520q-32 0 -37.5 10.5t-5.5 34.5q0 28 5.5 37t37.5 9q34 0 40 -9t6 -37q0 -24 -6.5 -34.5t-39.5 -10.5z" />
    <glyph glyph-name="uni0304.case" horiz-adv-x="0" 
d="M0 524v80h281v-80h-281z" />
    <glyph glyph-name="periodcentered.loclCAT" horiz-adv-x="109" 
d="M54 207q-33 0 -38.5 10.5t-5.5 35.5q0 27 5.5 36.5t38.5 9.5q34 0 39.5 -9.5t5.5 -36.5q0 -25 -6 -35.5t-39 -10.5z" />
    <glyph glyph-name="periodcentered.loclCAT.case" horiz-adv-x="106" 
d="M46 218q-33 0 -38.5 10.5t-5.5 35.5q0 27 5.5 36.5t38.5 9.5q34 0 39.5 -9.5t5.5 -36.5q0 -25 -6 -35.5t-39 -10.5z" />
    <glyph glyph-name="uni030A.case" horiz-adv-x="0" 
d="M97 517q-41 0 -69 26t-28 64t28 65t69 27q39 0 67.5 -27t28.5 -65t-28.5 -64t-67.5 -26zM97 570q16 0 27 10.5t11 26.5q0 15 -11.5 26t-26.5 11q-16 0 -27.5 -11t-11.5 -26q0 -16 11 -26.5t28 -10.5z" />
    <glyph glyph-name="tildecomb.case" horiz-adv-x="0" 
d="M10 522q0 55 21.5 82t56.5 27q24 0 41.5 -8t32.5 -16.5t30 -8.5q13 0 22 9.5t9 25.5h58q0 -59 -23.5 -85t-53.5 -26q-25 0 -40.5 9.5t-28.5 18t-32 8.5q-10 0 -19.5 -9t-9.5 -27h-64z" />
    <glyph glyph-name="uni03030307" horiz-adv-x="0" 
d="M10 522q0 55 21.5 82t56.5 27q24 0 41.5 -8t32.5 -16.5t30 -8.5q13 0 22 9.5t9 25.5h58q0 -59 -23.5 -85t-53.5 -26q-25 0 -40.5 9.5t-28.5 18t-32 8.5q-10 0 -19.5 -9t-9.5 -27h-64zM144 655q-32 0 -37.5 10.5t-5.5 34.5q0 28 5.5 37t37.5 9q34 0 40 -9t6 -37
q0 -24 -6.5 -34.5t-39.5 -10.5z" />
    <glyph glyph-name="uni03030304" horiz-adv-x="0" 
d="M11 522q0 55 21.5 82t56.5 27q24 0 41.5 -8t32.5 -16.5t30 -8.5q13 0 22 9.5t9 25.5h58q0 -59 -23.5 -85t-53.5 -26q-25 0 -40.5 9.5t-28.5 18t-32 8.5q-10 0 -19.5 -9t-9.5 -27h-64zM6 659v80h281v-80h-281z" />
    </font>
</defs>
</svg>
